<?xml version="1.0" encoding="UTF-8"?>
<svg xmlns="http://www.w3.org/2000/svg" viewBox="0 0 1347.47 685.33">
  <defs>
    <style>
      .cls-1 {
        fill: #b7dd8a;
      }

      .cls-2 {
        fill: #2990ea;
        opacity: .5;
      }

      .cls-3 {
        fill: #1e1e1e;
      }

      .cls-4 {
        fill: #fcfcfc;
      }

      .cls-5 {
        fill: #2377b5;
      }
    </style>
  </defs>
  <g id="Layer_4" data-name="Layer 4">
    <g>
      <path class="cls-1" d="M683.86,93.67c0-3.78-1.34-6.73-4.02-8.85-2.68-2.11-7.39-4.3-14.12-6.56-6.73-2.26-12.24-4.45-16.52-6.56-13.91-6.83-20.87-16.22-20.87-28.17,0-5.95,1.73-11.19,5.2-15.74,3.46-4.55,8.37-8.08,14.71-10.62,6.34-2.53,13.47-3.8,21.38-3.8s14.64,1.38,20.75,4.13c6.12,2.75,10.88,6.67,14.27,11.76,3.39,5.09,5.09,10.9,5.09,17.44h-25.81c0-4.37-1.34-7.77-4.02-10.17-2.68-2.41-6.3-3.61-10.88-3.61s-8.27,1.02-10.95,3.06c-2.68,2.04-4.02,4.63-4.02,7.78,0,2.75,1.47,5.25,4.42,7.48,2.95,2.24,8.13,4.55,15.56,6.93,7.42,2.38,13.52,4.95,18.29,7.71,11.6,6.69,17.4,15.9,17.4,27.65,0,9.39-3.54,16.76-10.62,22.12-7.08,5.36-16.79,8.04-29.12,8.04-8.7,0-16.58-1.56-23.63-4.68-7.05-3.12-12.36-7.4-15.93-12.83-3.56-5.43-5.35-11.69-5.35-18.76h25.95c0,5.75,1.49,9.99,4.46,12.72,2.97,2.73,7.8,4.09,14.49,4.09,4.28,0,7.66-.92,10.14-2.76,2.48-1.84,3.72-4.44,3.72-7.78Z"/>
      <path class="cls-1" d="M807.21,14.85V85.11c0,7.96-1.7,14.86-5.09,20.68-3.39,5.83-8.26,10.26-14.6,13.31-6.34,3.05-13.84,4.57-22.49,4.57-13.08,0-23.37-3.39-30.89-10.17s-11.35-16.07-11.5-27.87V14.85h26.03V86.15c.29,11.75,5.75,17.62,16.37,17.62,5.36,0,9.41-1.47,12.17-4.42,2.75-2.95,4.13-7.74,4.13-14.38V14.85h25.88Z"/>
      <path class="cls-1" d="M910.21,85.85c-.34,7.47-2.36,14.07-6.05,19.8-3.69,5.73-8.86,10.16-15.52,13.31-6.66,3.15-14.27,4.72-22.82,4.72-14.11,0-25.22-4.6-33.33-13.79-8.11-9.19-12.17-22.17-12.17-38.93v-5.31c0-10.52,1.83-19.72,5.49-27.61,3.66-7.89,8.93-13.98,15.82-18.29,6.88-4.3,14.84-6.45,23.89-6.45,13.03,0,23.5,3.43,31.41,10.29,7.91,6.86,12.41,16.31,13.49,28.35h-25.8c-.2-6.54-1.84-11.23-4.94-14.08-3.1-2.85-7.82-4.28-14.16-4.28s-11.16,2.41-14.16,7.23c-3,4.82-4.57,12.51-4.72,23.08v7.59c0,11.45,1.44,19.64,4.31,24.55,2.88,4.92,7.83,7.37,14.86,7.37,5.95,0,10.49-1.4,13.64-4.2s4.82-7.25,5.01-13.35h25.73Z"/>
      <path class="cls-1" d="M1009.31,85.85c-.34,7.47-2.36,14.07-6.05,19.8-3.69,5.73-8.86,10.16-15.52,13.31-6.66,3.15-14.27,4.72-22.82,4.72-14.11,0-25.22-4.6-33.33-13.79-8.11-9.19-12.17-22.17-12.17-38.93v-5.31c0-10.52,1.83-19.72,5.49-27.61,3.66-7.89,8.93-13.98,15.82-18.29,6.88-4.3,14.84-6.45,23.89-6.45,13.03,0,23.5,3.43,31.41,10.29,7.91,6.86,12.41,16.31,13.49,28.35h-25.8c-.2-6.54-1.84-11.23-4.94-14.08-3.1-2.85-7.82-4.28-14.16-4.28s-11.16,2.41-14.16,7.23c-3,4.82-4.57,12.51-4.72,23.08v7.59c0,11.45,1.44,19.64,4.31,24.55,2.88,4.92,7.83,7.37,14.86,7.37,5.95,0,10.49-1.4,13.64-4.2s4.82-7.25,5.01-13.35h25.73Z"/>
      <path class="cls-1" d="M1088.12,76.63h-40.7v25.66h48.07v19.91h-73.95V14.85h74.1v19.98h-48.22v22.64h40.7v19.17Z"/>
      <path class="cls-1" d="M1161.41,93.67c0-3.78-1.34-6.73-4.02-8.85-2.68-2.11-7.39-4.3-14.12-6.56-6.73-2.26-12.24-4.45-16.52-6.56-13.91-6.83-20.87-16.22-20.87-28.17,0-5.95,1.73-11.19,5.2-15.74,3.46-4.55,8.37-8.08,14.71-10.62,6.34-2.53,13.47-3.8,21.38-3.8s14.64,1.38,20.75,4.13c6.12,2.75,10.88,6.67,14.27,11.76,3.39,5.09,5.09,10.9,5.09,17.44h-25.81c0-4.37-1.34-7.77-4.02-10.17-2.68-2.41-6.3-3.61-10.88-3.61s-8.27,1.02-10.95,3.06c-2.68,2.04-4.02,4.63-4.02,7.78,0,2.75,1.47,5.25,4.42,7.48,2.95,2.24,8.13,4.55,15.56,6.93,7.42,2.38,13.52,4.95,18.29,7.71,11.6,6.69,17.4,15.9,17.4,27.65,0,9.39-3.54,16.76-10.62,22.12-7.08,5.36-16.79,8.04-29.12,8.04-8.7,0-16.58-1.56-23.63-4.68-7.05-3.12-12.36-7.4-15.93-12.83-3.56-5.43-5.35-11.69-5.35-18.76h25.95c0,5.75,1.49,9.99,4.46,12.72,2.97,2.73,7.8,4.09,14.49,4.09,4.28,0,7.66-.92,10.14-2.76,2.48-1.84,3.72-4.44,3.72-7.78Z"/>
      <path class="cls-1" d="M1255.93,93.67c0-3.78-1.34-6.73-4.02-8.85-2.68-2.11-7.39-4.3-14.12-6.56-6.73-2.26-12.24-4.45-16.52-6.56-13.91-6.83-20.87-16.22-20.87-28.17,0-5.95,1.73-11.19,5.2-15.74,3.46-4.55,8.37-8.08,14.71-10.62,6.34-2.53,13.47-3.8,21.38-3.8s14.64,1.38,20.75,4.13c6.12,2.75,10.88,6.67,14.27,11.76,3.39,5.09,5.09,10.9,5.09,17.44h-25.81c0-4.37-1.34-7.77-4.02-10.17-2.68-2.41-6.3-3.61-10.88-3.61s-8.27,1.02-10.95,3.06c-2.68,2.04-4.02,4.63-4.02,7.78,0,2.75,1.47,5.25,4.42,7.48,2.95,2.24,8.13,4.55,15.56,6.93,7.42,2.38,13.52,4.95,18.29,7.71,11.6,6.69,17.4,15.9,17.4,27.65,0,9.39-3.54,16.76-10.62,22.12-7.08,5.36-16.79,8.04-29.12,8.04-8.7,0-16.58-1.56-23.63-4.68-7.05-3.12-12.36-7.4-15.93-12.83-3.56-5.43-5.35-11.69-5.35-18.76h25.95c0,5.75,1.49,9.99,4.46,12.72,2.97,2.73,7.8,4.09,14.49,4.09,4.28,0,7.66-.92,10.14-2.76,2.48-1.84,3.72-4.44,3.72-7.78Z"/>
    </g>
  </g>
  <g id="Layer_1" data-name="Layer 1">
    <polyline class="cls-3" points="790.36 122.48 605.92 122.48 605.92 256.27 419.95 256.27 419.95 384.84 233.14 385.51 233.17 515.62 47.62 516.31 47.86 676.36 1307.2 676.36 1307.2 121.58"/>
    <polygon class="cls-4" points="1295.31 133.43 616.02 133.43 616.02 267.95 430.75 267.95 430.75 396.96 247.3 396.96 247.3 527.42 59.33 527.42 59.33 664.14 1295.31 664.14 1295.31 133.43"/>
    <g>
      <path class="cls-3" d="M202.5,52.32c3.5,24.81-13.77,47.76-38.59,51.26s-47.76-13.77-51.27-38.59c-3.5-24.82,13.77-47.76,38.59-51.27,24.81-3.5,47.76,13.77,51.26,38.59"/>
      <path class="cls-3" d="M208.06,199.8c2.51,2.42,5.71,4.03,9.16,4.61l68.71,11.53c1.79,.3,3.58,.31,5.29,.07,7.28-1.03,13.38-6.66,14.66-14.3,1.58-9.44-4.78-18.37-14.22-19.95l-63.41-10.64c-7.22-6.95-14.44-13.92-21.65-20.87-11.41-11-22.52-24.21-35.74-32.99-8.99-5.97-18.43-8.51-29.14-5.67-4.99,1.32-13.77,3.61-17.04,7.95L59.91,184.1c-3.02,3.01-4.83,7.03-5.07,11.28l-4.57,79.73c-.54,9.55,6.76,17.74,16.31,18.29,1.17,.07,2.31,.02,3.43-.14,8.01-1.13,14.38-7.78,14.86-16.16l4.19-73.12,29.89-29.79,11.28,104.71c.77,7.18,3.69,13.61,8.04,18.72-7,74.52-16.38,171.22-18.44,183.72-2.77,10.64,2.4,22.06,12.75,26.8,4.17,1.91,8.6,2.47,12.83,1.87,7.54-1.06,14.4-5.82,17.8-13.26,4.1-8.94,3.82-21.05,4.9-30.57,2.25-19.83,4.22-39.7,6.18-59.57,1.59-16.17,3.15-32.35,4.7-48.53,.93-9.75,1.85-19.5,2.77-29.26,.52-5.5-.94-27.96,7.09-26.07,16.4,3.86,32.83,7.59,49.25,11.37l3.44,51.66c.74,12.74,11.67,22.47,24.4,21.73,.65-.04,1.28-.1,1.91-.19,11.79-1.66,20.51-12.12,19.81-24.21l-4.45-68.96c-.59-10.25-7.89-18.88-17.89-21.18l-67.71-15.57-8.13-75.52,18.58,17.92Z"/>
    </g>
    <polygon class="cls-2" points="1295.31 133.43 616.02 133.43 616.02 267.95 430.75 267.95 430.75 396.96 247.3 396.96 247.3 527.42 59.33 527.42 59.33 664.14 1295.31 664.14 1295.31 133.43"/>
  </g>
  <g id="Layer_2" data-name="Layer 2">
    <g>
      <path class="cls-5" d="M697.33,206.03c-.43,4.55-2.11,8.1-5.04,10.65s-6.83,3.82-11.69,3.82c-3.4,0-6.39-.81-8.98-2.42-2.59-1.61-4.58-3.9-5.99-6.87-1.41-2.97-2.14-6.42-2.2-10.34v-3.98c0-4.02,.71-7.57,2.14-10.63,1.43-3.07,3.47-5.43,6.14-7.09,2.67-1.66,5.75-2.49,9.24-2.49,4.71,0,8.5,1.27,11.37,3.82s4.54,6.16,5.01,10.83h-7.38c-.35-3.07-1.25-5.28-2.68-6.64-1.44-1.36-3.54-2.04-6.31-2.04-3.22,0-5.7,1.18-7.43,3.53-1.73,2.36-2.61,5.81-2.65,10.37v3.78c0,4.61,.82,8.13,2.48,10.56,1.65,2.42,4.07,3.64,7.25,3.64,2.91,0,5.1-.65,6.56-1.96,1.46-1.31,2.39-3.49,2.78-6.53h7.38Z"/>
      <path class="cls-5" d="M738,199.7c0,4.18-.72,7.85-2.17,11-1.45,3.15-3.51,5.58-6.2,7.27-2.69,1.69-5.78,2.53-9.27,2.53s-6.54-.84-9.24-2.53c-2.71-1.69-4.79-4.1-6.27-7.22-1.48-3.12-2.22-6.73-2.24-10.81v-2.4c0-4.16,.74-7.83,2.21-11.02,1.47-3.18,3.55-5.62,6.24-7.31,2.69-1.69,5.77-2.53,9.24-2.53s6.56,.83,9.24,2.5c2.69,1.67,4.76,4.07,6.23,7.21s2.21,6.78,2.23,10.94v2.37Zm-7.41-2.23c0-4.73-.89-8.35-2.68-10.87s-4.32-3.78-7.6-3.78-5.71,1.26-7.51,3.76c-1.81,2.51-2.73,6.06-2.77,10.65v2.46c0,4.69,.91,8.31,2.74,10.87,1.83,2.56,4.36,3.84,7.6,3.84s5.81-1.25,7.57-3.75c1.77-2.5,2.65-6.15,2.65-10.96v-2.23Z"/>
      <path class="cls-5" d="M754.99,177.26l12.3,32.7,12.28-32.7h9.58v42.66h-7.38v-14.06l.73-18.81-12.6,32.87h-5.3l-12.57-32.84,.73,18.78v14.06h-7.38v-42.66h9.61Z"/>
      <path class="cls-5" d="M805.32,204.09v15.82h-7.41v-42.66h16.32c4.77,0,8.55,1.24,11.35,3.72,2.8,2.48,4.2,5.77,4.2,9.85s-1.37,7.44-4.12,9.77c-2.74,2.33-6.59,3.49-11.53,3.49h-8.82Zm0-5.98h8.91c2.64,0,4.65-.62,6.04-1.86,1.39-1.24,2.08-3.03,2.08-5.38s-.7-4.15-2.11-5.52-3.34-2.08-5.8-2.12h-9.11v14.88Z"/>
      <path class="cls-5" d="M861.19,200.87h-17.52v13.12h20.48v5.92h-27.89v-42.66h27.69v5.98h-20.27v11.78h17.52v5.86Z"/>
      <path class="cls-5" d="M901.59,183.23h-13.3v36.68h-7.35v-36.68h-13.18v-5.98h33.84v5.98Z"/>
      <path class="cls-5" d="M932.12,200.87h-17.52v13.12h20.48v5.92h-27.89v-42.66h27.69v5.98h-20.27v11.78h17.52v5.86Z"/>
      <path class="cls-5" d="M974.95,219.91h-7.41l-19.01-30.26v30.26h-7.41v-42.66h7.41l19.07,30.38v-30.38h7.35v42.66Z"/>
      <path class="cls-5" d="M1016.26,206.03c-.43,4.55-2.11,8.1-5.04,10.65s-6.83,3.82-11.69,3.82c-3.4,0-6.39-.81-8.98-2.42s-4.58-3.9-5.99-6.87c-1.41-2.97-2.14-6.42-2.2-10.34v-3.98c0-4.02,.71-7.57,2.14-10.63,1.42-3.07,3.47-5.43,6.14-7.09,2.67-1.66,5.75-2.49,9.24-2.49,4.71,0,8.5,1.27,11.37,3.82s4.54,6.16,5.01,10.83h-7.38c-.35-3.07-1.25-5.28-2.68-6.64-1.44-1.36-3.54-2.04-6.31-2.04-3.22,0-5.7,1.18-7.43,3.53-1.73,2.36-2.61,5.81-2.65,10.37v3.78c0,4.61,.82,8.13,2.47,10.56s4.07,3.64,7.25,3.64c2.91,0,5.1-.65,6.56-1.96,1.46-1.31,2.39-3.49,2.78-6.53h7.38Z"/>
      <path class="cls-5" d="M1030.7,219.91h-7.38v-42.66h7.38v42.66Z"/>
      <path class="cls-5" d="M1064.74,200.87h-17.52v13.12h20.48v5.92h-27.89v-42.66h27.69v5.98h-20.27v11.78h17.52v5.86Z"/>
      <path class="cls-5" d="M1096.03,208.93c0-1.88-.66-3.32-1.98-4.34-1.32-1.02-3.7-2.04-7.13-3.08-3.44-1.04-6.17-2.19-8.2-3.46-3.89-2.44-5.83-5.62-5.83-9.55,0-3.44,1.4-6.27,4.2-8.5s6.44-3.34,10.91-3.34c2.97,0,5.61,.55,7.94,1.64,2.32,1.09,4.15,2.65,5.48,4.67,1.33,2.02,1.99,4.26,1.99,6.72h-7.38c0-2.23-.7-3.97-2.1-5.23s-3.39-1.89-5.99-1.89c-2.42,0-4.3,.52-5.64,1.55-1.34,1.04-2.01,2.48-2.01,4.34,0,1.56,.72,2.87,2.17,3.91,1.45,1.04,3.83,2.06,7.15,3.05,3.32,.99,5.99,2.11,8,3.37,2.01,1.26,3.49,2.71,4.42,4.34,.94,1.63,1.41,3.54,1.41,5.73,0,3.56-1.36,6.38-4.09,8.48-2.72,2.1-6.42,3.15-11.09,3.15-3.09,0-5.92-.57-8.51-1.71s-4.6-2.72-6.04-4.73c-1.44-2.01-2.15-4.35-2.15-7.03h7.41c0,2.42,.8,4.3,2.4,5.62,1.6,1.33,3.9,1.99,6.88,1.99,2.58,0,4.52-.52,5.81-1.57,1.3-1.04,1.95-2.43,1.95-4.15Z"/>
    </g>
    <g>
      <path class="cls-5" d="M323.72,446.31h-13.3v36.68h-7.35v-36.68h-13.18v-5.98h33.84v5.98Z"/>
      <path class="cls-5" d="M344.99,466.58h-8.26v16.41h-7.41v-42.66h15c4.92,0,8.72,1.1,11.4,3.31,2.68,2.21,4.01,5.41,4.01,9.59,0,2.85-.69,5.24-2.07,7.17-1.38,1.92-3.3,3.41-5.76,4.44l9.58,17.76v.38h-7.94l-8.55-16.41Zm-8.26-5.98h7.62c2.5,0,4.45-.63,5.86-1.89s2.11-2.98,2.11-5.17-.65-4.05-1.95-5.3c-1.3-1.25-3.24-1.89-5.82-1.93h-7.82v14.3Z"/>
      <path class="cls-5" d="M390.63,473.05h-16.52l-3.46,9.93h-7.71l16.11-42.66h6.65l16.14,42.66h-7.73l-3.49-9.93Zm-14.44-5.98h12.36l-6.18-17.7-6.18,17.7Z"/>
      <path class="cls-5" d="M414.51,482.98h-7.38v-42.66h7.38v42.66Z"/>
      <path class="cls-5" d="M457.46,482.98h-7.41l-19.01-30.26v30.26h-7.41v-42.66h7.41l19.07,30.38v-30.38h7.35v42.66Z"/>
      <path class="cls-5" d="M474.04,482.98h-7.38v-42.66h7.38v42.66Z"/>
      <path class="cls-5" d="M516.99,482.98h-7.41l-19.01-30.26v30.26h-7.41v-42.66h7.41l19.07,30.38v-30.38h7.35v42.66Z"/>
      <path class="cls-5" d="M558.44,477.45c-1.54,2.01-3.68,3.54-6.42,4.57-2.74,1.04-5.84,1.55-9.32,1.55s-6.74-.81-9.49-2.43c-2.75-1.62-4.88-3.94-6.37-6.96s-2.27-6.54-2.33-10.56v-3.34c0-6.45,1.54-11.48,4.63-15.1,3.09-3.62,7.39-5.43,12.92-5.43,4.75,0,8.51,1.18,11.31,3.53,2.79,2.35,4.47,5.74,5.04,10.15h-7.27c-.82-5.14-3.8-7.71-8.94-7.71-3.32,0-5.84,1.2-7.57,3.59s-2.62,5.9-2.68,10.52v3.28c0,4.6,.97,8.18,2.92,10.73,1.94,2.55,4.64,3.82,8.1,3.82,3.79,0,6.48-.86,8.09-2.58v-8.35h-8.79v-5.62h16.17v16.35Z"/>
      <path class="cls-5" d="M615.57,462.77c0,4.18-.72,7.85-2.17,11-1.45,3.15-3.51,5.58-6.2,7.27-2.69,1.69-5.78,2.53-9.27,2.53s-6.54-.84-9.24-2.53c-2.71-1.69-4.79-4.1-6.27-7.22-1.48-3.12-2.22-6.73-2.24-10.81v-2.4c0-4.16,.74-7.83,2.21-11.02,1.47-3.18,3.55-5.62,6.24-7.31,2.68-1.69,5.77-2.53,9.24-2.53s6.56,.83,9.24,2.5c2.68,1.67,4.76,4.07,6.23,7.21s2.21,6.78,2.23,10.94v2.37Zm-7.41-2.23c0-4.73-.89-8.35-2.68-10.87s-4.32-3.78-7.6-3.78-5.71,1.26-7.51,3.76c-1.81,2.51-2.73,6.06-2.77,10.65v2.46c0,4.69,.91,8.31,2.74,10.87,1.83,2.56,4.36,3.84,7.6,3.84s5.8-1.25,7.57-3.75c1.77-2.5,2.65-6.15,2.65-10.96v-2.23Z"/>
      <path class="cls-5" d="M622.96,482.98v-42.66h14.62c4.82,0,8.5,.97,11.02,2.9s3.78,4.82,3.78,8.64c0,1.95-.53,3.71-1.58,5.27-1.05,1.56-2.6,2.77-4.63,3.63,2.3,.63,4.09,1.8,5.35,3.53s1.89,3.8,1.89,6.23c0,4-1.29,7.08-3.85,9.23-2.57,2.15-6.25,3.22-11.03,3.22h-15.56Zm7.41-24.7h7.27c2.3,0,4.11-.52,5.41-1.57,1.3-1.04,1.95-2.52,1.95-4.44,0-2.11-.6-3.63-1.8-4.57s-3.07-1.41-5.61-1.41h-7.21v11.98Zm0,5.45v13.33h8.23c2.32,0,4.14-.58,5.45-1.73,1.31-1.15,1.96-2.75,1.96-4.8,0-4.43-2.27-6.7-6.8-6.8h-8.85Z"/>
      <path class="cls-5" d="M678.27,440.33h7.38v29.91c0,4.08-1.27,7.32-3.82,9.73s-5.91,3.6-10.09,3.6c-4.45,0-7.89-1.12-10.31-3.37-2.42-2.25-3.63-5.37-3.63-9.38h7.38c0,2.27,.56,3.97,1.68,5.11,1.12,1.14,2.75,1.71,4.88,1.71,1.99,0,3.58-.66,4.76-1.98,1.18-1.32,1.77-3.14,1.77-5.46v-29.88Z"/>
      <path class="cls-5" d="M719.05,463.94h-17.52v13.12h20.48v5.92h-27.89v-42.66h27.69v5.98h-20.27v11.78h17.52v5.86Z"/>
      <path class="cls-5" d="M760.59,469.1c-.43,4.55-2.11,8.1-5.04,10.65s-6.83,3.82-11.69,3.82c-3.4,0-6.39-.81-8.98-2.42-2.59-1.61-4.58-3.9-5.99-6.87-1.41-2.97-2.14-6.42-2.2-10.34v-3.98c0-4.02,.71-7.57,2.14-10.63,1.42-3.07,3.47-5.43,6.14-7.09,2.67-1.66,5.75-2.49,9.24-2.49,4.71,0,8.5,1.27,11.37,3.82s4.54,6.16,5.01,10.83h-7.38c-.35-3.07-1.25-5.28-2.68-6.64-1.44-1.36-3.54-2.04-6.31-2.04-3.22,0-5.7,1.18-7.43,3.53-1.73,2.36-2.61,5.81-2.65,10.37v3.78c0,4.61,.82,8.13,2.48,10.56,1.65,2.42,4.07,3.64,7.25,3.64,2.91,0,5.1-.65,6.56-1.96,1.46-1.31,2.39-3.49,2.78-6.53h7.38Z"/>
      <path class="cls-5" d="M797.18,446.31h-13.3v36.68h-7.35v-36.68h-13.18v-5.98h33.84v5.98Z"/>
      <path class="cls-5" d="M810.6,482.98h-7.38v-42.66h7.38v42.66Z"/>
      <path class="cls-5" d="M834.74,473.7l10.84-33.37h8.14l-15.35,42.66h-7.18l-15.29-42.66h8.12l10.72,33.37Z"/>
      <path class="cls-5" d="M883.46,463.94h-17.52v13.12h20.48v5.92h-27.89v-42.66h27.69v5.98h-20.27v11.78h17.52v5.86Z"/>
      <path class="cls-5" d="M914.75,472c0-1.88-.66-3.32-1.98-4.34-1.32-1.01-3.7-2.04-7.13-3.08-3.44-1.04-6.17-2.19-8.2-3.46-3.89-2.44-5.83-5.62-5.83-9.55,0-3.44,1.4-6.27,4.2-8.5,2.8-2.23,6.44-3.34,10.91-3.34,2.97,0,5.61,.55,7.94,1.64,2.32,1.09,4.15,2.65,5.48,4.67,1.33,2.02,1.99,4.26,1.99,6.72h-7.38c0-2.23-.7-3.97-2.09-5.23-1.4-1.26-3.39-1.89-5.99-1.89-2.42,0-4.3,.52-5.64,1.55-1.34,1.04-2.01,2.48-2.01,4.34,0,1.56,.72,2.87,2.17,3.91,1.45,1.04,3.83,2.06,7.15,3.05,3.32,.99,5.99,2.11,8,3.37,2.01,1.26,3.49,2.71,4.42,4.34,.94,1.63,1.41,3.54,1.41,5.73,0,3.56-1.36,6.38-4.09,8.48-2.72,2.1-6.42,3.15-11.09,3.15-3.09,0-5.92-.57-8.51-1.71-2.59-1.14-4.6-2.72-6.04-4.73-1.44-2.01-2.15-4.35-2.15-7.03h7.41c0,2.42,.8,4.3,2.4,5.62,1.6,1.33,3.9,1.99,6.88,1.99,2.58,0,4.52-.52,5.82-1.57,1.3-1.04,1.95-2.43,1.95-4.15Z"/>
    </g>
    <g>
      <path class="cls-5" d="M515.5,333.76c0,4.18-.72,7.85-2.17,11-1.45,3.15-3.51,5.58-6.2,7.27-2.69,1.69-5.78,2.53-9.27,2.53s-6.54-.84-9.24-2.53c-2.71-1.69-4.79-4.1-6.27-7.22-1.48-3.12-2.22-6.73-2.24-10.81v-2.4c0-4.16,.74-7.83,2.21-11.02,1.47-3.18,3.55-5.62,6.24-7.31,2.69-1.69,5.77-2.53,9.24-2.53s6.56,.83,9.24,2.5c2.69,1.67,4.76,4.07,6.23,7.21s2.21,6.78,2.23,10.94v2.37Zm-7.41-2.23c0-4.73-.89-8.35-2.68-10.87s-4.32-3.78-7.6-3.78-5.71,1.26-7.51,3.76c-1.81,2.51-2.73,6.06-2.77,10.65v2.46c0,4.69,.91,8.31,2.74,10.87,1.83,2.56,4.36,3.84,7.6,3.84s5.81-1.25,7.57-3.75c1.77-2.5,2.65-6.15,2.65-10.96v-2.23Z"/>
      <path class="cls-5" d="M522.89,353.98v-42.66h14.62c4.82,0,8.5,.97,11.02,2.9s3.78,4.81,3.78,8.64c0,1.95-.53,3.71-1.58,5.27s-2.6,2.77-4.63,3.63c2.3,.62,4.09,1.8,5.35,3.53s1.89,3.8,1.89,6.23c0,4-1.28,7.08-3.85,9.23-2.57,2.15-6.25,3.22-11.03,3.22h-15.56Zm7.41-24.7h7.27c2.3,0,4.11-.52,5.41-1.57,1.3-1.04,1.95-2.52,1.95-4.44,0-2.11-.6-3.63-1.8-4.57s-3.07-1.41-5.61-1.41h-7.21v11.98Zm0,5.45v13.33h8.23c2.32,0,4.14-.58,5.45-1.73,1.31-1.15,1.96-2.75,1.96-4.8,0-4.43-2.27-6.7-6.8-6.8h-8.85Z"/>
      <path class="cls-5" d="M583.03,342.99c0-1.88-.66-3.32-1.98-4.34s-3.7-2.04-7.13-3.08c-3.44-1.04-6.17-2.19-8.2-3.46-3.89-2.44-5.83-5.62-5.83-9.55,0-3.44,1.4-6.27,4.2-8.5,2.8-2.23,6.44-3.34,10.91-3.34,2.97,0,5.61,.55,7.94,1.64,2.32,1.09,4.15,2.65,5.48,4.67,1.33,2.02,1.99,4.26,1.99,6.72h-7.38c0-2.23-.7-3.97-2.09-5.23-1.4-1.26-3.39-1.89-5.99-1.89-2.42,0-4.3,.52-5.64,1.55-1.34,1.04-2.01,2.48-2.01,4.34,0,1.56,.72,2.87,2.17,3.91,1.45,1.04,3.83,2.06,7.15,3.05,3.32,.99,5.99,2.11,8,3.37,2.01,1.26,3.49,2.71,4.42,4.34,.94,1.63,1.41,3.54,1.41,5.73,0,3.55-1.36,6.38-4.09,8.48-2.72,2.1-6.42,3.15-11.09,3.15-3.09,0-5.92-.57-8.51-1.71-2.59-1.14-4.6-2.72-6.04-4.73s-2.15-4.36-2.15-7.03h7.41c0,2.42,.8,4.3,2.4,5.62,1.6,1.33,3.9,1.99,6.88,1.99,2.58,0,4.52-.52,5.82-1.57,1.3-1.04,1.95-2.43,1.95-4.15Z"/>
      <path class="cls-5" d="M621.88,334.93h-17.52v13.12h20.48v5.92h-27.89v-42.66h27.69v5.98h-20.27v11.78h17.52v5.86Z"/>
      <path class="cls-5" d="M646.55,337.57h-8.26v16.41h-7.41v-42.66h15c4.92,0,8.72,1.1,11.4,3.31,2.68,2.21,4.01,5.41,4.01,9.59,0,2.85-.69,5.24-2.07,7.17-1.38,1.93-3.3,3.41-5.76,4.44l9.58,17.76v.38h-7.94l-8.55-16.41Zm-8.26-5.98h7.62c2.5,0,4.45-.63,5.86-1.89s2.11-2.98,2.11-5.17-.65-4.05-1.95-5.3c-1.3-1.25-3.24-1.89-5.82-1.93h-7.82v14.3Z"/>
      <path class="cls-5" d="M682.79,344.69l10.84-33.37h8.14l-15.35,42.66h-7.18l-15.29-42.66h8.12l10.72,33.37Z"/>
      <path class="cls-5" d="M728.26,344.04h-16.52l-3.46,9.93h-7.71l16.11-42.66h6.65l16.14,42.66h-7.73l-3.49-9.93Zm-14.44-5.98h12.36l-6.18-17.7-6.18,17.7Z"/>
      <path class="cls-5" d="M744.31,353.98v-42.66h14.62c4.82,0,8.5,.97,11.02,2.9s3.78,4.81,3.78,8.64c0,1.95-.53,3.71-1.58,5.27s-2.6,2.77-4.63,3.63c2.3,.62,4.09,1.8,5.35,3.53s1.89,3.8,1.89,6.23c0,4-1.28,7.08-3.85,9.23-2.57,2.15-6.25,3.22-11.03,3.22h-15.56Zm7.41-24.7h7.27c2.3,0,4.11-.52,5.41-1.57,1.3-1.04,1.95-2.52,1.95-4.44,0-2.11-.6-3.63-1.8-4.57s-3.07-1.41-5.61-1.41h-7.21v11.98Zm0,5.45v13.33h8.23c2.32,0,4.14-.58,5.45-1.73,1.31-1.15,1.96-2.75,1.96-4.8,0-4.43-2.27-6.7-6.8-6.8h-8.85Z"/>
      <path class="cls-5" d="M789.58,348.06h19.37v5.92h-26.78v-42.66h7.41v36.74Z"/>
      <path class="cls-5" d="M839.56,334.93h-17.52v13.12h20.48v5.92h-27.89v-42.66h27.69v5.98h-20.27v11.78h17.52v5.86Z"/>
      <path class="cls-5" d="M863.49,353.98v-42.66h14.62c4.82,0,8.5,.97,11.02,2.9s3.78,4.81,3.78,8.64c0,1.95-.53,3.71-1.58,5.27s-2.6,2.77-4.63,3.63c2.3,.62,4.09,1.8,5.35,3.53s1.89,3.8,1.89,6.23c0,4-1.28,7.08-3.85,9.23-2.57,2.15-6.25,3.22-11.03,3.22h-15.56Zm7.41-24.7h7.27c2.3,0,4.11-.52,5.41-1.57,1.3-1.04,1.95-2.52,1.95-4.44,0-2.11-.6-3.63-1.8-4.57s-3.07-1.41-5.61-1.41h-7.21v11.98Zm0,5.45v13.33h8.23c2.32,0,4.14-.58,5.45-1.73,1.31-1.15,1.96-2.75,1.96-4.8,0-4.43-2.27-6.7-6.8-6.8h-8.85Z"/>
      <path class="cls-5" d="M926.28,334.93h-17.52v13.12h20.48v5.92h-27.89v-42.66h27.69v5.98h-20.27v11.78h17.52v5.86Z"/>
      <path class="cls-5" d="M969.14,353.98h-7.38v-18.93h-19.07v18.93h-7.41v-42.66h7.41v17.75h19.07v-17.75h7.38v42.66Z"/>
      <path class="cls-5" d="M1002.3,344.04h-16.52l-3.46,9.93h-7.71l16.11-42.66h6.65l16.14,42.66h-7.73l-3.49-9.93Zm-14.44-5.98h12.36l-6.18-17.7-6.18,17.7Z"/>
      <path class="cls-5" d="M1031.13,344.69l10.84-33.37h8.14l-15.35,42.66h-7.18l-15.29-42.66h8.12l10.72,33.37Z"/>
      <path class="cls-5" d="M1062.74,353.98h-7.38v-42.66h7.38v42.66Z"/>
      <path class="cls-5" d="M1105.89,333.76c0,4.18-.72,7.85-2.17,11-1.45,3.15-3.51,5.58-6.2,7.27-2.69,1.69-5.78,2.53-9.27,2.53s-6.54-.84-9.24-2.53c-2.71-1.69-4.79-4.1-6.27-7.22s-2.22-6.73-2.24-10.81v-2.4c0-4.16,.74-7.83,2.21-11.02s3.55-5.62,6.24-7.31c2.69-1.69,5.77-2.53,9.24-2.53s6.56,.83,9.24,2.5,4.76,4.07,6.23,7.21,2.21,6.78,2.23,10.94v2.37Zm-7.41-2.23c0-4.73-.89-8.35-2.68-10.87s-4.32-3.78-7.6-3.78-5.71,1.26-7.51,3.76c-1.81,2.51-2.73,6.06-2.77,10.65v2.46c0,4.69,.91,8.31,2.74,10.87s4.36,3.84,7.6,3.84,5.81-1.25,7.57-3.75,2.65-6.15,2.65-10.96v-2.23Z"/>
      <path class="cls-5" d="M1144.48,311.32v28.51c0,4.53-1.45,8.12-4.35,10.77-2.9,2.65-6.76,3.97-11.59,3.97s-8.76-1.3-11.63-3.91-4.31-6.23-4.31-10.85v-28.48h7.38v28.54c0,2.85,.72,5.03,2.17,6.53s3.57,2.26,6.39,2.26c5.7,0,8.55-3.01,8.55-9.02v-28.3h7.38Z"/>
      <path class="cls-5" d="M1168.06,337.57h-8.26v16.41h-7.41v-42.66h15c4.92,0,8.72,1.1,11.4,3.31s4.01,5.41,4.01,9.59c0,2.85-.69,5.24-2.07,7.17-1.38,1.93-3.3,3.41-5.76,4.44l9.58,17.76v.38h-7.94l-8.55-16.41Zm-8.26-5.98h7.62c2.5,0,4.45-.63,5.86-1.89s2.11-2.98,2.11-5.17-.65-4.05-1.95-5.3-3.24-1.89-5.82-1.93h-7.82v14.3Z"/>
      <path class="cls-5" d="M1212.13,342.99c0-1.88-.66-3.32-1.98-4.34s-3.7-2.04-7.13-3.08-6.17-2.19-8.2-3.46c-3.89-2.44-5.83-5.62-5.83-9.55,0-3.44,1.4-6.27,4.2-8.5s6.44-3.34,10.91-3.34c2.97,0,5.62,.55,7.94,1.64s4.15,2.65,5.48,4.67,1.99,4.26,1.99,6.72h-7.38c0-2.23-.7-3.97-2.09-5.23s-3.39-1.89-5.99-1.89c-2.42,0-4.3,.52-5.64,1.55s-2.01,2.48-2.01,4.34c0,1.56,.72,2.87,2.17,3.91,1.45,1.04,3.83,2.06,7.15,3.05,3.32,.99,5.99,2.11,8,3.37s3.49,2.71,4.42,4.34c.94,1.63,1.41,3.54,1.41,5.73,0,3.55-1.36,6.38-4.09,8.48-2.72,2.1-6.42,3.15-11.09,3.15-3.09,0-5.92-.57-8.51-1.71s-4.6-2.72-6.04-4.73-2.15-4.36-2.15-7.03h7.41c0,2.42,.8,4.3,2.4,5.62s3.9,1.99,6.88,1.99c2.58,0,4.52-.52,5.82-1.57,1.3-1.04,1.95-2.43,1.95-4.15Z"/>
    </g>
  </g>
</svg>