<?xml version="1.0" encoding="utf-8"?>
<!-- Generator: Adobe Illustrator 25.4.4, SVG Export Plug-In . SVG Version: 6.00 Build 0)  -->
<svg version="1.1" id="Layer_2_00000010297264142249245110000008529206969982243731_"
	 xmlns="http://www.w3.org/2000/svg" xmlns:xlink="http://www.w3.org/1999/xlink" x="0px" y="0px" viewBox="0 0 44 44"
	 style="enable-background:new 0 0 44 44;" xml:space="preserve">
<style type="text/css">
	.st0{fill:#FFFF00;}
</style>
<g>
	<path class="st0" d="M17.5,39.7c-1.2,0-2.1-0.9-2.1-2.1V23.1c0,0-0.1-0.1-0.1-0.1h-4.6c-0.8,0-1.5-0.5-1.9-1.2
		c-0.3-0.8-0.2-1.6,0.3-2.2L20.4,6c0.4-0.5,0.9-0.7,1.6-0.7s1.2,0.3,1.6,0.8l11.3,13.6c0.5,0.6,0.6,1.5,0.3,2.2
		c-0.3,0.7-1,1.1-1.7,1.1c0,0-0.1,0-0.2,0h-4.6c0,0-0.1,0.1-0.1,0.1v14.6c0,1.2-0.9,2.1-2.1,2.1H17.5z"/>
	<path d="M22,6.2c0.3,0,0.6,0.1,0.8,0.4l11.3,13.6c0.6,0.7,0.1,1.7-0.6,1.7c0,0-0.1,0-0.1,0h-4.6c-0.6,0-1.1,0.5-1.1,1.1v14.6
		c0,0.6-0.5,1.1-1.1,1.1h-9.1c-0.6,0-1.1-0.5-1.1-1.1V23.1c0-0.6-0.5-1.1-1.1-1.1h-4.6c-0.9,0-1.4-1.1-0.8-1.8L21.2,6.6
		C21.4,6.3,21.7,6.2,22,6.2 M22,4.2c-0.9,0-1.8,0.4-2.4,1.1L8.4,18.9c-0.8,0.9-0.9,2.2-0.4,3.3c0.5,1.1,1.6,1.8,2.8,1.8h3.7v13.6
		c0,1.7,1.4,3.1,3.1,3.1h9.1c1.7,0,3.1-1.4,3.1-3.1V23.9h3.6c0.1,0,0.1,0,0.2,0c1.1,0,2.1-0.6,2.6-1.7c0.5-1.1,0.3-2.4-0.5-3.3
		L24.3,5.3C23.8,4.6,22.9,4.2,22,4.2L22,4.2z"/>
</g>
</svg>
