<?xml version="1.0" encoding="utf-8"?>
<!-- Generator: Adobe Illustrator 25.4.3, SVG Export Plug-In . SVG Version: 6.00 Build 0)  -->
<svg version="1.1" id="Layer_1" xmlns="http://www.w3.org/2000/svg" xmlns:xlink="http://www.w3.org/1999/xlink" x="0px" y="0px"
	 viewBox="0 0 329.9 440" style="enable-background:new 0 0 329.9 440;" xml:space="preserve">
<style type="text/css">
	.st0{fill:#FFFFFF;}
	.st1{fill:#003366;}
	.st2{fill:#2990EA;}
	.st3{fill:none;}
	.st4{font-family:'Roboto-Medium';}
	.st5{font-size:31px;}
</style>
<g id="Logo_Full-color">
	<g id="bg">
		<g>
			<rect id="path-1" x="0.6" y="1" width="329" height="329"/>
		</g>
		<rect id="path-1-2" x="0.6" y="1" class="st0" width="329" height="329"/>
	</g>
</g>
<g>
	<path class="st1" d="M238.7,89.5C209,48.9,152.1,39.6,111.3,69.1c-29,21.1-43.1,57.1-35.9,92.1l91.6-40.6h-50.3
		c12.2-26.3,43.3-37.7,69.6-25.5c5.6,2.6,10.5,6.1,14.8,10.4L238.7,89.5z"/>
	<polygon class="st2" points="257.2,85.2 165.5,178.5 49.2,178.5 	"/>
	<polygon class="st1" points="68.4,267.3 60.2,267.3 60.2,273.9 69.4,273.9 69.4,277 56.1,277 56.1,255 69.1,255 69.1,258.1 
		60.2,258.1 60.2,264 68.4,264 	"/>
	<path class="st1" d="M77,255v13c0,4.4,2,6.3,4.4,6.3s4.8-1.8,4.8-6.3v-13h4.1v12.7c0,6.9-3.5,9.9-8.9,9.9s-8.6-2.8-8.6-9.9V255H77z
		"/>
	<path class="st1" d="M95.2,255.3c2-0.3,3.9-0.7,5.9-0.7c2.5-0.2,4.9,0.5,6.9,1.8c1.3,1.2,2,2.8,1.8,4.4c0,2.5-1.6,4.8-4.1,5.4
		c1.6,0.8,2.8,2.3,3.3,4.1c0.3,2,0.8,3.9,1.3,5.9h-4.1c-0.7-1.6-1.2-3.3-1.6-5.1c-0.7-2.8-1.6-3.8-4.1-3.8h-2v9.2h-4.1v-21.4
		L95.2,255.3L95.2,255.3z M99,265.2h2.5c2.8,0,4.4-1.6,4.4-3.8c0-2.1-1.6-3.5-4.4-3.5c-1.3,0-2.1,0-2.5,0.3V265.2z"/>
	<path class="st1" d="M122.5,277.3c-6.3,0-10.2-4.8-10.2-11.4c-0.5-5.9,3.9-11.2,9.9-11.7c0.2,0,0.3,0,0.5,0c5.6,0,10.2,4.4,10.2,10
		c0,0.3,0,0.7,0,1.2C133.2,273.2,128.6,277.3,122.5,277.3 M122.8,274.1c3.8,0,6.1-3.3,6.1-8.2c0-4.1-2.3-8.2-6.1-8.2
		s-6.1,3.8-6.1,8.2S118.7,274.1,122.8,274.1"/>
	<path class="st1" d="M152.6,276.4c-1.8,0.7-3.8,1-5.8,1c-5.8,0.5-10.9-3.9-11.4-9.7c0-0.5,0-1,0-1.3c-0.3-6.1,4.4-11.4,10.5-11.7
		c0.3,0,0.8,0,1.2,0c1.8,0,3.6,0.3,5.4,1l-1,3.3c-1.3-0.7-3-1-4.4-1c-4.4,0-8.1,3.6-8.1,8.1s3.6,8.1,8.1,8.1c1.5,0,3-0.3,4.4-0.7
		L152.6,276.4z"/>
	<path class="st1" d="M164,277.3c-6.3,0-10.2-4.8-10.2-11.4c-0.5-5.9,3.9-11.2,9.9-11.7c0.2,0,0.3,0,0.5,0c5.6,0,10.2,4.4,10.2,10
		c0,0.3,0,0.7,0,1.2C174.8,273.2,170.4,277.3,164,277.3 M164.3,274.1c3.8,0,5.9-3.3,5.9-8.2c0-4.1-2.1-8.2-5.9-8.2s-6.1,3.8-6.1,8.2
		S160.5,274.1,164.3,274.1"/>
	<path class="st1" d="M178.1,277v-22h4.8l5.8,9.5c1.5,2.3,2.6,4.8,3.8,7.2c-0.3-3.1-0.3-6.1-0.3-9.2V255h3.8v22.2h-4.1l-5.9-9.9
		c-1.5-2.5-2.6-4.9-3.8-7.6c0.3,3.1,0.3,6.3,0.3,9.5v7.9L178.1,277z"/>
	<polygon class="st1" points="204.4,258.4 198,258.4 198,255 214.8,255 214.8,258.4 208.6,258.4 208.6,277 204.4,277 	"/>
	<path class="st1" d="M217.4,255.3c2-0.5,4.1-0.7,6.1-0.7c2.5-0.2,4.9,0.5,6.9,1.8c1.3,1.2,2,2.8,2,4.4c0,2.5-1.6,4.8-4.1,5.4
		c1.6,0.8,2.8,2.3,3.3,4.1c0.3,2,0.8,3.9,1.3,5.9h-4.1c-0.7-1.6-1.2-3.3-1.6-5.1c-0.7-2.8-1.6-3.8-4.1-3.8h-1.8v9.2h-4.3v-21.4
		L217.4,255.3L217.4,255.3z M221.5,265.2h2.5c2.8,0,4.4-1.6,4.4-3.8c0-2.1-1.5-3.5-4.4-3.5c-1.3,0-2.1,0-2.5,0.3V265.2z"/>
	<path class="st1" d="M245.2,277.3c-6.3,0-10.2-4.8-10.2-11.4c-0.5-5.9,3.9-11.2,10-11.7c0.2,0,0.3,0,0.5,0c5.6,0,10,4.4,10.2,9.9
		c0,0.3,0,0.8,0,1.2C255.6,273.2,251.2,277.3,245.2,277.3 M245.6,274.1c3.8,0,5.9-3.3,5.9-8.2c0-4.1-2.1-8.2-5.9-8.2
		c-3.8,0-6.1,3.8-6.1,8.2S241.5,274.1,245.6,274.1"/>
	<polygon class="st1" points="259.1,255 263.2,255 263.2,273.6 272.4,273.6 272.4,277 259.4,277 259.4,255 	"/>
	<path class="st1" d="M164,195.8c-12.3,0-24.2-4.1-33.7-12H81.4c23.5,45.7,79.5,63.7,125.2,40.3c18.1-9.4,32.7-24.3,41.5-42.8h-47.5
		C190.6,190.5,177.5,195.8,164,195.8"/>
</g>
<g>
	<rect x="0.6" y="329.2" class="st2" width="329" height="110.8"/>
	<rect x="0.6" y="355.2" class="st3" width="329.3" height="62.8"/>
	<text transform="matrix(1 0 0 1 43.9623 378.4525)"><tspan x="0" y="0" class="st0 st4 st5">Aviation Learning </tspan><tspan x="75.3" y="37.2" class="st0 st4 st5">Centre</tspan></text>
</g>
</svg>
