<svg id="Layer_1" data-name="Layer 1" xmlns="http://www.w3.org/2000/svg" viewBox="0 0 400 400"><path d="M218.84,349.05c-.57-10.35-1-20.71-1.41-31.07-.79-20.89-1.34-41.8-2-62.69-.59-18.18-1.9-36.32-2.62-54.5-.34-8.59-.82-17.18-1.08-25.77-.25-8.32-.1-16.76,1.59-25a3.78,3.78,0,0,0-2.75-4.57,4,4,0,0,0-4.82,2.6A98.83,98.83,0,0,0,203.54,171a3.35,3.35,0,0,0-1.34,2.79c0,20.94-.46,41.88-.9,62.81-.27,12.49-.6,24.95-1.13,37.41a2.67,2.67,0,0,0-.56,1.26,71.27,71.27,0,0,0-1.13,7.29c-.1,2.42.11,4.87.24,7.28q.17,3,.29,6l-.21,3.12c-.86,12.37-1.77,24.74-2.3,37.12-.05,1.12-.09,2.23-.13,3.34a.86.86,0,0,0-.23,0H196a.88.88,0,0,0-.28-.12,8.66,8.66,0,0,0-.82-1.38v0h0c-.05-.05-.08-.11-.13-.16-.65-.74-1.67.2-1.31,1,.59,1.22.72,2.58,1.32,3.8a.67.67,0,0,0,.57.4l0,0a.92.92,0,0,0,.91.56c-.1,3.75-.17,7.5-.18,11.26,0,6.13.05,12.31-1.15,18.36l-.5.1c-2,.52-3.56,2.73-2.81,4.69,3.05,7.95,12.86,6.61,20.4,6.14.95-.05,1.9-.1,2.84-.11a3.93,3.93,0,0,0,3-1.28,4.06,4.06,0,0,0,3.77-3.87C222.28,368.78,219.38,359,218.84,349.05Z" fill="#754c24"/><path d="M216.63,341.31a6.2,6.2,0,0,0-2.61,2.13c-.21-.26-.43-.59-.55-.73a.92.92,0,0,0-1.49.38c-.54,2.17-2.54,2.87-4.68,3.09-2.65.28-4.9-1.32-6.38-3.29a.94.94,0,0,0-1.61.13l-1.74-3.29A.9.9,0,0,0,196,340a9.89,9.89,0,0,1-1.06-1.53.88.88,0,0,0-1.62.41,3.8,3.8,0,0,0,1,3.05.69.69,0,0,0,1.08-.06c.84.87,1.76,1.66,2.68,2.51.44.63.9,1.24,1.36,1.89a.9.9,0,0,0,1.65-.43v-.3a12.27,12.27,0,0,0,2.17,1.54,7,7,0,0,0,4.53.76c2.29-.24,4.27-1.11,5.35-2.87a1.71,1.71,0,0,0,.85.43,1,1,0,0,0,.87-.22,27.75,27.75,0,0,1,2.61-2.59C218,342.09,217.38,341.05,216.63,341.31Z" fill="#c69c6d"/><path d="M215.59,306.69l-.73.63a1.84,1.84,0,0,1-.5-.93c-.18-.95-1.71-.68-1.73.23,0,.57,0,1.15,0,1.72a3.33,3.33,0,0,0-1.6.56c-.22-.53-1-.9-1.47-.35-.62.75-1.27,1.26-1.71,1.91a15.73,15.73,0,0,0-1-1.29,1,1,0,0,0-1.37.08,6.42,6.42,0,0,0-1.3-2,.91.91,0,0,0-1.54.6v.47l-1.14-1.07a.89.89,0,0,0-.81-.22h0a4.45,4.45,0,0,0-.55-1.4.6.6,0,0,0-.36-.31l-.06-.31,0-.31c0-1-1.65-1-1.65,0a17.88,17.88,0,0,0,1.3,5.92c.3.86,1.83.76,1.75-.23a6.37,6.37,0,0,0-.24-1.23l.07,0,2,1.88a.94.94,0,0,0,1.32-.06,1.57,1.57,0,0,0,.81.52,1.47,1.47,0,0,0,1.26-.21,16.93,16.93,0,0,0,1.28,1.65.92.92,0,0,0,1.55-.61,2.71,2.71,0,0,1,.76-1.53,1.56,1.56,0,0,0,.77.46.92.92,0,0,0,1-.4c.48-.81,1-.84,1.89-.84a.89.89,0,0,0,.89-.75,1,1,0,0,0,1.08-.13c.45-.43.87-.87,1.29-1.31C217.48,307,216.4,306,215.59,306.69Z" fill="#c69c6d"/><path d="M215.67,276.88a.83.83,0,0,0-1.66,0,5.82,5.82,0,0,1-.36,2.39,4.58,4.58,0,0,0-1.36.37,2,2,0,0,0-1.45-.4.85.85,0,0,0-.86.8,6.26,6.26,0,0,1-.16,1c-.31-.46-.62-.92-.89-1.4a.91.91,0,0,0-1.21-.3c.19-.14.18,0-.27-.5a.91.91,0,0,0-1.47.37l-.22.63a6.17,6.17,0,0,1-2.18-2.09.9.9,0,0,0-1.38-.17l-.5.51c0-.19,0-.37,0-.56a.87.87,0,0,0-1.74,0c0,.84,0,1.69,0,2.53a.87.87,0,0,0,.88.84l.67,0a.84.84,0,0,0,.83-.6,1.72,1.72,0,0,1,.38-.79c.79.84,1.88,1.23,2.7,2.26a.91.91,0,0,0,1.61-.2c.07-.19.14-.39.2-.58a1.06,1.06,0,0,0,.57.15c.54.85,1.13,1.66,1.62,2.53s1.57.35,1.66-.42a16.54,16.54,0,0,1,.44-2l.06.05a.92.92,0,0,0,1.23,0c.63-.55,1.6-.14,2.13-.8A5,5,0,0,0,215.67,276.88Z" fill="#c69c6d"/><path d="M212.29,249a.79.79,0,0,0-1.57,0c-.24,1.8-.5,3.44-1.94,4.65a4.36,4.36,0,0,0-1.72-.42c0-.56,0-1.13,0-1.7a.9.9,0,0,0-1.65-.42l-.17.31a1,1,0,0,0-1,.14,5,5,0,0,1-.47.33c0-.75,0-1.5,0-2.26a.88.88,0,0,0-1.76,0c0,1.27,0,2.53,0,3.8a.91.91,0,0,0,1.53.6,8.34,8.34,0,0,1,1.11-.7,1.79,1.79,0,0,0,.69.28h0v.45a.88.88,0,0,0,.9.85,3.11,3.11,0,0,1,2,.39,1,1,0,0,0,1.09.13A6.7,6.7,0,0,0,212.29,249Z" fill="#c69c6d"/><path d="M212.3,222.89a.84.84,0,0,0-1.58,0,.87.87,0,0,0-.51.24c-.53.52-1,1.09-1.55,1.6-.27.26-1.4.92-1.73.51a7.7,7.7,0,0,1-.67-1.31.93.93,0,0,0-1.35-.21,14.76,14.76,0,0,0-1.27-2,.85.85,0,0,0-1.66.16c0,.95-.46,4.79,1.51,4.55a.9.9,0,0,0,.22-.06,1,1,0,0,0,.68.11,2.56,2.56,0,0,0,1-.41,2.52,2.52,0,0,0,2.08,1.09c1.35.11,2.53-1.22,3.43-2.22a1.7,1.7,0,0,0,.44.18.89.89,0,0,0,.86-.21C212.74,224.25,212.48,223.6,212.3,222.89Z" fill="#c69c6d"/><path d="M210.15,196.78a12.49,12.49,0,0,1-1.79,2.71.9.9,0,0,0-1.1-.62,1.71,1.71,0,0,0-.68.38,2.8,2.8,0,0,1-.19-.82.91.91,0,0,0-1.67-.43,4.25,4.25,0,0,0-.58,1,4.43,4.43,0,0,0-.7-1.2.64.64,0,0,0-.27-.2,16.25,16.25,0,0,1-.16-1.75.86.86,0,0,0-1.71,0,8.06,8.06,0,0,0,.77,4.22.74.74,0,0,0,.79.4,11.68,11.68,0,0,0,.53,1.51.92.92,0,0,0,1.54,0c.17-.38.3-.8.44-1.21.21.39.45.79.68,1.21a.93.93,0,0,0,1.64-.2,1.11,1.11,0,0,0,.93-.13,7.28,7.28,0,0,0,3-4.33C211.81,196.56,210.55,196,210.15,196.78Z" fill="#c69c6d"/><path d="M209.56,173.8a3.73,3.73,0,0,0-.75,1.22,1.1,1.1,0,0,0-1.42.2,4.72,4.72,0,0,0-.65,1.31l-.2-.29-.16-.27c0-.1,0-.21,0-.32a.9.9,0,0,0-1.15-.83l-.1,0a4,4,0,0,1-.09-.48,1,1,0,0,0-1.26-.77.53.53,0,0,0-.17,0,3.47,3.47,0,0,0,.06-.45c.06-.92-1.51-1.12-1.7-.22-.37,1.76-1.23,3-.72,4.88a.91.91,0,0,0,.89.63h.66a.89.89,0,0,0,.9-.85c0-.19,0-.37,0-.56a1.06,1.06,0,0,0,.25.09.92.92,0,0,0,1.34.57c.28.4.57.74.74,1a1,1,0,0,0,1.58,0,3.48,3.48,0,0,0,.49-.91h0c1.79.71,2.19-2,2.79-2.91S210.23,173.13,209.56,173.8Z" fill="#c69c6d"/><path d="M236.61,22.16q-2.62,6.54-5.27,13c-1.25,3-2.45,6.14-3.68,9.21a93.81,93.81,0,0,1-4,8.94c-.48.93-1,1.86-1.53,2.71-3,7.08-6.14,14-9,21.29q-1.8,4.53-3.52,9.18c-.81,2.67-1.61,5.34-2.46,8-1.41,4.41-2.87,8.76-4.33,13.09-1.85,7.86-3.7,15.71-5.66,23.45,2.73-4.74,5.83-8.22,8.71-12.49,1-1.68,1.93-3.37,2.88-5.11s2-3.56,3-5.31c.19-.53.39-1,.58-1.55,1.19-3,2.53-5.7,3.88-8.34.81-1.56,1.6-3.12,2.38-4.73.5-1.13,1-2.22,1.53-3.29,1.46-3.28,2.87-6.69,4.24-10.16.35-1.15.7-2.3,1-3.45.44-1.79.86-3.62,1.34-5.36.64-2.34,1.31-4.64,2-6.92.08-.24.15-.47.22-.71.16-.8.31-1.59.47-2.39,1.2-6.11,2.55-12.07,3.94-18,.81-5.45,1.74-10.82,2.7-16.16l.69-5.15C236.68,22,236.64,22.08,236.61,22.16Z" fill="#c2e6b1"/><path d="M229.17,45.84c-1.49,3.92-3.07,7.65-4.59,11.52-1.78,4.56-3.6,9.38-5.67,13.51-.28.71-.58,1.42-.88,2.11a48.72,48.72,0,0,1-2.36,4.91c-.47,1-1,2-1.48,3-.37,1-.74,2-1.1,3-1.34,3.74-2.53,7.71-3.84,11.5-.48,1.39-1,2.77-1.45,4.15l-1.62,5.37c-.91,3.65-1.91,7.2-3,10.61-.28,1.33-.59,2.64-.91,3.93a2.16,2.16,0,0,0,.16.37c.53-.93,1.08-1.82,1.6-2.79,1.3-2.44,2.54-5,3.75-7.69s2.44-5.55,3.7-8.26,2.53-5.16,3.77-7.8c2.51-5.31,4.9-10.87,7.22-16.57q1.09-3.86,2.27-7.6c.63-2,1.26-4,1.91-6,2-8.21,3.78-16.71,5.51-25.25C231.17,40.49,230.17,43.18,229.17,45.84Zm-22.86,63.88c.06-.19.11-.38.17-.56l.12-.14C206.5,109.26,206.41,109.49,206.31,109.72Z" fill="#4a792c"/><path d="M225.92,61.32c-.86,2.29-1.47,5-2.41,7.12a.36.36,0,0,0,0,.31c-1.46,4.08-3,8-4.65,11.7s-3.49,7.59-5.25,11.33c-1.43,3-2.94,5.85-4.34,8.94-.25.56-.51,1.14-.77,1.74.55-1.59,1.07-3.22,1.62-4.79.7-2,1.45-4,2.26-5.77.08-.17,0-.43-.12-.26-.81,1.81-1.56,3.74-2.28,5.72s-1.41,4.21-2.15,6.24c-1.3,3.57-3.09,6.6-3.94,10.9-.05.24.11.45.16.21a46.54,46.54,0,0,1,2.92-8.25,34.84,34.84,0,0,0-1.14,4.29c-.08.42-.15.85-.21,1.28s.18.48.23.15a40.39,40.39,0,0,1,3.34-10.47c1.37-3.1,2.87-5.89,4.28-8.89,3.48-7.37,7.08-14.63,10-23.11.11-.32.23-.66.33-1a.41.41,0,0,0,0-.35c.86-2.08,1.45-4.59,2.25-6.78C226.11,61.4,226,61.13,225.92,61.32Z" fill="#c2e6b1"/><path d="M228.63,50.86c.8-3.13,1.8-6,2.73-8.92.06-.19-.08-.44-.15-.25-.94,2.63-1.81,5.35-2.56,8.26,0-.16-.16-.19-.2,0a48.17,48.17,0,0,1-2,8c-4.36,11.36-9.08,22-13.82,32.58-.08.16,0,.41.11.25,3.58-7.92,7.2-15.85,10.61-24.18-2,5.91-4.37,11.18-6.58,16.73-.1.26.07.64.17.38,2.24-5.61,4.61-11,6.65-16.94.94-2.75,2-5.36,2.91-8.1l.21-.62q1.06-2.85,2.09-5.78c.07-.2-.05-.47-.12-.28-.27.75-.54,1.49-.82,2.23.27-1.06.51-2.17.69-3.32C228.56,51,228.61,51,228.63,50.86Z" fill="#c2e6b1"/><path d="M215.48,89.13c-2.1,3.89-3.8,8.7-5.78,12.84-.09.18,0,.47.13.29,2-4.1,3.72-8.86,5.78-12.84C215.7,89.25,215.57,89,215.48,89.13Z" fill="#c2e6b1"/><path d="M215.79,86a9.22,9.22,0,0,1-1.1,2.42c-.09.14,0,.5.1.35a9.67,9.67,0,0,0,1.15-2.58C216,86,215.85,85.77,215.79,86Z" fill="#c2e6b1"/><path d="M227.2,54.53q-7.81,17.46-15.11,36c-.09.24.07.59.16.35,4.76-12.57,10-24.14,15.08-36.06C227.42,54.63,227.28,54.34,227.2,54.53Z" fill="#c2e6b1"/><path d="M184.54,15.89q.54,7,1,13.9c.22,3.25.52,6.54.78,9.82a95.57,95.57,0,0,1,.39,9.69c0,1-.07,2.08-.18,3.07.41,7.62.65,15.11,1.28,22.91q.41,4.83.91,9.73c.45,2.74.91,5.49,1.31,8.2.68,4.56,1.3,9.09,1.9,13.6,1.83,7.87,3.65,15.73,5.32,23.52.36-5.38,1.62-9.79,2.33-14.8.13-1.91.25-3.83.33-5.79s.2-4,.32-6c-.06-.56-.11-1.11-.16-1.64a88.07,88.07,0,0,1-.19-9.11c0-1.74.05-3.47,0-5.24-.05-1.23-.07-2.42-.07-3.6-.14-3.56-.38-7.21-.68-10.9l-.6-3.55c-.4-1.8-.83-3.62-1.18-5.39q-.69-3.57-1.27-7.07l-.12-.74c-.22-.78-.43-1.56-.64-2.34-1.63-6-3.07-12-4.44-17.88-1.7-5.27-3.24-10.51-4.75-15.73-.55-1.65-1.11-3.3-1.66-4.94A2.45,2.45,0,0,0,184.54,15.89Z" fill="#c2e6b1"/><path d="M188.34,40.33c.39,4.15.63,8.17,1,12.27.4,4.85.91,10,.87,14.52.06.76.11,1.52.15,2.27a48.76,48.76,0,0,1,0,5.39c0,1.1,0,2.23,0,3.3s.22,2.1.34,3.16c.45,3.93,1.14,8,1.64,12,.19,1.45.36,2.89.54,4.34.31,1.84.61,3.68.92,5.51q1.2,5.52,2,10.81c.33,1.32.63,2.63.92,3.93a3.73,3.73,0,0,0,.31.28c.07-1.06.17-2.09.21-3.17.09-2.73.06-5.58,0-8.48s-.26-6-.32-9,0-5.7-.06-8.58c-.09-5.82-.4-11.82-.84-17.92-.47-2.62-.92-5.21-1.33-7.79-.33-2.08-.66-4.17-.95-6.22-1.81-8.25-4-16.66-6.25-25.09C187.77,34.68,188.07,37.52,188.34,40.33Zm7.74,67.05c0-.19-.07-.39-.1-.58l0-.16Z" fill="#4a792c"/><path d="M192.29,55.66c.25,2.42.89,5.11,1,7.43a.35.35,0,0,0,.15.27q.73,6.42,1,12.47c.17,4.19.21,8.27.28,12.37,0,3.3-.06,6.47,0,9.83,0,.62,0,1.25.08,1.89-.21-1.66-.47-3.34-.67-5-.27-2.11-.44-4.16-.52-6.13,0-.18-.23-.37-.22-.19.06,2,.25,4,.48,6.1s.59,4.37.83,6.51c.41,3.76.13,7.23,1.28,11.46.06.23.3.37.24.12a46,46,0,0,1-1-8.64,35.17,35.17,0,0,0,.88,4.34c.11.41.24.83.38,1.25s.38.36.28,0A39.45,39.45,0,0,1,195.13,99c-.14-3.36,0-6.48-.08-9.77-.13-8.07-.1-16.09-1.21-25-.05-.34-.09-.69-.14-1a.43.43,0,0,0-.2-.29c-.14-2.23-.73-4.75-1-7C192.5,55.66,192.27,55.46,192.29,55.66Z" fill="#c2e6b1"/><path d="M190.09,45.09c-.66-3.15-1-6.14-1.5-9.17,0-.2-.27-.37-.24-.17.32,2.76.74,5.58,1.35,8.52-.1-.14-.23-.11-.17.1a47.6,47.6,0,0,1,1.74,8.08c1.1,12,1.56,23.57,2,35.06,0,.18.22.36.21.19-.28-8.61-.53-17.25-1.15-26.16.81,6.16,1,11.88,1.49,17.79,0,.28.35.56.32.28-.47-6-.7-11.78-1.51-18-.38-2.87-.62-5.64-1-8.5l-.09-.65c-.2-2-.42-4-.67-6.08,0-.2-.26-.41-.24-.2.09.79.17,1.57.25,2.35a34,34,0,0,0-.85-3.29C190.08,45.23,190.11,45.19,190.09,45.09Z" fill="#c2e6b1"/><path d="M195.22,85.05c-.17,4.36.43,9.41.47,14,0,.19.25.4.25.2,0-4.52-.57-9.51-.48-13.95C195.46,85.07,195.22,84.87,195.22,85.05Z" fill="#c2e6b1"/><path d="M194.09,82.06a8.79,8.79,0,0,1,.08,2.63c0,.17.22.45.24.28a9.32,9.32,0,0,0-.1-2.8C194.27,82,194.06,81.86,194.09,82.06Z" fill="#c2e6b1"/><path d="M190.43,49q.69,19,2.34,38.68c0,.25.32.51.29.25-1.28-13.29-1.68-25.88-2.38-38.71C190.67,49,190.42,48.79,190.43,49Z" fill="#c2e6b1"/><path d="M165,17.14q1.47,6.86,2.86,13.66c.65,3.2,1.39,6.43,2.08,9.65A92.32,92.32,0,0,1,171.64,50c.12,1,.21,2.07.23,3.06,1.43,7.52,2.66,14.91,4.33,22.58q1,4.74,2.19,9.54c.82,2.67,1.64,5.34,2.4,8,1.29,4.45,2.5,8.86,3.7,13.26,2.86,7.59,5.71,15.17,8.42,22.7-.37-5.38.3-9.9.33-15-.13-1.91-.26-3.83-.44-5.78s-.34-4-.48-6c-.14-.54-.26-1.08-.38-1.6a90,90,0,0,1-1.41-9c-.2-1.72-.4-3.45-.65-5.2-.22-1.21-.39-2.39-.56-3.56-.61-3.52-1.33-7.11-2.13-10.74-.35-1.15-.71-2.3-1.06-3.44-.63-1.74-1.31-3.5-1.89-5.21-.77-2.31-1.5-4.59-2.2-6.86-.08-.24-.15-.48-.22-.72l-.95-2.25c-2.42-5.78-4.63-11.5-6.78-17.2-2.39-5-4.62-10-6.81-15L165,16.87C165,17,165,17.05,165,17.14Z" fill="#c2e6b1"/><path d="M172.05,40.93c.95,4.06,1.72,8,2.61,12,1.05,4.77,2.23,9.77,2.8,14.3.16.75.32,1.5.45,2.23a52.22,52.22,0,0,1,.77,5.35c.16,1.09.32,2.2.42,3.27.25,1,.5,2.06.76,3.1,1,3.84,2.2,7.8,3.23,11.67.37,1.41.74,2.83,1.1,4.25.56,1.78,1.11,3.57,1.65,5.35,1.29,3.55,2.44,7.06,3.46,10.48.5,1.27,1,2.53,1.43,3.79l.35.24c-.07-1.06-.11-2.09-.22-3.17-.27-2.72-.67-5.54-1.15-8.4s-1.06-5.94-1.52-8.86-.77-5.65-1.2-8.51c-.86-5.76-2-11.67-3.22-17.67-.82-2.54-1.61-5.06-2.35-7.57-.61-2-1.22-4-1.78-6.06-2.9-8-6.2-16-9.55-24.14C170.74,35.39,171.41,38.17,172.05,40.93Zm16.62,65.58-.18-.56,0-.17Z" fill="#4a792c"/><path d="M178,55.66c.57,2.37,1.56,5,2,7.25a.36.36,0,0,0,.19.25c1,4.19,1.94,8.26,2.65,12.25.73,4.14,1.31,8.18,1.92,12.24.49,3.27.81,6.43,1.36,9.75.11.61.21,1.23.33,1.86-.43-1.62-.91-3.26-1.33-4.87-.54-2.06-1-4.07-1.33-6,0-.18-.27-.34-.24-.16.33,1.94.78,4,1.29,6s1.17,4.27,1.69,6.36c.9,3.68,1.1,7.15,2.8,11.21.09.23.34.34.25.1a46.16,46.16,0,0,1-2.17-8.45,35.57,35.57,0,0,0,1.45,4.2q.26.6.54,1.2c.15.31.43.31.28,0a40.46,40.46,0,0,1-3.07-10.54c-.58-3.32-.88-6.43-1.37-9.68C184,80.6,183,72.65,180.7,64c-.09-.34-.18-.67-.28-1a.51.51,0,0,0-.23-.28c-.45-2.19-1.36-4.62-1.92-6.87C178.22,55.64,178,55.47,178,55.66Z" fill="#c2e6b1"/><path d="M174.43,45.44c-1.08-3-1.86-6-2.71-8.92-.06-.2-.32-.33-.27-.14.69,2.7,1.48,5.44,2.48,8.29-.12-.13-.25-.08-.15.12a47.31,47.31,0,0,1,2.79,7.81c2.71,11.82,4.69,23.19,6.64,34.54,0,.18.27.34.24.16-1.43-8.51-2.83-17-4.63-25.81,1.63,6,2.59,11.67,3.85,17.47.06.27.42.51.36.24-1.27-5.88-2.27-11.6-3.91-17.69-.75-2.8-1.36-5.52-2.1-8.32-.06-.21-.11-.42-.17-.64-.47-2-1-3.95-1.48-5.94-.05-.2-.31-.38-.26-.17.19.76.37,1.53.56,2.29-.37-1-.79-2.09-1.28-3.16C174.43,45.58,174.46,45.54,174.43,45.44Z" fill="#c2e6b1"/><path d="M184.84,84.47c.41,4.34,1.68,9.27,2.33,13.78,0,.2.3.37.27.18-.6-4.48-1.83-9.37-2.33-13.79C185.08,84.45,184.82,84.29,184.84,84.47Z" fill="#c2e6b1"/><path d="M183.32,81.63a9.24,9.24,0,0,1,.44,2.6c0,.18.27.43.27.25a9.43,9.43,0,0,0-.48-2.76C183.49,81.52,183.26,81.43,183.32,81.63Z" fill="#c2e6b1"/><path d="M175.28,49.27q3.22,18.72,7.48,38.09c.05.25.38.46.32.21-3-13-5.11-25.47-7.52-38.12C175.52,49.25,175.25,49.07,175.28,49.27Z" fill="#c2e6b1"/><path d="M117.44,38.13q4.38,5.63,8.68,11.25c2,2.63,4.12,5.27,6.19,7.91s4.14,5.39,5.78,8c.56.89,1.11,1.8,1.57,2.69,4.64,6.24,9.06,12.45,14,18.74q3,3.89,6.23,7.77c1.93,2.09,3.86,4.18,5.73,6.27,3.15,3.52,6.21,7,9.26,10.55,6,5.73,11.94,11.46,17.74,17.21-2.72-4.73-4.13-9.1-6.36-13.7-1-1.68-1.94-3.36-3-5.06s-2.1-3.49-3.11-5.23c-.37-.44-.72-.88-1-1.31a90,90,0,0,1-5.3-7.61c-.95-1.48-1.9-3-2.91-4.45-.73-1-1.42-2-2.09-3-2.12-2.94-4.37-5.91-6.71-8.88l-2.5-2.7c-1.35-1.32-2.74-2.65-4-4-1.73-1.78-3.41-3.56-5.06-5.34L150,66.7,148.15,65c-4.77-4.27-9.33-8.57-13.82-12.88-4.4-3.6-8.65-7.26-12.87-10.92l-4.19-3.33Z" fill="#c2e6b1"/><path d="M134.41,56.89c2.67,3.3,5.13,6.58,7.73,9.89,3.08,3.89,6.38,8,8.92,11.83.48.62.95,1.24,1.4,1.85A53.44,53.44,0,0,1,155.53,85c.64.92,1.28,1.87,1.84,2.8s1.37,1.67,2.07,2.5c2.6,3.1,5.47,6.2,8.13,9.29l2.89,3.41c1.3,1.4,2.6,2.8,3.88,4.2,2.75,2.7,5.36,5.42,7.81,8.12,1,1,2,1.9,3,2.85a2.37,2.37,0,0,0,.42.08c-.54-.93-1-1.85-1.61-2.78-1.46-2.36-3.08-4.76-4.79-7.16s-3.6-5-5.32-7.42-3.21-4.82-4.87-7.23c-3.35-4.88-7-9.8-10.79-14.74-1.88-2-3.72-4-5.51-5.92-1.46-1.59-2.91-3.19-4.31-4.78-6.18-6.06-12.77-12.07-19.41-18.07C130.75,52.39,132.6,54.64,134.41,56.89Zm44.28,52.81-.41-.43-.05-.17Z" fill="#4a792c"/><path d="M146.39,67.86c1.57,1.92,3.62,3.87,5,5.78a.39.39,0,0,0,.28.16c2.83,3.38,5.45,6.71,7.86,10s4.84,6.89,7.2,10.33c1.9,2.77,3.6,5.5,5.57,8.29l1.13,1.56c-1.11-1.3-2.27-2.6-3.37-3.88q-2.12-2.49-3.89-4.93c-.11-.15-.4-.2-.29,0,1.16,1.63,2.47,3.27,3.84,4.92s3,3.4,4.36,5.09c2.46,3,4.19,6,7.53,9,.19.16.46.16.28,0a49,49,0,0,1-5.74-6.79,40.26,40.26,0,0,0,3.19,3.23c.33.29.67.58,1,.86s.53.11.26-.11a42.58,42.58,0,0,1-7.48-8.33c-2-2.77-3.67-5.47-5.56-8.22-4.65-6.77-9.14-13.56-15.07-20.5l-.7-.81a.49.49,0,0,0-.33-.15c-1.38-1.81-3.29-3.65-4.8-5.47C146.56,67.75,146.26,67.7,146.39,67.86Z" fill="#c2e6b1"/><path d="M138.57,60c-2.33-2.33-4.34-4.67-6.42-7-.14-.15-.44-.17-.31,0,1.83,2.18,3.76,4.35,5.94,6.53-.16-.07-.26,0-.08.17a51.38,51.38,0,0,1,6,6c7.72,9.63,14.58,19.15,21.41,28.67.1.14.39.19.28,0-5.08-7.14-10.15-14.32-15.69-21.55,4.15,4.81,7.54,9.54,11.27,14.3.17.23.61.3.43.07-3.77-4.82-7.22-9.61-11.42-14.47-1.94-2.24-3.7-4.46-5.61-6.7l-.44-.51q-2-2.4-4-4.8c-.14-.16-.45-.21-.32-.05l1.54,1.86c-.8-.79-1.65-1.58-2.58-2.36C138.64,60.15,138.65,60.11,138.57,60Z" fill="#c2e6b1"/><path d="M165.4,91.25c2.31,3.77,5.66,7.73,8.26,11.56.11.17.43.22.32,0-2.55-3.82-5.84-7.76-8.26-11.56C165.62,91.14,165.3,91.09,165.4,91.25Z" fill="#c2e6b1"/><path d="M162.76,89.29a9,9,0,0,1,1.55,2.18c.08.16.44.27.36.12A9.9,9.9,0,0,0,163,89.27C162.86,89.11,162.62,89.13,162.76,89.29Z" fill="#c2e6b1"/><path d="M141.06,63.16Q152.31,78.84,164.8,94.7c.16.2.56.27.39.06-8.56-10.59-16-21.05-23.8-31.55C141.26,63,140.93,63,141.06,63.16Z" fill="#c2e6b1"/><path d="M255.81,29.78q-3.62,6.11-7.25,12.13c-1.71,2.82-3.38,5.73-5.07,8.6a96.82,96.82,0,0,1-5.31,8.28c-.63.85-1.28,1.71-1.94,2.47C232.15,67.84,228,74.21,224,81.05q-2.47,4.23-4.91,8.58c-1.21,2.53-2.43,5.06-3.67,7.53-2.09,4.17-4.21,8.26-6.33,12.34-3.06,7.52-6.12,15-9.26,22.4,3.44-4.3,7-7.32,10.56-11.13,1.22-1.53,2.44-3.07,3.65-4.65s2.49-3.25,3.75-4.84c.27-.5.55-1,.82-1.45,1.65-2.8,3.39-5.29,5.14-7.7,1-1.43,2.07-2.87,3.09-4.35.67-1,1.35-2,2-3,2-3,3.88-6.21,5.78-9.45L236.19,82c.72-1.71,1.42-3.46,2.16-5.12,1-2.22,2-4.4,3.05-6.56l.33-.67c.27-.77.55-1.53.83-2.3,2.15-5.87,4.41-11.58,6.7-17.23,1.66-5.28,3.42-10.45,5.2-15.6l1.49-5C255.9,29.62,255.85,29.7,255.81,29.78Z" fill="#c2e6b1"/><path d="M244.75,52.16c-2.09,3.67-4.23,7.14-6.33,10.75-2.48,4.26-5,8.78-7.72,12.56q-.58,1-1.2,2A50.3,50.3,0,0,1,226.4,82c-.62.93-1.27,1.87-1.93,2.74s-1.05,1.87-1.56,2.82C221,91,219.2,94.8,217.32,98.37c-.69,1.3-1.39,2.6-2.09,3.9q-1.22,2.55-2.44,5.08c-1.46,3.48-3,6.85-4.59,10.08-.5,1.27-1,2.52-1.52,3.75a3.33,3.33,0,0,0,.1.4c.67-.85,1.35-1.65,2-2.54,1.67-2.23,3.31-4.62,4.91-7.08s3.29-5.15,5-7.65,3.31-4.75,4.95-7.18c3.32-4.91,6.55-10.08,9.73-15.39q1.69-3.64,3.43-7.2c.94-1.91,1.87-3.82,2.83-5.68,3.28-7.83,6.35-16,9.39-24.2C247.56,47.15,246.16,49.67,244.75,52.16Zm-32.58,60,.26-.54.13-.11Z" fill="#4a792c"/><path d="M239.12,67c-1.2,2.14-2.23,4.72-3.5,6.7a.39.39,0,0,0,0,.31c-2.08,3.83-4.21,7.46-6.42,10.92s-4.64,7-7,10.47c-1.89,2.78-3.82,5.37-5.68,8.23-.35.52-.69,1.06-1,1.61.79-1.49,1.56-3,2.35-4.51,1-1.9,2-3.7,3.14-5.38.09-.16,0-.43-.08-.28-1.09,1.67-2.13,3.48-3.15,5.34s-2.05,4-3.1,5.87c-1.84,3.35-4.09,6.1-5.6,10.22-.09.23,0,.47.13.23a47.64,47.64,0,0,1,4.17-7.74,35.55,35.55,0,0,0-1.79,4.08c-.15.4-.29.81-.41,1.24s.11.49.21.17a40.85,40.85,0,0,1,4.93-9.88c1.84-2.88,3.76-5.43,5.62-8.19,4.59-6.8,9.28-13.48,13.52-21.45l.48-.94a.4.4,0,0,0,0-.35c1.17-1.94,2.15-4.34,3.28-6.39C239.3,67.12,239.22,66.84,239.12,67Z" fill="#c2e6b1"/><path d="M243.44,57.05c1.28-3,2.71-5.67,4.09-8.44.09-.18,0-.45-.11-.27-1.34,2.48-2.63,5-3.83,7.82,0-.17-.12-.22-.19,0a49,49,0,0,1-3.26,7.65c-6.09,10.63-12.42,20.47-18.76,30.28-.1.15,0,.42.07.27,4.78-7.33,9.6-14.67,14.27-22.43-2.91,5.57-6.07,10.45-9.12,15.62-.14.25,0,.65.11.41,3.09-5.24,6.27-10.2,9.22-15.82,1.36-2.6,2.77-5,4.14-7.61l.31-.59c1-1.78,2-3.58,3-5.42.1-.18,0-.47-.08-.29-.39.7-.77,1.4-1.16,2.09.44-1,.84-2.07,1.21-3.19C243.35,57.15,243.4,57.14,243.44,57.05Z" fill="#c2e6b1"/><path d="M224.45,93.06c-2.68,3.55-5.11,8.07-7.72,11.89-.11.16,0,.46.08.3,2.63-3.77,5.07-8.24,7.73-11.89C224.65,93.2,224.57,92.91,224.45,93.06Z" fill="#c2e6b1"/><path d="M225.26,90a9.48,9.48,0,0,1-1.47,2.23c-.11.13-.08.49,0,.36a9.67,9.67,0,0,0,1.54-2.39C225.46,90,225.35,89.79,225.26,90Z" fill="#c2e6b1"/><path d="M241.45,60.48Q231,76.65,220.89,94c-.13.22,0,.58.1.36,6.66-11.76,13.66-22.47,20.54-33.54C241.65,60.61,241.56,60.3,241.45,60.48Z" fill="#c2e6b1"/><path d="M141.34,22.72q2.81,6.47,5.53,12.91c1.27,3,2.64,6.07,4,9.1a97.6,97.6,0,0,1,3.55,9.1c.32,1,.62,2,.84,3C158.11,63.92,160.8,71,164,78.2q2,4.47,4.05,9c1.33,2.47,2.67,4.94,3.94,7.4,2.15,4.14,4.22,8.25,6.27,12.36,4.33,6.94,8.63,13.88,12.79,20.79-1.43-5.22-1.68-9.78-2.66-14.75-.5-1.85-1-3.71-1.58-5.6s-1.13-3.87-1.66-5.79c-.25-.51-.47-1-.69-1.51a90.32,90.32,0,0,1-3.18-8.6c-.54-1.66-1.09-3.32-1.68-5-.45-1.15-.86-2.28-1.25-3.4-1.3-3.35-2.73-6.74-4.23-10.17-.58-1.06-1.16-2.12-1.73-3.19-1-1.59-2-3.2-2.89-4.78-1.22-2.12-2.39-4.24-3.53-6.34l-.36-.66L164.2,55.9c-3.52-5.24-6.84-10.46-10.09-15.68-3.34-4.51-6.52-9-9.68-13.55l-3.2-4.2C141.26,22.55,141.3,22.63,141.34,22.72Z" fill="#c2e6b1"/><path d="M153,44.83c1.74,3.82,3.28,7.57,5,11.37,2,4.49,4.14,9.19,5.61,13.54.3.71.6,1.42.88,2.12A51,51,0,0,1,166.24,77c.38,1,.76,2.1,1.06,3.14s.9,1.93,1.37,2.9c1.72,3.6,3.71,7.27,5.49,10.89.65,1.32,1.29,2.64,1.93,4q1.35,2.47,2.69,5c2,3.25,3.8,6.49,5.48,9.67.74,1.16,1.46,2.31,2.16,3.46a3.09,3.09,0,0,0,.39.17c-.28-1-.52-2-.85-3.07-.81-2.62-1.76-5.32-2.8-8s-2.22-5.63-3.26-8.42S178,91.19,177,88.46c-2-5.51-4.27-11.11-6.69-16.78q-2-3.53-3.82-7c-1-1.89-2-3.77-2.95-5.64-4.43-7.3-9.28-14.65-14.18-22C150.58,39.63,151.8,42.23,153,44.83Zm29.38,61.44-.29-.52a1,1,0,0,1,0-.17Z" fill="#4a792c"/><path d="M161.77,58.23c1,2.23,2.52,4.59,3.37,6.77a.44.44,0,0,0,.24.21c1.87,3.93,3.56,7.77,5,11.56s2.92,7.8,4.33,11.67c1.13,3.13,2.07,6.17,3.28,9.33q.33.87.69,1.77c-.74-1.51-1.54-3-2.27-4.54-.94-1.93-1.79-3.83-2.51-5.67-.06-.18-.34-.29-.27-.12.71,1.84,1.56,3.74,2.46,5.66s2,4,2.92,5.94c1.63,3.45,2.51,6.83,5,10.51.14.21.41.26.27.05a48.06,48.06,0,0,1-3.81-7.91,35.8,35.8,0,0,0,2.26,3.87c.24.35.5.71.77,1.07s.48.23.28-.05a41.17,41.17,0,0,1-5.12-9.8c-1.23-3.15-2.15-6.16-3.28-9.26C172.63,81.66,170,74,166.05,65.93l-.47-.94a.47.47,0,0,0-.28-.23c-.87-2.07-2.25-4.3-3.25-6.41C162,58.17,161.69,58.05,161.77,58.23Z" fill="#c2e6b1"/><path d="M156.21,48.84c-1.67-2.8-3-5.54-4.44-8.28-.09-.18-.38-.27-.29-.09,1.21,2.53,2.53,5.08,4.09,7.7-.15-.1-.26,0-.13.14a48.61,48.61,0,0,1,4.3,7.18c5,11.12,9.22,21.93,13.4,32.73.06.17.32.28.26.11-3.09-8.1-6.17-16.23-9.68-24.52,2.79,5.62,4.87,11,7.25,16.47.11.26.52.43.4.17-2.41-5.54-4.53-11-7.36-16.67-1.3-2.62-2.43-5.18-3.72-7.8l-.29-.59q-1.27-2.78-2.64-5.58c-.09-.18-.38-.31-.29-.12.34.72.68,1.44,1,2.16-.57-1-1.19-1.91-1.89-2.88C156.24,49,156.26,48.93,156.21,48.84Z" fill="#c2e6b1"/><path d="M174.2,85.3c1.27,4.2,3.5,8.81,5,13.12.06.19.36.31.3.13-1.49-4.3-3.67-8.88-5-13.12C174.44,85.25,174.15,85.13,174.2,85.3Z" fill="#c2e6b1"/><path d="M172.15,82.79a8.94,8.94,0,0,1,.94,2.48c0,.17.35.36.32.19a9.58,9.58,0,0,0-1-2.62C172.29,82.65,172.05,82.61,172.15,82.79Z" fill="#c2e6b1"/><path d="M157.81,52.45q6.88,17.8,14.93,36.06c.1.24.46.39.36.16-5.59-12.26-10.1-24.11-15-36.09C158,52.38,157.73,52.25,157.81,52.45Z" fill="#c2e6b1"/><path d="M215,17.78q-1.38,6.87-2.8,13.68c-.67,3.19-1.28,6.45-1.92,9.68A96.33,96.33,0,0,1,208,50.59c-.31,1-.64,2-1,2.92C205.32,61,203.52,68.28,202,76q-.93,4.75-1.78,9.62c-.3,2.76-.61,5.52-.95,8.24-.58,4.58-1.22,9.1-1.86,13.61-.38,8-.76,16.09-1.26,24,1.81-5.12,4.23-9.07,6.27-13.74.65-1.81,1.29-3.64,1.9-5.51s1.28-3.83,1.94-5.71c.09-.56.19-1.1.29-1.63A91.25,91.25,0,0,1,208.85,96c.5-1.67,1-3.34,1.47-5,.28-1.2.59-2.35.9-3.49.84-3.48,1.6-7.06,2.31-10.71l.39-3.57c.1-1.83.18-3.7.33-5.5q.3-3.61.69-7.14c0-.25.05-.49.08-.74,0-.81,0-1.61,0-2.42.06-6.22.29-12.31.57-18.36-.2-5.5-.27-10.94-.31-16.36L215,17.51A2.56,2.56,0,0,1,215,17.78Z" fill="#c2e6b1"/><path d="M212,42.33c-.75,4.1-1.61,8-2.39,12.09-.93,4.79-1.83,9.84-3.1,14.24-.15.75-.31,1.5-.48,2.23a50.59,50.59,0,0,1-1.42,5.22c-.28,1.07-.58,2.16-.91,3.19s-.36,2.08-.53,3.14c-.63,3.9-1.08,8-1.67,12-.21,1.44-.44,2.88-.67,4.32-.19,1.86-.4,3.71-.6,5.56-.22,3.74-.56,7.4-1,10.94,0,1.35-.1,2.69-.18,4a3.54,3.54,0,0,0,.23.35c.35-1,.73-2,1.06-3,.83-2.62,1.58-5.38,2.28-8.2s1.39-5.87,2.12-8.74,1.54-5.51,2.29-8.3c1.49-5.65,2.82-11.52,4.05-17.52q.38-4,.84-7.85c.24-2.1.49-4.19.77-6.25.49-8.41.66-17.07.78-25.77C213,36.73,212.51,39.54,212,42.33ZM201.26,109l.06-.58.09-.15Z" fill="#4a792c"/><path d="M211.66,58.1c-.42,2.4-.53,5.15-1.07,7.42a.41.41,0,0,0,.08.3c-.69,4.26-1.49,8.34-2.43,12.29s-2,8-3.09,12c-.85,3.21-1.81,6.24-2.63,9.51-.14.6-.29,1.22-.43,1.84.24-1.64.45-3.34.71-5,.32-2.1.7-4.13,1.16-6,0-.18-.12-.41-.16-.23-.47,1.91-.85,3.94-1.2,6s-.61,4.37-1,6.49c-.63,3.73-1.83,7-1.88,11.38,0,.25.19.43.2.18a45.44,45.44,0,0,1,1.35-8.6,36.24,36.24,0,0,0-.33,4.41c0,.43,0,.86,0,1.3s.27.44.26.1a39.58,39.58,0,0,1,1.36-10.85c.77-3.29,1.74-6.28,2.58-9.46,2.07-7.84,4.27-15.58,5.61-24.41l.15-1a.47.47,0,0,0-.11-.33c.46-2.19.59-4.77,1-7.05C211.86,58.15,211.7,57.91,211.66,58.1Z" fill="#c2e6b1"/><path d="M212.41,47.35c.21-3.21.66-6.19,1.05-9.23,0-.2-.17-.42-.2-.22-.44,2.75-.8,5.57-1,8.56-.06-.16-.2-.17-.19.06a46.81,46.81,0,0,1-.53,8.23c-2.2,11.91-4.9,23.15-7.62,34.36,0,.17.12.4.16.23,2.07-8.39,4.18-16.79,6-25.56-.89,6.16-2.25,11.74-3.4,17.56-.05.27.19.62.24.35,1.17-5.9,2.52-11.55,3.43-17.78.42-2.87.94-5.6,1.37-8.46,0-.21.06-.43.1-.65.35-2,.68-4,1-6,0-.21-.13-.46-.17-.25l-.39,2.33c.07-1.1.1-2.22.07-3.39C212.36,47.48,212.4,47.46,212.41,47.35Z" fill="#c2e6b1"/><path d="M206.5,87.22c-1.35,4.17-2.14,9.19-3.34,13.59,0,.19.13.45.18.26,1.23-4.36,2-9.33,3.33-13.6C206.73,87.29,206.55,87,206.5,87.22Z" fill="#c2e6b1"/><path d="M206.22,84.05a9.22,9.22,0,0,1-.63,2.56c-.07.16.08.49.15.33a9.26,9.26,0,0,0,.66-2.73C206.42,84,206.25,83.84,206.22,84.05Z" fill="#c2e6b1"/><path d="M211.67,51.2q-4.47,18.49-8.25,38c0,.25.17.56.21.31,2.38-13.16,5.42-25.42,8.23-38C211.9,51.27,211.72,51,211.67,51.2Z" fill="#c2e6b1"/><path d="M150.5,57.85q3.42,6.19,6.75,12.38c1.55,2.9,3.21,5.82,4.81,8.73a93.22,93.22,0,0,1,4.41,8.75c.41,1,.8,1.94,1.11,2.88,3.57,6.85,6.92,13.64,10.76,20.57q2.39,4.28,4.9,8.59c1.56,2.35,3.13,4.7,4.63,7,2.54,3.93,5,7.85,7.43,11.77,5,6.54,9.92,13.08,14.72,19.61-1.92-5.08-2.6-9.6-4.05-14.47-.68-1.8-1.37-3.61-2.11-5.44s-1.5-3.76-2.22-5.62c-.29-.49-.56-1-.83-1.45-1.57-2.84-2.81-5.58-4-8.29-.69-1.61-1.39-3.21-2.14-4.83-.56-1.11-1.08-2.19-1.58-3.27-1.61-3.22-3.36-6.48-5.18-9.76l-2-3c-1.11-1.5-2.28-3-3.33-4.51q-2.13-3-4.12-6l-.42-.63-1.57-1.92c-4-4.91-7.82-9.83-11.55-14.75-3.76-4.2-7.36-8.43-10.93-12.66l-3.6-3.92Z" fill="#c2e6b1"/><path d="M164.21,78.87c2.1,3.66,4,7.26,6,10.9,2.4,4.3,5,8.8,6.87,13,.37.68.73,1.36,1.08,2a51.32,51.32,0,0,1,2.3,4.94c.48,1,1,2,1.36,3l1.63,2.78c2.06,3.43,4.4,6.92,6.51,10.37q1.17,1.89,2.31,3.78l3.15,4.72c2.27,3.07,4.4,6.14,6.38,9.17.85,1.08,1.68,2.17,2.49,3.25a2.4,2.4,0,0,0,.4.14c-.38-1-.71-2-1.14-3-1.06-2.55-2.26-5.15-3.56-7.77s-2.75-5.43-4-8.12-2.39-5.22-3.64-7.86c-2.52-5.31-5.31-10.7-8.26-16.13q-2.29-3.34-4.48-6.66c-1.17-1.79-2.34-3.58-3.47-5.36C171,85.21,165.49,78.31,159.9,71.41,161.33,73.89,162.79,76.38,164.21,78.87Zm35.13,58.66c-.11-.16-.22-.33-.34-.49s0-.11,0-.17Z" fill="#4a792c"/><path d="M174.25,91.46c1.24,2.13,2.95,4.36,4,6.45a.42.42,0,0,0,.26.19c2.24,3.75,4.29,7.43,6.13,11.08s3.65,7.51,5.42,11.25c1.43,3,2.66,6,4.16,9,.27.56.56,1.13.86,1.71-.89-1.44-1.83-2.9-2.7-4.33-1.12-1.84-2.14-3.66-3-5.44-.08-.16-.36-.25-.28-.09.88,1.78,1.91,3.59,3,5.42s2.37,3.79,3.48,5.67c1.95,3.3,3.15,6.58,6,10,.16.19.44.23.28,0a48.15,48.15,0,0,1-4.56-7.55,37.34,37.34,0,0,0,2.63,3.65c.27.34.56.67.86,1s.5.18.28-.07a41.4,41.4,0,0,1-6-9.33c-1.54-3-2.73-6-4.16-8.94-3.49-7.36-6.82-14.74-11.54-22.46-.18-.3-.37-.6-.56-.9a.47.47,0,0,0-.3-.2c-1.07-2-2.66-4.09-3.85-6.11C174.44,91.38,174.15,91.29,174.25,91.46Z" fill="#c2e6b1"/><path d="M167.81,82.58c-1.93-2.64-3.53-5.25-5.21-7.86-.11-.18-.4-.24-.3-.07,1.45,2.42,3,4.85,4.81,7.32-.15-.09-.26,0-.11.15a50,50,0,0,1,5,6.78c6,10.64,11.28,21,16.47,31.45.08.16.36.25.28.09-3.86-7.8-7.7-15.64-12-23.59,3.32,5.35,5.9,10.53,8.8,15.78.14.25.55.38.42.13-2.94-5.31-5.57-10.55-8.93-16-1.54-2.5-2.92-5-4.45-7.44-.11-.19-.23-.38-.35-.57-1-1.77-2.07-3.54-3.16-5.33-.11-.17-.4-.27-.3-.09L170,85.42c-.65-.9-1.36-1.8-2.15-2.7C167.85,82.71,167.87,82.67,167.81,82.58Z" fill="#c2e6b1"/><path d="M189.22,117.35c1.66,4.07,4.33,8.48,6.27,12.64.08.18.39.28.31.1-1.9-4.15-4.51-8.53-6.28-12.64C189.45,117.28,189.15,117.18,189.22,117.35Z" fill="#c2e6b1"/><path d="M186.93,115a9.53,9.53,0,0,1,1.18,2.38c0,.17.38.34.33.17a9.59,9.59,0,0,0-1.26-2.53C187.06,114.87,186.81,114.85,186.93,115Z" fill="#c2e6b1"/><path d="M169.75,86q8.56,17.13,18.31,34.64c.13.22.51.34.38.12-6.74-11.73-12.36-23.14-18.37-34.66C170,86,169.66,85.85,169.75,86Z" fill="#c2e6b1"/><path d="M110.91,90.49c3.9,2.84,7.79,5.69,11.63,8.54,2.7,2,5.5,4,8.26,6s5.55,4.09,7.89,6.17c.8.71,1.59,1.44,2.29,2.17,6.29,4.78,12.35,9.6,18.92,14.34q4.07,2.94,8.26,5.84c2.47,1.5,4.93,3,7.34,4.52,4.05,2.56,8,5.13,12,7.71,7.42,3.94,14.82,7.89,22.08,11.89-4-3.84-6.64-7.66-10.12-11.5-1.42-1.36-2.85-2.72-4.34-4.08s-3-2.81-4.51-4.22c-.48-.32-.94-.65-1.39-1-2.7-1.94-5-3.93-7.31-5.92-1.35-1.18-2.7-2.35-4.1-3.52-1-.78-1.95-1.56-2.89-2.34-2.9-2.27-5.93-4.53-9-6.77l-3.19-1.94c-1.69-.92-3.41-1.83-5-2.76-2.18-1.25-4.31-2.52-6.41-3.8l-.66-.41q-1.14-.54-2.28-1.11c-5.83-2.85-11.47-5.79-17-8.75-5.28-2.31-10.43-4.7-15.56-7.11l-5-2.12Z" fill="#c2e6b1"/><path d="M132.7,104.07c3.53,2.48,6.85,5,10.32,7.48,4.1,2.93,8.45,6,12,9,.64.47,1.28.94,1.89,1.41a52.78,52.78,0,0,1,4.28,3.56c.88.72,1.77,1.46,2.59,2.2s1.8,1.25,2.72,1.87c3.39,2.29,7.06,4.52,10.52,6.8l3.77,2.51,5,3c3.43,1.87,6.73,3.8,9.87,5.75,1.26.65,2.49,1.3,3.71,2a2.77,2.77,0,0,0,.42,0c-.79-.75-1.53-1.51-2.36-2.26-2.09-1.88-4.35-3.75-6.69-5.61s-4.91-3.82-7.28-5.74-4.49-3.79-6.8-5.67C172,126.54,167.06,122.77,162,119c-2.38-1.41-4.72-2.82-7-4.25-1.86-1.15-3.72-2.3-5.53-3.46-7.71-4.21-15.8-8.26-23.94-12.28C127.87,100.71,130.31,102.39,132.7,104.07Zm58,39.14-.52-.31-.1-.14Z" fill="#4a792c"/><path d="M147.41,111.47c2.07,1.44,4.62,2.78,6.51,4.25a.43.43,0,0,0,.32.07c3.7,2.51,7.19,5,10.48,7.59s6.67,5.36,9.93,8c2.64,2.16,5.07,4.35,7.79,6.51l1.53,1.2c-1.44-1-2.94-1.9-4.37-2.85q-2.76-1.83-5.18-3.71c-.14-.12-.44-.09-.29,0,1.59,1.26,3.33,2.49,5.12,3.72s3.85,2.49,5.69,3.74c3.23,2.22,5.78,4.71,9.88,6.72.22.12.49,0,.26-.08a50.92,50.92,0,0,1-7.5-5,39.77,39.77,0,0,0,4,2.27c.4.19.81.38,1.23.56s.54,0,.22-.17a44.19,44.19,0,0,1-9.62-6c-2.74-2.14-5.13-4.3-7.75-6.45-6.45-5.28-12.75-10.63-20.47-15.75l-.91-.59a.51.51,0,0,0-.37-.06c-1.85-1.38-4.22-2.64-6.2-4C147.55,111.33,147.24,111.36,147.41,111.47Z" fill="#c2e6b1"/><path d="M137.62,106c-2.93-1.63-5.54-3.35-8.23-5-.17-.11-.47,0-.3.06,2.4,1.62,4.89,3.19,7.62,4.71-.18,0-.24.09,0,.19a54,54,0,0,1,7.52,4.16c10.23,7.23,19.61,14.57,28.94,21.93.15.11.44.08.29,0-7-5.54-13.94-11.1-21.38-16.6,5.4,3.53,10,7.19,15,10.79.24.17.67.13.44,0-5-3.65-9.75-7.34-15.21-10.92-2.51-1.64-4.85-3.32-7.35-5l-.57-.37q-2.56-1.8-5.24-3.57c-.17-.12-.49-.09-.31,0l2,1.38c-1-.55-2.05-1.09-3.16-1.59C137.72,106.1,137.71,106.05,137.62,106Z" fill="#c2e6b1"/><path d="M172.52,129c3.32,3,7.7,5.95,11.31,8.94.15.13.48.1.33,0-3.57-3-7.88-5.93-11.32-8.95C172.69,128.8,172.38,128.84,172.52,129Z" fill="#c2e6b1"/><path d="M169.41,127.77a10.22,10.22,0,0,1,2.13,1.69c.12.13.5.15.38,0a10.52,10.52,0,0,0-2.28-1.79C169.46,127.58,169.23,127.66,169.41,127.77Z" fill="#c2e6b1"/><path d="M140.92,108.36q15.39,12.12,32,24.08c.21.15.61.11.4,0-11.33-7.94-21.52-16-32.1-24.08C141.08,108.19,140.75,108.23,140.92,108.36Z" fill="#c2e6b1"/><path d="M98.91,105.12q6.38,3.52,12.67,7.07c3,1.67,6,3.3,9,5s6.05,3.39,8.65,5.18c.89.61,1.78,1.24,2.57,1.88,6.87,4,13.52,8,20.67,12,2.95,1.62,5.94,3.21,9,4.8,2.64,1.2,5.29,2.39,7.88,3.61,4.36,2.05,8.65,4.13,12.91,6.21,7.88,3,15.75,6.06,23.49,9.16-4.48-3.33-7.6-6.81-11.57-10.19-1.59-1.19-3.19-2.37-4.85-3.54s-3.38-2.42-5-3.64l-1.52-.8c-2.93-1.61-5.52-3.31-8-5-1.5-1-3-2-4.53-3-1.1-.65-2.15-1.31-3.18-2-3.18-1.91-6.49-3.79-9.88-5.64l-3.42-1.54c-1.79-.71-3.63-1.4-5.36-2.14q-3.5-1.47-6.87-3l-.71-.32-2.41-.83c-6.16-2.14-12.14-4.38-18.07-6.65-5.54-1.66-11-3.42-16.38-5.19L98.66,105Z" fill="#c2e6b1"/><path d="M122.34,116c3.83,2,7.46,4.13,11.23,6.18,4.45,2.43,9.18,4.92,13.13,7.53l2.06,1.17a54.89,54.89,0,0,1,4.72,3c1,.6,2,1.23,2.86,1.88s1.95,1,2.94,1.52c3.68,1.87,7.61,3.64,11.35,5.49q2,1,4.08,2c1.78.79,3.55,1.6,5.32,2.4,3.65,1.45,7.18,3,10.56,4.53q2,.73,3.93,1.5a2.2,2.2,0,0,0,.42-.09c-.88-.65-1.71-1.31-2.64-2-2.33-1.62-4.82-3.21-7.39-4.77s-5.37-3.21-8-4.82-5-3.22-7.49-4.82c-5.12-3.22-10.52-6.37-16.07-9.48q-3.83-1.66-7.54-3.37c-2-.92-4-1.84-5.95-2.78-8.21-3.25-16.77-6.29-25.38-9.31Zm62.73,31.9-.56-.25-.12-.13Z" fill="#4a792c"/><path d="M137.92,121.57c2.24,1.18,4.94,2.19,7,3.43a.43.43,0,0,0,.33,0c4,2,7.8,4.12,11.41,6.28s7.33,4.51,10.93,6.78c2.9,1.83,5.6,3.71,8.59,5.53.54.33,1.1.67,1.68,1-1.56-.77-3.17-1.52-4.72-2.3-2-1-3.87-2-5.63-3.06-.16-.1-.45,0-.29.07,1.75,1,3.64,2.07,5.58,3.07s4.15,2,6.14,3c3.5,1.81,6.37,4,10.69,5.48.25.09.5,0,.25-.12a51.83,51.83,0,0,1-8.1-4.08,40,40,0,0,0,4.27,1.77l1.3.41c.35.1.53-.1.2-.2a45.12,45.12,0,0,1-10.35-4.84c-3-1.79-5.66-3.66-8.55-5.47-7.1-4.47-14.06-9-22.41-13.18l-1-.47a.51.51,0,0,0-.36,0c-2-1.14-4.55-2.11-6.7-3.22C138,121.4,137.73,121.47,137.92,121.57Z" fill="#c2e6b1"/><path d="M127.47,117.31c-3.12-1.27-5.94-2.67-8.83-4-.19-.09-.48,0-.29.1,2.59,1.31,5.27,2.58,8.18,3.76-.18,0-.23.12,0,.19a56.14,56.14,0,0,1,8,3.22c11.11,6,21.39,12.12,31.64,18.3.15.09.43,0,.28-.07-7.65-4.65-15.31-9.34-23.42-13.9,5.82,2.85,10.92,5.93,16.33,8.91.25.14.68,0,.42-.1-5.47-3-10.65-6.12-16.54-9-2.71-1.33-5.25-2.71-7.95-4.05l-.61-.3c-1.87-1-3.75-2-5.68-2.91-.19-.1-.5,0-.3.07l2.18,1.13c-1.06-.43-2.17-.83-3.35-1.2C127.58,117.39,127.57,117.35,127.47,117.31Z" fill="#c2e6b1"/><path d="M165.15,135.92c3.7,2.6,8.43,5,12.41,7.52.18.11.49,0,.32-.08-3.93-2.55-8.6-4.93-12.41-7.52C165.3,135.73,165,135.81,165.15,135.92Z" fill="#c2e6b1"/><path d="M161.91,135.1a9.91,9.91,0,0,1,2.33,1.43c.14.11.52.08.38,0a10.31,10.31,0,0,0-2.49-1.5C161.93,134.91,161.71,135,161.91,135.1Z" fill="#c2e6b1"/><path d="M131.06,119.25q16.89,10.19,35,20.06c.23.13.62,0,.38-.09-12.3-6.52-23.48-13.33-35.05-20C131.2,119.07,130.87,119.14,131.06,119.25Z" fill="#c2e6b1"/><path d="M83.79,152.74q7.35.64,14.64,1.34c3.41.33,6.89.6,10.35.9s7,.65,10.15,1.23c1.07.2,2.16.41,3.16.68,8,.87,15.85,1.88,24.08,2.58,3.39.28,6.81.54,10.27.76,2.93,0,5.86.05,8.76.12,4.86.12,9.67.29,14.47.47,8.49-.41,17-.81,25.37-1.09-5.55-1.22-9.93-3.13-15-4.61-2-.44-3.95-.87-6-1.27s-4.15-.84-6.19-1.29c-.59,0-1.17-.07-1.73-.12-3.38-.28-6.48-.79-9.52-1.32-1.8-.32-3.6-.63-5.45-.91-1.28-.15-2.52-.33-3.75-.52-3.74-.46-7.58-.84-11.47-1.16l-3.79,0c-1.94.07-3.91.18-5.81.21-2.55,0-5.07,0-7.57,0H128l-2.54.21c-6.54.53-13,.89-19.35,1.2-5.77.71-11.47,1.29-17.16,1.84l-5.42.74Z" fill="#c2e6b1"/><path d="M109.86,153.22c4.38.31,8.6.76,12.94,1.11,5.12.42,10.51.79,15.25,1.58l2.39.23c2,.22,3.89.48,5.63.85,1.15.16,2.32.34,3.43.56s2.22.14,3.35.21c4.16.22,8.52.25,12.72.43l4.61.22,5.9.05c3.95-.14,7.83-.18,11.59-.11,1.42-.09,2.84-.16,4.23-.21a3.78,3.78,0,0,0,.34-.25c-1.08-.24-2.14-.5-3.26-.72-2.83-.53-5.8-1-8.83-1.37s-6.3-.75-9.38-1.18-5.93-.93-9-1.36c-6.07-.88-12.37-1.57-18.79-2.17q-4.2,0-8.33-.05c-2.23,0-4.45-.07-6.63-.14-8.9.34-18,1-27.16,1.7C103.89,152.82,106.89,153,109.86,153.22ZM181,157.05h-.62l-.17-.07Z" fill="#4a792c"/><path d="M126.48,152.05c2.56.17,5.46,0,7.89.31a.43.43,0,0,0,.31-.1c4.54.25,8.91.61,13.14,1.13,4.39.53,8.65,1.16,12.93,1.78,3.45.5,6.73,1.12,10.24,1.57q1,.13,2,.24c-1.76-.07-3.56-.11-5.3-.2-2.24-.1-4.41-.27-6.47-.52-.19,0-.43.15-.23.17,2.05.26,4.22.43,6.43.56s4.64.17,6.91.3c4,.24,7.55,1.06,12.14.7.26,0,.43-.22.17-.21a53.5,53.5,0,0,1-9.17-.47,41.11,41.11,0,0,0,4.67-.1l1.36-.15c.36,0,.44-.29.08-.25a46.23,46.23,0,0,1-11.53-.26c-3.53-.42-6.76-1.05-10.19-1.54-8.42-1.21-16.77-2.56-26.18-3l-1.1,0a.44.44,0,0,0-.34.13c-2.35-.23-5.07-.1-7.51-.25C126.51,151.86,126.27,152,126.48,152.05Z" fill="#c2e6b1"/><path d="M115.11,152.37c-3.4.1-6.57,0-9.8-.12-.22,0-.43.19-.22.2,2.93.16,5.93.23,9.09.14-.16.08-.15.2.08.18a55.28,55.28,0,0,1,8.7-.29c12.73,1,24.79,2.43,36.83,3.94.19,0,.41-.15.23-.17-9-1.16-18-2.35-27.43-3.24,6.55.26,12.55,1,18.77,1.55.3,0,.64-.24.35-.26-6.31-.55-12.38-1.29-19-1.56-3-.12-6-.36-9-.49l-.7,0c-2.12-.14-4.26-.27-6.44-.37-.21,0-.46.17-.24.19.83,0,1.66.1,2.48.15-1.15,0-2.34.11-3.56.25C115.25,152.4,115.22,152.36,115.11,152.37Z" fill="#c2e6b1"/><path d="M157.56,154.17c4.51.88,9.86,1.15,14.6,1.86.21,0,.46-.16.26-.19-4.71-.75-10-1-14.61-1.86C157.61,154,157.37,154.14,157.56,154.17Z" fill="#c2e6b1"/><path d="M154.26,154.73a10.54,10.54,0,0,1,2.75.36c.17,0,.5-.13.33-.18a11,11,0,0,0-2.93-.36C154.19,154.55,154,154.73,154.26,154.73Z" fill="#c2e6b1"/><path d="M119.23,152.7q19.85,2.48,40.65,4.19c.27,0,.58-.21.31-.23-14.05-1-27.23-2.7-40.7-4.16C119.27,152.47,119,152.67,119.23,152.7Z" fill="#c2e6b1"/><path d="M169.29,49.34q2.4,6.61,4.73,13.2c1.09,3.08,2.27,6.2,3.4,9.3a96.33,96.33,0,0,1,3,9.27c.25,1,.49,2,.65,3,2.46,7.28,4.71,14.46,7.43,21.85q1.68,4.56,3.5,9.18c1.18,2.54,2.36,5.09,3.48,7.61,1.89,4.25,3.71,8.47,5.51,12.69,3.89,7.16,7.77,14.32,11.49,21.45-1.1-5.29-1.07-9.86-1.75-14.88q-.57-2.81-1.24-5.67t-1.3-5.87c-.22-.53-.41-1-.6-1.55a89.61,89.61,0,0,1-2.65-8.76c-.44-1.69-.88-3.37-1.37-5.07-.38-1.18-.72-2.32-1-3.46-1.1-3.42-2.32-6.88-3.61-10.38L197.39,98c-.87-1.64-1.78-3.3-2.59-4.92-1.09-2.19-2.13-4.37-3.14-6.53l-.32-.68c-.41-.71-.83-1.41-1.25-2.12-3.2-5.42-6.19-10.82-9.12-16.2-3.06-4.69-6-9.37-8.83-14.06l-2.95-4.38A2,2,0,0,0,169.29,49.34Z" fill="#c2e6b1"/><path d="M179.56,72.05c1.5,3.92,2.81,7.74,4.26,11.63,1.7,4.59,3.57,9.4,4.76,13.82.27.72.52,1.45.76,2.16a52.79,52.79,0,0,1,1.5,5.2c.32,1.06.63,2.15.87,3.2s.78,2,1.19,3c1.49,3.69,3.26,7.46,4.82,11.17.57,1.35,1.12,2.71,1.68,4.07q1.2,2.55,2.38,5.11c1.77,3.35,3.4,6.68,4.89,10,.67,1.2,1.32,2.39,1.94,3.57a3.56,3.56,0,0,0,.38.2c-.22-1-.4-2.06-.66-3.12-.65-2.66-1.44-5.4-2.31-8.18s-1.87-5.75-2.73-8.59-1.55-5.5-2.37-8.28c-1.66-5.61-3.58-11.33-5.65-17.12q-1.76-3.63-3.39-7.21c-.88-1.94-1.76-3.87-2.6-5.79-4-7.53-8.37-15.13-12.82-22.74C177.49,66.73,178.54,69.4,179.56,72.05Zm25.58,63-.25-.54v-.17C205,134.53,205.06,134.76,205.14,135Z" fill="#4a792c"/><path d="M187.52,85.92c.89,2.28,2.24,4.72,3,6.93a.36.36,0,0,0,.22.23c1.63,4,3.08,8,4.33,11.81,1.3,4,2.44,8,3.61,11.89.94,3.19,1.69,6.28,2.7,9.5.19.59.38,1.19.59,1.8-.65-1.54-1.36-3.11-2-4.66-.82-2-1.55-3.91-2.15-5.8-.06-.17-.32-.3-.27-.13.6,1.88,1.33,3.82,2.11,5.78s1.76,4.09,2.56,6.1c1.41,3.53,2.09,6.95,4.33,10.76.13.22.39.29.27.07a46.85,46.85,0,0,1-3.33-8.11,36.54,36.54,0,0,0,2,4c.21.38.45.75.7,1.12s.46.25.28,0A40.85,40.85,0,0,1,202,127.09c-1-3.21-1.77-6.26-2.71-9.43-2.3-7.77-4.45-15.53-7.91-23.83q-.2-.48-.42-1a.4.4,0,0,0-.26-.24c-.75-2.12-2-4.42-2.86-6.58C187.72,85.86,187.45,85.73,187.52,85.92Z" fill="#c2e6b1"/><path d="M182.54,76.23c-1.5-2.89-2.67-5.69-3.92-8.51-.09-.18-.37-.29-.29-.1,1.06,2.59,2.22,5.21,3.61,7.91-.13-.11-.26,0-.13.14a49.06,49.06,0,0,1,3.85,7.39c4.32,11.38,7.87,22.4,11.38,33.42.05.17.31.29.26.12-2.6-8.25-5.17-16.54-8.18-25,2.45,5.76,4.2,11.25,6.24,16.84.1.26.49.46.4.19-2.08-5.67-3.86-11.21-6.34-17.05-1.13-2.68-2.11-5.3-3.23-8-.09-.2-.18-.41-.26-.61-.74-1.89-1.5-3.8-2.3-5.71-.08-.19-.36-.33-.28-.14.3.74.59,1.48.88,2.21-.51-1-1.07-2-1.71-3C182.56,76.36,182.59,76.32,182.54,76.23Z" fill="#c2e6b1"/><path d="M198.28,113.62c1,4.26,3,9,4.23,13.37.06.19.35.33.29.15-1.22-4.37-3.12-9.07-4.23-13.38C198.52,113.58,198.24,113.44,198.28,113.62Z" fill="#c2e6b1"/><path d="M196.39,111a9,9,0,0,1,.78,2.52c0,.17.34.39.31.22a9.25,9.25,0,0,0-.85-2.68C196.54,110.86,196.3,110.81,196.39,111Z" fill="#c2e6b1"/><path d="M183.92,79.92q5.79,18.15,12.7,36.83c.09.23.45.41.35.17-4.83-12.54-8.61-24.62-12.75-36.85C184.15,79.87,183.86,79.72,183.92,79.92Z" fill="#c2e6b1"/><path d="M87.55,125.59q7,2.31,13.85,4.68c3.23,1.11,6.54,2.17,9.81,3.25s6.62,2.25,9.53,3.54c1,.44,2,.9,2.89,1.39,7.55,2.69,14.89,5.48,22.69,8.05q4.83,1.59,9.77,3.11c2.84.7,5.67,1.41,8.46,2.14,4.69,1.23,9.31,2.51,13.92,3.79,8.34,1.56,16.67,3.13,24.88,4.79-5.06-2.46-8.82-5.32-13.39-7.94-1.79-.87-3.6-1.75-5.46-2.6s-3.81-1.78-5.67-2.68c-.57-.17-1.12-.34-1.65-.52-3.2-1.05-6.08-2.25-8.89-3.47-1.67-.72-3.34-1.44-5-2.14-1.21-.44-2.37-.91-3.52-1.37-3.5-1.31-7.12-2.56-10.82-3.78l-3.67-.9c-1.9-.37-3.84-.73-5.69-1.13q-3.72-.83-7.34-1.73l-.76-.19-2.53-.38c-6.48-1-12.8-2.13-19.07-3.3-5.78-.64-11.46-1.39-17.12-2.17l-5.45-.54Z" fill="#c2e6b1"/><path d="M112.71,132.07c4.17,1.31,8.15,2.72,12.27,4.06,4.85,1.59,10,3.19,14.39,5.05.76.25,1.52.51,2.25.78a54.42,54.42,0,0,1,5.24,2.12c1.07.42,2.17.86,3.19,1.33s2.12.65,3.19,1c4,1.18,8.2,2.21,12.23,3.36l4.42,1.28,5.7,1.4c3.88.77,7.64,1.64,11.27,2.56,1.4.25,2.79.5,4.16.78.15,0,.28-.11.4-.16-1-.48-1.95-1-3-1.45-2.61-1.17-5.37-2.29-8.21-3.37s-5.92-2.18-8.81-3.3-5.51-2.28-8.32-3.39c-5.66-2.25-11.59-4.38-17.67-6.44q-4.08-.94-8.07-2c-2.14-.54-4.29-1.09-6.39-1.66-8.71-1.72-17.73-3.19-26.78-4.61C107,130.3,109.89,131.17,112.71,132.07Zm68,20.11-.6-.14-.14-.11Z" fill="#4a792c"/><path d="M129.13,134.77c2.44.75,5.29,1.27,7.57,2.11a.41.41,0,0,0,.33,0c4.34,1.29,8.48,2.65,12.46,4.12s8.09,3.13,12.08,4.71c3.22,1.28,6.24,2.64,9.53,3.89l1.85.69c-1.68-.48-3.41-.93-5.09-1.41-2.14-.62-4.2-1.29-6.13-2-.18-.06-.45.05-.28.12,1.93.73,4,1.39,6.1,2s4.46,1.24,6.63,1.89c3.8,1.15,7,2.77,11.59,3.47.26,0,.48-.11.22-.16a52.62,52.62,0,0,1-8.77-2.56,41.36,41.36,0,0,0,4.55,1c.45.07.9.13,1.36.17s.5-.18.15-.22a46.2,46.2,0,0,1-11.13-2.91c-3.31-1.23-6.28-2.58-9.48-3.85-7.86-3.11-15.61-6.34-24.63-8.93l-1.06-.29a.47.47,0,0,0-.36.05c-2.22-.77-4.88-1.27-7.22-2C129.21,134.59,128.93,134.71,129.13,134.77Z" fill="#c2e6b1"/><path d="M118,132.45c-3.32-.68-6.36-1.55-9.47-2.37-.21-.05-.47.09-.27.15,2.81.82,5.69,1.59,8.79,2.23-.18,0-.21.16,0,.18a54.85,54.85,0,0,1,8.51,1.74c12.09,3.85,23.42,8.07,34.71,12.31.18.06.44-.05.26-.11-8.44-3.21-16.89-6.45-25.77-9.48,6.29,1.77,11.91,3.88,17.81,5.83.28.1.68-.08.4-.17-6-2-11.67-4.1-18-5.89-2.93-.82-5.7-1.72-8.62-2.56l-.66-.18q-3-.94-6.15-1.85c-.21-.06-.5.06-.29.13l2.37.72c-1.13-.23-2.3-.43-3.52-.58C118.15,132.51,118.13,132.47,118,132.45Z" fill="#c2e6b1"/><path d="M158.73,144c4.15,1.89,9.27,3.39,13.69,5.17.19.08.49,0,.3-.13-4.38-1.8-9.44-3.31-13.69-5.17C158.84,143.79,158.55,143.91,158.73,144Z" fill="#c2e6b1"/><path d="M155.38,143.77a10.23,10.23,0,0,1,2.58,1c.16.09.53,0,.37-.09a10.92,10.92,0,0,0-2.75-1C155.36,143.58,155.17,143.72,155.38,143.77Z" fill="#c2e6b1"/><path d="M121.93,133.72q18.62,7,38.35,13.45c.26.08.62-.08.36-.16-13.37-4.2-25.71-8.9-38.4-13.42C122,133.51,121.73,133.64,121.93,133.72Z" fill="#c2e6b1"/><path d="M132.66,70.22q4.5,5.55,8.92,11.09c2.06,2.59,4.23,5.19,6.34,7.79s4.26,5.31,6,7.89c.57.88,1.14,1.78,1.62,2.66,4.77,6.15,9.32,12.28,14.38,18.47q3.13,3.82,6.4,7.66c2,2,3.95,4.1,5.86,6.16,3.22,3.46,6.36,6.91,9.48,10.37,6.09,5.62,12.17,11.24,18.1,16.87-2.83-4.68-4.33-9-6.65-13.57-1-1.66-2-3.33-3.08-5s-2.17-3.45-3.22-5.17q-.56-.65-1.08-1.29c-2.07-2.54-3.8-5-5.45-7.51-1-1.46-2-2.93-3-4.4-.76-1-1.46-2-2.16-3-2.18-2.91-4.5-5.83-6.9-8.76l-2.55-2.65c-1.37-1.29-2.8-2.59-4.11-3.89q-2.66-2.61-5.17-5.24l-.53-.55-1.89-1.63c-4.86-4.18-9.51-8.39-14.09-12.62-4.47-3.52-8.8-7.09-13.1-10.66L132.48,70Z" fill="#c2e6b1"/><path d="M150,88.66c2.74,3.26,5.27,6.49,7.94,9.74,3.16,3.84,6.54,7.84,9.16,11.67.49.61,1,1.21,1.44,1.82a50.89,50.89,0,0,1,3.17,4.48c.66.91,1.32,1.84,1.9,2.76l2.12,2.47c2.66,3,5.6,6.09,8.32,9.13,1,1.12,2,2.23,3,3.35,1.33,1.38,2.66,2.75,4,4.13q4.22,4,8,8c1,.93,2.05,1.86,3,2.8l.42.07c-.55-.92-1.06-1.83-1.66-2.76-1.52-2.33-3.19-4.69-4.94-7.06s-3.71-4.89-5.48-7.32-3.31-4.75-5-7.14c-3.46-4.81-7.2-9.66-11.11-14.53q-2.86-2.91-5.63-5.81c-1.48-1.57-3-3.14-4.4-4.7-6.31-6-13-11.83-19.79-17.7C146.27,84.24,148.17,86.45,150,88.66Zm45.39,52-.43-.43a1,1,0,0,0,0-.16Z" fill="#4a792c"/><path d="M162.23,99.4c1.6,1.9,3.7,3.81,5.13,5.69a.41.41,0,0,0,.29.15q4.33,5,8.06,9.89c2.58,3.41,5,6.8,7.41,10.19,2,2.74,3.72,5.44,5.76,8.19L190,135c-1.13-1.27-2.32-2.54-3.45-3.81-1.44-1.63-2.78-3.25-4-4.86-.11-.14-.41-.19-.29,0,1.19,1.61,2.54,3.22,3.94,4.85s3,3.34,4.47,5c2.52,2.93,4.31,6,7.72,8.91.19.16.46.15.27,0a48.67,48.67,0,0,1-5.87-6.68,36.35,36.35,0,0,0,3.25,3.17c.34.29.68.57,1,.85s.53.1.26-.12a42.77,42.77,0,0,1-7.65-8.18c-2.07-2.74-3.79-5.41-5.74-8.13-4.79-6.67-9.43-13.38-15.5-20.21l-.72-.79a.49.49,0,0,0-.33-.15c-1.42-1.78-3.36-3.58-4.91-5.37C162.4,99.29,162.09,99.25,162.23,99.4Z" fill="#c2e6b1"/><path d="M154.25,91.72c-2.39-2.29-4.44-4.59-6.58-6.88-.14-.15-.44-.17-.3,0,1.87,2.14,3.85,4.27,6.08,6.41-.17-.07-.26,0-.08.17a50.79,50.79,0,0,1,6.13,5.85c7.92,9.48,15,18.87,22,28.25.11.15.39.19.28,0-5.23-7-10.45-14.13-16.14-21.25,4.25,4.73,7.75,9.4,11.57,14.09.18.22.61.28.43.06-3.87-4.75-7.42-9.47-11.72-14.25-2-2.21-3.79-4.4-5.75-6.6l-.45-.5c-1.34-1.57-2.7-3.15-4.1-4.72-.13-.16-.45-.21-.31,0l1.57,1.83c-.81-.78-1.68-1.55-2.62-2.3C154.32,91.84,154.33,91.8,154.25,91.72Z" fill="#c2e6b1"/><path d="M181.73,122.43c2.38,3.73,5.82,7.63,8.49,11.4.12.17.44.21.33,0-2.63-3.77-6-7.65-8.5-11.4C181.94,122.31,181.63,122.27,181.73,122.43Z" fill="#c2e6b1"/><path d="M179.05,120.52a9.47,9.47,0,0,1,1.59,2.15c.08.16.45.27.37.11a10.18,10.18,0,0,0-1.71-2.28C179.15,120.34,178.9,120.36,179.05,120.52Z" fill="#c2e6b1"/><path d="M156.8,94.81q11.58,15.47,24.4,31.08c.17.2.56.26.39.06-8.78-10.44-16.43-20.75-24.46-31.1C157,94.69,156.67,94.64,156.8,94.81Z" fill="#c2e6b1"/><path d="M318.63,110q-6.79,2.76-13.55,5.43c-3.17,1.26-6.36,2.6-9.55,3.89s-6.48,2.59-9.54,3.51c-1,.31-2.1.61-3.12.83-7.48,2.85-14.87,5.5-22.46,8.61q-4.68,1.92-9.41,4c-2.59,1.3-5.18,2.6-7.76,3.85-4.34,2.1-8.65,4.12-13,6.13-7.25,4.19-14.51,8.38-21.75,12.42,5.5-1.43,10.3-1.74,15.54-2.74,2-.5,3.9-1,5.88-1.58s4.07-1.13,6.09-1.67c.54-.23,1.06-.46,1.58-.67,3.11-1.28,6.09-2.24,9-3.14,1.75-.54,3.49-1.08,5.25-1.66,1.2-.45,2.39-.85,3.57-1.24,3.51-1.29,7.07-2.69,10.66-4.16l3.34-1.69c1.67-.94,3.35-1.92,5-2.81,2.23-1.18,4.44-2.33,6.65-3.44l.69-.34c.71-.45,1.42-.9,2.14-1.34,5.47-3.42,10.94-6.64,16.4-9.79,4.7-3.24,9.43-6.32,14.15-9.38l4.39-3.1Z" fill="#c2e6b1"/><path d="M295.47,121.37c-4,1.7-8,3.22-11.93,4.87-4.71,1.94-9.64,4-14.21,5.51q-1.11.45-2.22.87c-1.82.68-3.65,1.34-5.37,1.79-1.09.38-2.21.75-3.29,1.06s-2,.88-3,1.34c-3.77,1.68-7.62,3.62-11.41,5.36-1.38.64-2.77,1.26-4.16,1.89l-5.2,2.62q-5.12,2.88-10.13,5.34c-1.21.72-2.42,1.42-3.62,2.1a2.39,2.39,0,0,0-.17.37c1.07-.29,2.13-.53,3.23-.85,2.75-.81,5.58-1.75,8.44-2.78s5.92-2.18,8.85-3.21,5.68-1.86,8.55-2.84c5.78-2,11.66-4.21,17.61-6.58q3.67-1.92,7.34-3.72c2-1,3.95-1.95,5.9-2.88,7.65-4.31,15.33-9,23-13.77Zm-64.41,28.75.54-.28h.18Z" fill="#4a792c"/><path d="M281.45,129.9c-2.34,1-4.81,2.46-7.09,3.3a.38.38,0,0,0-.22.23c-4.12,1.83-8.14,3.48-12.12,4.94s-8.19,2.89-12.26,4.28c-3.28,1.12-6.48,2.06-9.8,3.24l-1.85.69c1.58-.73,3.18-1.51,4.75-2.23q3-1.38,6-2.45c.18-.07.29-.33.11-.26-1.93.69-3.92,1.53-5.93,2.41s-4.17,2-6.23,2.86c-3.62,1.59-7.17,2.48-11,4.88-.21.13-.27.39,0,.25a52.6,52.6,0,0,1,8.29-3.73,38.55,38.55,0,0,0-4.05,2.2c-.38.23-.75.48-1.12.74s-.24.46,0,.27a44.82,44.82,0,0,1,10.27-5c3.31-1.22,6.47-2.13,9.73-3.25,8-2.74,16-5.33,24.51-9.21l1-.46a.47.47,0,0,0,.24-.27c2.17-.86,4.49-2.2,6.71-3.17C281.52,130.08,281.64,129.82,281.45,129.9Z" fill="#c2e6b1"/><path d="M291.28,124.49c2.94-1.62,5.8-2.93,8.68-4.33.19-.09.27-.36.09-.28-2.66,1.19-5.33,2.48-8.07,4,.11-.13,0-.24-.15-.11a54.82,54.82,0,0,1-7.51,4.18c-11.66,4.91-23,9.06-34.35,13.18-.18.06-.29.31-.12.25,8.51-3.05,17-6.09,25.74-9.54-5.88,2.73-11.53,4.77-17.27,7.12-.27.11-.45.49-.18.38,5.82-2.37,11.53-4.46,17.49-7.22,2.75-1.27,5.44-2.38,8.17-3.64l.63-.29c1.94-.83,3.88-1.69,5.84-2.58.2-.09.33-.37.13-.28l-2.27,1c1-.55,2-1.16,3-1.83C291.15,124.52,291.19,124.54,291.28,124.49Z" fill="#c2e6b1"/><path d="M253.07,142.08c-4.41,1.27-9.25,3.45-13.78,5-.19.07-.32.35-.12.29,4.51-1.48,9.31-3.61,13.77-5C253.13,142.31,253.25,142,253.07,142.08Z" fill="#c2e6b1"/><path d="M255.68,140.1a10.33,10.33,0,0,1-2.59.93c-.18,0-.38.34-.2.3a10.64,10.64,0,0,0,2.75-1C255.84,140.23,255.88,140,255.68,140.1Z" fill="#c2e6b1"/><path d="M287.5,126.06q-18.69,6.8-37.85,14.68c-.24.1-.4.45-.15.35,12.85-5.48,25.29-9.93,37.87-14.74C287.57,126.28,287.7,126,287.5,126.06Z" fill="#c2e6b1"/><path d="M287.26,70.15q-4.93,5.2-9.86,10.33c-2.32,2.41-4.62,4.9-6.93,7.35s-4.72,4.94-7.09,7c-.8.7-1.63,1.4-2.46,2-5.51,5.58-11,10.94-16.52,16.79q-3.39,3.61-6.77,7.36c-1.77,2.22-3.53,4.43-5.32,6.59-3,3.63-6,7.19-9,10.74-4.71,6.7-9.43,13.4-14.19,19.95,4.35-3.49,8.57-5.69,12.87-8.69,1.54-1.23,3.08-2.48,4.62-3.79s3.19-2.65,4.78-3.94c.38-.43.76-.84,1.14-1.24,2.25-2.4,4.52-4.47,6.79-6.46,1.34-1.18,2.67-2.37,4-3.6.9-.89,1.79-1.73,2.68-2.55,2.61-2.57,5.22-5.27,7.82-8l2.28-2.86c1.09-1.52,2.18-3.09,3.28-4.55,1.49-2,3-3.89,4.49-5.77l.47-.6c.45-.69.9-1.37,1.34-2.06,3.45-5.29,7-10.4,10.51-15.44,2.83-4.81,5.74-9.49,8.66-14.15l2.6-4.57Z" fill="#c2e6b1"/><path d="M271.32,89.7c-2.88,3.15-5.77,6.1-8.65,9.18-3.4,3.65-6.93,7.53-10.42,10.68-.54.57-1.08,1.13-1.63,1.67a52.13,52.13,0,0,1-4.07,3.78c-.82.77-1.67,1.56-2.51,2.28s-1.45,1.6-2.17,2.42c-2.67,3-5.29,6.33-8,9.43q-1.46,1.7-2.93,3.37c-1.18,1.5-2.37,3-3.55,4.46-2.23,3.1-4.51,6.07-6.81,8.89-.77,1.13-1.55,2.25-2.34,3.35a2.66,2.66,0,0,0,0,.4c.85-.68,1.71-1.33,2.56-2.06,2.13-1.83,4.28-3.82,6.42-5.89s4.39-4.35,6.59-6.45,4.32-4,6.48-6c4.36-4.1,8.7-8.48,13-13q2.49-3.21,5-6.31c1.36-1.67,2.71-3.34,4.07-5,5-7,9.88-14.29,14.73-21.67C275.22,85.39,273.27,87.57,271.32,89.7Zm-45.59,51.81c.13-.15.25-.31.37-.47a.8.8,0,0,0,.16-.08Z" fill="#4a792c"/><path d="M262.41,103c-1.67,1.85-3.26,4.15-5,5.82a.4.4,0,0,0-.1.3q-4.37,4.95-8.78,9.33c-3.07,3-6.14,5.89-9.21,8.77-2.48,2.33-5,4.46-7.43,6.86-.46.45-.92.9-1.38,1.37,1.1-1.29,2.21-2.64,3.32-3.92,1.42-1.64,2.86-3.19,4.3-4.61.13-.13.12-.41,0-.28-1.45,1.4-2.88,3-4.3,4.56s-2.91,3.44-4.38,5.08c-2.57,2.89-5.39,5.11-7.81,8.83-.14.21-.08.46.07.25a48.49,48.49,0,0,1,5.85-6.7,38.93,38.93,0,0,0-2.69,3.61c-.23.37-.46.74-.68,1.13s0,.5.16.21a42.42,42.42,0,0,1,7.09-8.63c2.46-2.42,4.91-4.51,7.37-6.83C244.89,122.5,251,117,257,110c.23-.26.46-.53.68-.81a.43.43,0,0,0,.1-.34c1.59-1.65,3.1-3.79,4.67-5.56C262.56,103.18,262.55,102.89,262.41,103Z" fill="#c2e6b1"/><path d="M268.92,94.2c1.93-2.64,3.94-5,5.93-7.39.13-.16.09-.44,0-.29-1.88,2.14-3.73,4.38-5.54,6.84,0-.16-.07-.23-.19,0a48.91,48.91,0,0,1-4.94,6.79c-8.39,9.11-16.83,17.42-25.27,25.68-.13.13-.12.4,0,.28,6.35-6.17,12.74-12.34,19.08-18.94-4.12,4.83-8.33,8.94-12.49,13.36-.2.21-.18.62,0,.42,4.22-4.48,8.47-8.66,12.64-13.54,1.92-2.25,3.86-4.34,5.79-6.57l.43-.51c1.39-1.53,2.78-3.09,4.15-4.68.14-.16.13-.46,0-.3l-1.61,1.8c.66-.9,1.3-1.85,1.91-2.86C268.81,94.29,268.85,94.28,268.92,94.2Z" fill="#c2e6b1"/><path d="M242.1,125.43c-3.43,2.91-6.84,6.82-10.27,10-.15.14-.13.45,0,.31,3.44-3.14,6.84-7,10.28-10C242.26,125.61,242.25,125.31,242.1,125.43Z" fill="#c2e6b1"/><path d="M243.6,122.58a10,10,0,0,1-1.94,1.89c-.15.1-.2.46,0,.35a9.89,9.89,0,0,0,2-2C243.8,122.64,243.73,122.42,243.6,122.58Z" fill="#c2e6b1"/><path d="M266.19,97.14q-13.92,13.62-27.78,28.44c-.17.19-.16.57,0,.37,9.21-10.1,18.5-19.11,27.77-28.49C266.35,97.3,266.34,97,266.19,97.14Z" fill="#c2e6b1"/><path d="M272.77,57.7q-4.2,5.76-8.41,11.44c-2,2.66-3.92,5.41-5.89,8.11a97.15,97.15,0,0,1-6.1,7.79c-.7.79-1.43,1.58-2.17,2.28-4.72,6.19-9.49,12.16-14.15,18.62q-2.9,4-5.73,8.12c-1.46,2.41-2.92,4.82-4.4,7.17-2.49,4-5,7.86-7.52,11.73-3.77,7.22-7.56,14.42-11.4,21.49,3.84-4,7.73-6.67,11.6-10.16,1.36-1.41,2.72-2.83,4.08-4.31s2.81-3,4.22-4.48c.32-.47.64-.93,1-1.37,1.91-2.65,3.89-5,5.87-7.22,1.17-1.33,2.34-2.67,3.5-4,.77-1,1.55-1.93,2.32-2.85,2.25-2.86,4.48-5.85,6.68-8.91l1.89-3.11c.88-1.64,1.74-3.32,2.65-4.91q1.81-3.18,3.68-6.26l.39-.65,1-2.2c2.72-5.66,5.52-11.15,8.37-16.57,2.16-5.12,4.42-10.11,6.7-15.08.66-1.62,1.31-3.23,2-4.84Z" fill="#c2e6b1"/><path d="M259.56,79c-2.43,3.46-4.91,6.73-7.35,10.14-2.89,4-5.88,8.3-8.92,11.84-.46.63-.92,1.25-1.39,1.85a51.16,51.16,0,0,1-3.53,4.24c-.71.86-1.45,1.75-2.19,2.56s-1.22,1.76-1.83,2.66c-2.24,3.33-4.4,6.92-6.63,10.3q-1.22,1.86-2.46,3.7c-1,1.63-1.95,3.24-2.93,4.85-1.8,3.34-3.66,6.56-5.56,9.63-.62,1.22-1.24,2.42-1.88,3.6a2.12,2.12,0,0,0,.06.4c.75-.78,1.51-1.52,2.26-2.34,1.87-2.08,3.74-4.31,5.58-6.62s3.78-4.84,5.68-7.18,3.76-4.45,5.63-6.72c3.78-4.59,7.5-9.45,11.2-14.46,1.35-2.33,2.73-4.62,4.11-6.87,1.12-1.82,2.24-3.64,3.38-5.41,4-7.51,7.89-15.36,11.72-23.26C262.86,74.27,261.21,76.66,259.56,79Zm-38.31,56.85.3-.51.15-.1Z" fill="#4a792c"/><path d="M252.51,93.31c-1.41,2-2.69,4.5-4.15,6.36a.41.41,0,0,0-.06.31c-2.45,3.63-4.92,7.06-7.47,10.31s-5.3,6.57-8,9.8c-2.15,2.61-4.32,5-6.46,7.7-.4.49-.79,1-1.19,1.51.93-1.41,1.85-2.88,2.77-4.28,1.2-1.8,2.42-3.5,3.66-5.08.11-.15.06-.43-.05-.28-1.25,1.57-2.46,3.27-3.66,5s-2.43,3.77-3.66,5.57c-2.17,3.17-4.67,5.72-6.58,9.69-.11.22,0,.47.11.24a47.55,47.55,0,0,1,4.91-7.34,36.8,36.8,0,0,0-2.19,3.9c-.18.39-.36.79-.53,1.2s.06.5.19.19a41,41,0,0,1,5.89-9.4c2.11-2.71,4.27-5.07,6.4-7.66,5.24-6.37,10.56-12.61,15.56-20.18l.57-.88a.46.46,0,0,0,0-.35c1.36-1.82,2.57-4.13,3.9-6.08C252.67,93.43,252.62,93.14,252.51,93.31Z" fill="#c2e6b1"/><path d="M257.78,83.76c1.57-2.85,3.25-5.41,4.9-8,.11-.17,0-.45-.08-.28-1.58,2.35-3.11,4.79-4.58,7.45,0-.17-.1-.23-.19,0a49.43,49.43,0,0,1-4,7.32c-7.1,10-14.37,19.29-21.65,28.5-.11.15-.06.42,0,.27,5.48-6.87,11-13.75,16.41-21.07-3.45,5.29-7.07,9.87-10.62,14.75-.16.23-.09.65.08.41,3.58-4.94,7.24-9.59,10.73-14.94,1.6-2.46,3.25-4.76,4.86-7.2l.37-.56q1.75-2.53,3.49-5.14c.11-.17.07-.47-.05-.3-.45.67-.91,1.33-1.36,2,.53-1,1-2,1.51-3.07C257.68,83.86,257.73,83.85,257.78,83.76Z" fill="#c2e6b1"/><path d="M235.35,118c-3,3.29-5.88,7.58-8.86,11.15-.13.16-.08.46,0,.31,3-3.52,5.85-7.76,8.86-11.16C235.53,118.1,235.47,117.81,235.35,118Z" fill="#c2e6b1"/><path d="M236.45,115a9.52,9.52,0,0,1-1.68,2.09c-.13.12-.13.49,0,.36a9.57,9.57,0,0,0,1.77-2.24C236.65,115,236.56,114.77,236.45,115Z" fill="#c2e6b1"/><path d="M255.46,87q-12,15.18-23.75,31.54c-.15.2-.09.58.06.37,7.79-11.13,15.81-21.18,23.75-31.59C255.65,87.15,255.59,86.84,255.46,87Z" fill="#c2e6b1"/><path d="M223.79,39.82q-1.23,6.88-2.52,13.73c-.61,3.2-1.15,6.47-1.73,9.71a95.14,95.14,0,0,1-2.06,9.49c-.29,1-.6,2-1,2.94-1.52,7.5-3.17,14.82-4.53,22.54-.56,3.18-1.08,6.4-1.58,9.65-.25,2.77-.5,5.54-.79,8.26-.49,4.59-1,9.12-1.59,13.64-.21,8.05-.43,16.09-.77,24,1.71-5.14,4-9.13,6-13.84.61-1.83,1.21-3.67,1.79-5.55s1.2-3.85,1.82-5.75c.08-.55.17-1.09.26-1.62.56-3.17,1.32-6.06,2.11-8.89.47-1.68.93-3.36,1.37-5.08.26-1.2.54-2.36.83-3.51.77-3.49,1.46-7.09,2.09-10.74.11-1.2.21-2.39.32-3.58.07-1.84.11-3.71.22-5.51.15-2.41.34-4.79.55-7.15,0-.24,0-.49.07-.74l0-2.42c-.07-6.22,0-12.31.2-18.36-.32-5.51-.49-10.94-.64-16.36-.12-1.72-.25-3.45-.37-5.17C223.82,39.64,223.81,39.73,223.79,39.82Z" fill="#c2e6b1"/><path d="M221.31,64.41c-.66,4.12-1.45,8.07-2.15,12.14-.82,4.8-1.63,9.87-2.81,14.29-.13.76-.28,1.51-.43,2.24a49.68,49.68,0,0,1-1.32,5.25c-.26,1.07-.53,2.17-.84,3.2s-.32,2.09-.47,3.14c-.55,3.92-.92,8-1.43,12-.18,1.45-.38,2.9-.58,4.34q-.24,2.79-.49,5.56c-.15,3.75-.4,7.41-.76,11,0,1.35,0,2.69-.1,4a3.33,3.33,0,0,0,.24.34c.33-1,.69-2,1-3,.77-2.63,1.47-5.4,2.11-8.23s1.27-5.9,1.95-8.78,1.43-5.54,2.11-8.35c1.38-5.67,2.59-11.57,3.71-17.58.2-2.65.42-5.28.68-7.87.2-2.1.4-4.2.64-6.26.32-8.42.32-17.08.26-25.78C222.19,58.8,221.76,61.62,221.31,64.41Zm-9.41,66.86c0-.2,0-.39,0-.59l.09-.15C212,130.78,212,131,211.9,131.27Z" fill="#4a792c"/><path d="M221.28,80.19c-.37,2.41-.43,5.16-.92,7.43a.39.39,0,0,0,.09.31c-.61,4.27-1.33,8.37-2.18,12.33s-1.88,8.08-2.86,12.07c-.78,3.22-1.68,6.28-2.43,9.56-.14.6-.27,1.22-.4,1.85.21-1.65.39-3.35.61-5,.28-2.11.62-4.14,1-6.07.05-.18-.12-.42-.16-.24-.43,1.92-.77,4-1.08,6s-.52,4.38-.83,6.51c-.56,3.75-1.69,7-1.65,11.42,0,.24.19.42.2.17a46.24,46.24,0,0,1,1.18-8.62,34.72,34.72,0,0,0-.24,4.41c0,.43,0,.86,0,1.3s.28.44.26.1a40,40,0,0,1,1.14-10.88c.71-3.29,1.62-6.3,2.4-9.5,1.91-7.87,4-15.65,5.12-24.51l.12-1a.44.44,0,0,0-.11-.34c.42-2.19.49-4.77.82-7.07C221.48,80.24,221.31,80,221.28,80.19Z" fill="#c2e6b1"/><path d="M221.81,69.43c.15-3.21.54-6.2.86-9.25,0-.2-.17-.41-.19-.22-.39,2.76-.69,5.59-.84,8.58-.06-.16-.2-.16-.19.06a47.66,47.66,0,0,1-.35,8.24c-2,12-4.44,23.24-6.93,34.5,0,.17.12.4.16.22,1.9-8.42,3.84-16.86,5.49-25.66-.77,6.17-2,11.77-3,17.62-.05.27.2.62.25.34,1-5.92,2.28-11.6,3.07-17.84.36-2.87.83-5.61,1.2-8.47,0-.22.05-.44.08-.66.31-2,.61-4,.88-6,0-.2-.15-.45-.18-.25-.12.78-.23,1.56-.35,2.34.05-1.09.06-2.22,0-3.39C221.77,69.56,221.81,69.53,221.81,69.43Z" fill="#c2e6b1"/><path d="M216.7,109.39c-1.26,4.2-1.95,9.23-3.06,13.66,0,.19.14.45.19.26,1.14-4.39,1.85-9.37,3.06-13.66C216.94,109.47,216.76,109.22,216.7,109.39Z" fill="#c2e6b1"/><path d="M216.36,106.23a8.77,8.77,0,0,1-.58,2.58c-.07.16.1.48.16.32a9.65,9.65,0,0,0,.61-2.74C216.56,106.18,216.38,106,216.36,106.23Z" fill="#c2e6b1"/><path d="M221.15,73.3q-4.1,18.56-7.49,38.08c0,.25.19.57.23.31,2.11-13.2,4.9-25.51,7.45-38.13C221.39,73.35,221.2,73.09,221.15,73.3Z" fill="#c2e6b1"/><path d="M326.16,128.4q-7.14,1.77-14.25,3.47c-3.33.8-6.7,1.67-10.05,2.51s-6.81,1.65-10,2.13c-1.08.16-2.18.31-3.22.38-7.84,1.78-15.57,3.36-23.55,5.37q-4.94,1.25-9.94,2.61c-2.76.93-5.53,1.85-8.27,2.72-4.61,1.47-9.2,2.86-13.77,4.25-7.83,3.13-15.66,6.25-23.45,9.23,5.66-.64,10.46-.27,15.79-.53,2-.22,4-.46,6.07-.74s4.2-.55,6.28-.79l1.67-.45c3.27-.82,6.37-1.35,9.42-1.84,1.81-.28,3.61-.57,5.45-.91,1.26-.27,2.49-.5,3.72-.72,3.67-.78,7.42-1.67,11.2-2.62l3.57-1.2c1.79-.7,3.61-1.44,5.38-2.08,2.39-.86,4.75-1.68,7.11-2.47l.74-.25,2.32-1c6-2.61,11.86-5,17.75-7.39,5.16-2.54,10.31-4.92,15.46-7.28l4.83-2.45Z" fill="#c2e6b1"/><path d="M301.48,136.38c-4.23,1.13-8.36,2.08-12.56,3.15-5,1.26-10.17,2.66-14.91,3.45-.78.2-1.56.38-2.33.55a56.39,56.39,0,0,1-5.59,1c-1.14.22-2.31.43-3.43.58l-3.22.9c-4,1.13-8.1,2.51-12.12,3.7-1.46.44-2.94.87-4.41,1.29q-2.78.94-5.55,1.86c-3.67,1.42-7.3,2.71-10.85,3.86-1.31.54-2.61,1.07-3.91,1.57a4.1,4.1,0,0,0-.23.34c1.11-.13,2.19-.22,3.33-.38,2.85-.42,5.8-.95,8.78-1.57s6.2-1.33,9.25-1.93,5.92-1,8.9-1.61c6-1.15,12.2-2.53,18.45-4,2.63-.93,5.24-1.81,7.84-2.66,2.1-.69,4.21-1.37,6.29-2,8.23-3.19,16.56-6.76,24.9-10.39C307.24,134.83,304.35,135.62,301.48,136.38Zm-68.19,19.41.58-.2h.18Z" fill="#4a792c"/><path d="M286.28,142.86c-2.46.67-5.13,1.75-7.52,2.26a.43.43,0,0,0-.26.2c-4.36,1.23-8.59,2.3-12.76,3.19S257.2,150.22,253,151c-3.42.65-6.73,1.13-10.19,1.84l-1.95.42c1.68-.5,3.39-1.05,5.06-1.54,2.14-.62,4.24-1.16,6.27-1.59.19,0,.34-.28.15-.24-2,.42-4.12,1-6.24,1.55s-4.43,1.35-6.61,2c-3.83,1.07-7.47,1.44-11.66,3.28-.23.1-.33.35-.08.25a52.42,52.42,0,0,1,8.78-2.54,40.74,40.74,0,0,0-4.35,1.61c-.41.18-.82.38-1.23.58s-.3.42,0,.27a46.15,46.15,0,0,1,10.93-3.5c3.47-.74,6.73-1.2,10.13-1.84,8.36-1.59,16.68-3,25.68-5.67l1-.32a.53.53,0,0,0,.28-.24c2.28-.54,4.79-1.54,7.14-2.2C286.33,143.05,286.49,142.8,286.28,142.86Z" fill="#c2e6b1"/><path d="M296.86,138.88c3.15-1.19,6.18-2.09,9.25-3.06.2-.07.33-.32.13-.26-2.81.8-5.66,1.7-8.6,2.81.13-.12.08-.24-.13-.14a54.83,54.83,0,0,1-8.08,3.09c-12.3,3.22-24.17,5.74-36,8.22-.19,0-.34.27-.15.23,8.88-1.82,17.8-3.63,26.94-5.83-6.25,1.88-12.15,3.11-18.2,4.62-.28.07-.51.43-.23.36,6.13-1.53,12.1-2.8,18.43-4.69,2.91-.88,5.74-1.6,8.65-2.46l.66-.2q3.06-.82,6.18-1.73c.21-.06.38-.32.17-.26l-2.4.66c1.08-.4,2.16-.86,3.27-1.39C296.71,138.9,296.75,138.92,296.86,138.88Z" fill="#c2e6b1"/><path d="M256.31,150.93c-4.56.63-9.68,2.11-14.39,3-.21,0-.38.3-.18.27,4.69-.83,9.78-2.27,14.4-3C256.34,151.16,256.5,150.9,256.31,150.93Z" fill="#c2e6b1"/><path d="M259.21,149.33a10.32,10.32,0,0,1-2.71.56c-.19,0-.43.28-.25.27a11,11,0,0,0,2.88-.6C259.34,149.49,259.42,149.27,259.21,149.33Z" fill="#c2e6b1"/><path d="M292.87,139.91q-19.55,4.09-39.72,9.21c-.26.07-.47.39-.21.32,13.56-3.61,26.56-6.27,39.75-9.26C292.91,140.13,293.08,139.86,292.87,139.91Z" fill="#c2e6b1"/><path d="M252.08,45.42q-3,6.4-6,12.73c-1.41,3-2.78,6-4.17,9a97.36,97.36,0,0,1-4.44,8.73c-.54.9-1.1,1.81-1.68,2.63-3.41,6.92-6.89,13.64-10.19,20.82q-2,4.44-4,9c-1,2.63-1.91,5.26-2.9,7.83-1.65,4.34-3.34,8.61-5,12.86-2.27,7.76-4.55,15.51-6.92,23.15,3-4.6,6.27-7.93,9.37-12.05,1.05-1.63,2.11-3.27,3.15-5s2.16-3.46,3.25-5.15c.22-.52.44-1,.67-1.52,1.35-2.94,2.83-5.57,4.33-8.14.88-1.52,1.76-3,2.63-4.6.56-1.11,1.13-2.17,1.71-3.22,1.64-3.21,3.23-6.54,4.79-9.94l1.23-3.39c.53-1.77,1.05-3.58,1.62-5.29.77-2.31,1.56-4.57,2.37-6.81.09-.24.17-.47.26-.7.2-.79.39-1.58.59-2.36,1.54-6,3.21-11.93,4.92-17.77,1.1-5.41,2.33-10.71,3.58-16,.32-1.71.65-3.41,1-5.11Z" fill="#c2e6b1"/><path d="M243.36,68.71c-1.7,3.83-3.48,7.49-5.2,11.27-2,4.47-4.12,9.2-6.4,13.22-.33.7-.66,1.39-1,2.07a53.39,53.39,0,0,1-2.62,4.78c-.53,1-1.08,2-1.65,2.91s-.84,2-1.26,3c-1.54,3.67-2.95,7.57-4.46,11.3-.55,1.36-1.12,2.71-1.68,4.07q-.94,2.66-1.91,5.28c-1.1,3.6-2.29,7.1-3.55,10.45-.36,1.31-.73,2.61-1.13,3.88.05.14.09.27.14.38.59-.9,1.18-1.76,1.75-2.71,1.43-2.37,2.82-4.9,4.17-7.5s2.74-5.42,4.14-8.06,2.81-5,4.2-7.61c2.8-5.18,5.48-10.62,8.11-16.2.87-2.52,1.77-5,2.68-7.47.74-2,1.47-4,2.23-5.92,2.48-8.1,4.7-16.5,6.88-24.95C245.65,63.46,244.51,66.1,243.36,68.71Zm-26.31,62.67c.07-.18.13-.37.2-.56l.12-.12C217.27,130.93,217.16,131.15,217.05,131.38Z" fill="#4a792c"/><path d="M239.28,84c-1,2.24-1.74,4.9-2.8,7a.34.34,0,0,0,0,.31c-1.69,4-3.44,7.82-5.29,11.46s-3.9,7.41-5.87,11c-1.59,3-3.24,5.7-4.81,8.71-.29.56-.58,1.12-.86,1.7.63-1.55,1.23-3.16,1.87-4.7.81-2,1.67-3.87,2.57-5.64.09-.17,0-.43-.1-.27-.91,1.76-1.76,3.66-2.59,5.6s-1.64,4.13-2.49,6.12c-1.49,3.51-3.45,6.45-4.53,10.69-.06.24.08.46.15.22a47.52,47.52,0,0,1,3.37-8.09,34.39,34.39,0,0,0-1.37,4.23c-.11.41-.2.83-.29,1.27s.16.48.23.15a40.67,40.67,0,0,1,3.9-10.29c1.54-3,3.19-5.74,4.77-8.66,3.87-7.19,7.86-14.27,11.26-22.59l.39-1a.42.42,0,0,0,0-.35c1-2,1.71-4.51,2.62-6.66C239.46,84.1,239.36,83.82,239.28,84Z" fill="#c2e6b1"/><path d="M242.55,73.69c1-3.08,2.12-5.89,3.22-8.77.07-.19-.06-.45-.14-.26-1.08,2.58-2.1,5.25-3,8.13,0-.17-.15-.21-.2,0A48.68,48.68,0,0,1,240,80.71c-5,11.14-10.27,21.52-15.59,31.86-.08.16,0,.42.1.26,4-7.73,8.06-15.48,11.92-23.63-2.33,5.81-5,11-7.49,16.38-.11.26,0,.65.16.39,2.53-5.49,5.2-10.71,7.56-16.59,1.09-2.7,2.25-5.25,3.34-7.94.08-.21.17-.41.25-.62.81-1.86,1.62-3.75,2.41-5.67.07-.19,0-.47-.11-.28-.31.74-.63,1.46-.94,2.19.33-1,.62-2.14.87-3.29C242.48,73.8,242.52,73.79,242.55,73.69Z" fill="#c2e6b1"/><path d="M227.33,111.27c-2.31,3.78-4.26,8.5-6.48,12.54-.09.18,0,.46.12.29,2.23-4,4.2-8.66,6.47-12.54C227.54,111.39,227.43,111.11,227.33,111.27Z" fill="#c2e6b1"/><path d="M227.81,108.13a9.46,9.46,0,0,1-1.22,2.36c-.11.14,0,.49.07.35a9.88,9.88,0,0,0,1.29-2.52C228,108.12,227.89,107.93,227.81,108.13Z" fill="#c2e6b1"/><path d="M240.92,77.29q-8.74,17.05-17,35.21c-.1.23,0,.59.14.35,5.43-12.31,11.31-23.62,17-35.26C241.13,77.4,241,77.1,240.92,77.29Z" fill="#c2e6b1"/><path d="M307,92.22c-4.12,2.55-8.23,5.09-12.34,7.58-2.89,1.76-5.79,3.61-8.69,5.41s-5.9,3.62-8.75,5c-1,.48-2,1-2.92,1.33-6.84,4.05-13.63,7.88-20.53,12.19q-4.26,2.67-8.54,5.47c-2.31,1.7-4.62,3.41-6.93,5.06-3.88,2.78-7.76,5.49-11.63,8.18-6.38,5.33-12.75,10.64-19.13,15.82,5.14-2.32,9.82-3.41,14.79-5.26,1.82-.82,3.65-1.65,5.5-2.53s3.8-1.79,5.69-2.65c.48-.32,1-.62,1.43-.92,2.83-1.77,5.59-3.21,8.32-4.58,1.62-.82,3.23-1.64,4.86-2.51,1.11-.64,2.19-1.23,3.28-1.81,3.22-1.84,6.48-3.81,9.74-5.85l3-2.21c1.47-1.21,2.94-2.45,4.41-3.6q3-2.3,5.91-4.48l.62-.46,1.85-1.66c4.77-4.28,9.56-8.35,14.35-12.36,4-4,8.13-7.77,12.22-11.56l3.75-3.78Z" fill="#c2e6b1"/><path d="M286.23,107.23c-3.63,2.34-7.23,4.48-10.85,6.76-4.28,2.69-8.75,5.58-13,7.77-.68.42-1.36.83-2,1.22a55,55,0,0,1-5,2.66c-1,.55-2,1.1-3,1.59L249.62,129c-3.41,2.28-6.84,4.83-10.25,7.17l-3.75,2.55L231,142.19c-3,2.45-6,4.76-9,6.93q-1.59,1.37-3.18,2.67a2.24,2.24,0,0,0-.1.39c1-.46,2-.87,3-1.37,2.57-1.25,5.18-2.65,7.81-4.13s5.42-3.13,8.12-4.62,5.25-2.77,7.89-4.2c5.33-2.9,10.72-6.07,16.13-9.39,2.19-1.67,4.37-3.29,6.55-4.88,1.76-1.29,3.53-2.57,5.28-3.81,6.74-5.51,13.43-11.4,20.13-17.35ZM228.1,146.17l.48-.37.18,0Z" fill="#4a792c"/><path d="M274,117.94c-2.12,1.38-4.28,3.21-6.37,4.42a.34.34,0,0,0-.18.26c-3.72,2.48-7.38,4.78-11,6.87s-7.53,4.2-11.28,6.24c-3,1.64-6,3.09-9,4.81-.56.31-1.13.64-1.7,1,1.42-1,2.85-2,4.27-3,1.82-1.24,3.63-2.38,5.41-3.4.17-.09.23-.37.07-.27-1.78,1-3.58,2.15-5.4,3.35s-3.75,2.62-5.61,3.85c-3.27,2.16-6.6,3.62-9.95,6.62-.19.17-.2.43,0,.26a51,51,0,0,1,7.48-5,37.69,37.69,0,0,0-3.58,2.84c-.33.29-.65.6-1,.92s-.15.49.1.25a43.82,43.82,0,0,1,9.19-6.61c3-1.75,6-3.17,9-4.8,7.38-4,14.8-7.9,22.44-13.12.3-.2.59-.4.89-.62a.42.42,0,0,0,.18-.3c2-1.2,4-2.91,6-4.24C274.1,118.11,274.17,117.83,274,117.94Z" fill="#c2e6b1"/><path d="M282.69,111c2.59-2.08,5.16-3.85,7.74-5.69.17-.12.21-.4,0-.29-2.4,1.61-4.79,3.32-7.21,5.26.08-.15,0-.25-.17-.09a52,52,0,0,1-6.63,5.35c-10.58,6.76-21,12.73-31.4,18.65-.16.09-.22.36-.06.27,7.81-4.41,15.66-8.81,23.59-13.64-5.3,3.66-10.48,6.6-15.71,9.86-.24.15-.34.56-.1.41,5.3-3.3,10.53-6.3,15.9-10,2.47-1.71,4.91-3.25,7.37-4.94l.56-.38q2.64-1.71,5.29-3.51c.17-.12.25-.41.07-.29l-2.05,1.34c.88-.71,1.76-1.47,2.62-2.3C282.56,111.05,282.6,111.06,282.69,111Z" fill="#c2e6b1"/><path d="M248.29,134.62c-4.11,2-8.47,4.92-12.65,7.17-.18.09-.25.4-.07.3,4.17-2.19,8.51-5.09,12.65-7.17C248.39,134.84,248.46,134.54,248.29,134.62Z" fill="#c2e6b1"/><path d="M250.51,132.24a10.27,10.27,0,0,1-2.39,1.34c-.17.07-.32.4-.14.34a10.79,10.79,0,0,0,2.53-1.45C250.68,132.34,250.68,132.11,250.51,132.24Z" fill="#c2e6b1"/><path d="M279.25,113.16q-17.16,9.78-34.57,20.71c-.22.14-.31.51-.09.36,11.65-7.51,23.08-13.95,34.58-20.76C279.36,113.36,279.43,113.06,279.25,113.16Z" fill="#c2e6b1"/></svg>