<svg id="Layer_1" data-name="Layer 1" xmlns="http://www.w3.org/2000/svg" viewBox="0 0 400 400"><path d="M178.27,382.54c0,.11,0,.22,0,.33s0,.26,0,.39v.17a1,1,0,0,0,0,.17v.17c0,.07,0,.14,0,.22s0,.22,0,.34,0,.25,0,.38v.18a.86.86,0,0,1,0,.16v.17c0,.07,0,.15,0,.22s0,.23,0,.34,0,.26,0,.39,0,.11,0,.17v.16a.91.91,0,0,0,0,.17v.22c0,.12,0,.23,0,.34s0,.26,0,.39a1,1,0,0,1,0,.17,1,1,0,0,0,0,.17v.16c0,.08,0,.15,0,.23v.17a.86.86,0,0,0,0,.16c0,.13,0,.27,0,.39v.17c0,.06,0,.11,0,.17v.17c0,.07,0,.15,0,.22V390a1,1,0,0,1,0,.17c0,.13,0,.26,0,.39s0,.11,0,.16v.17a.91.91,0,0,0,0,.17v.23a.86.86,0,0,0,0,.16v.17c0,.13,0,.26,0,.39s0,.11,0,.17a.81.81,0,0,0,0,.16v.4a.86.86,0,0,1,0,.16c0,.06,0,.12,0,.17v.17a1.55,1.55,0,0,0,0,.22v.06h-.2c0,.22,0,.45,0,.67v.33c0,.14,0,.26,0,.39v.17c0,.06,0,.11,0,.17a2.72,2.72,0,0,0,0,.28h52.1c0-.22,0-.45,0-.66h-.24v-.28a.81.81,0,0,0,0-.16v-.06h.24v-.11c0-.05,0-.11,0-.17V394h.24c0-.17,0-.34,0-.5H231v-.17h.25v.16h.24c0,.14,0,.29,0,.44V394h.24a1,1,0,0,0,0,.17h-.49a.49.49,0,0,0,0,.12v0H231v.33h-.24a.41.41,0,0,0,0,.11v.06H231a1.62,1.62,0,0,0,0,.22v.12h.24v.16h.24v.15h.24v-.15H232v-.16h.24c0-.45,0-.89,0-1.34h.24v-.11a1,1,0,0,0,0-.17v-.05h.24v-.39h-.24v-.34h-.24c0-.17,0-.34,0-.51h-.25v-.17h-.24c0-.39,0-.78,0-1.17h-.24v-.33h-.24c0-.73-.05-1.45-.07-2.18h.24v-.17h.24v-.16h.23c0-.28,0-.56,0-.84h-.24c0-.22,0-.45,0-.67a1,1,0,0,0,0-.17h-.24c0-.45,0-.89,0-1.34h.25v-.17h.24v-.17h.24v-.17h.25v-.17h.24v-.11a1.62,1.62,0,0,0,0-.22h.25v-.33h.24v-.28a1.77,1.77,0,0,0,0-.23h-.48v-.17h-.24v-.17h-.24v-.17h-1a.37.37,0,0,1,0,.11v.06h-.25v.34h-.24v.34h-.24v-.17H230c0-.26,0-.53,0-.79v0h-.24v-.33h.24v-.11c0-.07,0-.15,0-.22h.48V382h.24v-.16h.24v-.28c0-.08,0-.15,0-.22h-.24v-.17h-.49V381h.24v-.16h.25v-.17h.24c0-.56,0-1.12,0-1.68h.25v-.17h.24c0-.17,0-.34,0-.5h.24v-.06a.91.91,0,0,1,0-.17v-.22a1.7,1.7,0,0,1,0-.22v-.17h-.25v-.18H231a1.55,1.55,0,0,1,0-.22,1,1,0,0,0,0-.17v-.16a1,1,0,0,0,0-.17v-.17a1,1,0,0,0,0-.17v-.16a.49.49,0,0,0,0-.12V376h-.24c0-.11,0-.22,0-.33h-.24v-.17h-.25v-.22a.49.49,0,0,0,0-.12v-.22a1.7,1.7,0,0,1,0-.22,1.77,1.77,0,0,0,0-.23c0-.15,0-.3,0-.45s0-.29,0-.44a1.77,1.77,0,0,1,0-.23,1.62,1.62,0,0,0,0-.22v-.22a1.77,1.77,0,0,1,0-.23,1.62,1.62,0,0,0,0-.22v-.22c0-.08,0-.15,0-.23v-.22h.25v-.17a1.62,1.62,0,0,0,0-.22v-.11h.24V371a1.69,1.69,0,0,1,0-.23c0-.07,0-.14,0-.22v-.16c0-.16,0-.3,0-.45s0-.26,0-.4h.25v-.34a.86.86,0,0,1,0-.16v-.17h-.25v-.16h-.24v-.05c0-.17,0-.34,0-.51v-.11H230c0-.5,0-1,0-1.51h-.24v-.06c0-.11,0-.22,0-.33a1,1,0,0,1,0-.17v-.17c0-.05,0-.11,0-.17v-.16c0-.08,0-.15,0-.22v-.06h.24v-.11c0-.08,0-.15,0-.22h.24v-.17h.24c0-.1,0-.19,0-.28v-.23h-.24c0-.22,0-.45,0-.67v-.17h-.24c0-1.2-.07-2.39-.11-3.58h-.24v-.06c0-.17,0-.33,0-.5v-.11h-.24c0-.72,0-1.45-.07-2.18h-.24l-.09-3h.24v-.28c0-.08,0-.15,0-.22a1.77,1.77,0,0,0,0-.23V353a1.77,1.77,0,0,1,0-.23c0-.07,0-.14,0-.22v-.22a1.77,1.77,0,0,1,0-.23h-.25c0-.67,0-1.34,0-2H229V350c0-.08,0-.15,0-.22v-.17s0-.08,0-.11a2.53,2.53,0,0,0,0-.28,2.62,2.62,0,0,0,0-.28v-.34a.91.91,0,0,1,0-.17v-.11a4935239482583.21,4935239482583.21,0,0,1,0-.56h-.24c0-.56,0-1.11,0-1.67h-.24c0-.45,0-.89,0-1.34h.24v-.05c0-.09,0-.19,0-.28v-.06h.24v-.11a1.77,1.77,0,0,1,0-.23,1,1,0,0,0,0-.17v-.17a.86.86,0,0,0,0-.16v-.17a1,1,0,0,0,0-.17v-.28c0-.05,0-.11,0-.16a1.09,1.09,0,0,0,0-.18v-.27a1,1,0,0,0,0-.17v-.28h-.49v-.12a2.53,2.53,0,0,1,0-.28v-.11h.24V341a2.62,2.62,0,0,1,0-.28c0-.09,0-.18,0-.28s0-.19,0-.28h.25v-.33h-.25c0-.34,0-.68,0-1h.24a.37.37,0,0,1,0-.11v-.05h-.24v-.05a1.77,1.77,0,0,1,0-.23c0-.07,0-.15,0-.22s0-.3,0-.45,0-.55,0-.83l0-.84,0-.84v-.06h-.24v-.34h.24v-.06l0-1.06v-.06H228v-.16h.24v-.34H228v-.22s0-.08,0-.12v-.16s0-.08,0-.12,0-.37,0-.56a.86.86,0,0,0,0-.16v-.11a.91.91,0,0,0,0-.17v-.11c0-.19,0-.37,0-.56v-.06h-.24v-.17h.25v-.12c0-.06,0-.11,0-.17v0h-.25v-.34c0-.05,0-.11,0-.17v-.11c0-.19,0-.37,0-.56v-.17s0-.07,0-.11v-.17a.45.45,0,0,0,0-.11c0-.18,0-.37,0-.56,0,0,0-.07,0-.11h-.24c0-.8,0-1.6-.07-2.4v-.12H227c0-.22,0-.45,0-.67,0-.05,0-.11,0-.16h-.24c0-.22,0-.45,0-.67H227v-.16h-.24c0-.22,0-.45,0-.67H227v-.28c0-.08,0-.15,0-.23h-.24a1.55,1.55,0,0,0,0-.22V322a.45.45,0,0,1,0-.11c0-.19,0-.38,0-.56,0-.36,0-.71,0-1.07a.37.37,0,0,1,0-.11h-.24c0-.08,0-.15,0-.23v-.11a.86.86,0,0,0,0-.16v-.12c0-.16,0-.33,0-.5a1,1,0,0,1,0-.17v-.11a1,1,0,0,1,0-.17v-.11c0-.16,0-.33,0-.5h-.24v-.28a1.77,1.77,0,0,1,0-.23c0-.15,0-.29,0-.44s0-.56,0-.84l0-.9c0-.27,0-.55,0-.83h-.24c0-.56,0-1.11-.05-1.67h-.25v-.23c0-.06,0-.11,0-.17v-.16c0-.06,0-.12,0-.17v-.34a.91.91,0,0,1,0-.17.37.37,0,0,1,0-.11c0-.11,0-.22,0-.33v-.17a1,1,0,0,0,0-.17v-.33a1,1,0,0,1,0-.17v-.11c0-.43,0-.86,0-1.29,0-.11,0-.22,0-.33a.91.91,0,0,0,0-.17v-.11c0-.11,0-.23,0-.34v-.16s0-.08,0-.12v-.11h-.25c0-.34,0-.67,0-1h-.24c0-.56,0-1.12,0-1.68H225v-.06c0-.06,0-.11,0-.17v-.16a1.85,1.85,0,0,1,0-.23,1,1,0,0,0,0-.17v-.22a1,1,0,0,1,0-.17v-.17a1,1,0,0,0,0-.17h.25v-.34h.24v-.06c0-.05,0-.11,0-.17v-.16a1.77,1.77,0,0,1,0-.23.86.86,0,0,0,0-.16v-.23a.91.91,0,0,1,0-.17v-.16a1,1,0,0,1,0-.17c0-.13,0-.26,0-.39s0-.26,0-.39,0-.15,0-.23v-.16a1,1,0,0,0,0-.17v-.17h.24v-.11c0-.05,0-.11,0-.17v-.05h-.24v-.16h-.24c0-.07,0-.15,0-.22v-.11h-.73c0-.17,0-.33,0-.5h-.24v-.16h-.49a1,1,0,0,0,0-.17v-.16h-.24v-.33h-.24v-.17h-.24v-.16h-.24v-.17h-.25V297h-.24v-.17h-.24v-.17h-.24v-.17h-.24v-.17h-.24v-.22h-.56V296h-1.21v.16h-.49a1.62,1.62,0,0,1,0,.22h-1.21v.16h-.25v-.17h-.24v-.22l-1.21,0c0,.08,0,.15,0,.23h-.49v.17H215c0-.15,0-.3,0-.45v-.11l-1.45,0V296h-.24v.05c0,.06,0,.12,0,.17H213v.17h-.24c0,.12,0,.23,0,.34h-.24v.17h-.24c0,.11,0,.23,0,.34h-.73v-.17h-.49v.17h-.24v-.17h-.24v-.16l.16-.45-.06-.07-.1-.13.39-1.11.19-.56-.06-.07v0l-.74,1.64-.12.25h-.14c0-.35,0-.7,0-1.06h.24c0-.05,0-.11,0-.17h-.24V295h-.48v.16h-.24v.17h-.49s0,.08,0,.11v.06h-.24v.17h-.24V296h-.24v.22H208c0,.11,0,.22,0,.33h-.24v.17h-.25v.17h-.24V297H207c0,.11,0,.23,0,.34h-.24v.17h-.24v.17h-.49c0,.11,0,.22,0,.34h0l-.51-.09h0l0,.09a.36.36,0,0,1,0-.1h0l-.8-.13a.41.41,0,0,0,0,.09,1.48,1.48,0,0,1,0-.21h.73c0-.16,0-.33,0-.5h.25v-.33h-.25v-.22a1,1,0,0,1,0-.17c0-.05,0-.11,0-.16V296a.37.37,0,0,0,0-.11v-.29h.24v-.28c0-.08,0-.15,0-.23h.24v-.17h-.24c0-.08,0-.15,0-.23v-.11a.86.86,0,0,0,0-.16v-.29a.37.37,0,0,1,0-.11,1.7,1.7,0,0,0,0-.22v-.05h-.24v-.17h-.49a.86.86,0,0,0,0,.16v.17h-.24V294a1.62,1.62,0,0,1,0,.22H203.3v-.17h-1v.17h-.24v.16h-.49v-.17s0-.08,0-.11V294h-.24v-.34h-.72c0-.12,0-.23,0-.34h-.24v-.17h-.24V293h-.24c0-.23,0-.45,0-.68h-.24v-.17h-.24V292h-.24v-.17h-.73v-.17H197.1v-.17H195.4v-.17H193v.17h-.73v.17a1.62,1.62,0,0,1,0,.22v.11h.24c0,.16,0,.33,0,.5H193v.16h.24c0,.11,0,.22,0,.33h.25v.16c0,.06,0,.12,0,.17v.22a.49.49,0,0,1,0,.12h-.73v.17h-.48v.17h0v-.15h-.19v-.17h-.2c0-.22,0-.45,0-.67h.2v-.06a.45.45,0,0,0,0-.11v-.16c0-.08,0-.15,0-.23v-.11h-.2v-.06a.86.86,0,0,0,0-.16v-.12h-.2c0-.11,0-.22,0-.33h-.47c0,.17,0,.33,0,.5H191v.17a1.55,1.55,0,0,1,0,.22v.17a1.62,1.62,0,0,1,0,.22V293a1.62,1.62,0,0,1,0,.22,1.77,1.77,0,0,1,0,.23v.28h-.19c0,.17,0,.34,0,.51h-.2v.06s0,.07,0,.11v.15h0c0,.11,0,.22,0,.33h0a.66.66,0,0,0,0,.14v.05h-.2v.17c0,.22,0,.45,0,.67h-.2s0,0,0,0H190a1.77,1.77,0,0,0,0-.23h-.24v.16a.91.91,0,0,0,0,.17v.06H190c0,.11,0,.22,0,.34h.24v-.17h.09c0,.44,0,.88,0,1.31h-.2a.41.41,0,0,0,0,.11v.22s0,.08,0,.12v.22H190v.11a1.62,1.62,0,0,1,0,.22s0,.08,0,.11v.09h-.18c0-.17,0-.33,0-.5h-.24v-.17h-.24c0-.11,0-.22,0-.33h-.48c0,.17,0,.34,0,.51h-.24v.17h-.24c0,.11,0,.22,0,.33V299a.41.41,0,0,0,0,.11v.06h.24v.17h-.24v.16h-.24v.22a1,1,0,0,1,0,.17v.22a1,1,0,0,1,0,.17c0,.08,0,.15,0,.22v.17a1,1,0,0,0,0,.17V301h-.24c0,.23,0,.45,0,.68h-.24v.16H188a1.77,1.77,0,0,1,0,.23v.11h.73v.17s0,.07,0,.11v.05H189v.16h.24V302h.3l0,.86h-.2V303a1.55,1.55,0,0,0,0,.22v.12a1.62,1.62,0,0,0,0,.22h-.2c0,.27,0,.54,0,.81H189v.17h-.24v.16h-.24a1,1,0,0,0,0,.17v.33h-.24v.11a1,1,0,0,0,0,.17v.22h-.24v.11a1,1,0,0,0,0,.17V306h-.24v.28a1.77,1.77,0,0,1,0,.23h-.24v.34h-.24v.34h-.24v.36h-.11v-.16h-.2v.12c0,.17,0,.35,0,.53h-.17v.36h0v.14h-.21v.11c0,.06,0,.11,0,.17v.05h-.24V309H186v.16h-.24v.17h-.25v.33h-.24v.11a1.62,1.62,0,0,1,0,.22h-.24v.17h-.24c0,.06,0,.12,0,.17v.17h-.24v.11c0,.07,0,.15,0,.22a1,1,0,0,0,0,.17v.17h-.24v.16a1,1,0,0,1,0,.17h-.24v.16h-.24c0,.13,0,.26,0,.39h-.24v.11a1,1,0,0,1,0,.17v.05h-.24v.12a.86.86,0,0,0,0,.16v.06h-.24V313H183v.16a1.77,1.77,0,0,0,0,.23v.11h-.24v.12a.86.86,0,0,0,0,.16V314h-.24v.16h-.24c0,.17,0,.34,0,.5h-.24V315h-.25v.51h-.25v.12a.86.86,0,0,0,0,.16V316h-.24v.11c0,.06,0,.12,0,.17v.22h-.24v.28a.91.91,0,0,0,0,.17V317h-.25v.12a1.7,1.7,0,0,0,0,.22v.33h-.24V318h-.24v.51h-.24v.28c0,.08,0,.15,0,.23H180v.34h-.25v.05a1,1,0,0,1,0,.17c0,.07,0,.15,0,.22V320a.37.37,0,0,1,0,.11v.05h-.24v.28a.91.91,0,0,1,0,.17v.11a1,1,0,0,0,0,.17V321a1,1,0,0,0,0,.17v.28s0,.07,0,.11a1,1,0,0,0,0,.17v.11c0,.16,0,.33,0,.5h.25v.34a1.62,1.62,0,0,1,0,.22V323h.24c0,.16,0,.33,0,.5h.24v.28a1,1,0,0,0,0,.17v.05h-.24v.17a1,1,0,0,0,0,.17v.28a.86.86,0,0,1,0,.16V325c0,.07,0,.15,0,.22v.05H180v.17c0,.06,0,.11,0,.17v.17a.45.45,0,0,0,0,.11v.05h-.24v.28c0,.06,0,.11,0,.17v.05h-.24v.11a1,1,0,0,1,0,.17v.22h-.24V327c0,.05,0,.11,0,.16v.23a1.62,1.62,0,0,1,0,.22v.17h-.25V328c0,.07,0,.15,0,.22v.22a1,1,0,0,1,0,.17v.06h-.24v.12c0,.07,0,.15,0,.22v.17s0,.07,0,.11v.17a.41.41,0,0,0,0,.11v.28h.24a1,1,0,0,1,0,.17.37.37,0,0,0,0,.11v.34s0,.11,0,.16,0,.23,0,.34v.17a.86.86,0,0,1,0,.16c0,.14,0,.26,0,.4a1,1,0,0,0,0,.17V332c0,.22,0,.45,0,.67h.24v.05a1.7,1.7,0,0,1,0,.22v.17a1,1,0,0,1,0,.17v.17a1.62,1.62,0,0,1,0,.22,1,1,0,0,0,0,.17V334a.86.86,0,0,0,0,.16c0,.13,0,.26,0,.4v.16c0,.06,0,.12,0,.17v.22c0,.06,0,.12,0,.17v.34c0,.13,0,.26,0,.39a1,1,0,0,0,0,.17v.16a1.77,1.77,0,0,0,0,.23v.16c0,.06,0,.12,0,.17v.17c0,.13,0,.26,0,.39s0,.11,0,.17v.17c0,.07,0,.15,0,.22a1,1,0,0,0,0,.17v.33c0,.13,0,.27,0,.39s0,.23,0,.34v.22a1,1,0,0,1,0,.17v.17c0,.05,0,.11,0,.16s0,.26,0,.39,0,.23,0,.34,0,.15,0,.23v.16a1,1,0,0,0,0,.17v.17c0,.13,0,.26,0,.39s0,.22,0,.33a1.77,1.77,0,0,1,0,.23v.16c0,.06,0,.12,0,.17v.17c0,.13,0,.26,0,.39s0,.2,0,.31h-.05c0,.22,0,.44,0,.66h-.2l0,1h.4v-.16h.33l.06,1.88h.24c0,.22,0,.45,0,.67a1,1,0,0,0,0,.17h.23v.14h0c0,.79,0,1.58.07,2.38h.24c0,.33,0,.67,0,1h.14v.19h.1c0,.11,0,.22,0,.33H181v.33h.2v.23a2.62,2.62,0,0,1,0,.28h-.6v.17h-.2a1.55,1.55,0,0,1,0,.22c0,.09,0,.19,0,.28a1.62,1.62,0,0,0,0,.22v.28h.2c0,.17,0,.34,0,.51h.2v.17H181v.17h0c0,.05,0,.09,0,.14V355a1,1,0,0,0,0,.17v.16a.91.91,0,0,0,0,.17,2.53,2.53,0,0,0,0,.28v.33a2.81,2.81,0,0,1,0,.29.57.57,0,0,1,0,.13h0v.34h-.2c0,.08,0,.15,0,.23a2.72,2.72,0,0,0,0,.28v.22a.41.41,0,0,0,0,.11v.17h.2l0,1H181c0,.77.05,1.56.07,2.34h-.2l.06,1.84h-.2v.17h-.4v.17h-.2v-.17h-.4v-.17h-.4v.17h-.2v.17h-.2c0,.27,0,.55,0,.83h-.2c0,.09,0,.19,0,.28v.23h.2c0,.63,0,1.26.05,1.9h-.2l0,1h-.2v.05c0,.06,0,.11,0,.17V368h.2a.49.49,0,0,0,0,.12l0,1.06h-.2a2.44,2.44,0,0,0,0,.27v.17a1,1,0,0,0,0,.17V370c0,.11,0,.22,0,.34a2.44,2.44,0,0,1,0,.27,1,1,0,0,0,0,.17V371c0,.06,0,.11,0,.17v.16c0,.08,0,.15,0,.23v.11h.2v.17h.21v-.17h.2v-.23a1.55,1.55,0,0,1,0-.22c0-.08,0-.15,0-.22a2.53,2.53,0,0,0,0-.28v-.06h.2a.86.86,0,0,0,0-.16c0-.23,0-.45,0-.67h.19v-.17h.2v-.16h.2v-.17h.2c0,.51,0,1,.05,1.51h-.2c0,.11,0,.22,0,.33h-.2v.17h-.4c0,.51,0,1,.05,1.52h-.2v.34h-.21l.06,1.68h-.2c0,.33,0,.67,0,1h-.19c0,.84,0,1.68.07,2.52h-.2a1,1,0,0,1,0,.17c0,.22,0,.45,0,.67h-.2c0,.67,0,1.34.06,2h-.2s0,.07,0,.11v.56h-.19C178.26,382.09,178.27,382.31,178.27,382.54Zm46.31-83.13v.17h.23v.28a1,1,0,0,0,0,.17v.05h-.25v.17h-.24l0-.83Zm-22.37-3.85h.16v-.17h.72c0,.06,0,.11,0,.17v.17h-.24c0,.13,0,.26,0,.39h-.48c0-.13,0-.26,0-.4h-.24v-.16Zm-13.05,5.76h-.24v.17h-.48c0-.05,0-.11,0-.16v-.23c0-.07,0-.14,0-.22a1,1,0,0,0,0-.17v-.05h.24v-.34h.25v-.17h.24V300h.24c0-.11,0-.22,0-.34h.46c0,.15,0,.31,0,.47h-.2v.2h0c0,.16,0,.33,0,.5h-.49C189.15,301,189.15,301.15,189.16,301.32Zm.31.36a.71.71,0,0,1,0,.14h-.07c0-.22,0-.44,0-.67h.24V301h0l0,.69Z" fill="#5a4a42"/><path d="M190.4,294.24v-.17h-.24v-.17h-.24v.16h-.24v.11c0,.06,0,.11,0,.17v.22h.25v.17h.48a.41.41,0,0,0,0-.11v-.06h.24c0-.12,0-.23,0-.34Z" fill="#5a4a42"/><path d="M207.27,295h.16v.17h.72v.17h.48c0-.11,0-.22,0-.33h.24v-.17h-1a1,1,0,0,1,0,.17h-.24v-.18h-.48V295Z" fill="#5a4a42"/><path d="M212.76,295.13v.05H213c0,.11,0,.22,0,.33h.25v-.17h.24v-.06a1.7,1.7,0,0,0,0-.22V295h-.24v-.16H213V295h-.24v.11Z" fill="#5a4a42"/><path d="M188.78,296.62H189v.06c0,.17,0,.33,0,.5a.45.45,0,0,1,0,.11h.24v-.12s0-.07,0-.1v-.18a.86.86,0,0,0,0-.16v-.28a1,1,0,0,1,0-.17,1.62,1.62,0,0,0,0-.22V296H189c0-.13,0-.26,0-.39h-.24v.17h-.24v.06c0,.07,0,.15,0,.22v.11h.24C188.77,296.29,188.77,296.45,188.78,296.62Z" fill="#5a4a42"/><path d="M206.54,297.34c0-.11,0-.22,0-.33H206c0,.11,0,.22,0,.34Z" fill="#5a4a42"/><path d="M188.56,297.62a1,1,0,0,1,0,.17h.24v-.17Z" fill="#5a4a42"/><path d="M225.8,299.76v.16h.49v.17h.24v.06a.45.45,0,0,0,0,.11h-.73c0,.11,0,.22,0,.34h-.24v.16h.24v.17h.24v-.16h.24v-.17h.49v-.17h.49a1.62,1.62,0,0,0,0,.22v.17c0,.11,0,.22,0,.33s0,.27,0,.39,0,.23,0,.34c0,.46,0,.93,0,1.4h.24V303a.86.86,0,0,1,0-.16v-.17s0-.07,0-.11v-.06h.24v-.22c0-.07,0-.15,0-.22s0-.15,0-.22v-.17H228v-.11a1,1,0,0,1,0-.17,1.62,1.62,0,0,0,0-.22h.25v-.28c0-.07,0-.15,0-.22v-.17s0-.08,0-.11v-.23H228V300c0-.07,0-.15,0-.22v-.28h.25v-.22c0-.07,0-.15,0-.23v-.22a.41.41,0,0,0,0-.11v-.05h-.24c0-.11,0-.22,0-.33h-.73c0,.11,0,.22,0,.33H227v.34h-.24v.17h-.25c0,.16,0,.33,0,.5h-.24v.16H226v-.17h-.24v.06S225.8,299.72,225.8,299.76Z" fill="#5a4a42"/><path d="M187,302.29a1.62,1.62,0,0,0,0-.22v-.17a.86.86,0,0,0,0-.16v-.28h-.25v.33h-.24V302h-.25c0,.11,0,.22,0,.34h.25v.17h.24c0,.06,0,.11,0,.17H187C187,302.52,187,302.41,187,302.29Z" fill="#5a4a42"/><path d="M231.13,302.84h.08v-.33a.37.37,0,0,0,0-.11v-.23H231c0,.22,0,.44,0,.67Z" fill="#5a4a42"/><path d="M186.26,304.13h.08v-.33h.72c0-.33,0-.67,0-1h-.25v-.16h-.25c0,.13,0,.25,0,.39v.11h-.24v.17h-.24v.11a1.7,1.7,0,0,1,0,.22h-.24v.17h.24v.34h.16Z" fill="#5a4a42"/><path d="M227.11,303.35V304h.24v-.67h-.24Z" fill="#5a4a42"/><path d="M230.76,303.84H231v-.34h-.24C230.75,303.62,230.75,303.73,230.76,303.84Z" fill="#5a4a42"/><path d="M227.15,304.47h.24c0-.05,0-.11,0-.17h-.24C227.14,304.36,227.15,304.41,227.15,304.47Z" fill="#5a4a42"/><path d="M225.45,304.45v.17h.25a1,1,0,0,0,0-.17Z" fill="#5a4a42"/><path d="M226,305.46v-.34h-.25c0,.17,0,.34,0,.5H226v-.17Z" fill="#5a4a42"/><path d="M185.66,305.85V306h.24c0,.17,0,.33,0,.5h.24v-.17h.24v-.17c0-.05,0-.11,0-.16v-.17a1,1,0,0,0,0-.17h-.24v-.06a1,1,0,0,0,0-.17v-.11h.24v-.16h-.49v.17h-.24v.17a.91.91,0,0,0,0,.17Z" fill="#5a4a42"/><path d="M185.5,308.31h.24c0-.05,0-.11,0-.17h-.24A1,1,0,0,0,185.5,308.31Z" fill="#5a4a42"/><path d="M230.83,363.39a.92.92,0,0,1,0-.16h-.24v.17Z" fill="#5a4a42"/><path d="M232.91,384.86v.06c0,.06,0,.11,0,.17h.48V385c0-.05,0-.11,0-.16v-.12a1,1,0,0,0,0-.17v-.1h-.24a1.62,1.62,0,0,0,0,.22v.12h-.24v.11Z" fill="#5a4a42"/><path d="M232.8,389.39v.06h.24v.16h.24v.16h.24v0a.49.49,0,0,1,0,.12h.24c0-.08,0-.15,0-.23v-.27h-.24a1.62,1.62,0,0,0,0-.22v-.11h-.24V389H233v.16h-.25v.28Z" fill="#5a4a42"/><path d="M232.26,390.11h.08a1,1,0,0,0,0-.17h-.24a.91.91,0,0,1,0,.17Z" fill="#5a4a42"/><path d="M232.36,391h.25v-.61a1.77,1.77,0,0,0,0-.23h-.24c0,.24,0,.48,0,.72Z" fill="#5a4a42"/><path d="M179.62,360.49v-.11h-.2v.17h-.2l0,1h.2v.17h.2C179.65,361.31,179.63,360.9,179.62,360.49Z" fill="#5a4a42"/><path d="M179.78,359.09v0h.4a.45.45,0,0,0,0-.11v-.05h.2v-.34h.2v-.34h-.2a.41.41,0,0,0,0,.11v.06h-.6c0-.17,0-.34,0-.5h-.2a.37.37,0,0,0,0,.11v.23h-.2v.34h-.2v.05c0,.06,0,.11,0,.17a1.55,1.55,0,0,0,0,.22v.23c0,.06,0,.11,0,.17h.4v-.16h.2v-.12Z" fill="#5a4a42"/><path d="M180.38,352.4a1.77,1.77,0,0,0,0-.23v-.33h-.2c0-.56,0-1.12,0-1.68s0-1.15-.05-1.73h-.41v-.33h-.2v.28c0,.05,0,.11,0,.16v.23h.2v.17h-.2V349l.06,2h-.2v.16h-.2a.49.49,0,0,1,0,.12v.22a.41.41,0,0,1,0,.11v.22H179v.06a.91.91,0,0,1,0,.17,1.7,1.7,0,0,0,0,.22c0,.15,0,.3,0,.44s0,.27,0,.4a1.62,1.62,0,0,1,0,.22v.34h.2v.06a.45.45,0,0,0,0,.11v.33h.2v.29a1.55,1.55,0,0,1,0,.22v.17h-.2c0,.12,0,.23,0,.34h-.2v.16h-.2c0,.5,0,1,0,1.51h.6v-.17h.2v-.17h.2a2.53,2.53,0,0,0,0-.28v-.34a.91.91,0,0,1,0-.17.86.86,0,0,0,0-.16v-.17a1,1,0,0,0,0-.17v-.17c0-.05,0-.11,0-.16v-.17a1,1,0,0,0,0-.17v-.17a1,1,0,0,0,0-.17v-.39h.2c0-.17,0-.34,0-.51h.2v0c0-.15,0-.3,0-.45h.19v-.23A1.62,1.62,0,0,1,180.38,352.4Z" fill="#5a4a42"/><path d="M266.76,53.9Z" fill="#c0d72f"/><path d="M263.93,53.13Z" fill="#c0d72f"/><path d="M305.48,124.84h0c.86,1.24,1.59,2.29,2.12,3Z" fill="#c0d72f"/><path d="M282,103.83h0l.41.67Z" fill="#c0d72f"/><path d="M307.6,127.88l.91,1.31Z" fill="#c0d72f"/><path d="M237.85,48Z" fill="#c0d72f"/><path d="M198.9,293.46Z" fill="#c0d72f"/><path d="M298.58,248.37l-1.65,1h0Z" fill="#c0d72f"/><path d="M299.25,247.94l1.66-1Z" fill="#c0d72f"/><path d="M298.58,248.37l.67-.43Z" fill="#c0d72f"/><path d="M327.34,154h0l2.45,4.13Z" fill="#c0d72f"/><path d="M100,91.47l-1.5-.29Z" fill="#c0d72f"/><path d="M198.57,293.42l.33,0Z" fill="#c0d72f"/><path d="M224.35,74.63l.71.14C224.91,74.73,224.66,74.69,224.35,74.63Z" fill="#c0d72f"/><path d="M206,71.06h0Z" fill="#c0d72f"/><path d="M283.64,106.56c-.24-.4-.55-.9-.94-1.52Z" fill="#c0d72f"/><path d="M234.64,259.63l.74,0Z" fill="#c0d72f"/><path d="M333.85,130.08a20.64,20.64,0,0,0-4.08-.63l-.41-.7a18.55,18.55,0,0,1,4.66.69l.05-.21a21.62,21.62,0,0,0-4.83-.68c-1.74-2.94-2.63-4.45-1.91-3.22h-.12l-.14,0-.16,0,1.95,3.31c-.58,0-1.17,0-1.8,0l-.41-.71h0l-.26-.06-.52-.11a22.26,22.26,0,0,0-7.92-.16l.09-.92,1-.14a23.38,23.38,0,0,1,5.53-.13,20.34,20.34,0,0,0-6.46.06l.11-1.14a24.25,24.25,0,0,1,4.8-.18l2.47.29,1.17.23.57.13h.05c-.12-.18-.21-.35-.32-.52l-.12,0-2.43-.42a13.59,13.59,0,0,0-2.22-.24,20.08,20.08,0,0,0-3.93.26l.35-3.55.08-.91.05-.45,0-.22v0h0l-15.48-22.2-.23,0h0l-.25-.05-1-.19a24,24,0,0,0-8.87,0l-.51.08-.5.1.14-.68.36.58c-.11-.19-.23-.38-.36-.58l0-.17.1-.45v-.06h0c-4-6.5-11.12-18-12.38-20.08h-.1l-.11,0-.21,0-.86-.18-1.77-.26a19.45,19.45,0,0,0-4.59,0l0-.29a10.61,10.61,0,0,1,1.41-.29c-.49,0-.93.1-1.39.16l.2-1.34.16-1,.15-1-.06-.1-.06-.11-.06-.1.15-1,.31-1.94-.18-.31-.17-.31L271.55,75a21.77,21.77,0,0,0-6.08,1.88l.08-.54.31-1.94.45-2.92.12.2.06.11.15-1,.15-1,.45-2.92.61-3.89-.12-.21-.06-.1.15-1,.15-1,.15-1-.05-.1-.06-.1-.06-.11.82-5.25h0l.25-1,.25-1L272,41.87l.69-2.62v-.07h0l-.43-.09v0l0,.08-.09.36-.19.72-.49,1.91L270.73,45l-1,3.82-.25,1-.22.86v0l-.05-.1-.06-.1.15-1,.15-1,.45-2.92.46-2.92.15-1,.06.1.05.11.06.1.15-1,.31-2,.11.21.06.1-.15,1-.15,1-.16,1,.07.1.11.2.15-1,.31-2,.06.1.11.21.16-1,.47.1h0l-.48-.1h0l3.23.65L271.81,39l0-.22,0-.21.11-.73,0-.18v-.14h0l-31.67-6.34,2.65.53h0v0l-.09.36,0-.11-.1-.22-.24,1-.09.32,0,.1-.24-.05h0v0l.24,0-.13.51-.48,1.82.11-.7.23-1.46,0-.19v0c-7.82-1.57-11.29-2.26-.43-.09h0v.08l0,.17,0,.34-.1.67-.21,1.33-.63,4.07-.17.64-.5,1.9-.25,1,.1.22.05.11-5.24,20,.14.32-.07.28-2.38-.46.14-.52,0,.11.05.1,0,.11.25-.95,1-3.8.5-1.91.75-2.86.49-1.9.75-2.85.75-2.86.75-2.86-.15-.32-2.24,8.57-.05-.11,0-.11-.05-.11-.25,1-.75,2.85-.25,1-.25.95,0-.1,0-.11,0-.11-.25,1-.25.95-1,3.81,0,.11.05.11,0,.1-.22.81L207,58.66c.66-2.46,1.3-4.95,1.89-7.49l-.1-.23-.05-.11-.23,1-.24,1-.26,1-.25,1-.25,1-.25,1-.47,1.74-2.16-.42.19-.71,1-4-.09-.22-.05-.11c1-4,1.88-8,2.54-12.32l.46-3.24-.19-.34.21-2.24.11-1.13.06.12.13.22L209,33.1l0-1.23a28.69,28.69,0,0,0-.23-5.19,16.49,16.49,0,0,0-1-4.67,14.56,14.56,0,0,0-3.27-5.72l.41.27.21.14c-2.49-3.55-8.53-5.54-11.85-5-3.26.12-4.53,1-6.84,1.66l-.35.36-1.13.6a38.3,38.3,0,0,0-9.55,6.44,17.89,17.89,0,0,0-1.91,1.78l.08-.44,2-1.75,1-.86.1-.27.05-.14-3,2.61c-1.18,1.31-2.26,2.72-3.36,4.12a14.36,14.36,0,0,0-1.5,2.15v.43l-.62,1.12a46.21,46.21,0,0,0-3.93,9.05,79,79,0,0,0-2.09,8.76c-1.12,6-1.48,10.61-2.52,15.55l-.11-.2,0-.11-.18.95L159,65.43l-.19.95-.19,1-.75,3.81.31.63-.38,1.91-.2,1,0,.11.06.1.05.11-.2,1-.19,1-.6,2.88-.21,1-.16-.32L156,82.3l-.81,3.83L154.55,89l-.41,1.91-.21,1,0,.1.11.21-3.82,17.24-.15-.32-.15-.31,1.92-8.62,0-.1-.06-.11-.05-.1.64-2.88.21-.95.2-1,.21-.95-.05-.11-.05-.11,0-.1,3.67-17.23-.32-.63L155,81.49l-.05-.11-.24.92-.24.92-.24.92-.25.92-.24.92-.6,2.39.28-2,.13-1-.07-.1-.05-.1-.07-.11.13-1,.13-1,.13-1,.06.11.06.1.06.1.13-1,.13-1,.37-3,.35-3,.12-1,.06.1.12.2.23-2,.31-3,.11-1,.19.31.2-2,.06-.62c.26-.77.51-1.53.76-2.3l.64-1.66-.07.34-.17.94,0,.1.11.2.17.31c.36-1.89.7-3.76,1-5.51l.06.08.06.09L159,58l.13-.82c.08-.56.16-1,.26-1.77l.12.21.06.1c-.05.37-.09.63-.13.9l-.13.83-.13.83.05.1.12.2.17.29c.3-1.69.53-3.37.83-5.57l-.53-.95.15-1,.15-1,.19-1.08-.06-.11-.05-.12-.06-.11.2-1.08.19-1.08.19-1.08-.05-.11,0-.11-.06-.12.22-1.1.57-2.28-.27-.75a64.22,64.22,0,0,0-1.42,6.68l-.11-.22-.06-.12-.19,1.09-.19,1.08-.17,1.07.17.32c-.47,3.31-.79,5.93-1.27,8.49l0,.1.06.1.06.1-.13.73-.56.8-.53.25-.41.39,0-.55c.08-1,.16-2.08.19-3.22l.21.33.08-2.24a34.41,34.41,0,0,0,0-3.67l0-1.32-.08-.11-.16-.24a24.56,24.56,0,0,0-.51-3.31l.18-1c.22-1.13.37-2.2.64-3.39l.3-1.2,0-.13-.05-.13,0-.13.3-1.2.31-1.21a28.34,28.34,0,0,1,1.12-3.7c.63-1.72,1.22-3.4,1.93-5.1v-.46l.68-1.31.69-1.3,1.42-2.59a45.27,45.27,0,0,1,3.65-5,21.65,21.65,0,0,1,3.14-3.41l4.75-4,.22-.45,2.53-1.52,1.29-.73-.09.13-.08.13-.08.13,1.28-.71a26.77,26.77,0,0,1,6.2-2.77l4-1.13a25.28,25.28,0,0,1,10.1.61,24.59,24.59,0,0,1,7.61,4.26c2.32,2.23,5.19,6.45,5.53,8.23A26.23,26.23,0,0,1,215.25,25l.2,1.72.17,1.71a12.62,12.62,0,0,1,0,1.47l.07.13.15.26A68.24,68.24,0,0,1,215,41.62l.11.24.06.12.17-1.15.17-1.15.15-1.19.19.38c-.35,2.29-.65,4.69-1.1,6.83l.15.35.22-1.1.2-1.1.18-1.16.06.12,0,.12.06.12.17-1.15c.24-1.53.49-3,.62-4.77l.23-2.51c.11-1.26.08-2.82.11-4.21a22.13,22.13,0,0,0-.13-3.12,32.51,32.51,0,0,0-.9-5.66c-.95-2.67-.91-4.17-3.45-7.84a20,20,0,0,0-9.68-8l-1.3-.28c-10.39-2.72-15.81.54-19.43,2-3.29,1.85-6.62,3.33-9.6,6.11l-.07.15-.07.16-.06.15-1.2,1-1.18,1-1.16,1.06,0,.16-.09.33-3.91,4.9a15,15,0,0,0-1.65,2.56v-.48l-.73,1.3-.71,1.32-.7,1.32v-.47a63.74,63.74,0,0,0-5.44,16.68c-1.27-2.47-4.78-6.31-7.72-6.86-3.37-1.4-10.28.8-12.08,3.15a24.63,24.63,0,0,0-4.69,7.5c-.71,1.69-1.31,3.26-1.84,4.78a.71.71,0,0,0,0,.14l.21.89.19.42c0-.05,0,0,0,.07,0,.76-.07,1.56-.1,2.36.16-.47.31-.94.46-1.41,0,.09.09.19.13.3l-.23.71-.33,1,.08.23,0,.12-.17.53-.3-.49c.06-.18.13-.36.18-.54l-.51-.58.1-2.38,0-.68q-.39,1.14-.75,2.25c-.26-.58-.38-1-.3-1l-.34-1c-.26-2.32-.12.15-.14.16,0,1.45-.1,3.22-.25,5.14-1.64,5.41-3.12,10.74-4.49,16l.14.33L121.82,79l.05.11,0,.11,0,.1c-1,3.8-1.9,7.58-2.83,11.37l-5-1,.28-2.16,0-.35c-2.22-.43-5.21-1-.65-.13h0v.1l-.06.44-.12,1-.12,1,0,0-1.32-.26.2-1.58-.07-.1-.06-.1-.06-.1,0-.32,0-.15h0v-.06h0c-4.76-.93-.25,0,1.51.29l-24.69-4.8h0v0l22.39,4.35h-.07v.18l-.43-.08v-.14h0l-1.87-.37,1.91.37-20.64-4h0v0l0,.07,19.17,3.73h0v0l0,0h0l-17-3.32,0,.18-.2.71-.34,1.21-.64-.12.56-2.07,0-.08h0l1.49.29-2.94-.57h0l-.59,2.14-.43-.08.49-1.76.08-.3,0-.15v0h0l-.87-.17,0,.09-.06.24-.26,1-.28,1L87,84.4l.3-1.09.26-1,.06-.23h0l1.52.29h0l-1.51-.29,0-.11V82h0l26.84,5.22h0v0h0c-54.93-10.67-15.23-3-27.49-5.33v0l0,.09,0,.07,0,.11-.2.71-.39,1.43v0c-31.21-6.06,7.66,1.49-8.42-1.63h0v0l-.08.57-.14,1.11-.28,2.22.06.1.12.21-.37,3,.06.1.06.1.06.1-.37,3L76.51,97l-.12,1-.12,1,.06.1.06.11.06.1-.12,1-1,7.86.12.2.06.1-.12,1-.11,1-.12,1,.06.1.06.1.25.4-.7,5.9,0,.1.07.1.06.1-.35,3-.35,2.95-.12-.2-.06-.1-.23,2-.35,3-.11,1-.13-.2-.06-.1L73,132.35l-.22,2-.45,3.94-.13-.2-.06-.11-.22,2-.11,1-.25-.4-.13-.2L71,144.13l-.16.6-.26,1,0-.11,0-.11,0-.11-.79,2.85.09.22,0,.11L69,151.37l.42,1-1.05,3.8-.52,1.9,0-.11-.05-.11,0-.1-.26.94-.26,1-.52,1.9-1.31,4.75-.26.95,0,.11,0,.1,0,.11-2.36,8.55.1.22,0,.1-.52,1.9-.26.95-.26,1-.26.95-.27,1,.05.11,0,.11,0,.11-.26.95-.76,2.74,8.06,2.16,0,.47-.37,4-.27,3-.09,1,.07.1.13.2-.27,3-.19-.29-.17,2-.08,1,.06.1.07.1.06.1-.08,1-.08,1L67,209l.2.3,1.27-15,.06.1.07.1.06.1.09-1,.09-1,.09-1,.06.1.13.2.19-2,.09-1-.06-.1-.07-.1-.06-.1-.16-.25.82.22-.18,1.91-.27,3-.44,5,.06.1.07.1.06.1-.09,1-.08,1-.09,1-.08,1-.08,1-.08,1,.06.1.13.2c-.57,7-1.1,14-1.5,21.12l.21.3-.06,1c-.33,6.51-.63,12.93-.49,20.2l.06,2.33.16.21.07.11c0,.37.06.87.09,1.3l.1,1.34.1,1.35.09.12.25.35c.58,2.77-.06,2.89,2,8.69l.73,1.7A14,14,0,0,0,73,268.76c3.16,3.95,7.89,6.92,12.54,7.52a16.44,16.44,0,0,0,5.43,0c.11.44.25.87.39,1.31-6.84.95-11.61-1-16.19-4.66a22.93,22.93,0,0,1-5.33-6.45l-1-2.13A36.4,36.4,0,0,1,67.37,260a50.91,50.91,0,0,1-1-7.44l-.25-.37c-.13-1.45-.14-2.55-.17-3.74l-.16-.22-.07-.11,0-1.18,0-1.17v-1.1l-.15-.2-.07-.11v1.1l0,1.15,0,1.18-.23-.32c-.1-5.05,0-9.59.22-14.11l-.41-.6,0,1,0,1,0,1.06-.07-.1-.07-.1-.07-.11,0,1.07-.09,3.18,0,3.28c0,2.53,0,5.28.15,8.2a58.4,58.4,0,0,0,.64,6.16l.52,2.92a36.77,36.77,0,0,0,2.24,6.2c.16.35.28.62.5,1a23.65,23.65,0,0,0,2.48,3.53A24.52,24.52,0,0,0,78.37,277c3.26,2,8.25,2.94,13.5,2.14a21.93,21.93,0,0,0,6,8.57,23.53,23.53,0,0,0,2.95,2.19l.7.42.34.19.17.09c-3.63-1.36,5.14,2,4.25,1.63l.54.12,2.27.36a25,25,0,0,0,4.91.1,24.26,24.26,0,0,0,2.84-.4v.05l.13.32.13-.43.49-.11-.07.25-.28,1,0,.1,0,.11.05.11-.61,2.13-.3,1.07-.15.53-.08.27,0,.06v0l.92.25,0,.11h0l1.91.52h0v0l0-.09.42.12v0l0,.06v0l.85.23h0l0-.07v0l.63.17v.12h0l18.24,5h0l-19.72-5.39h0l-.28-.07,20.85,5.7h0l.42.12h0l1.91.52h0v0l0-.08h0l.92.25h0v0l0-.14.16-.59a14.82,14.82,0,0,0,2,1.17c.24.13.48.23.73.35l.71-.41a21.12,21.12,0,0,1-3.25-1.79l.35-1.28.39.2a20,20,0,0,0,3.94,2l1-.56h0l-.26-.09-.52-.2-1-.45-2.06-1.12c-.39-.25-.74-.53-1.11-.81l0-.19.34.25a19.58,19.58,0,0,0,3,1.73l1.53.63.09,0,.05,0h0l13.31-7.68.18-.1-.12.06c.44-.24.8-.45,1.09-.63l-.7.41.53-.3h0v0l0-.09.05-.18.09.21,0,.12v0h0l-15.52,9,.39.17.27.1.07,0h0l15.63-9h0v0l0-.11.07-.24.13-.48.26-.95.52-1.9,1.05-3.79-.05-.11,0-.11-.05-.11.78-2.85,1.05-3.8.78-2.85.53-1.9.18.44.1.22-.53,1.9-.26.95.05.1,0,.11.19.43,1.57-5.69.09.22,0,.11.27-1,.52-1.9,0,.11.1.22,4.59-16.67.17.28-.13,1-1.14,8.79-.25,1.95.12.21.06.1-.25,1.95-.13,1-.5,3.91-.51,3.91-.12,1-.06-.1-.13-.2-.12,1-.13,1-.5,3.91-.38,2.93-.25,1.95-.13,1,.08.13-.22.7-.29.89-.28.89.13.31.72-2.3-.71,5.54.18.3-.34,2.6c-.75-.35-1.4-.64-1.83-.82l1.83.83,0,.32.06.11.06.1.06.1-.38,2.93-.19,1.46,0,.37,0,.18v0h0c-2.12-3.12,18.34,27.16,9.74,14.36l.53.12a14.17,14.17,0,0,0,2.39.27,13.6,13.6,0,0,0,5.62-1.05c8.56-5.61,4.68-4.26,6.15-5.16l1-1.68c.68-1.5,1.15-2.61,1.51-3.56h0l-.45-.06.45.06h0c3.75.48,5.51.71.42.05h0l2.4.31h0l-2.4-.31h0v-.12l.19-1.46,0-.31c.21-.62.41-1.23.66-1.92l-.07-.23,0-.12.32-1,.33-1,.32-1,.3-1,.61-1.94-.08-.23,0-.11c.73-2.36,1.43-4.7,2.13-7l-.46,3.54-.5,3.91,0,.4-.37,1.22.15.44-.23,1.85-.51,3.9-.07.58-.94-.28h0l.92.28-.18,1.37-.06.48v0h0l1.12.14,1,.13-.07.45-.06.36,0,.18v.12h0l-.83-1.26,10.6,16.14h0l.42.09c-3.54-5.38-11.11-16.9-9.8-14.92h0l0-.12.15-1v0l1.53.19-1.53-.19.23-1.42,1.48.45-.18,1.16v.06l.12.2.06.11.15-1,.07-.48L207,310l.25.07.51.12h0l.07,0-.07,0-.2,1.25-.11.73h0c-1.41-2.12,12.15,18.45,6.48,9.76l.59.12,1.37.13a9.12,9.12,0,0,0,3.41-.62,9,9,0,0,0,4.75-4.34,6.32,6.32,0,0,0,.36-.83c.14-.34.32-.88.38-1.08l.16-.55h0l.8.12h0l0,.15a.66.66,0,0,0,0-.15h0l3.28.5h0l-3.28-.5,3.28.5h0c-.07.29-.16.6-.25.94,0,.08-.29,1-.56,1.63l-.21.51a4.76,4.76,0,0,1-.35.74,13.12,13.12,0,0,1-10.55,7.1,12.68,12.68,0,0,1-2.93-.07l-1.2-.22-.27-.06.35.52a13.41,13.41,0,0,0,3.71.3c7.91.61,13.34-10.76,11.64-8.12l.32-.79c.18-.47.43-1.26.44-1.31.12-.42.22-.78.3-1.1,2.51.37,1.16.17,0,0h0l.16,0h0l.65.1h0c1,.15,1.41.21.87.14h0L233,316h0l-1.74-.26h0l0-.18.06-.37.12-.73.22-1.46-.06-.1-.05-.1-.06-.1.15-1,.15-1,.15-1-.11-.21-.06-.1.45-2.92.3-1.95.15-1,.06.11.06.1.06.1.3-1.95.46-2.92.15-1,.05.1.06.1.06.1.15-1,.15-1,.46-2.92.6-3.89-.17-.31-.46,2.92-.17-.31L235,289l.18.31.45-2.92-.17-.3.9-5.84-.17-.31.45-2.92.53.92.9-5.84-.07-.13-.1-.18,0-.14.43-2.78.18.31-.39,2.48,0,.31,0,.13.12.21.06.1-.15,1-.3,1.95.17.3.3-1.94.15-1,.06.11.06.1.06.1.15-1v-.08l.05-.3h0v-.09l.45-2.6.07.45.22,1.34.19.22-.1.7h0l-.84,0v.08h.83l0,.2-.2,1.31-.15,1-.06-.11-.06-.1-.06-.1-.15,1-.15,1-.15,1-.15,1-.46,2.92-.6,3.89-.15,1,.06.11,0,.1.06.1-.15,1-.6,3.89-.34,2.13-.12.64-.59,2.91-.19,1-.2,1-.2,1,.06.11.11.21-1.82,8.81.11.22.05.11.21-1,.21-1,.2-1,.12.25-.14.94c-.35,1.68-.71,3.37-1.1,5.14l.15.34.23-1,.1-.46,0,.17-.15,1,.06.1.05.1.06.1-.15,1-.15,1-.15,1-.08.49V316l.44.07h0v-.06l0-.1.06-.43.13-.85.54-3.41.15-1-.06-.1-.06-.1-.06-.11.44-2.79.46-2.23.4-2,.59-2.93.4-1.94.58-2.91.58-2.91.58-2.89L238,289l2.9-14.48-.06-.1-.05-.11,0-.1.19-1,.19-1,.07-.34h1.24c.23,1,.48,1.93.77,2.95l.12.12.11.11.12.12a11.11,11.11,0,0,0,1,2l1.37,2.15a8.84,8.84,0,0,0,2.28,2.38l.38.19.76.35,1.16.46,1.42.71.72.3.25.1c1-.65,2.62-1.71.45-.3h0l-.07,0-.12-.05-1-.42-2-1.09a12.17,12.17,0,0,1-4.57-4.9l-.18-.16-.18-.17-.18-.16a8.56,8.56,0,0,1-.84-1.83l-.49-1.51-.39-1.32h.89a18.65,18.65,0,0,0,4.27,8,15.59,15.59,0,0,0,2.88,2l1.57.75.39.16.2.07.1,0c7.92-5.14,10.9-7.06,11.71-7.6l-.06.39,0,.13,0,.07h0l-12.24,7.94.1,0,.18.06,0,0h0l12.34-8h0v0l.12-.71.24-1.44.5-2.88-.05-.11-.06-.1-.05-.1.16-1,.17-1,.17-1-.06-.1-.05-.1-.06-.1.17-1,.13-.75,1-.39-1,.37v0c1.83-.73.27.13.71-.78l-.15-1,.24.11c-.17-1.23-.28-2.86-.34-4.61q1.53-8.49,3.13-17l-.17-.31q1.74-9.21,3.6-18.39l.28.46-.64,5.66.06.09.07.1.06.1-.11.93-.1.94-.37,3.74-.35,3.72-.07.92-.07.92.06.09.13.18,0,.48-.13.65,0,.11,0,.05-.06.88-.05.26-.2,1-.2,1,.16.32.1.19,0,.58.34.44.13.18.21.26.1-1.78,0-.9-.06-.09-.07-.09-.13-.19.07-.91.32-1.59,0,0,.07.09.06-.86.79-3.83.1.21.06.11.05-.26v.1l.07.1.07.09.07.1v3.13l.22.3c0-2.09,0-4.12.06-6.15l.07-.33.05.1.06.11.05.11.2-1,.21-1,.2-1,.05.11.05.1.06.11,1.86-8.77-.16-.32.63-2.92-.1-.21-.06-.11.21-1,.21-1,.22-1-.11-.21-.05-.11-.21,1-.21,1-.21,1-.16-.32,2.8-12.67-.3-.65-.22,1-.22,1-.22,1-.05-.11-.05-.1-.05-.11-.22,1-.65,2.93-.64,2.92-1.49,6.82-.83,3.91-.62,2.92-.43,2.07v-.11l-.07-.1-.06-.09-.06-.09.11-.95.1-.94.11-.94.1-.94.11-.93.1-.94-.06-.1,0-.06.87-4.35.16.31.58-2.87-.16-.32.2-1,.14-.69-.11,2,.41.59.15-3,.13-2.47.06-.3.6-2.87.2-1,0,.11.06.1.05.11.4-1.91.61-2.87.2-1-.05-.11-.05-.11-.06-.1.21-1,.21-.95.21-1,.05.11.05.1,0,.11.21-.95.21-1,.62-2.86.62-2.79,0,0,0-.31.17-.76,0,.11.11.21.42-1.9.65-2.85.13-.59-.26,3.53-.15.59-.23,1-.23,1-.05-.11-.05-.11-.05-.11-.23,1-.23,1-.23,1,0,.1.05.11,0,.11-1.35,5.86.45,1,1.92-8.24-.13,1.92-.05.79-.76,3.25.3.65.22-1,.06-.22,0,.46-.19,3-.19,3,.21.3,0,.3-2.83,12.7-.07.31.06-1.33-.2-.29-.14,2.91-.07.34.1.21.05.11-.21,1-.2,1-.21,1,.05.11.15.32-3.05,14.61-.21-.43-2.31,11.44c0-.23,0-.45,0-.66l-.07-1.18-.16-.22-.08-.1.07,1.18.07,1.21.06.52-.06.29-.07.37,0,.1v.07l.25,0,.14,1.33c0,.43.1.91.23,1.61a27.16,27.16,0,0,0,1.08,4.59,28.12,28.12,0,0,0,1.65,3.87,19.18,19.18,0,0,0,9.45,8.22l1,.37.48.15.24.08,0,0,21.48-13.52h0l0-.12-.1-.18-21.28,13.39-.23-.07L287,273a18.75,18.75,0,0,1-3.81-1.8,19,19,0,0,1-6.1-6.05A16,16,0,0,1,276,263a22,22,0,0,1-1.72-5.64l-.33-1.88-.15-1.36-.09-.12-.09-.12-.08-.12,0-.29,6.3,1c0,.35.11.77.18,1.18a19.25,19.25,0,0,0,1.57,5.27c.1.22.36,1.25,2.47,3.48a12.84,12.84,0,0,0,3,2.18l1.59.72.21.07.56-.35h0l-.17,0-.7-.2a12.77,12.77,0,0,1-6.11-5.22l-.89-2a14.7,14.7,0,0,1-.87-3.11l-.28-1.54-.1-.13-.18-.25h0l.91.14c.06.44.14.9.25,1.43l-.1-.13-.09-.13-.1-.13.29,1.51a19.06,19.06,0,0,0,1.31,3.67,12.08,12.08,0,0,0,4.36,4.62,13.13,13.13,0,0,0,1.76.88l.43.16.22.08.1,0,.06,0h0l12.71-8h0l.08.15,0,0h0l-13.51,8.49.17.07.2.06h.06l13.55-8.53h0l0-.08.14-.72.09-.46.19-1-.05-.1-.06-.1-.05-.11.38-1.91.19-1,.39-1.93c1.93-.48,4-1,5.76-1.34a.45.45,0,0,1,0-.14c0-.25-.05-.54-.08-.87l.33-.15a11.18,11.18,0,0,0,1.76-1.26,13.93,13.93,0,0,0,2.26-2.41l.22-.85.1-.42a12.09,12.09,0,0,1-1.73,2.27c-1.12.73-1.1,1.5-3,2.35,0-.23,0-.46-.05-.71l.23-.13a15.52,15.52,0,0,0,1.81-1.47,10.91,10.91,0,0,0,2-2.4,15.48,15.48,0,0,0,1-1.65c.4-.82.92-1.8,1.18-2.49l.46-1.12,0,.14,0,.26.46-1.11.42-1.18c-1.29,0-2.62.14-3.9.28.89-.11,1.79-.2,2.69-.25l.5,0h.71l.81,0h.1a21.2,21.2,0,0,0,2.14,0l-.27.76,0,.13,0,.13,0,.13c-.26.71-.53,1.44-.88,2.26l-.49,1.19,0,.29,0,.14c.48-1.17,1-2.46,1.4-3.5l0,.13.07.26.7-1.94c2.38-.1,5.21-.29,5.3-.22h.06c.86,0-.4,0,.16,0,0,0,0-.21,0-.36,0-.58.15-1.58.25-2.53l-.06-.08-.07-.07-.06-.09c.3-2.35.72-5,1.18-7.66l-.06-.09-.12-.2.49-2.71-.06-.1,0-.1-.06-.1.52-2.75.72-3.7.18-.93.19-.92-.06-.1,0-.1-.05-.11.19-.93,1.57-7.5-.11-.2-.05-.11.2-.94.21-.94.2-.94-.05-.11,0-.1-.21-.42,1.25-5.65-.05-.11-.06-.1,0-.11.64-2.83.65-2.84.1.21.05.11.43-1.9.66-2.83.22-1,.1.21.05.11.66-2.84.45-1.9.89-3.78.1.21,0,.1.45-1.89.23-.95.2.43.1.21.91-3.79.91-3.78.93-3.79.46-1.89.23-.94-.05-.11,0-.11-.05-.1,1.41-5.66-.09-.21-.06-.1.24-.94.12-.46,0-.23,0-.05v0h0l-10.68-18.06ZM269.29,50.89l0,.09.05.11-.25.95,0,.16Zm-113.74.2c.06-.47.14-1,.22-1.48a44.06,44.06,0,0,1,.21,7.72l-.42-.63a45.89,45.89,0,0,0-.05-5.33ZM155.42,60l.2.31-.2,2.66-.26.22Zm-2.48,30,0,.06,1.36-5.3-.57,2.7-.61,2.87L153,90l-.16.73Zm-23.63-35.8-.11-.61h0l.07,0,.07,0,0,.73A1.44,1.44,0,0,1,129.31,54.17Zm-59.25,98-.21,2-.1,1,.06.1.06.1.06.1-.63,5.92.13.21.06.1,0,.38-.77,2.81-.1-.22,0-.11-.26,1-.52,1.89-.27,1,0-.11-.1-.22-.52,1.9-.78,2.85-.26.94-.05-.1,0-.11,0-.11-.26,1-.26.95-.79,2.85-.26,1,0-.11,0-.11-.05-.11-.78,2.85,0-.11,0-.11,0-.11-.79,2.85-.14-.32.79-2.85.52-1.9.26-1,0-.11,0-.11,0-.11.26-.94.26-1,.26-.95.78-2.85-.14-.33.27-.95.26-.94.26-1,0-.11,0-.11-.05-.11,1.05-3.8.52-1.9,1-3.79.78-2.86-.14-.32,1-3.8.28-1Zm3-3.34.21-1.91.06.1-.11.41.14.32Zm.72-10.39-.22,2,.18.3-.22,2-.11,1-.19-.3-.11,1-.11,1-.43,3.94-.24,2.23-1.47,5.3.31-2.82.32-3,.22-2,.33-2.95.21-2,.28-2.5.09-.29,1-3.81.39-1.38ZM75.64,132l-.34,3-.11,1-.12-.2-.07-.1-.33,3-.11,1-.23,2-.12-.2-.06-.1.11-1L75.1,133l0,.09.26-.95.26-1,.14-.51Zm.61-7.16-.23.86-.15.53.09-.73.23-2,.18.3Zm1-13.71-.12,1-.12,1-.58,4.91-.24,2-.06-.1-.12-.2-1.57,13.52-1.15,4.18.44-3.86.37.6.68-5.9-.37-.61L76.6,109l.23-2-.18-.3.24-2,.12-1,.06.1.12.21.37-2.95,1.09-8.85.55.91L77,110.87Zm4.15,139.26c-.23-.27-.15-.34.11-.26C81.44,250.27,81.39,250.37,81.37,250.43Zm.87.19a.9.9,0,0,0-.21,0,1,1,0,0,0,0-.13l0-.05.23.12Zm.22.08v0l.21.11.24.15A3.91,3.91,0,0,0,82.46,250.7Zm2.72,2c-.41-.36-.78-.67-1.09-.92C84.47,252,84.84,252.35,85.18,252.66Zm.23.21c.07.07.15.13.21.2l.15.18Zm1.84,1.94c.28.23.51.4.7.54l.24.25A4,4,0,0,1,87.25,254.81Zm1.41,1.93v0c0,.06,0,0,0-.09s0-.13,0-.23v.2a2.18,2.18,0,0,1,.17-.36h0C88.75,256.54,88.68,256.7,88.66,256.74ZM90.41,85.07l.1-.35.17.4Zm27.8,13.19.11.27-.67,2.45v0l0-.11ZM110.83,87.8l.08-.61,0-.3v0l.43.08-.07.5-.15,1.21-.06.45-.43-.08Zm-2.47.32.18.31.18-1.46,0-.36v-.16h0l.76.15.09.14-.26,2-1.08-.21Zm-9,89.63.58.89.68-6.69.41-1.47-.1-.22,0-.11-.13.48.07-.77-.19-.3.74-6.79.09-.37.19-.85.61-2.22.79-2.85.78-2.86.79-2.84.78-2.85.78-2.85.79-2.85.52-1.89.26-1,0-.11,0-.11,0-.11,1-3.8.26-.95.26-.95,0-.11-.09-.21.26-.95.52-1.9-.14-.33.27-1,.26-1,.26-.95,0-.1,0-.11,0-.11.78-2.85-.27-.65.52-1.9.26-1,0-.11,0-.11-.05-.1,4.73-17.17c-.2.83-.4,1.66-.59,2.49l.2.43,0,.11.05.1.22-1,.23-1,.22-1,.05.1.06.11.05.11-.46,1.92-.22,1,.06.13-1.74,6.33.14.33.09.21.05.11-.26,1-.53,1.9-.78,2.84-.28-.65-1.57,5.7.28.65-1.57,5.7.09.21,0,.11-.26.95-.26,1-.27.95.28.65-.52,1.9-.26.95,0,.1.1.22-.27,1,.07-.69-.31-.5-.06-.1-.11,1-.11,1-.11,1L108,140l-.06-.1-.06-.11-.11,1-.22,2-.15,1.26-.68,2.48,0-.1-.35,1.51-1.16,4.22.26-2.39-.18-.3-.33,2.93.13.2h0l-.65,2.38.27.65.2-.71-.08.7.19.3-.17.76-.22,1-.22,1,0,.1,0,.11h0l-1,3.49.28.64,2.35-8.54-.25-.58.3-1.32.22-1,.21-1,0-.1-.06-.11,0-.11.22-1,.22-1,.22-1,0-.1-.06-.11,0,0,0,0,.09.21,0,.11.34-1.24.27.44.28-2.44.67-2.46.79-2.84.78-2.85.28.65.65-2.38-.06.28.31.64-.22,1-.22,1-.65,2.89-.22,1,0,.1.1.22-.22,1-.21,1L109,147l.16.32-5.89,25.91.1.21,0,.11-.22,1-.22.95-.22,1-.05-.11,0-.11,0-.1-.44,1.91-.71,3.11c.1-1,.19-2,.29-3L101,176.9l-.29,2.92-.76-1.18-.1,1-.19,1.95-.07-.1-.06-.1-.07-.1-.28,2.93-.07-.1L99,184l-.07-.1-.09,1-.19,2-.2-.29Zm13.25-50.44-.09-.21,1-3.8.53-1.9.49-1.78-1.66,7.21-.87,3.85,0-.08-.09-.22,0-.11.26-1,.26-.95.27-1Zm-7.12,25.3-.18.82-.12.49,0-.39Zm-.47,3.06,0,.19,0-.23ZM98.36,279.42a16.94,16.94,0,0,0,6.32,6.07l0,0c6.08,2.3,1.7.64,3.06,1.15h0l.07,0,.16,0,.31.06.63.11,1.33.16a19.53,19.53,0,0,0,5.63-.31c.5-.1,1-.22,1.46-.35l-.37,1.31,0,.11,0,.11,0,.11-.26.95-.34,1.21a23.11,23.11,0,0,1-4.75.46,24.87,24.87,0,0,1-2.91-.22l-1.36-.22-.66-.14h-.05l-3.71-1.41h0l-.05,0-.2-.11-.41-.23-.85-.53a20.74,20.74,0,0,1-7.56-9.06,25.33,25.33,0,0,0,3.36-1.1A14.53,14.53,0,0,0,98.36,279.42ZM96.8,252.8c0,.18,0,.28,0,0Zm-.72.12h0l.11,0h0a4.09,4.09,0,0,1,.55-.09l-.53.09c.13,0,.14.11.14.18l-.23-.11-.06,0-.22,0a1.17,1.17,0,0,0,.2-.06Zm-1.87.58.48-.15-.49.18Zm2.26,21.3c.11.45.24.91.4,1.37a16.45,16.45,0,0,1-2.41.84l-1,.21c-.15-.44-.25-.89-.37-1.33A23.27,23.27,0,0,0,96.47,274.8Zm-4.88,1.43a0,0,0,0,0,0,0c.39-.07.76-.14,1.14-.23.13.44.26.89.41,1.33l-1.17.21C91.82,277.08,91.7,276.66,91.59,276.23Zm25.48,15.44a20,20,0,0,1-4.23.51,24.88,24.88,0,0,1-5.77-.49l-.33-.07-.16,0-.09,0c-1.8-.68,4,1.52-4-1.52l-.1-.06-1.69-1A22.52,22.52,0,0,1,97,286,22.14,22.14,0,0,1,92.51,279c.39-.06.78-.15,1.17-.24a18.08,18.08,0,0,0,5.77,7.92,20.18,20.18,0,0,0,1.81,1.35l.87.55.42.25.21.11.1.06,0,0h0l3.8,1.45,1.36.26a22.39,22.39,0,0,0,2.9.31,22.85,22.85,0,0,0,5.46-.4l-.06.21.14.33.16-.59.72-.15Zm.74-.17-.5.13.35-1.22.31-.08.06.13,0,.11Zm1.21-5-1,3.41-.2.05h0l-.13-.33-.12.4-.72.16.49-1.79.52-1.9.06-.22c.45-.14.89-.29,1.31-.46Zm7.33-216.22,0,.29,0,.1-.05-.11,0-.11,0-.11-.52,1.94-.26,1,0-.11,0-.11-.09-.22-.24-.55.25-1,1.08-3.88.27-1,0,.12,0,.11,0,.11.06-.23h0Zm.65-8.57-.07.88,0,.29q-1.23,4.22-2.37,8.4l-.28-.67q1.34-4.86,2.8-9.8v0Zm1.36.85-.16.53.07-.66.06.09,0,0ZM130,55.89c0-.12-.08-.23-.12-.32l.33-1,.12.36Zm9.22,248.28v0h0l-.64-.18,0-.11.63.18Zm1.28.32,0,.06h0l-.42-.11h0l0-.1.42.11ZM152.57,91l.06.1.06.1,0,0-.14.65-.21.95.15.32-.72,3.3.22-1.53.42-3Zm-.46-8.07.18.3-.38,3-.18-.31Zm-2.05,14.76.18.31-.29,2-.09.63-.07-.15,0-.11-.19.76C149.72,100,149.9,98.83,150.06,97.69Zm-2.72,19.72-.22,1-.22,1-.22,1-.22,1,0,.1c.17-1.06.33-2.11.5-3.17l0-.12.21-1,.88-3.82.05.11.1.21Zm2.29-12.11-.43,1.91-.16-.32,0-.1-.05-.11-.05-.1-.22,1-.21,1,0,.18c.25-1.65.49-3.3.74-5l.66-2.76.05.09.06.1.06.11-.44,2.94.12.2.11.2Zm4.58,183.37h.06a.73.73,0,0,1-.2.1A.63.63,0,0,0,154.21,288.67Zm-1,1.29h.11C156.51,289.87,155.54,289.89,153.21,290Zm1.11,0Zm-.37-1.16h0Zm-.13.07.11-.05-.12.06Zm-.3.27h0l0,0Zm-.08.1s0,0,0,0h0l0,0Zm0,.07,0-.05,0,.05Zm-.2.46h0v0h0Zm0,.15h0v-.05h0v0l0-.07h0v-.09h0l0-.06v0h0l.08-.14,0,0,0,0,.12-.22h0a.08.08,0,0,1,0,0h0l.06-.07-.06.07-.29.59,0,.18h0Zm0,0Zm0,0h0Zm0,0Zm0,0h0Zm.62,0Zm-.55,0h.18C157.55,290.15,156.3,290.1,153.26,290Zm1.78-2a7.76,7.76,0,0,1-.61.56l.09-.09.22-.22h0l.18-.15-.06.05.21-.18a4,4,0,0,1,.38-.34l.35-.26c-.24.18-.46.35-.65.52l-.08.08c.26-.22.54-.45.84-.67l.3-.19C155.79,287.39,155.38,287.71,155,288Zm3.32-2Zm0,0h0l0,.23Zm.42-.1h0C158.83,286,158.81,286.12,158.79,285.88Zm.86-.28.09,0h0ZM172,301Zm.81.36h0l-.18-.1h0l.2.1Zm21.53,7.93h0Zm-.8-180.19.13.31v0l-.12.44-.16-.26ZM189.33,185l.53-1.9.09.21.05.12-.2,1.54-.45,1.62-.28-.64Zm-5,122.72Zm-3.21-65.51-.06-.1.25-2,.13-1-.06-.1-.12-.2.38-2.93-.06-.1-.07-.1-.05-.1.75-5.86-.18-.3-.12-.21-.06-.1,0-.43,0-.1.52-1.9.79-2.84.52-1.91.23-.84-.85,6.61.12.2.06.1-.12,1-.38,2.93-.51,3.9-.12,1,.12.2.06.1L182,240l.14.24-.22.8-.26.95-.68,2.49.28-2.15Zm2.45,65,0,0a1,1,0,0,0,.23.11A.76.76,0,0,1,183.59,307.12Zm.09.06h0Zm-5.08-75.51.13.33,1.05-3.8.26-1,.27-1,0,.11.09.22-1.83,6.65-.52,1.9-.28-.66Zm-4.71,17.09.26-.95.52-1.9.05.11.09.22-1.57,5.69-.13-.32Zm3,13.65,1.14-8.79.25-2-.12-.2-.06-.1.25-2,.13-1-.12-.2-.25-.4.38-2.94-.18-.3-.73,5.64-.16.59-.27,1-.09-.22,0-.11-.53,1.9-1,3.8.14.33-1,3.79-.52,1.9-.09-.21-.05-.11-.52,1.9-.27.95,0-.11-.09-.22.78-2.85.52-1.9.26-.95,0-.11-.05-.1,0-.11.52-1.9.78-2.85,1.05-3.8-.05-.1,0-.11,0-.11.26-.95.27-1,.52-1.9.26-.95.26-.95-.05-.11-.09-.21.26-.95,1.15-4.15.05.09.06.1.25.41-.26,2-.12,1,.06.1.06.11.06.1L178.47,252l.06.1.13.2-.26,1.95-.12,1-.51,3.91-.38,2.92-.25,2-.18-.3-.18-.3Zm.4-10.31.09-.31,0,.39ZM175.8,290l0-.11,0-.1-.6,1.94,1-8-.19-.3.76-5.86-.12-.2-.06-.11.38-2.92-.06-.1-.06-.1-.06-.11,1.13-8.78.18.3-.38,2.93.13.2.24.4.38-2.93.38-2.93.5-3.9.13-1,.12-1-.06-.1-.06-.1-.06-.1.13-1,.63-4.88L180,251l-.06-.11.38-2.93.18.31.28-2.16,1.52-5.53.06.11-1.13,8.79.12.2.06.1-.13,1-.38,2.93-.5,3.91-.12,1,.12.21.06.1-.13,1-.13,1-.12,1,.12.2.06.1-.38,2.93-.18-.3-.13,1-.25,2,.12.2.06.1-.38,2.93L178,279.65l.18.3-1.06,8.24,0,.13-.85,2.76-.13-.32-.09-.22,0-.11-.28.92-.28.91-.29.9-.13-.32.57-1.82.28-.91Zm17.59,23.21-.61.89c.85-.61-3.92,4.63-7.78,4.22a10.64,10.64,0,0,1-2.65-.14l-.57-.11-.13,0c6.76,10-9.26-13.68-7.6-11.24h0v0l0-.12,0-.25.08-.58c-1.17-1.73-.92-1.37,0,0l0-.39.25-2,.16-1.22.83.43-.14,1-.38,2.93,0,.24v0h0c2.68,4,7.86,11.65,6.94,10.27h0l.24.06.53.1a10,10,0,0,0,7.59-1.94c3.18-3.07,1.29-1.4,2.11-2.27l.54-.85a15.79,15.79,0,0,0,.94-1.91c.22-.5.32-.76.46-1.12h.06v0l.05.28c0-.1.06-.18.1-.28l.67.09A20,20,0,0,1,193.39,313.21Zm1.82-3.84-.67-.09h0l.67.09Zm1.11-272.65a.32.32,0,0,1-.29.17Zm1.59,273h0l-.22,0h0l.22,0ZM199,59.14l-2.35-.46,2.35.46Zm0-.13Zm5.52-.78,2.17.42-.06.2-2.16-.41Zm-.29,1.93.15,0,0-.1-.15,0v0l.15,0,.32-1.14.06-.2v-.06h0l1.69.33-2.07-.4h0l2.16.42v0l-1.79-.35.22,0h0l0,.06L205,59l-.26,1,0,.14.35.07v0l-.36-.07,0,.1.37.07v0l-.38-.07-.17.64-.05-.11-.09-.21.1-.36-.15,0Zm2.43,214.68-.12.6-.18.61-.27,1,.05.11,0,.11-.69,3.44-.5,1.75-.11.35.12-.91-.06-.1-.06-.1-.06-.1.13-1,.29-2.24,1.4-4.85.13.33.06.15Zm.38,1.24.27-.95,0,.11.08.2,0,.14-.52,1.78-1.1,3.82-.12-.31.18-.89.19-1,.28-1.43.08.18.09.22.27-1Zm-2.2,7.62-.14.49.08-.63,0,0Zm-.28,1-.26.87.14-1.06ZM202.47,59.85l-.77-.15h0v0h0l-2-.4,2.81.55Zm0-.16-2.81-.55,2.81.55Zm.7,229.74-.65-1.66,1.92-6.65-.73,5.69.06.1.06.1,0,.06Zm-.82,11.31.25-.8.3-1,0,.11,0,.12,0,.11.19-.62c-.33,1.59-.66,3.18-1,4.74l.13-1.06-.18-.31Zm-.14,2.81.05.09,0,.1.05.1-.2.92-.26,1.16Zm-.42,3.21,0-.16h0l.06.09.05.1c-.1.43-.2.82-.27,1.13l0,.09Zm-.19,1.52c.17.06.09,0,0,0Zm0,0,1.5.46.11,0-1.61-.48Zm1.69.54-.23,1.5-1-.13-.68-.09h0v-.07l.14-1.1.08-.62,1.69.52Zm-.21-.24.13.08.06,0v.05c.05,0-.08,0,0,0h0c-.65-.19-1-.31-.68-.21l0-.08s.07-.27.11-.41c.17-.67.38-1.59.57-2.47l.4-1.83.2-.93.05.11.06.1.05.1.2-.93.2-.94.19-1,.16.32C204.29,303.45,203.64,306.56,203.11,308.62Zm1.73-17.69-.16.53-.29,1,0,.12.06.13-.12.6-1.75,5.7,1-7.88q1.52-5.1,3-10.17l-.07.33-.19,1-.77,3.86.1.21.06.1C205.44,287.9,205.14,289.41,204.84,290.93Zm3.37,19.34-.42-.1h0l-.95-.23.2.06-.1,0-.16-.06,0,0h0l-.07,0-.84-.27,1.86.52h0l.46.12Zm-1-40.29,0,.11.09.22-.27.95-.54,1.9-.4-1-.12.41.1-.8.26-2,0,0,.32-1.13.09.22,0,.11.27-.95.27-.95.27-1,0,.11.09.21.81-2.85,0,.11.1.22,1.59-5.71.14.32Zm5.43,41.72.12,0-.07,0,0,0,.13,0-.1,0,.25.11Zm2.75,1h0Zm.42.06.13,0,0,0A.68.68,0,0,0,215.83,312.79Zm.15.06h0v0Zm.18.53v0h0v0Zm0-.19v0l-.06-.17,0,.11v0ZM206.85,59.05v0l17.46,3.39h0v.11l-.06.43-.1.78v.11l1,.19v0l-1-.19V64l.95.18h0v0l-.94-.19-.41,3.21-.25,1.95-.37-.61.38-2.92.18.3.25-2v0l-.18,0,0-.06.21,0,0-.1-.27,0v0l.28.06v-.11l.09-.68.07-.49v-.17ZM221.61,81.7,221,86.49l-.18-.3.38-2.93v0Zm9.5,227.76-.3,2,.11.2.06.11-.45,2.92-.12.72,0,.18v0h0l-.65-.1v-.11l.05-.3.09-.61.12-.78c.2-.85.39-1.65.56-2.44l.62-2.87v0l.06.1Zm0-1.45-.05-.11-.21,1-.22,1-.18.87-.16-.28.45-2.92.6-3.89.15-1,.16-1,0,.1.06.1.06.1.45-2.92.31-1.94.45-2.92.3-1.95.15-1,.16-1,.05.11.12.2Zm3.65-243.93-7.43,28.26.14.32-3,11.43-.76,2.85.15.32-4.26,16.06,0,0,.37-2.93.51-3.91.38-2.93.25-2,.24.4.12.2-.25,2-.13,1,.07.1.06.1.24.41.76-5.86.12.2.06.1.13-1,.25-2,.06.1.12.2L225.58,87l-.54-.91.25-2,.12-1-.12-.2-.06-.1-.25,2-.13,1-.12-.2-.06-.1-.25,2-.51,3.91.19.3-.51,3.91-.25,2-.12-.2-.06-.1-.26,2-.12,1-.06-.1-.13-.2L223,96.9l.26-2,.12-1-.06-.1-.06-.09-.06-.11.25-2,.38-2.93.51-3.91-.07-.1-.05-.1-.07-.1.13-1,.12-1,.26-2,.12-1,.13-1-.06-.1-.12-.2.12-1,.53-4.05.14-.53,0-.11,0,0,.12-.88.85-3.11.52-1.89.53-1.9,0-.12,0-.06v0h0l1.58.31-.31,2.37-.38,2.93-.12,1-.13,1-.13,1,.07.1.06.1.06.1-.13,1-.13,1-.5,3.9.18.31L229,69.46l.56-4.36.1-.77.08-.63,0-.33v-.16l0-.08h0l-.43-.09h0v.2h0l0,.24-.2,1.53-2.23-.43,0,.06,0,.13-.29,1.07.09.22.05.1-.52,1.9-.18.63v-.06l.25-2-.36-.61.21-1.65-.57-.11v0c.2,0,.4.08.57.11l0-.25.13-1,0-.24v-.22h0l-19.4-3.76.06-.21,22.83,4.43v0l2.39.47v0l0,.12-.24,1-.23.86-2.14-.42,2.14.42,0,.09.15.33.1-.38h0L232,65l.25-1,.1-.41v0l2.38.46Zm4.58,199.13-.06-.1-.06-.1.45-2.92-.11-.21-.06-.1-.59,3.78v-.06l-.17-.21-.08-.11.09,1.18v.16l-.17,1.1-.45,2.92-.18-.31-.3,1.95-.15,1-.06-.11-.11-.2,1.36-8.76-.18-.3.45-2.92.12.2.06.11.15-1,.46-2.92.38-2.46.17.35.47-2.28.14.25.11.2,0-.26c-.1,2.43-.22,4.81-.22,7.32l0,0-.05-.1-.06-.1-.17,1-.18,1-.17,1-.06-.11-.06-.1-.05-.1-.17,1-.17,1-.18,1,0-.1-.06-.1,0-.06,0-.13Zm0,5.07.12-.69.51-2.94.69-3.92.16-.91c0,.68,0,1.37.08,2.07l-.81,5.22-.15,1,.06.1.06.1,0,.1-.15,1-.15,1-.06.42C239.64,269.9,239.51,269.08,239.39,268.28Zm1.09,4-.78,3.86.16.32-.38,1.92-.2,1-.05-.1,0-.11-.06-.1-.19,1-.58,2.88.65-4.15.15-1-.06-.11-.05-.1-.06-.1.85-5.51,0-.19h.28l0,.09v.09h.44Zm.38-4.79-.34,2-.33,2,0,.2h-.27l1.22-7.84q.06.72.15,1.44Zm1.89-21.32-.05,1,0,.16-.54,2.94-.36,2,.11.21.06.1.18-1,.48-2.66v.31l-.05,1,0,1,0,1,.07.1.07.1.07.1c0,1.55,0,3.1,0,4.67l-.24,1.38-.35,2-.33,1.89c0-.74-.07-1.45-.1-2.17l.07-.45-.1-.17c0-1.29,0-2.56,0-3.81l0-.11,0,0c0-1.56,0-3.11.08-4.64l-.07-.1-.07-.1-.07-.11,0-1,0-1,0-.31,0,0,0,.1.06.11.61-3.9.6-3.89v0q-.19,2.47-.33,5Zm1.38-20.7-.11,1-.12,1,.07.1.12.2c-.09.82-.17,1.64-.25,2.45l-.15-.26-.18-.31-.17-.3-.3,1.94-.16,1,0-.11-.06-.1-.06-.1-.15,1-.46,2.92-.3,1.95-.23-.42-.12-.2.46-2.92.28-1.81.06.13.06.11.2-1,.4-1.92.21-1,.2-1,.77-3.64,0,0,.07.1.06.1Zm.31-4.67-.37,2.39.08.14-.07.6-.26-.52.41-1.92.21-1-.06-.11,0-.1-.05-.11.2-1,.21-1,.17-.8Zm3.61-186.91Zm16.24,57.57.16.31.06-.27,1.17,1.9-.12.58c-.5-.8-1-1.54-1.34-2.17Zm-.65-1.35v0l.2.32-.12.58c-.06-.09-.12-.18-.17-.27l.11-.56Zm2.63,178-.17,1-.16,1,.05.1.11.21-.74,4.33-.12.68-.74.48h0l0-.21.3-1.74.6-3.49c.25-1.46.52-2.91.78-4.37l.46-.19Zm.41-2.31-.11,0-.36.15h0l.3-.12.17-.07Zm4.51-188.44a19.34,19.34,0,0,0-5.89,2.11l.2-1.33c.18-.09.34-.19.53-.28a20,20,0,0,1,5.34-1.69Zm.29-1.89a12.82,12.82,0,0,0-1.32.27c.46-.16.9-.31,1.35-.45Zm11.9,118.24-.07,1-.07,1-.07-.1-.06-.1-.06-.08.11-.51-.29-.66.23-1,.18-.78.1.13.06.1Zm-9.36-86Zm3.34-3.15a7.84,7.84,0,0,1-2,.35c.12-.22.24-.44.37-.65a12.14,12.14,0,0,0,2.05-.35C277.63,104.11,277.5,104.33,277.36,104.56ZM278,205l-.16-.32.62-2.86.15.31Zm1.05-101.12a6.85,6.85,0,0,1-.77.39l.4-.64a3.19,3.19,0,0,0,.93-.58C279.46,103.22,279.27,103.5,279.06,103.83Zm5,78.22-.52,2.24-.22,1-.22.95-.05-.1-.1-.21,1.22-5.24Zm2.91-67h0c.32.45.79,1.14,1.36,2v.09l0,.13-.16-.22v-.25h0Zm.92,2.2,0,.38-.06.65-.39-.55.07-.71,0-.18v-.15h0l0,0,.36.52Zm.18.7,0-.06,0-.36h0l.12.16-.07.36Zm.3,1.16-.18-.25.18-.92.1.14Zm.15-1.54a.41.41,0,0,1-.05-.09v-.07l0-.15,0,0Zm2.08-21.87L279.34,77.56h0l-.08,0-.14,0-.59-.13-1.2-.2-2.43-.2a20,20,0,0,0-3,.25l.18-1.19a16.55,16.55,0,0,1,2.21-.16,22,22,0,0,1,5.13.58l.16,0h.07l11.91,19.31h0v0l0,.08,0,.18-.07.35.16.31.26.51v0l-.64.13v0l.1-.47.1-.47-.16-.31-.11.51-.17.82-.95.24.29-1.41.15-.69v0h0C288.64,92.63,289.65,94.27,290.57,95.75Zm4.17,30.84.5.71C295,127,294.85,126.74,294.74,126.59Zm.68-26.79-.81.07-.53.06a19.69,19.69,0,0,0-4.47,1.07l0-.08,0-.15a17.17,17.17,0,0,1,4.34-1.08l.52-.07q.5-.06,1-.09Zm.22,28.07Zm2.52-28.18c-.82,0-1.57,0-2.29.08l.06-.29a20.36,20.36,0,0,1,4.46.18Zm2.71,26.61s-.08,0-.2.22l0-.09,0,0C301.19,126,301,126.17,300.87,126.3Zm1.07,132.47h0l0-.08.06-.35.16.28ZM302,127.3c.12-.15.07,0,0,0Zm1.72-26.45.1.16-1.11-1.6h0l-.05,0-.47-.1-1-.17-2-.25a23.77,23.77,0,0,0-3.16,0l.18-.89-.05-.1-.05-.1,0-.11-.06-.1-.11-.21-.32,1.53q-.76,0-1.53.15l-.52.07c-.8.12-1.59.26-2.34.45-.56.16-1,.31-1.46.47v0l.19-1,.2-1-.05-.11h0c.25-.08.52-.15.8-.22L290.64,99l.16.31.35-1.64c.42-.11.87-.2,1.36-.29l.51-.08.74-.12a26.5,26.5,0,0,1,8.73.31l.51.11.12,0h.06c2,2.86,1.52,2.18.61.87,2.23,3.21,6.63,9.51,14.7,21.09h0v.15l0,.23-.05.48-.1,1-.27,2.92,0,.48c-.56.09-1.11.2-1.65.32v-.05l.1-1,.37-3.89-.13-.19-.06-.1.05-.48v0h0C309.82,109.61,305.87,104,303.72,100.85Zm14,26.72c-.37.06-.74.1-1.09.18l-.34.1,0-.5,0-.43c.47-.1.94-.19,1.43-.27Zm.11-1.13c-.49.08-1,.17-1.43.27l0-.34-.13-.19-.06-.1,0-.47c.55-.11,1.1-.24,1.66-.32Zm.81,110.45h0Zm4.17-.13.39,0v-.24l.15,0,.08,0c0-.09.05-.69.07-1l.06-.65.06.08.07.07.19.22.28.24c0,.33-.06.74-.08,1C323.26,236.6,325.56,236.64,322.81,236.76Zm6.18-108,.39.67c-.58,0-1.19,0-1.82,0l-.37-.63C327.81,128.75,328.41,128.74,329,128.75Zm1,75.82-.41,1.88.16.31-.39,1.88-.2.94-.05-.11-.11-.2-.58,2.81-1.66,8.37-.49-.9c.16-.89.35-1.79.53-2.68l.55-2.17.74-2.92-.05-.11-.05-.11,0-.11.71-2.92-.1-.21v0c.12-.6.24-1.19.37-1.78l1.68-7,.1.22.05.1.68-2.9.05.1.1.22.45-1.94.22-1,0,.06Zm2.22-16.06-.43,1.9-.15-.32.43-1.89.22-.95-.05-.1-.1-.21.43-1.9.67-2.85.66-2.84.23-.94.1.21.05.1.67-2.84.23-.95.45-1.9,0,.1-.41,1.89-.43,1.92-.87,3.86-.65,2.9,0,.05Zm10.75-36.16h0l-.05.22-.24.93-.05-.11,0-.1,0-.11-.24.94-.47,1.88-.05-.1-.05-.11-.05-.1-1.4,5.66-.7,2.84-.46,1.89-.69,2.84-.46,1.9-.9,3.79-.23.94-.05-.11-.05-.1-.05-.11-.45,1.9-.89,3.79-.31-.63L333.68,186l.3.63-1.08,4.83v0l.66-2.9-.44-.92,1.33-5.75v0l.05.11.05.1.22-1,.21-1,.43-1.93,1.08-4.81.21-1-.05-.11,0-.11-.05-.1.21-.94.12.27.23-1,.22-.95.93-3.78,1.15-4.73.24-1-.15-.32.7-2.84-.05-.11,0-.1-.05-.11.24-.94.23-.94.24-.94-.3-.64.24-.93.06-.23,0-.11v-.06h0l-.69-1.16.39.65c-1.46-2.48-4.08-6.91-8.5-14.37l.57-2.12Zm-5.28,6.88.24-1,.05.1.05.11.05.1.64-2.66.16.29-.55,2.25C338.1,158.67,337.9,159,337.66,159.23Zm2.31-3.89Zm-.45-5.69Z" fill="#c0d72f"/><polygon points="158.7 275.83 158.7 275.81 158.7 275.82 158.7 275.83 158.7 275.83 158.7 275.83" fill="#c0d72f"/><path d="M283.18,106.62c-.24-.4-.56-.9-.93-1.51Z" fill="#c0d72f"/><path d="M223.51,74.46l.84.17Z" fill="#c0d72f"/><path d="M122.43,95.86l.47.09Z" fill="#c0d72f"/><path d="M228.93,75.18l1.77.34Z" fill="#c0d72f"/><path d="M221.59,74.09l.2,0-.2,0Z" fill="#c0d72f"/><path d="M226.62,74.73l2.12.42Z" fill="#c0d72f"/><path d="M121.66,95.71l-.34-.06Z" fill="#c0d72f"/><polygon points="90.7 109.22 88.17 111.4 88.06 111.75 90.59 109.57 90.7 109.22" fill="#85a126"/><path d="M62,134.6l1-1.19,0,.15-.09.31c1.05-1.26,2-2.27,2.88-3.2l.23-.81a64.6,64.6,0,0,0-6.24,7.39l-.13.42-.07.21,1.3-1.82C61.29,135.38,61.64,135,62,134.6Z" fill="#85a126"/><path d="M225.26,46.86c-.13.19-1,.93-1.53,1.44l-.6.57V49l0,.1v.1l-.73.62-1.46,1.26-.05.22,0,.1.73-.62.73-.63.73-.63c.26-.22.42-.39.64-.58l.61-.57.37-.34a7.73,7.73,0,0,1,1.07-1.58Z" fill="#85a126"/><polygon points="207.58 62.56 204.74 64.26 204.57 64.59 207.41 62.89 207.58 62.56" fill="#85a126"/><path d="M235.06,48.23a13.81,13.81,0,0,1,2.83-.77c1.92.4.75-1.9,8.14,1.6a10.73,10.73,0,0,1,2.46,2.16A10.68,10.68,0,0,0,241,47a13.93,13.93,0,0,0-2.31.17,13.44,13.44,0,0,0-3.24.76Z" fill="#85a126"/><polygon points="215.93 55.9 213.48 57.85 213.37 58.19 215.82 56.24 215.93 55.9" fill="#85a126"/><polygon points="211.47 58.45 208.95 60.4 208.83 60.74 211.35 58.79 211.47 58.45" fill="#85a126"/><path d="M297.66,74.36Z" fill="#85a126"/><path d="M278.57,69.16h0Z" fill="#85a126"/><path d="M279.28,69.35h0Z" fill="#85a126"/><path d="M279.26,69.35l-.69-.19Z" fill="#85a126"/><path d="M278.56,69.16Z" fill="#85a126"/><path d="M294.09,93.54Z" fill="#85a126"/><path d="M293.93,93.5h0l.16,0Z" fill="#85a126"/><path d="M293.22,93.68l-2.85,1.62-.11.21-.06.11.95-.54,1-.54.95-.54.47-.27.24-.14.12-.07h.05l-.27-.08-.08,0Z" fill="#85a126"/><path d="M300.25,245.53Z" fill="#85a126"/><path d="M218.28,287.55a10.9,10.9,0,0,1-1.12-.41C217.59,287.3,218,287.44,218.28,287.55Z" fill="#85a126"/><path d="M194.48,283.11h0C192.52,282.67,192.92,282.76,194.48,283.11Z" fill="#85a126"/><path d="M292.42,91.44l-.1.06h.06Z" fill="#85a126"/><path d="M180.12,37.82h0C182.46,41.29,181.46,39.8,180.12,37.82Z" fill="#85a126"/><path d="M69.09,184.15c-.21,1-.36,1.62-.4,1.79C68.73,185.77,68.86,185.21,69.09,184.15Z" fill="#85a126"/><path d="M197.88,60.47,199.55,63Z" fill="#85a126"/><path d="M180.12,37.82l-.44-.65h0l0,0-.06,0,0,0c.15.21.3.44.44.65Z" fill="#85a126"/><path d="M67.64,194.92Z" fill="#85a126"/><path d="M67.75,194.86Z" fill="#85a126"/><path d="M292.38,91.51l2.06.55Z" fill="#85a126"/><path d="M292.38,91.51Z" fill="#85a126"/><path d="M69.55,182.14c-.13.56-.25,1.08-.35,1.54.1-.44.22-1,.35-1.54Z" fill="#85a126"/><path d="M176.64,274.82Z" fill="#85a126"/><path d="M199.05,62.19Z" fill="#85a126"/><path d="M80.49,217.46a1.58,1.58,0,0,0,.13.22A1.58,1.58,0,0,1,80.49,217.46Z" fill="#85a126"/><path d="M80.62,217.68Z" fill="#85a126"/><path d="M78.61,214.16l-.13-.22Z" fill="#85a126"/><path d="M79.43,215.6l0,.05Z" fill="#85a126"/><path d="M79.07,215c.13.21.25.43.36.62Z" fill="#85a126"/><path d="M79.46,215.65l1,1.81Z" fill="#85a126"/><path d="M79.07,215l-.4-.71s0-.08-.06-.11Z" fill="#85a126"/><path d="M110.92,273.3l0-.05C110.37,275.81,110.2,276.67,110.92,273.3Z" fill="#85a126"/><path d="M79.65,215.74Z" fill="#85a126"/><path d="M227.59,48.2v0C227.68,48.11,227.7,48.08,227.59,48.2Z" fill="#85a126"/><path d="M79.55,215.79c.49.85.83,1.46,1,1.72C80.39,217.27,80.08,216.71,79.55,215.79Z" fill="#85a126"/><path d="M184.9,270.25c-.37.06.28.24,0,0Z" fill="#85a126"/><path d="M68.84,196.78l.23.4Z" fill="#85a126"/><polygon points="226.35 49.09 226.3 49.22 226.33 49.18 226.35 49.09" fill="#85a126"/><path d="M234.71,285.17l-.42-.38,1.17,1.06h0Z" fill="#85a126"/><path d="M227.09,47.87l-.67.7-.07.52.05-.12C226.61,48.37,227.63,47.33,227.09,47.87Z" fill="#85a126"/><path d="M180.12,37.82h0C176,31.66,178.33,35.17,180.12,37.82Z" fill="#85a126"/><path d="M115.58,259.63l.06-.29C115.63,259.39,115.61,259.5,115.58,259.63Z" fill="#85a126"/><path d="M115.4,260.47c0-.06,0-.12,0-.18l.12-.57C115.51,259.94,115.46,260.21,115.4,260.47Z" fill="#85a126"/><path d="M115.24,261.28s.08-.4.16-.81C115.36,260.7,115.3,261,115.24,261.28Z" fill="#85a126"/><path d="M306.17,219.1l.19-.75v0c-.06.22-.13.48-.2.76Z" fill="#85a126"/><path d="M328.73,129.41h0C329.38,130.4,329.73,130.92,328.73,129.41Z" fill="#85a126"/><path d="M232,282.53s0,0,0,0l.38.36Z" fill="#85a126"/><path d="M231.22,281.83h0l.3.28,0,0Z" fill="#85a126"/><path d="M199.82,67.27l.11-.06h0l-.43-.65h0l-.08,0,0,0,.43.65Z" fill="#85a126"/><path d="M199.38,66.63h0l.44.65Z" fill="#85a126"/><polygon points="195.09 263.69 195.04 263.81 195.96 263.19 196.88 262.57 197.8 261.96 198.72 261.35 199.64 260.73 203.32 258.3 203.47 257.96 195.19 263.47 195.09 263.69" fill="#85a126"/><polygon points="232.96 234.89 235.44 232.72 235.54 232.37 233.06 234.54 232.96 234.89" fill="#85a126"/><path d="M310.43,185.32h0C310.82,183.18,310.67,184,310.43,185.32Z" fill="#85a126"/><path d="M130,280Z" fill="#85a126"/><path d="M131.29,281.65Z" fill="#85a126"/><path d="M131.29,281.65Z" fill="#85a126"/><polygon points="301.6 151.96 304.24 150.02 304.33 149.8 304.37 149.68 301.74 151.62 301.6 151.96" fill="#85a126"/><path d="M311.48,103.31Z" fill="#85a126"/><path d="M312.71,105.15l-.8-1.19Z" fill="#85a126"/><path d="M331.76,133.47Z" fill="#85a126"/><path d="M331.79,133.45h0L330,130.7c1,1.49,15.17,22.76-18.93-28.4h0l-.06,0-.12.06-.23.14-3.76,2.21L304,106.41l-2.82,1.66-.94.55-.06.11-.11.21-8.46,5-.34.65,14.11-8.28-.06.11-.05.1-.06.11.95-.56.94-.55,3.75-2.21.35-.2.18-.11h0l20.33,30.5h0Z" fill="#85a126"/><path d="M175,274.33l-.26-.05h0l-.25-.06-.52-.11-.31-.06Z" fill="#85a126"/><path d="M114,259.48c0,.13,0,.24-.06.3Z" fill="#85a126"/><path d="M328.73,131.58Z" fill="#85a126"/><path d="M114.21,258.63c0,.16-.07.31-.09.45Z" fill="#85a126"/><path d="M329.75,130.84c.48.71.65,1,0,0Z" fill="#85a126"/><path d="M81.55,216.78l.88,1.48-.88-1.48Z" fill="#85a126"/><path d="M283.79,118.51l.44.65Z" fill="#85a126"/><path d="M328.72,129.42l.45.67Z" fill="#85a126"/><path d="M329.17,130.09l.05.07A.25.25,0,0,1,329.17,130.09Z" fill="#85a126"/><path d="M297.52,74.32h0l0,0,0,.06.07.13.14.26c.08.15.14.31.22.47a12.91,12.91,0,0,1,1,8,13.33,13.33,0,0,0-.81-7.71l-.34-.74-.18-.35-.06-.11-.14,0Z" fill="#85a126"/><path d="M331.76,133.47l-.43-.65h0l0,0,0,0-18.49-27.76h0l-.22.13-1.87,1.11-15.05,8.84-.95.55-.05.11-.06.11-.05.1-7.38,4.33-11.91-17.65,2.52-1.53.05-.11.06-.12.05-.1c3.77-2.33,7.46-4.59,11.42-7.28l0,.06,1.74-1,2.68.71.09,0,.05,0,0,0h0l-2.67-.72.92-.53.48-.27.23-.13.06,0h0l-.48-.13-.13.25-1.36.78-.27-.08h0l.86-.48.84-.48h0l-.28-.08c.3-.23.56-.42,1-.83a15.53,15.53,0,0,0,2.68-2.81c.18-.25.27-.37.5-.72a12,12,0,0,0,1.23-10l-.57-1.47L296.6,75l-.05-.08c-3.93-1.06,1.43.38,1.46.38l-17.27-4.63h0l-.12.06-.06,0c-.18-.09-.33-.2-.51-.28a4.22,4.22,0,0,0-.53-.25l.53-.3.11-.22,0,0h0l17.49,4.69,0-.06v0h0l-18.33-4.92.92.25-.08,0h0l0,0-.06,0h0l-.24.13-.47.28-.1,0a8.67,8.67,0,0,0-2.68-.56,10.58,10.58,0,0,0-.07-1.59,13.31,13.31,0,0,0-.53-2.57l-.42-1.15-.23-.54-.12-.25-.06-.13-15.44-3.63h0l-.44.29-.47.31h0l-1.35.88-.1.22-.06.11-.9.59-.92.6-.91.59-.05.11,0,.11-.15.33-.2.44-1.6,1c0-.1.09-.19.13-.27l.37-1c1.29-1.87-.88.79-2.1,1.7l-.21.18a4.34,4.34,0,0,1,.51-1.51l-.1.12a9.91,9.91,0,0,0-.62,1.48s0,.08,0,.11l-.45.38a14.32,14.32,0,0,1,.72-2.55c0-.11.09-.23.13-.34l5.05-3.27.2-.44.1-.22-1.82,1.19-.91.59-.05.11,0,.11-.05.11-.92.6-.9.59-.53.34a5.18,5.18,0,0,1,.47-.87c.46-.64.57-.73.35-.53l0-.06-.06-.12a7.76,7.76,0,0,0-1,1.77l-1.92,1.24-3.65,2.37.1-.22.05-.11-.91.59-.92.59-.91.59-.05.11,0,.11-.05.11-3.78,2.43c.85-.73,1.7-1.45,2.56-2.2l.24-.76.88-.81.88-.82c.84-.74,1.87-1.92,2.78-2.87a13.18,13.18,0,0,0,1.2-1.56l.07-.21.12-.42c.41-1.11.67.21,1.61-4.26.28-3.88-.93-6.51-4.59-8.44-9.46-2-7.92.51-10.53.61l-.32.33c-2.74,1.22-5.33,2.49-7.82,3.78.14-.74.31-1.43.48-2l.4-.21,1.05-.53,1-.53.07-.11.07-.11.07-.11,1.13-.52,1.15-.52,1.15-.52.08-.11.09-.11.08-.1c.42-.18,1-.36,1.42-.54a19.12,19.12,0,0,1,3.58-1.07l.8-.33a16.79,16.79,0,0,0-2.57.56l-1.47.51-1.46.53.12-.11.11-.11.12-.11c-1.06.37-1.63.7-2.47,1.06l-1.15.52-.08.11-.09.11-.08.11c-1,.47-1.94,1-2.9,1.44a2.66,2.66,0,0,1,.54-1.06l.39-.82c.44-.66.75-.92.34-.52l0-.21a4.48,4.48,0,0,0-.87,1.5,6.12,6.12,0,0,0-.56,1.22l-.08,0-.69.35a10.9,10.9,0,0,1,.79-1.84l.12-.28-.6.55c-.63.58-1.23,1.16-2,1.82l-.12.1c.07-.22.13-.45.21-.66.17-.42.32-.76.44-1.05l.57-.3.21-.33-.67.36c.31-.71.43-1,.48-1.12l.12-.28.37-.68a11.56,11.56,0,0,1,.69-.93l-.31.3-.3.31a3.72,3.72,0,0,1-.49.48l-.24.22a1.31,1.31,0,0,0-.1.21c-.32.68.37-.74-.75,1.66l-.06.15c-6.8,3.58-13,7.29-19.34,11l.06-.11.06-.11.05-.11-.95.57-.94.57-.95.57.05-.11.11-.22-2,1.25-.78.47-.93.57-1.83-2.7.66-.51.64-.49.16-.13.07-.06,0,0h0l-.11-.16h0l0,0-.22.16-.85.66-.45.36c-.52-.76-1.06-1.57-1.64-2.43l.5-.39,0,.11-.08.23.85-.66.16-.13.08-.06,0,0h0l-9.47-14h0l-.36.2-.71.4-.49.29-1.42-2.11.82-.47.05-.1.06-.11.06-.11.47-.27.12-.07h0l12.62,18.7h0L197,59.1c.56.83,2,2.9,2.08,3.09L185.16,41.6h0l-.35.2.05-.11.12-.21-1.66.94c-6.69-9.92-11.16-16.54-3.14-4.64h0l0,0,3.13,4.64-.13.07L180,37.91l-1,.78-9.11,7.09.09-.23,0-.12-1.73,1.35-.86.68,0-.12,0-.11.12-.34.17-.46,6.49-5.07,3.25-2.53,1.64-1.27.38-.3c-.39-.59-.79-1.17-1.2-1.78h0l0,0-1.32,1-3.48,2.7-1.73,1.35-.09.23,0,.12-1.73,1.35L169,43l0-.11,0-.12,0-.11-.86.67-.87.68L164,46.7l0,.12,0,.11,0,.12-7.76,6.1,0,.12-.08.23-2.59,2,0,.11,0,.12,0,.11-2.58,2-3.44,2.73-.86.68-.86.68,0,.11,0,.12,0,.11-.86.69L138,68.24l-1.44.82-.51,1-3.8,2.16-1.9,1.08.06-.11.06-.1,0-.11-.94.54-.95.54-1.9,1.08L122,77.81l-1,.55-.06.1,0,.11-.06.11-8.54,4.86-.11.22-.06.11L110.28,85l-.94.54-1,.54-1,.54-1,.54-.06.11-.06.1-.05.11-.95.54-2.75,1.57,2.85,4.92-2.72,2.26-3.41,2.85L97.65,101l-.85.71,0,.12,0,.11,0,.12-5.09,4.33-.08.23,0,.12-.85.73-.85.73-.84.73,0,.12-.08.23-5.07,4.42-.11.36-.85.74c-2.53,2.26-5.07,4.53-7.63,6.89l-1.7,1.59-.11.37-.14.49-.07.25.85-.81L75.7,122l-.07.24,0,.12.85-.78.85-.78,3.37-3,2.54-2.27,2.53-2.22.12-.36.07-.23,0-.12,2.54-2.21.08-.24.14-.46,1.7-1.46.84-.73,0,.12,0,.12,0,.11.85-.73,1.69-1.44,0,.12,0,.11,0,.12,5.08-4.3,2.55-2.15,1.7-1.42L105.46,96l.6-.5.4.68L103.3,98.8l-4.24,3.56-.85.71-.11.35-2.54,2.16,0,.12,0,.11,0,.12-.84.72-.85.72-.84.72-.23.71L91,110.25l-.85.73,0,.12,0,.11,0,.12L82.45,118l0,.12-.07.24-2.53,2.26-3.37,3.09-2.54,2.4c-.85.8-1.7,1.59-2.56,2.47l-2.59,2.58L66.06,134a42.3,42.3,0,0,0-5.75,7.8l-.14.41-.13.41-.12.41-.87,2.06-.37,1a19.18,19.18,0,0,0-.66,4c-.06,6.62,1.6,11.85,8.3,16.39a16.89,16.89,0,0,0,5,2.21c-.06.29-.12.57-.19.84-.66-.18-1.39-.38-2.23-.63-7.5-3.44-10.83-8.82-11.62-14.7a20.61,20.61,0,0,1,.51-8.45l.77-2A29.57,29.57,0,0,1,60.43,140a47,47,0,0,1,4.19-5.5l0,.15,0,.15,0,.15,1-1.15c.34-.39.61-.65.91-1l.9-.95,0,.14-.07.26L69,130.37l.86-.85,0-.13,0-.13,0-.12.11-.38.86-.86.87-.86.85-.8,0-.13,0-.12,0-.12.85-.81,1.7-1.61.1-.36-2.55,2.41c-1.13,1-2.29,2.2-3.44,3.35s-2.37,2.43-3.56,3.69c-.87.9-2,2.24-2.92,3.35-.28.31-.79,1-1.19,1.56l-.07.2-.13.41a21.84,21.84,0,0,0-2.26,3.65,29.86,29.86,0,0,0-1.4,3.24c-.08-.52-1.44,4.72-.93,9a20.58,20.58,0,0,1-.3-3.37c.08,7.07,2,12.59,9.31,17.39a17.59,17.59,0,0,0,5,2.17c-6.57,29-1,4.21-2.86,12.69h0l0,.06.06.1.14.21.29.42.44.55,0,0c-.47,2.09-.59,2.61,0,0l.87,1.09a18.05,18.05,0,0,0,3.41,2.95l-4.87,3-.87.53-.44.26h0l-.9-1.51h0l.18-.11.7-.42,2.8-1.7.32-.65-2.79,1.7-1.4.84h0l-.17.11-.09,0,0,0c-.18-.32-.23-.38,0,0h0c5.53,9.3-7.43-12.49,2.27,3.82l-.15.08-.31.17-.08,0h0l.23.41h0l-.09,0h0c-.3-.52-.27-.48,0,0h0c.13.24.27.48.42.74h0c.15.25.31.53.49.85h0l.66,1.16c-.3-.52-.79-1.38-1.14-2,1,1.76,3.85,6.78,10.58,18.56h0l-9.91-17.37h0c3.07,5.39,10.35,18.16,9.14,16h0l.08,0,.58,1,0,0,0,0h0l.19.34h0l0,0h0l.49.85h0l-.48-.84.48.85h0l-.06,0h0L67.64,194.92h0l11,19.34.87,1.53h0l.06,0h0l-.33-.59h0s.06.1.09.15h0l.25.44h0c2.46,4.31,1.08,1.89,0,0h0l.23.41h0l0,0,.16-.09.74-.42c.24.39.47.78.71,1.19h0c-.2-.34-.44-.73-.7-1.19h0l.78-.44c.06.34.13.69.21,1l-.27.16-.18.1h0l-.5-.86.7,1.19h0l.35-.2a12.81,12.81,0,0,0,.59,1.84h0c.08.19.16.36.24.52l.26.59.13.28,0,.07v0l18.2,4.88-.4.2-.84.41-.05.1-.1.19c-.44.2-1.11.53-1.32.61l-.2.09s.12.25.24.53h0c.83-.36,2.27-1.06,3.77-1.82h0l2.28-1.17.17-.31,2.77-1.46,2.8-1.51,3.76-2,1-.51.94-.52,0-.1.12-.21,5.66-3.13.34-.64L119.53,215l-1.88,1-2.83,1.55-1.88,1-2.82,1.53-1.86,1-2.79,1.48-3.61,1.86-.47.24-2-.55h0l0,0,.23-.13.44-.25.89-.51.11-.21.06-.11.95-.54,1-.54,1-.54,0-.11.06-.11.23-.43,1.89-1.07,1-.55,0-.1.06-.11.06-.11,5.67-3.23a25.43,25.43,0,0,0-1.92,2l-1.59.91-.18.32,1.68-1,.07.35a9.6,9.6,0,0,1,.68-.78l9-5.11.18-.32.94-.54,1.11-.63-3.82,3,0,.12,0,.11,0,.11-.86.67-1.73,1.34-.12.34,2.59-2,1.72-1.33,2.6-2,1.72-1.34.45-.34,5-2.86,1.89-1.08.12-.21,0-.11,1.9-1.08,1-.54,2.09-1.19-.62.47-3.46,2.68-2.59,2-2.59,2-2.58,2,0,.12,0,.12,0,.11-.86.67-1.73,1.33-2.59,2,.08-.23,0-.11-.86.66-.87.67-3.45,2.67-.05.12,0,.11,0,.12-.86.67-.86.66-.87.67,0,.11,0,.12,0,.11-5.18,4-.13.34-.86.67-5.58,4.31c-.23-.6-.46-1.2-.68-1.79.22.63.44,1.23.65,1.82l-2.17,1.67-.86.67-.43.33-.22.17-.11.08,0,0h0c-1.28,6.61,2.87-14.8-2.88,14.83v0l0,.08.1.16a12.1,12.1,0,0,0,2.38,2.73c2.71,3,9.79,2.85,9.21,2.57l.51-.16a15.51,15.51,0,0,0,3.29-1c.69-.26,1-.4,1.47-.62l.33-.15c2.09,2.72,3.13,4.06.34.45h0l2.34,3c-1.05,5.09-3.79,18.3-3.35,16.15l0,0,0,.05a3.81,3.81,0,0,0,.3.55c1-5.12,3.46-17,3.06-15l0,0,.12-.09.19-.14,0,0h0l.44-.33h0l.2.26h0l0,0,.22-.17.43-.34.14-.1a5.38,5.38,0,0,0,.75,1.45,5.36,5.36,0,0,1-.62-1.27l.65,1.25.07.14-.1-.12.12.15.1.21h0l-.39.29-.88.64,0,.11,0,.12,0,0h0c-.16.75-.21,1-.2,1-.36,1.7-1,4.7-2,9.79h0v0l0,0,.24.3c.86,1.77,5.33,4.4,8.65,3.49,3.73-1.06,2.55-1,3-1.08l.28-.16,1.17,1.58-.28.16-.5.28c-.37.52-6.23,2.59-10.26,0a11.12,11.12,0,0,1-3.29-2.59l-.5-.6-.22-.29,0-.07,0,0v0h0c1.44-6.92,2.24-10.76,2.65-12.77,0-.18.09-.4.15-.7h0l0-.08h0l0,0h0c-.53,2.52-.12.57.11-.57-.29,1.39-1.08,5.24-2.93,14.11h0l0,.05.14.2a12,12,0,0,0,1.46,1.73,11,11,0,0,0,13,1.68l.66-.39.24.32-.73.42-.47.25a11.41,11.41,0,0,1-13.1-2.13,12.27,12.27,0,0,1-1.18-1.37l-.22-.31-.1-.16c-.07.32-.13.6-.18.87,1.5,2.23,6.34,5.58,10.91,4.81a12.65,12.65,0,0,0,4.48-1.37l.26-.15.67-.39,1.56,2.11a1.13,1.13,0,0,1,.1.13l.95,1.28-.73-1,.19.26h0l-.69-.93-.79-1.07,1.48,2h0l.35.47h0l1.62,2.2h0l-1.63-2.19h0l.06,0,.12-.1,1-.72,0-.12,0-.11.05-.11.88-.65.88-.64,2.64-1.94,2.64-1.94,3.52-2.58,2.64-1.93,3.53-2.59,2.64-1.93,2.64-1.94,2.64-1.94.22-.56.14-.34,0-.11-.88.64-.88.65-.88.64,0-.11,0-.11,0-.12-.88.65L150,263.34l-3.52,2.58L143,268.5l-3.53,2.58-.26.68-1.76,1.29-.88.65,0,.11,0,.11,0,.12-.88.64L132,277.26l-.88.65,0-.11,0-.12,0-.11-.89.64-.88.65-.16.12h0l-.92-1.25,0,0,.05,0,.18-.14.37-.27,6-4.36-.09.23-.05.11.88-.65.89-.64,3.52-2.58,2.64-1.94,1.76-1.29.88-.65.89-.65.87-.64,7-5.16.13-.34-.88.65-.88.64-.88.65-.88.64-5.28,3.87-2.65,1.94.14-.34.13-.34,19.37-14.2-.13.34,1.57-1.15,0,.07-.91.64-2.72,1.94-.09.06-.05,0h0c.81.83,1.55,1.61,2.26,2.35a21.84,21.84,0,0,0-1.57,3l-.75.55-.88.65-.89.65-.87.64-.89.65,0,.11-.09.23-7.92,5.81-.88.64-.05.12,0,.11-.05.11-.88.64-.88.65L144,272.36,140.44,275l-2.64,1.93-3.53,2.59-2.64,1.93-.22.16-.11.08h0l.23.31h0l.71-.53L143.7,273l.88-.65,0-.11,0-.11,0-.11,2.64-1.94,2.64-1.94,1.76-1.29,2.64-1.93,6-4.42c-.15.39-.3.81-.44,1.25a13.06,13.06,0,0,0,.21,8.82l.54,1.35.15.32,0,.08,0,0,14.7,3.14,0,0,.12-.08.49-.35.37-.26-14.52-3.1v0l-.07-.14-.25-.58-.45-1.22a14.57,14.57,0,0,1-.58-2.6,9,9,0,0,1,.22-3.7l.05.78a8.15,8.15,0,0,0,0,3.62,15.17,15.17,0,0,0,.59,2.25l.42,1.06.11.25.06.13,0,.06h0l11.65,2.48.52.11.25.06h0l.11-.08.87-.62.09-.22,0-.11.88-.63,1.77-1.25.05-.12.05-.11,0-.11.89-.62.88-.63,1.51-1.06.43.18-1.32.93-.14.33-4,2.82L175,274.33l-.06,0-.06.05h0l1.81.39.62-.44,6.69-4.69.14.08a4.92,4.92,0,0,1,.81.48h0l.6-.8c.22-.37.95-1.09,1.38-1.64v-.18l5.86-4.1.42.59h0l.57.79h0c-.19-.27-.38-.54-.57-.79h0l.57.79h0l1.3,1.79-7.24,5-.28.67,2.66-1.86,2.67-1.86,2.41-1.67c.7,1,1.35,1.86,2,2.68-.5.66-1,1.39-1.58,2.27-.63,1.49-1.32,1.41-2,5.78a11.83,11.83,0,0,0,.68,4.88l.2.49,1.43.32v0l0,0,0-.08-.09-.17-.13-.29,0-.05-.52-1.51a10.59,10.59,0,0,1-.32-3.31,7.56,7.56,0,0,1,.7-3,18.49,18.49,0,0,1,2.42-4.19l0-.11.52.71c-.31.42-.62.87-.95,1.38a11.62,11.62,0,0,0-1.14,2.16l-.53,1.38a9.83,9.83,0,0,0,.15,5.2l.45,1.19.13.28,0,.06,0,0h0l-1-.22,12.28,2.8h0l.05,0,.22-.15.45-.3-.14.33,2.69-1.81,1.11-.74c.12.16.22.32.35.48l-3.25,2.16-1,.68-.06,0-13.85-3.16.23.57.13.25,0,.06v0c-3.06-.68,26.71,6.08,14.11,3.22h0l0,0,.17-.11.66-.45,2.7-1.81.86-.57a13.45,13.45,0,0,0,6.67,3.65h-.21a5.83,5.83,0,0,1-1.61-.35c2.68.95,2.1.41,3.71.7a14.11,14.11,0,0,0,2.82-.16,25,25,0,0,0,5.8-1.75c1.36-.55,2.5-1.08,3.6-1.62l.08.07-.08-.07h0c.35.3.78.7,1.23,1.12l.06,0a111.74,111.74,0,0,1,9.45-7.16l.81-.46.09-.16,1.05-.73c2.18-1.27,4.33-2.54,6.47-3.83l-.06.14-.19.44c-4.4,2.92-8.75,5.9-12.65,8.78l-.1.32-.07.21,0,.11-.73.56c-.49.37-1,.75-1.39,1.08-.7.55-1.19,1-1.63,1.35V286a4.77,4.77,0,0,0-.42.38c-.28-.25.57.59-.65-.54h0l1.89,1.77c.05,0,0,0,.11-.1.33-.26.52-.46.94-.79l1.27-1-.13.6,2.14-1.63L244,283l3.3-2.33,1.69-1.16.09-.22,0-.11,1.72-1.16.87-.59-.05.11,0,.11-.05.11.87-.59.87-.58,3.52-2.33.05-.11,0-.11.06-.11,8-5.21.05-.11.1-.22,2.71-1.73,0-.1.05-.11.05-.11,2.72-1.73,3.65-2.29.91-.57.91-.57.05-.11.05-.1,0-.11.92-.57,7.33-4.55.1-.21.06-.11.92-.57.92-.57.92-.56.05-.11.06-.11.2-.43,5.54-3.37.05-.11,0-.11.06-.11,2.77-1.67,2.76-1.67-.1.21-.06.11.11-.06h0l.68-.4h0l.13-.08.38-.23c.56-2.16,1.37-5.35.21-.8h0l0,0-.13.08L300,245l-.05,0,4.2-16.39.52-.3c-2.55,9.92-3.84,14.95-4.42,17.19l.08-.05.23-.13.11-.07.05,0,0,0h0l-.1.39c.12-.46,2.38-9.25,4.51-17.56l4-2.29a14.61,14.61,0,0,0-2.51-3.36l.18-.7a11.81,11.81,0,0,1,2.84,3.77l.17-.1a17.3,17.3,0,0,0-3-3.85c2.07-8,3.25-12.65.65-2.52h0l0-.07-.08-.14a17.16,17.16,0,0,0-4.89-5.43l2.74-2.26.83-.68.4-.34,0,0h0l4.32-24.16h0l-.08-.13-.27-.41c-.46,2.54-1.65,9.25-4.33,24.26h0l0,0-.23.18-.93.77L303,212.12,302,213c-.41-.3-.81-.59-1.22-.86l.58-.47,0-.12.07-.23,1.67-1.38.83-.69,0-.11,0-.12,0-.11.83-.68,0,0h0c7.54-42.17,2.09-11.69,3.77-21.1h0v0l-.29-.44-.61-.88L306.4,184a21.6,21.6,0,0,0-3.36-3,17.69,17.69,0,0,0-2.62-1.58l1.52-1,.21-.14a22.28,22.28,0,0,1,3,2,23.61,23.61,0,0,1,3.85,4l.78,1.08.36.55.09.13,0,.07c-.76,4.27-.2,1.16.16-.83l-.05-.07-.69-1-1.59-1.92a28.12,28.12,0,0,0-4.6-3.86l-.81-.5,1-.68,0,0h0c.28-1.15.39-1.62.41-1.69,0,.14-.47,2-.69,2.91.35-1.52,1.58-6.69,4.73-20l-.23-.34-.47-.67-1.09-1.33a19,19,0,0,0-2.57-2.42,17.54,17.54,0,0,0-4-2.41l5.44-4,.05-.11,0-.12.05-.11.88-.65,1.76-1.29,0-.11.05-.11,0-.12,2.65-1.93.13-.34,2.64-1.94.05-.11,0-.12,0-.11.88-.64.88-.65.89-.65.09-.22,0-.12,2.64-1.93,1.76-1.29.88-.65,0,.12,0,.11-.05.11,1.77-1.29,2.64-1.94.88-.64,0,.11-.05.11,0,.12.88-.65,0,0,.05,0h0l.79-.58.12-.09h0c-1.16-1.74-3.28-4.92-.64-1h0l0,0-.06.05-.81.59-.11-.16.5-.37.33-.24,0,0h0c-2.22-3.33-1-1.51.11.16l-13.74-20.62-.09.05-.18.11-.73.43-.05,0-.11-.16.06,0,.06,0,.53-.31.26-.16.13-.08h0l14.5,21.75,0,0h0l-1.37-2,2.12,3.18,0,0-.08.06-.91.67-1.73,1.26-2.64,1.94-2.65,1.94-2.64,1.94-1.76,1.29-.88.64-.88.65,0,.11-.05.11,0,.12-.88.64-.89.65-.88.64-.87.65-.89.64-.88.65,0,.11,0,.12,0,.11-5.28,3.87-.14.34,12.33-9,.88-.65.05-.11,0-.12.05-.11,7-5.16,3.52-2.59.45-.33.43-.31.44-.32.11-.08,0,0,0,0,0,0h0l1.4,2.11,0,0-.66.49-1.32,1-.05.12,0,.11-.05.11-.88.65-.88.65-.88.64,0,.12-.05.11,0,.11-.88.65-.89.64-.87.65,0,.11,0,.11-.05.12-.88.64-.88.65-.88.64,0,.12-.09.22-5.29,3.88-.26.67,2.64-1.93,3.53-2.58.87-.65.89-.65,0-.11,0-.11.05-.11.88-.65.88-.64.88-.65.88-.65.88-.64.88-.65.05-.11.09-.23,1.76-1.29.88-.64.35-.26h0l.09-.07ZM289.57,93.21l.9-.64.25.06-.36.21-.85.48Zm-.41-3.29-.18.36-.12.25,0,0c-.14,0-.28-.08-.44-.11Zm-9-4.19Zm1.27-15.8-.81-.22Zm-4.3,2.37h0l.05,0Zm2.87,14c0,.08,0,.17-.07.26s0,0,0-.06S280,86.42,280,86.35ZM280,71.1l-.76.43-.12.22-.06.11-.77.44a9,9,0,0,0-1.67-.4l2.24-1.28A11.44,11.44,0,0,1,280,71.1Zm-3.43-1h.1a9,9,0,0,1,1.86.37l-.11.07-.95.54.06-.11.06-.11,0-.1-.95.54-.26.15C276.44,71.05,276.49,70.6,276.52,70.13ZM69.33,197.88Zm-1.16-2.29.48.85h0l-.48-.84Zm-2.11-5,.09-.06.17-.1.9,1.51-.21.12-.06,0h0l1.18,2h0L66,190.64Zm0,0h0c.36.59,1,1.69,2.07,3.48h0C67.42,193,66.73,191.87,66,190.66Zm2,4.64h0l.08.14h0l-.19-.34Zm1.38,2.52,0,0h0l-.58-1,.06,0,0,0-.19-.34-.09.06-.49-.85h0l0,0,.06,0h0l.2.37-.2-.37c.17.3.33.59.48.84h0a3.72,3.72,0,0,0,.19.34l.24.42v0s0,0,0,0l.34.59Zm0,0-.58-1h0c.19.35.38.68.58,1Zm4.39-38.92c-.13.6-.37,1.64-.72,3.19C73.41,160.67,73.66,159.55,73.81,158.88ZM72.53,169.1c-.06.28-.12.56-.19.85h0c.07-.29.13-.57.19-.84Zm-1-.24.83.21c-.06.28-.13.57-.19.85l-.83-.22C71.43,169.42,71.5,169.14,71.56,168.86ZM69,183.41l-.38-.54-.09-.14,0-.07,0,0v0c-.43,1.93,1.21-5.33,2.81-12.42l.83.21c-2.06,9.13-2.81,12.44-3,13.17A1.67,1.67,0,0,1,69,183.41Zm.2.27a.76.76,0,0,1-.08-.11c.22-1,1.29-5.7.35-1.54h0l.08.11,2.64-11.72h0L69.62,182h0l0,0h0a1.62,1.62,0,0,0,0,.19l0,.05c-.13.56-.24,1.08-.35,1.53Zm.84-1.17-.29-.36-.12-.15v-.06h0ZM73.79,188a17.94,17.94,0,0,1-4.55-4.27c.1-.44.21-.95.34-1.53l0,0,.26.38.57.77a17.31,17.31,0,0,0,2.91,2.89,10.52,10.52,0,0,0,1.54,1.08Zm1.63-45.46c-.2.14-.15-.07,0,0Zm.49,8.94a1.19,1.19,0,0,1,.16-.08C76,151.46,75.94,151.5,75.91,151.48Zm2.65,62.34c-.19-.33-.39-.67-.58-1h0l.58,1Zm.68,1.18Zm.17.29-.09-.15h0l.09.15Zm32.93,1.53-.15.09.22-.23ZM237.83,72a21,21,0,0,0,2.16.23l-.27.18a14.34,14.34,0,0,1-2.17-.23Zm-12.7-19.84.75-.38a19,19,0,0,0-.56,2.06l-.65.34A19.33,19.33,0,0,1,225.13,52.12ZM223.82,83.7l.05-.1.11-.22,5.09-3.26-.06,0L225.5,82.6l-.88.6-.89.61,0,.11-.05.11,0,.11-1.22.82,0-.06-.6.45-2.7,1.83-3.26,2-.05.1,0,.11-.05.11-.93.56-.65.4,2.54-1.89.2-.16.39-.25.92-.58.05-.11,0-.11,0,0,.43-.33.52-.33.92-.58.92-.59.92-.58.92-.59Zm5-1.13-2.75,1.76-.92.58-.15.33-8.61,5.47,0-.11-.74.55L214,92.26l0-.08,1.69-1.26.89-.66.13-.34,2.7-2,.35-.21L222.54,86l.91-.55.06-.11.05-.1.05-.11.91-.54.91-.53,1.09-.64-2.38,1.85-.09.23,0,.12.87-.68.88-.68.87-.68.88-.68.32-.24.34-.2,3.61-2.07.05-.1.06-.11.05-.1.9-.51.9-.51,1.71-.93-.8.64-2,1.59-2.1,1.35.15-.33ZM208.31,95.46l-.88.65-2.65,2-.84.53.09-.21.18-.14,2.55-1.66.3-.67,1.79-1.19.91-.59.05-.11,0-.07.62-.39,2.76-1.68.91-.56.93-.56.05-.11,0-.11L216,90l.37-.25.54-.32-.08.19-.88.66-.89.66-.88.66-.88.66-.88.66-.88.66v0l-.17.11-.06.11-.1.22L209,95.44l0-.07.09-.23,2.65-2,.13-.34Zm.21,154.94-.46.43.07-.17Zm3.91-158.73.38-.28,0,.07Zm-14-26.52h0Zm-2.14-3.42c.59.87,1.2,1.77,1.82,2.7l-.13.08-1.81-2.69Zm-1.75-2.59,1.64,2.43-.11.09c-.52-.76-1.06-1.56-1.64-2.43ZM183.5,43l.08,0,1.42,2.1-.13.08L183.45,43Zm-28,50.21,2.85-1.62L161.2,90l1.55-.88-.07,0-.85.68,0,.11,0,.12,0,.11-.85.68-1,.77-2.22,1.27-.34.64,5-2.85L159.37,93l-8.25,4.7-.34.64,4.54-2.58L155,96l-2.77,1.75-3.69,2.33.06-.11.05-.11,0-.11-.93.59L145,102.07l.31-.66,2.77-1.75.92-.58.05-.12.11-.22.92-.58.92-.58.92-.58.11-.22.05-.11-1.85,1.16-.91.59-.93.58-4.61,2.91-.92.59-.06.11,0,.11-.06.1L140.87,104l-.93.58-2.76,1.75-.11.22,0,.1-7.1,4.46,3.59-2.94,1.21-.76.16-.33-.16.1L136,106.1l6.72-3.83.12-.22,0-.11-.94.54L141,103l.38-.31.85-.69.84-.68-.11.34.84-.68,1.7-1.37-.12.34.84-.68.85-.68,2.54-2,.18-.15v0l.61-.35h0l0,.11.43-.34,1.85-1Zm6.08-2.71,0,.12,0,0L161,91Zm6-2.6,3.79-2.17,2.85-1.62,2.85-1.62-.22.41-10.33,6.49-1.84,1.17-.16.33-.92.58-.93.58L159,94.38l0-.11.05-.11.06-.11-1.85,1.17-3.69,2.33.1-.22,0-.11,3.7-2.33,1.84-1.17.12-.24,5.09-4.07,1.35-.76-.11.21-.06.11Zm-4.08,96-.08.23,0,.05-1,.59Zm-3.24,2.5v0l-.17.32-1,.58Zm-3.58-91.2.05-.11,0-.09,1.78-1v0l-.94.6ZM133.94,109l-.15.33-1.85,1.16-.92.58-.05.11-.06.11,0,.11-2.77,1.73-.16.33L125.46,115l2.21-1.84.58-.36.05-.11,0-.11.06-.11,2.77-1.73Zm10.72-44.6,7.74-6.14-.37,1-5.07,4-2,1.15.06-.11.12-.21-.54.3Zm-.93,35.06v0l3.72-2.12-6.65,5.36-.16.46,0,.1-3.69,2.1,1.57-1.29L141,102l0-.11.07-.23,2.54-2Zm-5.94-29.58,1.72-1.37v0l2.85-1.62.63-.37-6.42,5.12-.12.35-.86.69-.86.69-.47.37-4.16,2.37ZM103.07,99.5l2.55-2.12-.12.35L103,99.85ZM95.6,212.7v0h0a.39.39,0,0,1-.08-.1A.27.27,0,0,0,95.6,212.7Zm-11.41,5.63-.63-1.77a13.29,13.29,0,0,1-.48-2.23l.74-.43c0,.23,0,.44.08.69a15.32,15.32,0,0,0,.6,2.33l.4,1.09.23.52.06.13,0,.06-1-.26Zm21.49-.18-.11.22-.06.1-1.9,1.08-1,.55-.06.1-.11.22L99.64,222l0,.1-.06.11-.06.11-.71.41-.18.1h0l-14-3.76h0l0,0,0-.1-.1-.21-.12-.28,13.94,3.74h0l.06,0,.95-.54,1-.54.11-.21.06-.11,2.84-1.62.34-.64,3.64-2.07.36.21a3.88,3.88,0,0,0,.39.25Zm1.47-1.74.09,0C107.32,216.44,107.44,216.53,107.15,216.41ZM105.46,89l.17-.32,2.85-1.62,1.9-1.08,1-.55,0-.1.06-.11.06-.11,1-.54.94-.54,1-.54,2.85-1.62.17-.32,1-.54,1-.54.94-.54.06-.11.06-.11.06-.11,3.79-2.16,1.9-1.08,3.79-2.16,2.85-1.63.17-.32,2-1.14v0l-.16.46-5.14,4.13,0,.12,0,.11,0,.12-1.57,1.27-2.41,1.38.11-.22.06-.11-1,.54-1.89,1.08-1,.55.06-.11.11-.22-1.89,1.09L117.28,83l-.94.54,0-.11.06-.11,0-.1-.94.54-1,.54-2.85,1.62-1,.54.06-.11.06-.11,0-.1-2.84,1.62.06-.11,0-.11.06-.1Zm18.68,117-.23.17,0-.06Zm3.11,1.37,0,0-1,.77-.1.06-8.54,4.87-1.9,1.08-.11.21-.06.11-1.9,1.08-.4.23.73-.71V215l1.9-1.09.06-.1.11-.22,1.9-1.08.95-.54,3.8-2.16,2.84-1.62,1.9-1.09Zm9.56-6.8-.06.11-.05.11-.06.1-1.37.78.86-.66.87-.67,0-.11,0-.12,0-.11.86-.67,1.73-1.34.08-.22,0-.12-.86.67-.86.67-5.26,4.06-4.74,2.71.17-.33,2.84-1.62.11-.21.23-.43-2.84,1.62-2.85,1.63-3.8,2.16-.94.54-1,.54,0,.11-.06.11,0,.1-1,.54-4.75,2.7-.11.22-.06.11-2.84,1.62.17-.32-2.73,1.55a1.62,1.62,0,0,1,.65-.7,9.59,9.59,0,0,1,1.08-1.18l.46-.27v.1l.22-.21,1-.58.11-.21.06-.11,1-.54,2.84-1.62,3.79-2.17,1-.54.12-.21.05-.11.95-.54,1-.54.2-.12-.28.22-.1.33,2.7-2.09,1.44-.82-.17.32.95-.54,1.9-1.09.11-.21.06-.11,2.85-1.62,8.53-4.87.18-.32,14.8-8.44-7,5.45,0,.11,0,.06-3.2,1.83-.17.32-5.69,3.25-.12.21-.05.11Zm-16.74,19,2.59-2,2.59-2,2.59-2L131.3,211l2.59-2,2.59-2,1.73-1.34.86-.67.05-.11,0-.11,0-.12.86-.66.86-.67.87-.67,0-.11,0-.12,0-.11.13-.35L123.9,216l.12-.34,1.73-1.34.86-.67,0-.11,0-.11,0-.12,3.45-2.67,1.73-1.34,3.46-2.67.86-.67.86-.66,0-.12,0-.11,0-.11,7.78-6,.08-.23,0-.11.87-.67.86-.67.31-.23,2.17-1.24,2.85-1.62,1.89-1.08,1-.54.12-.22.05-.11,1.55-.88-3,2.31L152,194.94l-3.46,2.67-1.72,1.33,0,.12,0,.11,0,.11-7.77,6,0,.11-.09.23-.86.67-.87.67-.86.67-2.59,2-3.45,2.67L126.73,215l-3.45,2.67-.13.35-2.59,2,0,.11,0,.12,0,.11-1.91,1.48,0,0-.94.52-.12.21-.06.1c-1,.56-2,1.1-3,1.64l1.28-1,.12-.34.87-.67ZM115.26,256l.12.22-1.92-3.64c0-.1-.1-.2-.15-.3l.7-.54,2.59-2,.33-.26c2.68-1.38,5.29-2.77,7.88-4.17l.12-.21L125,245l1-.53,1-.53.39-.21-.24.16-2.71,1.8-3.59,2.39-.9.59-.89.59,0,.11,0,.11,0,.1c-1.31.85-2.68,1.76-3.86,2.49-.73.47-1.11.68-1.3.8S113.2,252.11,115.26,256Zm-6.41-3.09a14.2,14.2,0,0,1-2.1.67l-1,.21-.48.08a11.18,11.18,0,0,1-4.32-.37,10.78,10.78,0,0,1-4.77-2.94c-.12-.12-.21-.25-.32-.38h0a11.41,11.41,0,0,1-1.07-1.45c5.17-26.61,1.44-7.38,2.59-13.32h0l0,0,.16-.12,3.33-2.58s0,.09,0,.13l-.16.46.26-.2.21.58-2.58,2-.43.34-.21.16-.06.05h0c-.39,2-.17.84,0-.16-.29,1.5-1,5-2.37,12.23l0,.06.17.27.25.35c.73-3.73,2.67-13.75,2.36-12.14h0l0,0,.11-.08.37-.29.06,0,.87-.67,0-.12,0-.11,0-.12,1.42-1.1.2.59-2,1.54-.13.34-.43.34-.22.17-.05,0h0c0,.21-.07.36-.1.49-.29,1.53-.86,4.47-1.9,9.82h0l0,.06.08.12.71.95a8.47,8.47,0,0,0,5,2.79c5.64,0,4-.62,5.16-.7.54-.2.9-.35,1.25-.51l.24.31c-.21.1-.4.19-.63.28l-.11.12-.14.13-.14.12a13.54,13.54,0,0,1-2.86.83c-.61,0,.65.05-1.75.11a9,9,0,0,1-5.64-2.28,8.85,8.85,0,0,1-1.69-2h0c-.09.42-.16.77-.21,1.08l.14.19a8.54,8.54,0,0,0,1,1.13,9.86,9.86,0,0,0,6.08,2.68c4.93-.26,4-.76,5-.88.65-.25,1.14-.46,1.59-.66l.61.79C110.06,252.44,109.61,252.64,108.85,252.94Zm2.09-27,0,.11,0,.12h0l-1.69.89,1-.79.86-.67,0-.12,0-.11,0-.12.86-.66.87-.67.86-.67-.08.23,0,.11.86-.66.87-.67.86-.67,0,.11,0,.12,0,.11-.13.34-2.59,2,.08-.23,0-.11-.86.66-.87.67Zm3.31,31.35-.33.24-.17.13-.08.06,0,0h0l.28-1.33.56.72Zm.66-.48-.48.35-.56-.73-2.34-3,.07-.05.16-.12.65-.51-.09.23,0,.12.87-.67.15-.12,2.16,4.11Zm1.88,2.15-.06-.11h0l.12.14Zm.09,0-.12-.14.2.08Zm8.5,14.66h0l.16.21c.37.5.7,1,1,1.37Zm1.28,1.73h0l.24.32Zm7.11-33.62-.15.33-2.71,1.82,0,.11-.05.11-.05.11c-4.07,2.72-8.16,5.46-12.14,8-1,.67-2,1.25-2.88,1.84-.56.36-.7.41-1,.58l-.09.06c.07.18-.24-.36.16.41l.22.44c-.59-1.14-1.09-2.09-1.14-2.21l.07-.05.15-.08c.14-.08.4-.23.89-.55l.81-.51,0-.11,0-.1,0-.1.84-.54.89-.57.87-.58-.09.22,0,.11.88-.58.9-.58.89-.6-.19.44-.1.22,9.13-6.07,0,0,1.93-1.06,1-.54-.06.11-.06.11-.06.1,1.93-1.06,1.33-.74Zm8.56-6.35-2.87,1.61h0l.35-.23.1-.25,2.6-1.45Zm17.16-11.25-1.63.93-1,.54-1,.54-3.81,2.16-.34.64-8.6,4.84.18-.32,1.91-1.07,3.82-2.15.11-.22.06-.11,1.91-1.07.95-.54.12-.22.05-.1.95-.54,1.91-1.08.17-.32.95-.54,1-.54,2.85-1.62,1-.54-.11.21-.06.11,1-.54Zm5.1-4.24-1.9,1.08-.95.54-.11.22-.06.1L153,226.75l-.11.22-.06.1-1.9,1.08-1,.54-1,.54-1.91,1.07-.11.22-.06.1-8.61,4.83-.11.21-.06.11-1,.53-1,.53-1,.54-.06.1-.06.11-.06.11-.18.32,2.88-1.6-.06.1-.06.11-.06.11,2.88-1.61-.17.32-1.92,1.08-1,.53-.18.32-2.06,1.15,0-.06-.37.25-1.43.79-1.92,1.06-.34.62-.47.31L128,243.32l.06-.1.06-.11-1,.53-1,.53-1,.53.25-.43.12-.21-3.13,1.68.11-.3-1,.81-1.37.73,0-.11,0-.12.86-.67.86-.66.87-.67,0-.1.54-.29.12-.21.06-.11-.52.28,5.88-4.54,3.44-1.89,2.88-1.6,1.91-1.06,2.87-1.6,1.91-1.07,8.59-4.83-.11.21-.06.1,2.86-1.61,0-.11.06-.1.06-.11,1.11-.63-.05.11,0,.11.91-.6.85-.56L157,224l0,.1,0,.11,1.61-1.07,6.2-3.52Zm1.28,29.93-.75.53h0l0-.11,1.35-1,2.3-1.53,1.29-.86ZM168,217.35l-.17.32-2.86,1.63.17-.32,2.86-1.63.16-.32,6.42-3.67-1.4,1Zm6.95,26.21-.9.63-.23.15.36-.33.27-.18.54-.36Zm.42-66.89-2.14,1.66-1,.58-.12.22,0,.1-1,.55-2.85,1.62-3.79,2.16-.8.45.65-.5.86-.67.87-.66,0,.11,0,.12-.05.11,3.37-2.61.6-.34,0,.11-.12.21,5.69-3.24Zm.69,65.88-.58.4.13-.28h0l.16-.11,0-.06.4-.38Zm.46-1.52.09-.31,1.36-1Zm2-.49.08-.28,0,0,1.54-1.13C179.58,239.56,179,240,178.48,240.54Zm1.94-30.76-.88.64-.88.65.15-.37.87-.51.8-.45Zm.82,28.33,0-.12.58-.42C181.65,237.75,181.44,237.92,181.24,238.11Zm.06-28.5-.25.17.12-.31,0-.11,0-.06,2.23-1.28.05,0-.72.53Zm-3.77,64.1.27-.68,5.37-3.76.38.21Zm10.65-7.48-.25.17.31-.33Zm-.49-189.9-2.79,1.73-.93.58.05-.1v0l.63-.37,1-.54.06-.11.12-.21,3.79-2.16.49-.28Zm-.37-1.93L187,75l-5.69,3.24-.12.22-.06.11-.94.53-.95.55-.95.54-.34.64L176,82l-.95.54-.05.11-.12.21L173,83.9l-1,.54-.06.11-.12.21L166.14,88l.2-.58-2,1.63-2.22,1.26.25-.19.85-.68.85-.68,0-.11,0-.12,0-.11.82-.65,1.92-1.09,2.84-1.63,1.9-1.08,1-.54.06-.11.05-.1.06-.11,3.8-2.16.94-.54.95-.54.06-.11,0,0,1.46-.92,0,0,1.45-.83.17-.32,1-.54.95-.54.95-.54.05-.11.06-.11.06-.1,2.84-1.62.34-.65,1.9-1.08,1-.54.06-.11.06-.11,0-.1,5-2.84,2.49-1.42.63-.35.3-.18.12-.07c-.63-.94-.48-.73,0,0l-.89-1.31.13-.08.89,1.31h0c.65,1,.23.33-.89-1.32l1.71-1,.69-.42L203.89,62l3.8-2.27,1-.57,1-.56,0-.11.12-.22,1-.56,3.85-2.25,2.95-1.67,1-.55.07-.11.06-.11.06-.11,1-.55,1-.55c1-.52,1.94-1.05,2.93-1.58a16.21,16.21,0,0,0-.6,1.86l-.1.09-.74.63-.08.33-.38.33-.92.5-1,.54-.06.11-.06.11-.06.11-1,.55-1.95,1.11-.18.32,2.92-1.65.65-.36-2.73,2.23-3.29,2.61L212,61.33l-2.67,1.58,3.35-2.59.11-.33L208,63.7l-.22.13.06-.17,0-.11-.85.65-.85.64-.85.65-.16.12-.62.37-.94.57,0-.11.06-.1.05-.11-1.88,1.14-1.4.86h0l-.27-.41.28.41-.28-.41.78-.59L201,67l0-.12-1,.76-.26-.37h0l-.21.12-.89.51-.17.32-.12.21-.06.11-1,.54-1.89,1.09-2.19,1.24.14-.28-.67.41.21-.4Zm5.54,189.23h0l-.08-.12h0l.08.12ZM215.44,284l.39.22,1,.62,1.12.73A12.36,12.36,0,0,1,215.44,284Zm4.32,2.06,0,0-.9-.18a2.57,2.57,0,0,0,.44-.44c.27.1.52.19.76.26Zm1.09.22-.45-.07.27-.32a2.26,2.26,0,0,0,.45.07Zm7-.73c-1.45,0-1.68,1.35-6.29.82.13-.16.28-.32.44-.49a7.64,7.64,0,0,0,2.3-.43,20.12,20.12,0,0,0,3.87-1c.56-.19.93-.35,1.36-.53l.09-.11.1-.11.09-.11c.74-.32,1.45-.64,2.15-1l-.45-.42a36.46,36.46,0,0,1-4.91,2l.72-.65c1.44-.53,2.71-1.06,3.89-1.59-.23-.21-.45-.44-.68-.64.24.2.47.41.7.63h0l.31.28h0l.44.43h0l.53.53-.17-.16.52.53A44.49,44.49,0,0,1,227.84,285.51Zm1.91-46-.1.35-.12.1-.11.08-2.1,1.37.89-.79,1.65-1.46,0-.12,0,0,1.49-1Zm.49,41.42c-.7-.6-1.44-1.17-2.19-1.71l.25.18.46.35C229.26,280.15,229.76,280.54,230.24,281Zm-2.66-39.22-2.37,2.11-.45.28-1.58,1,.1-.1,2.1-1.88.12-.07Zm5.27,41.69-.06-.07.07.07Zm2-48.6-.73.64,0-.05-1,.63,1.79-1.57Zm2.9-3.57-.07.24,0,.11L231,237.43l-.1.07-4.21,2.64-1.86,1.19-.16.33-.22.44-.1.23.93-.6,1.87-1.19-.1.22-.06.11.7-.44,0,.12,0,.11-1,.94-2.7,1.72-3.73,2.39-3.72,2.39-2.78,1.81-.93.6-.05.11-.1.22-2.77,1.81.15-.33-1.85,1.21-.92.6-.05.12,0,.11-.05.11-.93.6-.92.61-3.68,2.44-.16.33,13.85-9.08,0,.11-.05.11-.05.12.92-.61.93-.6.93-.6,0,.11-.11.23,1.86-1.2.93-.6.05-.11.05-.11.06-.11.15-.34.94-.59.93-.6.93-.6.05-.11,0-.11.06-.11.93-.59,1-.66-.49.44-.27.18,0,.11h0l-.65.58-.35.23-.91.6-.9.6-.15.33,1.31-.87-.53.47-.1.36-.39.35-.2.13-2.79,1.79-2.79,1.8-4.62,3-.05.11-.05.11,0,.11-.93.6-.92.61-.93.61-.92.6-.92.6-.92.61-.05.11-.1.22-9.66,6.42-2.44,1.63-.05,0c-.2-.27-.39-.53-.57-.79l.35-.24.7-.47,1.39-.93.44-1-1.84,1.23-.93.63-.23.16-.12.08-.06,0,0,0h0l-.09-.11.47-.33.14-.33,2.68-1.85.05-.11,0-.11.05-.12c2.33-1.6,4.68-3.19,7-4.78l0,.15.43-.42q8.4-5.72,16.87-11.33l.2-.45,0-.1,0-.11-.9.59-.91.6-.9.6,0-.11.05-.11,0-.11,1.81-1.2.9-.6.15-.33,3.62-2.38,1.81-1.18.45-1L221.53,242l-.29.66-.91.6-.91.6-.9.6-.91.59-.9.6-.9.61-.05.11,0,.11v0L213,248.21l.13-.3.1-.22,2.71-1.8.14-.34L212.49,248l-.9.61-2,1.31.9-.83.3-.21,0-.11v0l.52-.49h0l.46-.31.91-.6.9-.6.9-.61,1.8-1.2.1-.22,0-.11.91-.6.9-.6,2.72-1.8,3.63-2.38,3.63-2.37,3.64-2.35,7.31-4.66.36-.23Zm.38-155.14-.07.19-.53.43,0-.08.05-.1c-2.13,1.14-4.31,2.36-6.5,3.6,1.66-1.17,3.32-2.33,4.94-3.51l.13-.33,2.7-2c.64.06,1.17.09,1.52.09Zm7.69-6.26,0,.11,0,.11,0,.11-.8.62-.8.63-.8.61-.28.08v0l.26-.1,0,.09,0,.11,0,.11L240.9,74c-.31,0-.11,0-1.56-.06l1.88-1.38,0-.11.2-.09h-.17l.05-.13,0-.08h.19l0-.06.66-.3-.19.15-.27.19-.23,0-.06.12,0,.08h0l-.29.22-.12.33.78-.58a7.64,7.64,0,0,0,1.08-.21h0V72c.17-.11.71-.19-.77.12l.68-.51.13,0v0l.54-.41.11-.33-.79.6a10.77,10.77,0,0,1-1.3.28l.1-.06.91-.59.92-.59.05-.11,0-.11.05-.11.92-.59.91-.59.91-.59.11-.22.05-.11-.92.59-.91.59-1.83,1.18-2,1.29a6.07,6.07,0,0,1-2.34-.13l12-7.73a14.86,14.86,0,0,0-.87,3C248.45,67.72,247.18,68.78,245.78,69.85Zm-5.36,2.53.28-.18h0l-.22.16Zm42.13,44.29.21.32-.21-.32Zm-7.33-45.39-.14.15-.39.51-1,.18v0c.58-.39,1.15-.77,1.59-1.09A2.16,2.16,0,0,1,275.22,71.28Zm-.07.36a1.89,1.89,0,0,1,0,.23l-.16,0Zm.17-1.15c-.45.33-1,.68-1.51,1.05A9.62,9.62,0,0,0,274,70.2a10,10,0,0,1,1.37-.11C275.35,70.23,275.33,70.36,275.32,70.49Zm-15.2-9.72.12-.07.05,0h0l13.78,3.24h0v0l.11.23a12.55,12.55,0,0,1,.75,2.07,12.29,12.29,0,0,1,.4,3.28c-.47,0-.93.06-1.37.12a10.7,10.7,0,0,0-.58-3.82l-.29-.75-.15-.35,0-.08,0,0c1.84.41-10.42-2.47-13.69-3.24Zm8.8,7.78Zm-11.09,72.68-.11.22-2.83,1.65-4,2.36,2.38-1.84.11-.07,2.82-1.65,1.89-1.1Zm.34-77.55.1-.22.05-.11-1.83,1.18-.91.6-.91.59-.92.59-1.85,1.2a10.89,10.89,0,0,1,.35-1.61l1.5-1,2.73-1.78,2.74-1.78h0l1.84.43,0,0-.19.12-.38.25-.77.51Zm7.35,71.91-.08.21-1.23.73.11-.22.06-.11.93-.54.51-.3Zm.57-.16-.16.09,1.19-.92,1-.6.94-.55.95-.55.22-.43.11-.22-.84.5,1.06-.83.09-.23,0-.11-.87.67-.86.67-.77.59-.68.4.06-.11.05-.11.06-.11-3.77,2.21-3.66,2.14,6.12-4.74.05-.11.08-.23.86-.67.87-.67.86-.67,2.59-2,.08-.23.05-.11,7.77-6,.22-.59h0l.28-.54,2.44-1.89,1.23-.94,0,0-1.24-1.83.22.32h0a3.62,3.62,0,0,1-.22-.32h0l1.24,1.83,0,0,.65-.5.32-.25.16-.13.09-.06h0l2,2.94L277.51,126l-.33.64,7.53-4.41.94-.55.06-.11.05-.11.06-.1.94-.56.43-.25.44.65-2.48,1.45-.5,1-1.88,1.1-.94.55-.06.11,0,.11-.06.11-2.82,1.65-.12.22-.05.11,5.65-3.31,2.82-1.66L287,123l1.88-1.11.94-.55-.06.11-.11.22-8.47,5-.17.32-2.82,1.66.11-.22.06-.11-.94.56-2.83,1.65-2.83,1.65-2.82,1.66Zm23.24,54c0-.19,0-.21,0,0ZM300,245l-.68.41-1.45.87L293.43,249l-8.75,5.36-1.84,1.13-.16.32-1.84,1.14-.91.57.05-.11.1-.22-2.75,1.71L269.12,264l.28-.59.38-.24,1.86-1.18-.05.11,0,.11-.06.11.93-.58.92-.59,1.86-1.17,4.63-2.94.92-.59.05-.11,0-.11.05-.11,8.28-5.27.1-.22,0-.08,3.38-2.05,1.84-1.13,0,.11-.11.22,4.39-2.65.72-.43q-.12.44-.21.81c.07-.26.13-.53.21-.81l.37-.22.26-.16,0,0h0C301.29,239.8,300.49,242.93,300,245Zm-6.4,1.45c.71-.44,1.41-.88,2.05-1.26l-.13.31-1.36.84A3.47,3.47,0,0,1,293.55,246.48Zm3.65-1.07c.05,0,.07,0,0,0Zm.42-.35.16-.32,1.84-1.1.1-.07h0c0,.09,0,.17-.07.27h0l-.22.13Zm2.23-1.34,0,0-.05,0-.1,0,3.81-14.8.16-.09C302.7,232.64,301.46,237.47,299.85,243.72Zm5-25.19a19.84,19.84,0,0,0-3.52-3.65c-.11-.1-.23-.19-.35-.28l.14-.12a19.71,19.71,0,0,1,4.58,5l.15.23,0,.06c0,.06,0,.14-.07.27h0v0l0,0,0-.06-.07-.12-.16-.24Zm.63,2.77c.06-.24.12-.45.17-.64l.08.07c-.07.26-.12.47-.16.64Zm.11.1s0,0,0,0l.17-.64h0C305.7,221,305.64,221.17,305.58,221.4Zm.11-1c.09-.35.15-.6.19-.73l0,.05,0,.06c-.07.26-.13.48-.18.69Zm.59,1.61c-.11-.12-.23-.23-.35-.35.05-.22.11-.44.17-.66l.36.32Zm-4.41-8.21.15-.13a19.58,19.58,0,0,1,4.1,4.25l.24.36c.19-.75.27-1,0,0l.58.87.05.08c-.16.65-.32,1.27-.48,1.89l-.36-.34c.11-.42.21-.84.33-1.27l-.19-.31-.12-.17-.37,1.44h0c.12-.47.26-1,.38-1.44l-.7-1a20.18,20.18,0,0,0-2-2.35,11.54,11.54,0,0,0-1.8-1.65Zm-1.54-1.34q.63.41,1.23.84l-.44.36c-.4-.28-.83-.55-1.26-.81Zm.31,1.61-.15.12a14.12,14.12,0,0,0-1.25-.82l.14-.13C299.81,213.55,300.23,213.82,300.64,214.12Zm13.92-76,.13-.33,2.65-1.94,3.52-2.58.88-.65.88-.64-.05.11,0,.11,0,.12,2.64-1.94,1.76-1.29L327,129a1.63,1.63,0,0,1,.11.17L327,129l.05,0,.11.16-.05,0-.13.09-2,1.46-7.93,5.81-.09.22,0,.12-.89.64-1.76,1.29-.08.23,0,.11-2.64,1.94L308.88,143l-2.64,1.93-1.77,1.3-.87.64,0-.11,0-.11.05-.12-.88.65-.88.64-.89.65.14-.34,7.92-5.81.09-.23,0-.11.89-.65Zm-1.28-29.66-.63.37-1.87,1.1-.94.55-.95.56.06-.11.11-.21,4.11-2.42A.91.91,0,0,1,313.28,108.44Zm16.31,22h0l0,0h0l-15.9-23.86h0l-.05,0-.08,0-.35.21-.54.32c-.38-.56-.64-1-.76-1.14l.76,1.14-.05,0-.12.07-1.41.83-3.76,2.21-.17.32,2.82-1.65-.17.32-2.81,1.66.16-.33-2.82,1.66-.17.33L298.44,116l-.17.32L295.45,118l.5-1-5.65,3.31-.17.32-2.06,1.22-.76.44.17-.33.48-.28.11.17-.11-.17,2.34-1.37.11-.22.06-.1.94-.55,1.88-1.11.17-.32-1.89,1.1-.94.55.06-.1.05-.11.06-.11-.94.55-.94.55L288,121l-.35.21-.44-.65.51-.3,2.83-1.65.94-.56-.06.11-.05.11-.06.11.94-.55.94-.56.94-.55.94-.55,2.83-1.66,3.76-2.21.94-.55.05-.11.06-.1.06-.11.94-.56,3.76-2.21,2.82-1.65,1.41-.83.13-.08.58-.34.35-.21.17-.1h0l.16.24,1.26,1.89-.26-.38,15.5,23.24Z" fill="#85a126"/><path d="M312.53,107.3Z" fill="#85a126"/><path d="M114.12,259.08l-.06.25,0,.15C114.06,259.37,114.08,259.23,114.12,259.08Z" fill="#85a126"/><path d="M113.87,256.46c.13-.6.22-1,.28-1.35C114.08,255.44,114,255.9,113.87,256.46Z" fill="#85a126"/><path d="M298.46,248.59l0,.15Z" fill="#85a126"/><path d="M299.06,246.25h0c-.3,1.16-.51,2-.6,2.34C298.54,248.27,298.73,247.52,299.06,246.25Z" fill="#85a126"/><path d="M114.15,255.11c0-.11,0-.19.06-.27S114.17,255,114.15,255.11Z" fill="#85a126"/><path d="M114.21,254.84c.08-.41.07-.37,0,0Z" fill="#85a126"/><path d="M300.66,245.61Z" fill="#85a126"/><path d="M298.42,248.74Z" fill="#85a126"/><path d="M328.52,131.26l-.76-1.14Z" fill="#85a126"/><path d="M98.05,236.05l.08-.44C98.11,235.74,98.08,235.9,98.05,236.05Z" fill="#85a126"/><path d="M99,236.41c0,.12-.08.39-.17.87Z" fill="#85a126"/><path d="M98.18,235.39a2.35,2.35,0,0,0,0-.25A2,2,0,0,1,98.18,235.39Z" fill="#85a126"/><path d="M98.13,235.61c0-.08,0-.16.05-.22S98.15,235.52,98.13,235.61Z" fill="#85a126"/><path d="M98.46,226.37h0S98.46,226.35,98.46,226.37Z" fill="#85a126"/><path d="M66.32,190.47l.2.32Z" fill="#85a126"/><path d="M82.52,218.41h0l-.09-.15C82.46,218.31,82.49,218.37,82.52,218.41Z" fill="#85a126"/><path d="M66.52,190.79c.17.3.4.68.7,1.19Z" fill="#85a126"/><path d="M96.14,249c-.11.6-.2,1-.24,1.25h0c0-.17.12-.57.25-1.24Z" fill="#85a126"/><path d="M99.44,228.64l.44,1.1,0,0C99.76,229.43,99.6,229.05,99.44,228.64Z" fill="#85a126"/><path d="M98.71,226.91h0C98.61,227,98.65,226.93,98.71,226.91Z" fill="#85a126"/><path d="M99.4,228.54c-.24-.59-.5-1.2-.68-1.64h0C98.93,227.4,99.16,228,99.4,228.54Z" fill="#85a126"/><path d="M98.45,226.38h0C98.4,226.4,98.39,226.41,98.45,226.38Z" fill="#85a126"/><polygon points="115.52 218.49 115.4 218.83 117.99 216.82 118.11 216.48 115.52 218.49" fill="#85a126"/></svg>