<svg id="Layer_1" data-name="Layer 1" xmlns="http://www.w3.org/2000/svg" viewBox="0 0 400 400"><path d="M191.57,167.41c2.43,18,2.64,46.33,3.29,60.77C190.16,211.43,191.89,188.42,191.57,167.41Z" fill-rule="evenodd"/><path d="M192.19,177c2.48,13,2.76,34.09,1.65,41.58C190,207.91,193.28,190.34,192.19,177Z" fill-rule="evenodd"/><path d="M196.18,12.29c12.52,5.34,14.94,21.89,16.48,35.18,5.1,43.89,10.21,104,14.83,150.33,3.23,32.39-.72,66.61-9.89,94.34-5,3.1-9.72,6.56-16.48,8,2.71,21-2.94,41.74,0,57.57,2,10.5,13.42,16,9.89,25.58-11.19-5-22.72-7-31.32,0,13.62-20.71,5.12-53.6,6.6-84.75-2.35-3.58-8.94-3.06-11.54-6.4-24.11-76.79-23.09-205.44,6.59-278.25C186.63,21.07,187.79,14.05,196.18,12.29ZM171.46,263.36c-1.74,12.88,4.81,17.71,8.23,25.58,12.89,2.49,22.55,5.39,34.61,0,17.5-44.13,8.27-92.24,4.95-140.72-.67-9.78-2-21.61-3.3-32-4.28-34.2-5.13-74.76-18.12-97.55-8.34-1.16-12.48,1.76-16.49,4.8,6.27,13.11-1.57,39.9,9.89,48,.16-16.57-4.2-33-3.29-46.37,4.56,13.69,5.3,31.09,4.94,49.57,3.24.48,3.27-2.16,5-3.2-2.44,7.71-2,33.14,0,40-7-5-1.61-21.9-3.3-32-14.49-2.68-9.79-31.52-14.84-48-8,17.59-1,50.4,3.3,60.77-10.18-5-4.1-25.87-11.53-33.58,1.07,17.09,4.54,40.34,8.23,49.57-9.49-7.06-5-31.62-11.53-36.78-9.54,51.69-16.71,124.27,18.13,155.12.47-4.87-.27-10.92,4.94-11.2-6,14.4-1.67,37.15-6.59,48-3-26.45-16.67-42.47-21.42-67.17.22,27.2,5.91,63.71,18.12,78.36C176.3,272.51,176.5,265.4,171.46,263.36Zm13.18-19.19c5.39-15.9-8.79-20.89-13.18-32C173.55,225.08,177.35,236.32,184.64,244.17Z" fill-rule="evenodd"/><path d="M189.12,197c-2.34,11.88,5.3,27.89,8.23,40-14.21-21.21-11.28-50.06-11.53-78.36,3.45,20.65,2.87,45.2,14.83,57.58C194.07,218.8,191.65,203.64,189.12,197Z" fill-rule="evenodd"/><path d="M185,175.4c6.12,14.32,6.29,34.41,16.48,44.78C191,216.43,186.75,192.86,185,175.4Z" fill-rule="evenodd"/></svg>