<svg id="Layer_1" data-name="Layer 1" xmlns="http://www.w3.org/2000/svg" viewBox="0 0 400 400"><path d="M158.22,321.5a31.72,31.72,0,0,1-10.95,10.84C150.61,328.33,153.28,323.64,158.22,321.5Z" fill="none" fill-rule="evenodd"/><path d="M99.08,80.92c-2.61-.18-2.4-2.41-2.41-3.92,0-3.53-2.14-6-4.89-6.39-4.24-.51-6.92-3.31-10.25-5.12-1-.55-3.19-.24-2.73-2.15a3.72,3.72,0,0,1,3.68-3.18c6.16-.13,12.36-.9,18.47-.44,3.43.26,6.41-.8,9.38-1.55C118.91,56,127.64,54.66,136,51c10.47-4.6,20.55-9.87,30.72-15,4.29-2.17,9.09-3.31,13.53-5.22,4.86-2.09,10.11-3.58,14.17-7.13,3-2.64,4.13.05,5.61,1.67,1.64-1,.93-2.15.59-3.22s-1.1-2,0-2.79c1.38-.92,2.21.43,2.87,1.27a56,56,0,0,0,16.2,13.7c9.13,5.3,17.19,12,25.7,18.13,5,3.58,10.27,6.37,16.77,6.72,3.87.2,7.69,1.9,11.66,1.91,4.81,0,9.63-.18,14.42-.55,2.55-.19,2.94.67,2.73,3-.39,4.53-3.81,6.86-6.67,9.38-7.14,6.27-14.21,12.67-22.5,17.47-9,5.19-19,6.68-29,8-2.61.34-5.25.48-7.88.69s-2.73,1.24-1.32,3.36c4.3,6.45,10.65,10.56,16.92,14.52,8.26,5.23,16.75,10.11,26.31,13,9,2.7,17.75,1.23,26.57-.1a17.69,17.69,0,0,1,6.07-.05c1.07.2,2.23.42,2,1.78-.35,2.33-.86,4.24,2.87,3.94,1.49-.11.86,1.81.12,2.75-7.37,9.34-15.73,17.56-27.25,21.53-6.5,2.23-12.93,4.1-18.56,8.52-5.23,4.08-12.26,4.31-18.55,4.61-6.91.34-14,2.2-21-.21-1.59-.55-2.79.09-1.7,2a16.85,16.85,0,0,0,2.67,4,123.9,123.9,0,0,0,28.47,21.21A165.21,165.21,0,0,0,274.85,211a41.65,41.65,0,0,1,8.66,3.67c7.34,4.4,14.6,1.48,22.27.73-1.17-2.93-3.9-1.9-5.87-3.76a35.14,35.14,0,0,1,14.8,1.31c.54.14.94.77,1.47.92,5.18,1.48,5.12,1.62,2.31,6.44a21.09,21.09,0,0,1-6.38,7.17c-6.58,4.35-11.45,10.37-16.73,16a10.48,10.48,0,0,1-3.61,2.49c-8.93,3.6-17.63,7.85-27.77,7.12-5-.36-9.74,1.9-14.6,3a2,2,0,0,0-1.34.86c-.33.88.44,1.32,1.13,1.57,1.24.46,2.51.85,3.77,1.24,13.57,4.24,27.58,4.78,41.64,5.51,6.4.33,12.78-1.31,19.21.48,2.75.76,5.79-.46,8.67-1.09,3.28-.73,6.27-2.33,9.7.87,1.81,1.68,5.53.33,7.34-2.12,3.24-4.39,8.28-1.37,12.19-3.18,1.1-.51,2.55,1.38,1.44,3.13a45.86,45.86,0,0,1-4.51,6.47c-8.6,9.39-17.74,17.95-29,24.49-9,5.21-17.87,10.47-27.18,15-2.74,1.33-4.63,3.43-6.88,6.81,10.4-2.74,18.93-7.92,28.48-10.42-2.46,2.91-6.18,3.9-9.36,5.41-9.91,4.7-20,9.11-30.19,13.12Q263.06,328.74,252,334c-10.82,5.14-21.47,3.24-32.21.15-2.89-.83-6.47-3.36-8.38-2.4-2.07,1-.53,5.38-.66,8.25-.52,11.11-1.56,22.19-2.15,33.25-.31,5.84-2.5,4.23-5.28,4.08-7-.37-13.91-1.12-20.82,1.64-3.7,1.48-8,1.74-12.11,2-7.75.42-9.54-1.08-10.54-8.85-1.17-9-1.4-18.1-1.75-27.18,0-1-.17-2-.25-2.86-10.1,3.61-20.06,2.62-30.19,1-8.53-1.37-16.95-2.86-25.15-5.67a84.38,84.38,0,0,1-17.54-7.91c-4.49-2.79-9.73-4.12-14-7.26-1.77-1.29-3.58-2.55-5.23-4a2.49,2.49,0,0,1-.33-3.89c1.33-1.38,2.33-.31,3.31.67,1.68,1.68,3.68,4.9,5.71,3.19,1.39-1.18-2.08-3.58-3.32-5.46-1.57-2.39-4.07-2.53-6.68-2.29-6,.55-12,.59-17.91-2.74,3.12-2.28,6.59-.85,9.68-1.36,2.64-.43,5.24-.23,7-2.79.6-.89,1.72-.94,2.78-1.07,9.63-1.17,18.61-4.91,27.94-7.27a6.62,6.62,0,0,0,1.55-1c-1.18-1.75-3.44-.46-4.87-2.25a41,41,0,0,1,9.23-3.51c13.68-3.68,26.86-8.39,38.39-17,2.86-2.14,4.17-5.64,7.48-7.31,1.13-.57,1.22-2.26-.59-2.48-8-1-15.48-4.45-23.58-4.89-1.29-.07-2.62-.57-4,1,2.47,1,5.09,1.41,7.12,3.38-3.42,1.14-6.32-.35-9.48-1-10.33-2-18.2-8.48-26.56-14-2.87-1.89-5.71-3.88-8.93-4.49-3.7-.72-5-3-6.2-5.94,6-1.84,12.74-1.81,16.66-7.76.54-.83,1.69-1.53.89-2.62-.54-.73-1.54-.53-2.46-.3-2.59.64-5.41.33-8.11,3.28.57-3.28,2.21-3.49,3.51-3.83,12.37-3.18,22.19-9.91,29.15-20.69,1.74-2.7,4.93-3.56,7.19-5.67,5.8-5.44,9.4-12.79,15.74-17.75,2.34-1.84,4-4.89,7.84-3.41,1.12.43,1.85-.54,2.07-1.72a1.64,1.64,0,0,0-1.18-2.06,9.56,9.56,0,0,0-3.44-.67c-12.39.89-23.57-3.3-34.55-8.17-7.38-3.27-14.47-7-20.6-12.5-4.39-3.92-6.54-9.73-11.59-13-.94-.61-1.1-2.07-.64-3.28.74-1.9,2.51-1.39,3.82-1.29,11.93,1,23.58-1.27,34.59-5.1,11.71-4.06,22.88-9.78,31.43-19.39,2.43-2.74,3-6,3.13-9.35.11-2.7-2.38-3.2-4-4.06s-1.62,1.34-2.3,2.21c-.31-.19-.75-.33-.75-.49-.38-7.5-7.46-6.7-11.66-8.59C120.47,86.09,113.22,82,105.91,78c-.39-.21-.68-.64-1.08-.75-1.81-.48-3.63-2.36-5.3-1.51-2,1,.47,3.19-.25,4.81ZM272.16,244.53c6.24-1,11-3.81,16.06-6.25s10.17-5.16,14.2-9.35a3.64,3.64,0,0,0,1.13-3.61c-.45-1.69-2-1.63-3.26-1.55-7.09.48-14-1.56-20.81-2.63a86.26,86.26,0,0,1-23.9-7.39c-8.4-4.07-17.58-6.75-24.65-13.29-5.79-5.35-11.54-10.76-17.36-16.09-.92-.85-1-1.39-.42-2.58,1.36-2.94-.65-9.74-3.3-11.54-.91-.62-1.79-1.09-1.62-2.31s1.45-1.24,2.29-1.76c3-1.86,6,.12,9-.05,11-.59,22-1.16,32.89-3,12-2,23.13-6.35,30.87-16.62.44-.59,1-1.06,1.48-1.63,1.15-1.48,4.73-1,3.79-4s-4-1.65-6.18-2.12a22.13,22.13,0,0,0-4.39-.08c-6.75-.09-13.65.24-20-2.19-8.59-3.29-16.94-7.21-25.37-10.92-.89-.39-2.09-1.08-2.3-1.87-1.9-7.07-8.92-9.65-12.88-14.9a1.88,1.88,0,0,0-1.51-.62c-.94.2-.65,1.11-.71,1.81s.89,1.74-.23,2.53c-1.83-2.69-1.1-6-2.37-8.88a1.69,1.69,0,0,1,.82-2.27c.79-.35,1.32.32,1.85.84a8.28,8.28,0,0,0,1.66,1.43c1,.53,1.9,2,3.06,1.22,1.32-.88.65-2.4.22-3.63a4.33,4.33,0,0,0-3.33-3.18c-1.07-.21-2.46-.29-2.29-2.21a35,35,0,0,0,4.54-1.41c6.53-3,13.9-3.52,20.24-7,5.58-3.06,11.74-4.6,17.74-6.33,7.86-2.27,15.74-4.07,21.15-11,.57-.72,2.28-1,1.47-2.16s-2.29-.62-3.16.13c-2.53,2.2-5.47,1.77-8.39,1.63-8.69-.43-17-3.06-25.65-4.07a19.1,19.1,0,0,1-6.3-1.81c-9.83-4.91-17.78-12.4-26.36-19-5.16-4-9.6-8.69-12.19-14.83-.78-1.84-1.45-2.66-3.46-1.07-5.73,4.56-11.14,9.59-17.74,13-.95.49-1.8,1.39-1.45,2.48,1,3-1.13,4-3.11,4.92-14.54,7.08-30.21,10-46,12.55-7.1,1.13-14.37.75-21.38,2.54-2.61.67-6.71.74-6.87,3.47s4.06,2.56,6.38,3.5c3,1.2,5.52,3.71,9.28,3.23-.68-2.32-2.34-3.3-3.84-4.45-.71-.55-1.49-1.27-.84-2.18a1.77,1.77,0,0,1,2.73-.16c.66.54,1,1.44,1.66,2,5.22,4.68,10,9.94,17.14,11.94,3.67,1,7.25,2.43,11,3.27,4.82,1.09,9.52,2.63,14.43,3.42,2.48.4,6.42,1,5.43,4.89-1.24,4.9-2.19,10.1-6.1,13.94-4.37,4.27-8.24,9-13,13-9.95,8.41-19.45,17.4-31.9,22.18-1.65.63-3.85,2.52-5.07.33-1.4-2.52,3-1.05,3-3.18-.86-1.09-2-.45-2.76-.09-5,2.31-10.49,2.54-15.86,3.15-1,.11-2.34-.53-2.78.66s.92,2.06,1.73,2.77c14.33,12.43,30.77,19.33,49.93,20,5.89.22,12.54-2.57,17.75,2.9.73.76,2.23.16,3.4-.11,3.3-.77,3.28-.7,5.24,2.21.27.41,1,.57,1.53.73.85.24,1.88.34,1.66,1.55a2,2,0,0,1-2,1.52c-3.33,0-6.77,1.18-10-.28-2.92-1.33-4.76-.35-5.29,2.45-.79,4.19-3.53,7.17-6.14,10-15,16.13-31,31.13-49.5,43.21-2.35,1.53-5,2.91-6.76,5.7,5.59,1.68,11,1.54,16.39,2.16,11.91,1.39,24.19,1.6,34,10.13a4.76,4.76,0,0,0,5,.61c8-3.06,16.67-3.13,24.85-5.38,1.13-.31,2.76-1.5,3.26.57a2.73,2.73,0,0,1-2.14,3.35c-2.38.71-4.77,1.41-7.11,2.25-1.16.42-2.94.32-3.18,1.88s1.08,2.59,2.57,3.12c1,.35,2.54,1,2,1.9-2,3.08,1,4.13,2.61,6.1-2.51.54-4.42-.4-6.41-.26-3.35.23-4.64,1.49-3.64,4.69,2.16,6.94-1.16,11.75-6.33,15.53-12.5,9.15-25.35,17.82-38.6,25.85-2.19,1.32-4.55,2.35-6.83,3.52,2.3-3.27,6.15-4.39,9.25-8.34-12.39,3.4-23.71,6.9-35.7,7.21.43,1.79,1.55,2.55,2.48,3.48,8.7,8.72,20.27,10.82,31.53,13.32,7.6,1.69,15.4,2.89,23.3,2.22.3,0,1,.47.93.67-.38,3.23,1.86,2.12,2.35,1,1.32-3,3.28-1.8,5.43-1.68,5,.27,10.06.34,13.22-4.71.82-1.32,2.16-2.15,3.07-.51,1.44,2.56,2.38,2.08,3.55,0a1.72,1.72,0,0,1,2.17-1c5.53,1.92,9.3-1.86,13.18-4.44,5.47-3.63,6.93-3.9,12.74-.57a27.22,27.22,0,0,0,10,3.12c2.18.28,4,.38,4.87-2.3.59-1.73,2.53-2.94,3.4-.52,1.15,3.16,3.38,2.91,5.85,3.42,4.73,1,9.29.19,13.95-.29,18-1.85,35.78-4.66,52.17-13.05,2.25-1.16,3.79-2.37,4.11-5.13s2.17-3.54,4-1.29c1.1,1.33,1.79,1,2.91.54,10.87-4.63,21.29-9.8,29.45-18.82,4.65-5.13,9.15-10.82,16.59-12.47a2.2,2.2,0,0,0,1.92-2.58c-2-.68-3.6.34-5.37,1.09-4.76,2-9.22,4.58-14.5,5.54-3.83.69-7.25-.07-10.82-.67-15.51-2.62-31.41-.93-46.86-4.18-9.46-2-19.19-2.45-28.45-5.72-7.1-2.5-14.37-5.38-22.26-2.71.84-3.86-2.49-5-4.3-7-.77-.88-3.09-.54-2.44-2.38.46-1.32,2.22-1.15,3.53-1.19,6-.21,12,0,18-.73s12-1.49,16.1-6.74c.8-1,1.12-2.42,2.76-2.43a1.45,1.45,0,0,1,1.59,1.23,3.88,3.88,0,0,1-1.83,3.77,20.44,20.44,0,0,1-4.27,2.24c-1.22.47-2.58.61-2.84,2.95,12.14-1.91,24.51-2.08,33.52-12.65l.57,1.16C273.08,242,272.71,243,272.16,244.53ZM196.53,370.42c4.75.52,3.81-2.42,3.92-4.34.64-12-.41-24.1,4-35.65.73-1.94-.59-2.55-2.12-3.06-3.2-1.07-6.37-2.21-9.55-3.35a13.24,13.24,0,0,0-16.4,6.8,7.54,7.54,0,0,1-4.74,4.33c-3.82.92-4.49,3.47-4.61,6.89a183.87,183.87,0,0,0,.41,20.19c.24,3.26,2,7.63-3.13,9.82-1,.42-1.58,3.71-.08,5.23,2.66,2.7,5.51.37,8.18-.37s.4-1.9.09-2.9c-1-3.05.35-4.14,3.66-4.62C183.37,368.35,190.37,369.92,196.53,370.42ZM269,319.91c-10.5,3.61-21,4.73-30.8,8.57C253.07,329.19,265.39,325.89,269,319.91Zm-116.4-56.1c-4.66,9.65-12.7,16.56-20.53,24.95C142.37,285.56,153.81,271.52,152.58,263.81Zm-58.7,36.91c.1.37.21.75.31,1.13,10.33-1.7,20.44-4.05,29.35-9.82l-.48-1.4Zm140.6-251q-9.93-7.1-19.87-14.18A5,5,0,0,0,213.4,35c-.69-.26-1.47-.57-2,.1s.14,1.28.48,1.89c1.54,2.74,4.58,3.54,6.88,5.29C223.34,45.82,228.08,49.24,234.48,49.71ZM97.71,328.16c10.8,4,21.83,6.21,33.33,5C120,331,108.74,330.22,97.71,328.16ZM145.48,51.93c7.84-3.33,15.51-6.88,22.12-12.31C160.19,43.7,151.53,45.48,145.48,51.93Zm60.65,289.81c-1.6,9-2.47,18-1.56,27.11C206.18,359.87,207.09,350.85,206.13,341.74ZM148.89,92.25c-.41,0-2.58-.37-1.61,1.64s2.59,4,5,4.26a3.18,3.18,0,0,0,3.48-2.74c.43-1.94-1-2.54-2.6-2.7ZM233.33,259.6c4.81.52,9.25,3.74,14.39,1.86C243.27,258.31,238.41,258.15,233.33,259.6ZM160.88,51a40,40,0,0,0,11.27-3c1-.38,2.4-1,1.59-2.52-.65-1.24-1.94-.79-2.7-.28C167.94,47.27,164.06,48,160.88,51Zm138.73,88.15C294.68,141.3,292,146,288.66,150A31.6,31.6,0,0,0,299.61,139.16Zm-71.69,51c2.28,5.8,7.55,9.51,12.18,8.77ZM115.73,242.57c4.32,2,8.62,4.09,13.54,4.29A20.42,20.42,0,0,0,115.73,242.57ZM230.7,333c5.72,1.87,9.75,1.73,13-.7C239.11,333.08,234.92,331.24,230.7,333ZM108,243.93c4.3,3.84,6.45,4.54,10.17,3.27C114.89,245.71,112,243.72,108,243.93Zm34.76,12.8c1.9,2.56,4.26,1.95,6.32,2.1a1.87,1.87,0,0,0,1.89-2c0-1.43-1.11-1.39-2.23-1.16C147,256,145.1,256.32,142.79,256.73ZM93.85,240.47l-.27.82a10.82,10.82,0,0,0,1.81,1c1.94.58,3.91,1.07,5.89.24.16-.07.23-.92,0-1.11-1.57-1.53-3.56-.81-5.4-.89C95.24,240.45,94.55,240.47,93.85,240.47ZM246.79,91.16l-11,3.73C239.78,94.6,243.8,94.5,246.79,91.16Z" fill-rule="evenodd"/><path d="M99.08,80.92l.2-.33c1.22-.86,2.74-.41,3,.58,1.07,3.69,4.22,3.59,6.93,4.14,4.19.85,6.43,5.64,11.16,5.37.58,0,.71.85.5,1.45-.37,1.12-1.26,1.12-2.15.85-6.59-2-13.8-2.8-17.57-9.84A11.25,11.25,0,0,0,99.08,80.92Z" fill-rule="evenodd"/><path d="M272.16,244.53c.55-1.53.92-2.56,1.3-3.6l-.57-1.16c-9,10.57-21.38,10.74-33.52,12.65.26-2.34,1.62-2.48,2.84-2.95a20.44,20.44,0,0,0,4.27-2.24,3.88,3.88,0,0,0,1.83-3.77,1.45,1.45,0,0,0-1.59-1.23c-1.64,0-2,1.39-2.76,2.43-4.06,5.25-10.2,6.05-16.1,6.74s-12,.52-18,.73c-1.31,0-3.07-.13-3.53,1.19-.65,1.84,1.67,1.5,2.44,2.38,1.81,2,5.14,3.15,4.3,7,7.89-2.67,15.16.21,22.26,2.71,9.26,3.27,19,3.72,28.45,5.72,15.45,3.25,31.35,1.56,46.86,4.18,3.57.6,7,1.36,10.82.67,5.28-1,9.74-3.54,14.5-5.54,1.77-.75,3.35-1.77,5.37-1.09a2.2,2.2,0,0,1-1.92,2.58c-7.44,1.65-11.94,7.34-16.59,12.47-8.16,9-18.58,14.19-29.45,18.82-1.12.48-1.81.79-2.91-.54-1.86-2.25-3.71-1.39-4,1.29s-1.86,4-4.11,5.13c-16.39,8.39-34.14,11.2-52.17,13.05-4.66.48-9.22,1.26-13.95.29-2.47-.51-4.7-.26-5.85-3.42-.87-2.42-2.81-1.21-3.4.52-.92,2.68-2.69,2.58-4.87,2.3a27.22,27.22,0,0,1-10-3.12c-5.81-3.33-7.27-3.06-12.74.57-3.88,2.58-7.65,6.36-13.18,4.44a1.72,1.72,0,0,0-2.17,1c-1.17,2.1-2.11,2.58-3.55,0-.91-1.64-2.25-.81-3.07.51-3.16,5.05-8.24,5-13.22,4.71-2.15-.12-4.11-1.33-5.43,1.68-.49,1.11-2.73,2.22-2.35-1,0-.2-.63-.69-.93-.67-7.9.67-15.7-.53-23.3-2.22-11.26-2.5-22.83-4.6-31.53-13.32-.93-.93-2.05-1.69-2.48-3.48,12-.31,23.31-3.81,35.7-7.21-3.1,3.95-7,5.07-9.25,8.34,2.28-1.17,4.64-2.2,6.83-3.52,13.25-8,26.1-16.7,38.6-25.85,5.17-3.78,8.49-8.59,6.33-15.53-1-3.2.29-4.46,3.64-4.69,2-.14,3.9.8,6.41.26-1.66-2-4.58-3-2.61-6.1.57-.89-1-1.55-2-1.9-1.49-.53-2.84-1.42-2.57-3.12s2-1.46,3.18-1.88c2.34-.84,4.73-1.54,7.11-2.25a2.73,2.73,0,0,0,2.14-3.35c-.5-2.07-2.13-.88-3.26-.57-8.18,2.25-16.83,2.32-24.85,5.38a4.76,4.76,0,0,1-5-.61c-9.8-8.53-22.08-8.74-34-10.13-5.35-.62-10.8-.48-16.39-2.16,1.75-2.79,4.41-4.17,6.76-5.7,18.54-12.08,34.53-27.08,49.5-43.21,2.61-2.81,5.35-5.79,6.14-10,.53-2.8,2.37-3.78,5.29-2.45,3.21,1.46,6.65.33,10,.28a2,2,0,0,0,2-1.52c.22-1.21-.81-1.31-1.66-1.55-.55-.16-1.26-.32-1.53-.73-2-2.91-1.94-3-5.24-2.21-1.17.27-2.67.87-3.4.11-5.21-5.47-11.86-2.68-17.75-2.9-19.16-.71-35.6-7.61-49.93-20-.81-.71-2.21-1.44-1.73-2.77s1.81-.55,2.78-.66c5.37-.61,10.81-.84,15.86-3.15.79-.36,1.9-1,2.76.09,0,2.13-4.39.66-3,3.18,1.22,2.19,3.42.3,5.07-.33,12.45-4.78,22-13.77,31.9-22.18,4.71-4,8.58-8.72,13-13,3.91-3.84,4.86-9,6.1-13.94,1-3.92-2.95-4.49-5.43-4.89-4.91-.79-9.61-2.33-14.43-3.42-3.71-.84-7.29-2.24-11-3.27-7.11-2-11.92-7.26-17.14-11.94-.64-.58-1-1.48-1.66-2a1.77,1.77,0,0,0-2.73.16c-.65.91.13,1.63.84,2.18,1.5,1.15,3.16,2.13,3.84,4.45-3.76.48-6.33-2-9.28-3.23-2.32-.94-6.56-.64-6.38-3.5s4.26-2.8,6.87-3.47c7-1.79,14.28-1.41,21.38-2.54,15.79-2.51,31.46-5.47,46-12.55,2-1,4.07-1.92,3.11-4.92-.35-1.09.5-2,1.45-2.48,6.6-3.4,12-8.43,17.74-13,2-1.59,2.68-.77,3.46,1.07,2.59,6.14,7,10.86,12.19,14.83,8.58,6.61,16.53,14.1,26.36,19a19.1,19.1,0,0,0,6.3,1.81c8.61,1,17,3.64,25.65,4.07,2.92.14,5.86.57,8.39-1.63.87-.75,2.39-1.28,3.16-.13s-.9,1.44-1.47,2.16c-5.41,6.88-13.29,8.68-21.15,11-6,1.73-12.16,3.27-17.74,6.33-6.34,3.47-13.71,4-20.24,7a35,35,0,0,1-4.54,1.41c-.17,1.92,1.22,2,2.29,2.21a4.33,4.33,0,0,1,3.33,3.18c.43,1.23,1.1,2.75-.22,3.63-1.16.77-2.08-.69-3.06-1.22a8.28,8.28,0,0,1-1.66-1.43c-.53-.52-1.06-1.19-1.85-.84a1.69,1.69,0,0,0-.82,2.27c1.27,2.83.54,6.19,2.37,8.88,1.12-.79.15-1.7.23-2.53s-.23-1.61.71-1.81a1.88,1.88,0,0,1,1.51.62c4,5.25,11,7.83,12.88,14.9.21.79,1.41,1.48,2.3,1.87,8.43,3.71,16.78,7.63,25.37,10.92,6.37,2.43,13.27,2.1,20,2.19a22.13,22.13,0,0,1,4.39.08c2.15.47,5.25-.81,6.18,2.12s-2.64,2.48-3.79,4c-.45.57-1,1-1.48,1.63-7.74,10.27-18.84,14.6-30.87,16.62-10.85,1.82-21.88,2.39-32.89,3-3,.17-6-1.81-9,.05-.84.52-2.11.46-2.29,1.76s.71,1.69,1.62,2.31c2.65,1.8,4.66,8.6,3.3,11.54-.55,1.19-.5,1.73.42,2.58,5.82,5.33,11.57,10.74,17.36,16.09,7.07,6.54,16.25,9.22,24.65,13.29a86.26,86.26,0,0,0,23.9,7.39c6.81,1.07,13.72,3.11,20.81,2.63,1.26-.08,2.81-.14,3.26,1.55a3.64,3.64,0,0,1-1.13,3.61c-4,4.19-9,6.83-14.2,9.35S278.4,243.52,272.16,244.53Z" fill="#00261c" fill-rule="evenodd"/><path d="M196.53,370.42c-6.16-.5-13.16-2.07-20.39-1-3.31.48-4.62,1.57-3.66,4.62.31,1,2.45,2.19-.09,2.9s-5.52,3.07-8.18.37c-1.5-1.52-.89-4.81.08-5.23,5.08-2.19,3.37-6.56,3.13-9.82A183.87,183.87,0,0,1,167,342c.12-3.42.79-6,4.61-6.89a7.54,7.54,0,0,0,4.74-4.33,13.24,13.24,0,0,1,16.4-6.8c3.18,1.14,6.35,2.28,9.55,3.35,1.53.51,2.85,1.12,2.12,3.06-4.39,11.55-3.34,23.69-4,35.65C200.34,368,201.28,370.94,196.53,370.42Z" fill="#5c110f" fill-rule="evenodd"/><path d="M152.58,263.81c1.23,7.71-10.21,21.75-20.53,24.95C139.88,280.37,147.92,273.46,152.58,263.81Z" fill="none" fill-rule="evenodd"/><path d="M93.88,300.72l29.18-10.09.48,1.4c-8.91,5.77-19,8.12-29.35,9.82C94.09,301.47,94,301.09,93.88,300.72Z" fill="none" fill-rule="evenodd"/><path d="M234.48,49.71c-6.4-.47-11.14-3.89-15.75-7.42-2.3-1.75-5.34-2.55-6.88-5.29-.34-.61-1.1-1.15-.48-1.89s1.34-.36,2-.1a5,5,0,0,1,1.21.52Q224.56,42.6,234.48,49.71Z" fill="none" fill-rule="evenodd"/><path d="M97.71,328.16c11,2.06,22.29,2.82,33.33,5C119.54,334.37,108.51,332.18,97.71,328.16Z" fill="none" fill-rule="evenodd"/><path d="M145.48,51.93c6.05-6.45,14.71-8.23,22.12-12.31C161,45.05,153.32,48.6,145.48,51.93Z" fill="none" fill-rule="evenodd"/><path d="M206.13,341.74c1,9.11.05,18.13-1.56,27.11C203.66,359.74,204.53,350.72,206.13,341.74Z" fill="none" fill-rule="evenodd"/><path d="M148.89,92.25l4.31.46c1.64.16,3,.76,2.6,2.7a3.18,3.18,0,0,1-3.48,2.74c-2.45-.31-4.12-2.36-5-4.26S148.48,92.26,148.89,92.25Z" fill="none" fill-rule="evenodd"/><path d="M160.88,51c3.18-3,7.06-3.74,10.16-5.83.76-.51,2.05-1,2.7.28.81,1.54-.6,2.14-1.59,2.52A40,40,0,0,1,160.88,51Z" fill="none" fill-rule="evenodd"/><path d="M115.73,242.57a20.42,20.42,0,0,1,13.54,4.29C124.35,246.66,120.05,244.55,115.73,242.57Z" fill="none" fill-rule="evenodd"/><path d="M108,243.93c4-.21,6.86,1.78,10.17,3.27C114.48,248.47,112.33,247.77,108,243.93Z" fill="none" fill-rule="evenodd"/><path d="M142.79,256.73c2.31-.41,4.16-.7,6-1.08,1.12-.23,2.2-.27,2.23,1.16a1.87,1.87,0,0,1-1.89,2C147.05,258.68,144.69,259.29,142.79,256.73Z" fill="none" fill-rule="evenodd"/><path d="M93.85,240.47c.7,0,1.39,0,2.08,0,1.84.08,3.83-.64,5.4.89.18.19.11,1,0,1.11-2,.83-4,.34-5.89-.24a10.82,10.82,0,0,1-1.81-1Z" fill="none" fill-rule="evenodd"/></svg>