<svg id="Layer_1" data-name="Layer 1" xmlns="http://www.w3.org/2000/svg" viewBox="0 0 400 400"><path d="M229.78,228c-26.62,27.07-19.47,105.44,3.05,127-13,8.62-39.35,12.94-57.83,11.81,17.14-31.6,8.19-67,9.13-106.32-24.95-.18-62.48-9-54.79-50.21-8-8.35-37.26-7.41-48.69-20.67-5.28-26.37.8-57.76,27.39-62-28.77-41,8.09-93,60.87-79.73,12.56-18.58,32.72-8.5,54.79-8.87,8.82-.15,15.36-6.93,24.34-5.9,35,4,52.9,25.34,42.62,67.92,6.49,15.11,30.73,22,30.42,44.3-.12,8.92-16.72,16.6-18.25,29.53-1.13,9.49,7.83,16.68,6.08,23.62C300.65,231.32,258.35,242.08,229.78,228ZM175,65.59c-21.56-21.85-59-1.08-67,17.72-5.61,29.07,14.84,32.85,21.3,50.21-29.18.22-41.38,16.92-39.56,47.25,7.67,19.93,42.51,9,54.78,17.71-7.9,13.15-4.84,27.11,0,41.35,29.85,21.88,73.22,1.84,79.14-26.58,23.14,19.44,66.66,8.71,76.09-17.71-32.42-21.11,10.81-27.56,9.12-53.16-1.34-20.38-17.15-17.68-36.52-32.49,37.4-46.42-30.93-89.83-60.87-47.26,5.65-7.26-7.66-6.61,0-17.71C187.56,40.37,186.25,57.81,175,65.59Z" fill-rule="evenodd"/><path d="M141.52,71.5c9.57-1.42,11.9,4.21,18.26,5.9.49,9.34.12,17.82-6.09,20.68C137.05,100.15,136.77,81.78,141.52,71.5Z" fill-rule="evenodd"/><path d="M193.26,83.31c7.62,2.44,9.63,10.35,15.22,14.77-1.59,4.36-4.51,7.44-6.1,11.81-9.7,2.53-9.41-4.65-15.2-5.91C186.87,94.82,190.89,89.87,193.26,83.31Z" fill-rule="evenodd"/><path d="M251.09,95.12c.53,10.38-10.28,9.72-12.17,17.72-6.07-3-13-5.11-15.22-11.81C224.26,82.76,243,85.57,251.09,95.12Z" fill-rule="evenodd"/><path d="M251.09,142.38H266.3c-.38,5.29,3.73,6.22,3,11.81-10.4.73-16.59,5.55-24.34,8.85C247.2,156.33,247.71,148,251.09,142.38Z" fill-rule="evenodd"/><path d="M184.13,186.67c1.83,17.53-3.64,28-21.3,26.58-.09-2.87-3.73-2.28-6.09-3C142.75,180.22,169.78,159.1,184.13,186.67Zm-15.22,17.72c.89-6,8.24-5.79,9.13-11.81-6,0-3.86-8.06-12.18-5.91C163.72,194,162.87,198.81,168.91,204.39Z" fill-rule="evenodd"/><path d="M153.69,115.79c24.77-2.92,31,28.29,12.17,35.44C149.9,152,146.69,127.88,153.69,115.79Z" fill-rule="evenodd"/><path d="M226.75,166c-4.88,5.11-9.22,10.76-21.32,8.86C182,150.12,228.62,127.06,226.75,166Z" fill-rule="evenodd"/><path d="M272.39,183.72v11.82c-4.42,4.56-15.58,2.59-24.35,2.94C244.69,183,263.66,178.14,272.39,183.72Z" fill-rule="evenodd"/></svg>