<svg id="Layer_1" data-name="Layer 1" xmlns="http://www.w3.org/2000/svg" viewBox="0 0 400 400"><path d="M93.91,13.25l-2-1.53a11.93,11.93,0,0,1,3.56-3.07c.64,2.39,1.24,4.77,1.62,7Z" fill="#8bc53f"/><path d="M122.51,22.52c.71,2,1.45,4,2.07,6.12a24.72,24.72,0,0,1,.74,4.85,25.65,25.65,0,0,0,.74,4.8c-.62-.5-1.24-1-1.86-1.53-1.44-1.19-3-2.45-4.52-3.71v0l-.2-.14-.44-.36a2.11,2.11,0,0,1-.61-1.43c0-.14,0-.27-.07-.42-.55-2.89-1.13-6-1.57-8.88a41.11,41.11,0,0,0-2.18-7.71c-.5-1.42-1-2.87-1.43-4.34-.18-.63-.34-1.27-.5-1.92a41.08,41.08,0,0,1,6.13,2.29c.36,1.52.74,3,1.12,4.53C120.65,17.37,121.59,20,122.51,22.52Z" fill="#8bc53f"/><path d="M91.46,12.31l.34.25-.63.19C91.26,12.6,91.36,12.46,91.46,12.31Z" fill="#8bc53f"/><path d="M94.23,15.91l1.72-.2,2.73,2.07-1.9.15c-2.51.21-5,.41-7.42.74a13.87,13.87,0,0,1,.31-2.16c1.49-.25,3-.42,4.52-.6Z" fill="#8bc53f"/><path d="M116.09,21.9c.44,2.93,1,6,1.56,8.92,0,.14,0,.27.08.39s0,.2,0,.3l-2.1-1.66-3.16-2.45a95.84,95.84,0,0,0-2.37-10c-.66-2.43-1.35-4.94-1.85-7.29-.23-1.05-.39-2.11-.54-3.14,0,0,0-.08,0-.12a32.27,32.27,0,0,1,4.15.81c.19.79.38,1.57.59,2.34.43,1.48,1,3,1.45,4.37A42.65,42.65,0,0,1,116.09,21.9Z" fill="#8bc53f"/><path d="M103.78,20.73,101,18.6,97.9,16.28a76.13,76.13,0,0,0-1.8-8,16.17,16.17,0,0,1,4.23-1.39c.39,1.53.81,3.09,1.22,4.61C102.4,14.62,103.27,17.82,103.78,20.73Z" fill="#8bc53f"/><path d="M111.68,26.75l-7.07-5.39a95.39,95.39,0,0,0-2.36-10c-.41-1.5-.83-3-1.2-4.53a23.51,23.51,0,0,1,6-.09c0,.1,0,.2,0,.31.15,1.05.31,2.11.54,3.19.51,2.37,1.2,4.89,1.86,7.32C110.3,20.64,111.17,23.84,111.68,26.75Z" fill="#8bc53f"/><path d="M92.58,13.15l.89.67L95.07,15l.05.05-1,.12c-1.44.16-2.83.32-4.24.54a11.65,11.65,0,0,1,.81-2.08c.62-.18,1.23-.37,1.84-.57Z" fill="#8bc53f"/><path d="M129.8,42.29c-6.07.87-12.23,1.52-18.2,2.16l-7,.75a51.48,51.48,0,0,1-4.38-3.85,71.7,71.7,0,0,1,9.9-1.61c1.86-.13,3.79-.18,5.66-.23a77.48,77.48,0,0,0,9.78-.66C127.24,40.21,128.56,41.29,129.8,42.29Z" fill="#8bc53f"/><path d="M99.54,18.43l1.75,1.33c-1.2.26-2.42.5-3.52.71a66,66,0,0,0-7.39,1.74l-.85.28a18.1,18.1,0,0,1-.2-3.08c2.47-.35,5-.55,7.51-.75Z" fill="#8bc53f"/><path d="M115.24,30.42c1,.76,2,1.59,3.36,2.68l.24.21c-2.55.38-5.14.6-7.65.81-2.68.23-5.46.46-8.17.88a56.44,56.44,0,0,0-6.94,1.64,42.25,42.25,0,0,1-2.67-3.9,34.74,34.74,0,0,1,6.84-1.7l1.81-.2a86.94,86.94,0,0,0,11.48-1.74Z" fill="#8bc53f"/><path d="M136.94,47.76a161.74,161.74,0,0,0-19.4,1.73c-1.06.17-2.12.37-3.17.59a27.18,27.18,0,0,1-8.91-4.25l6.21-.66c6.22-.66,12.64-1.34,18.9-2.26C132.88,44.75,135,46.34,136.94,47.76Z" fill="#8bc53f"/><path d="M112.8,28.53A94.24,94.24,0,0,1,102,30.13l-1.81.19a35.35,35.35,0,0,0-7.12,1.78,32.28,32.28,0,0,1-2.53-5.54c1.72-.48,3.34-.85,4.77-1.14a36.8,36.8,0,0,1,4.67-.56,28.7,28.7,0,0,0,6.65-1.07Z" fill="#8bc53f"/><path d="M95.15,24.71c-1.46.3-3.11.67-4.84,1.16a22.78,22.78,0,0,1-.66-2.65l.95-.32a65.71,65.71,0,0,1,7.31-1.72c1.36-.26,2.76-.53,4.14-.85l3.85,2.93a30.34,30.34,0,0,1-6,.87A40.46,40.46,0,0,0,95.15,24.71Z" fill="#8bc53f"/><path d="M123.72,37.3l1.11.92a82.45,82.45,0,0,1-9,.57c-1.87.05-3.81.1-5.69.23a75,75,0,0,0-10.44,1.71h0a45,45,0,0,1-3.08-3.49,53.46,53.46,0,0,1,6.57-1.53c2.68-.42,5.45-.65,8.12-.88s5.59-.47,8.37-.91Z" fill="#8bc53f"/><path d="M140.92,49.64,139,48.32c-.12-.77-.22-1.56-.31-2.25-.15-1.22-.31-2.47-.56-3.67-.37-1.86-.82-3.76-1.24-5.6s-.84-3.61-1.21-5.39-.69-3.93-1-5.89c-.15-1-.3-2-.46-3,7.34,11.4,7.13,27,7.13,27Z" fill="#8bc53f"/><path d="M136.14,36.93c.43,1.86.88,3.76,1.25,5.61.24,1.19.4,2.42.55,3.62l.21,1.58c-1.2-.86-2.43-1.76-3.65-2.69a7.47,7.47,0,0,1-1.05-3.95c0-.5-.09-1-.16-1.49-.85-5.72-2.73-11.3-4.54-16.69-1-2.85-1.93-5.78-2.75-8.68.67.46,1.34.94,2,1.45a25.37,25.37,0,0,1,5.24,5.42c.27,1.5.5,3,.72,4.52.29,2,.6,4,1,5.93S135.73,35.16,136.14,36.93Z" fill="#8bc53f"/><path d="M132.57,39.71c.08.46.11.94.16,1.45a12.55,12.55,0,0,0,.46,2.88c-1.8-1.4-3.74-2.95-6.16-4.94a2.33,2.33,0,0,1-.07-.25,4.79,4.79,0,0,0-.13-.51,22.67,22.67,0,0,1-.78-4.91,25.66,25.66,0,0,0-.78-5c-.62-2.11-1.36-4.17-2.08-6.17-.91-2.51-1.85-5.11-2.55-7.8-.33-1.31-.66-2.62-1-4a49.47,49.47,0,0,1,5.41,3.09c.07.26.15.51.21.77.83,2.94,1.82,5.9,2.79,8.76A99,99,0,0,1,132.57,39.71Z" fill="#8bc53f"/><path d="M140,49.88c-3.66.86-14.07,2.88-24,.62l1.64-.29a165.85,165.85,0,0,1,20.25-1.77C138.6,48.94,139.29,49.42,140,49.88Z" fill="#8bc53f"/><path d="M340.9,41.78,343.76,39c.59-.56,1.19-1.15,1.82-1.77a11.87,11.87,0,0,1,2.49,4C345.61,41.53,343.16,41.75,340.9,41.78Z" fill="#8bc53f"/><path d="M330.17,65.85c-2.07.4-4.22.81-6.37,1.1a25.07,25.07,0,0,1-4.9,0,25.46,25.46,0,0,0-4.86,0l1.79-1.6c1.4-1.23,2.89-2.55,4.38-3.89v0l.18-.18.42-.39a2.11,2.11,0,0,1,1.51-.37h.42c2.94-.09,6.06-.19,9-.17a41.65,41.65,0,0,0,8-1c1.48-.27,3-.56,4.51-.74.65-.08,1.31-.15,2-.2a40.41,40.41,0,0,1-3.21,5.7c-1.56.12-3.11.26-4.65.41C335.54,64.82,332.81,65.34,330.17,65.85Z" fill="#8bc53f"/><path d="M344.67,36.41c.14.11.27.23.4.35l-.3.3C344.73,36.84,344.7,36.62,344.67,36.41Z" fill="#8bc53f"/><path d="M341.08,38.94c0,.57-.05,1.15-.07,1.74l-2.47,2.37c0-.64.1-1.27.14-1.9.19-2.52.38-5,.43-7.45a15.25,15.25,0,0,1,2.08.64c0,1.51,0,3-.11,4.56Z" fill="#8bc53f"/><path d="M339.6,58.66a42.54,42.54,0,0,1-7.83,1c-3,0-6.09.07-9,.17H322L324,58l2.91-2.75a94.75,94.75,0,0,0,10.29-.78c2.5-.28,5.09-.57,7.5-.71,1.07-.06,2.14-.05,3.17,0H348a33.56,33.56,0,0,1-1.45,4c-.81.06-1.61.13-2.4.23C342.6,58.1,341.08,58.38,339.6,58.66Z" fill="#8bc53f"/><path d="M334.84,47.63l2.55-2.46,2.76-2.66a76.65,76.65,0,0,0,8.16-.54,15.88,15.88,0,0,1,.71,4.39c-1.57.14-3.17.32-4.73.49C341.09,47.21,337.8,47.58,334.84,47.63Z" fill="#8bc53f"/><path d="M344.64,53c-2.42.14-5,.43-7.52.7-3.19.36-6.49.73-9.45.78,1.86-1.77,3.86-3.69,6.41-6.14a94.85,94.85,0,0,0,10.29-.79c1.54-.17,3.11-.34,4.66-.48a24.11,24.11,0,0,1-.84,5.89h-.31C346.82,53,345.74,53,344.64,53Z" fill="#8bc53f"/><path d="M343.26,38.52l-1.44,1.38-.06.05c0-.34,0-.68.05-1,.06-1.45.11-2.85.11-4.28a12.87,12.87,0,0,1,1.94,1.12c.07.64.17,1.27.27,1.9l-.07.07Z" fill="#8bc53f"/><path d="M314.42,56.61a78.42,78.42,0,0,0-.86,9.76c-1.6,1.42-2.87,2.56-4.05,3.63.08-6.13.38-12.32.69-18.31.11-2.31.23-4.66.33-7A51.28,51.28,0,0,1,315,41a72.93,72.93,0,0,1,.05,10C314.91,52.83,314.66,54.75,314.42,56.61Z" fill="#8bc53f"/><path d="M337.77,43.8l-1.58,1.52c-.08-1.23-.13-2.47-.17-3.58a64.11,64.11,0,0,0-.57-7.57c0-.3-.09-.6-.15-.89a18.21,18.21,0,0,1,3.09.28c-.05,2.49-.23,5-.42,7.54C337.9,42,337.83,42.89,337.77,43.8Z" fill="#8bc53f"/><path d="M325.11,44.36A88.31,88.31,0,0,0,325.06,56l-1.57,1.48c-.9.84-1.88,1.74-3.17,2.9a2.29,2.29,0,0,0-.24.22c0-2.59.2-5.18.38-7.7.19-2.68.39-5.46.39-8.2a56.14,56.14,0,0,0-.53-7.11,40.09,40.09,0,0,1,4.26-2,35.22,35.22,0,0,1,.62,7Z" fill="#8bc53f"/><path d="M308.78,70.67c-2.18,2-4.07,3.81-5.78,5.53a160.73,160.73,0,0,0,1.29-19.43c0-1.07,0-2.15-.09-3.23a27.24,27.24,0,0,1,5.58-8.13c-.1,2.09-.2,4.18-.31,6.23C309.16,57.88,308.84,64.33,308.78,70.67Z" fill="#8bc53f"/><path d="M331.37,50c-2.12,2-3.93,3.77-5.64,5.38a93,93,0,0,1,.11-10.93c0-.62.05-1.23.08-1.83a35.82,35.82,0,0,0-.65-7.31,31.76,31.76,0,0,1,5.87-1.63c.2,1.76.31,3.43.38,4.9a41.46,41.46,0,0,1-.16,4.69A28,28,0,0,0,331.37,50Z" fill="#8bc53f"/><path d="M332.08,43.28a40.82,40.82,0,0,0,.17-4.79c-.08-1.49-.19-3.18-.4-5a23.39,23.39,0,0,1,2.72-.23c.06.33.12.66.17,1a64.57,64.57,0,0,1,.56,7.48c.05,1.38.11,2.81.21,4.22L332,49.34A29.3,29.3,0,0,1,332.08,43.28Z" fill="#8bc53f"/><path d="M319.74,52.82c-.2,2.76-.4,5.6-.39,8.41l-4,3.53-1.08,1a82.44,82.44,0,0,1,.84-9c.24-1.86.49-3.79.65-5.66a73.12,73.12,0,0,0-.08-10.58v0a46,46,0,0,1,3.92-2.51,54.26,54.26,0,0,1,.5,6.72C320.13,47.38,319.93,50.15,319.74,52.82Z" fill="#8bc53f"/><path d="M304.41,78.17c1.22,0,2.48.07,3.71,0,1.89-.08,3.84-.22,5.72-.36s3.7-.27,5.51-.36,4-.07,6-.06c1,0,2,0,3,0-12.39,5.5-27.77,2.87-27.77,2.87s0-.15,0-.43c.52-.57,1.05-1.14,1.61-1.73C302.91,78.12,303.7,78.15,304.41,78.17Z" fill="#8bc53f"/><path d="M310.12,73.79c.5,0,1,.07,1.5.07A98.65,98.65,0,0,0,328.81,72c3-.5,6-1,9-1.37q-.84.89-1.74,1.74a25.9,25.9,0,0,1-6.17,4.34c-1.52,0-3.06,0-4.57,0-2,0-4.05,0-6,.06s-3.69.22-5.5.35-3.85.29-5.73.37c-1.21.06-2.46,0-3.66,0-.54,0-1.08,0-1.6,0,1-1.06,2.12-2.13,3.22-3.2A7.57,7.57,0,0,1,310.12,73.79Z" fill="#8bc53f"/><path d="M337.78,69.86c-3,.36-6.11.88-9.09,1.39a98.56,98.56,0,0,1-17.06,1.89c-.47,0-.95,0-1.46-.07a12.87,12.87,0,0,0-2.91,0c1.66-1.56,3.49-3.23,5.83-5.31a1.14,1.14,0,0,1,.26,0l.52-.06a23.58,23.58,0,0,1,5,0,25.16,25.16,0,0,0,5.06,0c2.17-.29,4.33-.7,6.41-1.11,2.63-.5,5.34-1,8.11-1.3,1.33-.13,2.69-.25,4.05-.36a50.71,50.71,0,0,1-3.9,4.87Z" fill="#8bc53f"/><path d="M302.17,77.05c-.59.62-1.17,1.22-1.73,1.83-.29-3.75-.68-14.35,3.1-23.78,0,.56,0,1.12,0,1.67A161.6,161.6,0,0,1,302.17,77.05Z" fill="#8bc53f"/><path d="M168.59,9.33c-.21-.79-.43-1.6-.67-2.46a12,12,0,0,1,4.7-.23c-1,2.27-2,4.53-3,6.51C169.26,11.88,168.92,10.6,168.59,9.33Z" fill="#8bc53f"/><path d="M185.46,34.2c-.65,2-1.33,4.09-2.13,6.11a24.41,24.41,0,0,1-2.39,4.29,25.52,25.52,0,0,0-2.37,4.24c-.17-.78-.35-1.57-.52-2.35-.41-1.82-.84-3.76-1.29-5.71h0l-.07-.25-.13-.55a2.08,2.08,0,0,1,.4-1.5l.2-.37c1.34-2.63,2.78-5.4,4.22-8a42.49,42.49,0,0,0,3-7.42c.47-1.42,1-2.89,1.53-4.3.25-.61.51-1.22.79-1.83a42.61,42.61,0,0,1,3.42,5.57c-.64,1.43-1.28,2.85-1.89,4.27C187.16,29,186.29,31.65,185.46,34.2Z" fill="#8bc53f"/><path d="M167.22,7.08l.12.41-.62-.24Z" fill="#8bc53f"/><path d="M167.2,11.62l1.49.9c.29,1.11.58,2.21.88,3.31l-1.59-1c-2.12-1.39-4.18-2.74-6.31-4a13.14,13.14,0,0,1,1.57-1.51c1.33.72,2.6,1.49,3.92,2.3Z" fill="#8bc53f"/><path d="M183.73,22.47a42.24,42.24,0,0,1-3,7.31c-1.45,2.58-2.89,5.37-4.23,8l-.19.35c0,.09-.1.18-.14.27-.24-1-.45-1.83-.64-2.6l-1-3.88a94,94,0,0,0,4.3-9.38c1-2.33,2-4.72,3-6.9.46-1,1-1.9,1.5-2.8a.24.24,0,0,0,.06-.11,31.14,31.14,0,0,1,2.78,3.2c-.34.73-.66,1.47-1,2.21C184.7,19.57,184.21,21.05,183.73,22.47Z" fill="#8bc53f"/><path d="M171.78,21.29c-.31-1.15-.62-2.28-.92-3.41l-1-3.71a76.16,76.16,0,0,0,3.48-7.4,15.63,15.63,0,0,1,4.19,1.5c-.64,1.44-1.26,2.93-1.86,4.38C174.44,15.62,173.17,18.68,171.78,21.29Z" fill="#8bc53f"/><path d="M181.25,15.33c-1.06,2.19-2.06,4.59-3,6.92-1.24,3-2.52,6-3.91,8.64-.64-2.48-1.35-5.17-2.26-8.59a92.76,92.76,0,0,0,4.29-9.37c.6-1.43,1.21-2.89,1.84-4.31a23.84,23.84,0,0,1,4.75,3.59l-.15.27C182.26,13.4,181.72,14.34,181.25,15.33Z" fill="#8bc53f"/><path d="M168.42,11.51c-.3-.17-.59-.35-.88-.53-1.24-.75-2.44-1.48-3.68-2.17a12,12,0,0,1,1.91-1.15c.6.24,1.2.47,1.8.68l0,.1c.09.36.19.71.28,1.07.18.65.35,1.29.52,1.94Z" fill="#8bc53f"/><path d="M156.33,35.4a72,72,0,0,1,8.81,4.81c1.54,1,3.09,2.19,4.6,3.29A79.22,79.22,0,0,0,177.86,49c.47,2.09.85,3.75,1.22,5.29-5.33-3-10.59-6.3-15.7-9.47-2-1.21-3.95-2.45-6-3.68A52.39,52.39,0,0,1,156.33,35.4Z" fill="#8bc53f"/><path d="M169.85,16.88l.56,2.11c-1.11-.52-2.22-1.08-3.21-1.59a65.27,65.27,0,0,0-6.9-3.17l-.85-.29a19.26,19.26,0,0,1,1.74-2.57c2.16,1.25,4.25,2.62,6.39,4Z" fill="#8bc53f"/><path d="M164.21,28.22a87.76,87.76,0,0,0,10.13,5.67l.53,2.09c.3,1.19.61,2.48,1,4.18a2.1,2.1,0,0,0,.06.31c-2.25-1.27-4.43-2.68-6.54-4.06-2.26-1.47-4.59-3-7-4.32a58.2,58.2,0,0,0-6.48-3,40,40,0,0,1,.3-4.72,34.89,34.89,0,0,1,6.42,2.86Z" fill="#8bc53f"/><path d="M181.35,63A162.27,162.27,0,0,0,165,52.45c-.95-.52-1.91-1-2.87-1.49a27.29,27.29,0,0,1-4.42-8.82l5.3,3.28c5.32,3.3,10.8,6.71,16.32,9.83C180,58.12,180.67,60.66,181.35,63Z" fill="#8bc53f"/><path d="M166.24,22.21a28.16,28.16,0,0,0,5.89,3.24c.76,2.85,1.39,5.27,2,7.54a91.35,91.35,0,0,1-9.52-5.39l-1.56-1a36.08,36.08,0,0,0-6.7-3,31.08,31.08,0,0,1,1.41-5.92c1.64.67,3.15,1.38,4.46,2A39,39,0,0,1,166.24,22.21Z" fill="#8bc53f"/><path d="M166.87,18.05c1.23.62,2.51,1.27,3.79,1.86.41,1.55.83,3.11,1.25,4.68a30.3,30.3,0,0,1-5.28-3,40.67,40.67,0,0,0-4.11-2.47c-1.33-.66-2.86-1.38-4.53-2.06a23.47,23.47,0,0,1,1.11-2.49l1,.33A66.65,66.65,0,0,1,166.87,18.05Z" fill="#8bc53f"/><path d="M169,37c2.31,1.5,4.69,3.06,7.16,4.41.4,1.74.79,3.49,1.16,5.19l.32,1.41a84.1,84.1,0,0,1-7.47-5.1c-1.51-1.11-3.08-2.27-4.64-3.32a76.57,76.57,0,0,0-9.29-5.06h0a46.47,46.47,0,0,1-.3-4.64,54.93,54.93,0,0,1,6.13,2.82C164.44,34,166.76,35.55,169,37Z" fill="#8bc53f"/><path d="M183.34,66.92c-.25-.73-.49-1.48-.73-2.25.37-.67.78-1.35,1.14-2,.62-1.05,1.26-2.13,1.81-3.24.84-1.69,1.66-3.47,2.45-5.18s1.56-3.36,2.36-5,1.87-3.52,2.84-5.25c.49-.87,1-1.75,1.47-2.64-1.2,13.51-10.94,25.68-10.94,25.68S183.59,67,183.34,66.92Z" fill="#8bc53f"/><path d="M192.58,43.69c-1,1.73-2,3.52-2.86,5.28s-1.59,3.34-2.35,5-1.62,3.51-2.46,5.2c-.53,1.08-1.17,2.16-1.78,3.19-.28.47-.55.92-.81,1.38-.42-1.41-.84-2.88-1.23-4.37a7.45,7.45,0,0,1,1.59-3.76c.28-.42.56-.85.8-1.28a100,100,0,0,0,6.67-16c1-2.83,2-5.75,3.15-8.54.25.77.47,1.56.69,2.36a26.26,26.26,0,0,1,.8,7.5C194.08,41,193.33,42.37,192.58,43.69Z" fill="#8bc53f"/><path d="M189.46,38.12A97.83,97.83,0,0,1,182.84,54c-.22.4-.49.81-.76,1.23a13.36,13.36,0,0,0-1.41,2.56c-.56-2.21-1.13-4.62-1.82-7.68a.91.91,0,0,1,.1-.23l.2-.49a23.86,23.86,0,0,1,2.4-4.36A24.73,24.73,0,0,0,184,40.57c.8-2,1.48-4.12,2.14-6.14.83-2.54,1.69-5.17,2.79-7.72.53-1.24,1.08-2.48,1.64-3.72A48.17,48.17,0,0,1,193,28.75l-.3.74C191.5,32.32,190.46,35.27,189.46,38.12Z" fill="#8bc53f"/><path d="M182.45,66.52C179,65,169.57,60.17,163.15,52.29c.49.26,1,.52,1.47.79a165,165,0,0,1,17.07,11C181.94,65,182.19,65.74,182.45,66.52Z" fill="#8bc53f"/><path d="M325.34,111.15c-2.36-.73-4.7-1.5-6.79-2.36l3.71-1.39,2.38-.9A12,12,0,0,1,325.34,111.15Z" fill="#8bc53f"/><path d="M291.78,118.67v0l.23-.1.53-.18a2.11,2.11,0,0,1,1.54.24l.39.16c2.74,1.08,5.65,2.23,8.36,3.41a41.51,41.51,0,0,0,7.68,2.26c1.47.34,3,.68,4.43,1.1l1.9.6a42.83,42.83,0,0,1-5.2,4c-1.49-.51-3-1-4.44-1.46-2.68-.85-5.4-1.45-8-2-2.06-.46-4.19-.93-6.28-1.51a25.19,25.19,0,0,1-4.5-2,24.78,24.78,0,0,0-4.46-1.94l2.29-.75Z" fill="#8bc53f"/><path d="M324.37,105.82l-.4.16c.06-.21.11-.42.17-.64C324.22,105.5,324.3,105.66,324.37,105.82Z" fill="#8bc53f"/><path d="M321.77,102.07c-.59,1.4-1.24,2.75-1.91,4.14l0,0c-.25.51-.5,1-.75,1.57l-3.2,1.2c.29-.56.58-1.13.88-1.68,1.17-2.24,2.31-4.43,3.33-6.68A16.36,16.36,0,0,1,321.77,102.07Z" fill="#8bc53f"/><path d="M317.45,125.63c-.76-.26-1.53-.52-2.29-.74-1.49-.44-3-.78-4.47-1.11a41.39,41.39,0,0,1-7.56-2.22c-2.72-1.19-5.63-2.34-8.39-3.42l-.36-.15-.29-.11,2.52-.9,3.77-1.37a92.79,92.79,0,0,0,9.76,3.35c2.41.73,4.9,1.49,7.16,2.32,1,.36,2,.8,2.94,1.21l.11.06A31.9,31.9,0,0,1,317.45,125.63Z" fill="#8bc53f"/><path d="M319.66,114.79c-3.08-.94-6.25-1.9-9-3l3.3-1.25,3.59-1.35a77,77,0,0,0,7.72,2.72,16.19,16.19,0,0,1-1.08,4.32C322.7,115.72,321.17,115.25,319.66,114.79Z" fill="#8bc53f"/><path d="M320.54,121.84c-1-.43-2-.87-3-1.24-2.28-.84-4.78-1.6-7.19-2.33-3.08-.94-6.25-1.9-9-3,2.41-.9,5-1.86,8.32-3.11a95.16,95.16,0,0,0,9.76,3.34c1.48.45,3,.92,4.47,1.4a23.89,23.89,0,0,1-3.1,5.08Z" fill="#8bc53f"/><path d="M323.64,104.43c-.18.63-.35,1.24-.5,1.86l-.09,0-1,.39-1.87.71-.07,0c.15-.31.29-.62.44-.92.63-1.31,1.24-2.57,1.8-3.88A12.68,12.68,0,0,1,323.64,104.43Z" fill="#8bc53f"/><path d="M288.37,112a79.83,79.83,0,0,0-4.65,8.63c-2,.67-3.65,1.21-5.15,1.73,2.49-5.6,5.22-11.17,7.87-16.55,1-2.08,2.05-4.19,3.07-6.3a49.69,49.69,0,0,1,5.59-1.66,72,72,0,0,1-3.91,9.24C290.31,108.67,289.32,110.34,288.37,112Z" fill="#8bc53f"/><path d="M316.77,98.77a18.66,18.66,0,0,1,2.73,1.47c-1,2.28-2.19,4.49-3.37,6.76l-1.26,2.41-2.05.77c.42-1.16.87-2.32,1.27-3.35a66.24,66.24,0,0,0,2.47-7.19C316.63,99.36,316.7,99.06,316.77,98.77Z" fill="#8bc53f"/><path d="M299,103.52a55.81,55.81,0,0,0,2.31-6.74A42.35,42.35,0,0,1,306,96.6a35.93,35.93,0,0,1-2.21,6.69l-.8,1.63a88.32,88.32,0,0,0-4.64,10.65l-2,.73c-1.16.42-2.41.86-4.06,1.42l-.31.1c1-2.37,2.24-4.68,3.4-6.92S297.91,106,299,103.52Z" fill="#8bc53f"/><path d="M280.19,105.1a27.37,27.37,0,0,1,8.34-5.28c-.91,1.89-1.84,3.76-2.74,5.61-2.76,5.61-5.6,11.41-8.16,17.21-2.78,1-5.24,1.89-7.49,2.8A161.17,161.17,0,0,0,279,108.1C279.42,107.11,279.82,106.1,280.19,105.1Z" fill="#8bc53f"/><path d="M309.21,106.34a27.94,27.94,0,0,0-2.63,6.19c-2.77,1-5.11,1.91-7.32,2.72a93.6,93.6,0,0,1,4.42-10l.8-1.64a36,36,0,0,0,2.29-7,30.79,30.79,0,0,1,6,.82c-.5,1.7-1.06,3.27-1.57,4.64A38.94,38.94,0,0,1,309.21,106.34Z" fill="#8bc53f"/><path d="M316.09,98.49c-.07.32-.15.65-.23,1a66.07,66.07,0,0,1-2.44,7.1c-.5,1.29-1,2.62-1.48,4l-4.54,1.71a30.16,30.16,0,0,1,2.46-5.55,40.34,40.34,0,0,0,2-4.33c.53-1.4,1.09-3,1.6-4.72A22.46,22.46,0,0,1,316.09,98.49Z" fill="#8bc53f"/><path d="M294.75,110.57c-1.26,2.45-2.58,5-3.68,7.58l-5,1.67-1.38.45a88.42,88.42,0,0,1,4.34-7.94c.95-1.62,1.94-3.29,2.83-5a74.07,74.07,0,0,0,4.12-9.75v0c1.56-.33,3.09-.58,4.6-.75a55.71,55.71,0,0,1-2.21,6.37C297.26,105.73,296,108.19,294.75,110.57Z" fill="#8bc53f"/><path d="M266.42,127.81c.71-.32,1.43-.64,2.16-1,.71.3,1.44.64,2.07.94,1.11.51,2.25,1,3.4,1.48,1.78.67,3.62,1.31,5.41,1.92s3.5,1.21,5.2,1.85,3.7,1.51,5.51,2.31c.91.4,1.84.81,2.77,1.2-13.56.15-26.64-8.34-26.64-8.34S266.34,128.07,266.42,127.81Z" fill="#8bc53f"/><path d="M277.63,126c.44.23.9.47,1.35.66a99.15,99.15,0,0,0,16.54,5.05c2.91.71,5.92,1.44,8.81,2.29-.74.32-1.51.63-2.28.92a25.78,25.78,0,0,1-7.38,1.54c-1.42-.57-2.83-1.18-4.21-1.79-1.82-.8-3.71-1.63-5.54-2.32s-3.48-1.26-5.2-1.85-3.64-1.26-5.41-1.93c-1.13-.42-2.26-.95-3.35-1.46l-1.45-.66c1.36-.57,2.78-1.12,4.22-1.67A7.62,7.62,0,0,1,277.63,126Z" fill="#8bc53f"/><path d="M283,121.74a3.91,3.91,0,0,0,.5.15,22.89,22.89,0,0,1,4.57,2,25.51,25.51,0,0,0,4.64,2c2.12.59,4.26,1.06,6.33,1.51,2.61.58,5.32,1.17,8,2l3.87,1.26a48.57,48.57,0,0,1-5.5,2.94l-.77-.23c-2.93-.86-6-1.6-8.9-2.31a99.67,99.67,0,0,1-16.42-5c-.43-.19-.85-.41-1.3-.64a13.21,13.21,0,0,0-2.69-1.15c2.15-.78,4.49-1.59,7.46-2.57A1.09,1.09,0,0,1,283,121.74Z" fill="#8bc53f"/><path d="M279,106.26c-.21.52-.42,1-.64,1.55A162.74,162.74,0,0,1,269,125.89l-2.31,1C267.94,123.33,271.77,113.43,279,106.26Z" fill="#8bc53f"/><path d="M318.74,208.32l2.54,0a12,12,0,0,1-1,4.6c-1.95-1.5-3.89-3-5.54-4.57Z" fill="#8bc53f"/><path d="M290.4,218.35c-1.77-1.15-3.61-2.33-5.37-3.61a24.64,24.64,0,0,1-3.54-3.39A24.24,24.24,0,0,0,278,208l2.41.09,5.84.2v0h.81a2.1,2.1,0,0,1,1.35.77l.31.29c2.2,2,4.52,4.05,6.65,6.1a41.37,41.37,0,0,0,6.42,4.79c1.26.82,2.55,1.67,3.77,2.58.52.39,1.05.8,1.57,1.22a41.24,41.24,0,0,1-6.26,1.91q-1.83-1.48-3.65-2.92C295,221.3,292.67,219.8,290.4,218.35Z" fill="#8bc53f"/><path d="M321.22,207c0,.18,0,.35,0,.53h-.42Z" fill="#8bc53f"/><path d="M312.2,207.62l1.41-1.28c1.88-1.69,3.71-3.34,5.45-5.09a14.35,14.35,0,0,1,1.07,1.9c-1,1.11-2.11,2.14-3.23,3.22l0,0c-.41.39-.83.79-1.25,1.21Z" fill="#8bc53f"/><path d="M302.19,219.64a41.5,41.5,0,0,1-6.32-4.71c-2.13-2.06-4.46-4.15-6.66-6.13l-.29-.26-.23-.21c1,0,1.88,0,2.67,0l4,0a94.57,94.57,0,0,0,8,6.54c2,1.52,4.07,3.1,5.9,4.65.82.7,1.59,1.45,2.33,2.17l.09.09a35.19,35.19,0,0,1-3.79,1.88c-.63-.51-1.26-1-1.9-1.49C304.75,221.32,303.45,220.46,302.19,219.64Z" fill="#8bc53f"/><path d="M306.36,208.38l3.53,0,3.84,0a80.19,80.19,0,0,0,6.28,5.24,16.29,16.29,0,0,1-2.51,3.67c-1.24-1-2.52-2-3.77-2.91C311.17,212.39,308.53,210.38,306.36,208.38Z" fill="#8bc53f"/><path d="M309.73,219.05c-1.85-1.58-3.92-3.16-5.93-4.69-2.56-2-5.2-4-7.37-6,2.57,0,5.34,0,8.88,0a94,94,0,0,0,8,6.53c1.23.94,2.5,1.9,3.71,2.87a24.53,24.53,0,0,1-4.68,3.69c-.07-.08-.15-.15-.22-.22C311.34,220.51,310.57,219.76,309.73,219.05Z" fill="#8bc53f"/><path d="M320.44,203.87a13.56,13.56,0,0,1,.63,2.15c-.39.51-.76,1-1.12,1.57h-3.28l.73-.71C318.45,205.88,319.46,204.91,320.44,203.87Z" fill="#8bc53f"/><path d="M272.59,207.09c4.29-4.39,8.78-8.65,13.14-12.79,1.67-1.59,3.37-3.2,5.07-4.83a52.33,52.33,0,0,1,5.82.39,70.57,70.57,0,0,1-6.88,7.3c-1.39,1.23-2.9,2.45-4.35,3.62a77.31,77.31,0,0,0-7.36,6.48C275.88,207.18,274.18,207.13,272.59,207.09Z" fill="#8bc53f"/><path d="M308.92,207.64c.8-.95,1.63-1.88,2.36-2.71a66.54,66.54,0,0,0,4.82-5.87c.16-.25.33-.5.5-.75a19.12,19.12,0,0,1,2,2.33c-1.76,1.78-3.61,3.45-5.51,5.17-.67.6-1.34,1.2-2,1.82Z" fill="#8bc53f"/><path d="M291.37,207.65c-1.23,0-2.56,0-4.3-.08l-.32,0c1.8-1.86,3.72-3.61,5.58-5.3s4.06-3.68,5.95-5.67a55.49,55.49,0,0,0,4.52-5.52,40.55,40.55,0,0,1,4.48,1.49,34.78,34.78,0,0,1-4.39,5.49l-1.31,1.26a86.78,86.78,0,0,0-8.06,8.37Z" fill="#8bc53f"/><path d="M263.6,207.08a161.54,161.54,0,0,0,14.34-13.17q1.11-1.17,2.16-2.4a27.62,27.62,0,0,1,9.65-2l-4.51,4.31c-4.54,4.3-9.23,8.74-13.64,13.29C268.65,207,266,207,263.6,207.08Z" fill="#8bc53f"/><path d="M294.45,207.67a93.65,93.65,0,0,1,7.62-7.85l1.32-1.26a35.62,35.62,0,0,0,4.58-5.74,32.06,32.06,0,0,1,5.37,2.87c-1.07,1.42-2.13,2.7-3.1,3.81a37.48,37.48,0,0,1-3.37,3.28,28.33,28.33,0,0,0-4.62,4.89C299.29,207.68,296.8,207.68,294.45,207.67Z" fill="#8bc53f"/><path d="M303.13,207.67a30.39,30.39,0,0,1,4.23-4.35,40.23,40.23,0,0,0,3.43-3.34c1-1.13,2.06-2.43,3.14-3.87a24.42,24.42,0,0,1,2.13,1.7c-.19.28-.37.56-.56.83a64.77,64.77,0,0,1-4.76,5.81c-.91,1-1.86,2.1-2.76,3.2Z" fill="#8bc53f"/><path d="M280.45,207.35l-1.45-.06a85.31,85.31,0,0,1,6.83-5.93c1.46-1.19,3-2.41,4.38-3.65a75.93,75.93,0,0,0,7.25-7.71s0,0,0,0a45.63,45.63,0,0,1,4.57.89,53.89,53.89,0,0,1-4.28,5.21c-1.88,2-3.93,3.83-5.91,5.64s-4.15,3.77-6.09,5.81C284,207.48,282.19,207.41,280.45,207.35Z" fill="#8bc53f"/><path d="M261.65,207.87c.55.54,1.11,1.1,1.61,1.61.86.86,1.74,1.76,2.67,2.57,1.43,1.24,2.94,2.48,4.39,3.68s2.87,2.36,4.24,3.55,2.94,2.7,4.36,4.08l2.18,2.09C268.34,220.86,259,208.36,259,208.36l.26-.35Z" fill="#8bc53f"/><path d="M275,218.73c-1.37-1.19-2.82-2.38-4.22-3.54s-3-2.45-4.4-3.69c-.91-.79-1.79-1.68-2.64-2.54-.37-.38-.75-.76-1.12-1.12,1.47-.06,3-.09,4.53-.09a7.5,7.5,0,0,1,3.24,2.5c.33.37.68.75,1,1.09a99.33,99.33,0,0,0,13.75,10.49c2.48,1.68,5.05,3.41,7.47,5.21-.82,0-1.65.06-2.47.07a26.16,26.16,0,0,1-7.46-1.12c-1.12-1-2.23-2.1-3.31-3.15C278,221.45,276.52,220,275,218.73Z" fill="#8bc53f"/><path d="M272,210.82c-.33-.33-.65-.68-1-1.06a12.93,12.93,0,0,0-2.11-2c2.28,0,4.76.07,7.88.18a1.45,1.45,0,0,1,.21.16l.42.32a24.22,24.22,0,0,1,3.61,3.42,25.21,25.21,0,0,0,3.65,3.5c1.78,1.29,3.62,2.48,5.4,3.63,2.25,1.44,4.58,2.94,6.77,4.65,1.06.82,2.12,1.67,3.18,2.53a48.21,48.21,0,0,1-6.18.83l-.64-.47c-2.44-1.83-5-3.58-7.53-5.27A99.11,99.11,0,0,1,272,210.82Z" fill="#8bc53f"/><path d="M259.9,207.25c2.37-2.91,9.41-10.85,18.65-15.07-.37.42-.75.83-1.13,1.23a164.61,164.61,0,0,1-15,13.71Z" fill="#8bc53f"/><path d="M341.66,163.87l2.54,0a12,12,0,0,1-.93,4.61c-2-1.49-3.91-3-5.57-4.54Z" fill="#8bc53f"/><path d="M313.38,174.06c-1.78-1.13-3.63-2.3-5.39-3.57a25.2,25.2,0,0,1-3.56-3.37,24.21,24.21,0,0,0-3.52-3.35l2.4.07,5.85.17v0H310a2.13,2.13,0,0,1,1.36.76l.31.28c2.21,2,4.54,4,6.68,6.07a42.3,42.3,0,0,0,6.45,4.75c1.26.82,2.56,1.65,3.78,2.56.53.38,1.06.79,1.58,1.21a42.16,42.16,0,0,1-6.24,1.94c-1.22-1-2.45-1.95-3.67-2.89C318,177,315.65,175.5,313.38,174.06Z" fill="#8bc53f"/><path d="M344.13,162.58c0,.17,0,.35.05.53h-.43C343.88,162.94,344,162.75,344.13,162.58Z" fill="#8bc53f"/><path d="M335.12,163.21l1.4-1.29c1.86-1.7,3.69-3.36,5.42-5.13a15.66,15.66,0,0,1,1.08,1.9c-1,1.11-2.1,2.16-3.21,3.24l0,0-1.24,1.21Z" fill="#8bc53f"/><path d="M325.18,175.29a41.06,41.06,0,0,1-6.35-4.68c-2.14-2-4.49-4.12-6.7-6.08l-.3-.26a2.13,2.13,0,0,0-.22-.21l2.67,0h4a94.58,94.58,0,0,0,8,6.49c2,1.52,4.08,3.08,5.93,4.63.82.69,1.6,1.44,2.34,2.15l.09.09a33.34,33.34,0,0,1-3.78,1.9c-.63-.51-1.27-1-1.9-1.48C327.75,177,326.44,176.1,325.18,175.29Z" fill="#8bc53f"/><path d="M329.28,164l3.53,0,3.84,0a78.49,78.49,0,0,0,6.31,5.2,16,16,0,0,1-2.49,3.68c-1.24-1-2.53-1.94-3.78-2.88C334.12,168,331.46,166,329.28,164Z" fill="#8bc53f"/><path d="M332.71,174.65c-1.86-1.57-3.94-3.13-5.95-4.65-2.58-1.94-5.23-3.93-7.41-5.92,2.56,0,5.34,0,8.88-.07a96.18,96.18,0,0,0,8,6.49c1.24.93,2.5,1.88,3.73,2.84a24.48,24.48,0,0,1-4.66,3.72,2.28,2.28,0,0,0-.22-.22C334.33,176.11,333.56,175.35,332.71,174.65Z" fill="#8bc53f"/><path d="M343.33,159.41a11.92,11.92,0,0,1,.64,2.14c-.38.52-.75,1-1.1,1.58h-1.22l-2,0h-.07l.73-.71C341.35,161.43,342.36,160.45,343.33,159.41Z" fill="#8bc53f"/><path d="M295.5,162.91c4.26-4.41,8.74-8.71,13.06-12.86,1.67-1.6,3.36-3.23,5.05-4.87a52.41,52.41,0,0,1,5.82.36,70.47,70.47,0,0,1-6.84,7.34c-1.39,1.24-2.88,2.46-4.33,3.65a81.16,81.16,0,0,0-7.32,6.51Z" fill="#8bc53f"/><path d="M331.84,163.25c.79-.95,1.61-1.89,2.34-2.72a64.94,64.94,0,0,0,4.78-5.91c.17-.24.33-.49.5-.74a17.74,17.74,0,0,1,2.05,2.32c-1.75,1.78-3.59,3.46-5.48,5.19l-2,1.83Z" fill="#8bc53f"/><path d="M314.28,163.36c-1.23,0-2.55,0-4.29-.06h-.33c1.79-1.87,3.71-3.63,5.56-5.34s4-3.7,5.92-5.7a56.78,56.78,0,0,0,4.48-5.54,41.41,41.41,0,0,1,4.49,1.45,34.39,34.39,0,0,1-4.36,5.52L324.44,155a88.85,88.85,0,0,0-8,8.41Z" fill="#8bc53f"/><path d="M286.52,163a162.42,162.42,0,0,0,14.26-13.26c.73-.78,1.45-1.59,2.15-2.41a27.48,27.48,0,0,1,9.64-2.1l-4.5,4.33c-4.51,4.33-9.17,8.8-13.56,13.37C291.56,162.85,288.94,162.87,286.52,163Z" fill="#8bc53f"/><path d="M317.37,163.36a94.92,94.92,0,0,1,7.57-7.89c.45-.42.88-.85,1.31-1.27a35.47,35.47,0,0,0,4.55-5.76,32.07,32.07,0,0,1,5.38,2.83c-1.06,1.43-2.12,2.71-3.07,3.83a38.62,38.62,0,0,1-3.34,3.3,28.07,28.07,0,0,0-4.61,4.92C322.21,163.34,319.71,163.36,317.37,163.36Z" fill="#8bc53f"/><path d="M326.05,163.31a30.26,30.26,0,0,1,4.2-4.37,40.24,40.24,0,0,0,3.41-3.37c1-1.13,2-2.44,3.12-3.89a24.58,24.58,0,0,1,2.14,1.7c-.19.28-.37.56-.56.83a63.06,63.06,0,0,1-4.72,5.84c-.92,1-1.85,2.11-2.75,3.21Z" fill="#8bc53f"/><path d="M303.36,163.12l-1.44-.05a83.77,83.77,0,0,1,6.79-6c1.45-1.19,3-2.42,4.36-3.68a73.71,73.71,0,0,0,7.2-7.75l0,0a46.2,46.2,0,0,1,4.57.87,55.09,55.09,0,0,1-4.25,5.23c-1.87,2-3.91,3.86-5.88,5.67s-4.13,3.8-6.06,5.86Z" fill="#8bc53f"/><path d="M288.88,167.91c1.43,1.23,2.94,2.46,4.41,3.66s2.88,2.33,4.26,3.52,2.95,2.68,4.38,4c.72.69,1.45,1.39,2.2,2.08-12.8-4.51-22.18-17-22.18-17l.26-.35c.77-.06,1.55-.11,2.35-.15.57.53,1.13,1.09,1.63,1.59C287.05,166.22,287.94,167.11,288.88,167.91Z" fill="#8bc53f"/><path d="M293.35,166.08c.34.37.68.74,1,1.08a97.75,97.75,0,0,0,13.81,10.41c2.5,1.67,5.07,3.38,7.5,5.18-.82,0-1.64.07-2.47.07a26.13,26.13,0,0,1-7.46-1.07c-1.14-1-2.25-2.09-3.34-3.13-1.44-1.38-2.92-2.8-4.41-4.08s-2.84-2.37-4.25-3.51-3-2.44-4.42-3.67c-.92-.79-1.8-1.67-2.65-2.52-.39-.38-.76-.76-1.14-1.12,1.48-.06,3-.1,4.54-.12A7.61,7.61,0,0,1,293.35,166.08Z" fill="#8bc53f"/><path d="M316.17,182.2c-2.45-1.82-5.06-3.55-7.57-5.23a98.81,98.81,0,0,1-13.71-10.33c-.34-.32-.66-.67-1-1a12.93,12.93,0,0,0-2.13-2c2.29,0,4.77,0,7.89.13a1.83,1.83,0,0,1,.21.15,5,5,0,0,0,.42.32,23.32,23.32,0,0,1,3.63,3.41,25.16,25.16,0,0,0,3.67,3.47c1.78,1.28,3.63,2.46,5.42,3.59,2.26,1.44,4.6,2.92,6.8,4.62,1.06.82,2.13,1.66,3.2,2.51a50,50,0,0,1-6.18.87Z" fill="#8bc53f"/><path d="M301.38,148c-.38.41-.75.83-1.13,1.23A162.7,162.7,0,0,1,285.33,163q-1.29.06-2.52.15C285.17,160.22,292.16,152.24,301.38,148Z" fill="#8bc53f"/><path d="M216.63,39.54c.11-.8.21-1.64.31-2.52a11.84,11.84,0,0,1,4.44,1.55c-1.74,1.74-3.52,3.46-5.25,4.9C216.3,42.16,216.46,40.85,216.63,39.54Z" fill="#8bc53f"/><path d="M222.89,68.94c-1.36,1.61-2.77,3.28-4.27,4.86a25.81,25.81,0,0,1-3.82,3.07,24.78,24.78,0,0,0-3.8,3c.13-.79.27-1.58.4-2.37.31-1.84.64-3.8,1-5.78h0l0-.25.09-.56a2.07,2.07,0,0,1,.94-1.24l.32-.28c2.24-1.92,4.61-4,6.92-5.79a43.23,43.23,0,0,0,5.59-5.74c1-1.14,2-2.32,3-3.41.45-.47.93-.93,1.41-1.39a41.52,41.52,0,0,1,1.08,6.45c-1.14,1.07-2.26,2.16-3.36,3.24C226.42,64.76,224.63,66.88,222.89,68.94Z" fill="#8bc53f"/><path d="M215.69,36.92l.53,0c0,.14,0,.29-.05.43Z" fill="#8bc53f"/><path d="M214.49,41.14l1,1.4c-.14,1.13-.28,2.26-.43,3.39L214,44.37c-1.44-2.08-2.84-4.11-4.35-6.07a16.5,16.5,0,0,1,2-.81c1,1.17,1.85,2.37,2.77,3.62Z" fill="#8bc53f"/><path d="M225.71,57.42a41.25,41.25,0,0,1-5.49,5.65c-2.32,1.85-4.7,3.89-6.94,5.81l-.3.26-.24.2c.16-1,.28-1.86.39-2.65.19-1.32.37-2.64.54-4a90.48,90.48,0,0,0,7.52-7.07c1.78-1.78,3.61-3.63,5.4-5.25.79-.72,1.63-1.38,2.45-2l.09-.08a31.85,31.85,0,0,1,1.37,4c-.59.56-1.17,1.12-1.73,1.69C227.7,55.1,226.69,56.28,225.71,57.42Z" fill="#8bc53f"/><path d="M215.08,51.82c.15-1.17.3-2.34.44-3.5l.48-3.81A75.62,75.62,0,0,0,222,39a15.92,15.92,0,0,1,3.32,3c-1.13,1.1-2.27,2.24-3.38,3.36C219.69,47.57,217.35,49.93,215.08,51.82Z" fill="#8bc53f"/><path d="M226.1,49.87c-1.8,1.63-3.64,3.48-5.41,5.27-2.27,2.28-4.61,4.64-6.88,6.53.34-2.54.7-5.29,1.14-8.8a93.78,93.78,0,0,0,7.51-7.07c1.1-1.1,2.21-2.23,3.32-3.31a24.35,24.35,0,0,1,3.06,5.12l-.25.19C227.76,48.46,226.91,49.13,226.1,49.87Z" fill="#8bc53f"/><path d="M216.05,38.34c0,.37-.09.74-.13,1.1-.09.67-.17,1.33-.26,2v.07c-.21-.27-.41-.55-.61-.82-.87-1.17-1.7-2.3-2.6-3.4a11.83,11.83,0,0,1,2.2-.34c.47.44.94.88,1.42,1.3Z" fill="#8bc53f"/><path d="M201.8,66.85c1,1.54,2,3.19,3,4.78a78.07,78.07,0,0,0,5.46,8.14c-.36,2.12-.63,3.8-.87,5.37-3.79-4.82-7.44-9.83-11-14.69-1.36-1.87-2.74-3.77-4.13-5.66a49,49,0,0,1,1.14-5.72A71.87,71.87,0,0,1,201.8,66.85Z" fill="#8bc53f"/><path d="M215,47l-.28,2.17c-.83-.91-1.64-1.85-2.37-2.68a66.31,66.31,0,0,0-5.2-5.54l-.67-.6A18.88,18.88,0,0,1,209,38.64c1.53,2,3,4,4.4,6.14Z" fill="#8bc53f"/><path d="M204.38,53.92q.54.72,1.08,1.47a88.1,88.1,0,0,0,7.25,9.07l-.3,2.13c-.17,1.22-.36,2.53-.64,4.25,0,.1,0,.2-.06.32-1.6-2-3.09-4.16-4.53-6.23s-3.12-4.5-4.84-6.63a57.27,57.27,0,0,0-4.89-5.2,40.82,40.82,0,0,1,2.05-4.25A34.39,34.39,0,0,1,204.38,53.92Z" fill="#8bc53f"/><path d="M195,75.67a27.5,27.5,0,0,1-.77-9.84l3.68,5c3.67,5.06,7.47,10.28,11.41,15.25-.45,2.92-.78,5.52-1,7.93A159.06,159.06,0,0,0,197,78.12C196.37,77.29,195.66,76.47,195,75.67Z" fill="#8bc53f"/><path d="M209.6,50.58a28.06,28.06,0,0,0,4.25,5.23c-.38,2.93-.7,5.4-1,7.73A93.83,93.83,0,0,1,206,55L205,53.49a36.46,36.46,0,0,0-5.1-5.29,31.83,31.83,0,0,1,3.54-4.94c1.27,1.24,2.4,2.46,3.38,3.56A39.12,39.12,0,0,1,209.6,50.58Z" fill="#8bc53f"/><path d="M211.76,47c.91,1,1.84,2.12,2.81,3.15-.2,1.6-.41,3.2-.61,4.81a30.33,30.33,0,0,1-3.76-4.76,38.68,38.68,0,0,0-2.88-3.83c-1-1.12-2.13-2.36-3.42-3.62a24.9,24.9,0,0,1,2-1.89c.25.22.51.44.75.67A66.48,66.48,0,0,1,211.76,47Z" fill="#8bc53f"/><path d="M206.59,65.35c1.58,2.26,3.2,4.6,5,6.79-.29,1.76-.59,3.52-.88,5.24l-.24,1.42a84,84,0,0,1-5-7.53c-1-1.61-2-3.26-3-4.83a74.68,74.68,0,0,0-6.7-8.18l0,0c.44-1.53.93-3,1.48-4.41a53.48,53.48,0,0,1,4.61,4.92C203.48,60.87,205.06,63.15,206.59,65.35Z" fill="#8bc53f"/><path d="M210.57,94.7c1-.74,2-1.5,2.9-2.32,1.42-1.25,2.84-2.58,4.22-3.87s2.71-2.53,4.07-3.74,3.06-2.57,4.61-3.8l2.36-1.89c-6.21,12.07-19.82,19.67-19.82,19.67l-.31-.31c.05-.77.11-1.55.18-2.35C209.38,95.61,210,95.13,210.57,94.7Z" fill="#8bc53f"/><path d="M221.28,84.23c-1.36,1.2-2.73,2.48-4.06,3.72s-2.82,2.64-4.23,3.89c-.91.8-1.9,1.56-2.86,2.28l-1.26,1c.13-1.46.3-3,.5-4.5a7.63,7.63,0,0,1,2.89-2.89c.42-.28.84-.57,1.22-.88,4.52-3.59,8.42-8,12.19-12.27,2-2.25,4-4.56,6.14-6.72-.07.81-.15,1.63-.26,2.45a26,26,0,0,1-2.08,7.24c-1.16,1-2.37,2-3.55,2.89C224.36,81.64,222.75,82.92,221.28,84.23Z" fill="#8bc53f"/><path d="M231.33,67.28c-2.14,2.19-4.2,4.53-6.2,6.79A98,98,0,0,1,213,86.25c-.37.29-.76.57-1.18.86A12.62,12.62,0,0,0,209.59,89c.31-2.26.69-4.72,1.2-7.8A1.49,1.49,0,0,1,211,81c.1-.1.23-.22.37-.38a23.65,23.65,0,0,1,3.87-3.13,25.34,25.34,0,0,0,3.94-3.17c1.51-1.59,2.93-3.26,4.29-4.88,1.73-2,3.52-4.16,5.5-6.11.95-.94,1.93-1.88,2.92-2.82a47.86,47.86,0,0,1,0,6.23Z" fill="#8bc53f"/><path d="M196.48,78.57a164.8,164.8,0,0,1,11.65,16.66c-.08.86-.15,1.69-.2,2.51C205.35,95,198.39,87,195.41,77.29Z" fill="#8bc53f"/><path d="M275.54,36.27c.1-.8.21-1.64.31-2.52a11.84,11.84,0,0,1,4.44,1.55c-1.75,1.75-3.52,3.46-5.25,4.9C275.2,38.89,275.37,37.58,275.54,36.27Z" fill="#8bc53f"/><path d="M281.8,65.67c-1.37,1.62-2.78,3.29-4.27,4.86a25.27,25.27,0,0,1-3.83,3.07,25.27,25.27,0,0,0-3.8,3c.14-.79.27-1.58.41-2.37.31-1.84.64-3.8.95-5.77h0l0-.25.08-.56a2.15,2.15,0,0,1,.94-1.24l.33-.27c2.23-1.92,4.6-4,6.92-5.8a42,42,0,0,0,5.58-5.74c1-1.14,2-2.31,3-3.4.46-.47.94-.94,1.42-1.4a42.75,42.75,0,0,1,1.08,6.45c-1.14,1.08-2.27,2.16-3.37,3.24C285.33,61.49,283.53,63.62,281.8,65.67Z" fill="#8bc53f"/><path d="M274.59,33.65c.18,0,.36,0,.54,0,0,.14,0,.28-.05.42Z" fill="#8bc53f"/><path d="M273.39,37.88c.34.46.68.92,1,1.39-.15,1.13-.29,2.26-.43,3.4l-1.09-1.57C271.48,39,270.08,37,268.57,35a13.42,13.42,0,0,1,2-.81c1,1.16,1.85,2.37,2.77,3.61Z" fill="#8bc53f"/><path d="M284.62,54.15a42,42,0,0,1-5.5,5.66c-2.32,1.85-4.69,3.88-6.94,5.81l-.3.25-.24.2c.16-1,.29-1.86.4-2.65l.54-4a95.58,95.58,0,0,0,7.52-7.07c1.77-1.79,3.6-3.64,5.39-5.26.8-.72,1.64-1.38,2.45-2L288,45a34.92,34.92,0,0,1,1.37,4c-.59.55-1.18,1.11-1.73,1.68C286.61,51.83,285.6,53,284.62,54.15Z" fill="#8bc53f"/><path d="M274,48.56c.15-1.18.29-2.35.44-3.51s.32-2.54.47-3.81a72.24,72.24,0,0,0,6-5.55,15.65,15.65,0,0,1,3.31,3c-1.13,1.09-2.27,2.24-3.38,3.35C278.59,44.31,276.26,46.66,274,48.56Z" fill="#8bc53f"/><path d="M285,46.6c-1.8,1.63-3.64,3.48-5.41,5.27-2.27,2.29-4.6,4.64-6.87,6.54.34-2.55.69-5.3,1.14-8.81a95.5,95.5,0,0,0,7.51-7.07c1.09-1.1,2.21-2.22,3.32-3.3a23.67,23.67,0,0,1,3.05,5.12l-.24.19C286.67,45.19,285.82,45.86,285,46.6Z" fill="#8bc53f"/><path d="M275,35.07c0,.37-.09.74-.14,1.11-.09.66-.17,1.32-.25,2v.08l-.61-.83c-.86-1.16-1.7-2.3-2.6-3.4a12.84,12.84,0,0,1,2.21-.34c.47.44.93.88,1.41,1.31Z" fill="#8bc53f"/><path d="M263.73,68.36a79.82,79.82,0,0,0,5.46,8.15c-.35,2.11-.63,3.79-.87,5.36-3.79-4.82-7.44-9.83-11-14.68-1.35-1.87-2.74-3.77-4.13-5.67a52.91,52.91,0,0,1,1.14-5.71,70.66,70.66,0,0,1,6.35,7.77C261.74,65.12,262.75,66.77,263.73,68.36Z" fill="#8bc53f"/><path d="M273.87,43.74l-.28,2.18c-.84-.92-1.65-1.85-2.38-2.69a64.69,64.69,0,0,0-5.2-5.54l-.67-.59a18.09,18.09,0,0,1,2.58-1.72c1.53,2,2.95,4,4.4,6.13Z" fill="#8bc53f"/><path d="M263.29,50.65c.35.48.72,1,1.07,1.47a88.64,88.64,0,0,0,7.25,9.07c-.1.72-.19,1.43-.29,2.13-.17,1.23-.37,2.54-.64,4.25l-.06.32c-1.61-2-3.1-4.15-4.53-6.22S263,57.17,261.24,55a55.68,55.68,0,0,0-4.88-5.19,41,41,0,0,1,2.05-4.26A34.89,34.89,0,0,1,263.29,50.65Z" fill="#8bc53f"/><path d="M256.76,67.6c3.68,5.06,7.48,10.28,11.41,15.25-.44,2.92-.78,5.53-1,7.93A161.9,161.9,0,0,0,256,74.85c-.67-.83-1.38-1.65-2.09-2.45a27.47,27.47,0,0,1-.78-9.84Z" fill="#8bc53f"/><path d="M268.51,47.32a28.69,28.69,0,0,0,4.24,5.22c-.37,2.93-.7,5.4-1,7.73A92.13,92.13,0,0,1,265,51.69l-1.08-1.47a36.32,36.32,0,0,0-5.09-5.28A31.74,31.74,0,0,1,262.32,40c1.27,1.24,2.39,2.47,3.37,3.56A39.35,39.35,0,0,1,268.51,47.32Z" fill="#8bc53f"/><path d="M270.66,43.7c.91,1,1.85,2.12,2.81,3.16q-.3,2.39-.6,4.8a29.92,29.92,0,0,1-3.77-4.76,41.53,41.53,0,0,0-2.87-3.83c-1-1.11-2.14-2.35-3.43-3.61a25,25,0,0,1,2-1.9l.76.67A64.7,64.7,0,0,1,270.66,43.7Z" fill="#8bc53f"/><path d="M265.49,62.08c1.58,2.27,3.21,4.61,5,6.79-.28,1.76-.58,3.53-.87,5.24l-.24,1.43a83.42,83.42,0,0,1-5-7.54c-1-1.6-2-3.26-3.05-4.82a74.8,74.8,0,0,0-6.7-8.19l0,0c.43-1.52.93-3,1.48-4.41a54.8,54.8,0,0,1,4.61,4.92C262.38,57.6,264,59.88,265.49,62.08Z" fill="#8bc53f"/><path d="M269.48,91.43c1-.73,2-1.49,2.89-2.31,1.42-1.26,2.85-2.59,4.23-3.88s2.7-2.53,4.07-3.74,3.05-2.56,4.61-3.79c.78-.62,1.57-1.25,2.35-1.89-6.2,12.06-19.82,19.66-19.82,19.66l-.3-.3c.05-.77.1-1.55.17-2.36C268.28,92.34,268.91,91.86,269.48,91.43Z" fill="#8bc53f"/><path d="M271.17,84.44c.41-.29.83-.58,1.21-.89a97.43,97.43,0,0,0,12.19-12.27c2-2.24,4-4.56,6.15-6.72-.07.81-.16,1.63-.26,2.45a26.18,26.18,0,0,1-2.08,7.25c-1.17,1-2.37,1.94-3.55,2.88-1.57,1.24-3.18,2.52-4.65,3.82s-2.73,2.49-4.05,3.73-2.82,2.63-4.24,3.88c-.9.81-1.89,1.56-2.86,2.29l-1.26,1c.14-1.47.31-3,.5-4.51A7.57,7.57,0,0,1,271.17,84.44Z" fill="#8bc53f"/><path d="M290.24,64C288.1,66.2,286,68.54,284,70.8A98.11,98.11,0,0,1,271.93,83c-.36.29-.75.56-1.17.85a13.53,13.53,0,0,0-2.27,1.84c.32-2.26.69-4.71,1.2-7.8l.19-.18c.1-.1.22-.21.37-.37a23.21,23.21,0,0,1,3.86-3.14A24.81,24.81,0,0,0,278.05,71c1.52-1.6,2.93-3.27,4.3-4.89,1.73-2,3.51-4.16,5.49-6.1,1-.95,1.94-1.89,2.92-2.83a46.16,46.16,0,0,1,0,6.23C290.61,63.63,290.42,63.82,290.24,64Z" fill="#8bc53f"/><path d="M255.38,75.31A164.51,164.51,0,0,1,267,92c-.08.86-.15,1.69-.21,2.52-2.57-2.74-9.54-10.74-12.52-20.46C254.67,74.45,255,74.88,255.38,75.31Z" fill="#8bc53f"/><path d="M238,92c.09-.71.19-1.44.28-2.22a10.63,10.63,0,0,1,3.91,1.37c-1.54,1.53-3.1,3-4.63,4.31C237.7,94.27,237.85,93.11,238,92Z" fill="#8bc53f"/><path d="M243.5,117.84c-1.2,1.42-2.44,2.89-3.75,4.27a22.18,22.18,0,0,1-3.38,2.71,21.5,21.5,0,0,0-3.34,2.67l.36-2.09c.27-1.62.56-3.34.84-5.08h0l0-.22.08-.49a1.84,1.84,0,0,1,.82-1.1l.29-.23c2-1.7,4-3.49,6.08-5.11a37.2,37.2,0,0,0,4.92-5c.86-1,1.75-2,2.68-3,.4-.41.82-.82,1.25-1.23a37,37,0,0,1,.94,5.68c-1,1-2,1.9-3,2.85C246.61,114.16,245,116,243.5,117.84Z" fill="#8bc53f"/><path d="M237.16,89.65l.47,0c0,.12,0,.25,0,.37Z" fill="#8bc53f"/><path d="M236.1,93.37c.3.41.6.82.92,1.23-.13,1-.26,2-.38,3l-1-1.38c-1.26-1.83-2.49-3.62-3.82-5.33a12.76,12.76,0,0,1,1.78-.72c.85,1,1.63,2.09,2.44,3.18Z" fill="#8bc53f"/><path d="M246,107.7a36.55,36.55,0,0,1-4.83,5c-2,1.63-4.14,3.42-6.11,5.12l-.26.23a1.73,1.73,0,0,0-.21.17l.34-2.33.48-3.49a85.78,85.78,0,0,0,6.62-6.22c1.56-1.58,3.17-3.2,4.74-4.63.7-.63,1.44-1.22,2.16-1.78l.09-.07a30.29,30.29,0,0,1,1.2,3.52c-.52.49-1,1-1.52,1.49C247.73,105.65,246.84,106.7,246,107.7Z" fill="#8bc53f"/><path d="M236.63,102.77l.39-3.08.42-3.35a65.16,65.16,0,0,0,5.29-4.89,14,14,0,0,1,2.91,2.62c-1,1-2,2-3,3C240.68,99,238.63,101.1,236.63,102.77Z" fill="#8bc53f"/><path d="M246.32,101.05c-1.58,1.44-3.2,3.06-4.76,4.64-2,2-4.05,4.09-6.05,5.75.3-2.24.61-4.66,1-7.75a82,82,0,0,0,6.6-6.22c1-1,1.95-2,2.93-2.91a21.08,21.08,0,0,1,2.68,4.51l-.21.17C247.79,99.81,247,100.4,246.32,101.05Z" fill="#8bc53f"/><path d="M237.48,90.91l-.12,1c-.07.58-.15,1.16-.22,1.75v.06l-.54-.73c-.75-1-1.49-2-2.28-3a10.72,10.72,0,0,1,1.94-.3c.41.39.82.78,1.24,1.15Z" fill="#8bc53f"/><path d="M227.6,120.21a70.45,70.45,0,0,0,4.81,7.16c-.32,1.86-.56,3.34-.77,4.72-3.34-4.23-6.55-8.65-9.65-12.92l-3.64-5a44.05,44.05,0,0,1,1-5,62.15,62.15,0,0,1,5.58,6.85C225.85,117.35,226.74,118.8,227.6,120.21Z" fill="#8bc53f"/><path d="M235.16,96.58l1.36,2-.24,1.91c-.74-.8-1.45-1.63-2.1-2.37a58.28,58.28,0,0,0-4.57-4.87l-.59-.52a16.87,16.87,0,0,1,2.26-1.52C232.63,92.91,233.88,94.72,235.16,96.58Z" fill="#8bc53f"/><path d="M227.21,104.62c.32.42.63.86.95,1.29a76.65,76.65,0,0,0,6.38,8c-.09.63-.17,1.26-.26,1.88-.15,1.08-.32,2.23-.57,3.74,0,.09,0,.18-.05.29-1.41-1.79-2.72-3.67-4-5.49s-2.75-4-4.27-5.84a48.92,48.92,0,0,0-4.3-4.57,38.28,38.28,0,0,1,1.8-3.75A29.77,29.77,0,0,1,227.21,104.62Z" fill="#8bc53f"/><path d="M221.47,119.54c3.23,4.45,6.58,9,10,13.42-.39,2.57-.69,4.86-.9,7a143.08,143.08,0,0,0-9.86-14c-.59-.74-1.21-1.46-1.84-2.16a24.17,24.17,0,0,1-.68-8.66Z" fill="#8bc53f"/><path d="M229.32,98.37a34,34,0,0,1,2.49,3.31,24.51,24.51,0,0,0,3.73,4.6c-.33,2.58-.62,4.76-.89,6.8a81.86,81.86,0,0,1-6-7.54l-.94-1.3a31.86,31.86,0,0,0-4.49-4.65,27.93,27.93,0,0,1,3.11-4.35C227.48,96.33,228.46,97.4,229.32,98.37Z" fill="#8bc53f"/><path d="M229.18,93.69a55.63,55.63,0,0,1,4.52,4.81c.8.92,1.62,1.87,2.47,2.78-.17,1.4-.35,2.81-.53,4.23a27.16,27.16,0,0,1-3.31-4.19,36.27,36.27,0,0,0-2.53-3.38c-.87-1-1.88-2.07-3-3.18a20.73,20.73,0,0,1,1.74-1.66Z" fill="#8bc53f"/><path d="M224.92,108.87c1.5,1.87,2.89,3.87,4.24,5.81s2.81,4,4.38,6c-.26,1.55-.52,3.11-.78,4.61l-.21,1.26a76.92,76.92,0,0,1-4.4-6.63c-.86-1.41-1.76-2.87-2.68-4.25a66.17,66.17,0,0,0-5.9-7.2s0,0,0,0a37.55,37.55,0,0,1,1.3-3.88A48.83,48.83,0,0,1,224.92,108.87Z" fill="#8bc53f"/><path d="M232.66,140.51c.85-.65,1.74-1.32,2.55-2,1.25-1.1,2.5-2.27,3.72-3.41s2.38-2.23,3.58-3.29,2.69-2.26,4.05-3.34l2.08-1.66c-5.46,10.61-17.45,17.3-17.45,17.3l-.27-.26c.05-.68.1-1.37.16-2.07C231.61,141.31,232.16,140.89,232.66,140.51Z" fill="#8bc53f"/><path d="M242.08,131.29c-1.2,1.07-2.4,2.19-3.57,3.28S236,136.9,234.78,138c-.79.7-1.67,1.36-2.51,2-.38.28-.75.57-1.11.85.12-1.29.27-2.63.44-4a6.62,6.62,0,0,1,2.55-2.54c.36-.25.73-.5,1.07-.77A88.26,88.26,0,0,0,246,122.78c1.74-2,3.55-4,5.4-5.92-.06.71-.13,1.43-.23,2.16a22.39,22.39,0,0,1-1.83,6.38c-1,.86-2.08,1.7-3.12,2.53C244.79,129,243.38,130.14,242.08,131.29Z" fill="#8bc53f"/><path d="M245.47,122.35a86.35,86.35,0,0,1-10.65,10.73c-.32.25-.67.49-1,.75a11.25,11.25,0,0,0-2,1.62c.28-2,.61-4.15,1.06-6.87,0,0,.08-.08.16-.16a4.57,4.57,0,0,0,.33-.32,19.91,19.91,0,0,1,3.4-2.76,22,22,0,0,0,3.46-2.79c1.34-1.4,2.58-2.88,3.79-4.3,1.52-1.8,3.09-3.66,4.83-5.37l2.58-2.49a43.49,43.49,0,0,1,0,5.48l-.49.51C249.05,118.3,247.23,120.36,245.47,122.35Z" fill="#8bc53f"/><path d="M230.51,141c-.07.75-.13,1.49-.18,2.21-2.27-2.41-8.39-9.46-11-18,.32.37.64.75.94,1.13A142.08,142.08,0,0,1,230.51,141Z" fill="#8bc53f"/><path d="M106.73,71.35l-3.9-.69c-.79-.14-1.62-.29-2.5-.43a12,12,0,0,1,1.77-4.36C103.75,67.7,105.38,69.55,106.73,71.35Z" fill="#8bc53f"/><path d="M126.63,60c1.88,2.1,3.91,4,5.88,5.83,1.54,1.45,3.14,2.94,4.64,4.51a25.78,25.78,0,0,1,2.88,4,24.65,24.65,0,0,0,2.84,3.94l-2.35-.52-5.72-1.24v0l-.25,0-.55-.12c-.57-.16-.78-.44-1.19-1l-.26-.34c-1.81-2.32-3.72-4.8-5.45-7.2A41.69,41.69,0,0,0,121.64,62c-1.09-1-2.21-2.09-3.25-3.2-.44-.48-.89-1-1.32-1.49a41.65,41.65,0,0,1,6.49-.75C124.58,57.7,125.61,58.87,126.63,60Z" fill="#8bc53f"/><path d="M100.22,71l.42.06-.47.46C100.18,71.3,100.2,71.12,100.22,71Z" fill="#8bc53f"/><path d="M100.55,75.5c1.21-.91,2.45-1.73,3.75-2.59l0,0,1.44-1,3.37.59-1.61,1c-2.15,1.33-4.25,2.63-6.27,4A14.77,14.77,0,0,1,100.55,75.5Z" fill="#8bc53f"/><path d="M117.86,59.24c1.06,1.13,2.19,2.2,3.28,3.23a41.5,41.5,0,0,1,5.38,5.77c1.72,2.41,3.64,4.88,5.46,7.21l.24.32c.06.08.13.16.18.24l-2.62-.52-3.94-.73a91.19,91.19,0,0,0-6.69-7.86c-1.7-1.86-3.45-3.78-5-5.64-.68-.83-1.3-1.71-1.9-2.55l-.07-.11a34,34,0,0,1,4.07-1.17C116.79,58.05,117.32,58.66,117.86,59.24Z" fill="#8bc53f"/><path d="M105.65,62.1c1,1.18,2.13,2.37,3.19,3.53,2.17,2.38,4.4,4.83,6.19,7.18l-3.48-.61-3.78-.66a73.71,73.71,0,0,0-5.25-6.28A15.86,15.86,0,0,1,105.65,62.1Z" fill="#8bc53f"/><path d="M111.68,59.12c.61.86,1.24,1.74,1.93,2.59,1.55,1.89,3.3,3.81,5,5.67,2.17,2.38,4.41,4.83,6.19,7.19-2.52-.47-5.25-1-8.74-1.57a92.92,92.92,0,0,0-6.69-7.85c-1-1.15-2.11-2.32-3.13-3.49a24,24,0,0,1,5.26-2.79Z" fill="#8bc53f"/><path d="M100.13,72.51c.47-.44.94-.89,1.38-1.35l.1,0,1.09.19,2,.35.07,0-.85.56c-1.21.81-2.38,1.59-3.53,2.43A12.88,12.88,0,0,1,100.13,72.51Z" fill="#8bc53f"/><path d="M121.3,92.77a70.69,70.69,0,0,1,8.08-6c1.59-1,3.29-1.89,4.92-2.79a80.69,80.69,0,0,0,8.41-5c2.09.46,3.76.81,5.31,1.13-5,3.55-10.18,6.94-15.2,10.23L127,94.2A51.45,51.45,0,0,1,121.3,92.77Z" fill="#8bc53f"/><path d="M101.57,78.23c2-1.43,4.17-2.75,6.34-4.1l2.3-1.43,2.16.38c-1,.79-1.93,1.56-2.8,2.24a67.49,67.49,0,0,0-5.79,4.92c-.21.21-.41.43-.62.65A18,18,0,0,1,101.57,78.23Z" fill="#8bc53f"/><path d="M111.29,88.23a34.7,34.7,0,0,1,5.3-4.63l1.53-1a88.92,88.92,0,0,0,9.41-6.79l2.12.4c1.21.23,2.51.49,4.21.84a2.13,2.13,0,0,0,.32.08c-2.11,1.51-4.31,2.88-6.45,4.22s-4.64,2.9-6.86,4.51a57.29,57.29,0,0,0-5.43,4.62A41.82,41.82,0,0,1,111.29,88.23Z" fill="#8bc53f"/><path d="M128,94.38,133.2,91c5.24-3.42,10.64-7,15.79-10.64,2.9.58,5.48,1,7.87,1.41a162.21,162.21,0,0,0-16.45,10.4c-.87.64-1.73,1.3-2.56,2A27.4,27.4,0,0,1,128,94.38Z" fill="#8bc53f"/><path d="M105.9,84.05c1.3-1.21,2.58-2.28,3.72-3.2a41.41,41.41,0,0,1,3.9-2.62,28.19,28.19,0,0,0,5.43-4l7.67,1.39a92.63,92.63,0,0,1-8.9,6.37l-1.53,1a35.73,35.73,0,0,0-5.52,4.83A31.88,31.88,0,0,1,105.9,84.05Z" fill="#8bc53f"/><path d="M103.6,81.48c.23-.25.46-.49.7-.72A63.36,63.36,0,0,1,110,75.89c1.08-.85,2.2-1.73,3.28-2.64,1.58.27,3.18.55,4.77.84a30.57,30.57,0,0,1-4.93,3.52,39.34,39.34,0,0,0-4,2.68c-1.16.94-2.46,2-3.78,3.25A21.09,21.09,0,0,1,103.6,81.48Z" fill="#8bc53f"/><path d="M120.48,92.5a46.36,46.36,0,0,1-4.33-1.69,53.12,53.12,0,0,1,5.14-4.36c2.2-1.6,4.55-3.07,6.83-4.49s4.76-3,7-4.64l5.19,1.14,1.42.31A84.7,84.7,0,0,1,134,83.39c-1.65.9-3.35,1.83-5,2.81a75.17,75.17,0,0,0-8.51,6.29Z" fill="#8bc53f"/><path d="M161.27,81.58c-.77-.09-1.54-.18-2.34-.29-.45-.62-.9-1.28-1.3-1.86-.69-1-1.4-2.05-2.17-3-1.19-1.48-2.45-3-3.66-4.41s-2.4-2.83-3.54-4.24-2.41-3.19-3.56-4.8l-1.77-2.44c11.74,6.79,18.66,20.76,18.66,20.76Z" fill="#8bc53f"/><path d="M144.11,63.4c1.16,1.61,2.36,3.29,3.58,4.82s2.36,2.85,3.53,4.23,2.5,3,3.67,4.42c.76.95,1.46,2,2.14,3l.91,1.31c-1.45-.21-3-.45-4.48-.72a7.59,7.59,0,0,1-2.74-3c-.26-.42-.53-.86-.82-1.26-3.36-4.69-7.58-8.8-11.65-12.77-2.15-2.1-4.36-4.26-6.42-6.47.81.11,1.63.23,2.44.38a26.08,26.08,0,0,1,7.14,2.43C142.33,60.92,143.23,62.17,144.11,63.4Z" fill="#8bc53f"/><path d="M131.27,57.34c2.07,2.25,4.31,4.42,6.47,6.53a98.72,98.72,0,0,1,11.57,12.69c.28.37.53.78.8,1.21a13.15,13.15,0,0,0,1.73,2.36c-2.25-.43-4.68-.92-7.73-1.59a.84.84,0,0,1-.18-.19l-.35-.39a22.74,22.74,0,0,1-2.94-4,25.69,25.69,0,0,0-3-4.09c-1.51-1.59-3.12-3.09-4.67-4.54-2-1.82-4-3.7-5.83-5.78-.89-1-1.78-2-2.68-3.06a48.92,48.92,0,0,1,6.23.28C130.9,57,131.09,57.15,131.27,57.34Z" fill="#8bc53f"/><path d="M160.54,82.22c-2.86,2.44-11.2,9-21,11.5.44-.35.88-.68,1.33-1A161.86,161.86,0,0,1,158,81.9C158.89,82,159.72,82.12,160.54,82.22Z" fill="#8bc53f"/><path d="M109.12,174.3l-3.79,1.16-2.42.75a11.73,11.73,0,0,1-.42-4.68C104.8,172.4,107.09,173.31,109.12,174.3Z" fill="#8bc53f"/><path d="M121.66,155.13c2.63,1,5.3,1.78,7.89,2.52,2,.58,4.13,1.18,6.18,1.89a24.74,24.74,0,0,1,4.38,2.23,25.5,25.5,0,0,0,4.32,2.21l-2.33.61c-1.8.47-3.72,1-5.65,1.5v0l-.23.08-.55.15a2.06,2.06,0,0,1-1.51-.34l-.39-.19c-2.67-1.24-5.49-2.57-8.13-3.91a41.46,41.46,0,0,0-7.53-2.73c-1.44-.42-2.92-.85-4.36-1.37-.61-.22-1.23-.46-1.85-.72a41.71,41.71,0,0,1,5.43-3.63C118.78,154,120.23,154.58,121.66,155.13Z" fill="#8bc53f"/><path d="M103.33,177.4l-.2-.5.41-.13Z" fill="#8bc53f"/><path d="M107.68,176.75c.28-.49.56-1,.84-1.52l3.27-1-1,1.63c-1.3,2.16-2.58,4.28-3.73,6.46a15.15,15.15,0,0,1-1.58-1.51c.67-1.36,1.4-2.67,2.16-4Z" fill="#8bc53f"/><path d="M113.5,158.44c1.45.53,3,1,4.39,1.38a42.36,42.36,0,0,1,7.41,2.68c2.64,1.35,5.48,2.68,8.16,3.93l.35.17.28.14-2.57.73-3.84,1.14a96.07,96.07,0,0,0-9.54-3.94c-2.36-.88-4.79-1.79-7-2.76-1-.43-1.94-.92-2.86-1.39l-.11-.06a31.88,31.88,0,0,1,3.09-2.9C112,157.87,112.75,158.17,113.5,158.44Z" fill="#8bc53f"/><path d="M113.79,172.85,110.12,174a73.47,73.47,0,0,0-7.53-3.2,16.14,16.14,0,0,1,1.34-4.24c1.47.58,3,1.14,4.46,1.69,3,1.12,6.11,2.29,8.77,3.57Z" fill="#8bc53f"/><path d="M107.94,161.15c.94.49,1.9,1,2.9,1.43,2.23,1,4.68,1.88,7,2.76,3,1.13,6.12,2.29,8.78,3.57-2.46.74-5.11,1.55-8.49,2.59a93.54,93.54,0,0,0-9.53-3.93c-1.46-.55-2.94-1.1-4.38-1.67a24.37,24.37,0,0,1,3.4-4.89Z" fill="#8bc53f"/><path d="M104.48,176.48l1.06-.33,1.91-.59.08,0-.51.89c-.7,1.27-1.39,2.5-2,3.77a11.94,11.94,0,0,1-1.21-1.87c.21-.6.41-1.22.6-1.82Z" fill="#8bc53f"/><path d="M139.44,173a80.42,80.42,0,0,0,5.17-8.33c2.07-.55,3.72-1,5.25-1.42-2.83,5.44-5.9,10.83-8.87,16-1.15,2-2.31,4-3.46,6.1a50.4,50.4,0,0,1-5.68,1.31,70.89,70.89,0,0,1,4.48-9C137.3,176.15,138.39,174.55,139.44,173Z" fill="#8bc53f"/><path d="M112.83,173.91l2.09-.65c-.48,1.14-1,2.27-1.47,3.28a65.35,65.35,0,0,0-2.9,7l-.27.86a18.57,18.57,0,0,1-2.63-1.64c1.17-2.21,2.46-4.35,3.78-6.54Z" fill="#8bc53f"/><path d="M124.38,179.11a87.65,87.65,0,0,0,5.28-10.34l2.06-.6c1.18-.35,2.46-.71,4.14-1.17a2.49,2.49,0,0,0,.32-.08c-1.19,2.3-2.52,4.53-3.82,6.69s-2.81,4.7-4.05,7.15a57.11,57.11,0,0,0-2.72,6.59,41,41,0,0,1-4.73-.12,34.27,34.27,0,0,1,2.62-6.53Z" fill="#8bc53f"/><path d="M150.81,163c2.84-.8,5.36-1.57,7.65-2.33a161.88,161.88,0,0,0-9.9,16.76c-.49,1-.94,1.93-1.38,2.91a27.43,27.43,0,0,1-8.65,4.76q1.54-2.74,3.08-5.43C144.71,174.24,147.9,168.63,150.81,163Z" fill="#8bc53f"/><path d="M118.29,177.32a28.75,28.75,0,0,0,3-6c2.82-.87,5.21-1.59,7.46-2.26a91.56,91.56,0,0,1-5,9.72l-.89,1.58a35.41,35.41,0,0,0-2.72,6.82,31.25,31.25,0,0,1-6-1.19c.61-1.66,1.26-3.19,1.86-4.54A40.87,40.87,0,0,1,118.29,177.32Z" fill="#8bc53f"/><path d="M114.11,176.84c.58-1.26,1.17-2.55,1.72-3.86l4.63-1.42a30.29,30.29,0,0,1-2.79,5.38,39.41,39.41,0,0,0-2.31,4.2c-.61,1.36-1.27,2.92-1.88,4.61a23.19,23.19,0,0,1-2.54-1c.1-.32.19-.64.3-1A65.24,65.24,0,0,1,114.11,176.84Z" fill="#8bc53f"/><path d="M133,174c1.41-2.36,2.87-4.81,4.14-7.33,1.71-.46,3.45-.92,5.13-1.35l1.4-.37a85.53,85.53,0,0,1-4.81,7.66c-1.06,1.55-2.15,3.16-3.14,4.76a75.2,75.2,0,0,0-4.7,9.48v0c-1.57.24-3.12.39-4.63.47a54.1,54.1,0,0,1,2.59-6.23C130.19,178.66,131.61,176.29,133,174Z" fill="#8bc53f"/><path d="M160.11,159.34c-.69-.35-1.39-.73-2-1.07-1.07-.58-2.18-1.18-3.31-1.68-1.72-.78-3.52-1.53-5.27-2.26s-3.42-1.42-5.08-2.16-3.6-1.74-5.35-2.64c-.89-.46-1.79-.92-2.7-1.37,13.55.68,26.08,10,26.08,10s-.05.15-.15.41Z" fill="#8bc53f"/><path d="M151,159.61c-.42-.26-.87-.52-1.3-.74a99.49,99.49,0,0,0-16.2-6.06c-2.86-.89-5.82-1.8-8.66-2.83.77-.28,1.55-.53,2.35-.78a26.09,26.09,0,0,1,7.46-1.08c1.37.66,2.74,1.36,4.08,2,1.77.91,3.6,1.86,5.4,2.66,1.65.74,3.39,1.46,5.06,2.16s3.57,1.48,5.29,2.26c1.1.49,2.2,1.09,3.26,1.66l1.4.75c-1.39.48-2.84,1-4.32,1.4A7.5,7.5,0,0,1,151,159.61Z" fill="#8bc53f"/><path d="M145.41,163.56l-.49-.18a23.41,23.41,0,0,1-4.44-2.24,25.44,25.44,0,0,0-4.51-2.28c-2.07-.72-4.18-1.33-6.22-1.91-2.58-.73-5.23-1.49-7.83-2.49l-3.78-1.5a48.16,48.16,0,0,1,5.67-2.59l.75.27c2.88,1.05,5.86,2,8.74,2.86a98.57,98.57,0,0,1,16.09,6c.41.21.83.46,1.26.72a12.76,12.76,0,0,0,2.61,1.31c-2.19.65-4.58,1.31-7.6,2.12Z" fill="#8bc53f"/><path d="M159.59,160.28c.81-.28,1.6-.56,2.37-.85-1.43,3.48-5.87,13.11-13.49,19.83.24-.51.48-1,.73-1.51A164.65,164.65,0,0,1,159.59,160.28Z" fill="#8bc53f"/><path d="M149.4,204.11l-3.79,1.16-2.42.76a11.8,11.8,0,0,1-.42-4.69C145.08,202.21,147.37,203.13,149.4,204.11Z" fill="#8bc53f"/><path d="M176.73,195.9v0l-.23.09-.55.15a2.07,2.07,0,0,1-1.51-.35l-.39-.18c-2.67-1.24-5.49-2.57-8.12-3.92a41.83,41.83,0,0,0-7.54-2.73c-1.44-.42-2.92-.85-4.36-1.37-.61-.22-1.23-.46-1.85-.71a41.75,41.75,0,0,1,5.43-3.64c1.46.59,2.9,1.17,4.34,1.73,2.63,1,5.3,1.78,7.89,2.51,2,.58,4.13,1.18,6.18,1.9a24.69,24.69,0,0,1,4.38,2.22,25.5,25.5,0,0,0,4.32,2.21l-2.32.61Z" fill="#8bc53f"/><path d="M143.61,207.21c-.07-.17-.13-.33-.19-.49l.4-.14Z" fill="#8bc53f"/><path d="M148,206.57l.84-1.52,3.27-1-1,1.63c-1.3,2.17-2.57,4.28-3.74,6.46a15,15,0,0,1-1.57-1.51c.67-1.36,1.4-2.66,2.16-4Z" fill="#8bc53f"/><path d="M153.78,188.25c1.46.53,2.95,1,4.39,1.39a41.53,41.53,0,0,1,7.41,2.67c2.65,1.36,5.48,2.69,8.16,3.94l.35.17.28.13-2.57.73L168,198.42a95.08,95.08,0,0,0-9.54-3.94c-2.36-.88-4.79-1.79-7-2.75-1-.43-1.93-.92-2.85-1.4l-.11-.06a35.82,35.82,0,0,1,3.08-2.9C152.28,187.68,153,188,153.78,188.25Z" fill="#8bc53f"/><path d="M154.07,202.67l-3.67,1.13a75.76,75.76,0,0,0-7.53-3.2,15.78,15.78,0,0,1,1.34-4.24c1.47.58,3,1.14,4.46,1.7,3,1.12,6.11,2.28,8.77,3.57Z" fill="#8bc53f"/><path d="M148.22,191c.94.49,1.9,1,2.91,1.42,2.22,1,4.67,1.88,7,2.76,3,1.13,6.12,2.29,8.78,3.58l-8.49,2.59a95.86,95.86,0,0,0-9.53-3.94c-1.46-.54-2.94-1.1-4.38-1.67a23.71,23.71,0,0,1,3.41-4.88Z" fill="#8bc53f"/><path d="M144.76,206.29l1.06-.33,1.91-.59.08,0c-.17.31-.34.6-.5.9-.72,1.27-1.4,2.49-2,3.76a13.23,13.23,0,0,1-1.22-1.86c.22-.61.42-1.22.61-1.83Z" fill="#8bc53f"/><path d="M179.72,202.82a80,80,0,0,0,5.17-8.33c2.07-.54,3.72-1,5.25-1.41-2.83,5.43-5.9,10.82-8.87,16-1.14,2-2.31,4-3.46,6.09a48.31,48.31,0,0,1-5.68,1.31,72.87,72.87,0,0,1,4.47-9C177.58,206,178.67,204.37,179.72,202.82Z" fill="#8bc53f"/><path d="M153.11,203.72l2.09-.64c-.48,1.13-1,2.26-1.47,3.27a67.1,67.1,0,0,0-2.9,7c-.1.29-.18.57-.27.86a17.4,17.4,0,0,1-2.63-1.64c1.17-2.2,2.46-4.34,3.79-6.54Z" fill="#8bc53f"/><path d="M164.66,208.93a89.23,89.23,0,0,0,5.28-10.34L172,198c1.19-.35,2.46-.71,4.14-1.17a1.49,1.49,0,0,0,.32-.08c-1.19,2.31-2.52,4.53-3.82,6.7s-2.81,4.7-4,7.14a57.11,57.11,0,0,0-2.72,6.59,38.67,38.67,0,0,1-4.72-.11,33.68,33.68,0,0,1,2.61-6.54C164.05,210,164.35,209.46,164.66,208.93Z" fill="#8bc53f"/><path d="M191.09,192.81c2.85-.8,5.36-1.56,7.66-2.33a160.34,160.34,0,0,0-9.91,16.76c-.49,1-.94,1.94-1.38,2.92a27.3,27.3,0,0,1-8.65,4.75l3.09-5.43C185,204.05,188.18,198.44,191.09,192.81Z" fill="#8bc53f"/><path d="M158.57,207.13a28.51,28.51,0,0,0,3-6l7.46-2.26a93.36,93.36,0,0,1-5,9.72l-.9,1.59a36.07,36.07,0,0,0-2.72,6.82,32.87,32.87,0,0,1-6-1.19c.61-1.67,1.26-3.2,1.86-4.54A38.13,38.13,0,0,1,158.57,207.13Z" fill="#8bc53f"/><path d="M154.39,206.65c.58-1.25,1.17-2.55,1.72-3.85l4.63-1.43a30.37,30.37,0,0,1-2.79,5.39,39.27,39.27,0,0,0-2.31,4.19c-.61,1.36-1.27,2.92-1.88,4.62a23.19,23.19,0,0,1-2.54-1c.1-.32.19-.65.3-1A62.56,62.56,0,0,1,154.39,206.65Z" fill="#8bc53f"/><path d="M173.26,203.8c1.42-2.37,2.89-4.82,4.15-7.33,1.71-.47,3.45-.92,5.13-1.36l1.4-.37a83.32,83.32,0,0,1-4.81,7.66c-1.06,1.55-2.15,3.16-3.14,4.76a75.2,75.2,0,0,0-4.7,9.48s0,0,0,0c-1.57.24-3.12.39-4.63.47a54.85,54.85,0,0,1,2.59-6.23C170.47,208.48,171.89,206.1,173.26,203.8Z" fill="#8bc53f"/><path d="M198.38,188.09c-1.07-.58-2.18-1.18-3.3-1.69-1.73-.77-3.53-1.52-5.28-2.25s-3.42-1.43-5.08-2.17-3.6-1.73-5.35-2.64c-.89-.46-1.79-.92-2.7-1.37,13.55.69,26.08,10,26.08,10l-.15.4c-.72.27-1.46.55-2.21.81C199.7,188.8,199,188.43,198.38,188.09Z" fill="#8bc53f"/><path d="M184.43,182.64c1.65.74,3.38,1.47,5.06,2.16s3.57,1.49,5.29,2.26c1.1.5,2.2,1.09,3.26,1.67l1.4.75c-1.39.48-2.84,1-4.32,1.4a7.55,7.55,0,0,1-3.82-1.46c-.42-.25-.86-.52-1.3-.74a99.49,99.49,0,0,0-16.2-6.06c-2.87-.88-5.82-1.8-8.66-2.83.77-.27,1.55-.53,2.35-.77a26.11,26.11,0,0,1,7.46-1.09c1.37.66,2.74,1.36,4.08,2C180.8,180.9,182.63,181.84,184.43,182.64Z" fill="#8bc53f"/><path d="M185.69,193.38a3.91,3.91,0,0,0-.49-.19,22.79,22.79,0,0,1-4.44-2.23,25.48,25.48,0,0,0-4.51-2.29c-2.07-.72-4.18-1.32-6.23-1.9-2.57-.73-5.22-1.49-7.82-2.5q-1.87-.72-3.78-1.5a51.64,51.64,0,0,1,5.67-2.59l.75.28c2.87,1,5.86,2,8.75,2.85,5.41,1.68,11,3.4,16.08,6q.62.33,1.26.72a13,13,0,0,0,2.61,1.31c-2.19.65-4.58,1.31-7.6,2.12Z" fill="#8bc53f"/><path d="M199.87,190.1c.81-.28,1.6-.57,2.37-.85-1.43,3.47-5.86,13.11-13.48,19.82q.35-.75.72-1.5A163.66,163.66,0,0,1,199.87,190.1Z" fill="#8bc53f"/><path d="M147.2,119l-3.91-.69c-.79-.15-1.62-.29-2.5-.43a11.88,11.88,0,0,1,1.77-4.36C144.22,115.31,145.84,117.16,147.2,119Z" fill="#8bc53f"/><path d="M167.1,107.63c1.87,2.1,3.9,4,5.87,5.83,1.55,1.44,3.14,2.94,4.64,4.5a25.22,25.22,0,0,1,2.88,4,25.11,25.11,0,0,0,2.84,3.94l-2.35-.52c-1.82-.4-3.76-.83-5.72-1.24v0l-.25,0-.56-.12c-.56-.16-.78-.44-1.19-1l-.26-.33c-1.8-2.33-3.71-4.8-5.44-7.2a42.9,42.9,0,0,0-5.46-5.86c-1.09-1-2.22-2.09-3.25-3.21-.45-.47-.89-1-1.33-1.48a42.86,42.86,0,0,1,6.5-.76C165.05,105.3,166.07,106.48,167.1,107.63Z" fill="#8bc53f"/><path d="M141.1,118.62c-.15.16-.31.31-.47.46,0-.18,0-.35.05-.53Z" fill="#8bc53f"/><path d="M141,123.11c1.22-.91,2.46-1.74,3.75-2.6l0,0,1.45-1,3.37.59-1.62,1c-2.15,1.33-4.24,2.63-6.27,4A14.77,14.77,0,0,1,141,123.11Z" fill="#8bc53f"/><path d="M158.33,106.85c1,1.13,2.18,2.2,3.27,3.23a41.5,41.5,0,0,1,5.38,5.77c1.73,2.4,3.65,4.88,5.46,7.21l.24.31.19.25-2.63-.52-3.93-.74a96.26,96.26,0,0,0-6.69-7.86c-1.7-1.85-3.45-3.77-5-5.64-.68-.83-1.31-1.7-1.91-2.54l-.07-.11a34.53,34.53,0,0,1,4.07-1.17C157.25,105.66,157.78,106.27,158.33,106.85Z" fill="#8bc53f"/><path d="M146.11,109.7c1,1.19,2.13,2.38,3.19,3.54,2.17,2.37,4.41,4.82,6.19,7.18l-3.48-.61-3.78-.67a77,77,0,0,0-5.24-6.27A15.58,15.58,0,0,1,146.11,109.7Z" fill="#8bc53f"/><path d="M152.14,106.73c.61.86,1.24,1.74,1.94,2.59,1.54,1.88,3.3,3.8,5,5.67,2.18,2.37,4.42,4.82,6.2,7.18l-8.75-1.57a96,96,0,0,0-6.68-7.85c-1.05-1.14-2.12-2.31-3.14-3.48a23.59,23.59,0,0,1,5.26-2.79Z" fill="#8bc53f"/><path d="M140.6,120.12c.47-.45.93-.89,1.38-1.35l.09,0,1.1.19,2,.35h.07l-.85.57c-1.21.81-2.38,1.58-3.52,2.43A12,12,0,0,1,140.6,120.12Z" fill="#8bc53f"/><path d="M167.42,141.8a51.26,51.26,0,0,1-5.65-1.42,70.57,70.57,0,0,1,8.07-5.95c1.59-1,3.29-1.89,4.93-2.79a80.55,80.55,0,0,0,8.4-5c2.09.46,3.76.81,5.31,1.13-5,3.55-10.18,6.94-15.2,10.23C171.34,139.22,169.38,140.5,167.42,141.8Z" fill="#8bc53f"/><path d="M142,125.84c2-1.44,4.17-2.75,6.35-4.1l2.29-1.43,2.16.38c-1,.79-1.92,1.55-2.8,2.24a67.36,67.36,0,0,0-5.78,4.92l-.63.64A18.78,18.78,0,0,1,142,125.84Z" fill="#8bc53f"/><path d="M174.64,124.74c-2.1,1.5-4.31,2.88-6.44,4.21-2.29,1.43-4.65,2.9-6.87,4.52a55.53,55.53,0,0,0-5.42,4.62,39.07,39.07,0,0,1-4.16-2.26,35.19,35.19,0,0,1,5.3-4.62l1.53-1a88,88,0,0,0,9.41-6.8l2.12.4c1.21.23,2.51.5,4.21.85Z" fill="#8bc53f"/><path d="M178.31,141.7a27.4,27.4,0,0,1-9.86.29c1.75-1.16,3.5-2.3,5.22-3.43,5.23-3.42,10.63-7,15.79-10.64,2.89.58,5.48,1,7.87,1.41a159.61,159.61,0,0,0-16.46,10.4C180,140.37,179.15,141,178.31,141.7Z" fill="#8bc53f"/><path d="M154,125.83a28.14,28.14,0,0,0,5.43-4c2.91.52,5.36,1,7.67,1.39a91.32,91.32,0,0,1-8.9,6.36l-1.52,1a34.89,34.89,0,0,0-5.53,4.83,31.88,31.88,0,0,1-4.77-3.78c1.3-1.21,2.58-2.28,3.73-3.2A38.32,38.32,0,0,1,154,125.83Z" fill="#8bc53f"/><path d="M144.06,129.08l.7-.72a64.66,64.66,0,0,1,5.72-4.86c1.08-.85,2.21-1.73,3.29-2.65l4.77.85a30.66,30.66,0,0,1-4.94,3.52,38.8,38.8,0,0,0-4,2.68c-1.16.93-2.46,2-3.78,3.24A24.19,24.19,0,0,1,144.06,129.08Z" fill="#8bc53f"/><path d="M180.8,126.06l1.41.32a89.29,89.29,0,0,1-7.77,4.62c-1.66.9-3.36,1.83-5,2.81a75.1,75.1,0,0,0-8.51,6.28s0,0,0,0q-2.26-.77-4.34-1.69a54.8,54.8,0,0,1,5.15-4.37c2.19-1.59,4.55-3.06,6.82-4.48s4.76-3,7-4.64Z" fill="#8bc53f"/><path d="M198.09,127c-.69-1-1.4-2.05-2.17-3-1.18-1.48-2.44-3-3.66-4.41s-2.4-2.83-3.54-4.25-2.41-3.18-3.56-4.79c-.58-.81-1.17-1.63-1.77-2.45,11.74,6.79,18.66,20.76,18.66,20.76l-.31.29c-.77-.08-1.55-.18-2.34-.28C198.94,128.27,198.49,127.62,198.09,127Z" fill="#8bc53f"/><path d="M188.16,115.83c1.14,1.41,2.35,2.84,3.52,4.23s2.5,3,3.68,4.42c.75.94,1.46,2,2.14,3,.3.44.6.88.91,1.31-1.47-.21-3-.45-4.49-.73a7.47,7.47,0,0,1-2.73-3c-.27-.42-.54-.86-.82-1.26A100.38,100.38,0,0,0,178.71,111c-2.14-2.09-4.36-4.25-6.41-6.46.81.11,1.62.23,2.44.38a25.9,25.9,0,0,1,7.13,2.43c.93,1.22,1.82,2.46,2.7,3.69C185.73,112.62,186.93,114.29,188.16,115.83Z" fill="#8bc53f"/><path d="M184,125.57a23.65,23.65,0,0,1-2.94-4,24.58,24.58,0,0,0-3-4.1c-1.51-1.58-3.12-3.08-4.67-4.53-2-1.82-4-3.71-5.82-5.78-.9-1-1.79-2-2.68-3.06a48.76,48.76,0,0,1,6.22.28c.19.19.37.39.55.58,2.08,2.24,4.31,4.42,6.47,6.53,4.06,4,8.25,8,11.58,12.69.27.37.52.78.79,1.21a13.15,13.15,0,0,0,1.73,2.36c-2.24-.43-4.67-.93-7.73-1.59l-.18-.19Z" fill="#8bc53f"/><path d="M181.29,140.32A163.43,163.43,0,0,1,198.5,129.5l2.5.33c-2.85,2.43-11.19,9-21,11.49C180.4,141,180.85,140.64,181.29,140.32Z" fill="#8bc53f"/><path d="M53.67,116.56l-2.5-.43a12,12,0,0,1,1.76-4.36c1.66,1.83,3.29,3.69,4.64,5.49Z" fill="#8bc53f"/><path d="M83.35,111.76c1.54,1.44,3.14,2.93,4.63,4.5a24.52,24.52,0,0,1,2.88,4,25.92,25.92,0,0,0,2.85,4l-2.35-.52-5.72-1.25h0l-.25,0-.55-.11c-.57-.17-.78-.45-1.2-1-.08-.12-.16-.23-.25-.34-1.81-2.32-3.72-4.79-5.45-7.19a40.62,40.62,0,0,0-5.46-5.86c-1.09-1-2.21-2.1-3.25-3.21-.44-.48-.89-1-1.32-1.48a41.63,41.63,0,0,1,6.49-.76c1,1.19,2,2.36,3.07,3.51C79.35,108,81.38,109.92,83.35,111.76Z" fill="#8bc53f"/><path d="M51,117.38c0-.18,0-.36.05-.53l.42.07C51.32,117.07,51.16,117.22,51,117.38Z" fill="#8bc53f"/><path d="M55.17,118.79l1.44-1,3.37.6-1.61,1c-2.15,1.33-4.25,2.63-6.27,4a12.25,12.25,0,0,1-.71-2.06c1.21-.9,2.45-1.73,3.74-2.59Z" fill="#8bc53f"/><path d="M72,108.37a42,42,0,0,1,5.37,5.77c1.74,2.41,3.65,4.88,5.47,7.22l.24.31.18.24c-1-.2-1.84-.37-2.62-.51l-3.94-.74A92.73,92.73,0,0,0,70,112.8c-1.7-1.86-3.45-3.78-5-5.64-.68-.83-1.3-1.71-1.9-2.55l-.07-.1a32.56,32.56,0,0,1,4.06-1.17c.53.61,1.06,1.22,1.6,1.81C69.76,106.27,70.89,107.34,72,108.37Z" fill="#8bc53f"/><path d="M65.86,118.72l-3.47-.62-3.78-.66a77.3,77.3,0,0,0-5.25-6.28A16.12,16.12,0,0,1,56.49,108c1,1.18,2.13,2.37,3.19,3.53C61.85,113.91,64.08,116.36,65.86,118.72Z" fill="#8bc53f"/><path d="M69.45,113.28c2.18,2.38,4.41,4.83,6.19,7.19-2.52-.47-5.26-1-8.74-1.57a91.1,91.1,0,0,0-6.69-7.85c-1-1.15-2.11-2.32-3.14-3.48a24.34,24.34,0,0,1,5.27-2.8l.18.25c.61.86,1.24,1.75,1.93,2.6C66,109.5,67.75,111.42,69.45,113.28Z" fill="#8bc53f"/><path d="M52.35,117.07h.1l1.09.2,2,.34.07,0-.84.57c-1.22.8-2.39,1.58-3.53,2.42a11.88,11.88,0,0,1-.24-2.22C51.44,118,51.91,117.52,52.35,117.07Z" fill="#8bc53f"/><path d="M85.14,129.93a79.66,79.66,0,0,0,8.41-5.05c2.09.46,3.76.81,5.31,1.14-5,3.55-10.19,6.94-15.2,10.23-1.94,1.26-3.91,2.55-5.86,3.85a51.45,51.45,0,0,1-5.66-1.43,71.9,71.9,0,0,1,8.08-5.95C81.81,131.76,83.5,130.83,85.14,129.93Z" fill="#8bc53f"/><path d="M61.05,118.6l2.16.38c-1,.79-1.93,1.56-2.8,2.25a65.88,65.88,0,0,0-5.79,4.91c-.21.21-.42.43-.62.65a17.54,17.54,0,0,1-1.6-2.66c2.05-1.43,4.17-2.75,6.35-4.1C59.51,119.56,60.28,119.09,61.05,118.6Z" fill="#8bc53f"/><path d="M69,128.5a86.67,86.67,0,0,0,9.42-6.79l2.12.4c1.21.23,2.51.49,4.21.85L85,123c-2.11,1.51-4.31,2.88-6.45,4.22s-4.64,2.9-6.87,4.51a58.44,58.44,0,0,0-5.42,4.62,39.85,39.85,0,0,1-4.15-2.25,35.26,35.26,0,0,1,5.3-4.63Z" fill="#8bc53f"/><path d="M99.83,126.21c2.9.59,5.48,1.05,7.88,1.41A160.88,160.88,0,0,0,91.24,138c-.86.63-1.71,1.29-2.55,2a27.18,27.18,0,0,1-9.86.28L84,136.86C89.27,133.43,94.68,129.9,99.83,126.21Z" fill="#8bc53f"/><path d="M64.36,124.13a28.18,28.18,0,0,0,5.42-4c2.91.51,5.37,1,7.68,1.39a94.33,94.33,0,0,1-8.9,6.36l-1.53,1a36.9,36.9,0,0,0-5.53,4.83A32.3,32.3,0,0,1,56.74,130c1.3-1.21,2.58-2.27,3.72-3.19A39.63,39.63,0,0,1,64.36,124.13Z" fill="#8bc53f"/><path d="M60.85,121.79c1.09-.85,2.21-1.73,3.29-2.64l4.77.84A30.57,30.57,0,0,1,64,123.51a41.08,41.08,0,0,0-4,2.68c-1.17.94-2.47,2-3.78,3.25a22.67,22.67,0,0,1-1.8-2.06l.7-.72A68.07,68.07,0,0,1,60.85,121.79Z" fill="#8bc53f"/><path d="M79,127.86c2.35-1.46,4.77-3,7-4.63,1.74.37,3.5.75,5.2,1.13l1.41.31a84.7,84.7,0,0,1-7.78,4.62c-1.65.9-3.35,1.84-5,2.81a74.28,74.28,0,0,0-8.51,6.29h0A46.36,46.36,0,0,1,67,136.71a53.12,53.12,0,0,1,5.14-4.36C74.33,130.75,76.68,129.28,79,127.86Z" fill="#8bc53f"/><path d="M108.47,125.33c-.69-1-1.4-2-2.17-3-1.19-1.48-2.45-3-3.66-4.4s-2.4-2.83-3.54-4.25-2.41-3.18-3.56-4.8c-.59-.81-1.17-1.63-1.77-2.44,11.74,6.79,18.66,20.76,18.66,20.76l-.32.29c-.77-.09-1.54-.18-2.34-.29C109.32,126.57,108.87,125.91,108.47,125.33Z" fill="#8bc53f"/><path d="M98.54,114.12c1.13,1.42,2.35,2.85,3.52,4.24s2.49,2.94,3.68,4.42c.75.94,1.46,2,2.13,3,.31.45.61.89.91,1.31-1.46-.21-3-.45-4.48-.72a7.59,7.59,0,0,1-2.74-3c-.26-.42-.53-.85-.82-1.25a98.33,98.33,0,0,0-11.66-12.78c-2.14-2.09-4.35-4.25-6.41-6.47.81.11,1.62.24,2.44.38a26.1,26.1,0,0,1,7.14,2.44c.92,1.21,1.82,2.46,2.7,3.69C96.11,110.92,97.3,112.59,98.54,114.12Z" fill="#8bc53f"/><path d="M100.15,122.46c.28.38.53.79.8,1.22a13.44,13.44,0,0,0,1.73,2.35c-2.25-.42-4.68-.92-7.73-1.58a1.77,1.77,0,0,1-.18-.19,5.06,5.06,0,0,0-.35-.39,23.73,23.73,0,0,1-2.94-4,25.69,25.69,0,0,0-3-4.09c-1.52-1.59-3.12-3.08-4.67-4.53-2-1.83-4-3.71-5.83-5.79-.89-1-1.79-2-2.68-3.06a49,49,0,0,1,6.23.28l.54.59c2.08,2.24,4.32,4.42,6.48,6.53A98,98,0,0,1,100.15,122.46Z" fill="#8bc53f"/><path d="M108.88,127.8c.85.12,1.68.22,2.5.32-2.86,2.44-11.2,9-21,11.5.44-.34.88-.68,1.33-1A163.49,163.49,0,0,1,108.88,127.8Z" fill="#8bc53f"/><path d="M161.83,142.76c20.33,5.28,41.2,16.31,53.33,34.09a47.23,47.23,0,0,1,4.92,9.35q-.3-2.73-.65-5.47C210.74,110.65,189,86.78,146.92,51.89c46.17,32.52,75.51,62.52,82.15,120.47,13.23-37.83,32.68-64.57,58.95-87C238.8,148.93,235.88,169.11,239.24,213c7.54-28.24,15.81-46.31,53.17-70.22-58.51,42-64.81,154.63-29.79,217.71,7.91,14.27,17.65,25.67,33.64,32.19.53,0,.54,0,0,0-40.81,2.44-84.59-1.28-126.56.49,28.37-22.1,44.15-55.56,50.6-91.05,7-38.56,5.9-86.12-16.93-117.93-14.49-20.21-34.82-34.27-58.31-42.4-1.43-.5-18.88-7.42-25.28-12.69C120.24,129.3,123.56,132.81,161.83,142.76Z" fill="#5a4a42"/></svg>