<svg id="Layer_1" data-name="Layer 1" xmlns="http://www.w3.org/2000/svg" viewBox="0 0 400 400"><path d="M184.69,243.37c-.12,2.56-.4,5-.31,7.47,1,25.85-1.08,51.31-2.85,77.06-.38,5.54-.57,11.1-.85,16.65-.37,7.25-10.91,4.53-15.77,4.4q-13.57-.36-27.16-.37c-25.11,0-50,2-75-.24-2.85-.31-3.05-.75-3.14-3.79C59,327.09,58.39,309.63,58,292.16c-.32-14.16-.34-28.34-.56-42.51,0-2-.44-4-.71-6.4-4.08-.15-7.89-.21-11.69-.45s-7.48.35-11.23-1.38c2.6-6.87,10.91-13.09,16.07-18.2q7.11-7,14.61-13.65c3.73-3.29,8.76-6.28,8.62-11.84-.12-5-.13-10,0-15,.05-2.5.45-2.78,2.74-2.89s4.31-.13,6.47-.16c3.41-.05,3.93.45,4.24,3.78.15,1.64.46,3.27.82,5.71,2.56-2.32,4.59-4,6.47-5.91,5.09-5.08,9.86-10.48,14.66-15.84,3.2-3.56,6.26-9.39,11.33-5.46,30.13,23.41,60.67,49,87,77a2.26,2.26,0,0,1,.68,1.72A2.13,2.13,0,0,1,206,242a9.79,9.79,0,0,1-2.69-.12C197.13,241.25,191.11,242.08,184.69,243.37Zm-123.86-.15a13.75,13.75,0,0,0-.19,1.51c.3,32.6.5,65.34,2.07,97.86.13,2.74.59,3.07,3.28,3.19,1.24.05,2.48.22,3.72.29,31.56,1.76,63.74-.13,95.38-.32,3.11,0,9.79.88,12.2-1.57,1.94-2,1-7,1.22-9.49q1-12.63,1.79-25.28c.31-5.31,3.79-65.51.11-65.48q-31.09.27-62.18-.34-15.54-.32-31.08-.83C85.42,242.7,61.07,241.47,60.83,243.22Zm140.25-4.59c-7.13-9.68-17.2-17.41-26-25.6-13.63-12.69-27.09-25.29-41.57-37-4.41-3.56-8.88-7.05-13.47-10.37-2.45-1.77-3.79-1.4-5.87.86C91.71,191,65.85,211.83,42.48,235.27c-1,1-2.26,2.17-2.12,4.14,3.17.18,6.21.47,9.25.49q35.53.22,71.07.89c23.67.42,47.15,1.61,70.73-1C194.41,239.5,197.4,239.09,201.08,238.63ZM76.59,197.68c6.39-2.82,7.32-4.4,6.53-10.45-.05-.44-.07-.9-.15-1.34-.51-2.65-1.22-3.09-4.36-2.76-2.33.25-2.5.48-2.51,3.4,0,1.13-.06,2.26,0,3.38C76.23,192.45,76.42,195,76.59,197.68Z" fill="#4c2d13"/><path d="M53,128.46c-.61-.87-1.23-1.73-1.83-2.6-4.08-5.84-7.4,2.93-7.79,6.48a12.2,12.2,0,0,0,1.94,8.12c.52.84,8.37,7.89,8.63,6.68a23.63,23.63,0,0,1,.59-2.58,33.91,33.91,0,0,1,2.24-5.65c1.44-2.48,5.82-4.64,8.7-3.47,3.62,1.45,3.78,7.45,2.44,10.52a10,10,0,0,1-9.28,5.82,15.39,15.39,0,0,0,6.94,9.73c.7-4.25,7-13.18,11.49-7.28,3.59,4.69-2.27,9.46-6.31,11.08-.09,0-.14.17-.32.41,1.06,2.72,3.26,4.06,6,4.66.66.14,1.42-.07,2,.17s1.2.83,1.25,1.31a1.86,1.86,0,0,1-.94,1.54,6,6,0,0,1-3.26,0c-3.43-1.33-6.43-3.3-8.3-6.67a4.44,4.44,0,0,0-1.76-1.92,15.76,15.76,0,0,1-8.19-8.68,11.64,11.64,0,0,0-5.9-6.59,27.5,27.5,0,0,1-6-4.4c-4.8-4.21-6.83-12.77-4.58-18.8,1.36-3.67,6.07-6.18,9.5-5.07S54.42,124,53,128.46Zm4.12,17.65c.51,2.07,1.12,2.6,3,2.41,3.14-.32,5.42-3.34,5.39-7.14,0-1.25,0-2.57-1.54-3s-3.13-.49-3.93,1C58.82,141.52,58,143.85,57.08,146.11Zm16.19,9.52c-3.75,2-4.34,3.49-2.8,6.56C73.54,160.92,74.65,158.49,73.27,155.63Z" fill="#4c2d13"/><path d="M100.58,254.37c7.26-.21,14.53.61,21.79.85,8.65.29,17.32.29,26,.74,2.62.13,3.1.58,3.16,3.27.3,13.52,2,27.48,2,41.2,0,5.09,2,14.25-4.38,14.85-7.07.68-14.6,0-21.71-.06-9.26-.1-18.52-.29-27.78-.49a11.79,11.79,0,0,1-3.32-.61C93,313,92.69,312.5,92.71,309c.08-13.35.66-26.7,0-40.06-.19-3.73,0-7.48-.09-11.21a2.52,2.52,0,0,1,2.53-2.94C97,254.55,98.76,254.43,100.58,254.37Zm11.65,58.45c1.71-.09,3.41-.23,5.08-.41,2-.23,2.72-1,2.94-3a30.86,30.86,0,0,0,.15-3.73c-.07-5.09-.27-10.19-.27-15.28,0-9.74.09-19.47.1-29.21,0-3.37-.34-3.63-3.7-3.75-4.4-.16-8.8-.47-13.2-.55a36.41,36.41,0,0,0-5.38.58c-1.23.18-1.64,1.05-1.66,2.2-.1,5.65-.36,11.31-.28,17s.72,11,.28,16.57a136.5,136.5,0,0,0,.07,15.27c.11,2.94.74,3.44,3.65,3.88A62.92,62.92,0,0,0,112.23,312.82ZM149.3,312c.11-2.49.27-5.16.34-7.84.2-6.66.8-13.33-.52-20-.58-2.89-.63-3.21-3.6-3.36a68.57,68.57,0,0,0-7.45,0c-4.06.23-8.11.66-12.17.95-1.72.13-2.37,1.05-2.34,2.67,0,.9-.06,1.81,0,2.71q.21,8.14.47,16.29c.09,2.81.23,5.61.36,8.74a32.61,32.61,0,0,0,4.26.53c6.42,0,12.83-.12,19.25-.21A5.81,5.81,0,0,0,149.3,312Zm-1.41-34.39c-.26-6.06-.5-11.89-.75-17.86-7.64-1.5-15-1.29-22.56-1.38-1.46,6-1.22,11.85-1.23,17.71a2.42,2.42,0,0,0,2.49,2.65,21,21,0,0,0,2.38.07q9-.39,18-.83A12.56,12.56,0,0,0,147.89,277.56Z" fill="#4c2d13"/><path d="M195.39,229.61a1.5,1.5,0,0,0-3,0,18.39,18.39,0,0,1-1.25,5.12c-.23-2.26-.06-6-.07-6.73a1.51,1.51,0,0,0-2.79-.75c-.3.39-1.46,2-2.84,3.86a1.87,1.87,0,0,0,0-.25,44.34,44.34,0,0,0-.56-5.05c.12-.28.23-.57.34-.86a1.21,1.21,0,0,0-.84-1.71c-1.07-4.66-3.12-9.22-6.84-7.15a5.83,5.83,0,0,0-1.6-.86,22.61,22.61,0,0,0-5-6.92,1.47,1.47,0,0,0-1.62-.26,39,39,0,0,0-6-5.44,1.52,1.52,0,0,0-1.67.08l-11.6-14.88c-.75-1-2.19-.31-2.49.69a129.21,129.21,0,0,0-9.44-10.84,1.51,1.51,0,0,0-2.36,1.82,96.15,96.15,0,0,1,5.54,10.59c-4.63-6-9-12.19-13.37-18.39a1.49,1.49,0,0,0-2.75.79c-.11-.35-.22-.7-.34-1.05a1.6,1.6,0,0,0-2.64-.57l0-.5a1.52,1.52,0,0,0-1.29-1.43,1.52,1.52,0,0,0-2.76-.51c-.14.22-.29.43-.44.65a1.56,1.56,0,0,0-2.57-.86c-.52.51-1.69,1.66-3.16,3.21a1.61,1.61,0,0,0-2.6,0q-7.55,9.9-15.51,19.45c-.78.7-1.55,1.41-2.29,2.15,0-.28-.09-.56-.15-.84a1.51,1.51,0,0,0-2.74-.36l-3.5,7.59a1.48,1.48,0,0,0-2,.53l-11,17L71,218.11c2.88-5.06,7.31-9.54,9.51-14.88v0h0l.16-.36c.64-1.66-1.85-2.5-2.74-1.15L70.44,213a1.52,1.52,0,0,0-2.79-.94q-1.74,2.7-3.46,5.4a1.56,1.56,0,0,0-2.47.18l-3.24,5.6a1.22,1.22,0,0,0-1,.23c-4.66,3.32-6.42,8.63-9.39,13.18a14.92,14.92,0,0,1,1.94-5.25,1.5,1.5,0,0,0-2.59-1.51A17.21,17.21,0,0,0,45,241.09a1.52,1.52,0,0,0,2.56,1.06,19.75,19.75,0,0,0,2.29-2.87,1.84,1.84,0,0,0,1.87.95c2.86,0,4.43-3.67,5.66-5.91a3.62,3.62,0,0,0,2.09,3.8,6.83,6.83,0,0,0,1.63.59,4.32,4.32,0,0,0,1,1.18,1.53,1.53,0,0,0,2.35-.31c.34-.45.65-.92,1-1.37A14.57,14.57,0,0,0,68.81,236a1.44,1.44,0,0,0,1.44,1.13,8.1,8.1,0,0,0,3-.95,1.52,1.52,0,0,0,1,1.18c3.39,1.22,6.06-2.06,8.15-5,0,.17-.07.34-.09.51a1.5,1.5,0,0,0,1.1,1.45,3.76,3.76,0,0,0,1.72.13,10.23,10.23,0,0,0-1.44,5.07,1.51,1.51,0,0,0,1.9,1.44c3.1-.9,4.73-3,6.31-5.76l.84-1.4c.3,1.34,1.32,2.33,3.45,2.65a5.42,5.42,0,0,0,3-.48v.09a1.51,1.51,0,0,0,1.1,1.45c2.54.73,4.44-.39,6.15-2a6.85,6.85,0,0,0,.55,5.22c1.44,2.46,4.62.3,5.67-1.21l.76-1.11a4.42,4.42,0,0,0,.52.64c1.62,1.62,3.52.94,5-.24a3,3,0,0,0,.91.81c3.44,2,5.73-1.81,7.76-4.14l1.56-1.78c-.18.5-.36,1-.52,1.51a1.55,1.55,0,0,0,.69,1.7,3.65,3.65,0,0,0,.8.46,4.51,4.51,0,0,0-.17.52,1.53,1.53,0,0,0,1.44,1.9,4.48,4.48,0,0,0,3.28-.92c0,.33-.08.66-.09,1a1.51,1.51,0,0,0,2.8.76c1.9-2.84,3.83-5.66,5.91-8.35a15.41,15.41,0,0,0-2.05,7.57,1.51,1.51,0,0,0,2.8.75c1-1.82,2-3.64,3.08-5.44-.28,1-.54,2-.76,3.05a1.51,1.51,0,0,0,2.51,1.46c5.6-4.9,8.79-11.93,13.59-17.46-3.22,5.64-7.07,10.91-7.68,17.68-.15,1.65,2,1.83,2.8.76,1.34-1.82,2.65-3.67,4-5.5a4.8,4.8,0,0,0,1.76,3.38c1.61,1.31,3.69.17,5.11-1.08-.22.59-.44,1.19-.65,1.79a1.51,1.51,0,0,0,.69,1.7c2.61,1.54,4.77,0,6.59-2.06,1.18-1.36,2.3-2.8,3.38-4.27-.37,1.14-.74,2.28-1.09,3.43a1.56,1.56,0,0,0,.69,1.7,3.33,3.33,0,0,0,4.47-.47,55.63,55.63,0,0,0,5.28-6.48c0,2.9.42,5.84,3,6.51a1.49,1.49,0,0,0,1.69-.69c.1-.17.18-.35.27-.53.81.52,2,.39,2.16-.8A39.75,39.75,0,0,0,195.39,229.61Zm-133.83,3.5c-.66-1-.27-2.07,1.2-3.13.63-.67,1.29-1.32,2-2A30.71,30.71,0,0,0,61.56,233.11Zm3,1.25A50.75,50.75,0,0,1,69,226.81a6.42,6.42,0,0,0,1.57-1.12Q67.6,230.07,64.53,234.36Zm90.92-33.15a1.31,1.31,0,0,0,0-1.47c-.25-.41-.52-.82-.78-1.23l3.82,4.91C157.46,202.64,156.44,201.9,155.45,201.21ZM150,197.8c-1-.79-2.06-1.56-3.11-2.3l-.15-.09q-1.2-3.3-2.63-6.5,2.31,2.86,4.44,5.86A15.61,15.61,0,0,0,150,197.8Zm-9.25-3.65a1.5,1.5,0,0,0-.52,2.4c.7.87,1.38,1.74,2.07,2.61-.81-.45-1.65-.86-2.5-1.26a22.19,22.19,0,0,0-1.84-3.84q-1.94-4.35-3.88-8.72Q137.31,189.8,140.72,194.15Zm-10.26,4.09a105.35,105.35,0,0,0-1.55-11.66,72.14,72.14,0,0,1,5.92,7.86l2.58,5.78a1.17,1.17,0,0,0,.82.71,39.62,39.62,0,0,1,7.66,14.93C141.09,209.62,137.11,202.74,130.46,198.24Zm-25,14.3a24.33,24.33,0,0,0-3.42,1.73q-1.55-3.22-3.25-6.35a27,27,0,0,1-.67-4.47c0-.15-.25-5.69,1.8-3.79,3.77,3.51,6.79,8.57,9.31,13.52a1.49,1.49,0,0,0-.67.32l-1.37,1.16C107.67,213.61,106.75,212,105.47,212.54Zm-15.84-5.48c0-.45-.09-1.23-.09-2.07q.27-.39.51-.78c.12,1.43.2,2.86.25,4.3a1.47,1.47,0,0,0-.42.32l-.11.12C89.72,208.26,89.67,207.62,89.63,207.06Zm33-28.91c0-.8-.07-1.6-.11-2.4a20.41,20.41,0,0,0,1.85,4.43,105.55,105.55,0,0,1,2.35,11.66A58.59,58.59,0,0,1,122.66,178.15ZM117.08,192l-.06,1.2a41.4,41.4,0,0,0-.2,4.14,6.74,6.74,0,0,0-1.76-.26C115.78,195.37,116.46,193.68,117.08,192Zm-6.77-4c-1.8,2.85-4.28,6.49-6.09,7.81q.63-1.5,1.35-3A23.25,23.25,0,0,0,110.31,188ZM95,201.51,94.7,201c-.37-.58-.77-1.28-1.22-2,1.42-2.15,2.86-4.27,4.45-6.26.24-.2.49-.41.72-.62a2.5,2.5,0,0,0,1.15,1.48,3.93,3.93,0,0,0,1.86.56c-.32.75-.62,1.5-.9,2.26a4.39,4.39,0,0,0-3.66-.52C95.32,196.42,95,199.11,95,201.51Zm8.72-11.62c-.54.41-1.09.81-1.66,1.17a36,36,0,0,1,1.39-3.5q2.63-2.64,5-5.47C106.8,184.64,105.17,187.23,103.74,189.89Zm-17.35,14,.06.92c-.37.5-.75,1-1.15,1.44C85.67,205.49,86,204.7,86.39,203.92Zm7,6h0q-.07-3-.31-5.93c1,1.61,2,3.24,2.91,4.91.09.34.19.69.3,1l-.5.63A1.38,1.38,0,0,0,93.34,209.91Zm17.86-18.25c1.18-1.58,2.29-3.21,3.34-4.87l-2.85,10.05a13.57,13.57,0,0,0-3.47-1C109.35,194.4,110.34,192.82,111.2,191.66Zm24.62,30A127.56,127.56,0,0,0,124,204c5.91,3.66,9.73,9.9,13.12,16.09-.28.33-.56.65-.83,1Zm-14.19-22.19c.43-3.38.74-6.77.91-10.16a121.89,121.89,0,0,0,5.3,12,1.41,1.41,0,0,0,1.74.64,32.39,32.39,0,0,1,4.49,7.56C130.81,205.16,126.87,201.49,121.63,199.45Zm4.05-25.55q2.2,4.93,4.4,9.87a38,38,0,0,1-2.69-4Q126.63,176.83,125.68,173.9ZM82.71,212a12.2,12.2,0,0,0,4-3.19c.06,1,.15,2,.29,3.07L75.39,224.3c-.36.38-.72.76-1.09,1.13C77.21,221,80,216.54,82.71,212Zm.25,9.61-5.19,5.86c-1.48,1.67-3.42,4.74-5.72,6.06a8.31,8.31,0,0,1,.33-.91C73,232,73.5,231.47,74,231c4.87-4.8,9.4-9.95,13.85-15.15,0,.06,0,.13.07.2Zm4.54,14.81A13.33,13.33,0,0,1,89.91,233,15.43,15.43,0,0,1,87.5,236.43ZM85.76,231c1-3.46,3.47-6.3,5.55-9.18.38-.54.77-1.07,1.15-1.6a1.5,1.5,0,0,0,.62-.86l4.47-6.2a27,27,0,0,0,1.68,3,35.46,35.46,0,0,0-3.36,3.07C94.44,220.77,89,229,85.76,231Zm9.1-6a46.75,46.75,0,0,1,6.17-6.4l.18.11c-.26.38-.51.77-.78,1.15a1.33,1.33,0,0,0-1.25.45c-1.35,1.37-2.61,2.79-3.8,4.26Zm6,5.91c-2.5,1.86-6.28,3.73-4.76-.32,2.11-.12,3.66-1.6,5.32-3.28a74,74,0,0,0,9.09-11.48c.35.71.68,1.42,1,2.11l-7.44,9C103,228.31,101.84,229.57,100.91,230.94Zm18.42,3.11-.12.17c-1.82.67-2.83.78-3,.33l9.27-13.36c1-1.4-1.27-3.13-2.35-1.82-2.12,2.56-8.71,9.17-10.13,14.53-1.07,1.4-3.79,4.58-2.75,1.17,1.84-6.06,7.62-10.5,10.25-16.26a1.5,1.5,0,0,0-2.6-1.51q-3.48,4.95-7.39,9.56c-1.4,1.65-5.08,6.87-8,7.71a7.44,7.44,0,0,1,.47-1.2c.67-.62,1.28-1.24,1.8-1.78a123.9,123.9,0,0,0,11.34-14.39c.87-1.23-.8-2.74-2-2.15a48,48,0,0,0-2.41-6.88,38.72,38.72,0,0,0-2.28-4.26c-.57-.91-1.18-1.8-1.82-2.66-1-1.11,0-1.66,3.1-1.68a12.76,12.76,0,0,1,3.2,2.11,19.34,19.34,0,0,0,3,5l10.33,13.14c.9,1.15,2.54.1,2.54-1.12.46.66.92,1.31,1.4,2a1.32,1.32,0,0,0-1.73.24C128.07,222.54,121.65,229,119.33,234.05Zm6.22-.65L123,236.32c-.12-.47-.24-.95-.37-1.42,3.2-4,6.13-8.2,9.2-12.21a1.15,1.15,0,0,0,.24-.95c.49.62,1,1.25,1.49,1.86a1.37,1.37,0,0,0,.32.28Q129.71,228.64,125.55,233.4Zm16.81-11.1c-2.93,3.31-6.52,6.06-9.17,9.49a37.75,37.75,0,0,1,5.4-8.76l.58-.66a1.54,1.54,0,0,0,1.58-1.89v0a1.58,1.58,0,0,0-.48-1.8,78.64,78.64,0,0,0-3.32-10c2.7,3.44,5.1,7.17,7.82,10.59C144.43,219.64,143.54,220.79,142.36,222.3Zm7.56-1.12a43.16,43.16,0,0,0-6-17.42,33.5,33.5,0,0,1,5.48,4.81q2.74,3.8,5.36,7.67a1.46,1.46,0,0,0,1.17.7l.65,1.05a1.57,1.57,0,0,0-.74.44c-.35.35-.67.72-1,1.09a1.34,1.34,0,0,0-2-.5C151.81,219.7,150.85,220.43,149.92,221.18Zm1.08,12a43.47,43.47,0,0,1,6.92-12.61,1.47,1.47,0,0,0,.21-.36c1.07.59,2.77-.25,2.23-1.63a87,87,0,0,0-6.55-13.27l.07.08c3.17,3.94,6.33,7.89,9.54,11.79C158.38,221.71,155.24,227.88,151,233.16ZM164.56,226c-1.45,2.06-2.93,4.11-4.41,6.16,1.84-3.86,4.4-7.46,6.42-11.25.25.26.5.52.76.77C166.4,223,165.43,224.48,164.56,226Zm3.75,6.71c-1.33,2.42-3.95,4.33-2.87-.49a23.47,23.47,0,0,1,2.4-5.68l.08-.12c.65-.93,1.29-1.86,1.94-2.78a3.73,3.73,0,0,0,3.52.36l.44.35C171.4,226.62,170,229.69,168.31,232.71Zm3.18,5.35a67.67,67.67,0,0,1,6.24-12.37,8.14,8.14,0,0,0,2.82,1C178,230.46,173.92,236.43,171.49,238.06Zm9.65-1.76c.42-1.3.86-2.6,1.32-3.89a2.36,2.36,0,0,0,1.92-.11c.09,0,.17-.09.26-.13A43.07,43.07,0,0,1,181.14,236.3Z" fill="#e25259"/><path d="M119,294.78a1.54,1.54,0,0,0-2.16-1,25.88,25.88,0,0,0,3-5.79,1.51,1.51,0,0,0-2.51-1.46c-.45.55-.92,1.08-1.38,1.63.72-.94,1.45-1.88,2.18-2.81a1.66,1.66,0,0,0-.62-2.51c.76-1.3,1.5-2.62,2.18-4s-1.16-3.14-2.35-1.81c-3.43,3.81-7.58,9.42-12.3,12.92q6.91-9,13.84-18c1-1.37-1.21-3-2.36-1.82l-1.89,2c.51-.86,1-1.73,1.5-2.61.8-1.45-1.19-3.14-2.35-1.82q-3.72,4.23-7.42,8.47c-1.33,1.51-4,5.67-6.54,7,5.26-8.05,13.77-13.59,17.69-22.6.63-1.44-1.14-3.21-2.35-1.82l-1.54,1.76c.36-.7.73-1.39,1.07-2.1.7-1.46-1.14-3.15-2.36-1.82l-5.21,5.72c.49-.82,1-1.65,1.42-2.51.68-1.27-.72-2.89-2-2.05-3.1,2-4.63,5.87-7.14,8.42a13.76,13.76,0,0,1,3.08-4.54,1.5,1.5,0,0,0-2.12-2.12,16,16,0,0,0-4.85,9.65,1.85,1.85,0,0,0,.81,1.78l-.7.65a1.52,1.52,0,0,0,1.06,2.57c3.13,0,5-1.54,7.15-3.74l.3-.32a78.47,78.47,0,0,1-8,9.13,1.5,1.5,0,0,0,1.09,2.54c-.5.77-1,1.56-1.41,2.38a1.53,1.53,0,0,0,.89,2.21A4.76,4.76,0,0,0,101,286c-1.52,1.86-3.06,3.69-4.61,5.52-1.23,1.46.78,3.55,2.12,2.13l0,0c-.68,1.08.64,2.38,1.75,2.09a19.84,19.84,0,0,0,7-3.72,75.49,75.49,0,0,1-7.73,7.76c-1.48,1.28.64,3.33,2.12,2.12.35-.28.68-.59,1-.88l-.42.59a1.51,1.51,0,0,0,1.3,2.25,6.29,6.29,0,0,0,3.32-1.21,27.5,27.5,0,0,0-2.6,4.92c-.44,1.15.89,2.15,1.92,1.81-.07,1.18,1.68,2.25,2.6,1.16l3.18-3.78a1.64,1.64,0,0,0,1.58,1.38c-.11.38-.23.75-.33,1.14a1.5,1.5,0,0,0,2.74,1.15q1.81-2.79,3.64-5.58a1.36,1.36,0,0,0-.64-2,14.24,14.24,0,0,0,.7-1.41,1.62,1.62,0,0,0-.53-2c.4-.89.79-1.8,1.15-2.73A1.47,1.47,0,0,0,119,294.78Zm-4.33,2c-.66,1-1.33,2-2,3.06-.61.75-1.27,1.47-1.94,2.16C112,300.23,113.4,298.53,114.71,296.79Z" fill="#4db3ce"/><path d="M145.68,269.56c.4-.68.71-1.26.9-1.65a1.63,1.63,0,0,0-1.53-2.3c.42-.84.8-1.62,1.11-2.31a1.5,1.5,0,0,0-2.59-1.52l-.69.92a1.43,1.43,0,0,0-2.41-.55c-.88,1.05-1.76,2.09-2.65,3.13.36-.45.71-.88,1-1.27,1.24-1.46-.84-3.59-2.12-2.12l-6.54,7.8a10.63,10.63,0,0,1-1,.76c.77-.89,1.56-1.76,1.73-2l4.5-5.79c1.16-1.49-.79-3.59-2.12-2.13l-4.71,5.21c-2.49,2.75,1.83-2.56,2.64-3.3,1.42-1.31-.71-3.43-2.13-2.12-2.31,2.14-6.84,6.51-3.58,9.58l.24.19c-.82,1-1.52,2.11-1,3.36a1.54,1.54,0,0,0,1.44,1.1l.37,0a7.46,7.46,0,0,0-.55,1.59,1.53,1.53,0,0,0,1,1.85,4.77,4.77,0,0,0,2.86.1,7.65,7.65,0,0,0,6.53-1.27,3.09,3.09,0,0,0,3.06-.18,1.43,1.43,0,0,0,1.13.18,6.11,6.11,0,0,0,1-.4c0,.06,0,.12,0,.19-.09,1.93,2.91,1.92,3,0a7.82,7.82,0,0,1,1.38-4.25c.18-.24.35-.48.51-.71A1.32,1.32,0,0,0,145.68,269.56Zm-13.42,2.31L130,274.5a18.5,18.5,0,0,1,1.66-2.13Z" fill="#4db3ce"/><path d="M147.46,296.33l.75-1c.91-1.23-.82-2.74-2-2.11l1.85-2.51c1-1.41-1.18-3-2.35-1.82l-3.3,3.33c1.3-1.73,2.57-3.43,3.85-5s-.86-3.61-2.12-2.12l-1.42,1.67a32.75,32.75,0,0,0,2.93-6.32c.58-1.73-1.8-2.44-2.74-1.16a139,139,0,0,1-11.76,14.42c-1.31.35-2,.4-2.16.16l10.36-12.57c1.22-1.48-.88-3.61-2.12-2.12l-5,6a1.64,1.64,0,0,0-2.66-.09,24.3,24.3,0,0,0-4.26,8.5,2.88,2.88,0,0,0,.85,4.45,3.68,3.68,0,0,0,3.54.15c-2.2,2.38-5,5.61-3.74,8.33l-1.68,2c-.76.89-.37,2.7,1.06,2.56,3.37-.33,5.64-2.75,7.86-5.15l-3.51,4.77c-.72,1,.06,1.91,1,2.13a1.52,1.52,0,0,0,2.54,1.17c1.54-1.27,3-2.6,4.49-4a1.23,1.23,0,0,0,1.88.38l.3-.24h0l0,0,1.08-.86a1.51,1.51,0,0,0,2.36,1.81,25.9,25.9,0,0,0,2.16-2.16c.75.83,2.29.86,2.51-.5l.58-3.77a6.8,6.8,0,0,1-1.55-3.7c.56-.78,1.12-1.57,1.66-2.36A1.5,1.5,0,0,0,147.46,296.33Z" fill="#4db3ce"/><path d="M182.72,270.57a28.09,28.09,0,0,0-6.84,3.19,1.6,1.6,0,0,0-1.15-.67l1.17-2.16a1.47,1.47,0,0,0-1.09-2.2,1.63,1.63,0,0,0-.38-1.65c.95-1,1.91-2,2.84-3a1.52,1.52,0,0,0-.3-2.36,4.22,4.22,0,0,0-3-.59c.9-1.16,1.79-2.33,2.68-3.49a1.23,1.23,0,0,0,0-1.49c.16-.24.33-.46.48-.71.76-1.2-.83-3-2-2.05-1.05.8-2.06,1.62-3,2.48A23.26,23.26,0,0,0,166.4,259l-3.65,2.47,10.4-11.1a1.51,1.51,0,0,0-1.46-2.51c-.82.15-1.63.33-2.43.53l.62-.66a1.51,1.51,0,0,0-1.46-2.51c-.58.18-1.16.38-1.73.58a1.36,1.36,0,0,0-2-.63A76.37,76.37,0,0,1,154,250.52l1-1.11a1.51,1.51,0,0,0-1.46-2.51c-1.32.29-2.61.63-3.87,1a1.32,1.32,0,0,0-1.85-.74c.85-1.06.07-3-1.44-2.41-1.35.55-2.67,1.14-4,1.74a1.39,1.39,0,0,0-1.74-.21c-1.25.81-2.51,1.59-3.78,2.37a1.5,1.5,0,0,0-1.84-1.84c-1.42.54-2.8,1.14-4.17,1.77a1.57,1.57,0,0,0-2.24-1.61l-6.32,2.75,2.49-2.82c.91-1,.06-3.08-1.46-2.51-1.83.7-3.66,1.42-5.49,2.14.74-1-.38-2.81-1.66-2.29a83.61,83.61,0,0,0-9.13,4.43c.33-.72.63-1.47.91-2.25a1.51,1.51,0,0,0-2.21-1.69l-11.18,7.15c.78-1.51,1-3,.15-4.29a1.51,1.51,0,0,0-2.05-.54L88,250.54c1-1.28,1.87-2.6,2.75-3.94a1.52,1.52,0,0,0-.54-2c-2.74-2-5.61-.38-8.19,1.15-.17.09-.32.2-.48.29a2.31,2.31,0,0,0-.24-.2h0a1.51,1.51,0,0,0-.54-2.05c-3.76-2-8,.81-11.51,4.13a1.57,1.57,0,0,0-1.9.51,28.4,28.4,0,0,0-2.72,4.47l-.46.53c-1.15,1.32-3.68,4.14-2.46,6.09a5.16,5.16,0,0,0,1.1,1.29,1.32,1.32,0,0,0,2.1.9c.24-.16.47-.33.7-.5a5.77,5.77,0,0,0,.6-.24,1.38,1.38,0,0,0,.67-.66h0c-.83,1.3-1.63,2.63-2.37,4-.57,1,.39,2.72,1.69,2.2.75-.3,1.47-.63,2.17-1-1.86,2.43-3.71,4.88-5.52,7.35-1.08,1.48,1.14,2.81,2.35,1.82q3.45-2.81,6.71-5.8c-2.27,3.08-4.55,6.16-6.86,9.21-1,1.39,1.19,3,2.36,1.82q2.27-2.28,4.51-4.58c-1.54,2.49-3,5-4.35,7.65-.76,1.47,1.14,3.11,2.35,1.82l11.71-12.52c-4.06,6.43-9.62,12-12.53,19.19v0h0c0,.12-.11.23-.16.35a1.23,1.23,0,0,0,0,1l-5.32,6.56c-1.19,1.47.75,3.54,2.12,2.12l11-11.28c.55-.57,3.22-3.66,5.7-6.29l-17,25.64c-1,1.45,1.16,3,2.36,1.81L78.3,301.24c-4,4.3-8.25,8.49-10.7,13.95A1.51,1.51,0,0,0,70,317l.87-.75-4,5a1.52,1.52,0,0,0,1.06,2.56c3.9.5,6.3-2.64,8.87-5.13l7.13-6.92c-1.51,2.05-3.32,4-4.14,5.2q-3.42,4.83-6.82,9.67a1.42,1.42,0,0,0,1.29,2.19c-2.83,2.89-6.51,6.12-6.49,10.22a1.52,1.52,0,0,0,2.56,1.06c3.39-2.73,6.64-5.6,9.8-8.56-2,2.4-4.14,4.77-6.29,7.08a1.5,1.5,0,0,0,2.12,2.12l18.4-14.62a160,160,0,0,1-11.64,12.66c-1.42,1.39.64,3.29,2.12,2.13,2.92-2.31,5.79-4.67,8.65-7.05l-6.54,7.27a1.5,1.5,0,0,0,1.81,2.35C98,339,106.15,332,114.06,325a167.68,167.68,0,0,1-13,14.88c-1.33,1.4.76,3.51,2.12,2.12,1.2-1.27,2.43-2.52,3.64-3.78a1.56,1.56,0,0,0,2.18.86,76.15,76.15,0,0,0,14.15-9.53q-5,5.31-10.43,10.17a1.51,1.51,0,0,0,.31,2.35c4.15,2.84,10.3-4.73,13-6.94l7.1-5.75q-5.58,5.88-11.48,11.44c-1.23,1.15.42,3.37,1.82,2.36L144.35,328l-10,11c-1.12,1.23.31,3.28,1.81,2.36a135.78,135.78,0,0,0,16.13-11.87l.24-.21-3.24,4.1a1.66,1.66,0,0,0-.34.93c-1.09,1.08-2.18,2.16-3.29,3.23-1.41,1.37.66,3.33,2.12,2.12l10.61-8.72c3.13-2.09,6.28-4.16,9.48-6.1-2.86,3.59-5.74,7.19-8.59,10.79a1.53,1.53,0,0,0,.66,2.51c2.71,1,4.78-.1,7-1.71l1.71-1.28c-1.78,2-3.59,4-5.45,5.94-1.34,1.4.78,3.52,2.12,2.13,1.59-1.65,3.14-3.31,4.63-5,3.44-3.83,6.74-7.76,9.9-11.83a1.49,1.49,0,0,0-1.32-2.49,5.93,5.93,0,0,0-.53-3.92,2.6,2.6,0,0,0-1.48-1.22l1.57-2c.83-1,.11-3.09-1.45-2.5a35.17,35.17,0,0,0-9.25,5.45c1.76-1.88,3.51-3.76,5.24-5.67.95-1,0-3-1.46-2.51-.41.14-.82.3-1.22.46l8.67-11c1-1.21-.31-3.44-1.81-2.35l-12.52,9.06c1.15-1.3,2.27-2.63,3.39-3.95a111.2,111.2,0,0,0,11.53-10c1.38-1.38-.69-3.41-2.12-2.13q-1.65,1.49-3.35,2.89A1.27,1.27,0,0,0,173,294c.57-1,1.1-2,1.58-3.06,1.5-1.8,3-3.58,4.63-5.31a1.5,1.5,0,0,0-2.12-2.12l-.07.06c.08-.36.16-.72.23-1.09a1.65,1.65,0,0,0-.57-1.59c3.67-3.84,6.83-7,7.53-7.76A1.51,1.51,0,0,0,182.72,270.57ZM175.62,323a22.91,22.91,0,0,1-1.49,4l-2.66,2.07c-1.83,1.43-5,4.8-7.9,5.91q4.92-6.21,9.86-12.39Zm-5.25-57.13a19.05,19.05,0,0,1,2.16-1.15c-1.83,1.91-3.69,3.8-5.59,5.64ZM84.09,247.72a7.56,7.56,0,0,1,3-1c-.6.88-1.22,1.76-1.86,2.61A1.57,1.57,0,0,0,84.09,247.72Zm0,9.42,6.11-4.49c-1.68,2.07-3.84,4.36-4.27,4.87a2.33,2.33,0,0,0-.17.26,1.36,1.36,0,0,0-1.83.18c-.66.75-1.34,1.49-2,2.23C82.64,259.18,83.35,258.16,84.08,257.14Zm-10.41-6-.91.79c1.25-1.57,2.49-3.14,3.74-4.7a1.63,1.63,0,0,0,.35-1,5.3,5.3,0,0,1,.74-.18A42.38,42.38,0,0,1,73.67,251.17Zm-3.84,10.1A60.64,60.64,0,0,1,75.36,254c1.26-1,2.53-2,3.84-2.92.54-.38,1.31-1,2.19-1.64q-3,3.54-6,7.16A33.47,33.47,0,0,1,69.83,261.27Zm67.34,68.23c3.53-3.81,7-7.7,10.3-11.7a1.5,1.5,0,0,0-2.12-2.12L131.61,326.8c-1.06.86-5.68,5.16-9.88,8.53a162.69,162.69,0,0,0,15.66-18.18c1.08-1.46-1.14-2.84-2.35-1.82-5.78,4.88-11.47,10.31-17.64,14.92q6.72-7.38,12.95-15.2c1.18-1.49-.67-3.48-2.12-2.13-1.89,1.76-3.76,3.55-5.62,5.33.47-.69.94-1.37,1.39-2.07,1-1.51-1.12-2.85-2.35-1.82-8.48,7.14-16.86,15.44-26.25,21.73l16.11-17.91a1.5,1.5,0,0,0-2.12-2.12q-5.39,4.74-10.81,9.45c1.89-2.39,3.72-4.82,5.48-7.32,1.07-1.5-1.13-2.79-2.35-1.81L86.38,328.56q5.15-6.42,9.79-13.23c1-1.43-1.19-3-2.35-1.82-5.57,5.78-11.16,11.53-17.06,16.95l4.56-5.09q5.18-5.81,10.36-11.59a1.5,1.5,0,0,0-2.12-2.13l-6.67,6,1.67-2.37c2.12-3,5.12-5.78,4.51-9.66a1.51,1.51,0,0,0-2.51-.66l-8,7.75c-1.35,1.31-3.49,3.95-5.75,5.88l16.31-20c1.2-1.47-.82-3.58-2.12-2.12q-4.68,5.25-9.76,10.08c4.8-5.35,10.21-10.25,13-17.11.59-1.47-1.51-2.43-2.51-1.46l-12.06,11.7Q82.31,289.55,89,279.47a1.51,1.51,0,0,0-.53-2.06,3.35,3.35,0,0,0-2.35-.29c2.34-2.73,4.39-5.66,4.78-8.74.17-1.37-1.72-1.88-2.56-1.06L87,268.63a26.9,26.9,0,0,0,1.47-3.91A1.51,1.51,0,0,0,86,263.26l-8.75,9.36c2.86-4.33,5.91-8.55,9-12.75a1.27,1.27,0,0,0,1.53,0l15-9.62a20.8,20.8,0,0,1-2,2.38c-1.16,1.18.38,3.33,1.82,2.35,1.81-1.23,3.66-2.36,5.55-3.44a1.74,1.74,0,0,0,2.32,1.25c2.7-1.14,5.42-2.24,8.14-3.31l-2.87,3.24a1.51,1.51,0,0,0,1.81,2.36l5.65-2.45-.66.69c-1.16,1.19.36,3.32,1.82,2.35a60.69,60.69,0,0,1,7.7-4.31,8.12,8.12,0,0,1-.71.73,1.51,1.51,0,0,0,1.82,2.36l1.05-.63a1.38,1.38,0,0,0,1.08-.16,89.24,89.24,0,0,1,11.72-5.9q-3,2.08-6,4.15c-1.57,1.09-.16,3.61,1.51,2.59a38,38,0,0,1,6.65-3.2c-.53.55-1.05,1.11-1.57,1.67a1.51,1.51,0,0,0,1.46,2.5l1.52-.5c-1,1.12.61,3.15,1.95,2.22l7.14-4.93c1-.54,1.93-1.06,2.92-1.53l-.34.29a34.88,34.88,0,0,0-8.89,6.41,1.51,1.51,0,0,0,1.82,2.36,63.2,63.2,0,0,0,8.72-6.23,29.26,29.26,0,0,1,3.56-1.47q-8,8.54-16,17.09c-1.12,1.21.36,3.35,1.82,2.36l9.77-6.61c.73-.49,1.5-1.07,2.3-1.68-.14.19-.29.37-.43.57-.75,1-1.77,2.53-2.77,4.2a73.2,73.2,0,0,0-5.8,5c-1.21,1.16.41,3.35,1.82,2.35l.84-.63a12.86,12.86,0,0,0-.33,1.48L156,279.71a1.17,1.17,0,0,0-.17,1.17,1.51,1.51,0,0,0,2.52,1.27c.48-.4,1-.82,1.42-1.23a3.44,3.44,0,0,0,.65.56l-1.74,1.93c-1.31,1.35-2.59,2.75-3.85,4.17s.78,3.53,2.12,2.12,2.84-3,4.23-4.58c1-1.06,2.12-2.09,3.23-3.05a16.22,16.22,0,0,0,2.28-.5l-6.51,12c-2.43,4.48-7.11,10.66-3.44,15.65a1.66,1.66,0,0,0,1.51.73q-2.9,3.21-5.84,6.34a1.56,1.56,0,0,0,0,2.07Zm32.62-22.12-6.95,8.8c-2.52,2-4.85,4.19-7.26,6.38-3.24,2.93-6.55,5.78-10,8.46l10.83-11.91a1.6,1.6,0,0,0,0-2.06Zm-3.62-10.6a18.62,18.62,0,0,0-5.8,6.66,1.65,1.65,0,0,0,.15,1.66c-.61.41-1.24.8-1.86,1.2-.79-2.52.74-5.31,2.13-7.65a.27.27,0,0,0,.07.08,1.53,1.53,0,0,0,2.12,0l4.39-3.56Zm6.77-10L167,291.62c.62-.79,1.22-1.59,1.79-2.41,1.33-1.46,2.79-3,4.26-4.59l.64-.29C173.48,285.17,173.22,286,172.94,286.8Z" fill="#eadb1f"/><path d="M359.55,228.48c6.89,4.51,10.47,15,9.94,22.86-.61,9.09-6.66,12.44-14.39,15.06-1.05.36-2.12.64-3.52,1.06.43,1.17.81,2.06,1.09,3,1.95,6.24,3.17,13.64-1.24,19.34s-11.84,7.82-18.88,6.7c-1.44-.23-2.88-.43-4.62-.68-.13,1.12-.26,2-.3,2.83-.23,4.17-.19,7.36-3.94,9.84a18.93,18.93,0,0,1-13.88,2.38c-1.19-.24-2.39-.39-4.08-.66,0,1.43-.05,2.52,0,3.61.63,11.95.71,23.94,1.38,35.86,0,.34.1.68.13,1,.07,1.21-.45,2-1.7,2.07-3.61.23-2.2-30.92-2.59-34.89-.18-1.8-.32-3.61-.52-5.41-.31-2.89-.55-3-3.43-3.78a135.09,135.09,0,0,1-13.93-4.27,32.77,32.77,0,0,1-11.9-8.89,15,15,0,0,1-3.94-10.9c.06-2.27.32-4.52.56-6.78.27-2.58.23-2.72-2.21-3.85-1.13-.52-2.27-1-3.45-1.43-16.46-5.74-32.47-26.86-14.21-41.2a15.81,15.81,0,0,0,1.72-2c-1-.8-1.88-1.51-2.78-2.13-1.49-1-3-2.11-4.53-3-4.21-2.4-5.87-6.42-7.08-10.76-.3-1.09-.5-2.21-.81-3.3a26.56,26.56,0,0,1,2.66-20.11c4.31-7.26,10.81-9.8,18.34-12.42-2.54-10.91-.56-20.32,8.43-27.24,8.59-6.6,18.18-8.1,28.7-4.4a38.73,38.73,0,0,1,3.63-4.48c11.47-10.7,32-7,42,4.07,8.4,9.22,7.81,19.38,6.19,30.78,2.25-.25,4-.5,5.79-.63,13.77-1,22.12,12.54,23,24.83.5,7-1.11,17.71-7.48,22C365.12,224.3,362.64,226.23,359.55,228.48Zm-95.68-51.27c-1.26,1.07-2.1,2.25-3.24,2.68-8.4,3.25-16.56,4.42-20.34,13.8-3,7.57-1.95,16,1.26,23.28,1.67,3.8,5.76,6.13,9.46,7.56,1.16.45,7.4,1.53,7.72,2.85.45,1.83-.86,2.58-2.52,3.48-12.3,6.67-14.65,19.46-5.54,30.19,4.37,5.15,14.93,12,22.06,10a1.53,1.53,0,0,1,1.6,2.42c-2.16,3.51-2,7.31-2,11.17-.28,12.94,15.73,19.95,26.48,21,.86.09,1.74,0,2.75,0a16,16,0,0,0,.36-2.53c-.09-4.3-.13-8.62-.38-12.92q-.92-15.45-2-30.89a6.47,6.47,0,0,0-1-3.13,38,38,0,0,0-9.95-10.11c-.47-.31-1.06-.61-1.28-1.07-1.46-3.05-4.4-4.46-6.9-6.38-1.12-.85-2.14-1.82-3.27-2.79,2.18-1.62,3.26-1.56,4.78.18a13.16,13.16,0,0,0,5.29,4.05c.29-2.41.54-4.41.75-6.41A9.43,9.43,0,0,1,288,231c.36-.8,1.19-1.86,1.9-1.93,1.41-.14,1.37,1.17,1.27,2.21-.21,2.15-.31,4.31-.7,6.42-.76,4.1.35,7.34,3.78,9.82a31.44,31.44,0,0,1,2.6,2.68,13.91,13.91,0,0,0,1.85,1.26c.19-.47.35-.68.34-.89-.22-11.33-.42-22.66-.73-34a52.33,52.33,0,0,0-.82-6.07c-.15-1.07-.15-2.13,1.18-2.43,3.86-.87,3.71,16.19,3.36,16.28a5,5,0,0,0,1.51-.44c3.42-2.61,6.81-5.26,10.21-7.91a4,4,0,0,0,1.6-3.91c-.37-2.69-.83-5.37-1.32-8-.35-1.89-.92-3.74-1.17-5.64-.08-.62.53-1.33.83-2a22,22,0,0,1,2.18,1.21c.21.15.18.63.25,1,.69,3.44,1.35,6.89,2.09,10.32a17.44,17.44,0,0,0,.85,2.39c4-.73,6-5.13,10.17-5.2.47,3.43.46,3.4-2,4.25a13.33,13.33,0,0,0-3.08,1.37c-3.25,2.18-6.54,4.32-9.61,6.74-3.64,2.86-7,6.08-10.62,9-1.55,1.24-1.82,2.59-1.73,4.44.32,6,.45,12,.65,18,.29,8.49.54,17,.87,25.46a31.1,31.1,0,0,0,.79,4.09c3.64-2.62,7.13-4.63,7.61-9.12.39-3.6.59-7.23.87-10.84a7.85,7.85,0,0,1,.19-2.35c.26-.63,1-1.06,1.52-1.58.49.51,1.29,1,1.4,1.55a12.48,12.48,0,0,1,0,3.34c-.19,2.48-.5,4.95-.63,7.44a8.91,8.91,0,0,0,.67,2.41,26.93,26.93,0,0,0,2.36-1.93c2.51-2.62,5-5.27,7.44-7.93,1.17-1.27,2.36-2.07,4-.72-.65,3.31-4.19,4.2-5.43,7,2.7,2.84,7.55,2,9.7,5.68-.9,1.36-1.85,1.76-3.24,1a43.92,43.92,0,0,0-4.91-2.32c-4.72-1.81-4.7-1.72-8.77,1.39A62.23,62.23,0,0,0,306,282.79a5.82,5.82,0,0,0-1.35,3.29c.08,6.23.4,12.45.58,18.68a2.79,2.79,0,0,0,2.26,2.95c3.61,1,7.84,1.8,11.37.16,4.67-2.17,5.9-5.83,4.8-10.5-.15-.65-.62-1.23-.77-1.88-.18-.81-.56-2-.18-2.42s1.63-.52,2.46-.43c9,1,25.23,3.08,25.72-10.78.22-6.14-1-11.47-5.85-15.6a25.4,25.4,0,0,1-2.12-2.42c2.1-.17,3.55-.71,4.67-.31,2.66.93,5.1.12,7.68-.16,5.35-.58,9.46-6.38,10.24-11.3,1-6.11-.59-11.42-3.82-16.48a11.14,11.14,0,0,0-5.26-4.62c-1.54-.62-3-1.38-4.95-2.26.94-.73,1.39-1.36,1.94-1.47,3.09-.58,5.63-2.28,8.32-3.75a16.24,16.24,0,0,0,7.76-8.7c3.5-9.43,3-18.88-2-27.55-3.58-6.12-9.22-9.63-16.8-8.53-1.34.19-2.64.64-4,.94-1.64.37-3.3.73-4.9-.72.28-1,.53-2,.84-2.93,2.85-8.84,2.66-19.65-3.21-27.36-7.67-10.09-25.2-14.66-36.12-7.77-2.51,1.58-4.67,3.46-4.95,6.88-.19,2.21-1.92,2.81-4,1.88a27.26,27.26,0,0,0-5.61-2.35c-7.28-1.44-14.12-.52-20.22,4.21-4.65,3.6-8.17,7.79-8.93,13.85C259.05,169.84,258.61,174.26,263.87,177.21Z" fill="#4c2d13"/><path d="M296.09,277.86c-2.21-3.11-6.39-10.69-11.06-10.41a7.53,7.53,0,0,0-6.61,4.54c-2.05,1.26-2.85,4.07-3,6.44a11,11,0,0,0,.08,1.9A12.82,12.82,0,0,0,276.8,288c2.28,4.27,6.15,6.92,9.84,9.9.23.18.47.38.7.6a14,14,0,0,0,1.49,1.33c1.78,1.57,3.83,3,6,2.21a1.53,1.53,0,0,0,1-1.63,5.25,5.25,0,0,0,2.49-2.95,9.32,9.32,0,0,0,1.73-4.57A21.36,21.36,0,0,0,296.09,277.86Zm.59,7.76a12.48,12.48,0,0,1,.41,2.85c-.29-.67-.61-1.34-1-2-.25-1.37-.58-3-1-4.54A17.5,17.5,0,0,1,296.68,285.62Zm-11.56,4.67-.11-.15a29.21,29.21,0,0,1-4.81-10,9.12,9.12,0,0,1-.23-1.64,4.87,4.87,0,0,1,1.09-.74c-.08,3.63,1.91,7.82,3.31,10.56.4.78.84,1.59,1.33,2.4l-.42-.31Zm1.21-9.23,5.31,9.38a7.06,7.06,0,0,1,1,3.61,3.53,3.53,0,0,1-1.48-1,34.2,34.2,0,0,1-6-10.15,17.13,17.13,0,0,1-1-5.31C285.23,278.41,285.9,280.31,286.33,281.06Zm1.07-9.26a4.94,4.94,0,0,0-2.91.22,8.92,8.92,0,0,0-2.28-.62C283.85,269.55,285.77,270.37,287.4,271.8Z" fill="#85bc51"/><path d="M286.1,259.78a1.53,1.53,0,0,0,.32-1.26c-.08-.46-.18-.92-.28-1.37l.19-.51c1.82-5.06-2.91-10.25-6.12-13.44C274,237.07,267,231.74,258,233.41c-7.65,1.44-13.91,5.2-11.78,13.87.89,3.67,4.18,6.68,6.76,9.19l.89.85a13,13,0,0,0,4.87,4.19,29.6,29.6,0,0,0,5.82,3.48,16.21,16.21,0,0,0,5.35,1.26,11.1,11.1,0,0,0,7.63,0,12.55,12.55,0,0,0,4.13-2.52,6.09,6.09,0,0,0,3.49,1.06,1.54,1.54,0,0,0,1.45-1.9C286.47,262,286.31,260.94,286.1,259.78Zm-22.09.66a38.57,38.57,0,0,1-4.43-1.88c-1.07-.85-2.1-1.76-3.1-2.72a9.07,9.07,0,0,1-1-1.71,10.45,10.45,0,0,0,2.28,1.95,50.79,50.79,0,0,0,6.37,3.28,10.78,10.78,0,0,0,4.53,2.8,5.42,5.42,0,0,0,2.87.19l.3.23a5.88,5.88,0,0,0,1,.63,18.85,18.85,0,0,1-2.71-.13C268.14,262.35,266.09,261.27,264,260.44Zm-8.94-17a6.28,6.28,0,0,1,2-2.06,36.45,36.45,0,0,0,3.51,12.91s-.06,0-.08,0c-3.58-1.67-5.46-5.55-5.57-9.31A7.32,7.32,0,0,1,255.07,243.43Zm18,6.8c.1-.11.2-.23.31-.34l.35.39a25.48,25.48,0,0,0,2.17,6.34,1.92,1.92,0,0,1-1.81.4A32.13,32.13,0,0,0,273.08,250.23Zm-4.24-3.16c0-.19.07-.33.1-.48.3.91.59,1.82.86,2.74,0,.16.07.31.11.47a9.44,9.44,0,0,0,.12,5.73C268.51,253.13,268.41,249.84,268.84,247.07Zm12.32,9.55a14.76,14.76,0,0,0-1.93-4.11c-.33-.56-.69-1.1-1.06-1.62-.35-.72-.72-1.41-1.07-2.07a4.18,4.18,0,0,1,2.89,2.3,31.06,31.06,0,0,1,1.76,4.16,5.34,5.34,0,0,1,.11,1.16Zm-11.57-16.05a3.61,3.61,0,0,0-.42.16,1.22,1.22,0,0,0-.94.2c-.24.17-.46.34-.68.51a34.44,34.44,0,0,0-3.83-1.83,19.76,19.76,0,0,1,5.41.66Zm-9.49.93a31.64,31.64,0,0,1,5.28,2.22c-2.68,3.88-1.65,8.71.93,12.83-.15-.09-.29-.18-.43-.25s-.34-.15-.5-.23C262.29,252.15,260.52,246.39,260.1,241.5Zm-9.79-1.94c1.34-1.59,3.78-2.26,6-2.74a11.16,11.16,0,0,0-2.16,1.8,8.31,8.31,0,0,0-1.77,2.93c-1.55,2.44-1.52,5.92-1,9C248.88,247.49,247.32,243.09,250.31,239.56Z" fill="#85bc51"/><path d="M366.65,192.14a9,9,0,0,0-1.88-4.26c-3.74-4.68-9.41-6.2-15.19-6.52a11.15,11.15,0,0,0-7.72,2.11,18.13,18.13,0,0,0-1.45-9,5.64,5.64,0,0,0-2.16-2.23,30,30,0,0,0,.48-4,25.58,25.58,0,0,0,.32-4.59c-.32-10.64-8.14-17.59-18.38-17.73-7.26-2.37-17.36-1.52-20.53,4.95a13.89,13.89,0,0,0-1.31,5.33,15.39,15.39,0,0,0-7.8-4.54c-6.17-1.58-14,.32-19.16,4.77-6.32,2.53-9.66,8.33-5.86,16.56.21.46.46.94.72,1.41a24.74,24.74,0,0,0,3.71,8.85,17.11,17.11,0,0,0-3.41.2c-8.88-.65-17.85,2.61-23.38,10-3.82,5.08-2.74,10.94.57,15.51a11.92,11.92,0,0,0,3.58,6.55,19.53,19.53,0,0,0,18.12,11.72,14.23,14.23,0,0,0,11.27-5.88,16.81,16.81,0,0,0,2.05-1,14,14,0,0,0,2.11-1.51,9.8,9.8,0,0,0,5.4-2.4c2.91-2.6,3.11-9.9,2.29-13.3-.05-.17-.1-.33-.16-.5a12.34,12.34,0,0,0,1.94.11,13.76,13.76,0,0,0,7.46-1.16,26,26,0,0,0,3.87-1,18.7,18.7,0,0,0,9.1-7.09,12.7,12.7,0,0,0,1.31,1c5.46,3.83,10.42,2.15,12.7-1.88,2.78,3.71,6.59,5.81,9.43,1.66l.37.19a14.46,14.46,0,0,0-2.85,8.14c-.11,4.27,2.24,11.46,6.18,15.65a11,11,0,0,0-4.66.57A8.19,8.19,0,0,0,327,218c-5.2,1.17-12.12,6.55-15.31,12.69a10.59,10.59,0,0,0-1.62,3.17,9.52,9.52,0,0,0,1.44,8.6,12.74,12.74,0,0,0,4.47,4.44,14.35,14.35,0,0,0,2.08,1.33,12.33,12.33,0,0,0,7.71,3.88c.53.06,1,.09,1.55.1a14.38,14.38,0,0,0,2.8.93c3.38,3,7.3,5.07,10.5,5.48l.7.52c3.77,2.65,8.4,3.85,12.58,1.56,2.33-1.27,3.58-4.05,4.2-6.9a4.39,4.39,0,0,0,1.23-4,2.12,2.12,0,0,0-.12-.45,16.44,16.44,0,0,0-.8-8.92,10.54,10.54,0,0,0-4.52-5.16A15.59,15.59,0,0,0,350,231a18.55,18.55,0,0,0-4.92-9.35,7.4,7.4,0,0,0,1.84-.25c5,2.51,10.4-.23,13.77-5.39C367.78,210.89,370,199.94,366.65,192.14Zm-34.48-33.31c0,.14.07.29.11.43-.16-.14-.34-.25-.5-.38a17,17,0,0,0-.67-2.75A17,17,0,0,1,332.17,158.83ZM332,163a8.08,8.08,0,0,1,.7.87,18.77,18.77,0,0,1-1.52,6.44c-.2,0-.4,0-.62,0A25.36,25.36,0,0,0,332,163Zm-1.65,13.94.42-.49c.48-.1.93-.17,1.34-.22a19.33,19.33,0,0,1-1.12,1.71,6.77,6.77,0,0,0-.74-.77Zm-26.45-26.48c1.71-2.2,5.29-2.62,8.7-2.47-.32.22-.63.45-.92.69-1.07.39-2.14.81-3.19,1.23a14.78,14.78,0,0,0-6.23,4.49A8.9,8.9,0,0,1,303.91,150.43Zm-5.26,12.37a10.47,10.47,0,0,0-3.17-1.89,9.56,9.56,0,0,0-.57-1.86A6.75,6.75,0,0,1,298.65,162.8Zm-3,13.45c-.14.56-.3,1.12-.49,1.67a11,11,0,0,1-3,2.07h-.1a19.52,19.52,0,0,0,2.32-5.26A3.75,3.75,0,0,0,295.68,176.25Zm-14.1-21.44a16.44,16.44,0,0,1,10.88.47c-.65-.09-1.29-.14-1.95-.17a15.64,15.64,0,0,0-9.3-.18Zm3.6,3.56a13.51,13.51,0,0,1,4.64,1.74,18.65,18.65,0,0,0-5.7,1.33c-3.81,1.53-6.6,3.72-8.11,6.31l-.22-.58C273.46,160.65,280.14,159,285.18,158.37ZM279.48,170c.15,2.92,2.33,7,5.29,9.84a12.55,12.55,0,0,1-3-2,17.77,17.77,0,0,1-4.1-6,6.57,6.57,0,0,1,1.85-4.06l.11-.11A11.36,11.36,0,0,0,279.48,170Zm4.19-4.37a12,12,0,0,0-1,5.39A5.74,5.74,0,0,1,283.67,165.65Zm-14.2,5.85a16.08,16.08,0,0,1,.16-4.83,6.37,6.37,0,0,1,.48-1,10.74,10.74,0,0,1,2.13-2.51,20.79,20.79,0,0,0,2.47,9.82,13.83,13.83,0,0,0,3.54,8,19,19,0,0,0,1.64,1.75c-2.89-.91-5.63-3.67-7.56-5.8A15.88,15.88,0,0,1,269.47,171.5Zm-15.6,17.28a20.93,20.93,0,0,1,4.35-1.68,20.41,20.41,0,0,0-2.37,1.94c-.3.12-.58.25-.85.38a8.72,8.72,0,0,0-4.14,1.21A25.21,25.21,0,0,1,253.87,188.78ZM265.4,208a10.82,10.82,0,0,1-.69-.86,6.5,6.5,0,0,1-.23-8,12.79,12.79,0,0,0-.39,2.92A15.74,15.74,0,0,0,265.4,208ZM261,199.77c-1.47,4.16.81,9.41,4.46,12.36l-.49-.23c-4.08-1.93-9.52-6.55-11.43-11.12a9.65,9.65,0,0,1,.54-3.26,28.55,28.55,0,0,1,9.48-2.2A13.58,13.58,0,0,0,261,199.77Zm-15.06,1.35a14,14,0,0,0-1.24,2.74c-1.71-4.65,1-9,4.68-12.05C247.09,194,246,197.53,245.91,201.12Zm4.45,3.32a7.37,7.37,0,0,1-.64-3.72c.16-.19.32-.36.49-.54a16.26,16.26,0,0,0,1.12,2.79c1.2,5.63,5.83,10,11.69,12a42.17,42.17,0,0,1-5.7-1s0,0-.05-.05A26.63,26.63,0,0,1,250.36,204.44Zm14.11,19.81a13.76,13.76,0,0,1-10.22-4.6l1.21.47c.49.18,1,.33,1.51.47a22.18,22.18,0,0,0,10.31,3.35A15.9,15.9,0,0,1,264.47,224.25Zm6-24.95a15.73,15.73,0,0,0-1.1,8.81,5,5,0,0,1-1.17-1.69c-1.05-2.49-1.61-5.41-.4-8l2.68.85Zm3.39,20.16a13.43,13.43,0,0,1-3.36.26,23.44,23.44,0,0,0,2.59-1.2l1.83.17C274.55,219,274.2,219.22,273.84,219.46ZM264.59,190l-.7-.08-.61,0a32.56,32.56,0,0,1,14.88.77c.14.18.27.38.4.57C274.41,189.67,269.05,189.64,264.59,190ZM281.27,200a12.54,12.54,0,0,0-.88-3.11c.17.08.34.15.51.24a24.24,24.24,0,0,1,.42,3Zm.05-11.66c-.5-.23-1-.44-1.55-.63a16.84,16.84,0,0,0-1.2-1.19,22.94,22.94,0,0,0,3.8,2A7.35,7.35,0,0,1,281.32,188.3Zm3.08,20a31.83,31.83,0,0,0,.86-7.17.6.6,0,0,0,.08.08,7.05,7.05,0,0,1,.45,1.1A24.33,24.33,0,0,1,284.4,208.29Zm1.11-38.4c.1-2.53,1.24-5.21,4.4-5.49a4.91,4.91,0,0,1,3,.59,27.84,27.84,0,0,1-.72,7.14,21.4,21.4,0,0,0-1.63-6.37,1.51,1.51,0,0,0-2.36-.3A13.85,13.85,0,0,0,285.51,169.89Zm3.37,13.77a11.8,11.8,0,0,0,2.59-.17,28,28,0,0,0-2.23,1.77,16,16,0,0,1-1.69-.66A11.16,11.16,0,0,0,288.88,183.66Zm-1-11a9.32,9.32,0,0,1,.94-2.89l0,.07C289.62,172.11,289.29,173.05,287.86,172.64Zm.08,21.79q-.19.24-.36.48a12,12,0,0,0-.63-1.42,7.83,7.83,0,0,1,.34-.79,13.36,13.36,0,0,1,2.63-3.3l0,0a11.91,11.91,0,0,0,2.55-.64c.28,0,.56,0,.84,0A74.58,74.58,0,0,0,287.94,194.43Zm8.24,4.29a2.55,2.55,0,0,1-1.31-.33c.6.07,1.2.12,1.79.13Zm5.64-3.84a15.38,15.38,0,0,1-5.34.66c.63-.74,1.3-1.46,2-2.16a22.35,22.35,0,0,0,4.44.36Q302.38,194.33,301.82,194.88Zm.66-34.08a9.64,9.64,0,0,1,2.65-5.06,16.71,16.71,0,0,0-1.18,6.5,17.22,17.22,0,0,0,.65,4.44,23.53,23.53,0,0,1-1.27-2.85A20.12,20.12,0,0,1,302.48,160.8Zm3.24,16.87c-.42,0-.86.09-1.3.16.09-.43.17-.87.23-1.3C305,176.92,305.35,177.3,305.72,177.67Zm1.51,10.39c-.55.86-1.12,1.69-1.72,2.51-.51.08-1,.13-1.54.17a7.64,7.64,0,0,0,1.52-1.18,1.32,1.32,0,0,0,.43-1.14c.5-.29,1-.56,1.52-.82Zm.59-21.73c0-.32,0-.65,0-1a30.48,30.48,0,0,0,.92,3.33A22.8,22.8,0,0,1,307.82,166.33Zm7.65,26.46a4.28,4.28,0,0,1-2.23-1.82,21.5,21.5,0,0,0,5-3.95,16.64,16.64,0,0,0,4.91,3.66C321.93,193.16,318.93,194.31,315.47,192.79ZM315,186c.08-.23.15-.45.22-.68a1.29,1.29,0,0,0,.05-.48h0l.66.26Q315.5,185.59,315,186Zm10.13-13.08c-1.56,5.54-7.65,2.08-9.19-1.79a7,7,0,0,0,4.47,2.48,6.24,6.24,0,0,0,4.84-1.17C325.23,172.62,325.2,172.78,325.15,172.94ZM321.34,168a4.73,4.73,0,0,0,1.2,1.85,3.86,3.86,0,0,1-5.23-2.63l0-3.67a5.72,5.72,0,0,1,.14-.78,10.86,10.86,0,0,0,.72,2.42A5,5,0,0,0,321.34,168Zm-1.08-7.32.22-.1a7.46,7.46,0,0,1,1.26.14,8,8,0,0,0-.77,2.93l-.17,0A6.66,6.66,0,0,1,320.26,160.71Zm.21-5.8c-.15.05-.29.08-.44.14a10,10,0,0,0-5.33,6.5,11.05,11.05,0,0,0-2,5.65,16.42,16.42,0,0,0,.06,2.88,34.84,34.84,0,0,1-2.57-11.46,15.11,15.11,0,0,1,14.11-7,3.33,3.33,0,0,1,1.2,2.49A4.85,4.85,0,0,0,320.47,154.91Zm6.11,32.46a12.77,12.77,0,0,0-.16-2c.32-.12.64-.24.95-.38q.45.94,1,1.86A5.82,5.82,0,0,1,326.58,187.37Zm1.75,3.83A7.37,7.37,0,0,0,330.4,190a25.57,25.57,0,0,0,1.83,2.19C331.06,193.25,329.62,192.54,328.33,191.2Zm5.65-3a14.21,14.21,0,0,1-1.45-1.34,9,9,0,0,0,.42-4.55c0-.08,0-.15,0-.23l.15-.12a18.48,18.48,0,0,0,1.5,4C334.38,186.75,334.19,187.5,334,188.24ZM317.61,235A12.28,12.28,0,0,1,324,226.6c-4,5.47-5.55,12.49-2.87,19.05-.46-.12-.91-.26-1.36-.42A13.74,13.74,0,0,1,317.61,235Zm16.91-9.43a10.91,10.91,0,0,1,.63,2.69c-5.46,1-10.52,3.84-12.16,8.59a8.57,8.57,0,0,0-.42,2.06c0-.12,0-.24,0-.36-.14-5.1,3.11-10.39,7.35-13.91l.71-.08A12.32,12.32,0,0,1,334.52,225.54Zm-.8,11.62c-.09.25-.18.5-.28.74a8,8,0,0,0-2.31,4.76,11.06,11.06,0,0,1-1.44,1.79C329.28,241.56,331.17,239,333.72,237.16Zm11.6,9.14a13.07,13.07,0,0,0,.66,1.91,5.9,5.9,0,0,1-1.67-.28A17.82,17.82,0,0,0,345.32,246.3Zm-3.18-.37c-.12.2-.25.38-.38.57l-.27-.23a5.53,5.53,0,0,1,2.16-3.88l.09-.06A18.9,18.9,0,0,1,342.14,245.93Zm.77,4.54a10.68,10.68,0,0,0,2.56.53c-.08.21-.17.4-.26.6A4.25,4.25,0,0,1,342.91,250.47Zm-8.05-17.31c-4.49,1.84-7.85,5.76-8.1,10.1a10.65,10.65,0,0,1-.87-5.64c.56-4.06,5.43-5.38,9.21-6C335,232.15,335,232.65,334.86,233.16Zm9.42-.87s0,0,0,.05a18.25,18.25,0,0,0-2.1-.26V232c0-.24-.05-.48-.08-.72.38,0,.74.09,1.11.15A11.9,11.9,0,0,1,344.28,232.29Zm-28.11-2.37c.23-.23.48-.45.73-.67a13.48,13.48,0,0,0-1.22,2.24,17.28,17.28,0,0,0-.86,10.36,10,10,0,0,1-1.7-3.26C312.79,235.82,314.16,232.73,316.17,229.92Zm24.4-3.2h0a11.18,11.18,0,0,0-.87-1.15,8.35,8.35,0,0,1,1.53.94C341,226.58,340.79,226.64,340.57,226.72ZM329.77,221c-.25.18-.52.35-.77.54l-.79.16a22.08,22.08,0,0,0-4.4.71l.1-.07A7.22,7.22,0,0,1,329.77,221Zm15.4,5.66-.18-.1a12.55,12.55,0,0,0-4.64-3.87,15.4,15.4,0,0,0-4.4-1.35l-.09-.13.19-.07C340.13,219.78,343.32,223.49,345.17,226.63Zm.51-41.82c2.92-1.07,6.6-.54,9.77.46a28.3,28.3,0,0,0-13.57,3.38c-.19,0-.37,0-.56.06A8.18,8.18,0,0,1,345.68,184.81Zm-3.31,32.5.07,0a13.1,13.1,0,0,0,1,1.19,8.47,8.47,0,0,1-4.34-4A17.82,17.82,0,0,0,342.37,217.31ZM338.42,181c0-.43.06-.85.08-1.27.05.52.12,1,.15,1.57a25.82,25.82,0,0,1-.24,5.41,1.61,1.61,0,0,0-.15-.33A27.46,27.46,0,0,0,338.42,181Zm-.89,8.89c.16-.55.31-1.14.44-1.76a1.73,1.73,0,0,0,.31-.35A3.23,3.23,0,0,1,337.53,189.93Zm7.47,5.89c-1.63,2.49-2.49,7.66-1.88,11.94a16.77,16.77,0,0,1-2.76-9.32,7.34,7.34,0,0,1,3.07-6.19q.82-.48,1.68-.87a9.85,9.85,0,0,1,7.45.43,9,9,0,0,1,3.33,2.57,7.2,7.2,0,0,0-1.05-.72C351.38,191.81,347.31,192.31,345,195.82Zm5.51,23.85c.52-.34,1-.71,1.53-1.1a4.64,4.64,0,0,0,.65-.11,10.93,10.93,0,0,0,2.06,0A5.32,5.32,0,0,1,350.51,219.67Zm5.54-12c0,.33-.06.69-.11,1.06a25.42,25.42,0,0,1-4.16,5.92,4.86,4.86,0,0,1-.77,0c.22-.11.45-.24.69-.38a5.51,5.51,0,0,0,1.93-2.35c1.74-2.43,2.1-6.34,1.27-9.39,0-.37,0-.73-.06-1.05-.16-2-1.82-6.06-4.26-4.7a1.4,1.4,0,0,0-1.59.69c-.19.41-.36.82-.53,1.24a7.07,7.07,0,0,0-1,.6,5.61,5.61,0,0,0-1.56,1.74,10.85,10.85,0,0,1,2.38-4.41c5-5.55,7.81,3.74,8,5.71A25.42,25.42,0,0,1,356.05,207.67Zm4.87-2.58c.07-.38.14-.77.19-1.15a15,15,0,0,0,.12-2.11,26.83,26.83,0,0,0,.31-5.84,13.89,13.89,0,0,1,.76,5.22C361.91,202.43,361.45,203.76,360.92,205.09Zm1.83-12.64a3.12,3.12,0,0,0,.19-.59,9.23,9.23,0,0,1,.54.84,9.8,9.8,0,0,1,.15,1.54A12.92,12.92,0,0,0,362.75,192.45Z" fill="#85bc51"/><path d="M348.7,274.85a7.58,7.58,0,0,0-2.32-1.78,8,8,0,0,0-1-2.55c-1.68-2.8-6.26-2.84-8.78-1.43a21.09,21.09,0,0,0-6.6,5.74l-.3.19c-3.28-2.49-6.86.74-8.63,3.75a8.4,8.4,0,0,1-2.35-2.95,1.51,1.51,0,0,0-2.79.75c0,.73,0,1.45,0,2.17a13.19,13.19,0,0,0-3.83,3.1,15.41,15.41,0,0,0-2.7,3.67,10.54,10.54,0,0,0-1.38,1.77,16.7,16.7,0,0,0-1.39,13.83c.77,2.18,3.48,4.1,5.82,3.57,2.07,1.55,3.78-.32,4.45-2.78.14,0,.27.05.41.06,4.53.42,4.13-6.35,4.4-9.5,0-.36.05-.73.06-1.11a9.24,9.24,0,0,0,6.93-2.32,12.77,12.77,0,0,0,1.79.84c3.72,5.09,11,3.26,14.69-1.18a8.81,8.81,0,0,0,2.25-2.52C349,283.43,351.19,277.7,348.7,274.85Zm-9.79-3.46a3,3,0,0,1,3.38.7,22.43,22.43,0,0,0-4.93.36l-.68.13A11.64,11.64,0,0,1,338.91,271.39Zm-3.62,4.74a19.6,19.6,0,0,1,6.79-1.09,7,7,0,0,1,1.55.19,7.85,7.85,0,0,1-.2,1.41c-3.39-1.08-8.26,0-11.8,1.68l0-.12c.13-.23.26-.47.4-.69A33.26,33.26,0,0,1,335.29,276.13ZM313.5,291c.09.39.16.77.24,1.16-1.5.24-1.63-.31-.37-1.63C313.41,290.67,313.46,290.82,313.5,291Zm2.28-8v.19a13.26,13.26,0,0,0-1.59,1.26l-.2-.18.22-.25C314.93,283.13,315.43,282.86,315.78,282.94Zm2.91,9.52a37.07,37.07,0,0,1-.62,4.8c-.21,1.19-.39,1.61-.72,1.62.06-.83.08-1.7.07-2.6.15-.93.28-1.85.43-2.75,0-.09,0-.18,0-.28a24.72,24.72,0,0,0,.89-2.47A4,4,0,0,1,318.69,292.46Zm16.67-10.4.51-.59c1.08-1.4,2.42-1.59,4-.62a14.91,14.91,0,0,1-1.59,1.84A8.86,8.86,0,0,1,335.36,282.06Zm8.67,2.69a6.26,6.26,0,0,1-.66,1.56A8.46,8.46,0,0,1,339,288a7.83,7.83,0,0,0,2.15-2.36,6.56,6.56,0,0,0,3.14-2.66A8.66,8.66,0,0,1,344,284.75Z" fill="#85bc51"/><path d="M216,112.21c-.41-.42-.88-.8-1.25-1.26-1.71-2.13-3.32-4.34-5.09-6.41-1.44-1.69-3-3.24-4.57-4.84a1.39,1.39,0,0,0-2-.17c-1.39.88-2.83,1.7-4.27,2.49a1.2,1.2,0,0,0-.65,1.67c.63,1.89,1.18,3.8,1.75,5.71.38,1.29.34,1.34-1.34,1.94a12.37,12.37,0,0,1-.36-1.39,17.47,17.47,0,0,0-1.88-6,4.73,4.73,0,0,0-.41-.49c-.5.12-1.06.2-1.58.37a19.37,19.37,0,0,1-6.71,1c-1.69-.06-1.8,0-2,1.78a180,180,0,0,0-1.87,18.83,4.28,4.28,0,0,1-.39,1.62c-.09.21-.57.34-.86.32s-.37-.4-.42-.65a3.81,3.81,0,0,1,0-1c.14-1.53.28-3.06.45-4.59.46-4.18.95-8.36,1.4-12.54.13-1.23.15-2.47.22-3.67-1.81-.46-3.44-.89-5.08-1.28-1-.25-1.47.48-1.79,1.22-.7,1.68-1.32,3.39-2,5.08-.26.66-.41,1.44-1.38,1.55-.58-.65-.29-1.25,0-1.89.64-1.52,1.27-3.05,1.84-4.59a13.81,13.81,0,0,0,.45-1.91c-2.83-1.28-5.65-2.46-7.08-5.6a22.78,22.78,0,0,0-2.19,1.36c-1.72,1.39-3.47,2.77-5.08,4.28-2.15,2-4.18,4.17-6.26,6.26-.64.64-1.23,1.43-2.38.62a2.41,2.41,0,0,1,1.23-1.57,22.14,22.14,0,0,0,3.25-3c.77-.75,1.48-1.56,2.28-2.28,2.42-2.16,4.86-4.29,7.3-6.43A1.76,1.76,0,0,0,168,94.9c-.57-2.07-1.13-4.15-1.71-6.28-1.87-.23-3.63.69-5.47.8s-3.34,1.32-5.5,1l.88-1.51a31.26,31.26,0,0,0,7.14-1.22c.92-.27,2.1-.42,2.63-1.07s.31-1.8.48-2.72c.22-1.11.46-2.23.77-3.32a1.22,1.22,0,0,0-.72-1.64c-2.26-1.2-4.47-2.49-6.73-3.68a26.27,26.27,0,0,0-9.15-3.07c-.65-.08-1.19-.3-1-1A.92.92,0,0,1,151,70.5c3,1.16,6.08,2.25,9.06,3.52,2,.87,3.93,2,5.91,3a9,9,0,0,0,1.79.47l4.15-7.68c-1.8-2.27-4.07-4.08-5.69-6.5,1.45-.59,1.51-.44,2.29.51,1.17,1.44,2.52,2.74,3.83,4.06a1,1,0,0,0,1.4,0,8.37,8.37,0,0,0,1.42-1.22,12.47,12.47,0,0,1,3.93-3c1.51-.86,1.56-1.08,1.2-2.72A38.67,38.67,0,0,0,176.82,52c-.78-1.57-1.34-3.26-2-4.89-.35-.89-.68-1.79-1-2.69,1-.76,1.22-.72,1.6.35.64,1.82,1.24,3.66,1.92,5.47.43,1.11,1,2.15,1.48,3.25.77,1.9,1.47,3.82,2.2,5.73.25.63.52,1.26.79,1.89a1.29,1.29,0,0,0,1.48.86c1.87-.17,3.75-.25,5.61-.46,1.37-.15,1.51-.28,1.74-1.67.52-3.08,1-6.17,1.45-9.26a19.89,19.89,0,0,1,.39-2.18,1.15,1.15,0,0,1,1.52-.88c-.63,4.51-1.26,9-1.9,13.54,4.16.82,8.3,1,12,2.82,1.51-1.44,2.91-2.82,4.38-4.15s2.12-3.09,4-4.21a3.48,3.48,0,0,1-1.3,3.18c-1.64,1.73-3.28,3.45-4.88,5.21-.77.85-.69,1,0,1.87,1.26,1.61,2.56,3.2,3.66,4.91a35.16,35.16,0,0,1,1.94,4.06c.74-.21,1.55-.4,2.32-.67,4-1.45,8-2.93,12-4.4a2.39,2.39,0,0,1,.64-.21,1,1,0,0,1,1.09.84c.07.57-.29.84-.8.9-4.77.57-9,2.78-13.35,4.5-1.57.61-1.78,1-1.63,2.74a22.74,22.74,0,0,1-.76,6.92c-.33,1.5-.17,1.71,1.37,1.74,1.7,0,3.41,0,5.11,0a4.2,4.2,0,0,1,1.33.19.9.9,0,0,1,.53,1.26c-.21.62-.66.71-1.23.48-2.37-1-4.82-.44-7.25-.41-.69,0-1,.53-1.2,1.06a30.65,30.65,0,0,1-1.26,2.8c-.76,1.32-1.62,2.6-2.49,3.86-.76,1.09-.86,1.13,0,2.17,2.78,3.21,5.64,6.37,8.44,9.57a14.41,14.41,0,0,1,1.59,2.19A1.28,1.28,0,0,1,216,112.21Zm-28.9-8.73c11.44-.15,21.88-8.09,23.47-19.74,1.15-8.46-2.53-16.65-10.59-20-5.26-2.23-10.86-1.3-16.26-.23-6.19,1.23-11.09,6.69-13.57,12.27a24.88,24.88,0,0,0-.46,18.91c2.16,5.69,9.19,8.21,15,8.75C185.46,103.46,186.28,103.49,187.11,103.48Z" fill="#4c2d13"/><path d="M200.28,86.64c.82.82-3.47,5.34-4.14,5.84a13.16,13.16,0,0,1-7.06,2.65c-5.22.34-9.39-2.45-12.3-6.5-.31-.42-.3-.95.22-1.14a2,2,0,0,1,1.2.13c.17,0,.28.34.4.53a12.12,12.12,0,0,0,11.54,5.43c4.27-.59,6.29-3.3,8.74-6.43a7.29,7.29,0,0,1,1-.9Z" fill="#4c2d13"/><path d="M191.16,77c.08-2,.74-4,2.4-4.92,1-.55,1.53-.44,2.08.58a7.36,7.36,0,0,1,.06,6.06c-.47,1.23-1.9,4.47-3.58,2.68a3.2,3.2,0,0,1-.7-1.5A10.69,10.69,0,0,1,191.16,77Z" fill="#4c2d13"/><path d="M181.41,77.61a8.29,8.29,0,0,1,1.5-4.94c2-2.77,3.48.74,3.52,2.56,0,1.6-.6,5.42-2.13,6.32-1.89,1.09-2.61-1.42-2.8-2.81A7.17,7.17,0,0,1,181.41,77.61Z" fill="#4c2d13"/><path d="M208.38,75.57a.63.63,0,0,0-.88-.31c-.1-.16-.2-.32-.31-.48a29.54,29.54,0,0,0-1.3-4.9.76.76,0,0,0-1.45,0c0,.1-.07.21-.11.32l-.15-.29A3.88,3.88,0,0,0,202.61,66a8.49,8.49,0,0,0-4.83-1.22l-1.21,0a9.92,9.92,0,0,0-8.46-.34,4.43,4.43,0,0,0-.51.06,6.37,6.37,0,0,0-4-.79.75.75,0,0,0-1.08.2h0a4.08,4.08,0,0,0-2.33,1.7.71.71,0,0,0-.65-.13c-4.22,1.41-6.81,6.54-9.33,9.88a.76.76,0,0,0,.12.91l.22.25a3,3,0,0,0,.19,2l-.18.51a14.36,14.36,0,0,0,0,12.19c-.14,2.8.66,5.62,2.92,7.23a1.76,1.76,0,0,0,1.8.08,14.71,14.71,0,0,1,1.61.74c-.61.34-.42,1.5.37,1.4a13.8,13.8,0,0,1,1.68-.12,16.66,16.66,0,0,1,2.37,2.1.75.75,0,0,0,1.28-.53,4,4,0,0,0-.25-1c.3.26.59.52.87.79a.78.78,0,0,0,1.13-.09c.18.12.36.24.53.37a.91.91,0,0,0,1,.12l.18,0c3.39-1.18,6.71,1.19,10.18-.57a10.41,10.41,0,0,0,3.2-2.45.79.79,0,0,0,1.39.18,30.47,30.47,0,0,0,2-3l.22,0c2,.13,3.1-3.15,3.65-4.5a22,22,0,0,0,1.47-5.88.75.75,0,0,0,.86-.52A14,14,0,0,0,208.38,75.57Zm-36.51,7c-.16.46-.32.92-.47,1.38a.7.7,0,0,0,0,.38l-.3,1a1,1,0,0,1,0-.23,14,14,0,0,1,.32-3.59.72.72,0,0,0,.64-.36l.25-.36C172.15,81.38,172,82,171.87,82.54Zm.74,9.25a5.21,5.21,0,0,1,0-1.18q.47,1,.84,2v.4A13.65,13.65,0,0,1,172.61,91.79Zm20.29-25.2a.87.87,0,0,1,.11.09,22.8,22.8,0,0,1-2.72.21.81.81,0,0,0-.29-.19v0a.68.68,0,0,0-.68-.73A11.31,11.31,0,0,1,192.9,66.59Zm-4.49-.65h.86a.77.77,0,0,0-.77.73c0,.06,0,.12,0,.18-.45,0-.91-.08-1.37-.14A8.55,8.55,0,0,1,188.41,65.94Zm-2.47,2.72a.75.75,0,0,0,.85-.48l.73.08a16.75,16.75,0,0,0-1.61.63Zm-1.59-.29v.79C183.93,69.08,184,68.76,184.35,68.37Zm-7,9.6a1.21,1.21,0,0,0,0-.19c.19-.7.36-1.41.49-2.14a.72.72,0,0,0,.53-.69,16.28,16.28,0,0,1,.55-3.79.76.76,0,0,0,1.47-.22,7.47,7.47,0,0,1,.47-2.18,9.62,9.62,0,0,0,.06,1.41.76.76,0,0,0,1.51,0,2.44,2.44,0,0,1,0-.27v0c0,.09,0,.18,0,.27a.75.75,0,0,0,1.23.55,3.52,3.52,0,0,0,1.13,0,.68.68,0,0,0,.51,0q1.19-.31,2.37-.57l.28,0a14.21,14.21,0,0,0-.32,4,.75.75,0,0,0,.2.46c-.06.6-.12,1.2-.17,1.8a1.15,1.15,0,0,0,0,.19c0,.12,0,.24,0,.36a.71.71,0,0,0-.94.5,9.58,9.58,0,0,0,.23,4.18.71.71,0,0,0-.63.2,1.76,1.76,0,0,0-.47,2.12.8.8,0,0,0-.32.1.69.69,0,0,0-1.17-.2c-.2.25-.38.5-.56.76a.77.77,0,0,0-1.21-.2l0-.74c.07-.91-1.18-.93-1.47-.2l-.12.3a2,2,0,0,0-.29-.5.78.78,0,0,0-1.14-.19c0-.39,0-.79,0-1.18a.75.75,0,0,0-1.28-.53l-.37.34c0-.65.07-1.3.12-1.94a.75.75,0,0,0-1-.71C177.16,78.74,177.25,78.36,177.32,78Zm17.05,22.82a8.86,8.86,0,0,1-4.16,0c1.47,0,2.94,0,4.41-.1ZM194,99.35c.65-.15,1.31-.27,2-.38A7.18,7.18,0,0,1,194,99.35Zm4.67-1.6a.74.74,0,0,0-.51-.54.81.81,0,0,0,.57-.19l.68-.64.07,0A7.5,7.5,0,0,1,198.71,97.75Zm1.91-8.32c-1.26,1.38-2.57,2.72-3.91,4a45.79,45.79,0,0,1-6.22,4.62,16.88,16.88,0,0,0-3.1,0L185.52,98a6.3,6.3,0,0,0-3.19-1.55c-.24-.15-.49-.29-.74-.43a8.14,8.14,0,0,0-4.05-1.48h0a9.26,9.26,0,0,0-2.35-5.26.66.66,0,0,0-.6-.22,17.41,17.41,0,0,0-.68-2.31,9.54,9.54,0,0,0,.3-1.68.73.73,0,0,0,.19-.2c.14-.24.27-.48.4-.72.52-.73,1.07-1.44,1.64-2.14q-.06,1.11-.09,2.22c0,.72,1.08,1.08,1.4.38a7.19,7.19,0,0,1,.37-.67v1.55a.76.76,0,0,0,1.41.38c.15-.26.31-.5.47-.75a.9.9,0,0,0,.51.07c-.11.28-.23.56-.34.85a.67.67,0,0,0-.54.7v.76a.76.76,0,0,0,1.48.2l.13-.32a.85.85,0,0,0,.38.12,2,2,0,0,1,.6.14.58.58,0,0,0-.27.45l0,.3a.79.79,0,0,0,.34.85l.25.17a.76.76,0,0,0,1.11-.45c0-.06,0-.13,0-.19a.84.84,0,0,0,.59.22c.17.13.32.26.47.39a.81.81,0,0,0,.37.31l.36.27a.5.5,0,0,0,.24.09,2.08,2.08,0,0,0,1.88.64.76.76,0,0,0,1.42-.07l.09-.35h0L190.22,89a.79.79,0,0,0,1.29.35c.62-.81,1.26-1.6,1.91-2.39-.11.3-.23.61-.36.92-.34.8,1,1.31,1.37.58l3.27-5.9c.47-.85-.83-1.61-1.3-.76l-1,1.83a.77.77,0,0,0-1.11-.05L193,85.16a.79.79,0,0,0-1.16-.1l-1.83,2c.23-.75.48-1.5.76-2.24s-.57-1.17-1.1-.85c-.21.13-.41.27-.6.41,0-.18,0-.36,0-.54a.68.68,0,0,0-.27-.57.66.66,0,0,0,.14-.38c0-.81.09-1.61.15-2.41a.62.62,0,0,0,.57-.54,44,44,0,0,0,.71-9.51c0-.16,0-.32,0-.48a13.69,13.69,0,0,1,2.13,0,24.29,24.29,0,0,1,2.05,1.57.76.76,0,0,0,1.28-.53,2,2,0,0,0-.84-1.62h.38a.71.71,0,0,0,.65-.42l1.86,1.82a8.92,8.92,0,0,0,.56,2.51,44.72,44.72,0,0,0,0,5.79,29.8,29.8,0,0,0,.29,3.06l-2.62,4c-.53.82.77,1.57,1.3.76l1.86-2.87a5.35,5.35,0,0,0,1.37,2,.77.77,0,0,0,.73.17c.11.46.22.91.34,1.37C201.32,88.19,201,88.81,200.62,89.43Zm-.79-13c.19.38.37.77.55,1.16,0,.77,0,1.54.09,2.32,0,.21,0,.42,0,.63a.79.79,0,0,0-.48,0c-.1-1.17-.09-2.35-.12-3.34C199.84,77,199.84,76.7,199.83,76.46ZM201.12,68a15.23,15.23,0,0,0-2-1.66l.94.13a3.4,3.4,0,0,1,1.7.79A.77.77,0,0,0,201.12,68ZM202.59,79c-.17-.45-.35-.9-.55-1.34,0-.51.05-1,.08-1.52.22.43.43.86.62,1.3Q202.65,78.17,202.59,79Zm.37-6.9a.7.7,0,0,0,.28-.12l.43.51c-.09.33-.16.65-.24,1C203.29,73,203.13,72.5,203,72.05Zm.39,16.74a2.33,2.33,0,0,0,.11-.28l.21-.25a.79.79,0,0,0,.12-.77v0a1.42,1.42,0,0,0,.35.17C203.89,88,203.62,88.37,203.35,88.79Zm.94-3.29a9.16,9.16,0,0,1-.28-2,8.84,8.84,0,0,0,.37,1Zm1,6.07a20,20,0,0,1-.86,1.89,28.94,28.94,0,0,0,1.37-3.64h.06C205.68,90.4,205.5,91,205.28,91.57Z" fill="#eadb1f"/></svg>