<?xml version="1.0" encoding="utf-8"?>
<!-- Generator: Adobe Illustrator 25.4.4, SVG Export Plug-In . SVG Version: 6.00 Build 0)  -->
<svg version="1.1" id="Layer_1" xmlns="http://www.w3.org/2000/svg" xmlns:xlink="http://www.w3.org/1999/xlink" x="0px" y="0px"
	 viewBox="0 0 288.1 288.1" style="enable-background:new 0 0 288.1 288.1;" xml:space="preserve">
<style type="text/css">
	.st0{fill:#004E66;}
	.st1{fill:#F4A55D;}
	.st2{fill:#BD89F4;}
	.st3{fill:#B7DD8A;}
	.st4{fill:#70BBF9;}
</style>
<g id="bg">
	<path class="st0" d="M226.1,25c-0.6-4.6-2.6-8.9-5.9-12.3c-9.7-9.9-27.5-8.1-39.7,4s-14.3,29.8-4.6,39.7c3.3,3.3,7.6,5.4,12.2,6.1
		c7.6,2,15.7,6.8,22.6,13.8s11.5,15.1,13.4,22.8c0.6,4.6,2.6,9,5.9,12.3c9.7,9.9,27.5,8.1,39.7-4s14.3-29.8,4.6-39.6
		c-3.3-3.3-7.6-5.4-12.2-6.1c-7.6-2.1-15.7-6.8-22.6-13.8S228,32.7,226.1,25z"/>
	<path class="st0" d="M60.1,25c0.6-4.6,2.7-8.9,5.9-12.2c9.7-9.9,27.5-8.1,39.7,4s14.3,29.8,4.6,39.6c-3.3,3.3-7.6,5.4-12.2,6.1
		c-7.6,2-15.7,6.8-22.6,13.8S64,91.4,62.1,99c-0.6,4.6-2.6,8.9-5.9,12.3c-9.7,9.9-27.5,8.1-39.7-4S2.2,77.5,11.9,67.7
		c3.3-3.3,7.6-5.4,12.2-6.1c7.6-2.1,15.7-6.8,22.6-13.8S58.2,32.7,60.1,25z"/>
	<path class="st0" d="M226.1,263c-0.6,4.6-2.6,8.9-5.9,12.3c-9.7,9.9-27.5,8.1-39.7-4s-14.3-29.8-4.6-39.7c3.3-3.3,7.6-5.4,12.2-6.1
		c7.6-2,15.7-6.8,22.6-13.8s11.5-15.1,13.4-22.8c0.6-4.6,2.7-8.9,5.9-12.2c9.7-9.9,27.5-8.1,39.7,4c12.2,12.1,14.3,29.8,4.6,39.7
		c-3.3,3.3-7.6,5.4-12.2,6.1c-7.6,2.1-15.7,6.8-22.6,13.8S228,255.4,226.1,263z"/>
	<path class="st0" d="M60.1,263c0.6,4.6,2.6,9,5.9,12.3c9.7,9.9,27.5,8.1,39.7-4s14.3-29.8,4.6-39.7c-3.3-3.3-7.6-5.4-12.2-6.1
		c-7.6-2-15.7-6.8-22.6-13.8S64,196.7,62.1,189c-0.6-4.6-2.6-8.9-5.9-12.3c-9.7-9.9-27.5-8.1-39.7,4c-12.2,12.1-14.3,29.8-4.6,39.7
		c3.3,3.3,7.6,5.4,12.2,6.1c7.6,2.1,15.7,6.8,22.6,13.8S58.2,255.4,60.1,263z"/>
</g>
<path class="st1" d="M224.8,109.2c-9.7-16.1-4.4-37.1,11.7-46.7s37.1-4.4,46.7,11.7c6.5,10.8,6.5,24.2,0,35c-4.4,9.3-7,21.5-7,34.9
	s2.6,25.6,7,34.9c9.7,16.1,4.4,37.1-11.7,46.7c-16.1,9.7-37.1,4.4-46.7-11.7c-6.5-10.8-6.5-24.2,0-35c4.4-9.3,7-21.5,7-34.9
	S229.2,118.4,224.8,109.2z"/>
<path class="st0" d="M273.5,91.7c0-10.7-8.7-19.5-19.4-19.5c-10.7,0-19.5,8.7-19.5,19.4s8.7,19.5,19.4,19.5l0,0
	C264.8,111.1,273.5,102.4,273.5,91.7z M237,91.7c0-9.4,7.7-17.1,17.1-17.1c9.4,0,17.1,7.7,17.1,17.1c0,9.4-7.7,17.1-17.1,17.1
	C244.6,108.7,237,101.1,237,91.7L237,91.7z"/>
<path class="st0" d="M254.1,100.3c-4.7,0-8.6-3.9-8.6-8.6s3.9-8.6,8.6-8.6s8.6,3.9,8.6,8.6S258.8,100.3,254.1,100.3L254.1,100.3z"/>
<path class="st0" d="M264.3,91.7c0-5.7-4.6-10.2-10.2-10.2c-5.7,0-10.2,4.6-10.2,10.2c0,5.6,4.6,10.2,10.2,10.2l0,0
	C259.7,101.9,264.3,97.3,264.3,91.7L264.3,91.7z M245.5,91.7c0-4.7,3.9-8.6,8.6-8.6s8.6,3.9,8.6,8.6s-3.9,8.6-8.6,8.6
	C249.3,100.3,245.5,96.4,245.5,91.7L245.5,91.7z"/>
<path class="st0" d="M270.9,186.7c-5.4-9.3-17.3-12.5-26.6-7.1c-9.3,5.4-12.5,17.3-7.1,26.6s17.3,12.5,26.6,7.1l0,0
	C273.1,207.9,276.3,196,270.9,186.7z M239.2,205c-4.7-8.2-1.9-18.6,6.3-23.4c8.2-4.7,18.6-1.9,23.4,6.3c4.7,8.2,1.9,18.6-6.3,23.4
	l0,0C254.4,216,244,213.2,239.2,205z"/>
<path class="st0" d="M258.4,203.9c-4.1,2.4-9.4,1-11.7-3.2c-2.4-4.1-1-9.4,3.2-11.7c4.1-2.4,9.4-1,11.7,3.1
	C263.9,196.3,262.5,201.5,258.4,203.9z"/>
<path class="st0" d="M262.9,191.3c-2.8-4.9-9.1-6.6-14-3.7c-4.9,2.8-6.6,9.1-3.7,14c2.8,4.9,9.1,6.6,14,3.7
	C264.1,202.5,265.8,196.3,262.9,191.3C262.9,191.4,262.9,191.4,262.9,191.3z M246.6,200.8c-2.4-4.1-1-9.4,3.2-11.7
	c4.1-2.4,9.4-1,11.7,3.2c2.4,4.1,1,9.4-3.1,11.7C254.3,206.3,249,204.9,246.6,200.8L246.6,200.8L246.6,200.8z"/>
<path class="st2" d="M179,224.8c16.1-9.7,37.1-4.4,46.7,11.7c9.7,16.1,4.4,37.1-11.7,46.7c-10.8,6.5-24.2,6.5-35,0
	c-9.3-4.4-21.5-7-34.9-7s-25.6,2.6-34.9,7c-16.1,9.7-37.1,4.4-46.7-11.7s-4.4-37.1,11.7-46.7c10.8-6.5,24.2-6.5,35,0
	c9.3,4.4,21.5,7,34.9,7S169.7,229.2,179,224.8z"/>
<path class="st0" d="M196.5,273.5c10.7,0,19.5-8.7,19.5-19.5c0-10.7-8.7-19.5-19.5-19.5c-10.7,0-19.5,8.7-19.5,19.5l0,0
	C177,264.8,185.7,273.5,196.5,273.5z M196.5,237c9.4,0,17.1,7.7,17.1,17.1c0,9.4-7.7,17.1-17.1,17.1s-17.1-7.7-17.1-17.1
	C179.4,244.6,187,237,196.5,237L196.5,237z"/>
<path class="st0" d="M187.9,254.1c0-4.7,3.9-8.6,8.6-8.6s8.6,3.9,8.6,8.6s-3.9,8.6-8.6,8.6C191.7,262.7,187.9,258.8,187.9,254.1
	L187.9,254.1z"/>
<path class="st0" d="M196.5,264.3c5.7,0,10.3-4.6,10.3-10.2c0-5.7-4.6-10.3-10.2-10.3c-5.7,0-10.3,4.6-10.3,10.2l0,0
	C186.2,259.7,190.8,264.3,196.5,264.3L196.5,264.3z M196.5,245.5c4.7,0,8.6,3.9,8.6,8.6s-3.9,8.6-8.6,8.6c-4.7,0-8.6-3.9-8.6-8.6
	C187.9,249.3,191.7,245.5,196.5,245.5L196.5,245.5z"/>
<path class="st0" d="M101.4,270.9c9.3-5.4,12.5-17.3,7.1-26.6c-5.4-9.3-17.3-12.5-26.6-7.1c-9.3,5.4-12.5,17.3-7.1,26.6l0,0
	C80.2,273.1,92.1,276.3,101.4,270.9z M83.1,239.2c8.2-4.7,18.6-1.9,23.4,6.3s1.9,18.6-6.3,23.4c-8.2,4.7-18.6,1.9-23.4-6.3l0,0
	C72.1,254.4,74.9,244,83.1,239.2z"/>
<path class="st0" d="M84.2,258.4c-2.4-4.1-0.9-9.4,3.2-11.7c4.1-2.4,9.4-0.9,11.7,3.2c2.4,4.1,1,9.3-3.1,11.7
	C91.9,263.9,86.6,262.5,84.2,258.4L84.2,258.4z"/>
<path class="st0" d="M96.8,262.9c4.9-2.8,6.6-9.1,3.7-14c-2.8-4.9-9.1-6.6-14-3.7c-4.9,2.8-6.6,9.1-3.7,14
	C85.6,264.1,91.9,265.8,96.8,262.9z M87.4,246.6c4.1-2.4,9.4-1,11.7,3.2c2.4,4.1,1,9.4-3.2,11.7c-4.1,2.4-9.4,1-11.7-3.1
	C81.8,254.3,83.2,249,87.4,246.6C87.3,246.6,87.4,246.6,87.4,246.6L87.4,246.6z"/>
<path class="st3" d="M109.2,63.3C93,72.9,72.1,67.7,62.5,51.6S58,14.5,74.2,4.8c10.8-6.5,24.2-6.5,35,0c9.3,4.4,21.5,7,34.9,7
	s25.6-2.7,34.9-7c16.1-9.7,37.1-4.4,46.7,11.7c9.7,16.1,4.4,37.1-11.7,46.7c-5.3,3.2-11.3,4.8-17.5,4.8s-12.2-1.7-17.5-4.8
	c-9.3-4.4-21.5-7-34.9-7S118.4,58.9,109.2,63.3z"/>
<path class="st0" d="M91.7,14.6C81,14.6,72.2,23.3,72.2,34c0,10.7,8.7,19.5,19.4,19.5s19.5-8.7,19.5-19.4l0,0
	C111.1,23.3,102.4,14.6,91.7,14.6z M91.7,51.2c-9.4,0-17.1-7.7-17.1-17.1S82.2,17,91.7,17s17.1,7.7,17.1,17.1
	C108.8,43.5,101.1,51.2,91.7,51.2L91.7,51.2z"/>
<path class="st0" d="M100.3,34.1c0,4.7-3.9,8.6-8.6,8.6s-8.6-3.9-8.6-8.6s3.9-8.6,8.6-8.6l0,0C96.4,25.5,100.3,29.3,100.3,34.1
	C100.3,34,100.3,34.1,100.3,34.1z"/>
<path class="st0" d="M91.7,23.8c-5.7,0-10.2,4.6-10.2,10.3s4.6,10.2,10.2,10.2s10.2-4.6,10.2-10.3l0,0
	C101.9,28.4,97.3,23.8,91.7,23.8L91.7,23.8z M91.7,42.7c-4.7,0-8.6-3.9-8.6-8.6c0-4.7,3.9-8.6,8.6-8.6s8.6,3.9,8.6,8.6l0,0
	C100.3,38.8,96.4,42.7,91.7,42.7z"/>
<path class="st0" d="M186.7,17.2c-9.3,5.4-12.5,17.3-7.1,26.6s17.3,12.5,26.6,7.1s12.5-17.3,7.1-26.6l0,0
	C207.9,15,196,11.9,186.7,17.2z M205,48.9c-8.2,4.7-18.6,1.9-23.4-6.3c-4.7-8.2-1.9-18.6,6.3-23.4c8.2-4.8,18.6-1.9,23.4,6.3l0,0
	C216,33.7,213.2,44.1,205,48.9z"/>
<path class="st0" d="M203.9,29.8c2.4,4.1,1,9.4-3.2,11.7c-4.1,2.4-9.4,1-11.7-3.2c-2.4-4.1-1-9.4,3.1-11.7
	C196.3,24.2,201.5,25.6,203.9,29.8z"/>
<path class="st0" d="M191.3,25.2c-4.9,2.8-6.6,9.1-3.7,14c2.8,4.9,9.1,6.6,14,3.7c4.9-2.8,6.6-9.1,3.7-14
	C202.5,24,196.3,22.4,191.3,25.2C191.4,25.2,191.4,25.2,191.3,25.2z M200.8,41.5c-4.1,2.4-9.4,1-11.7-3.2c-2.4-4.1-1-9.4,3.2-11.7
	c4.1-2.4,9.4-1,11.7,3.1C206.3,33.9,204.9,39.1,200.8,41.5L200.8,41.5z"/>
<path class="st4" d="M4.8,109.2C-4.8,93,0.4,72.1,16.6,62.5s37-4.5,46.7,11.7c6.5,10.8,6.5,24.2,0,35c-4.4,9.3-7,21.5-7,34.9
	s2.7,25.6,7,34.9c9.7,16.1,4.4,37.1-11.7,46.7c-16.1,9.7-37.1,4.4-46.7-11.7C1.7,208.7,0,202.6,0,196.5c0-6.2,1.7-12.2,4.8-17.5
	c4.4-9.3,7-21.5,7-34.9S9.2,118.4,4.8,109.2z"/>
<path class="st0" d="M53.5,91.7c0-10.7-8.7-19.5-19.4-19.5s-19.5,8.7-19.5,19.4s8.7,19.5,19.4,19.5l0,0
	C44.8,111.1,53.5,102.4,53.5,91.7z M17,91.7c0-9.4,7.7-17.1,17.1-17.1s17.1,7.7,17.1,17.1c0,9.4-7.7,17.1-17.1,17.1
	S17,101.1,17,91.7z"/>
<path class="st0" d="M34.1,100.3c-4.7,0-8.6-3.9-8.6-8.6s3.9-8.6,8.6-8.6s8.6,3.9,8.6,8.6l0,0C42.7,96.4,38.8,100.3,34.1,100.3
	L34.1,100.3z"/>
<path class="st0" d="M44.3,91.7c0-5.7-4.6-10.2-10.3-10.2s-10.2,4.6-10.2,10.2c0,5.6,4.6,10.2,10.3,10.2l0,0
	C39.7,101.9,44.3,97.3,44.3,91.7L44.3,91.7z M25.5,91.7c0-4.7,3.9-8.6,8.6-8.6s8.6,3.9,8.6,8.6s-3.9,8.6-8.6,8.6l0,0
	C29.3,100.3,25.5,96.4,25.5,91.7z"/>
<path class="st0" d="M50.9,186.7c-5.4-9.3-17.3-12.5-26.6-7.1c-9.3,5.4-12.5,17.3-7.1,26.6s17.3,12.5,26.6,7.1l0,0
	C53.1,207.9,56.3,196,50.9,186.7z M19.2,205c-4.7-8.2-1.9-18.6,6.3-23.4c8.2-4.7,18.6-1.9,23.4,6.3c4.8,8.2,1.9,18.6-6.3,23.4l0,0
	C34.4,216,24,213.2,19.2,205z"/>
<path class="st0" d="M38.4,203.9c-4.1,2.4-9.4,1-11.7-3.2c-2.4-4.1-1-9.4,3.2-11.7c4.1-2.4,9.4-1,11.7,3.1
	C43.9,196.3,42.5,201.5,38.4,203.9z"/>
<path class="st0" d="M42.9,191.3c-2.8-4.9-9.1-6.6-14-3.7c-4.9,2.8-6.6,9.1-3.7,14c2.8,4.9,9.1,6.6,14,3.7
	C44.1,202.5,45.8,196.3,42.9,191.3C42.9,191.4,42.9,191.4,42.9,191.3z M26.6,200.8c-2.4-4.1-1-9.4,3.2-11.7c4.1-2.4,9.4-1,11.7,3.2
	c2.4,4.1,1,9.4-3.1,11.7C34.3,206.3,29,204.9,26.6,200.8L26.6,200.8z"/>
</svg>
