<svg xmlns="http://www.w3.org/2000/svg" viewBox="0 0 288.12 288.12"><g id="bg"><path d="M226.11,25a21.5,21.5,0,0,0-5.89-12.28c-9.71-9.86-27.5-8.08-39.74,4s-14.29,29.81-4.58,39.67a21.36,21.36,0,0,0,12.19,6.08c7.62,2,15.66,6.75,22.58,13.78S222.16,91.38,224.1,99A21.41,21.41,0,0,0,230,111.32c9.71,9.86,27.5,8.08,39.74-4S284,77.54,274.31,67.68a21.42,21.42,0,0,0-12.19-6.08c-7.63-2.06-15.67-6.76-22.58-13.78S228,32.69,226.11,25Z" fill="#004e66"/><path d="M60.1,25A21.38,21.38,0,0,1,66,12.75c9.71-9.86,27.5-8.08,39.74,4S120,46.53,110.31,56.39a21.42,21.42,0,0,1-12.19,6.08c-7.63,2-15.67,6.75-22.58,13.78S64,91.38,62.11,99a21.47,21.47,0,0,1-5.89,12.28c-9.71,9.86-27.51,8.08-39.74-4S2.19,77.54,11.9,67.68A21.36,21.36,0,0,1,24.09,61.6c7.63-2.06,15.66-6.76,22.58-13.78S58.16,32.69,60.1,25Z" fill="#004e66"/><path d="M226.11,263a21.5,21.5,0,0,1-5.89,12.28c-9.71,9.86-27.5,8.08-39.74-4s-14.29-29.81-4.58-39.67a21.36,21.36,0,0,1,12.19-6.08c7.62-2,15.66-6.76,22.58-13.78S222.16,196.69,224.1,189A21.38,21.38,0,0,1,230,176.75c9.71-9.86,27.5-8.08,39.74,4s14.29,29.81,4.58,39.67a21.42,21.42,0,0,1-12.19,6.08c-7.63,2.06-15.67,6.76-22.58,13.78S228,255.38,226.11,263Z" fill="#004e66"/><path d="M60.1,263A21.38,21.38,0,0,0,66,275.32c9.71,9.86,27.5,8.08,39.74-4s14.29-29.81,4.58-39.67a21.42,21.42,0,0,0-12.19-6.08c-7.63-2-15.67-6.76-22.58-13.78S64,196.69,62.11,189a21.44,21.44,0,0,0-5.89-12.28c-9.71-9.86-27.51-8.08-39.74,4S2.19,210.53,11.9,220.39a21.36,21.36,0,0,0,12.19,6.08c7.63,2.06,15.66,6.76,22.58,13.78S58.16,255.38,60.1,263Z" fill="#004e66"/></g><g id="Layer_1" data-name="Layer 1"><path d="M224.84,109.18a34.06,34.06,0,1,1,58.44,0c-4.38,9.26-7,21.48-7,34.88s2.65,25.62,7,34.89a34.06,34.06,0,1,1-58.44,0c4.38-9.26,7-21.48,7-34.88S229.22,118.44,224.84,109.18Z" fill="#f7cf0a"/><path d="M273.51,91.67a19.46,19.46,0,1,0-19.45,19.45A19.47,19.47,0,0,0,273.51,91.67Zm-36.56,0a17.11,17.11,0,1,1,17.11,17.11A17.13,17.13,0,0,1,237,91.66Z" fill="#004e66"/><path d="M254.06,100.26a8.6,8.6,0,1,1,8.6-8.6A8.59,8.59,0,0,1,254.06,100.26Z" fill="#004e66"/><path d="M264.3,91.66a10.25,10.25,0,1,0-10.24,10.25A10.24,10.24,0,0,0,264.3,91.66Zm-18.84,0a8.6,8.6,0,1,1,8.6,8.6A8.6,8.6,0,0,1,245.46,91.66Z" fill="#004e66"/><path d="M270.91,186.73a19.46,19.46,0,1,0-7.12,26.58A19.48,19.48,0,0,0,270.91,186.73ZM239.24,205a17.11,17.11,0,1,1,23.37,6.26A17.14,17.14,0,0,1,239.24,205Z" fill="#004e66"/><path d="M258.36,203.91a8.6,8.6,0,1,1,3.15-11.75A8.61,8.61,0,0,1,258.36,203.91Z" fill="#004e66"/><path d="M262.93,191.34a10.24,10.24,0,1,0-3.75,14A10.23,10.23,0,0,0,262.93,191.34Zm-16.32,9.42a8.6,8.6,0,1,1,11.75,3.15A8.59,8.59,0,0,1,246.61,200.76Z" fill="#004e66"/><path d="M179,224.84a34.06,34.06,0,1,1,0,58.44c-9.27-4.38-21.49-7-34.89-7s-25.62,2.65-34.88,7a34.06,34.06,0,1,1,0-58.44c9.27,4.38,21.49,7,34.88,7S169.68,229.22,179,224.84Z" fill="#f779c7"/><path d="M196.46,273.51A19.46,19.46,0,1,0,177,254.06,19.47,19.47,0,0,0,196.46,273.51Zm0-36.56a17.11,17.11,0,1,1-17.11,17.11A17.12,17.12,0,0,1,196.46,237Z" fill="#004e66"/><path d="M187.86,254.06a8.6,8.6,0,1,1,8.6,8.6A8.59,8.59,0,0,1,187.86,254.06Z" fill="#004e66"/><path d="M196.46,264.3a10.25,10.25,0,1,0-10.24-10.24A10.24,10.24,0,0,0,196.46,264.3Zm0-18.84a8.6,8.6,0,1,1-8.6,8.6A8.6,8.6,0,0,1,196.46,245.46Z" fill="#004e66"/><path d="M101.39,270.91a19.46,19.46,0,1,0-26.57-7.12A19.48,19.48,0,0,0,101.39,270.91ZM83.11,239.24a17.11,17.11,0,1,1-6.26,23.37A17.14,17.14,0,0,1,83.11,239.24Z" fill="#004e66"/><path d="M84.21,258.36A8.6,8.6,0,1,1,96,261.51,8.61,8.61,0,0,1,84.21,258.36Z" fill="#004e66"/><path d="M96.79,262.93a10.24,10.24,0,1,0-14-3.75A10.25,10.25,0,0,0,96.79,262.93Zm-9.43-16.32a8.6,8.6,0,1,1-3.15,11.75A8.59,8.59,0,0,1,87.36,246.61Z" fill="#004e66"/><path d="M109.18,63.28a34.06,34.06,0,1,1,0-58.44c9.26,4.38,21.48,7,34.88,7s25.62-2.66,34.89-7a34.06,34.06,0,1,1,17.51,63.28,33.86,33.86,0,0,1-17.52-4.84c-9.26-4.37-21.48-7-34.88-7S118.44,58.91,109.18,63.28Z" fill="#8fbc2e"/><path d="M91.67,14.61a19.46,19.46,0,1,0,19.45,19.45A19.48,19.48,0,0,0,91.67,14.61Zm0,36.56a17.11,17.11,0,1,1,17.11-17.11A17.12,17.12,0,0,1,91.66,51.17Z" fill="#004e66"/><path d="M100.26,34.06a8.6,8.6,0,1,1-8.6-8.6A8.59,8.59,0,0,1,100.26,34.06Z" fill="#004e66"/><path d="M91.66,23.82a10.25,10.25,0,1,0,10.25,10.24A10.24,10.24,0,0,0,91.66,23.82Zm0,18.84a8.6,8.6,0,1,1,8.6-8.6A8.6,8.6,0,0,1,91.66,42.66Z" fill="#004e66"/><path d="M186.73,17.21a19.46,19.46,0,1,0,26.58,7.12A19.49,19.49,0,0,0,186.73,17.21ZM205,48.88a17.11,17.11,0,1,1,6.26-23.37A17.14,17.14,0,0,1,205,48.88Z" fill="#004e66"/><path d="M203.91,29.76a8.6,8.6,0,1,1-11.75-3.15A8.61,8.61,0,0,1,203.91,29.76Z" fill="#004e66"/><path d="M191.34,25.19a10.24,10.24,0,1,0,14,3.75A10.23,10.23,0,0,0,191.34,25.19Zm9.42,16.32a8.6,8.6,0,1,1,3.15-11.75A8.59,8.59,0,0,1,200.76,41.51Z" fill="#004e66"/><path d="M4.84,109.18a34.06,34.06,0,1,1,58.44,0c-4.38,9.26-7,21.48-7,34.88s2.65,25.62,7,34.89A34.06,34.06,0,1,1,0,196.46a33.86,33.86,0,0,1,4.84-17.52c4.38-9.26,7-21.48,7-34.88S9.22,118.44,4.84,109.18Z" fill="#a6d0dd"/><path d="M53.51,91.67a19.46,19.46,0,1,0-19.45,19.45A19.47,19.47,0,0,0,53.51,91.67ZM17,91.66a17.11,17.11,0,1,1,17.11,17.11A17.13,17.13,0,0,1,17,91.66Z" fill="#004e66"/><path d="M34.06,100.26a8.6,8.6,0,1,1,8.6-8.6A8.59,8.59,0,0,1,34.06,100.26Z" fill="#004e66"/><path d="M44.3,91.66a10.25,10.25,0,1,0-10.24,10.25A10.24,10.24,0,0,0,44.3,91.66Zm-18.84,0a8.6,8.6,0,1,1,8.6,8.6A8.6,8.6,0,0,1,25.46,91.66Z" fill="#004e66"/><path d="M50.91,186.73a19.46,19.46,0,1,0-7.12,26.58A19.48,19.48,0,0,0,50.91,186.73ZM19.24,205a17.11,17.11,0,1,1,23.37,6.26A17.14,17.14,0,0,1,19.24,205Z" fill="#004e66"/><path d="M38.36,203.91a8.6,8.6,0,1,1,3.15-11.75A8.61,8.61,0,0,1,38.36,203.91Z" fill="#004e66"/><path d="M42.93,191.34a10.24,10.24,0,1,0-3.75,14A10.23,10.23,0,0,0,42.93,191.34Zm-16.32,9.42a8.6,8.6,0,1,1,11.75,3.15A8.59,8.59,0,0,1,26.61,200.76Z" fill="#004e66"/></g></svg>