<svg id="Layer_1" data-name="Layer 1" xmlns="http://www.w3.org/2000/svg" viewBox="0 0 288.1 288.1">
  <g id="bg">
    <path d="M226.1,25a21.56,21.56,0,0,0-5.9-12.3c-9.7-9.9-27.5-8.1-39.7,4s-14.3,29.8-4.6,39.7a21.88,21.88,0,0,0,12.2,6.1c7.6,2,15.7,6.8,22.6,13.8s11.5,15.1,13.4,22.8a21.26,21.26,0,0,0,5.9,12.3c9.7,9.9,27.5,8.1,39.7-4s14.3-29.8,4.6-39.6a21.88,21.88,0,0,0-12.2-6.1,52.11,52.11,0,0,1-22.6-13.8C232.6,40.9,228,32.7,226.1,25Z" fill="#004e66"/>
    <path d="M60.1,25A21.61,21.61,0,0,1,66,12.8c9.7-9.9,27.5-8.1,39.7,4s14.3,29.8,4.6,39.6a21.88,21.88,0,0,1-12.2,6.1c-7.6,2-15.7,6.8-22.6,13.8S64,91.4,62.1,99a21.56,21.56,0,0,1-5.9,12.3c-9.7,9.9-27.5,8.1-39.7-4S2.2,77.5,11.9,67.7a21.88,21.88,0,0,1,12.2-6.1A52.11,52.11,0,0,0,46.7,47.8C53.6,40.8,58.2,32.7,60.1,25Z" fill="#004e66"/>
    <path d="M226.1,263a21.56,21.56,0,0,1-5.9,12.3c-9.7,9.9-27.5,8.1-39.7-4s-14.3-29.8-4.6-39.7a21.88,21.88,0,0,1,12.2-6.1c7.6-2,15.7-6.8,22.6-13.8s11.5-15.1,13.4-22.8a21.61,21.61,0,0,1,5.9-12.2c9.7-9.9,27.5-8.1,39.7,4s14.3,29.8,4.6,39.7a21.88,21.88,0,0,1-12.2,6.1,52.11,52.11,0,0,0-22.6,13.8C232.6,247.3,228,255.4,226.1,263Z" fill="#004e66"/>
    <path d="M60.1,263A21.26,21.26,0,0,0,66,275.3c9.7,9.9,27.5,8.1,39.7-4s14.3-29.8,4.6-39.7a21.88,21.88,0,0,0-12.2-6.1c-7.6-2-15.7-6.8-22.6-13.8S64,196.7,62.1,189a21.56,21.56,0,0,0-5.9-12.3c-9.7-9.9-27.5-8.1-39.7,4s-14.3,29.8-4.6,39.7a21.88,21.88,0,0,0,12.2,6.1,52.11,52.11,0,0,1,22.6,13.8C53.6,247.3,58.2,255.4,60.1,263Z" fill="#004e66"/>
  </g>
  <path d="M224.8,109.2a34,34,0,1,1,58.4,0c-4.4,9.3-7,21.5-7,34.9s2.6,25.6,7,34.9a34,34,0,1,1-58.4,0c4.4-9.3,7-21.5,7-34.9S229.2,118.4,224.8,109.2Z" fill="#70bbf9"/>
  <path d="M273.5,91.7A19.45,19.45,0,1,0,254,111.1h0A19.44,19.44,0,0,0,273.5,91.7Zm-36.5,0a17.1,17.1,0,1,1,17.1,17.1A17.16,17.16,0,0,1,237,91.7Z" fill="#004e66"/>
  <path d="M254.1,100.3a8.6,8.6,0,1,1,8.6-8.6,8.66,8.66,0,0,1-8.6,8.6Z" fill="#004e66"/>
  <path d="M264.3,91.7a10.2,10.2,0,1,0-10.2,10.2h0a10.24,10.24,0,0,0,10.2-10.2Zm-18.8,0a8.6,8.6,0,1,1,8.6,8.6,8.66,8.66,0,0,1-8.6-8.6Z" fill="#004e66"/>
  <path d="M270.9,186.7a19.47,19.47,0,1,0-7.1,26.6h0A19.46,19.46,0,0,0,270.9,186.7ZM239.2,205a17.14,17.14,0,1,1,23.4,6.3h0A17.17,17.17,0,0,1,239.2,205Z" fill="#004e66"/>
  <path d="M258.4,203.9a8.58,8.58,0,1,1,3.2-11.8A8.74,8.74,0,0,1,258.4,203.9Z" fill="#004e66"/>
  <path d="M262.9,191.3a10.24,10.24,0,1,0-3.7,14,10.17,10.17,0,0,0,3.7-14Zm-16.3,9.5a8.58,8.58,0,1,1,11.8,3.2,8.77,8.77,0,0,1-11.8-3.2Z" fill="#004e66"/>
  <path d="M179,224.8a34,34,0,1,1,0,58.4c-9.3-4.4-21.5-7-34.9-7s-25.6,2.6-34.9,7a34,34,0,1,1,0-58.4c9.3,4.4,21.5,7,34.9,7S169.7,229.2,179,224.8Z" fill="#f4a65d"/>
  <path d="M196.5,273.5A19.5,19.5,0,1,0,177,254h0A19.46,19.46,0,0,0,196.5,273.5Zm0-36.5a17.1,17.1,0,1,1-17.1,17.1A17.16,17.16,0,0,1,196.5,237Z" fill="#004e66"/>
  <path d="M187.9,254.1a8.6,8.6,0,1,1,8.6,8.6,8.66,8.66,0,0,1-8.6-8.6Z" fill="#004e66"/>
  <path d="M196.5,264.3A10.25,10.25,0,1,0,186.3,254h0a10.14,10.14,0,0,0,10.2,10.3Zm0-18.8a8.6,8.6,0,1,1-8.6,8.6,8.54,8.54,0,0,1,8.6-8.6Z" fill="#004e66"/>
  <path d="M101.4,270.9a19.47,19.47,0,1,0-26.6-7.1h0A19.46,19.46,0,0,0,101.4,270.9ZM83.1,239.2a17.14,17.14,0,1,1-6.3,23.4h0A17.17,17.17,0,0,1,83.1,239.2Z" fill="#004e66"/>
  <path d="M84.2,258.4A8.58,8.58,0,1,1,96,261.6a8.77,8.77,0,0,1-11.8-3.2Z" fill="#004e66"/>
  <path d="M96.8,262.9a10.24,10.24,0,1,0-14-3.7A10.17,10.17,0,0,0,96.8,262.9Zm-9.4-16.3a8.58,8.58,0,1,1-3.2,11.8,8.59,8.59,0,0,1,3.2-11.8Z" fill="#004e66"/>
  <path d="M109.2,63.3a34.09,34.09,0,1,1,0-58.5c9.3,4.4,21.5,7,34.9,7s25.6-2.7,34.9-7a34,34,0,0,1,35,58.4A33.64,33.64,0,0,1,196.5,68,34.61,34.61,0,0,1,179,63.2c-9.3-4.4-21.5-7-34.9-7S118.4,58.9,109.2,63.3Z" fill="#b7dd8a"/>
  <path d="M91.7,14.6a19.45,19.45,0,1,0,19.4,19.5h0A19.44,19.44,0,0,0,91.7,14.6Zm0,36.6a17.1,17.1,0,1,1,17.1-17.1A17.16,17.16,0,0,1,91.7,51.2Z" fill="#004e66"/>
  <path d="M100.3,34.1a8.6,8.6,0,1,1-8.6-8.6h0a8.6,8.6,0,0,1,8.6,8.6Z" fill="#004e66"/>
  <path d="M91.7,23.8A10.25,10.25,0,1,0,101.9,34h0A10.24,10.24,0,0,0,91.7,23.8Zm0,18.9a8.6,8.6,0,1,1,8.6-8.6h0A8.66,8.66,0,0,1,91.7,42.7Z" fill="#004e66"/>
  <path d="M186.7,17.2a19.47,19.47,0,1,0,26.6,7.1h0A19.55,19.55,0,0,0,186.7,17.2ZM205,48.9a17.14,17.14,0,1,1,6.3-23.4h0A17.17,17.17,0,0,1,205,48.9Z" fill="#004e66"/>
  <path d="M203.9,29.8a8.58,8.58,0,1,1-11.8-3.2A8.57,8.57,0,0,1,203.9,29.8Z" fill="#004e66"/>
  <path d="M191.3,25.2a10.24,10.24,0,1,0,14,3.7,10.17,10.17,0,0,0-14-3.7Zm9.5,16.3A8.58,8.58,0,1,1,204,29.7a8.74,8.74,0,0,1-3.2,11.8Z" fill="#004e66"/>
  <path d="M4.8,109.2a34.09,34.09,0,1,1,58.5,0c-4.4,9.3-7,21.5-7,34.9s2.7,25.6,7,34.9A34,34,0,1,1,0,196.5,34.61,34.61,0,0,1,4.8,179c4.4-9.3,7-21.5,7-34.9S9.2,118.4,4.8,109.2Z" fill="#bd8af4"/>
  <path d="M53.5,91.7A19.45,19.45,0,1,0,34,111.1h0A19.44,19.44,0,0,0,53.5,91.7ZM17,91.7a17.1,17.1,0,1,1,17.1,17.1A17.16,17.16,0,0,1,17,91.7Z" fill="#004e66"/>
  <path d="M34.1,100.3a8.6,8.6,0,1,1,8.6-8.6h0a8.66,8.66,0,0,1-8.6,8.6Z" fill="#004e66"/>
  <path d="M44.3,91.7a10.25,10.25,0,1,0-10.2,10.2h0A10.24,10.24,0,0,0,44.3,91.7Zm-18.8,0a8.6,8.6,0,1,1,8.6,8.6h0A8.6,8.6,0,0,1,25.5,91.7Z" fill="#004e66"/>
  <path d="M50.9,186.7a19.47,19.47,0,1,0-7.1,26.6h0A19.46,19.46,0,0,0,50.9,186.7ZM19.2,205a17.14,17.14,0,1,1,23.4,6.3h0A17.17,17.17,0,0,1,19.2,205Z" fill="#004e66"/>
  <path d="M38.4,203.9a8.58,8.58,0,1,1,3.2-11.8A8.74,8.74,0,0,1,38.4,203.9Z" fill="#004e66"/>
  <path d="M42.9,191.3a10.24,10.24,0,1,0-3.7,14,10.17,10.17,0,0,0,3.7-14Zm-16.3,9.5A8.58,8.58,0,1,1,38.4,204a8.77,8.77,0,0,1-11.8-3.2Z" fill="#004e66"/>
</svg>
