<svg id="Layer_1" data-name="Layer 1" xmlns="http://www.w3.org/2000/svg" xmlns:xlink="http://www.w3.org/1999/xlink" viewBox="0 0 68.12 172.91"><defs><linearGradient id="linear-gradient" x1="34.06" y1="54.46" x2="34.06" y2="118.03" gradientTransform="translate(120.52 52.4) rotate(90)" gradientUnits="userSpaceOnUse"><stop offset="0" stop-color="#fff" stop-opacity="0.3"/><stop offset="0.21" stop-color="#fff" stop-opacity="0.26"/><stop offset="0.55" stop-color="#fff" stop-opacity="0.16"/><stop offset="0.99" stop-color="#fff" stop-opacity="0"/><stop offset="0.99" stop-color="#fff" stop-opacity="0"/></linearGradient></defs><path d="M4.84,51.57a34.06,34.06,0,1,1,58.44,0c-4.38,9.27-7,21.49-7,34.89s2.65,25.62,7,34.88A34.06,34.06,0,1,1,0,138.85a33.85,33.85,0,0,1,4.84-17.51c4.38-9.27,7-21.49,7-34.88S9.22,60.84,4.84,51.57Z" fill="#a6d0dd"/><path d="M4.84,51.57a34.06,34.06,0,1,1,58.44,0c-4.38,9.27-7,21.49-7,34.89s2.65,25.62,7,34.88A34.06,34.06,0,1,1,0,138.85a33.85,33.85,0,0,1,4.84-17.51c4.38-9.27,7-21.49,7-34.88S9.22,60.84,4.84,51.57Z" fill="url(#linear-gradient)"/><path d="M53.51,34.06A19.46,19.46,0,1,0,34.06,53.52,19.47,19.47,0,0,0,53.51,34.06ZM17,34.06A17.11,17.11,0,1,1,34.06,51.17,17.14,17.14,0,0,1,17,34.06Z" fill="#004e66"/><path d="M34.06,42.66a8.6,8.6,0,1,1,8.6-8.6A8.6,8.6,0,0,1,34.06,42.66Z" fill="#004e66"/><path d="M44.3,34.06A10.25,10.25,0,1,0,34.06,44.3,10.23,10.23,0,0,0,44.3,34.06Zm-18.84,0a8.6,8.6,0,1,1,8.6,8.6A8.6,8.6,0,0,1,25.46,34.06Z" fill="#004e66"/><path d="M50.91,129.13a19.46,19.46,0,1,0-7.12,26.57A19.47,19.47,0,0,0,50.91,129.13ZM19.24,147.41a17.11,17.11,0,1,1,23.37,6.26A17.13,17.13,0,0,1,19.24,147.41Z" fill="#004e66"/><path d="M38.36,146.3a8.6,8.6,0,1,1,3.15-11.75A8.6,8.6,0,0,1,38.36,146.3Z" fill="#004e66"/><path d="M42.93,133.73a10.24,10.24,0,1,0-3.75,14A10.24,10.24,0,0,0,42.93,133.73Zm-16.32,9.43a8.6,8.6,0,1,1,11.75,3.14A8.6,8.6,0,0,1,26.61,143.16Z" fill="#004e66"/></svg>