<svg xmlns="http://www.w3.org/2000/svg" viewBox="0 0 1364.24 20.56"><defs><style>.cls-1{fill:#fff;}</style></defs><g id="Layer_2" data-name="Layer 2"><g id="OBJECTS"><path class="cls-1" d="M0,0V4.55H1.5a10.47,10.47,0,0,1,4.09.59,20,20,0,0,0,8.75,1,12.31,12.31,0,0,1,4.76.35,17.43,17.43,0,0,0,9.62.84,9.3,9.3,0,0,1,2.18,0,32.92,32.92,0,0,0,9.63-.47,11.94,11.94,0,0,1,6.78.38c4.86,2.33,9.82,1.89,15.76.89,6.66-1.14,7.18-.82,10.05,2.1s7.07,4,14.64,3.9c4.34,0,8.89,0,12.49,1.41a5.1,5.1,0,0,0,4.29,0,12.08,12.08,0,0,1,5.16-1.32c5.11.11,9.62-.94,14.42-1.39,6.47-.6,12.93-1.35,14.86-5,.69-1.3,3.32-1.64,6.26-1.22,2.32.34,4.89.88,5.44,1.93,1.32,2.47,5.65,3.05,10,3.67,4.53.65,9,.74,12.94-.79a20,20,0,0,1,5.46-1.11c2.84-.27,3.84-1.16,4-2.32a10.71,10.71,0,0,0-.08-1.49c0-.48-.16-1,1.17-1.24a3.06,3.06,0,0,1,2.6.66c1.47,1.19,3.34,1,5.49.41A38.52,38.52,0,0,1,200.55,5a44.72,44.72,0,0,0,6.26-.89c5.68-1.21,10.16-.22,11.85,2.54,1,1.55,2.58,2,6.11,1.62a21.08,21.08,0,0,0,2.6-.4c4.7-1,9.94-1.07,14.86-1.72,3.86-.51,6.05.56,4.77,2.3-1.45,2,1.39,3.51,1.8,5.27.09.41,1.17.57,2.1.69,6.63.81,9.93-.62,8.29-3.61-.13-.25-.32-.48-.43-.72C258,8.44,258.74,8,262.59,8c1.63,0,3.36-.1,4.65.51a5.49,5.49,0,0,0,4.36.09,6.23,6.23,0,0,1,2-.28c3.16.18,7.92,3.48,7.33,5-1,2.5.6,3.18,6.1,2.49,1.79-.22,3.63-.62,5.32-.18,5.71,1.46,11.38.07,16.94-.12a117.47,117.47,0,0,1,11.87,0,59.49,59.49,0,0,1,15.88,3,59.76,59.76,0,0,0,7.36,1.65c3.86.75,4.7.41,4.13-1.57-.63-2.24,1.22-2.86,5.92-1.89,2.51.53,5,1,7.67,1.35,1.83.23,2.94.15,3.78-.82,1.59-1.83,2.82-2,7.06-1.63a40.17,40.17,0,0,0,5.86.57c4-.27,6.86,1.15,10.34,1.29s7.09-.66,10.84-.21a40.91,40.91,0,0,0,9.25-.07,52.91,52.91,0,0,1,13.54.22,31.19,31.19,0,0,0,15-1.23c2.49-.88,5.29-1.43,8-2.11,5.21-1.26,11.47-1.77,15.09-4.26,1.2-.84,3.87-1.25,5.92-1,3.44.38,7.07.83,9.19,2.33.59.42.87,1,1.91,1.19,5.51,1.11,10.61,3.07,17.37,1.41a13,13,0,0,1,8,.69C510.2,17,510.33,17,518,14.94c.47-.12.94-.26,1.44-.36,4.59-1,8.84-2.14,13.95-2.75,2.12-.26,4.1-.44,6.07-.53.81,0,1.61,0,2.43,0,1.18,0,2.37.06,3.63.16.65.06,1.3.09,2,.11a30,30,0,0,0,11.12-1.36,6.53,6.53,0,0,1,4.06-.27,1.36,1.36,0,0,0,.39,2.22c1.23.83,3.7,1.32,5.89,1.89,1.77.45,3.59.51,4.72-.43,1.32-1.11,3.12-.94,5.12-.52l3.48.74a11.8,11.8,0,0,0,6.24,0c2.11-.73,1.72-1.67,1.11-2.7-1.22-2.07-.2-2.6,4.5-2.19,3.39.3,6.12.07,8.4-1.14,1.74-.92,3.89-1,6.48-.76a67.23,67.23,0,0,0,9.85.27,20.18,20.18,0,0,1,7.56,1.1c4.86,1.59,9.7,3.24,15.85,3.8a44.5,44.5,0,0,1,6.06,1.14,13.57,13.57,0,0,0,5.29.24c4.51-.66,9.11-1.22,13.53-2a16.62,16.62,0,0,1,8.27.19,20,20,0,0,0,8.41.73,30.84,30.84,0,0,1,10.56.58,26.48,26.48,0,0,0,8.38,0c5.83-.63,11.79-1.66,18.07-.33,5.38,1.13,11.54,0,14.29-2.38s3.44-2.54,9.36-2.33a35,35,0,0,1,6.71,1,28,28,0,0,0,8.54.52c9.74-.78,17.62,1,22.09,4.88,1.9,1.66,4.44,2,8.13,1.09,1.12-.27,2.14-.64,3.25-.92a11.19,11.19,0,0,1,5.25-.18c5,1.16,10.43.67,15.68.83a8.61,8.61,0,0,0,5.78-1.53c4.09-3.22,8.12-3.84,15.29-2.19a34.16,34.16,0,0,0,11.64.85c5.82-.67,11.66-1.48,16.6-3.13,2-.68,3.79-1.31,6.35-.47A4.16,4.16,0,0,0,873,8.32l.63-.28c3.79-1.58,4.88-1.48,8.54.3l.5.23a11,11,0,0,0,3.07.88,50.63,50.63,0,0,1,8.21,2c3.56,1.11,4.51,1,6.84-.69,2.75-2,6.16-2.38,10.42-1.16,2.46.72,4.07.45,5.53-.53a9.48,9.48,0,0,1,1.51-1c1.35-.57,2.85-.63,3.19.34.49,1.35,1.92,2.31,4.59,2.89,2.14.47,4.8,1.08,6.68.33,2.32-.91.14-1.93-1.11-2.82l-.88-.64c-2.65-2-2.91-2.2.2-3.6l1.14-.5c.52-.23,1-.5,1.5-.73,3.2-1.45,4.22-1.56,8.12-.57A87.1,87.1,0,0,0,952,4.85l.73.1a10,10,0,0,1,5.66,2.18c.9.81,2,1.58,3,2.37,2.5,1.93,4.39,2.26,9,1.59,6.46-.95,12.62.1,16.88,2.4a25.72,25.72,0,0,0,14.61,3.58,17.38,17.38,0,0,1,5.78.63c6,1.88,11.75,1.23,17.25-.45a21.59,21.59,0,0,1,6.07-1,19,19,0,0,0,4.29-.27c4.48-1.44,9.52-1.07,14.35-1a18,18,0,0,0,9.1-1.81,7.79,7.79,0,0,0,3.21-2.57c.8-1.24,2.6-1.69,5.39-1.57,5.25.23,10.61.07,15.64,1a22.2,22.2,0,0,0,5.92.35,15.39,15.39,0,0,1,7,1.11c1.51.61,3.29,1.06,4.79,1.67a25.13,25.13,0,0,0,11.81,1.23,36.57,36.57,0,0,1,6.54-.27,68.64,68.64,0,0,0,11.47,0,7.87,7.87,0,0,1,3.68.17c4.13,2,8.86,1.51,13.65.71,2.56-.41,3.94-.12,5,1.09,1.44,1.61,11.71,2.4,14.5,1.25a2.6,2.6,0,0,0,1-.61c2.87-3.21,10-5.21,12.06-8.71.54-.9,1.62-1.81,2.22-2.75a2.15,2.15,0,0,1,1.67-.54c1,0,1.26.37,1.23.66-.14,1.45,1.2,2.6,3.64,3.44,4,1.43,6,2.88,2.6,5.18-1.79,1.2-.73,2.26,1.49,2.74,2.51.55,6.73.21,8.6-.76a19.62,19.62,0,0,0,2.87-1.81c3.34-2.52,4.26-2.7,9.91-1.51a15.53,15.53,0,0,0,5.83.33,61,61,0,0,0,8.34-1.85c5.79-1.88,6.62-4,2.87-6.15-.85-.31-.8-.66-.06-1a12.21,12.21,0,0,1,4.91-1.48c5-.35,9.82-.34,14.17,1.08,3.26,1.07,6.59,2.1,10,3.09,1.59.47,2.86,1,3.16,1.89a3.35,3.35,0,0,0,1.45,1.58c1.8,1.15,4,2.19,3.06,3.8-.24.42.6.78,1.57.87a2.1,2.1,0,0,0,2-.65c.46-.62.42-1.33,1.86-1.73a10.29,10.29,0,0,1,7,.4,17.08,17.08,0,0,0,11.14.36,16.78,16.78,0,0,1,7.64-.78,4.37,4.37,0,0,0,3.4-1,27.32,27.32,0,0,1,7-3.12c1.23-.34,2.75-.89,4-.42,3.53,1.25,7.79.8,11.64,1,5.31.33,10.81.23,16.18.06,5.66-.18,12.5,2.43,12.14,5-.21,1.42,1.22,2.1,3.84,2.64a39.57,39.57,0,0,0,6.59.63V0Z"/></g></g></svg>