<svg xmlns="http://www.w3.org/2000/svg" viewBox="0 0 1364.24 24.66"><defs><style>.cls-1{fill:#fff;}</style></defs><g id="Layer_2" data-name="Layer 2"><g id="OBJECTS"><path class="cls-1" d="M1364.24,24.66v-10c-.73.13-1.47.25-2.22.33-10.71,1.18-17.11,1.5-22.37-2.83-1.93-1.59-6.55-1.71-9.48-2.83a5.24,5.24,0,0,0-2,.16,12.93,12.93,0,0,1-7.66-.38,12.23,12.23,0,0,0-5-.88c-5.51.45-11-.44-16.44-.08-2.87.19-5.1-.32-6.31-1.5-1.91-1.86-5.4-2.63-9.58-2.89a10.93,10.93,0,0,1-4.78-1,7.54,7.54,0,0,0-5.88-.32c-3.11.94-6.73,1.62-6.44,3.89.19,1.48-2.45,2-5.25,1.33a17.35,17.35,0,0,1-2.52-.94c-4.5-1.82-8.85-3.74-15.67-3.48a15.28,15.28,0,0,1-3.6-.53,40.18,40.18,0,0,0-6.94-.6c-5.86-.21-10.56.93-15.37,2.21-2.82.76-5.11,1.57-6.19,3-1.28,1.68-3.86,2.75-7.45,3.43s-5.39-.42-7.75-1.2-3.79-.59-5.45.74c-.37.3-.65.59-2.08.57-2.34-1.25-5.52-1.38-9.07-.61a14.9,14.9,0,0,1-4.33.06,43.23,43.23,0,0,0-8.2-.06c-4,.44-6.85.13-9.28-1.61s-5.15-1.91-9.31-.66a82.6,82.6,0,0,0-12.37,4.89,22.41,22.41,0,0,1-13.33,1.35,12.43,12.43,0,0,0-6.62.27c-4.84,1.55-7.29,1.58-11.72-.1A25.26,25.26,0,0,0,1093.9,13c-3.42.08-6.21-.14-8.78-1.43-3.06-1.54-6.12-1.4-9.51.09a21.34,21.34,0,0,1-5.75,1.85,13.63,13.63,0,0,0-5.5,1.95c-.59.38-.78.76-.77,1.12,0,.57.56,1.13.89,1.72a1.49,1.49,0,0,1,.13,1c-.41,2.21-4.52,3.15-8.54,1.89s-8.14-2.29-11.47-4.07a20.32,20.32,0,0,0-15.46-1.78,10.9,10.9,0,0,1-7.47-.67c-1.73-.83-3.47-1.65-5.15-2.5l-1.54-.79a7.23,7.23,0,0,0-5.76-.41,20.18,20.18,0,0,1-5.4,1.11c-10.57.34-16.3,1.74-22.62,5.37-.34.19-.56.43-.92.6a7,7,0,0,1-6.56.15c-1.36-.55-2.6-1.17-3.9-1.75a6.83,6.83,0,0,1-1.23-.39,3,3,0,0,0-3.25.48c-3.2,1.71-4.1,1.82-8.36,1.22-2.23-.32-4-.83-4.75-1.87-1.19-1.73-3.91-2.29-7.71-2.64a119.23,119.23,0,0,1-14.11-2c-5.78-1.28-8.33-.91-10.57,1.76-1.19,1.4-3,2.41-6,3-2,.42-3.87.95-5.87,1.36a31,31,0,0,1-7.74.59,32,32,0,0,1-4.43-.53c-.71-.13-1.43-.26-2.16-.41a80.6,80.6,0,0,0-15.06-1.83c-7.66,0-15.68-1.47-23.17.49a5.39,5.39,0,0,1-1.62.05,19,19,0,0,0-5.79.48c-4.29.86-5.45.56-5.7-1.64-.14-1.3-1.38-2-3.9-2.37-6.2-.92-12.31-2-19-1.9a13.87,13.87,0,0,1-3.19-.33,34.05,34.05,0,0,0-15.67.7c-7.56,2.06-15.69,2.53-23.94,3.07-2.14.13-3.91.28-5.13,1.14a8.53,8.53,0,0,1-4.1,1.1c-1.58.13-3.13.21-4.68.24a90.38,90.38,0,0,1-15.55-1.15c-1.1-.17-2.19-.36-3.28-.55a10.54,10.54,0,0,1-3.2-.92c-2.66-1.73-6.67-2.16-10.86-2.56A39.67,39.67,0,0,1,722,10c-5.31-1.77-11-1.82-17.07-1.44-2.68.17-5.42-.08-8.16.28-5.83.79-11.34,1.72-16.1,3.57a21.36,21.36,0,0,1-11.17,1.3,11.45,11.45,0,0,0-6.13.71c-3.44,1.51-7,1.39-11.06.51-3.4-.72-6.82-1.73-10.9-1.41-4.58.34-9,.55-13-.88a7.4,7.4,0,0,0-1.59-.15,60.31,60.31,0,0,0-13,0c-4,.47-8.44.74-10.82-1.61-1-1-3.52-1.34-5.67-1.13-5.34.51-9.2-.78-13.09-2C578.58,6,572.77,4.43,567.63,2.43a8.86,8.86,0,0,0-2.83-.73C559.11,1.53,554.12.14,548.32,0c-7-.15-10.09.59-10.66,3.74-.41,2.24-3.25,4-4.61,6.06-.46.69-1.93,1.1-3.38,1.1-6.09,0-11.18,1.5-16.76,2.24-1.88.25-3.84.94-5.62.12s.23-1.49,1-2.19c1-.92.9-1.77-.92-2.46a8.24,8.24,0,0,0-5.5,0,54.66,54.66,0,0,1-21,2.35,33,33,0,0,0-11.54,1.14c-3.25.89-3.18,2.43-3.31,4-.17,2-2.51,2.68-7.08,2.11a41.68,41.68,0,0,0-10.25-.28,17.6,17.6,0,0,1-7.45-.34c-3.55-1.26-7.19-1.29-11.37-.87-3.5.37-4.55,0-5.51-1.58s-3.19-2.36-6.23-2.87c-4.45-.76-8.93-1.49-13.4-2.21a21.55,21.55,0,0,0-5.4-.3A52.33,52.33,0,0,1,379.46,8a10.65,10.65,0,0,0-2-.43c-5.42-.6-8.36-2.22-9.4-4.64-.3-.68-.88-1.35-2.74-1.28s-3.08.59-3.49,1.38a6.33,6.33,0,0,0-.29,1.73c-.12.55-.92,1.06-2,1-3.89-.33-7,.92-10.67.92a22.45,22.45,0,0,0-9.35,1.7A15.26,15.26,0,0,1,329.44,9a33.82,33.82,0,0,0-9.54-.81c-3.48.06-7,.32-10.42.24a60.25,60.25,0,0,0-21.28,3.25,6.25,6.25,0,0,1-1.86.5c-3.63.07-7-1.22-10.87-.45a8.31,8.31,0,0,1-2.75-.72c-2.05-.69-3.91-1.51-6.09-2.11-3.39-.92-6.74-2.06-11.18-1.25a10.07,10.07,0,0,1-3.65-.38c-4.56-.9-5.76-.77-7.29,1.36-2.37,3.27-8.09,4.26-14.7,4.64-4.4.24-5,.19-5.54,1.93,0,.09-.05.19-.08.29-.36,1.38-1.78,1.68-4.31,1.54a86.61,86.61,0,0,0-13.59.53c-3.53.36-7.27.34-10.91.48a12.69,12.69,0,0,1-4.12-.55c-3.72-1-3.64-.93-7.37.26-2.37.74-4.1,2.06-7.13,2.21-3.61.16-7.33.12-11-.05-2.41-.1-4.83-.61-4.64-2,.27-1.88-1.67-2.93-5.44-3.48a8.56,8.56,0,0,1-2.21-.72,12.78,12.78,0,0,0-8-.86,8.18,8.18,0,0,1-4.19-.13l-1.1-.43c-2.81-1.08-5.63-2.19-4.47-4.25.59-1-.31-1.66-2.65-1.65a22.8,22.8,0,0,1-7.52-1.31c-4.8-1.52-10.35-2.06-16-2.34a22.3,22.3,0,0,0-8.34,1A25.82,25.82,0,0,1,92,4.86c-4.36-.1-4.37-.05-6.07,1.9-1.13,1.3-2.82,1.56-5.56.93A4.29,4.29,0,0,1,77.72,6.2C76.22,4.35,76,4.31,71.94,5c-1.87.34-3.65.77-5.47,1.17a8.54,8.54,0,0,1-3.69.23c-3.63-.91-7.67-1.66-10.6-2.92a16.11,16.11,0,0,0-7.71-1.27c-3,.13-5.36.27-7.18,1.71a6.86,6.86,0,0,1-8.54-.28,2.57,2.57,0,0,0-2.61-1C20.22,3.36,14.27,4.05,11.61,7a20.18,20.18,0,0,1-4.77,3.31c-4,2.29-4,2.39-.75,4.85.7.54,1.15,1.07,0,1.59a3.92,3.92,0,0,1-3,.06,10.66,10.66,0,0,0-3.13-1v8.92Z"/></g></g></svg>