<svg id="Layer_1" data-name="Layer 1" xmlns="http://www.w3.org/2000/svg" viewBox="0 0 730.13 491.75">
  <g>
    <path d="M172.18,14.84c-.32.83-1.06,2.29-.9,2.39,8.8,5.83,6.84,13.72,5.06,22.18-3,14.13-5.66,28.38-7.4,42.71-3.6,29.64-7.26,59.31-9.46,89.07-1.79,24.34-1.51,48.83-2.16,73.25a26.08,26.08,0,0,1-.29,4.15c-5,26.61-10.26,53.16-14.92,79.82a410.08,410.08,0,0,0-5.33,42.73c-.17,2.6,5.06,7.5,8.35,8.06,10.86,1.84,22,2,33,3.12,17.52,1.71,18.71-.92,22-18.46,4.11-21.65,3.6-43.72,10-65.33,6.63-22.49,8.62-46.43,11.77-69.85,1.68-12.5,1.12-25.29,2.32-37.88,1.57-16.52,3.2-33.09,6.06-49.42s3.54-16.54,19.22-16.63c13.26-.08,26.54.33,39.79,1.06,6.6.37,10.9,4.39,8.54,11.27-8.24,24.13-6.89,49.45-9.65,74.22-2.59,23.21-2.63,46.7-4.94,70-3.06,30.83-7,61.59-11.11,92.3-1,7.66,1.43,10.37,8.58,10.49,6.27.11,12.7,1.44,18.74.41,3.28-.56,7.9-4.54,8.5-7.65,4.57-23.51,8.24-47.19,12.32-70.8,2.19-12.7,4.63-25.36,6.95-38,.32-1.72,1.11-3.51.87-5.15-3.22-21.77,6.25-42.07,7.3-63.38C336,186,345,182.22,358.24,182.78c13.63.57,27.74-2,41.07-5.47,9.42-2.42,11.3,2.45,13,8.67.94,3.54.6,7.57.19,11.31-3.19,29.39-6.06,58.83-10,88.13-2.41,17.83-6.94,35.37-9.77,53.16-2.07,13-2.93,26.2-4.34,39.32-.61,5.77,2,8.74,7.77,8.48,10.07-.45,20.18-.83,30.17-2.06,1.94-.24,4.63-4.05,4.92-6.45,1.68-14.2,2.54-28.5,4.08-42.72,3.49-32.13,7.08-64.26,11-96.34.52-4.32,3-8.41,4.38-12.22,15.29.61,29.72,1.63,44.14,1.6,9.22,0,12.92,4.28,12.57,12.68-.77,18.82-1.32,37.66-2.94,56.41-2,23.54-5.2,47-7.59,70.49-.48,4.73-.52,9.82.77,14.31.86,3,4.26,7.17,6.81,7.38,8.91.74,18-.06,26.94-.21,8-.13,10.75-4.76,11.32-12.1,2.29-29.52,4.76-59,7.24-88.52,1.32-15.75,4.09-17.81,19.85-19.25,7.53-.68,14.87-3.57,22.3-5.44,11.15-2.79,15,.19,14.69,11.61-.34,13.57-.44,27.16-1.24,40.71-.85,14.45-3,28.84-3.38,43.29-.22,8.16.49,17,3.71,24.29,1.42,3.19,10.11,4,15.55,4.16,2.18.06,6-4.31,6.49-7.1,3.28-19.43,5.55-39,9-58.41.52-2.91,5.24-6.42,8.58-7.2,9.17-2.13,18.62-3.08,28-4.26,11.51-1.46,15.87,3.09,14.32,14.81q-3.59,26.91-7.33,53.81c-.83,5.92-1.3,11,6.77,12.62,2.13.43,3.45,4.88,5.14,7.48-2.89,1.45-5.81,4.17-8.67,4.1-6.91-.17-13.77-2.09-20.69-2.42-5-.23-10,1-15,1.55-2,.24-4.6,1.51-6,.7-18-10.57-37.56-4.19-56.31-4.59-33-.71-66,.64-99,.49-32-.15-64.07-.89-96.09-1.75-29.85-.81-59.69-2.61-89.54-3.05-19.11-.28-38.26,2-57.35,1.59-27.05-.65-54.05-3.2-81.1-4.07-10.9-.35-21.87,2-32.83,2.22-3,.05-8-2.89-8.67-5.36-1.15-4.45-.1-9.64.72-14.4,6.71-39.11,14.77-78,20-117.33,4.1-30.56,4.44-61.61,7.09-92.39,2.81-32.58,6.5-65.09,9.55-97.66C159.94,52.6,160.28,37.72,162,23c.43-3.66,4.38-6.91,6.71-10.34Zm52.43,319.75-.12-.21c-4.11,12.77-14.5,23-13.79,38.08.2,4.16-4.1,10,1.6,11.78s14.14,2.31,18.26-.78c11-8.24,20.12-18.9,30.3-28.26,6.66-6.11,6.62-12.93,3.71-21.9l-24.35,17.64-2-2.77c9.45-8.82,19-17.51,28.24-26.55a14.2,14.2,0,0,0,3.95-7.82c1.69-14.06,3.31-28.15,4.08-42.28.36-6.64-1.24-13.37-1.92-20.07,2-4.33,5.26-8.5,5.8-13,1.56-13,2.3-26.12,2.74-39.22.12-3.59-1.91-7.26-3.1-11.41-18.81,12-50.77,56.62-49.49,68.5l12.48-2.8c-3.23,4.64-5.29,7.11-6.81,9.89-3.16,5.75-6.68,11.44-8.76,17.59-1,2.91,1,6.82,1.66,10.27,2.74-1.75,6-3,8.14-5.33,9.89-10.75,19.29-21.94,29.3-32.56,1.63-1.73,5.46-1.4,8.27-2-11.69,13.06-23.54,26-35,39.22-11.17,12.87-24.28,25-21.46,45.31ZM398.24,237c.18-5,1-8.92.28-12.58s-2.85-7-4.36-10.45c-3,2.44-6.59,4.43-9,7.4-7.95,10-14,22.11-23.53,30.16-12.83,10.84-19.36,25.72-29.4,38.23-2.77,3.45-2.93,9.18-3.67,14-.25,1.61,1,4.47,2.29,5,1.45.61,4.3-.17,5.56-1.37,5.51-5.26,10.85-10.73,15.92-16.42q19.39-21.76,38.47-43.82C393.74,243.81,396.08,240,398.24,237Zm-61.46,30.77c5.13-4.52,8.36-6.94,11.08-9.85,17.36-18.56,27.75-43.32,50.82-57,1.3-.77-.54-6.86-.91-10.48-7.43,1.4-16.23.77-22,4.66-9.23,6.24-16.61,15.3-24.45,23.46C339,231.45,336.19,247.39,336.78,267.79Zm52.15-7.94C371.23,278.6,353.16,297,336,316.27c-6.5,7.29-13.53,15.67-8.1,28.7,3.74-2.49,7.5-4.19,10.18-6.94,10.86-11.13,21.26-22.71,32.1-33.86,4.45-4.58,9-9.63,14.54-12.48C394.5,286.65,397.5,267.68,388.93,259.85ZM285.48,146.09l-4-3.26c-6.74,5.89-14.62,10.91-20,17.86-12,15.6-28.15,29.31-28.35,51.46,0,3,1.25,6,1.92,9,3.1-1.7,7-2.71,9.17-5.23,10.57-12.36,19.94-25.8,31.14-37.52C284.69,168.62,282.77,157,285.48,146.09ZM491.9,307.33c-13.23,14-24.51,26.17-36.09,38.05-9.23,9.46-16.24,19.48-11.45,33.78,1.64-.53,4.18-.58,5.47-1.87,13.39-13.52,27.37-26.58,39.5-41.17C495.31,328.93,496.51,318.75,491.9,307.33Zm3.57-66c-26.2,16.94-53.66,45.1-46.52,70.78,3.19-2.61,6.33-4.54,8.66-7.18,11.49-13,22.22-26.71,34.31-39.11C499.69,257.82,498.86,250.26,495.47,241.29Zm56.44,145.92c10.22-11.46,19.11-21,27.48-30.95,8.24-9.82,20.62-17.77,17.1-33.55-.55-2.46-1.84-6.06-3.57-6.6-1.95-.61-5.78.95-7.09,2.79-9.51,13.27-24.66,22.81-27.35,40.69a5.28,5.28,0,0,1-2.28,3.26C545.42,369.31,550.52,377.83,551.91,387.21Zm-231.26-4.65c16.12-21.45,34.34-40.07,56.62-54.37,10.2-6.54,13.62-17.91,7.37-29.2-2.37,2.07-4.87,4-7,6.17-16.11,16.43-31.22,34-48.58,49C318.86,362.92,320.1,372.17,320.65,382.56ZM444,346.78c13.5-14.17,24.74-26.08,36.14-37.85,3.09-3.19,6.16-7.34,10-8.64,9.63-3.22,4.92-11.08,6.34-16.8.41-1.66-1.85-4-2.88-6q-5.48,4-10.95,8.06a10.55,10.55,0,0,0-2.37,2c-9.57,13.2-25.76,22.27-25.06,41.67l-11.33.7C443.92,334.87,443.94,339.13,444,346.78ZM332.48,383.47l4.15,3.08c5.84-4.3,11.73-8.54,17.51-12.91,5.5-4.16,10.51-11.29,16.42-12.08,10-1.35,10.42-7.53,11.26-14.21.45-3.5-.69-7.21-1.11-10.83-3.43,1.09-7.53,1.33-10.16,3.42-10.79,8.58-21.72,17.15-31.36,26.93C335.32,370.79,334.62,377.84,332.48,383.47Zm308.86-6.81,8.49-5.61,1.23,1.18-7.92,15.09,3.23,2.55c6-5.78,12.46-11.17,17.8-17.5,3.06-3.63,12.92-3.88,7.85-11.61-1.18-1.8-8.66.54-12.33.89C676.14,343,676.14,343,675.46,332,658.29,341.86,639.52,366,641.34,376.66Zm-89.17-33.9,3.34,1.37c9-9.87,18-19.77,27.07-29.62,3.76-4.09,8.83-7.49,11.13-12.25,2-4,.79-9.6,1-14.48-2.36.18-5.85-.59-6.92.67-10.88,12.93-21.74,25.9-31.71,39.51C553.28,331.79,553.4,337.76,552.17,342.76ZM240,172.51c15.64-8.85,23.05-21.84,31-35.42C245.25,130.36,240.63,135.46,240,172.51Zm317.65,135,2.91,2.33L586,280.57C566.74,273.67,556.73,284.32,557.66,307.54ZM453.37,265l2.88,2.55c7.14-7.08,14.44-14,21.31-21.36,1.52-1.62,1.5-4.68,2.19-7.08-2.55-.45-5.2-1.63-7.61-1.24C456.7,240.36,451.56,248,453.37,265Zm189.57,88.74c11.51-9.22,21.76-17,23.85-31.54C648.9,321.65,644.16,327.72,642.94,353.75ZM459.13,376.44c23.12-7.29,32.49-17.26,27.68-27.67C477.36,358.23,468.24,367.33,459.13,376.44Zm-103.85,8.34c7.56.77,11.54,2.14,14.88,1.21,2.66-.75,5.9-4,6.43-6.68.73-3.68-.62-7.88-1.71-11.67-.13-.45-5.25-.62-6.44.63C364.31,372.59,360.89,377.58,355.28,384.78Zm-94.31-17-4.92-2.07-15,15.82c.31,1.26.63,2.5,1,3.75,4.91,0,12.29,1.87,14.17-.53C259.52,380.46,259.55,373.57,261,367.77Zm304.43,9.57C579.11,379,594,364,590.51,352.61ZM482.33,373l-10.42,12.94c3.73.82,8.35,3.41,11,2.08C488.93,385,487.64,379.86,482.33,373ZM362.12,196.36c-13.3-3.48-17.27.59-15.73,16.42Zm218.1,188.73c.35.83.69,1.65,1,2.47L594.6,387c.33-.84.67-1.68,1-2.52-2.43-2-5.15-5.78-7.23-5.46C585.42,379.42,582.92,382.91,580.22,385.09Z" fill-rule="evenodd"/>
    <path d="M415.43,85.61c-25.18,3-47.82,4.94-70.15,8.7-28.19,4.74-31.43-6.08-35.72-28.62-1.17-6.16-1.32-12.5-2.23-18.72-.87-5.89-3.58-8.26-10.2-6.45-18.33,5-36.83,9.37-55.3,13.83-2.66.65-5.75,1.14-8.26.41a9.7,9.7,0,0,1-5.5-4.93c-.41-.94,2.28-4.46,4.05-4.93,9.06-2.39,18.27-4.26,27.45-6.14,13.31-2.72,26.62-5.42,40-7.89s17,.16,19,13.42c1.47,9.94,2.64,19.94,4.3,29.85,1.32,7.9,6.68,11,14.28,10.25,23.15-2.31,46.33-4.41,69.4-7.31,15.44-1.94,19.9,1.59,20.72,17,.61,11.59,1.39,23.37,4.1,34.58,2,8.09,8.39,10.8,17.89,9.19,24.62-4.17,49.47-7,74.28-10,10.18-1.23,18,4.77,18.93,15.1.73,7.8.08,15.8-.6,23.66-.65,7.5.8,11.83,9.59,9.38,14.75-4.1,29.49-8.18,44.31-12a149.87,149.87,0,0,1,20.38-4.13c8.66-1,13,4.43,12.54,13.26-.66,11.36-1.09,22.79-.75,34.16.26,8.71,6.92,10.37,14.19,10.31,12.09-.1,24.23-.83,36.24.06,3.22.23,6.93,4.91,8.89,8.4,3.28,5.82,5.74,7.72,10.14,1.16a120.79,120.79,0,0,1,10.75-14.17c4.77-5.25,11.35-4.2,12.76,2.62,3.73,18,7.35,36.22,9.1,54.53,1.11,11.7-4.19,12.64-15.94,11.1-15.75-2.07-31.93-.78-47.91-1.29-4.08-.13-8.11-1.59-12.17-2.44,1.58-3.65,2.38-8,4.91-10.79,5.58-6.17,12.61-11.07,17.87-17.47,2.58-3.14,4.14-8.79,3.32-12.71-1.58-7.63-7.79-11.34-15.6-10.8-8.7.61-17.34,1.9-26,2.9-13.72,1.59-17.28-.33-19.28-13.53-1.64-10.92-1.71-22.11-2.14-33.19-.33-8.51-2.45-13.18-12.59-9.91-17.55,5.65-35.44,10.24-53.08,15.62-16.16,4.92-23.38-2.06-20.2-19.43a104.66,104.66,0,0,0,1.2-18.41c0-9.59-5.37-13-14.39-11.67-19.17,2.82-38.35,5.55-57.5,8.47-32,4.86-48.62-11.64-44.91-44.37C416.13,97.36,415.52,92.29,415.43,85.61Z" fill-rule="evenodd"/>
    <path d="M272.51,251.46c.71,6.69,2.31,13.42,1.95,20.06-.77,14.13-2.39,28.22-4.08,42.28a14.2,14.2,0,0,1-3.95,7.82c-9.22,9-18.79,17.73-28.24,26.55l2,2.77,24.35-17.64c2.91,9,2.95,15.79-3.71,21.9-10.18,9.36-19.32,20-30.3,28.26-4.12,3.09-12.65,2.55-18.26.78s-1.4-7.62-1.6-11.78c-.71-15.12,9.68-25.31,13.79-38.08,18-3.88,25-19.33,34.36-32.24-15.37,6.69-23.39,21.05-34.24,32.45l-8.32,1.3c-2.82-20.33,10.29-32.44,21.46-45.31,11.48-13.23,23.33-26.16,35-39.22Z" fill="#fff" fill-rule="evenodd"/>
    <path d="M272.77,251.36c-2.81.62-6.64.29-8.27,2-10,10.62-19.41,21.81-29.3,32.56-2.13,2.31-5.4,3.58-8.14,5.33-.65-3.45-2.64-7.36-1.66-10.27,2.08-6.15,5.6-11.84,8.76-17.59,1.52-2.78,3.58-5.25,6.81-9.89l-12.48,2.8c-1.28-11.88,30.68-56.49,49.49-68.5,1.19,4.15,3.22,7.82,3.1,11.41-.44,13.1-1.18,26.22-2.74,39.22-.54,4.5-3.79,8.67-5.82,13Zm-3.14-28.11-2.24-2q-12.33,13.29-24.68,26.57l3.25,3C255.08,242.67,265.5,235.76,269.63,223.25Z" fill="#fff" fill-rule="evenodd"/>
    <path d="M398.24,237c-2.16,3-4.5,6.79-7.39,10.12q-19.08,22-38.47,43.82c-5.07,5.69-10.41,11.16-15.92,16.42-1.26,1.2-4.11,2-5.56,1.37-1.29-.54-2.54-3.4-2.29-5,.74-4.78.9-10.51,3.67-14,10-12.51,16.57-27.39,29.4-38.23,9.53-8.05,15.58-20.15,23.53-30.16,2.36-3,5.93-5,9-7.4,1.51,3.47,3.67,6.82,4.36,10.45S398.42,232,398.24,237Z" fill="#fff" fill-rule="evenodd"/>
    <path d="M336.78,267.79c-.59-20.4,2.21-36.34,14.57-49.19,7.84-8.16,15.22-17.22,24.45-23.46,5.74-3.89,14.54-3.26,22-4.66.37,3.62,2.21,9.71.91,10.48-23.07,13.66-33.46,38.42-50.82,57C345.14,260.85,341.91,263.27,336.78,267.79Z" fill="#fff" fill-rule="evenodd"/>
    <path d="M388.93,259.85c8.57,7.83,5.57,26.8-4.2,31.84-5.53,2.85-10.09,7.9-14.54,12.48C359.35,315.32,349,326.9,338.09,338c-2.68,2.75-6.44,4.45-10.18,6.94-5.43-13,1.6-21.41,8.1-28.7C353.16,297,371.23,278.6,388.93,259.85Z" fill="#fff" fill-rule="evenodd"/>
    <path d="M285.48,146.09c-2.71,10.91-.79,22.53-10.14,32.33-11.2,11.72-20.57,25.16-31.14,37.52-2.15,2.52-6.07,3.53-9.17,5.23-.67-3-1.95-6-1.92-9,.2-22.15,16.3-35.86,28.35-51.46,5.37-6.95,13.25-12,20-17.86Z" fill="#fff" fill-rule="evenodd"/>
    <path d="M491.9,307.33c4.61,11.42,3.41,21.6-2.57,28.79-12.13,14.59-26.11,27.65-39.5,41.17-1.29,1.29-3.83,1.34-5.47,1.87-4.79-14.3,2.22-24.32,11.45-33.78C467.39,333.5,478.67,321.31,491.9,307.33Z" fill="#fff" fill-rule="evenodd"/>
    <path d="M495.47,241.29c3.39,9,4.22,16.53-3.55,24.49-12.09,12.4-22.82,26.11-34.31,39.11-2.33,2.64-5.47,4.57-8.66,7.18C441.81,286.39,469.27,258.23,495.47,241.29Z" fill="#fff" fill-rule="evenodd"/>
    <path d="M551.91,387.21c-1.39-9.38-6.49-17.9,4.29-24.36a5.28,5.28,0,0,0,2.28-3.26c2.69-17.88,17.84-27.42,27.35-40.69,1.31-1.84,5.14-3.4,7.09-2.79,1.73.54,3,4.14,3.57,6.6,3.52,15.78-8.86,23.73-17.1,33.55C571,366.23,562.13,375.75,551.91,387.21Z" fill="#fff" fill-rule="evenodd"/>
    <path d="M320.65,382.56c-.55-10.39-1.79-19.64,8.38-28.41,17.36-15,32.47-32.56,48.58-49,2.16-2.21,4.66-4.1,7-6.17,6.25,11.29,2.83,22.66-7.37,29.2C355,342.49,336.77,361.11,320.65,382.56Z" fill="#fff" fill-rule="evenodd"/>
    <path d="M444,346.78c0-7.65-.05-11.91-.07-16.83l11.33-.7c-.7-19.4,15.49-28.47,25.06-41.67a10.55,10.55,0,0,1,2.37-2q5.46-4.05,10.95-8.06c1,2,3.29,4.33,2.88,6-1.42,5.72,3.29,13.58-6.34,16.8-3.88,1.3-6.95,5.45-10,8.64C468.71,320.7,457.47,332.61,444,346.78Z" fill="#fff" fill-rule="evenodd"/>
    <path d="M332.48,383.47c2.14-5.63,2.84-12.68,6.71-16.6,9.64-9.78,20.57-18.35,31.36-26.93,2.63-2.09,6.73-2.33,10.16-3.42.42,3.62,1.56,7.33,1.11,10.83-.84,6.68-1.29,12.86-11.26,14.21-5.91.79-10.92,7.92-16.42,12.08-5.78,4.37-11.67,8.61-17.51,12.91Z" fill="#fff" fill-rule="evenodd"/>
    <path d="M641.34,376.66c-1.82-10.68,16.95-34.8,34.12-44.71.68,11.06.68,11.06-15.77,29.7,3.67-.35,11.15-2.69,12.33-.89,5.07,7.73-4.79,8-7.85,11.61-5.34,6.33-11.81,11.72-17.8,17.5l-3.23-2.55,7.92-15.09-1.23-1.18Z" fill="#fff" fill-rule="evenodd"/>
    <path d="M552.17,342.76c1.23-5,1.11-11,3.92-14.8,10-13.61,20.83-26.58,31.71-39.51,1.07-1.26,4.56-.49,6.92-.67-.22,4.88.95,10.44-1,14.48-2.3,4.76-7.37,8.16-11.13,12.25-9.06,9.85-18.05,19.75-27.07,29.62Z" fill="#fff" fill-rule="evenodd"/>
    <path d="M240,172.51c.62-37,5.24-42.15,31-35.42C263.06,150.67,255.65,163.66,240,172.51Z" fill="#fff" fill-rule="evenodd"/>
    <path d="M557.66,307.54c-.93-23.22,9.08-33.87,28.36-27l-25.45,29.3Z" fill="#fff" fill-rule="evenodd"/>
    <path d="M453.37,265c-1.81-17,3.33-24.65,18.77-27.13,2.41-.39,5.06.79,7.61,1.24-.69,2.4-.67,5.46-2.19,7.08-6.87,7.34-14.17,14.28-21.31,21.36Z" fill="#fff" fill-rule="evenodd"/>
    <path d="M642.94,353.75c1.22-26,6-32.1,23.85-31.54C664.7,336.77,654.45,344.53,642.94,353.75Z" fill="#fff" fill-rule="evenodd"/>
    <path d="M459.13,376.44c9.11-9.11,18.23-18.21,27.68-27.67C491.62,359.18,482.25,369.15,459.13,376.44Z" fill="#fff" fill-rule="evenodd"/>
    <path d="M355.28,384.78c5.61-7.2,9-12.19,13.16-16.51,1.19-1.25,6.31-1.08,6.44-.63,1.09,3.79,2.44,8,1.71,11.67-.53,2.65-3.77,5.93-6.43,6.68C366.82,386.92,362.84,385.55,355.28,384.78Z" fill="#fff" fill-rule="evenodd"/>
    <path d="M261,367.77c-1.42,5.8-1.45,12.69-4.81,17-1.88,2.4-9.26.5-14.17.53-.32-1.25-.64-2.49-1-3.75l15-15.82Z" fill="#fff" fill-rule="evenodd"/>
    <path d="M565.4,377.34l25.11-24.73C594,364,579.11,379,565.4,377.34Z" fill="#fff" fill-rule="evenodd"/>
    <path d="M482.33,373c5.31,6.88,6.6,12.06.61,15-2.68,1.33-7.3-1.26-11-2.08Z" fill="#fff" fill-rule="evenodd"/>
    <path d="M362.12,196.36l-15.73,16.42C344.85,197,348.82,192.88,362.12,196.36Z" fill="#fff" fill-rule="evenodd"/>
    <path d="M580.22,385.09c2.7-2.18,5.2-5.67,8.16-6.12,2.08-.32,4.8,3.5,7.23,5.46-.34.84-.68,1.68-1,2.52l-13.34.61C580.91,386.74,580.57,385.92,580.22,385.09Z" fill="#fff" fill-rule="evenodd"/>
    <path d="M224.61,334.59c10.85-11.4,18.87-25.76,34.24-32.45-9.39,12.91-16.38,28.36-34.36,32.24Z" fill-rule="evenodd"/>
    <path d="M269.63,223.25c-4.13,12.51-14.55,19.42-23.67,27.49l-3.25-3q12.35-13.29,24.68-26.57Z" fill-rule="evenodd"/>
  </g>
  <g>
    <path d="M376.12,433.15c3.66-.19,5.59.12,5.59.93,0,1.79-3.66,3.53-5,3.84a76.5,76.5,0,0,1-11.1,1.24c-1.24,21.64-.06,24.92.37,25.36a7.56,7.56,0,0,1,.81,3c0,2.3-.93,3.91-3,3.91-2.23-.19-4.09-.87-4.34-5.89-.06-2,.31-4.15.25-5.89a174.44,174.44,0,0,1,.24-20c-2.6.25-3.9.44-6.07.75s-3.47.68-3.72.93a1.72,1.72,0,0,1-1.18.31,5,5,0,0,1-2.29-.56c-1.18-.62-2-1.55-1.74-3.72.12-1.18,1.36-1.05,4.15-1.74a116.5,116.5,0,0,1,11.78-1.54c1.24-.13,1.24-1.43,2.55-1.43,1,0,.62,1.11,2,1.05h1.05C369.74,433.58,373.33,433.27,376.12,433.15Z"/>
    <path d="M384.25,447.84a2,2,0,0,1,1.67.74c2.73,3.35,1.86,12.65,4.71,15.5a3.67,3.67,0,0,1,1.18,2.61c0,2.29-3,4-4.52,4-1.31,0-2.67-1.55-3.23-3.78-1.05-4-2.79-16.3-.93-18.6A1.44,1.44,0,0,1,384.25,447.84Zm4.34-12.46a5.87,5.87,0,0,1,2.17.55c2.23,1,3.72,3.23,3.72,4.34,0,.87-.93,1.49-2.23,1.49-2.17,0-6.51-2-6.51-3.78a4.24,4.24,0,0,1,.8-1.61A2.71,2.71,0,0,1,388.59,435.38Z"/>
    <path d="M398.82,447.53c.37,0,.8.31,1.42.93s1,2.42,1.31,5.27.74,8.68.93,8.8c0,.06.06.06.18.06.31,0,1.55-1.48,3.66-4.52,3-4.22,6.2-8.87,11.66-8.87,6,0,5.39,7.75,6.81,8.37a2.53,2.53,0,0,0,1.37-.8c2.48-2.24,5-5.71,8.12-5.71,5.39,0,6,8.19,7.44,12.77a14.12,14.12,0,0,1,.5,2.55,3.62,3.62,0,0,1-1.18,2.23,3,3,0,0,1-2.05,1.18,3.59,3.59,0,0,1-2.79-2.05,23,23,0,0,1-.25-3.41c-.24-4.15-1.05-6.26-2.29-6.26s-8.12,6.88-8.93,8.68-3.35,3.59-4.4,3.59c-.37,0-.5-.12-.5-.49a4.88,4.88,0,0,0-1.11-1.8,3.9,3.9,0,0,1-1.12-2.54c0-2.23,1.8-1.93,1.8-4,0-1.24-.06-6.57-2.66-6.39-1,.06-2.36.31-4.53,3.35-9.73,13.39-13,15.93-13.83,10.66-.49-3.35-2-18.22-2-18.6a3.1,3.1,0,0,1,.87-1.86C397.83,447.9,398.32,447.53,398.82,447.53Z"/>
    <path d="M448.05,456.83c7.62-8,14-9.3,19.09-10.11,3.29-.68,9.49.5,9.49,4,.06,6.82-17.61,10-23.19,10.48-.06,1,1.12,2.73,3.29,3.6,9.48,3.65,13.08-.81,19.52-1,1.62-.06,2.61.69,2.61,1.3,0,1.06-6.82,4.84-15.13,5.34-5.89.31-12.89-1.49-16.61-6.14a5.12,5.12,0,0,1-1.12-2c-.5-1.18-2.85-.31-1.49-2.67C445.5,458.07,447.18,457.7,448.05,456.83Zm16.8-4.78a29.09,29.09,0,0,0-11,5.09c4.4-1,16.55-4.84,17.11-5.21C471.79,451.31,466,451.81,464.85,452.05Z"/>
  </g>
  <g>
    <path d="M42.22,398.17c-2.28-.51-17.24-5.94-19.14-6.62-1.17-.41-7.07-2.15-7.67-2.79a3.61,3.61,0,0,1-.83-1.2,4.32,4.32,0,0,1-.26-1.44c0-.55.15-1,.59-1.16s.7-.66,1.29-1.63a2.69,2.69,0,0,1,2.47-1.54,22.42,22.42,0,0,0,4.19-1.17l8-2.22,7-2.08a7.72,7.72,0,0,0-.25-1.81,1.24,1.24,0,0,1,.24-1.54c.38-.36,1.48.29,2.14.81A4.76,4.76,0,0,0,42.77,375a2.78,2.78,0,0,0,2.4-1.36c.84-1.09,1-1.33,1.84-1.3.31,0,.61.14.86.15,3,.4,4.08,2.24,4.07,2.67a3.44,3.44,0,0,1-1.69,2.3,28.72,28.72,0,0,1-5.92,2.92c1.19,3.76,1.28,10.65.79,12.49,1.92.06,7.53,3,8.92,4.44,1,1-.12,3.78-.64,4.38a2,2,0,0,1-2.3.24A46.2,46.2,0,0,0,42.22,398.17ZM25.73,386.23c0,.31.23.51.78.77,1.09.66,6.8,2.7,13.19,4.7.66-3.33.13-8.31-.62-9.88a113.16,113.16,0,0,1-11.95,3.34C26.19,385.38,25.74,385.92,25.73,386.23Z"/>
    <path d="M49,367.61a3.18,3.18,0,0,0-1.71-.79c-.8-.09-2.91-.22-6.37-.39-7.31-.42-20.63-1.08-23.06-4.63a2.46,2.46,0,0,1-.57-1.57,1.88,1.88,0,0,1,.73-1.47c.51-.48,1.76-.69,3.74-.63,4.77.16,8.68,2,18.29,2.25a17.25,17.25,0,0,1-5.57-12.33c.17-5.33,2.74-10,7.26-9.88a9.19,9.19,0,0,1,7,3.75c4.53,5.85,5.17,15.12,5,20.75a7.51,7.51,0,0,1-1.77,5c-.52.54-1,1-1.52,1S49.49,368.19,49,367.61Zm-8.24-18c.19,1.93,3,7.61,4.59,7.84s2.56-2.28,2.61-4c.1-3.1-1.08-7-3.7-8.49-.67-.33-2.14-1.12-2.91-.09C40.39,346.07,40.51,348.12,40.77,349.61Z"/>
    <path d="M19.14,327.47a6.07,6.07,0,0,1,.62-2.15c1.07-2.2,3.34-3.62,4.46-3.58.87,0,1.46,1,1.42,2.28-.07,2.17-2.25,6.44-4,6.38a4,4,0,0,1-1.58-.85A2.68,2.68,0,0,1,19.14,327.47Zm12.32,4.73a2.06,2.06,0,0,1,.79-1.65c3.44-2.62,12.7-1.46,15.64-4.22a3.71,3.71,0,0,1,2.64-1.1c2.3.07,3.87,3.16,3.83,4.65,0,1.3-1.64,2.62-3.88,3.1-4,.93-16.39,2.28-18.62.35A1.39,1.39,0,0,1,31.46,332.2Z"/>
    <path d="M17.31,316.74a2.54,2.54,0,0,1,.23-1.54c.93-1.95,6.57-1.72,8.61-1.47a120.35,120.35,0,0,0,20.76.6c1.06-.16,1.63-.57,1.65-1.19.09-2.92-3.69-6.94-5.51-8.49-2.65-2.25-7.6-4.77-8.61-6.1a1.75,1.75,0,0,1,.08-2.48c1.61-2.06,13.71-2.17,13.87-5.21,0-.74-.31-2-.29-2.73s.35-1.11,1.09-1.09c2.85.09,4.76,2.57,5.66,5.39a3.76,3.76,0,0,1-.54,3.33c-1.33,2.82-9.19,2.51-9.24,4.12,0,.62,4.65,1.88,8.26,7.39,3.14,4.81,3.73,9.79-1,11.94-5,2.26-31,.89-34.73-1.9A.7.7,0,0,1,17.31,316.74Zm6.2-29.57c1.24,0,2.81,1.33,3.68,3.09.75,1.95.6,2.69-1,4.06-1.08.77-1.84,1.18-3,.9C18.32,294.2,21.53,287.1,23.51,287.17Z"/>
    <path d="M25.59,280c1.46-.88,6.15-.24,9.37-.14-.31-5.65-.22-6.64-.6-12.3-.07-1.8,0-2.73,0-3,0-.93,1.21-.89,1.58-.88.87,0,1.71.68,2.16,2.43.77,3,2.31,11.36,2.6,14,8.85.47,10.54-2,10.69-4.75.25-4-1.73-4.15-2.17-6s.57-2.34,1.19-2.32c.93,0,2.74,1.76,4.52,4.36a9,9,0,0,1,.25,9.62c-2.74,4.38-9.85,5.52-18.15,5.26-2.85-.09-11-.34-12.75-2.88C23.72,282.46,24.33,280.74,25.59,280Z"/>
    <path d="M36.07,240.67c.56,0,2.18-.12,4.1-.12,4.71,0,8.19,0,10.36-.11,17.74,0,27.37,5.39,27.16,12.08-.07,2.35-2.59,7.48-6.27,8.18a3,3,0,0,1-3.72-2.23,3.44,3.44,0,0,1,1.53-3.24c.45-.36,1.58-.69,1.62-2.06a6.76,6.76,0,0,0-.31-1.87c-.67-2.5-11.87-5.21-24.73-4.62,4,.19,7.53,5.07,7.44,7.8-.21,6.69-6.38,7.93-13.33,8-1.37.08-5-.1-5.8-1.12a3,3,0,0,1-1-2.2c0-1,1.39-2.87,2.75-2.83,6.45.2,11.69-1.06,11.63-2.86-.1-2.67-3.35-5.87-9.49-6.07l-2.23-.07c-1.92-.06-2.26-3-2.24-3.54A2.84,2.84,0,0,1,36.07,240.67Z"/>
    <path d="M27.92,205.92c1.46-.88,6.15-.24,9.37-.14-.31-5.65-.22-6.64-.6-12.3-.07-1.8,0-2.73,0-3,0-.93,1.21-.89,1.58-.88.87,0,1.71.67,2.16,2.42.77,3,2.31,11.37,2.59,14,8.86.46,10.55-2,10.7-4.75.25-4-1.73-4.15-2.17-6s.57-2.34,1.19-2.32c.93,0,2.74,1.76,4.51,4.36a9,9,0,0,1,.26,9.62c-2.74,4.38-9.85,5.52-18.15,5.26-2.85-.09-11-.35-12.75-2.88C26.05,208.4,26.66,206.69,27.92,205.92Z"/>
    <path d="M41.17,189c-1.61-.05-2.13-1.43-2.46-2.5a12,12,0,0,1-.18-2.42c.06-1.92-1-2.2-1.23-4-.92-6.48,1.38-16.52,5.93-19.16,1.52-1,3.5-.7,5-.28A19.3,19.3,0,0,1,59.9,179.38c-.2,6.32-3.4,11.37-9.91,11.17C46.89,190.45,45.07,189.15,41.17,189Zm4.47-6a2,2,0,0,0,1.33,1.1c3.56,1.29,7.12.22,7.26-4.18.32-10.16-6.58-13.54-7.63-13.7-1.54-.23-3.58,1.44-3.8,8.44C42.64,179.83,44.13,179.63,45.64,183Z"/>
    <path d="M38.52,107.56c.66-1.22,1.36-1.75,1.92-1.73a3.45,3.45,0,0,1,1.71.73,2.91,2.91,0,0,1,1.59,2.9c0,1.18-.76,2.4-.83,4.57-.13,4.15,4,13.83,10.5,13.29,3.85-.31,4-5.95,3.22-9.94a54.45,54.45,0,0,0-4.46-13.73c-1.12-2-1.38-3.64-1.17-4.44.22-1,.53-1,1.45-.76s1.83,1.17,2.82,3.07c6.13,12.16,11.94,30.52-1.1,31-8.88.4-13.83-7.88-16-15.27C37.33,114,36.87,110.68,38.52,107.56Z"/>
    <path d="M44.05,97.44c-1.61,0-2.13-1.43-2.47-2.5a12.87,12.87,0,0,1-.17-2.42c.06-1.92-1-2.2-1.23-4C39.26,82,41.56,72,46.11,69.34c1.52-1,3.5-.69,5-.27A19.3,19.3,0,0,1,62.78,87.79c-.2,6.32-3.4,11.37-9.91,11.17C49.77,98.86,48,97.56,44.05,97.44Zm4.47-6a2,2,0,0,0,1.33,1.1c3.56,1.29,7.12.22,7.26-4.18.32-10.16-6.58-13.54-7.63-13.7-1.54-.23-3.58,1.44-3.8,8.44C45.52,88.24,47,88,48.52,91.44Z"/>
    <path d="M39.22,61.56c0-.56.44-1.91,2.86-2.08-2.49-5.54-4-16.5,1.15-20.75,2.42-2.15,7.15-.45,9.45,1.11,7.35,5,9.68,13.83,9.32,19.4l2,.06c2.85,0,4.79-.41,5.81-1.25.51-.48,3.14-1.2,6.67-1.09.75,0,1.27,1,1.88,1.42,1.39,1.1,1.93,1.74,1.9,2.73s-2.37,2.35-5.12,2.82C69.2,65,61.5,65.36,50.47,65,43.53,64.8,39.19,62.8,39.22,61.56Zm6.19-13.33A25.48,25.48,0,0,0,48.1,59.3c6.19.5,7.13.16,7.14-.21a3,3,0,0,0-.58-1.2,18.78,18.78,0,0,1-2.2-5c-.24-2.31,1.23-1.64,1.73-1.62s.68-.17.7-.6c.06-1.92-3.15-6.43-5.54-7.25a4.37,4.37,0,0,0-1.05-.15,1.94,1.94,0,0,0-2,1A9.44,9.44,0,0,0,45.41,48.23Z"/>
    <path d="M49.89,32c-7.75-7.88-8.85-14.3-9.5-19.41-.58-3.3.8-9.46,4.33-9.35,6.82.15,9.42,17.91,9.74,23.5,1,.1,2.76-1,3.7-3.17,4-9.36-.4-13.1-.38-19.55,0-1.61.76-2.58,1.38-2.56,1.06,0,4.62,7,4.86,15.29.12,5.89-1.89,12.84-6.66,16.41a5,5,0,0,1-2,1.05c-1.19.46-.4,2.85-2.71,1.41C51.05,34.58,50.73,32.89,49.89,32ZM45.65,15.05a29.05,29.05,0,0,0,4.73,11.19C49.53,21.81,46.07,9.55,45.71,9,45.12,8.09,45.43,13.93,45.65,15.05Z"/>
  </g>
</svg>
