<?xml version="1.0" encoding="utf-8"?>
<!-- Generator: Adobe Illustrator 25.4.4, SVG Export Plug-In . SVG Version: 6.00 Build 0)  -->
<svg version="1.1" id="Layer_1" xmlns="http://www.w3.org/2000/svg" xmlns:xlink="http://www.w3.org/1999/xlink" x="0px" y="0px"
	 viewBox="0 0 1920 1080" style="enable-background:new 0 0 1920 1080;" xml:space="preserve">
<style type="text/css">
	.st0{fill:none;}
	.st1{fill:#2D2D2D;}
	.st2{font-family:'Roboto-Medium';}
	.st3{font-size:82px;}
	.st4{fill-rule:evenodd;clip-rule:evenodd;fill:url(#SVGID_1_);}
</style>
<rect x="736.5" y="953.8" class="st0" width="277.6" height="105.6"/>
<text transform="matrix(1 0 0 1 782.3058 1015.2966)" class="st1 st2 st3">Time</text>
<linearGradient id="SVGID_1_" gradientUnits="userSpaceOnUse" x1="235.9837" y1="506.8535" x2="1596.9573" y2="506.8535">
	<stop  offset="0" style="stop-color:#39B54A"/>
	<stop  offset="6.664067e-02" style="stop-color:#3EB749"/>
	<stop  offset="0.1479" style="stop-color:#4DBB46"/>
	<stop  offset="0.2369" style="stop-color:#66C241"/>
	<stop  offset="0.3314" style="stop-color:#88CC39"/>
	<stop  offset="0.4302" style="stop-color:#B5D930"/>
	<stop  offset="0.5311" style="stop-color:#EAE925"/>
	<stop  offset="0.5617" style="stop-color:#FCEE21"/>
	<stop  offset="0.6005" style="stop-color:#FCE620"/>
	<stop  offset="0.6615" style="stop-color:#FCCF1D"/>
	<stop  offset="0.7371" style="stop-color:#FDAB18"/>
	<stop  offset="0.8242" style="stop-color:#FD7811"/>
	<stop  offset="0.9199" style="stop-color:#FE3708"/>
	<stop  offset="0.9944" style="stop-color:#FF0000"/>
</linearGradient>
<path class="st4" d="M743.7,320.1c-0.1-2.1-1.9-3.7-4-3.5c-66.7,7.9-126.9,13.1-186.3,23.1c-76.4,12.9-85.2-16.5-96.8-77.6
	c-3.2-16.7-3.6-33.9-6-50.8c-2.4-16-9.7-22.4-27.7-17.5c-49.7,13.6-99.9,25.4-149.9,37.5c-7.1,1.7-15.4,3.1-22.2,1.2
	c-0.1,0-0.2-0.1-0.4-0.1c-5.5-2-10.2-5.8-13.3-10.7c-1.2-1.8-1.4-4.1-0.6-6.1c1.8-4.5,6.3-8.9,10.2-9.9
	c24.6-6.5,49.5-11.6,74.4-16.6c36.1-7.4,72.2-14.7,108.5-21.4c36.3-6.7,46.1,0.4,51.5,36.4c4,27,7.2,54.1,11.7,80.9
	c3.6,21.4,18.1,29.8,38.7,27.8c62.8-6.3,125.6-12,188.2-19.8c41.9-5.3,54,4.3,56.2,46.1c1.7,31.4,3.8,63.4,11.1,93.8
	c5.4,21.9,22.7,29.3,48.5,24.9c66.8-11.3,134.1-19,201.4-27.1c27.6-3.3,48.8,12.9,51.3,40.9c2,21.1,0.2,42.8-1.6,64.2
	c-1.8,20.3,2.2,32.1,26,25.4c40-11.1,80-22.2,120.1-32.5c18.1-5,36.6-8.7,55.3-11.2c23.5-2.7,35.2,12,34,36c-1.8,30.8-3,61.8-2,92.6
	c0.7,23.6,18.8,28.1,38.5,28c32.8-0.3,65.7-2.3,98.3,0.2c8.7,0.6,18.8,13.3,24.1,22.8c8.9,15.8,15.6,20.9,27.5,3.1
	c8.8-13.5,18.5-26.3,29.1-38.4c12.9-14.2,30.8-11.4,34.6,7.1c10.1,48.8,19.9,98.2,24.7,147.9c3,31.7-11.4,34.3-43.2,30.1
	c-42.7-5.6-86.6-2.1-129.9-3.5c-5.7-0.2-11.3-1.3-16.9-2.7c-8.7-2.1-13.5-11.4-10.3-19.8c1.9-5,4.1-9.7,7.5-13.4
	c15.1-16.7,34.2-30,48.5-47.4c7-8.5,11.2-23.8,9-34.5c-4.3-20.7-21.1-30.7-42.3-29.3c-23.6,1.7-47,5.2-70.5,7.9
	c-37.2,4.3-46.9-0.9-52.3-36.7c-4.4-29.6-4.6-59.9-5.8-90c-0.9-23.1-6.6-35.7-34.1-26.9c-47.6,15.3-96.1,27.8-143.9,42.4
	c-43.8,13.3-63.4-5.6-54.8-52.7c2.6-16.5,3.6-33.2,3.3-49.9c0-26-14.6-35.2-39-31.6c-52,7.6-104,15-155.9,23
	c-86.8,13.2-131.8-31.6-121.8-120.3C745.4,349,744.1,336.3,743.7,320.1z"/>
<g>
	<g>
		<rect x="186.2" y="97.6" class="st1" width="12.8" height="826.2"/>
	</g>
	<g>
		<rect x="186.2" y="911" class="st1" width="1476.4" height="12.8"/>
	</g>
</g>
<g>
	<path class="st1" d="M126.1,725.1v22.6l13.6,4.7v10.5l-58.3-22v-9.1l58.3-22.1v10.6L126.1,725.1z M117.9,744.8v-16.9l-24.2,8.4
		L117.9,744.8z"/>
	<path class="st1" d="M118.5,666.1c6.7,0,12.1,1.5,16.1,4.5c4,3,6,7.1,6,12.4c0,5.1-1.8,9-5.5,11.9l4.7,0.5v8.8H78.2v-9.7h22.3
		c-3.3-2.8-5-6.6-5-11.3c0-5.3,2-9.4,5.9-12.5c3.9-3,9.4-4.5,16.5-4.5H118.5z M117.6,675.8c-4.7,0-8.2,0.8-10.6,2.5
		c-2.3,1.7-3.5,4.1-3.5,7.2c0,4.2,1.8,7.2,5.5,8.9h17.9c3.8-1.7,5.6-4.7,5.6-9c0-3-1.1-5.4-3.4-7c-2.3-1.7-5.7-2.5-10.3-2.6H117.6z"
		/>
	<path class="st1" d="M85.1,657.9c-1.5,0-2.7-0.5-3.7-1.4c-1-0.9-1.5-2.3-1.5-4.1s0.5-3.1,1.5-4.1c1-1,2.2-1.4,3.7-1.4
		c1.5,0,2.7,0.5,3.7,1.4c1,1,1.5,2.3,1.5,4.1s-0.5,3.1-1.5,4.1C87.8,657.4,86.6,657.9,85.1,657.9z M139.7,647.6v9.7H96.3v-9.7H139.7
		z"/>
	<path class="st1" d="M139.7,626.6v9.7H78.2v-9.7H139.7z"/>
	<path class="st1" d="M85.1,616c-1.5,0-2.7-0.5-3.7-1.4c-1-0.9-1.5-2.3-1.5-4.1s0.5-3.1,1.5-4.1c1-1,2.2-1.4,3.7-1.4
		c1.5,0,2.7,0.5,3.7,1.4c1,1,1.5,2.3,1.5,4.1s-0.5,3.1-1.5,4.1C87.8,615.6,86.6,616,85.1,616z M139.7,605.7v9.7H96.3v-9.7H139.7z"/>
	<path class="st1" d="M85.8,582.9h10.5v-7.6h7.2v7.6h24.2c1.7,0,2.8-0.3,3.6-1c0.7-0.7,1.1-1.8,1.1-3.5c0-1.1-0.1-2.3-0.4-3.4h7.5
		c0.6,2.2,0.9,4.4,0.9,6.4c0,7.5-4.1,11.2-12.4,11.2h-24.5v7.1h-7.2v-7.1H85.8V582.9z"/>
	<path class="st1" d="M125.7,552.7l-29.4-8.8v-10.4l49.9,17.2c7.3,2.6,10.9,7.1,10.9,13.5c0,1.4-0.2,3-0.7,4.7h-7.6l0.1-1.8
		c0-2.5-0.4-4.3-1.3-5.5c-0.9-1.2-2.4-2.2-4.5-2.9l-3.7-1.4l-43.1,15.2v-10.5L125.7,552.7z"/>
	<path class="st1" d="M85.8,495.3h10.5v-7.6h7.2v7.6h24.2c1.7,0,2.8-0.3,3.6-1c0.7-0.7,1.1-1.8,1.1-3.5c0-1.1-0.1-2.3-0.4-3.4h7.5
		c0.6,2.2,0.9,4.4,0.9,6.4c0,7.5-4.1,11.2-12.4,11.2h-24.5v7.1h-7.2V505H85.8V495.3z"/>
	<path class="st1" d="M117.6,483.3c-4.2,0-8.1-0.8-11.5-2.5s-6-4-7.8-7.1c-1.8-3-2.7-6.5-2.7-10.5c0-5.8,1.9-10.6,5.6-14.2
		s8.8-5.6,15-5.9l2.3,0c4.3,0,8.1,0.8,11.5,2.5s6,4,7.8,7c1.8,3.1,2.8,6.6,2.8,10.6c0,6.1-2,11-6.1,14.7c-4.1,3.7-9.5,5.5-16.3,5.5
		H117.6z M118.5,473.5c4.5,0,7.9-0.9,10.5-2.8s3.8-4.4,3.8-7.7s-1.3-5.8-3.8-7.7c-2.6-1.8-6.3-2.7-11.3-2.7c-4.4,0-7.8,0.9-10.4,2.8
		s-3.8,4.4-3.8,7.7c0,3.2,1.3,5.7,3.8,7.6C109.7,472.6,113.4,473.5,118.5,473.5z"/>
	<path class="st1" d="M132.7,396.5c0-2.4-0.7-4.4-2.1-6c-1.4-1.6-3.2-2.5-5.2-2.6v-9.2c2.7,0.1,5.2,0.9,7.5,2.5
		c2.3,1.6,4.2,3.7,5.5,6.4s2,5.6,2,8.7c0,6.1-2,10.9-5.9,14.4s-9.3,5.3-16.3,5.3h-1c-6.6,0-11.9-1.8-15.8-5.3s-5.9-8.3-5.9-14.4
		c0-5.2,1.5-9.3,4.5-12.6s6.9-4.9,11.8-5.1v9.2c-2.5,0.1-4.5,1-6.1,2.5c-1.6,1.6-2.4,3.6-2.4,6.1c0,3.1,1.1,5.6,3.4,7.3
		s5.7,2.6,10.4,2.6h1.6c4.7,0,8.2-0.8,10.5-2.5C131.6,402.2,132.7,399.7,132.7,396.5z"/>
	<path class="st1" d="M117.6,373.2c-4.2,0-8.1-0.8-11.5-2.5s-6-4-7.8-7.1c-1.8-3-2.7-6.5-2.7-10.5c0-5.8,1.9-10.6,5.6-14.2
		s8.8-5.6,15-5.9l2.3,0c4.3,0,8.1,0.8,11.5,2.5s6,4,7.8,7c1.8,3.1,2.8,6.6,2.8,10.6c0,6.1-2,11-6.1,14.7c-4.1,3.7-9.5,5.5-16.3,5.5
		H117.6z M118.5,363.5c4.5,0,7.9-0.9,10.5-2.8s3.8-4.4,3.8-7.7s-1.3-5.8-3.8-7.7c-2.6-1.8-6.3-2.7-11.3-2.7c-4.4,0-7.8,0.9-10.4,2.8
		s-3.8,4.4-3.8,7.7c0,3.2,1.3,5.7,3.8,7.6S113.4,363.5,118.5,363.5z"/>
	<path class="st1" d="M118.5,286.8c6.7,0,12,1.5,16,4.6c4,3,6,7.1,6,12.3c0,4.8-1.6,8.6-4.7,11.4h20.5v9.7h-60v-9l4.4-0.4
		c-3.5-2.9-5.2-6.7-5.2-11.7c0-5.3,2-9.4,5.9-12.4c3.9-3,9.4-4.5,16.4-4.5H118.5z M117.6,296.5c-4.3,0-7.8,0.9-10.3,2.6
		c-2.5,1.7-3.8,4.2-3.8,7.4c0,4,1.6,6.8,4.9,8.6h19.2c3.4-1.8,5-4.6,5-8.6c0-3.1-1.2-5.5-3.7-7.3
		C126.5,297.4,122.7,296.5,117.6,296.5z"/>
	<path class="st1" d="M140.5,259.5c0,6.2-1.9,11.2-5.8,15c-3.9,3.8-9.1,5.7-15.5,5.7h-1.2c-4.3,0-8.2-0.8-11.6-2.5
		c-3.4-1.7-6.1-4-7.9-7c-1.9-3-2.8-6.4-2.8-10.1c0-5.9,1.9-10.5,5.6-13.7c3.8-3.2,9.1-4.8,16-4.8h3.9v28.3c3.6-0.3,6.4-1.5,8.5-3.6
		c2.1-2.1,3.1-4.7,3.1-7.9c0-4.5-1.8-8.1-5.4-10.9l5-5.2c2.6,1.7,4.6,4.1,6,6.9C139.8,252.6,140.5,255.9,140.5,259.5z M103.4,260.6
		c0,2.7,0.9,4.8,2.8,6.5c1.9,1.6,4.5,2.7,7.8,3.1v-18.5h-0.7c-3.3,0.2-5.7,1.1-7.4,2.6C104.2,255.8,103.4,257.9,103.4,260.6z"/>
</g>
</svg>
