<?xml version="1.0" encoding="utf-8"?>
<!-- Generator: Adobe Illustrator 25.4.4, SVG Export Plug-In . SVG Version: 6.00 Build 0)  -->
<svg version="1.1" id="Layer_1" xmlns="http://www.w3.org/2000/svg" xmlns:xlink="http://www.w3.org/1999/xlink" x="0px" y="0px"
	 viewBox="0 0 172.9 68.1" style="enable-background:new 0 0 172.9 68.1;" xml:space="preserve">
<style type="text/css">
	.st0{fill:#BD89F4;}
	.st1{fill:url(#SVGID_1_);}
	.st2{fill:#004E66;}
</style>
<path class="st0" d="M51.6,63.3C35.5,73,14.5,67.7,4.9,51.6S0.4,14.5,16.6,4.8c10.8-6.5,24.2-6.5,35,0c9.3,4.4,21.5,7,34.9,7
	s25.6-2.7,34.9-7c16.1-9.7,37.1-4.4,46.7,11.7c9.7,16.1,4.4,37.1-11.7,46.7c-10.8,6.5-24.2,6.5-35,0c-9.3-4.4-21.5-7-34.9-7
	S60.8,58.9,51.6,63.3z"/>
<linearGradient id="SVGID_1_" gradientUnits="userSpaceOnUse" x1="86.5108" y1="1012.06" x2="86.5108" y2="1075.63" gradientTransform="matrix(1 0 0 1 0 -1010)">
	<stop  offset="0" style="stop-color:#FFFFFF;stop-opacity:0.3"/>
	<stop  offset="0.21" style="stop-color:#FFFFFF;stop-opacity:0.26"/>
	<stop  offset="0.55" style="stop-color:#FFFFFF;stop-opacity:0.16"/>
	<stop  offset="0.99" style="stop-color:#FFFFFF;stop-opacity:0"/>
	<stop  offset="0.99" style="stop-color:#FFFFFF;stop-opacity:0"/>
</linearGradient>
<path class="st1" d="M51.6,63.3C35.5,73,14.5,67.7,4.9,51.6S0.4,14.5,16.6,4.8c10.8-6.5,24.2-6.5,35,0c9.3,4.4,21.5,7,34.9,7
	s25.6-2.7,34.9-7c16.1-9.7,37.1-4.4,46.7,11.7c9.7,16.1,4.4,37.1-11.7,46.7c-10.8,6.5-24.2,6.5-35,0c-9.3-4.4-21.5-7-34.9-7
	S60.8,58.9,51.6,63.3z"/>
<path class="st2" d="M34.1,14.6c-10.7,0-19.5,8.7-19.5,19.5s8.7,19.5,19.5,19.5s19.5-8.7,19.5-19.5l0,0
	C53.5,23.3,44.8,14.6,34.1,14.6z M34.1,51.2c-9.4,0-17.1-7.7-17.1-17.1S24.6,17,34.1,17s17.1,7.7,17.1,17.1l0,0
	C51.2,43.5,43.5,51.2,34.1,51.2z"/>
<path class="st2" d="M42.7,34.1c0,4.7-3.9,8.6-8.6,8.6s-8.6-3.9-8.6-8.6s3.9-8.6,8.6-8.6C38.8,25.5,42.7,29.3,42.7,34.1L42.7,34.1z"
	/>
<path class="st2" d="M34.1,23.8c-5.7,0-10.3,4.6-10.3,10.2S28.4,44.3,34,44.3c5.7,0,10.3-4.6,10.3-10.2l0,0
	C44.3,28.4,39.7,23.8,34.1,23.8L34.1,23.8z M34.1,42.7c-4.7,0-8.6-3.9-8.6-8.6s3.9-8.6,8.6-8.6s8.6,3.9,8.6,8.6S38.8,42.7,34.1,42.7
	L34.1,42.7z"/>
<path class="st2" d="M129.1,17.2c-9.3,5.4-12.5,17.3-7.1,26.6s17.3,12.5,26.6,7.1s12.5-17.3,7.1-26.6l0,0
	C150.3,15,138.4,11.9,129.1,17.2z M147.4,48.9c-8.2,4.7-18.6,1.9-23.4-6.3s-1.9-18.6,6.3-23.4s18.6-1.9,23.4,6.3l0,0
	C158.4,33.7,155.6,44.1,147.4,48.9z"/>
<path class="st2" d="M146.3,29.8c2.4,4.1,1,9.4-3.2,11.7c-4.1,2.4-9.4,1-11.7-3.2c-2.4-4.1-1-9.4,3.1-11.7
	C138.7,24.2,143.9,25.6,146.3,29.8L146.3,29.8z"/>
<path class="st2" d="M133.7,25.2c-4.9,2.8-6.6,9.1-3.7,14c2.8,4.9,9.1,6.6,14,3.7c4.9-2.8,6.6-9.1,3.7-14
	C144.9,24,138.6,22.4,133.7,25.2L133.7,25.2z M143.2,41.5c-4.1,2.4-9.4,1-11.7-3.1c-2.4-4.1-1-9.4,3.1-11.7c4.1-2.4,9.4-1,11.7,3.1
	C148.7,33.9,147.3,39.1,143.2,41.5L143.2,41.5z"/>
</svg>
