<svg xmlns="http://www.w3.org/2000/svg" viewBox="0 0 1920 903.11">
  <g id="blocks">
    <rect x="473" width="661" height="655.11" fill="#0c3465"/>
    <rect y="0.11" width="393" height="317.25" fill="#73b2e5"/>
    <polygon points="413 634.36 20 634.36 20 317.11 413 317.11 443 475.74 413 634.36" fill="#fff"/>
    <rect y="337.36" width="393" height="317.25" fill="#3290ea"/>
  </g>
  <g id="arrows">
    <polygon points="454.84 159.11 413.27 135.11 413.27 183.11 454.84 159.11" fill="#73b2e5"/>
    <polygon points="1194.84 159.11 1153.27 135.11 1153.27 183.11 1194.84 159.11" fill="#73b2e5"/>
    <polygon points="454.84 495.11 413.27 471.11 413.27 519.11 454.84 495.11" fill="#3290ea"/>
    <polygon points="1194.84 495.11 1153.27 471.11 1153.27 519.11 1194.84 495.11" fill="#3290ea"/>
  </g>
  <g id="text">
    <g>
      <path d="M131.54,134.9a3.4,3.4,0,0,0-1.27-2.82,16.13,16.13,0,0,0-4.49-2.08,43.59,43.59,0,0,1-5.25-2.09q-6.63-3.25-6.64-9a8.07,8.07,0,0,1,1.66-5,10.69,10.69,0,0,1,4.67-3.37,18.11,18.11,0,0,1,6.8-1.21,16,16,0,0,1,6.6,1.31,10.56,10.56,0,0,1,4.53,3.74,9.77,9.77,0,0,1,1.62,5.55h-8.2a4.15,4.15,0,0,0-1.28-3.24,5,5,0,0,0-3.46-1.15,5.6,5.6,0,0,0-3.48,1,3,3,0,0,0-1.28,2.47,3,3,0,0,0,1.41,2.38,17.91,17.91,0,0,0,5,2.2,30.19,30.19,0,0,1,5.81,2.45q5.53,3.18,5.53,8.79a8.34,8.34,0,0,1-3.38,7q-3.37,2.55-9.25,2.55a18.45,18.45,0,0,1-7.52-1.48,11.4,11.4,0,0,1-5.06-4.08,10.67,10.67,0,0,1-1.7-6h8.25a5.27,5.27,0,0,0,1.42,4c1,.86,2.48,1.3,4.61,1.3a5.33,5.33,0,0,0,3.22-.88A2.9,2.9,0,0,0,131.54,134.9Z"/>
      <path d="M152.82,112.3v6.31H157v5.48h-4.18v11.6a3,3,0,0,0,.52,2,2.73,2.73,0,0,0,2,.57,12,12,0,0,0,2-.14v5.65a14.69,14.69,0,0,1-4.46.67q-4.06,0-6-1.92c-1.3-1.28-1.94-3.22-1.94-5.83V124.09h-3.24v-5.48h3.24V112.3Z"/>
      <path d="M175.21,141.22a8.15,8.15,0,0,1-6.78,3.21c-2.78,0-4.88-.8-6.31-2.42s-2.15-3.94-2.15-7V118.61h7.9v16.47c0,2.18,1.06,3.26,3.17,3.26a4.12,4.12,0,0,0,3.86-1.94V118.61h7.95V144h-7.41Z"/>
      <path d="M186.18,131.1q0-6,2.6-9.49a8.53,8.53,0,0,1,7.26-3.47,7.29,7.29,0,0,1,5.72,2.67V108h7.92v36h-7.1l-.4-2.72a7.46,7.46,0,0,1-6.18,3.18,8.56,8.56,0,0,1-7.18-3.46Q186.18,137.49,186.18,131.1Zm7.89.49c0,4.5,1.32,6.75,3.94,6.75a3.88,3.88,0,0,0,3.75-2.2v-9.66a3.78,3.78,0,0,0-3.7-2.25q-3.66,0-4,5.91Z"/>
      <path d="M226.44,144.43A13,13,0,0,1,217,141a12,12,0,0,1-3.61-9v-.66a15.63,15.63,0,0,1,1.44-6.87,10.49,10.49,0,0,1,4.21-4.6,12.65,12.65,0,0,1,6.56-1.63,11,11,0,0,1,8.44,3.31q3.09,3.33,3.09,9.25v3.07h-15.7a5.64,5.64,0,0,0,1.85,3.35,5.5,5.5,0,0,0,3.7,1.22,7.1,7.1,0,0,0,5.86-2.62l3.61,4.26a10.19,10.19,0,0,1-4.18,3.25A14.25,14.25,0,0,1,226.44,144.43Zm-.89-20.2c-2.31,0-3.69,1.53-4.12,4.6h8v-.61a3.51,3.51,0,0,0-3.84-4Z"/>
      <path d="M247.56,118.61l.26,3a8.61,8.61,0,0,1,7.24-3.44q4,0,5.92,2.37c1.3,1.57,2,3.95,2,7.12V144h-7.92V128a4.35,4.35,0,0,0-.77-2.83,3.58,3.58,0,0,0-2.81-.9,3.77,3.77,0,0,0-3.45,1.83V144h-7.9V118.61Z"/>
      <path d="M276.57,112.3v6.31h4.18v5.48h-4.18v11.6a3,3,0,0,0,.52,2,2.73,2.73,0,0,0,2,.57,12,12,0,0,0,2-.14v5.65a14.69,14.69,0,0,1-4.46.67q-4.06,0-6-1.92c-1.3-1.28-1.94-3.22-1.94-5.83V124.09h-3.24v-5.48h3.24V112.3Z"/>
      <path d="M75.56,193.62H62.34l-2.76,7.95H53.41L66.3,167.44h5.32l12.92,34.13H78.35ZM64,188.84H73.9l-5-14.16Z"/>
      <path d="M110.25,172.22H99.61v29.35H93.73V172.22H83.18v-4.78h27.07Z"/>
      <path d="M140.11,190.46a12.32,12.32,0,0,1-4,8.52q-3.53,3.06-9.35,3.06a13.32,13.32,0,0,1-7.19-1.94,12.74,12.74,0,0,1-4.79-5.49,19.86,19.86,0,0,1-1.76-8.28v-3.19a20,20,0,0,1,1.71-8.5,12.9,12.9,0,0,1,4.91-5.68,13.8,13.8,0,0,1,7.4-2A13.19,13.19,0,0,1,136.1,170a12.8,12.8,0,0,1,4,8.66H134.2q-.42-3.67-2.14-5.31a7.11,7.11,0,0,0-5-1.63,6.93,6.93,0,0,0-5.94,2.83c-1.39,1.89-2.09,4.65-2.12,8.29v3q0,5.53,2,8.45a6.58,6.58,0,0,0,5.8,2.9,7.68,7.68,0,0,0,5.25-1.57c1.17-1,1.91-2.79,2.22-5.22Z"/>
      <path d="M172.64,185.39a21.08,21.08,0,0,1-1.73,8.81,13.14,13.14,0,0,1-5,5.81,14.52,14.52,0,0,1-14.81,0,13.29,13.29,0,0,1-5-5.78,20.19,20.19,0,0,1-1.79-8.65v-1.92a20.71,20.71,0,0,1,1.77-8.81,13.27,13.27,0,0,1,5-5.85,14.55,14.55,0,0,1,14.79,0,13,13,0,0,1,5,5.76,20.84,20.84,0,0,1,1.78,8.76Zm-5.93-1.78q0-5.67-2.14-8.69a7.56,7.56,0,0,0-12.1,0q-2.16,3-2.21,8.52v2q0,5.63,2.19,8.7a7,7,0,0,0,6.08,3.07,7,7,0,0,0,6.06-3q2.11-3,2.12-8.77Z"/>
      <path d="M196,201.57h-5.7v-36H196Z"/>
      <path d="M202.22,169.62a3.05,3.05,0,0,1,.83-2.18,3.7,3.7,0,0,1,4.77,0,3,3,0,0,1,.84,2.18,3,3,0,0,1-.84,2.15,3.77,3.77,0,0,1-4.77,0A3,3,0,0,1,202.22,169.62Zm6.05,31.95h-5.7V176.21h5.7Z"/>
      <path d="M224.88,197.49a5.2,5.2,0,0,0,3.54-1.24,4.24,4.24,0,0,0,1.5-3.07h5.37a8.34,8.34,0,0,1-1.48,4.41,9.67,9.67,0,0,1-3.75,3.25A11.14,11.14,0,0,1,225,202a10.79,10.79,0,0,1-8.43-3.45q-3.12-3.45-3.12-9.52v-.58q0-5.79,3.09-9.27a10.72,10.72,0,0,1,8.44-3.48,10.44,10.44,0,0,1,7.37,2.63,9.44,9.44,0,0,1,3,6.93h-5.37a5.22,5.22,0,0,0-1.49-3.59,4.81,4.81,0,0,0-3.55-1.4,5,5,0,0,0-4.26,2q-1.5,2-1.53,6.08v.92q0,4.13,1.49,6.15A5,5,0,0,0,224.88,197.49Z"/>
      <path d="M250.76,202a11.77,11.77,0,0,1-8.78-3.42,12.37,12.37,0,0,1-3.36-9.08v-.7a15.35,15.35,0,0,1,1.46-6.79,11.17,11.17,0,0,1,4.12-4.65,10.84,10.84,0,0,1,5.9-1.66,10,10,0,0,1,8,3.3q2.82,3.32,2.82,9.35v2.3H244.36a7.58,7.58,0,0,0,2.1,5,6.29,6.29,0,0,0,4.63,1.83,7.7,7.7,0,0,0,6.37-3.17l3.07,2.93a10.12,10.12,0,0,1-4.07,3.53A12.63,12.63,0,0,1,250.76,202Zm-.68-21.73a4.82,4.82,0,0,0-3.79,1.64,8.54,8.54,0,0,0-1.84,4.57H255.3v-.42a6.91,6.91,0,0,0-1.52-4.33A4.77,4.77,0,0,0,250.08,180.31Z"/>
      <path d="M270.63,176.21l.17,2.93a9.09,9.09,0,0,1,7.38-3.4q7.92,0,8.06,9.07v16.76h-5.69V185.14a5.23,5.23,0,0,0-1.05-3.58,4.39,4.39,0,0,0-3.41-1.16,5.5,5.5,0,0,0-5.13,3.12v18h-5.69V176.21Z"/>
      <path d="M302.46,197.49a5.2,5.2,0,0,0,3.54-1.24,4.24,4.24,0,0,0,1.5-3.07h5.37a8.43,8.43,0,0,1-1.48,4.41,9.67,9.67,0,0,1-3.75,3.25,11.14,11.14,0,0,1-5.11,1.2,10.81,10.81,0,0,1-8.44-3.45q-3.1-3.45-3.11-9.52v-.58q0-5.79,3.09-9.27a10.72,10.72,0,0,1,8.44-3.48,10.46,10.46,0,0,1,7.37,2.63,9.48,9.48,0,0,1,3,6.93H307.5a5.22,5.22,0,0,0-1.49-3.59,4.81,4.81,0,0,0-3.55-1.4,5,5,0,0,0-4.26,2q-1.5,2-1.53,6.08v.92q0,4.13,1.49,6.15A5,5,0,0,0,302.46,197.49Z"/>
      <path d="M328.34,202a11.77,11.77,0,0,1-8.78-3.42,12.37,12.37,0,0,1-3.36-9.08v-.7a15.22,15.22,0,0,1,1.46-6.79,11.21,11.21,0,0,1,4.11-4.65,10.89,10.89,0,0,1,5.91-1.66q5.18,0,8,3.3t2.83,9.35v2.3H321.94a7.58,7.58,0,0,0,2.1,5,6.26,6.26,0,0,0,4.62,1.83,7.72,7.72,0,0,0,6.38-3.17l3.07,2.93a10.19,10.19,0,0,1-4.07,3.53A12.63,12.63,0,0,1,328.34,202Zm-.68-21.73a4.81,4.81,0,0,0-3.79,1.64,8.54,8.54,0,0,0-1.84,4.57h10.85v-.42a6.91,6.91,0,0,0-1.52-4.33A4.78,4.78,0,0,0,327.66,180.31Z"/>
    </g>
    <g>
      <path d="M75.56,504H62.34l-2.76,7.94H53.41L66.3,477.77h5.32l12.92,34.12H78.35ZM64,499.16H73.9L69,485Z" fill="#fff"/>
      <path d="M110.25,482.55H99.61v29.34H93.73V482.55H83.18v-4.78h27.07Z" fill="#fff"/>
      <path d="M140.11,500.78a12.32,12.32,0,0,1-4,8.52q-3.53,3.06-9.35,3.06a13.32,13.32,0,0,1-7.19-1.93,12.71,12.71,0,0,1-4.79-5.5,19.77,19.77,0,0,1-1.76-8.27v-3.19A20,20,0,0,1,114.7,485a12.93,12.93,0,0,1,4.91-5.67,13.71,13.71,0,0,1,7.4-2,13.19,13.19,0,0,1,9.09,3.06,12.76,12.76,0,0,1,4,8.66H134.2q-.42-3.69-2.14-5.31a7.07,7.07,0,0,0-5-1.63,6.9,6.9,0,0,0-5.94,2.83c-1.39,1.88-2.09,4.64-2.12,8.29v3c0,3.7.66,6.51,2,8.45a6.57,6.57,0,0,0,5.8,2.91A7.68,7.68,0,0,0,132,506q1.76-1.58,2.22-5.23Z" fill="#fff"/>
      <path d="M172.64,495.72a21,21,0,0,1-1.73,8.8,13.14,13.14,0,0,1-5,5.81,14.52,14.52,0,0,1-14.81,0,13.26,13.26,0,0,1-5-5.77,20.22,20.22,0,0,1-1.79-8.65V494a20.78,20.78,0,0,1,1.77-8.81,13.38,13.38,0,0,1,5-5.85,13.59,13.59,0,0,1,7.39-2,13.76,13.76,0,0,1,7.4,2,13.13,13.13,0,0,1,5,5.77,20.76,20.76,0,0,1,1.78,8.75Zm-5.93-1.78q0-5.67-2.14-8.7a7.58,7.58,0,0,0-12.1,0q-2.16,3-2.21,8.52v2q0,5.63,2.19,8.69a7,7,0,0,0,6.08,3.07,7,7,0,0,0,6.06-3q2.11-3,2.12-8.76Z" fill="#fff"/>
      <path d="M196,511.89h-5.7v-36H196Z" fill="#fff"/>
      <path d="M202.22,480a3,3,0,0,1,.83-2.18,3.7,3.7,0,0,1,4.77,0,3,3,0,0,1,.84,2.18,2.93,2.93,0,0,1-.84,2.14,3.74,3.74,0,0,1-4.77,0A3,3,0,0,1,202.22,480Zm6.05,31.94h-5.7V486.53h5.7Z" fill="#fff"/>
      <path d="M224.88,507.81a5.15,5.15,0,0,0,3.54-1.24,4.23,4.23,0,0,0,1.5-3.07h5.37a8.37,8.37,0,0,1-1.48,4.42,9.57,9.57,0,0,1-3.75,3.24,11.14,11.14,0,0,1-5.11,1.2,10.79,10.79,0,0,1-8.43-3.45q-3.12-3.44-3.12-9.51v-.59q0-5.79,3.09-9.27a10.72,10.72,0,0,1,8.44-3.48,10.4,10.4,0,0,1,7.37,2.64,9.44,9.44,0,0,1,3,6.93h-5.37a5.21,5.21,0,0,0-1.49-3.59,4.78,4.78,0,0,0-3.55-1.41,5,5,0,0,0-4.26,2q-1.5,2-1.53,6.08v.91q0,4.13,1.49,6.16A5,5,0,0,0,224.88,507.81Z" fill="#fff"/>
      <path d="M250.76,512.36A11.8,11.8,0,0,1,242,509a12.37,12.37,0,0,1-3.36-9.08v-.71a15.28,15.28,0,0,1,1.46-6.78,11.17,11.17,0,0,1,4.12-4.65,10.84,10.84,0,0,1,5.9-1.67,10,10,0,0,1,8,3.31q2.82,3.3,2.82,9.35V501H244.36a7.56,7.56,0,0,0,2.1,5,6.29,6.29,0,0,0,4.63,1.83,7.7,7.7,0,0,0,6.37-3.16l3.07,2.93a10.28,10.28,0,0,1-4.07,3.53A12.76,12.76,0,0,1,250.76,512.36Zm-.68-21.73a4.82,4.82,0,0,0-3.79,1.64,8.58,8.58,0,0,0-1.84,4.57H255.3v-.42a6.88,6.88,0,0,0-1.52-4.32A4.74,4.74,0,0,0,250.08,490.63Z" fill="#fff"/>
      <path d="M270.63,486.53l.17,2.93a9.12,9.12,0,0,1,7.38-3.4q7.92,0,8.06,9.07v16.76h-5.69V495.46a5.18,5.18,0,0,0-1.05-3.57,4.35,4.35,0,0,0-3.41-1.16,5.5,5.5,0,0,0-5.13,3.11v18.05h-5.69V486.53Z" fill="#fff"/>
      <path d="M302.46,507.81a5.15,5.15,0,0,0,3.54-1.24,4.23,4.23,0,0,0,1.5-3.07h5.37a8.46,8.46,0,0,1-1.48,4.42,9.57,9.57,0,0,1-3.75,3.24,11.14,11.14,0,0,1-5.11,1.2,10.81,10.81,0,0,1-8.44-3.45q-3.1-3.44-3.11-9.51v-.59q0-5.79,3.09-9.27a10.72,10.72,0,0,1,8.44-3.48,10.42,10.42,0,0,1,7.37,2.64,9.48,9.48,0,0,1,3,6.93H307.5A5.21,5.21,0,0,0,306,492a4.78,4.78,0,0,0-3.55-1.41,5,5,0,0,0-4.26,2q-1.5,2-1.53,6.08v.91q0,4.13,1.49,6.16A5,5,0,0,0,302.46,507.81Z" fill="#fff"/>
      <path d="M328.34,512.36a11.8,11.8,0,0,1-8.78-3.41,12.37,12.37,0,0,1-3.36-9.08v-.71a15.14,15.14,0,0,1,1.46-6.78,11.21,11.21,0,0,1,4.11-4.65,10.9,10.9,0,0,1,5.91-1.67q5.18,0,8,3.31t2.83,9.35V501H321.94a7.56,7.56,0,0,0,2.1,5,6.26,6.26,0,0,0,4.62,1.83,7.71,7.71,0,0,0,6.38-3.16l3.07,2.93a10.34,10.34,0,0,1-4.07,3.53A12.76,12.76,0,0,1,328.34,512.36Zm-.68-21.73a4.81,4.81,0,0,0-3.79,1.64,8.58,8.58,0,0,0-1.84,4.57h10.85v-.42a6.88,6.88,0,0,0-1.52-4.32A4.75,4.75,0,0,0,327.66,490.63Z" fill="#fff"/>
    </g>
    <g>
      <path d="M526.87,281.22V304a11.06,11.06,0,0,1-3.48,8.61,13.21,13.21,0,0,1-9.27,3.18q-5.87,0-9.31-3.13T501.37,304V281.22h5.9V304a7.23,7.23,0,0,0,1.74,5.23,6.77,6.77,0,0,0,5.11,1.81q6.84,0,6.84-7.22V281.22Z" fill="#f6cb07"/>
      <path d="M537.93,290l.16,2.93a9.15,9.15,0,0,1,7.39-3.4q7.92,0,8.06,9.07v16.76h-5.7V298.91a5.18,5.18,0,0,0-1-3.57,4.35,4.35,0,0,0-3.41-1.16,5.48,5.48,0,0,0-5.13,3.11v18h-5.7V290Z" fill="#f6cb07"/>
      <path d="M559.35,283.4a3,3,0,0,1,.83-2.18,3.7,3.7,0,0,1,4.77,0,3,3,0,0,1,.85,2.18,2.89,2.89,0,0,1-.85,2.14,3.74,3.74,0,0,1-4.77,0A3,3,0,0,1,559.35,283.4Zm6,31.94h-5.7V290h5.7Z" fill="#f6cb07"/>
      <path d="M578.73,283.82V290h4.48v4.22h-4.48v14.16a3.11,3.11,0,0,0,.58,2.09,2.66,2.66,0,0,0,2.05.65,8.52,8.52,0,0,0,2-.24v4.41a14,14,0,0,1-3.75.54q-6.55,0-6.56-7.24V294.2h-4.17V290H573v-6.16Z" fill="#f6cb07"/>
      <path d="M620,300.11H606v10.5h16.39v4.73H600.06V281.22h22.15V286H606v9.42h14Z" fill="#f6cb07"/>
      <path d="M631.94,290l.16,2.93a9.15,9.15,0,0,1,7.38-3.4c5.29,0,8,3,8.07,9.07v16.76h-5.7V298.91a5.23,5.23,0,0,0-1-3.57,4.37,4.37,0,0,0-3.41-1.16,5.48,5.48,0,0,0-5.13,3.11v18h-5.7V290Z" fill="#f6cb07"/>
      <path d="M652.28,302.47q0-5.85,2.72-9.41a8.72,8.72,0,0,1,7.29-3.55,8.24,8.24,0,0,1,6.51,2.82v-13h5.7v36h-5.16l-.28-2.62a8.39,8.39,0,0,1-6.82,3.09,8.65,8.65,0,0,1-7.2-3.59Q652.28,308.64,652.28,302.47Zm5.7.5a10.56,10.56,0,0,0,1.48,6,4.84,4.84,0,0,0,4.24,2.17,5.36,5.36,0,0,0,5.1-3.12V297.22a5.28,5.28,0,0,0-5.06-3,4.86,4.86,0,0,0-4.26,2.19Q658,298.56,658,303Z" fill="#f6cb07"/>
      <path d="M679.38,302.43a15,15,0,0,1,1.47-6.72,10.83,10.83,0,0,1,4.15-4.59,11.69,11.69,0,0,1,6.14-1.61,11,11,0,0,1,8.33,3.31,12.94,12.94,0,0,1,3.46,8.76l0,1.34a15.09,15.09,0,0,1-1.44,6.7,10.63,10.63,0,0,1-4.12,4.57,11.77,11.77,0,0,1-6.2,1.62,11,11,0,0,1-8.59-3.57q-3.23-3.58-3.22-9.53Zm5.69.49a10.21,10.21,0,0,0,1.62,6.13,5.27,5.27,0,0,0,4.5,2.21,5.2,5.2,0,0,0,4.49-2.25q1.61-2.25,1.6-6.58a10.1,10.1,0,0,0-1.65-6.1,5.28,5.28,0,0,0-4.49-2.25,5.22,5.22,0,0,0-4.43,2.22Q685.08,298.51,685.07,302.92Z" fill="#f6cb07"/>
      <path d="M721.05,295.18a14.73,14.73,0,0,0-2.32-.18q-3.91,0-5.28,3v17.34h-5.69V290h5.44l.14,2.84a6.4,6.4,0,0,1,5.71-3.31,5.3,5.3,0,0,1,2,.33Z" fill="#f6cb07"/>
      <path d="M738.86,308.45a2.58,2.58,0,0,0-1.25-2.32,13.57,13.57,0,0,0-4.16-1.41,21.43,21.43,0,0,1-4.86-1.54q-4.26-2.07-4.26-6a6.73,6.73,0,0,1,2.76-5.48,11,11,0,0,1,7-2.21,11.35,11.35,0,0,1,7.35,2.25,7.14,7.14,0,0,1,2.8,5.84h-5.69a3.53,3.53,0,0,0-1.22-2.73,4.65,4.65,0,0,0-3.24-1.09,5,5,0,0,0-3,.87,2.73,2.73,0,0,0-1.19,2.32,2.33,2.33,0,0,0,1.1,2,15.32,15.32,0,0,0,4.46,1.46,21,21,0,0,1,5.26,1.76,7.46,7.46,0,0,1,2.84,2.45,6.3,6.3,0,0,1,.92,3.47,6.59,6.59,0,0,1-2.84,5.54,12.09,12.09,0,0,1-7.42,2.12,13.15,13.15,0,0,1-5.56-1.13,9.22,9.22,0,0,1-3.8-3.09,7.37,7.37,0,0,1-1.36-4.24H729a4,4,0,0,0,1.52,3.1,5.91,5.91,0,0,0,3.73,1.09,5.75,5.75,0,0,0,3.42-.85A2.65,2.65,0,0,0,738.86,308.45Z" fill="#f6cb07"/>
      <path d="M760.59,315.81a11.8,11.8,0,0,1-8.78-3.41,12.37,12.37,0,0,1-3.36-9.08v-.71a15.14,15.14,0,0,1,1.46-6.78,11.21,11.21,0,0,1,4.11-4.65,10.9,10.9,0,0,1,5.91-1.67q5.18,0,8,3.31t2.83,9.35v2.3H754.19a7.56,7.56,0,0,0,2.1,5,6.26,6.26,0,0,0,4.62,1.83,7.71,7.71,0,0,0,6.38-3.16l3.07,2.93a10.34,10.34,0,0,1-4.07,3.53A12.76,12.76,0,0,1,760.59,315.81Zm-.68-21.73a4.81,4.81,0,0,0-3.79,1.64,8.58,8.58,0,0,0-1.84,4.57h10.85v-.42a6.88,6.88,0,0,0-1.52-4.32A4.75,4.75,0,0,0,759.91,294.08Z" fill="#f6cb07"/>
      <path d="M780.53,290l.17,2.65a9.11,9.11,0,0,1,7.31-3.12q5.09,0,7,3.89a9,9,0,0,1,7.78-3.89c2.8,0,4.88.78,6.25,2.32s2.06,3.83,2.09,6.85v16.66H805.4v-16.5a5,5,0,0,0-1.06-3.54,4.6,4.6,0,0,0-3.49-1.12,4.69,4.69,0,0,0-3.17,1A5.57,5.57,0,0,0,796,298l0,17.39h-5.7V298.65q-.12-4.47-4.57-4.47a5,5,0,0,0-4.85,2.79v18.37h-5.7V290Z" fill="#f6cb07"/>
      <path d="M828.11,315.81a11.8,11.8,0,0,1-8.78-3.41,12.37,12.37,0,0,1-3.36-9.08v-.71a15.28,15.28,0,0,1,1.46-6.78,11.17,11.17,0,0,1,4.12-4.65,10.84,10.84,0,0,1,5.9-1.67c3.46,0,6.12,1.1,8,3.31s2.82,5.32,2.82,9.35v2.3H821.71a7.56,7.56,0,0,0,2.1,5,6.3,6.3,0,0,0,4.63,1.83,7.7,7.7,0,0,0,6.37-3.16l3.07,2.93a10.31,10.31,0,0,1-4.06,3.53A12.83,12.83,0,0,1,828.11,315.81Zm-.68-21.73a4.83,4.83,0,0,0-3.79,1.64,8.58,8.58,0,0,0-1.84,4.57h10.86v-.42a6.94,6.94,0,0,0-1.53-4.32A4.74,4.74,0,0,0,827.43,294.08Z" fill="#f6cb07"/>
      <path d="M848,290l.17,2.93a9.12,9.12,0,0,1,7.38-3.4q7.92,0,8.06,9.07v16.76H857.9V298.91a5.23,5.23,0,0,0-1-3.57,4.38,4.38,0,0,0-3.41-1.16,5.51,5.51,0,0,0-5.14,3.11v18h-5.69V290Z" fill="#f6cb07"/>
      <path d="M876.53,283.82V290H881v4.22h-4.48v14.16a3.05,3.05,0,0,0,.58,2.09,2.65,2.65,0,0,0,2,.65,8.59,8.59,0,0,0,2-.24v4.41a14,14,0,0,1-3.75.54q-6.57,0-6.56-7.24V294.2h-4.18V290h4.18v-6.16Z" fill="#f6cb07"/>
      <path d="M923.9,304.23a12.37,12.37,0,0,1-4,8.52q-3.52,3.06-9.35,3.06a13.32,13.32,0,0,1-7.19-1.93,12.64,12.64,0,0,1-4.79-5.5,19.77,19.77,0,0,1-1.76-8.27v-3.19a20,20,0,0,1,1.71-8.51,12.93,12.93,0,0,1,4.91-5.67,13.71,13.71,0,0,1,7.4-2,13.19,13.19,0,0,1,9.09,3.06,12.78,12.78,0,0,1,4,8.66H918q-.42-3.69-2.14-5.31a7.07,7.07,0,0,0-5.05-1.63,6.9,6.9,0,0,0-5.94,2.83c-1.39,1.88-2.09,4.64-2.13,8.29v3c0,3.7.66,6.51,2,8.45a6.59,6.59,0,0,0,5.81,2.91,7.68,7.68,0,0,0,5.25-1.57q1.76-1.57,2.22-5.23Z" fill="#f6cb07"/>
      <path d="M927.58,302.43a15,15,0,0,1,1.47-6.72,10.83,10.83,0,0,1,4.15-4.59,11.69,11.69,0,0,1,6.14-1.61,11.07,11.07,0,0,1,8.34,3.31,13,13,0,0,1,3.45,8.76l0,1.34a15,15,0,0,1-1.45,6.7,10.63,10.63,0,0,1-4.12,4.57,11.77,11.77,0,0,1-6.2,1.62,11,11,0,0,1-8.59-3.57q-3.22-3.58-3.22-9.53Zm5.69.49a10.21,10.21,0,0,0,1.62,6.13,5.27,5.27,0,0,0,4.5,2.21,5.2,5.2,0,0,0,4.49-2.25q1.61-2.25,1.6-6.58a10.1,10.1,0,0,0-1.65-6.1,5.57,5.57,0,0,0-8.92,0Q933.28,298.51,933.27,302.92Z" fill="#f6cb07"/>
      <path d="M971.34,312.86a8.85,8.85,0,0,1-7.13,2.95q-4.12,0-6.25-2.41t-2.12-7V290h5.7v16.36q0,4.83,4,4.83t5.6-3V290h5.69v25.36h-5.36Z" fill="#f6cb07"/>
      <path d="M995.92,295.18a14.63,14.63,0,0,0-2.32-.18q-3.92,0-5.27,3v17.34h-5.7V290h5.44l.14,2.84a6.41,6.41,0,0,1,5.72-3.31,5.37,5.37,0,0,1,2,.33Z" fill="#f6cb07"/>
      <path d="M1013.73,308.45a2.56,2.56,0,0,0-1.25-2.32,13.47,13.47,0,0,0-4.16-1.41,21.34,21.34,0,0,1-4.85-1.54q-4.28-2.07-4.27-6a6.71,6.71,0,0,1,2.77-5.48,10.93,10.93,0,0,1,7-2.21,11.39,11.39,0,0,1,7.35,2.25,7.17,7.17,0,0,1,2.8,5.84h-5.7a3.5,3.5,0,0,0-1.22-2.73,4.65,4.65,0,0,0-3.23-1.09,5,5,0,0,0-3.06.87,2.72,2.72,0,0,0-1.18,2.32,2.31,2.31,0,0,0,1.1,2,15.22,15.22,0,0,0,4.45,1.46,20.83,20.83,0,0,1,5.26,1.76,7.38,7.38,0,0,1,2.84,2.45,6.22,6.22,0,0,1,.93,3.47,6.62,6.62,0,0,1-2.84,5.54,12.12,12.12,0,0,1-7.43,2.12,13.07,13.07,0,0,1-5.55-1.13,9.09,9.09,0,0,1-3.8-3.09,7.3,7.3,0,0,1-1.36-4.24h5.53a4,4,0,0,0,1.52,3.1,5.91,5.91,0,0,0,3.73,1.09,5.75,5.75,0,0,0,3.42-.85A2.65,2.65,0,0,0,1013.73,308.45Z" fill="#f6cb07"/>
      <path d="M1035.46,315.81a11.81,11.81,0,0,1-8.78-3.41,12.37,12.37,0,0,1-3.36-9.08v-.71a15.15,15.15,0,0,1,1.47-6.78,11.08,11.08,0,0,1,4.11-4.65,10.84,10.84,0,0,1,5.9-1.67q5.19,0,8,3.31t2.82,9.35v2.3h-16.57a7.56,7.56,0,0,0,2.1,5,6.3,6.3,0,0,0,4.63,1.83,7.7,7.7,0,0,0,6.37-3.16l3.07,2.93a10.31,10.31,0,0,1-4.06,3.53A12.83,12.83,0,0,1,1035.46,315.81Zm-.68-21.73a4.8,4.8,0,0,0-3.78,1.64,8.5,8.5,0,0,0-1.84,4.57H1040v-.42a6.88,6.88,0,0,0-1.53-4.32A4.74,4.74,0,0,0,1034.78,294.08Z" fill="#f6cb07"/>
      <path d="M1050.13,301.47a35.68,35.68,0,0,1,1.46-10.28,28.22,28.22,0,0,1,4.26-8.7,17.14,17.14,0,0,1,6-5.38l1.13,3.33a17.47,17.47,0,0,0-5.36,7.66,34.25,34.25,0,0,0-2.23,11.77l0,2a37.18,37.18,0,0,0,2,12.67,18.6,18.6,0,0,0,5.61,8.47l-1.13,3.16a17,17,0,0,1-6-5.4,28.52,28.52,0,0,1-4.27-8.69A37.18,37.18,0,0,1,1050.13,301.47Z" fill="#f6cb07"/>
      <path d="M1081,308.45a2.58,2.58,0,0,0-1.25-2.32,13.57,13.57,0,0,0-4.16-1.41,21.43,21.43,0,0,1-4.86-1.54q-4.26-2.07-4.26-6a6.73,6.73,0,0,1,2.76-5.48,11,11,0,0,1,7-2.21,11.34,11.34,0,0,1,7.34,2.25,7.14,7.14,0,0,1,2.8,5.84h-5.69a3.53,3.53,0,0,0-1.22-2.73,4.65,4.65,0,0,0-3.23-1.09,5,5,0,0,0-3.06.87A2.73,2.73,0,0,0,1072,297a2.33,2.33,0,0,0,1.1,2,15.32,15.32,0,0,0,4.46,1.46,21,21,0,0,1,5.26,1.76,7.46,7.46,0,0,1,2.84,2.45,6.3,6.3,0,0,1,.92,3.47,6.61,6.61,0,0,1-2.83,5.54,12.12,12.12,0,0,1-7.43,2.12,13.15,13.15,0,0,1-5.56-1.13,9.22,9.22,0,0,1-3.8-3.09,7.37,7.37,0,0,1-1.36-4.24h5.54a4,4,0,0,0,1.52,3.1,5.91,5.91,0,0,0,3.73,1.09,5.75,5.75,0,0,0,3.42-.85A2.65,2.65,0,0,0,1081,308.45Z" fill="#f6cb07"/>
      <path d="M1102.54,301.84a35.31,35.31,0,0,1-1.43,10,28.36,28.36,0,0,1-4.34,8.82,16.82,16.82,0,0,1-6.07,5.49l-1.12-3.16a18,18,0,0,0,5.56-8.31A36.84,36.84,0,0,0,1097.2,302v-.54a37.39,37.39,0,0,0-1.79-11.87,20.81,20.81,0,0,0-5.11-8.59l-.72-.66,1.12-3.19a16.88,16.88,0,0,1,5.82,5.16,28.06,28.06,0,0,1,4.31,8.29,34.62,34.62,0,0,1,1.69,9.45Z" fill="#f6cb07"/>
      <path d="M559.57,359.07A35.68,35.68,0,0,1,561,348.79a28.45,28.45,0,0,1,4.26-8.7,17.08,17.08,0,0,1,6-5.38l1.12,3.33A17.37,17.37,0,0,0,567,345.7a34,34,0,0,0-2.24,11.77l0,2a37.18,37.18,0,0,0,2,12.67,18.6,18.6,0,0,0,5.61,8.47l-1.12,3.16a16.88,16.88,0,0,1-6-5.4A28.28,28.28,0,0,1,561,369.7,36.82,36.82,0,0,1,559.57,359.07Z" fill="#f6cb07"/>
      <path d="M581.58,347.58l.17,2.65a9.11,9.11,0,0,1,7.31-3.12q5.09,0,7,3.89a9,9,0,0,1,7.78-3.89c2.8,0,4.88.78,6.25,2.32s2.06,3.83,2.09,6.85v16.66h-5.69v-16.5a5,5,0,0,0-1.06-3.54,4.6,4.6,0,0,0-3.49-1.12,4.71,4.71,0,0,0-3.17,1,5.57,5.57,0,0,0-1.73,2.73l0,17.39h-5.7V356.25q-.12-4.47-4.57-4.47a5,5,0,0,0-4.85,2.79v18.37h-5.7V347.58Z" fill="#f6cb07"/>
      <path d="M618,341a3,3,0,0,1,.84-2.18,3.11,3.11,0,0,1,2.37-.87,3.2,3.2,0,0,1,2.4.87,3,3,0,0,1,.84,2.18,2.93,2.93,0,0,1-.84,2.14,3.23,3.23,0,0,1-2.4.86,3.14,3.14,0,0,1-2.37-.86A2.93,2.93,0,0,1,618,341Zm6,31.94h-5.69V347.58h5.69Z" fill="#f6cb07"/>
      <path d="M635.54,347.58l.16,2.93a9.13,9.13,0,0,1,7.38-3.4q7.92,0,8.06,9.07v16.76h-5.69V356.51a5.23,5.23,0,0,0-1-3.57,4.38,4.38,0,0,0-3.41-1.16,5.51,5.51,0,0,0-5.14,3.11v18.05h-5.69V347.58Z" fill="#f6cb07"/>
      <path d="M657,341a3,3,0,0,1,.83-2.18,3.13,3.13,0,0,1,2.38-.87,3.17,3.17,0,0,1,2.39.87,3,3,0,0,1,.84,2.18,2.93,2.93,0,0,1-.84,2.14,3.21,3.21,0,0,1-2.39.86,3.17,3.17,0,0,1-2.38-.86A2.92,2.92,0,0,1,657,341Zm6,31.94h-5.69V347.58H663Z" fill="#f6cb07"/>
      <path d="M674.56,347.58l.16,2.65a9.13,9.13,0,0,1,7.32-3.12q5.09,0,7,3.89a9,9,0,0,1,7.78-3.89c2.79,0,4.88.78,6.24,2.32s2.07,3.83,2.1,6.85v16.66h-5.69v-16.5a5.06,5.06,0,0,0-1.06-3.54,4.61,4.61,0,0,0-3.49-1.12,4.72,4.72,0,0,0-3.18,1,5.55,5.55,0,0,0-1.72,2.73l0,17.39h-5.69V356.25q-.12-4.47-4.57-4.47a5,5,0,0,0-4.85,2.79v18.37h-5.7V347.58Z" fill="#f6cb07"/>
      <path d="M726.33,370.46a8.81,8.81,0,0,1-7.12,3q-4.12,0-6.25-2.41t-2.12-7V347.58h5.7v16.36q0,4.83,4,4.83,4.15,0,5.6-3V347.58h5.7v25.36h-5.37Z" fill="#f6cb07"/>
      <path d="M743,347.58l.16,2.65a9.12,9.12,0,0,1,7.31-3.12q5.09,0,7,3.89a9,9,0,0,1,7.78-3.89c2.8,0,4.88.78,6.25,2.32s2.07,3.83,2.1,6.85v16.66h-5.7v-16.5a5.06,5.06,0,0,0-1.05-3.54,4.61,4.61,0,0,0-3.49-1.12,4.72,4.72,0,0,0-3.18,1,5.55,5.55,0,0,0-1.72,2.73l0,17.39h-5.69V356.25c-.08-3-1.61-4.47-4.57-4.47a5,5,0,0,0-4.86,2.79v18.37h-5.69V347.58Z" fill="#f6cb07"/>
      <path d="M790.29,360a15,15,0,0,1,1.48-6.72,10.77,10.77,0,0,1,4.15-4.59,11.69,11.69,0,0,1,6.14-1.61,11,11,0,0,1,8.33,3.31,13,13,0,0,1,3.46,8.76l0,1.34a15.09,15.09,0,0,1-1.44,6.7,10.66,10.66,0,0,1-4.13,4.57,11.71,11.71,0,0,1-6.19,1.62,11,11,0,0,1-8.59-3.57q-3.22-3.58-3.23-9.53Zm5.7.49a10.21,10.21,0,0,0,1.62,6.13,5.25,5.25,0,0,0,4.5,2.21,5.19,5.19,0,0,0,4.48-2.25q1.6-2.25,1.61-6.58a10.1,10.1,0,0,0-1.65-6.1,5.28,5.28,0,0,0-4.49-2.25,5.22,5.22,0,0,0-4.43,2.22Q796,356.11,796,360.52Z" fill="#f6cb07"/>
      <path d="M820.69,372.94V351.8h-3.87v-4.22h3.87v-2.32a8.67,8.67,0,0,1,2.35-6.51,8.94,8.94,0,0,1,6.56-2.3,13.27,13.27,0,0,1,3.19.42l-.15,4.45a11.62,11.62,0,0,0-2.18-.18q-4.07,0-4.07,4.19v2.25h5.15v4.22h-5.15v21.14Z" fill="#f6cb07"/>
      <path d="M862.71,372.94H857V345.53l-8.36,2.85V343.6L862,338.7h.72Z" fill="#f6cb07"/>
      <path d="M897.31,368.86a5.15,5.15,0,0,0,3.54-1.24,4.23,4.23,0,0,0,1.5-3.07h5.36a8.36,8.36,0,0,1-1.47,4.42,9.57,9.57,0,0,1-3.75,3.24,11.14,11.14,0,0,1-5.11,1.2,10.81,10.81,0,0,1-8.44-3.45q-3.12-3.43-3.12-9.51v-.59a13.45,13.45,0,0,1,3.1-9.27,10.71,10.71,0,0,1,8.44-3.48,10.42,10.42,0,0,1,7.37,2.64,9.47,9.47,0,0,1,3,6.93h-5.36a5.21,5.21,0,0,0-1.49-3.59,4.78,4.78,0,0,0-3.55-1.41,5,5,0,0,0-4.27,2c-1,1.33-1.5,3.36-1.52,6.08v.91q0,4.13,1.49,6.16A5,5,0,0,0,897.31,368.86Z" fill="#f6cb07"/>
      <path d="M911,360a14.88,14.88,0,0,1,1.48-6.72,10.75,10.75,0,0,1,4.14-4.59,11.72,11.72,0,0,1,6.14-1.61,11.07,11.07,0,0,1,8.34,3.31,13,13,0,0,1,3.45,8.76l0,1.34a15.09,15.09,0,0,1-1.44,6.7,10.72,10.72,0,0,1-4.13,4.57,11.75,11.75,0,0,1-6.2,1.62,11,11,0,0,1-8.59-3.57q-3.23-3.58-3.22-9.53Zm5.69.49a10.21,10.21,0,0,0,1.62,6.13,5.27,5.27,0,0,0,4.5,2.21,5.2,5.2,0,0,0,4.49-2.25q1.61-2.25,1.61-6.58a10.1,10.1,0,0,0-1.66-6.1,5.56,5.56,0,0,0-8.91,0Q916.64,356.11,916.64,360.52Z" fill="#f6cb07"/>
      <path d="M954.71,370.46a8.83,8.83,0,0,1-7.13,3q-4.12,0-6.24-2.41t-2.13-7V347.58h5.7v16.36q0,4.83,4,4.83t5.6-3V347.58h5.69v25.36h-5.36Z" fill="#f6cb07"/>
      <path d="M979.29,352.79a13.54,13.54,0,0,0-2.32-.19c-2.61,0-4.36,1-5.27,3v17.34H966V347.58h5.44l.14,2.84a6.41,6.41,0,0,1,5.72-3.31,5.33,5.33,0,0,1,2,.33Z" fill="#f6cb07"/>
      <path d="M997.11,366.05a2.58,2.58,0,0,0-1.26-2.32,13.37,13.37,0,0,0-4.16-1.41,21.34,21.34,0,0,1-4.85-1.54c-2.84-1.38-4.27-3.37-4.27-6a6.76,6.76,0,0,1,2.77-5.48,10.93,10.93,0,0,1,7-2.21,11.39,11.39,0,0,1,7.35,2.25,7.14,7.14,0,0,1,2.8,5.84h-5.7a3.52,3.52,0,0,0-1.21-2.73,4.69,4.69,0,0,0-3.24-1.09,5,5,0,0,0-3.06.87,2.72,2.72,0,0,0-1.18,2.32,2.33,2.33,0,0,0,1.1,2,15.22,15.22,0,0,0,4.45,1.46,21.06,21.06,0,0,1,5.27,1.76,7.42,7.42,0,0,1,2.83,2.45,6.22,6.22,0,0,1,.93,3.47,6.62,6.62,0,0,1-2.84,5.54,12.12,12.12,0,0,1-7.43,2.12,13.07,13.07,0,0,1-5.55-1.12,9.18,9.18,0,0,1-3.8-3.1,7.3,7.3,0,0,1-1.36-4.24h5.53a4,4,0,0,0,1.53,3.1,5.86,5.86,0,0,0,3.72,1.09,5.75,5.75,0,0,0,3.42-.85A2.66,2.66,0,0,0,997.11,366.05Z" fill="#f6cb07"/>
      <path d="M1018.83,373.41a11.81,11.81,0,0,1-8.78-3.41,12.37,12.37,0,0,1-3.36-9.08v-.71a15.15,15.15,0,0,1,1.47-6.78,11.08,11.08,0,0,1,4.11-4.65,10.88,10.88,0,0,1,5.91-1.67q5.18,0,8,3.31t2.82,9.35v2.3h-16.57a7.66,7.66,0,0,0,2.1,5,6.33,6.33,0,0,0,4.63,1.82,7.73,7.73,0,0,0,6.38-3.16l3.07,2.93a10.41,10.41,0,0,1-4.07,3.53A12.83,12.83,0,0,1,1018.83,373.41Zm-.68-21.73a4.8,4.8,0,0,0-3.78,1.64,8.5,8.5,0,0,0-1.84,4.57h10.85v-.42a6.94,6.94,0,0,0-1.52-4.32A4.78,4.78,0,0,0,1018.15,351.68Z" fill="#f6cb07"/>
      <path d="M1044.4,359.44a35,35,0,0,1-1.43,10,28.56,28.56,0,0,1-4.33,8.82,16.9,16.9,0,0,1-6.07,5.49l-1.13-3.16a18,18,0,0,0,5.57-8.31,36.85,36.85,0,0,0,2-12.76V359a37.67,37.67,0,0,0-1.78-11.87,20.92,20.92,0,0,0-5.11-8.59l-.73-.66,1.13-3.19a16.86,16.86,0,0,1,5.81,5.16,28.06,28.06,0,0,1,4.31,8.29,34.62,34.62,0,0,1,1.69,9.45Z" fill="#f6cb07"/>
    </g>
    <rect x="1214" y="0.11" width="706" height="317.25" fill="#73b2e5"/>
    <rect x="1214" y="337.36" width="706" height="565.75" fill="#3290ea"/>
    <g>
      <path d="M1528.53,49.62h-13.22l-2.77,8h-6.16l12.89-34.13h5.32l12.91,34.13h-6.18ZM1517,44.84h9.89l-4.94-14.16Z"/>
      <path d="M1563.21,28.22h-10.64V57.57h-5.88V28.22h-10.55V23.44h27.07Z"/>
      <path d="M1593.07,46.46a12.28,12.28,0,0,1-4,8.52q-3.51,3-9.35,3.05a13.28,13.28,0,0,1-7.18-1.93,12.73,12.73,0,0,1-4.8-5.5,19.77,19.77,0,0,1-1.75-8.27V39.14a20,20,0,0,1,1.71-8.5,12.9,12.9,0,0,1,4.91-5.68,13.76,13.76,0,0,1,7.39-2,13.2,13.2,0,0,1,9.1,3.06,12.79,12.79,0,0,1,4,8.66h-5.9q-.42-3.67-2.15-5.31a7.1,7.1,0,0,0-5-1.63,6.93,6.93,0,0,0-5.94,2.83q-2.07,2.84-2.12,8.29v3q0,5.54,2,8.45a6.58,6.58,0,0,0,5.8,2.9,7.64,7.64,0,0,0,5.25-1.57c1.17-1,1.92-2.79,2.23-5.22Z"/>
      <path d="M1625.61,41.39a20.84,20.84,0,0,1-1.74,8.8,13.11,13.11,0,0,1-5,5.82,14.58,14.58,0,0,1-14.81,0,13.33,13.33,0,0,1-5-5.78,20.34,20.34,0,0,1-1.8-8.65V39.66a20.71,20.71,0,0,1,1.77-8.81,13.33,13.33,0,0,1,5-5.85,14.55,14.55,0,0,1,14.79,0,13,13,0,0,1,5,5.76,20.69,20.69,0,0,1,1.79,8.76Zm-5.93-1.78q0-5.67-2.15-8.69a7.55,7.55,0,0,0-12.09,0q-2.18,3-2.22,8.52v2q0,5.63,2.19,8.7a7.07,7.07,0,0,0,6.09,3.07,7,7,0,0,0,6-3q2.13-3,2.13-8.77Z"/>
      <path d="M1402.59,110.43h15.49v4.74h-21.42V81h5.93Z"/>
      <path d="M1422.09,83.22a3,3,0,0,1,.83-2.18,3.13,3.13,0,0,1,2.38-.87,3.19,3.19,0,0,1,2.39.87,3,3,0,0,1,.84,2.18,3,3,0,0,1-.84,2.15,3.22,3.22,0,0,1-2.39.85,3.16,3.16,0,0,1-2.38-.85A2.94,2.94,0,0,1,1422.09,83.22Zm6,32h-5.69V89.81h5.69Z"/>
      <path d="M1444.75,111.09a5.2,5.2,0,0,0,3.54-1.24,4.24,4.24,0,0,0,1.5-3.07h5.37a8.43,8.43,0,0,1-1.48,4.41,9.67,9.67,0,0,1-3.75,3.25,11.14,11.14,0,0,1-5.11,1.2,10.81,10.81,0,0,1-8.44-3.45q-3.12-3.45-3.11-9.52v-.58q0-5.79,3.09-9.27a10.71,10.71,0,0,1,8.44-3.48,10.46,10.46,0,0,1,7.37,2.63,9.48,9.48,0,0,1,3,6.93h-5.37a5.22,5.22,0,0,0-1.49-3.59,4.81,4.81,0,0,0-3.55-1.4,5,5,0,0,0-4.27,2c-1,1.34-1.5,3.37-1.52,6.08v.92q0,4.13,1.49,6.15A5,5,0,0,0,1444.75,111.09Z"/>
      <path d="M1470.62,115.64a11.76,11.76,0,0,1-8.77-3.42,12.38,12.38,0,0,1-3.37-9.08v-.7a15.22,15.22,0,0,1,1.47-6.79,11.21,11.21,0,0,1,4.11-4.65,10.89,10.89,0,0,1,5.91-1.66q5.17,0,8,3.3t2.83,9.35v2.3h-16.57a7.63,7.63,0,0,0,2.09,5,6.3,6.3,0,0,0,4.63,1.83,7.72,7.72,0,0,0,6.38-3.17l3.07,2.93a10.19,10.19,0,0,1-4.07,3.53A12.67,12.67,0,0,1,1470.62,115.64ZM1470,93.91a4.81,4.81,0,0,0-3.79,1.64,8.54,8.54,0,0,0-1.84,4.57h10.85V99.7a6.91,6.91,0,0,0-1.52-4.33A4.78,4.78,0,0,0,1470,93.91Z"/>
      <path d="M1490.5,89.81l.16,2.93a9.12,9.12,0,0,1,7.39-3.4q7.92,0,8.06,9.07v16.76h-5.7V98.74a5.23,5.23,0,0,0-1-3.58A4.39,4.39,0,0,0,1496,94a5.48,5.48,0,0,0-5.13,3.12v18h-5.7V89.81Z"/>
      <path d="M1522.33,111.09a5.2,5.2,0,0,0,3.54-1.24,4.32,4.32,0,0,0,1.5-3.07h5.36a8.33,8.33,0,0,1-1.47,4.41,9.67,9.67,0,0,1-3.75,3.25,11.14,11.14,0,0,1-5.11,1.2,10.81,10.81,0,0,1-8.44-3.45q-3.12-3.45-3.12-9.52v-.58a13.45,13.45,0,0,1,3.1-9.27,10.71,10.71,0,0,1,8.44-3.48,10.46,10.46,0,0,1,7.37,2.63,9.47,9.47,0,0,1,3,6.93h-5.36a5.27,5.27,0,0,0-1.49-3.59,4.81,4.81,0,0,0-3.55-1.4,5,5,0,0,0-4.27,2q-1.5,2-1.52,6.08v.92q0,4.13,1.49,6.15A5,5,0,0,0,1522.33,111.09Z"/>
      <path d="M1548.2,115.64a11.74,11.74,0,0,1-8.77-3.42,12.33,12.33,0,0,1-3.37-9.08v-.7a15.22,15.22,0,0,1,1.47-6.79,11.15,11.15,0,0,1,4.11-4.65,10.89,10.89,0,0,1,5.91-1.66q5.17,0,8,3.3t2.83,9.35v2.3H1541.8a7.68,7.68,0,0,0,2.1,5,6.3,6.3,0,0,0,4.63,1.83,7.72,7.72,0,0,0,6.38-3.17l3.07,2.93a10.19,10.19,0,0,1-4.07,3.53A12.7,12.7,0,0,1,1548.2,115.64Zm-.68-21.73a4.8,4.8,0,0,0-3.78,1.64,8.46,8.46,0,0,0-1.84,4.57h10.85V99.7a7,7,0,0,0-1.52-4.33A4.79,4.79,0,0,0,1547.52,93.91Z"/>
      <path d="M1576.35,118.1h-4.47L1585.3,81h4.48Z"/>
      <path d="M1618.77,102h-6.61v13.13h-5.93V81h12c3.94,0,7,.89,9.12,2.65s3.21,4.33,3.21,7.67a9.62,9.62,0,0,1-1.65,5.74,10.52,10.52,0,0,1-4.61,3.55l7.67,14.21v.31h-6.35Zm-6.61-4.78h6.1a6.78,6.78,0,0,0,4.69-1.51,5.29,5.29,0,0,0,1.68-4.14,5.6,5.6,0,0,0-1.56-4.24,6.6,6.6,0,0,0-4.65-1.55h-6.26Z"/>
      <path d="M1650.79,115.17a9,9,0,0,1-.66-2.37,8.86,8.86,0,0,1-6.65,2.84,9,9,0,0,1-6.24-2.18,7,7,0,0,1-2.41-5.4,7.2,7.2,0,0,1,3-6.22c2-1.44,4.88-2.17,8.61-2.17h3.5V98a4.42,4.42,0,0,0-1.11-3.15,4.36,4.36,0,0,0-3.35-1.19,5,5,0,0,0-3.19,1,3,3,0,0,0-1.24,2.47h-5.69a6.32,6.32,0,0,1,1.38-3.9,9.27,9.27,0,0,1,3.76-2.85,13.2,13.2,0,0,1,5.31-1,10.58,10.58,0,0,1,7.1,2.24,8,8,0,0,1,2.72,6.29v11.44a13,13,0,0,0,1,5.46v.4Zm-6.26-4.11a6.47,6.47,0,0,0,3.18-.82A5.46,5.46,0,0,0,1650,108v-4.78h-3.07a8.43,8.43,0,0,0-4.76,1.1,3.57,3.57,0,0,0-1.6,3.12,3.35,3.35,0,0,0,1.09,2.61A4.22,4.22,0,0,0,1644.53,111.06Z"/>
      <path d="M1668.74,83.64v6.17h4.48V94h-4.48v14.15a3.08,3.08,0,0,0,.58,2.1,2.65,2.65,0,0,0,2,.64,8.57,8.57,0,0,0,2-.23v4.41a14,14,0,0,1-3.75.54q-6.57,0-6.56-7.25V94h-4.17V89.81h4.17V83.64Z"/>
      <path d="M1677.58,83.22a3.05,3.05,0,0,1,.83-2.18,3.13,3.13,0,0,1,2.38-.87,3.17,3.17,0,0,1,2.39.87,3,3,0,0,1,.84,2.18,3,3,0,0,1-.84,2.15,3.2,3.2,0,0,1-2.39.85,3.16,3.16,0,0,1-2.38-.85A3,3,0,0,1,1677.58,83.22Zm6,32h-5.69V89.81h5.69Z"/>
      <path d="M1695.11,89.81l.16,2.93a9.12,9.12,0,0,1,7.39-3.4q7.92,0,8.06,9.07v16.76H1705V98.74a5.23,5.23,0,0,0-1-3.58,4.39,4.39,0,0,0-3.41-1.16,5.48,5.48,0,0,0-5.13,3.12v18h-5.7V89.81Z"/>
      <path d="M1715.52,102.3q0-5.91,2.78-9.43a8.89,8.89,0,0,1,7.37-3.53,8.36,8.36,0,0,1,6.82,3l.26-2.55h5.13v24.58a10.22,10.22,0,0,1-3.1,7.88,11.85,11.85,0,0,1-8.38,2.88A13.55,13.55,0,0,1,1721,124a9.65,9.65,0,0,1-4-3l2.69-3.43a8.14,8.14,0,0,0,6.47,3.12,6.32,6.32,0,0,0,4.48-1.53,5.92,5.92,0,0,0,1.64-4.52v-1.71a8.39,8.39,0,0,1-6.57,2.75,8.89,8.89,0,0,1-7.27-3.54Q1715.52,108.56,1715.52,102.3Zm5.68.49a10.19,10.19,0,0,0,1.55,6,5,5,0,0,0,4.33,2.19,5.47,5.47,0,0,0,5.11-2.95V96.89a5.4,5.4,0,0,0-5.07-2.89,5,5,0,0,0-4.37,2.23C1721.71,97.71,1721.2,99.9,1721.2,102.79Z"/>
      <path d="M1569.71,154h8.9v5.21h-8.9v10.14h-5.53V159.2h-9V154h9V144.5h5.53Z"/>
      <path d="M1503,230.37h-5.93l-15.21-24.22v24.22H1476V196.24h5.93l15.25,24.31V196.24H1503Z"/>
      <path d="M1520.64,230.83a11.77,11.77,0,0,1-8.78-3.41,12.37,12.37,0,0,1-3.36-9.08v-.7a15.35,15.35,0,0,1,1.46-6.79,11.17,11.17,0,0,1,4.12-4.65,10.84,10.84,0,0,1,5.9-1.66q5.19,0,8,3.3t2.82,9.35v2.3h-16.57a7.61,7.61,0,0,0,2.1,5,6.3,6.3,0,0,0,4.63,1.83,7.7,7.7,0,0,0,6.37-3.17l3.07,2.93a10.24,10.24,0,0,1-4.06,3.53A12.7,12.7,0,0,1,1520.64,230.83Zm-.68-21.72a4.77,4.77,0,0,0-3.78,1.64,8.39,8.39,0,0,0-1.84,4.57h10.85v-.42a7,7,0,0,0-1.53-4.33A4.77,4.77,0,0,0,1520,209.11Z"/>
      <path d="M1557.51,222.51l4-17.5h5.55l-6.91,25.36h-4.69L1550.05,213l-5.34,17.42H1540L1533.09,205h5.55l4.1,17.32L1548,205h4.28Z"/>
      <path d="M1598.22,227.88a8.83,8.83,0,0,1-7.13,3q-4.12,0-6.24-2.41c-1.42-1.61-2.12-3.94-2.12-7V205h5.69v16.36q0,4.81,4,4.82c2.77,0,4.63-1,5.6-3V205h5.7v25.36h-5.37Z"/>
      <path d="M1614.81,205l.17,2.93a9.09,9.09,0,0,1,7.38-3.4q7.92,0,8.06,9.07v16.76h-5.69V213.94a5.23,5.23,0,0,0-1-3.58,4.39,4.39,0,0,0-3.41-1.16,5.5,5.5,0,0,0-5.13,3.12v18.05h-5.69V205Z"/>
      <path d="M1636.23,198.42a3,3,0,0,1,.84-2.18,3.12,3.12,0,0,1,2.38-.87,3.19,3.19,0,0,1,2.39.87,3,3,0,0,1,.84,2.18,2.93,2.93,0,0,1-.84,2.14,3.18,3.18,0,0,1-2.39.86,3.11,3.11,0,0,1-2.38-.86A2.93,2.93,0,0,1,1636.23,198.42Zm6,32h-5.69V205h5.69Z"/>
      <path d="M1655.62,198.84V205h4.47v4.21h-4.47v14.16a3.14,3.14,0,0,0,.57,2.1,2.66,2.66,0,0,0,2,.64,8.51,8.51,0,0,0,2-.23v4.41a14.31,14.31,0,0,1-3.75.53q-6.56,0-6.56-7.24V209.22h-4.17V205h4.17v-6.17Z"/>
      <path d="M1438.86,288.43a11.76,11.76,0,0,1-8.78-3.41,12.38,12.38,0,0,1-3.37-9.08v-.7a15.22,15.22,0,0,1,1.47-6.79,11.21,11.21,0,0,1,4.11-4.65,10.89,10.89,0,0,1,5.91-1.66q5.17,0,8,3.3t2.83,9.35v2.3h-16.57a7.65,7.65,0,0,0,2.09,5,6.3,6.3,0,0,0,4.63,1.83,7.72,7.72,0,0,0,6.38-3.17l3.07,2.93a10.19,10.19,0,0,1-4.07,3.53A12.66,12.66,0,0,1,1438.86,288.43Zm-.68-21.72a4.81,4.81,0,0,0-3.79,1.64,8.54,8.54,0,0,0-1.84,4.57h10.85v-.42a6.91,6.91,0,0,0-1.52-4.33A4.78,4.78,0,0,0,1438.18,266.71Z"/>
      <path d="M1458.73,262.61l.16,2.93a9.12,9.12,0,0,1,7.39-3.4q7.92,0,8.06,9.07V288h-5.7V271.54a5.23,5.23,0,0,0-1-3.58,4.39,4.39,0,0,0-3.41-1.16,5.48,5.48,0,0,0-5.13,3.12V288h-5.7V262.61Z"/>
      <path d="M1479.07,275.1q0-5.87,2.72-9.41a8.72,8.72,0,0,1,7.29-3.55,8.3,8.3,0,0,1,6.52,2.81V252h5.69v36h-5.15l-.28-2.63a8.41,8.41,0,0,1-6.82,3.09,8.65,8.65,0,0,1-7.21-3.58Q1479.07,281.27,1479.07,275.1Zm5.7.49a10.6,10.6,0,0,0,1.49,6,4.83,4.83,0,0,0,4.23,2.16,5.37,5.37,0,0,0,5.11-3.11V269.85a5.31,5.31,0,0,0-5.06-3.05,4.87,4.87,0,0,0-4.27,2.19Q1484.77,271.18,1484.77,275.59Z"/>
      <path d="M1506.17,275.05a15,15,0,0,1,1.47-6.71,10.86,10.86,0,0,1,4.15-4.6,11.69,11.69,0,0,1,6.14-1.6,11.1,11.1,0,0,1,8.34,3.3,13,13,0,0,1,3.45,8.77l0,1.33a15,15,0,0,1-1.45,6.71,10.63,10.63,0,0,1-4.12,4.57,11.77,11.77,0,0,1-6.2,1.61,11,11,0,0,1-8.59-3.57q-3.23-3.57-3.22-9.53Zm5.69.49a10.19,10.19,0,0,0,1.62,6.13,5.26,5.26,0,0,0,4.5,2.22,5.2,5.2,0,0,0,4.49-2.25q1.6-2.25,1.6-6.59a10.09,10.09,0,0,0-1.65-6.09,5.58,5.58,0,0,0-8.92,0Q1511.87,271.14,1511.86,275.54Z"/>
      <path d="M1547.84,267.81a13.54,13.54,0,0,0-2.32-.19q-3.91,0-5.27,3V288h-5.7V262.61H1540l.14,2.83a6.41,6.41,0,0,1,5.72-3.3,5.28,5.28,0,0,1,2,.33Z"/>
      <path d="M1565.65,281.08a2.58,2.58,0,0,0-1.25-2.32,13.21,13.21,0,0,0-4.16-1.41,21.15,21.15,0,0,1-4.85-1.55c-2.85-1.37-4.27-3.37-4.27-6a6.75,6.75,0,0,1,2.77-5.49,10.9,10.9,0,0,1,7-2.2,11.39,11.39,0,0,1,7.35,2.25,7.15,7.15,0,0,1,2.8,5.83h-5.7a3.53,3.53,0,0,0-1.22-2.73,4.69,4.69,0,0,0-3.23-1.09,5,5,0,0,0-3.06.87,2.73,2.73,0,0,0-1.18,2.32,2.29,2.29,0,0,0,1.1,2,15.46,15.46,0,0,0,4.45,1.47,21,21,0,0,1,5.26,1.75,7.47,7.47,0,0,1,2.84,2.45,6.24,6.24,0,0,1,.92,3.47,6.59,6.59,0,0,1-2.83,5.54,12.06,12.06,0,0,1-7.43,2.12,13.15,13.15,0,0,1-5.56-1.12,9.12,9.12,0,0,1-3.79-3.09,7.33,7.33,0,0,1-1.36-4.25h5.53a4,4,0,0,0,1.52,3.11,5.91,5.91,0,0,0,3.73,1.09,5.75,5.75,0,0,0,3.42-.86A2.64,2.64,0,0,0,1565.65,281.08Z"/>
      <path d="M1587.38,288.43a11.76,11.76,0,0,1-8.78-3.41,12.37,12.37,0,0,1-3.36-9.08v-.7a15.35,15.35,0,0,1,1.46-6.79,11.17,11.17,0,0,1,4.12-4.65,10.84,10.84,0,0,1,5.9-1.66c3.46,0,6.12,1.1,8,3.3s2.82,5.32,2.82,9.35v2.3H1581a7.61,7.61,0,0,0,2.1,5,6.29,6.29,0,0,0,4.63,1.83,7.7,7.7,0,0,0,6.37-3.17l3.07,2.93a10.16,10.16,0,0,1-4.06,3.53A12.7,12.7,0,0,1,1587.38,288.43Zm-.68-21.72a4.83,4.83,0,0,0-3.79,1.64,8.54,8.54,0,0,0-1.84,4.57h10.86v-.42a7,7,0,0,0-1.53-4.33A4.77,4.77,0,0,0,1586.7,266.71Z"/>
      <path d="M1607.32,262.61l.17,2.65a9.12,9.12,0,0,1,7.31-3.12c3.39,0,5.71,1.29,7,3.89a9,9,0,0,1,7.78-3.89q4.2,0,6.25,2.32t2.1,6.84V288h-5.7v-16.5a5.06,5.06,0,0,0-1-3.54,4.64,4.64,0,0,0-3.5-1.13,4.72,4.72,0,0,0-3.17,1.05,5.4,5.4,0,0,0-1.72,2.73l0,17.39h-5.7V271.28c-.07-3-1.6-4.48-4.57-4.48a5,5,0,0,0-4.85,2.79V288H1602V262.61Z"/>
      <path d="M1654.9,288.43a11.77,11.77,0,0,1-8.78-3.41,12.37,12.37,0,0,1-3.36-9.08v-.7a15.22,15.22,0,0,1,1.47-6.79,11.08,11.08,0,0,1,4.11-4.65,10.87,10.87,0,0,1,5.91-1.66q5.18,0,8,3.3t2.82,9.35v2.3H1648.5a7.71,7.71,0,0,0,2.1,5,6.3,6.3,0,0,0,4.63,1.83,7.74,7.74,0,0,0,6.38-3.17l3.07,2.93a10.26,10.26,0,0,1-4.07,3.53A12.7,12.7,0,0,1,1654.9,288.43Zm-.68-21.72a4.8,4.8,0,0,0-3.78,1.64,8.46,8.46,0,0,0-1.84,4.57h10.85v-.42a7,7,0,0,0-1.52-4.33A4.79,4.79,0,0,0,1654.22,266.71Z"/>
      <path d="M1674.78,262.61l.16,2.93a9.12,9.12,0,0,1,7.38-3.4c5.29,0,8,3,8.07,9.07V288h-5.7V271.54a5.28,5.28,0,0,0-1-3.58,4.4,4.4,0,0,0-3.41-1.16,5.48,5.48,0,0,0-5.13,3.12V288h-5.7V262.61Z"/>
      <path d="M1703.32,256.44v6.17h4.48v4.22h-4.48V281a3.14,3.14,0,0,0,.58,2.1,2.65,2.65,0,0,0,2,.64,8.51,8.51,0,0,0,2-.23v4.41a14,14,0,0,1-3.75.53q-6.56,0-6.56-7.24V266.83h-4.17v-4.22h4.17v-6.17Z"/>
    </g>
    <g>
      <path d="M1528.53,395.92h-13.22l-2.77,7.95h-6.16l12.89-34.13h5.32l12.91,34.13h-6.18ZM1517,391.14h9.89L1521.92,377Z" fill="#fff"/>
      <path d="M1563.21,374.52h-10.64v29.35h-5.88V374.52h-10.55v-4.78h27.07Z" fill="#fff"/>
      <path d="M1593.07,392.76a12.28,12.28,0,0,1-4,8.52q-3.51,3.06-9.35,3.05a13.28,13.28,0,0,1-7.18-1.93,12.76,12.76,0,0,1-4.8-5.49,19.86,19.86,0,0,1-1.75-8.28v-3.19a20,20,0,0,1,1.71-8.5,12.9,12.9,0,0,1,4.91-5.68,13.76,13.76,0,0,1,7.39-2,13.2,13.2,0,0,1,9.1,3.06,12.79,12.79,0,0,1,4,8.66h-5.9q-.42-3.67-2.15-5.31a7.1,7.1,0,0,0-5-1.63,6.93,6.93,0,0,0-5.94,2.83c-1.38,1.88-2.09,4.65-2.12,8.29v3c0,3.69.66,6.51,2,8.44a6.57,6.57,0,0,0,5.8,2.91,7.64,7.64,0,0,0,5.25-1.57c1.17-1,1.92-2.79,2.23-5.22Z" fill="#fff"/>
      <path d="M1625.61,387.69a20.84,20.84,0,0,1-1.74,8.8,13.11,13.11,0,0,1-5,5.82,14.58,14.58,0,0,1-14.81,0,13.33,13.33,0,0,1-5-5.78,20.34,20.34,0,0,1-1.8-8.65V386a20.71,20.71,0,0,1,1.77-8.81,13.33,13.33,0,0,1,5-5.85,14.55,14.55,0,0,1,14.79,0,13,13,0,0,1,5,5.76,20.69,20.69,0,0,1,1.79,8.76Zm-5.93-1.78q0-5.67-2.15-8.69a7.55,7.55,0,0,0-12.09,0q-2.18,3-2.22,8.52v2q0,5.63,2.19,8.7a7.07,7.07,0,0,0,6.09,3.07,7,7,0,0,0,6-3q2.13-3,2.13-8.77Z" fill="#fff"/>
      <path d="M1402.59,456.73h15.49v4.74h-21.42V427.34h5.93Z" fill="#fff"/>
      <path d="M1422.09,429.52a3,3,0,0,1,.83-2.18,3.13,3.13,0,0,1,2.38-.87,3.19,3.19,0,0,1,2.39.87,3,3,0,0,1,.84,2.18,3,3,0,0,1-.84,2.15,3.22,3.22,0,0,1-2.39.85,3.16,3.16,0,0,1-2.38-.85A2.94,2.94,0,0,1,1422.09,429.52Zm6,32h-5.69V436.11h5.69Z" fill="#fff"/>
      <path d="M1444.75,457.39a5.2,5.2,0,0,0,3.54-1.24,4.24,4.24,0,0,0,1.5-3.07h5.37a8.43,8.43,0,0,1-1.48,4.41,9.67,9.67,0,0,1-3.75,3.25,11.13,11.13,0,0,1-5.11,1.19,10.8,10.8,0,0,1-8.44-3.44q-3.12-3.45-3.11-9.52v-.58q0-5.79,3.09-9.27a10.71,10.71,0,0,1,8.44-3.48,10.46,10.46,0,0,1,7.37,2.63,9.48,9.48,0,0,1,3,6.93h-5.37a5.22,5.22,0,0,0-1.49-3.59,4.81,4.81,0,0,0-3.55-1.4,5,5,0,0,0-4.27,2c-1,1.34-1.5,3.37-1.52,6.08v.92q0,4.13,1.49,6.15A5,5,0,0,0,1444.75,457.39Z" fill="#fff"/>
      <path d="M1470.62,461.93a11.75,11.75,0,0,1-8.77-3.41,12.38,12.38,0,0,1-3.37-9.08v-.7A15.22,15.22,0,0,1,1460,442a11.21,11.21,0,0,1,4.11-4.65,10.89,10.89,0,0,1,5.91-1.66q5.17,0,8,3.3t2.83,9.35v2.3h-16.57a7.65,7.65,0,0,0,2.09,5,6.3,6.3,0,0,0,4.63,1.83,7.72,7.72,0,0,0,6.38-3.17l3.07,2.93a10.19,10.19,0,0,1-4.07,3.53A12.67,12.67,0,0,1,1470.62,461.93Zm-.67-21.72a4.81,4.81,0,0,0-3.79,1.64,8.54,8.54,0,0,0-1.84,4.57h10.85V446a6.91,6.91,0,0,0-1.52-4.33A4.78,4.78,0,0,0,1470,440.21Z" fill="#fff"/>
      <path d="M1490.5,436.11l.16,2.93a9.12,9.12,0,0,1,7.39-3.4q7.92,0,8.06,9.07v16.76h-5.7V445a5.23,5.23,0,0,0-1-3.58,4.39,4.39,0,0,0-3.41-1.16,5.48,5.48,0,0,0-5.13,3.12v18.05h-5.7V436.11Z" fill="#fff"/>
      <path d="M1522.33,457.39a5.2,5.2,0,0,0,3.54-1.24,4.32,4.32,0,0,0,1.5-3.07h5.36a8.33,8.33,0,0,1-1.47,4.41,9.67,9.67,0,0,1-3.75,3.25,11.13,11.13,0,0,1-5.11,1.19,10.8,10.8,0,0,1-8.44-3.44q-3.12-3.45-3.12-9.52v-.58a13.45,13.45,0,0,1,3.1-9.27,10.71,10.71,0,0,1,8.44-3.48,10.46,10.46,0,0,1,7.37,2.63,9.47,9.47,0,0,1,3,6.93h-5.36a5.27,5.27,0,0,0-1.49-3.59,4.81,4.81,0,0,0-3.55-1.4,5,5,0,0,0-4.27,2q-1.5,2-1.52,6.08v.92q0,4.13,1.49,6.15A5,5,0,0,0,1522.33,457.39Z" fill="#fff"/>
      <path d="M1548.2,461.93a11.74,11.74,0,0,1-8.77-3.41,12.33,12.33,0,0,1-3.37-9.08v-.7a15.22,15.22,0,0,1,1.47-6.79,11.15,11.15,0,0,1,4.11-4.65,10.89,10.89,0,0,1,5.91-1.66q5.17,0,8,3.3t2.83,9.35v2.3H1541.8a7.71,7.71,0,0,0,2.1,5,6.3,6.3,0,0,0,4.63,1.83,7.72,7.72,0,0,0,6.38-3.17l3.07,2.93a10.19,10.19,0,0,1-4.07,3.53A12.7,12.7,0,0,1,1548.2,461.93Zm-.68-21.72a4.8,4.8,0,0,0-3.78,1.64,8.46,8.46,0,0,0-1.84,4.57h10.85V446a7,7,0,0,0-1.52-4.33A4.79,4.79,0,0,0,1547.52,440.21Z" fill="#fff"/>
      <path d="M1576.35,464.4h-4.47l13.42-37.06h4.48Z" fill="#fff"/>
      <path d="M1618.77,448.34h-6.61v13.13h-5.93V427.34h12q5.91,0,9.12,2.65t3.21,7.67a9.62,9.62,0,0,1-1.65,5.74,10.52,10.52,0,0,1-4.61,3.55l7.67,14.21v.31h-6.35Zm-6.61-4.78h6.1a6.78,6.78,0,0,0,4.69-1.51,5.29,5.29,0,0,0,1.68-4.14,5.6,5.6,0,0,0-1.56-4.24,6.6,6.6,0,0,0-4.65-1.55h-6.26Z" fill="#fff"/>
      <path d="M1650.79,461.47a9,9,0,0,1-.66-2.37,8.85,8.85,0,0,1-6.65,2.83,9,9,0,0,1-6.24-2.17,7,7,0,0,1-2.41-5.4,7.2,7.2,0,0,1,3-6.22c2-1.44,4.88-2.17,8.61-2.17h3.5v-1.66a4.42,4.42,0,0,0-1.11-3.15,4.36,4.36,0,0,0-3.35-1.19,5,5,0,0,0-3.19,1,3,3,0,0,0-1.24,2.47h-5.69a6.32,6.32,0,0,1,1.38-3.9,9.27,9.27,0,0,1,3.76-2.85,13.2,13.2,0,0,1,5.31-1,10.58,10.58,0,0,1,7.1,2.24,8,8,0,0,1,2.72,6.29v11.44a13,13,0,0,0,1,5.46v.4Zm-6.26-4.11a6.47,6.47,0,0,0,3.18-.82,5.46,5.46,0,0,0,2.24-2.2v-4.78h-3.07a8.43,8.43,0,0,0-4.76,1.1,3.56,3.56,0,0,0-1.6,3.12,3.35,3.35,0,0,0,1.09,2.61A4.22,4.22,0,0,0,1644.53,457.36Z" fill="#fff"/>
      <path d="M1668.74,429.94v6.17h4.48v4.22h-4.48v14.15a3.08,3.08,0,0,0,.58,2.1,2.65,2.65,0,0,0,2,.64,8.57,8.57,0,0,0,2-.23v4.41a14,14,0,0,1-3.75.53q-6.57,0-6.56-7.24V440.33h-4.17v-4.22h4.17v-6.17Z" fill="#fff"/>
      <path d="M1677.58,429.52a3.05,3.05,0,0,1,.83-2.18,3.13,3.13,0,0,1,2.38-.87,3.17,3.17,0,0,1,2.39.87,3,3,0,0,1,.84,2.18,3,3,0,0,1-.84,2.15,3.2,3.2,0,0,1-2.39.85,3.16,3.16,0,0,1-2.38-.85A3,3,0,0,1,1677.58,429.52Zm6,32h-5.69V436.11h5.69Z" fill="#fff"/>
      <path d="M1695.11,436.11l.16,2.93a9.12,9.12,0,0,1,7.39-3.4q7.92,0,8.06,9.07v16.76H1705V445a5.23,5.23,0,0,0-1-3.58,4.39,4.39,0,0,0-3.41-1.16,5.48,5.48,0,0,0-5.13,3.12v18.05h-5.7V436.11Z" fill="#fff"/>
      <path d="M1715.52,448.6q0-5.91,2.78-9.43a8.89,8.89,0,0,1,7.37-3.53,8.36,8.36,0,0,1,6.82,3l.26-2.55h5.13v24.58a10.22,10.22,0,0,1-3.1,7.88,11.85,11.85,0,0,1-8.38,2.88,13.55,13.55,0,0,1-5.45-1.16,9.65,9.65,0,0,1-4-3l2.69-3.43a8.14,8.14,0,0,0,6.47,3.12,6.32,6.32,0,0,0,4.48-1.53,5.92,5.92,0,0,0,1.64-4.52v-1.71a8.38,8.38,0,0,1-6.57,2.74,8.88,8.88,0,0,1-7.27-3.53Q1715.52,454.86,1715.52,448.6Zm5.68.49a10.19,10.19,0,0,0,1.55,6,5,5,0,0,0,4.33,2.19,5.47,5.47,0,0,0,5.11-3V443.18a5.41,5.41,0,0,0-5.07-2.88,5,5,0,0,0-4.37,2.23C1721.71,444,1721.2,446.2,1721.2,449.09Z" fill="#fff"/>
      <path d="M1569.71,500.29h8.9v5.21h-8.9v10.14h-5.53V505.5h-9v-5.21h9V490.8h5.53Z" fill="#fff"/>
      <path d="M1283.65,576.67a8.68,8.68,0,0,1-.65-2.37,9.57,9.57,0,0,1-12.89.66,7,7,0,0,1-2.42-5.4,7.22,7.22,0,0,1,3-6.22c2-1.44,4.88-2.17,8.62-2.17h3.49v-1.66a4.46,4.46,0,0,0-1.1-3.15,4.37,4.37,0,0,0-3.35-1.19,5,5,0,0,0-3.19,1,3,3,0,0,0-1.24,2.47h-5.7a6.32,6.32,0,0,1,1.38-3.9,9.3,9.3,0,0,1,3.77-2.85,13.12,13.12,0,0,1,5.3-1,10.63,10.63,0,0,1,7.11,2.24,8,8,0,0,1,2.71,6.29v11.44a13,13,0,0,0,1,5.46v.4Zm-6.26-4.11a6.44,6.44,0,0,0,3.18-.82,5.46,5.46,0,0,0,2.24-2.2v-4.78h-3.07a8.43,8.43,0,0,0-4.76,1.1,3.59,3.59,0,0,0-1.59,3.12,3.32,3.32,0,0,0,1.09,2.61A4.19,4.19,0,0,0,1277.39,572.56Z" fill="#fff"/>
      <path d="M1293.4,563.8q0-5.87,2.72-9.41a8.7,8.7,0,0,1,7.29-3.55,8.3,8.3,0,0,1,6.52,2.81v-13h5.69v36h-5.16l-.28-2.63a8.39,8.39,0,0,1-6.82,3.1,8.65,8.65,0,0,1-7.2-3.59Q1293.4,570,1293.4,563.8Zm5.7.49a10.52,10.52,0,0,0,1.49,6,4.83,4.83,0,0,0,4.23,2.16,5.38,5.38,0,0,0,5.11-3.11V558.55a5.31,5.31,0,0,0-5.07-3,4.86,4.86,0,0,0-4.26,2.19Q1299.1,559.88,1299.1,564.29Z" fill="#fff"/>
      <path d="M1320.5,563.8q0-5.87,2.71-9.41a8.72,8.72,0,0,1,7.29-3.55,8.3,8.3,0,0,1,6.52,2.81v-13h5.69v36h-5.15l-.28-2.63a8.42,8.42,0,0,1-6.82,3.1,8.68,8.68,0,0,1-7.21-3.59Q1320.49,570,1320.5,563.8Zm5.69.49a10.6,10.6,0,0,0,1.49,6,4.83,4.83,0,0,0,4.23,2.16,5.37,5.37,0,0,0,5.11-3.11V558.55a5.3,5.3,0,0,0-5.06-3,4.87,4.87,0,0,0-4.27,2.19Q1326.19,559.88,1326.19,564.29Z" fill="#fff"/>
      <path d="M1348.67,544.72a3.05,3.05,0,0,1,.83-2.18,3.13,3.13,0,0,1,2.38-.87,3.17,3.17,0,0,1,2.39.87,3,3,0,0,1,.84,2.18,3,3,0,0,1-.84,2.15,3.2,3.2,0,0,1-2.39.85,3.16,3.16,0,0,1-2.38-.85A3,3,0,0,1,1348.67,544.72Zm6,31.95H1349V551.31h5.69Z" fill="#fff"/>
      <path d="M1368.05,545.14v6.17h4.48v4.22h-4.48v14.15a3.14,3.14,0,0,0,.57,2.1,2.69,2.69,0,0,0,2.06.64,8.57,8.57,0,0,0,2-.23v4.41a14,14,0,0,1-3.75.54q-6.57,0-6.56-7.25V555.53h-4.18v-4.22h4.18v-6.17Z" fill="#fff"/>
      <path d="M1376.89,544.72a3,3,0,0,1,.83-2.18,3.13,3.13,0,0,1,2.38-.87,3.17,3.17,0,0,1,2.39.87,3,3,0,0,1,.84,2.18,3,3,0,0,1-.84,2.15,3.2,3.2,0,0,1-2.39.85,3.16,3.16,0,0,1-2.38-.85A2.94,2.94,0,0,1,1376.89,544.72Zm6,31.95h-5.69V551.31h5.69Z" fill="#fff"/>
      <path d="M1388.07,563.75a15,15,0,0,1,1.47-6.71,10.86,10.86,0,0,1,4.15-4.6,11.69,11.69,0,0,1,6.14-1.6,11.08,11.08,0,0,1,8.33,3.3,13,13,0,0,1,3.46,8.77l0,1.33a15.13,15.13,0,0,1-1.44,6.71,10.63,10.63,0,0,1-4.12,4.57,11.77,11.77,0,0,1-6.2,1.62,11,11,0,0,1-8.59-3.58q-3.22-3.57-3.22-9.53Zm5.69.49a10.19,10.19,0,0,0,1.62,6.13,5.26,5.26,0,0,0,4.5,2.22,5.2,5.2,0,0,0,4.49-2.25q1.61-2.25,1.6-6.59a10.09,10.09,0,0,0-1.65-6.09,5.58,5.58,0,0,0-8.92,0Q1393.77,559.84,1393.76,564.24Z" fill="#fff"/>
      <path d="M1421.75,551.31l.16,2.93a9.12,9.12,0,0,1,7.38-3.4q7.92,0,8.07,9.07v16.76h-5.7V560.24a5.28,5.28,0,0,0-1-3.58,4.4,4.4,0,0,0-3.41-1.16,5.5,5.5,0,0,0-5.14,3.12v18h-5.69V551.31Z" fill="#fff"/>
      <path d="M1458.31,576.67a9,9,0,0,1-.66-2.37,8.86,8.86,0,0,1-6.65,2.84,9,9,0,0,1-6.24-2.18,7,7,0,0,1-2.41-5.4,7.2,7.2,0,0,1,3-6.22c2-1.44,4.88-2.17,8.61-2.17h3.49v-1.66a4.42,4.42,0,0,0-1.1-3.15,4.36,4.36,0,0,0-3.35-1.19,5,5,0,0,0-3.19,1,3,3,0,0,0-1.24,2.47h-5.69a6.32,6.32,0,0,1,1.38-3.9,9.27,9.27,0,0,1,3.76-2.85,13.2,13.2,0,0,1,5.31-1,10.58,10.58,0,0,1,7.1,2.24,8,8,0,0,1,2.72,6.29v11.44a13,13,0,0,0,1,5.46v.4Zm-6.26-4.11a6.47,6.47,0,0,0,3.18-.82,5.44,5.44,0,0,0,2.23-2.2v-4.78h-3.07a8.42,8.42,0,0,0-4.75,1.1A3.57,3.57,0,0,0,1448,569a3.35,3.35,0,0,0,1.09,2.61A4.22,4.22,0,0,0,1452.05,572.56Z" fill="#fff"/>
      <path d="M1475.18,576.67h-5.69v-36h5.69Z" fill="#fff"/>
      <path d="M1508.7,574.18a8.84,8.84,0,0,1-7.13,3,7.85,7.85,0,0,1-6.24-2.42c-1.42-1.61-2.12-3.94-2.12-7V551.31h5.69v16.36c0,3.22,1.34,4.82,4,4.82s4.63-1,5.6-3V551.31h5.7v25.36h-5.37Z" fill="#fff"/>
      <path d="M1525.29,551.31l.17,2.93a9.09,9.09,0,0,1,7.38-3.4q7.92,0,8.06,9.07v16.76h-5.69V560.24a5.23,5.23,0,0,0-1-3.58,4.39,4.39,0,0,0-3.41-1.16,5.5,5.5,0,0,0-5.13,3.12v18h-5.69V551.31Z" fill="#fff"/>
      <path d="M1546.71,544.72a3,3,0,0,1,.84-2.18,3.12,3.12,0,0,1,2.38-.87,3.19,3.19,0,0,1,2.39.87,3,3,0,0,1,.84,2.18,3,3,0,0,1-.84,2.15,3.22,3.22,0,0,1-2.39.85,3.15,3.15,0,0,1-2.38-.85A3,3,0,0,1,1546.71,544.72Zm6,31.95h-5.69V551.31h5.69Z" fill="#fff"/>
      <path d="M1566.1,545.14v6.17h4.47v4.22h-4.47v14.15a3.14,3.14,0,0,0,.57,2.1,2.66,2.66,0,0,0,2,.64,8.51,8.51,0,0,0,2-.23v4.41a13.93,13.93,0,0,1-3.75.54q-6.56,0-6.56-7.25V555.53h-4.17v-4.22h4.17v-6.17Z" fill="#fff"/>
      <path d="M1598,577.14a11.74,11.74,0,0,1-8.77-3.42,12.33,12.33,0,0,1-3.37-9.08v-.7a15.22,15.22,0,0,1,1.47-6.79,11.08,11.08,0,0,1,4.11-4.65,10.87,10.87,0,0,1,5.91-1.66q5.17,0,8,3.3t2.82,9.35v2.3h-16.57a7.68,7.68,0,0,0,2.1,5,6.3,6.3,0,0,0,4.63,1.83,7.72,7.72,0,0,0,6.38-3.17l3.07,2.93a10.19,10.19,0,0,1-4.07,3.53A12.7,12.7,0,0,1,1598,577.14Zm-.68-21.73a4.8,4.8,0,0,0-3.78,1.64,8.46,8.46,0,0,0-1.84,4.57h10.85v-.42a7,7,0,0,0-1.52-4.33A4.79,4.79,0,0,0,1597.36,555.41Z" fill="#fff"/>
      <path d="M1617.92,551.31l.16,2.93a9.12,9.12,0,0,1,7.38-3.4c5.29,0,8,3,8.07,9.07v16.76h-5.7V560.24a5.28,5.28,0,0,0-1-3.58,4.4,4.4,0,0,0-3.41-1.16,5.48,5.48,0,0,0-5.13,3.12v18h-5.7V551.31Z" fill="#fff"/>
      <path d="M1638.26,563.8q0-5.87,2.72-9.41a8.7,8.7,0,0,1,7.29-3.55,8.3,8.3,0,0,1,6.52,2.81v-13h5.69v36h-5.16L1655,574a8.39,8.39,0,0,1-6.82,3.1,8.65,8.65,0,0,1-7.2-3.59Q1638.26,570,1638.26,563.8Zm5.7.49a10.52,10.52,0,0,0,1.49,6,4.83,4.83,0,0,0,4.23,2.16,5.38,5.38,0,0,0,5.11-3.11V558.55a5.31,5.31,0,0,0-5.07-3,4.86,4.86,0,0,0-4.26,2.19Q1644,559.88,1644,564.29Z" fill="#fff"/>
      <path d="M1665.36,563.75a15,15,0,0,1,1.47-6.71,10.86,10.86,0,0,1,4.15-4.6,11.69,11.69,0,0,1,6.14-1.6,11.08,11.08,0,0,1,8.33,3.3,13,13,0,0,1,3.46,8.77l0,1.33a15.13,15.13,0,0,1-1.44,6.71,10.63,10.63,0,0,1-4.12,4.57,11.77,11.77,0,0,1-6.2,1.62,11,11,0,0,1-8.59-3.58q-3.22-3.57-3.22-9.53Zm5.69.49a10.19,10.19,0,0,0,1.62,6.13,5.26,5.26,0,0,0,4.5,2.22,5.2,5.2,0,0,0,4.49-2.25q1.6-2.25,1.6-6.59a10.09,10.09,0,0,0-1.65-6.09,5.58,5.58,0,0,0-8.92,0Q1671.05,559.84,1671.05,564.24Z" fill="#fff"/>
      <path d="M1707,556.51a14.72,14.72,0,0,0-2.32-.19q-3.92,0-5.28,3v17.35h-5.69V551.31h5.44l.14,2.83a6.41,6.41,0,0,1,5.72-3.3,5.28,5.28,0,0,1,2,.33Z" fill="#fff"/>
      <path d="M1724.84,569.78a2.58,2.58,0,0,0-1.25-2.32,13.3,13.3,0,0,0-4.16-1.41,21.41,21.41,0,0,1-4.86-1.55q-4.26-2.06-4.26-6a6.76,6.76,0,0,1,2.76-5.49,11,11,0,0,1,7-2.2,11.34,11.34,0,0,1,7.34,2.25,7.12,7.12,0,0,1,2.8,5.83h-5.69a3.53,3.53,0,0,0-1.22-2.73,4.69,4.69,0,0,0-3.23-1.09,5,5,0,0,0-3.06.87,2.74,2.74,0,0,0-1.19,2.32,2.31,2.31,0,0,0,1.1,2,15.56,15.56,0,0,0,4.46,1.47,21,21,0,0,1,5.26,1.75,7.54,7.54,0,0,1,2.84,2.45,6.32,6.32,0,0,1,.92,3.47,6.59,6.59,0,0,1-2.83,5.54,12.08,12.08,0,0,1-7.43,2.13,13.15,13.15,0,0,1-5.56-1.13,9.22,9.22,0,0,1-3.8-3.09,7.4,7.4,0,0,1-1.36-4.25H1715a4,4,0,0,0,1.52,3.11,5.91,5.91,0,0,0,3.73,1.09,5.75,5.75,0,0,0,3.42-.86A2.64,2.64,0,0,0,1724.84,569.78Z" fill="#fff"/>
      <path d="M1746.57,577.14a11.77,11.77,0,0,1-8.78-3.42,12.37,12.37,0,0,1-3.36-9.08v-.7a15.22,15.22,0,0,1,1.46-6.79,11.21,11.21,0,0,1,4.11-4.65,10.89,10.89,0,0,1,5.91-1.66q5.17,0,8,3.3t2.83,9.35v2.3h-16.57a7.58,7.58,0,0,0,2.1,5,6.28,6.28,0,0,0,4.62,1.83,7.72,7.72,0,0,0,6.38-3.17l3.07,2.93a10.19,10.19,0,0,1-4.07,3.53A12.63,12.63,0,0,1,1746.57,577.14Zm-.68-21.73a4.81,4.81,0,0,0-3.79,1.64,8.54,8.54,0,0,0-1.84,4.57h10.85v-.42a6.91,6.91,0,0,0-1.52-4.33A4.78,4.78,0,0,0,1745.89,555.41Z" fill="#fff"/>
      <path d="M1766.51,551.31l.17,2.65a9.11,9.11,0,0,1,7.31-3.12q5.09,0,7,3.89a9,9,0,0,1,7.78-3.89q4.2,0,6.25,2.32t2.09,6.84v16.67h-5.69v-16.5a5,5,0,0,0-1.06-3.54,4.6,4.6,0,0,0-3.49-1.13,4.72,4.72,0,0,0-3.17,1,5.48,5.48,0,0,0-1.73,2.73l0,17.39h-5.7V560q-.12-4.49-4.57-4.48a5,5,0,0,0-4.85,2.79v18.38h-5.7V551.31Z" fill="#fff"/>
      <path d="M1814.09,577.14a11.77,11.77,0,0,1-8.78-3.42,12.37,12.37,0,0,1-3.36-9.08v-.7a15.35,15.35,0,0,1,1.46-6.79,11.17,11.17,0,0,1,4.12-4.65,10.84,10.84,0,0,1,5.9-1.66c3.46,0,6.12,1.1,8,3.3s2.82,5.32,2.82,9.35v2.3h-16.57a7.58,7.58,0,0,0,2.1,5,6.3,6.3,0,0,0,4.63,1.83,7.7,7.7,0,0,0,6.37-3.17l3.07,2.93a10.16,10.16,0,0,1-4.06,3.53A12.7,12.7,0,0,1,1814.09,577.14Zm-.68-21.73a4.83,4.83,0,0,0-3.79,1.64,8.46,8.46,0,0,0-1.83,4.57h10.85v-.42a7,7,0,0,0-1.53-4.33A4.77,4.77,0,0,0,1813.41,555.41Z" fill="#fff"/>
      <path d="M1834,551.31l.17,2.93a9.09,9.09,0,0,1,7.38-3.4q7.92,0,8.06,9.07v16.76h-5.69V560.24a5.28,5.28,0,0,0-1-3.58,4.42,4.42,0,0,0-3.41-1.16,5.5,5.5,0,0,0-5.14,3.12v18h-5.69V551.31Z" fill="#fff"/>
      <path d="M1862.51,545.14v6.17H1867v4.22h-4.48v14.15a3.08,3.08,0,0,0,.58,2.1,2.65,2.65,0,0,0,2.05.64,8.57,8.57,0,0,0,2-.23v4.41a14,14,0,0,1-3.75.54q-6.57,0-6.56-7.25V555.53h-4.18v-4.22h4.18v-6.17Z" fill="#fff"/>
      <path d="M1546.75,621.35a14.87,14.87,0,0,1,1.48-6.71,10.68,10.68,0,0,1,4.15-4.6,11.66,11.66,0,0,1,6.14-1.6,11.09,11.09,0,0,1,8.33,3.3,13,13,0,0,1,3.45,8.77l0,1.33a15.13,15.13,0,0,1-1.44,6.71,10.66,10.66,0,0,1-4.13,4.57,11.74,11.74,0,0,1-6.2,1.61,11,11,0,0,1-8.59-3.57q-3.23-3.57-3.22-9.53Zm5.7.49a10.19,10.19,0,0,0,1.61,6.13,5.26,5.26,0,0,0,4.5,2.22,5.2,5.2,0,0,0,4.49-2.25q1.6-2.25,1.61-6.59a10,10,0,0,0-1.66-6.09,5.57,5.57,0,0,0-8.91,0C1553,616.7,1552.45,618.91,1552.45,621.84Z" fill="#fff"/>
      <path d="M1588.42,614.11a13.54,13.54,0,0,0-2.32-.19q-3.91,0-5.27,3v17.35h-5.7V608.91h5.44l.14,2.83a6.42,6.42,0,0,1,5.72-3.3,5.37,5.37,0,0,1,2,.33Z" fill="#fff"/>
      <path d="M1373.32,678.74h-6.61v13.13h-5.92V657.74h12c3.93,0,7,.89,9.11,2.65s3.21,4.33,3.21,7.67a9.62,9.62,0,0,1-1.65,5.74,10.54,10.54,0,0,1-4.6,3.55l7.66,14.21v.31h-6.35Zm-6.61-4.78h6.1a6.78,6.78,0,0,0,4.69-1.51,5.29,5.29,0,0,0,1.68-4.14,5.6,5.6,0,0,0-1.56-4.24,6.58,6.58,0,0,0-4.65-1.55h-6.26Z" fill="#fff"/>
      <path d="M1401.36,692.33a11.76,11.76,0,0,1-8.78-3.41,12.38,12.38,0,0,1-3.37-9.08v-.7a15.22,15.22,0,0,1,1.47-6.79,11.21,11.21,0,0,1,4.11-4.65,10.89,10.89,0,0,1,5.91-1.66q5.17,0,8,3.3t2.83,9.35V681H1395a7.65,7.65,0,0,0,2.09,5,6.3,6.3,0,0,0,4.63,1.83,7.72,7.72,0,0,0,6.38-3.17l3.07,2.93a10.27,10.27,0,0,1-4.07,3.53A12.66,12.66,0,0,1,1401.36,692.33Zm-.68-21.72a4.77,4.77,0,0,0-3.79,1.64,8.54,8.54,0,0,0-1.84,4.57h10.85v-.42a6.91,6.91,0,0,0-1.52-4.33A4.78,4.78,0,0,0,1400.68,670.61Z" fill="#fff"/>
      <path d="M1421.23,666.51l.16,2.93a9.12,9.12,0,0,1,7.39-3.4q7.92,0,8.06,9.07v16.76h-5.7V675.44a5.23,5.23,0,0,0-1-3.58,4.39,4.39,0,0,0-3.41-1.16,5.48,5.48,0,0,0-5.13,3.12v18h-5.7V666.51Z" fill="#fff"/>
      <path d="M1453.81,692.33a11.76,11.76,0,0,1-8.78-3.41,12.37,12.37,0,0,1-3.36-9.08v-.7a15.35,15.35,0,0,1,1.46-6.79,11.17,11.17,0,0,1,4.12-4.65,10.84,10.84,0,0,1,5.9-1.66c3.46,0,6.12,1.1,8,3.3s2.82,5.32,2.82,9.35V681h-16.57a7.61,7.61,0,0,0,2.1,5,6.29,6.29,0,0,0,4.63,1.83,7.7,7.7,0,0,0,6.37-3.17l3.07,2.93a10.24,10.24,0,0,1-4.06,3.53A12.7,12.7,0,0,1,1453.81,692.33Zm-.68-21.72a4.79,4.79,0,0,0-3.79,1.64,8.54,8.54,0,0,0-1.84,4.57h10.86v-.42a7,7,0,0,0-1.53-4.33A4.77,4.77,0,0,0,1453.13,670.61Z" fill="#fff"/>
      <path d="M1490.68,684l4-17.5h5.55l-6.91,25.36h-4.69l-5.44-17.42-5.34,17.42h-4.69l-6.94-25.36h5.56l4.1,17.32,5.2-17.32h4.29Z" fill="#fff"/>
      <path d="M1519.22,691.87a8.68,8.68,0,0,1-.65-2.37,9.59,9.59,0,0,1-12.89.65,7,7,0,0,1-2.42-5.39,7.22,7.22,0,0,1,3-6.22c2-1.44,4.88-2.17,8.62-2.17h3.49v-1.66a4.46,4.46,0,0,0-1.1-3.15,4.37,4.37,0,0,0-3.35-1.19,5,5,0,0,0-3.19,1,3,3,0,0,0-1.24,2.47h-5.7a6.32,6.32,0,0,1,1.38-3.9,9.3,9.3,0,0,1,3.77-2.85,13.12,13.12,0,0,1,5.3-1,10.63,10.63,0,0,1,7.11,2.24,8,8,0,0,1,2.71,6.29V686a12.81,12.81,0,0,0,1,5.46v.4Zm-6.26-4.11a6.44,6.44,0,0,0,3.18-.82,5.46,5.46,0,0,0,2.24-2.2V680h-3.07a8.43,8.43,0,0,0-4.76,1.1,3.58,3.58,0,0,0-1.59,3.12,3.32,3.32,0,0,0,1.09,2.61A4.19,4.19,0,0,0,1513,687.76Z" fill="#fff"/>
      <path d="M1536.1,691.87h-5.7v-36h5.7Z" fill="#fff"/>
      <path d="M1553.18,679a15,15,0,0,1,1.48-6.71,10.74,10.74,0,0,1,4.15-4.6A11.69,11.69,0,0,1,1565,666a11.08,11.08,0,0,1,8.33,3.3,13,13,0,0,1,3.46,8.77l0,1.33a15.13,15.13,0,0,1-1.44,6.71,10.7,10.7,0,0,1-4.12,4.57,11.77,11.77,0,0,1-6.2,1.61,11,11,0,0,1-8.59-3.57q-3.23-3.57-3.23-9.53Zm5.7.49a10.19,10.19,0,0,0,1.62,6.13,5.63,5.63,0,0,0,9,0q1.61-2.25,1.61-6.59a10.09,10.09,0,0,0-1.65-6.09,5.58,5.58,0,0,0-8.92,0Q1558.89,675,1558.88,679.44Z" fill="#fff"/>
      <path d="M1583.58,691.87V670.72h-3.87v-4.21h3.87v-2.32a8.68,8.68,0,0,1,2.35-6.52,9,9,0,0,1,6.56-2.3,12.82,12.82,0,0,1,3.19.43l-.14,4.45a10.92,10.92,0,0,0-2.18-.19q-4.08,0-4.08,4.2v2.25h5.15v4.21h-5.15v21.15Z" fill="#fff"/>
      <path d="M1621.71,692.33a11.75,11.75,0,0,1-8.77-3.41,12.38,12.38,0,0,1-3.37-9.08v-.7a15.22,15.22,0,0,1,1.47-6.79,11.21,11.21,0,0,1,4.11-4.65,10.89,10.89,0,0,1,5.91-1.66q5.18,0,8,3.3t2.83,9.35V681h-16.57a7.65,7.65,0,0,0,2.09,5,6.3,6.3,0,0,0,4.63,1.83,7.72,7.72,0,0,0,6.38-3.17l3.07,2.93a10.27,10.27,0,0,1-4.07,3.53A12.67,12.67,0,0,1,1621.71,692.33Zm-.67-21.72a4.77,4.77,0,0,0-3.79,1.64,8.54,8.54,0,0,0-1.84,4.57h10.85v-.42a6.91,6.91,0,0,0-1.52-4.33A4.78,4.78,0,0,0,1621,670.61Z" fill="#fff"/>
      <path d="M1645.41,674.85l4.83-8.34h6.33L1648.81,679l8,12.87h-6.28l-5.06-8.68-5,8.68h-6.33l8-12.87-7.74-12.49h6.29Z" fill="#fff"/>
      <path d="M1660.46,659.92a3,3,0,0,1,.83-2.18,3.13,3.13,0,0,1,2.38-.87,3.17,3.17,0,0,1,2.39.87,3,3,0,0,1,.84,2.18,2.93,2.93,0,0,1-.84,2.14,3.17,3.17,0,0,1-2.39.86,3.13,3.13,0,0,1-2.38-.86A2.92,2.92,0,0,1,1660.46,659.92Zm6,32h-5.69V666.51h5.69Z" fill="#fff"/>
      <path d="M1686.92,685a2.59,2.59,0,0,0-1.26-2.32,13.15,13.15,0,0,0-4.16-1.4,21.48,21.48,0,0,1-4.85-1.55c-2.84-1.37-4.26-3.37-4.26-6a6.76,6.76,0,0,1,2.76-5.48,10.94,10.94,0,0,1,7-2.2,11.39,11.39,0,0,1,7.35,2.25,7.12,7.12,0,0,1,2.8,5.83h-5.69a3.53,3.53,0,0,0-1.22-2.73,4.7,4.7,0,0,0-3.24-1.09,5,5,0,0,0-3.06.87,2.75,2.75,0,0,0-1.18,2.32,2.31,2.31,0,0,0,1.1,2,15.32,15.32,0,0,0,4.46,1.46,21.53,21.53,0,0,1,5.26,1.76,7.43,7.43,0,0,1,2.83,2.45,6.22,6.22,0,0,1,.93,3.47,6.6,6.6,0,0,1-2.84,5.54,12,12,0,0,1-7.43,2.12,13.1,13.1,0,0,1-5.55-1.12,9.16,9.16,0,0,1-3.8-3.09,7.4,7.4,0,0,1-1.36-4.25h5.53a4,4,0,0,0,1.53,3.11,5.9,5.9,0,0,0,3.72,1.09,5.81,5.81,0,0,0,3.43-.86A2.64,2.64,0,0,0,1686.92,685Z" fill="#fff"/>
      <path d="M1704.61,660.34v6.17h4.48v4.21h-4.48v14.16a3.08,3.08,0,0,0,.58,2.1,2.65,2.65,0,0,0,2,.64,8.57,8.57,0,0,0,2-.23v4.41a14.43,14.43,0,0,1-3.75.53q-6.56,0-6.56-7.24V670.72h-4.17v-4.21h4.17v-6.17Z" fill="#fff"/>
      <path d="M1713.45,659.92a3.05,3.05,0,0,1,.83-2.18,3.7,3.7,0,0,1,4.77,0,3,3,0,0,1,.84,2.18,2.93,2.93,0,0,1-.84,2.14,3.74,3.74,0,0,1-4.77,0A3,3,0,0,1,1713.45,659.92Zm6,32h-5.7V666.51h5.7Z" fill="#fff"/>
      <path d="M1731,666.51l.16,2.93a9.12,9.12,0,0,1,7.39-3.4q7.92,0,8.06,9.07v16.76h-5.7V675.44a5.23,5.23,0,0,0-1-3.58,4.39,4.39,0,0,0-3.41-1.16,5.48,5.48,0,0,0-5.13,3.12v18h-5.7V666.51Z" fill="#fff"/>
      <path d="M1751.39,679q0-5.91,2.78-9.44a8.91,8.91,0,0,1,7.37-3.52,8.36,8.36,0,0,1,6.82,3l.26-2.55h5.13v24.58a10.22,10.22,0,0,1-3.1,7.88,11.83,11.83,0,0,1-8.38,2.88,13.55,13.55,0,0,1-5.45-1.16,9.66,9.66,0,0,1-4-3l2.69-3.42a8.14,8.14,0,0,0,6.47,3.12,6.28,6.28,0,0,0,4.48-1.54,5.88,5.88,0,0,0,1.64-4.51v-1.71a8.38,8.38,0,0,1-6.56,2.74,8.91,8.91,0,0,1-7.28-3.53Q1751.4,685.26,1751.39,679Zm5.68.49a10.26,10.26,0,0,0,1.55,6,5,5,0,0,0,4.33,2.19,5.47,5.47,0,0,0,5.11-3V673.58a5.41,5.41,0,0,0-5.06-2.88,5,5,0,0,0-4.38,2.23Q1757.07,675.15,1757.07,679.49Z" fill="#fff"/>
      <path d="M1396.28,747a8.83,8.83,0,0,1-7.12,2.95c-2.75,0-4.84-.8-6.25-2.41s-2.12-3.94-2.12-7V724.11h5.69v16.36q0,4.81,4,4.82c2.77,0,4.63-1,5.6-3V724.11h5.7v25.36h-5.37Z" fill="#fff"/>
      <path d="M1412.88,724.11,1413,727a9.1,9.1,0,0,1,7.38-3.4q7.92,0,8.06,9.07v16.76h-5.69V733a5.28,5.28,0,0,0-1-3.58,4.42,4.42,0,0,0-3.41-1.16,5.5,5.5,0,0,0-5.14,3.12v18.05h-5.69V724.11Z" fill="#fff"/>
      <path d="M1434.3,717.52a3,3,0,0,1,.83-2.18,3.13,3.13,0,0,1,2.38-.87,3.17,3.17,0,0,1,2.39.87,3,3,0,0,1,.84,2.18,3,3,0,0,1-.84,2.15,3.2,3.2,0,0,1-2.39.85,3.16,3.16,0,0,1-2.38-.85A2.94,2.94,0,0,1,1434.3,717.52Zm6,32h-5.69V724.11h5.69Z" fill="#fff"/>
      <path d="M1453.68,717.94v6.17h4.48v4.22h-4.48v14.15a3.14,3.14,0,0,0,.57,2.1,2.68,2.68,0,0,0,2,.64,8.65,8.65,0,0,0,2-.23v4.41a14,14,0,0,1-3.75.53q-6.57,0-6.57-7.24V728.33h-4.17v-4.22H1448v-6.17Z" fill="#fff"/>
      <path d="M1485.62,749.93a11.75,11.75,0,0,1-8.77-3.41,12.38,12.38,0,0,1-3.37-9.08v-.7A15.22,15.22,0,0,1,1475,730a11.21,11.21,0,0,1,4.11-4.65,10.89,10.89,0,0,1,5.91-1.66q5.17,0,8,3.3t2.83,9.35v2.3h-16.57a7.65,7.65,0,0,0,2.09,5,6.3,6.3,0,0,0,4.63,1.83,7.72,7.72,0,0,0,6.38-3.17l3.07,2.93a10.19,10.19,0,0,1-4.07,3.53A12.67,12.67,0,0,1,1485.62,749.93Zm-.67-21.72a4.81,4.81,0,0,0-3.79,1.64,8.54,8.54,0,0,0-1.84,4.57h10.85V734a6.91,6.91,0,0,0-1.52-4.33A4.78,4.78,0,0,0,1485,728.21Z" fill="#fff"/>
      <path d="M1505.5,724.11l.16,2.93a9.12,9.12,0,0,1,7.39-3.4q7.92,0,8.06,9.07v16.76h-5.7V733a5.23,5.23,0,0,0-1-3.58,4.39,4.39,0,0,0-3.41-1.16,5.48,5.48,0,0,0-5.13,3.12v18.05h-5.7V724.11Z" fill="#fff"/>
      <path d="M1525.84,736.6q0-5.86,2.72-9.41a8.71,8.71,0,0,1,7.29-3.55,8.3,8.3,0,0,1,6.52,2.81v-13h5.69v36h-5.15l-.29-2.63a8.39,8.39,0,0,1-6.82,3.09,8.65,8.65,0,0,1-7.2-3.58Q1525.84,742.77,1525.84,736.6Zm5.7.49a10.6,10.6,0,0,0,1.49,6,4.83,4.83,0,0,0,4.23,2.16,5.37,5.37,0,0,0,5.11-3.11V731.35a5.31,5.31,0,0,0-5.07-3.05,4.86,4.86,0,0,0-4.26,2.19Q1531.54,732.68,1531.54,737.09Z" fill="#fff"/>
      <path d="M1552.94,736.55a15,15,0,0,1,1.47-6.71,10.86,10.86,0,0,1,4.15-4.6,11.69,11.69,0,0,1,6.14-1.6,11.12,11.12,0,0,1,8.34,3.3,13,13,0,0,1,3.45,8.77l0,1.33a15,15,0,0,1-1.45,6.71,10.63,10.63,0,0,1-4.12,4.57,11.77,11.77,0,0,1-6.2,1.61,11,11,0,0,1-8.59-3.57q-3.23-3.57-3.22-9.53Zm5.69.49a10.19,10.19,0,0,0,1.62,6.13,5.26,5.26,0,0,0,4.5,2.22,5.2,5.2,0,0,0,4.49-2.25q1.6-2.25,1.6-6.59a10.09,10.09,0,0,0-1.65-6.09,5.58,5.58,0,0,0-8.92,0Q1558.64,732.64,1558.63,737Z" fill="#fff"/>
      <path d="M1594.61,729.31a13.54,13.54,0,0,0-2.32-.19q-3.91,0-5.27,3v17.35h-5.7V724.11h5.44l.14,2.83a6.41,6.41,0,0,1,5.72-3.3,5.28,5.28,0,0,1,2,.33Z" fill="#fff"/>
      <path d="M1612.42,742.58a2.58,2.58,0,0,0-1.25-2.32,13.21,13.21,0,0,0-4.16-1.41,21.15,21.15,0,0,1-4.85-1.55c-2.85-1.37-4.27-3.37-4.27-6a6.75,6.75,0,0,1,2.77-5.49,10.9,10.9,0,0,1,7-2.2,11.39,11.39,0,0,1,7.35,2.25,7.15,7.15,0,0,1,2.8,5.83h-5.7a3.53,3.53,0,0,0-1.22-2.73,4.69,4.69,0,0,0-3.23-1.09,5,5,0,0,0-3.06.87,2.73,2.73,0,0,0-1.18,2.32,2.29,2.29,0,0,0,1.1,2,15.46,15.46,0,0,0,4.45,1.47,21,21,0,0,1,5.26,1.75,7.47,7.47,0,0,1,2.84,2.45,6.32,6.32,0,0,1,.92,3.47,6.59,6.59,0,0,1-2.83,5.54,12.06,12.06,0,0,1-7.43,2.12,13.15,13.15,0,0,1-5.56-1.12,9.12,9.12,0,0,1-3.79-3.09,7.33,7.33,0,0,1-1.36-4.25h5.53a4,4,0,0,0,1.52,3.11,5.91,5.91,0,0,0,3.73,1.09,5.75,5.75,0,0,0,3.42-.86A2.64,2.64,0,0,0,1612.42,742.58Z" fill="#fff"/>
      <path d="M1634.15,749.93a11.76,11.76,0,0,1-8.78-3.41,12.37,12.37,0,0,1-3.36-9.08v-.7a15.35,15.35,0,0,1,1.46-6.79,11.17,11.17,0,0,1,4.12-4.65,10.84,10.84,0,0,1,5.9-1.66c3.46,0,6.12,1.1,8,3.3s2.82,5.32,2.82,9.35v2.3h-16.57a7.61,7.61,0,0,0,2.1,5,6.29,6.29,0,0,0,4.63,1.83,7.7,7.7,0,0,0,6.37-3.17l3.07,2.93a10.16,10.16,0,0,1-4.06,3.53A12.7,12.7,0,0,1,1634.15,749.93Zm-.68-21.72a4.82,4.82,0,0,0-3.79,1.64,8.54,8.54,0,0,0-1.84,4.57h10.86V734a7,7,0,0,0-1.53-4.33A4.77,4.77,0,0,0,1633.47,728.21Z" fill="#fff"/>
      <path d="M1654.09,724.11l.17,2.65a9.12,9.12,0,0,1,7.31-3.12c3.39,0,5.71,1.29,7,3.89a9,9,0,0,1,7.78-3.89q4.2,0,6.25,2.32c1.37,1.55,2.06,3.83,2.1,6.84v16.67H1679V733a5.06,5.06,0,0,0-1-3.54,4.64,4.64,0,0,0-3.5-1.13,4.72,4.72,0,0,0-3.17,1.05,5.4,5.4,0,0,0-1.72,2.73l0,17.39h-5.7V732.78c-.07-3-1.6-4.48-4.57-4.48a5,5,0,0,0-4.85,2.79v18.38h-5.69V724.11Z" fill="#fff"/>
      <path d="M1701.67,749.93a11.77,11.77,0,0,1-8.78-3.41,12.37,12.37,0,0,1-3.36-9.08v-.7A15.22,15.22,0,0,1,1691,730a11.08,11.08,0,0,1,4.11-4.65,10.87,10.87,0,0,1,5.91-1.66q5.18,0,8,3.3t2.82,9.35v2.3h-16.57a7.66,7.66,0,0,0,2.1,5,6.3,6.3,0,0,0,4.63,1.83,7.74,7.74,0,0,0,6.38-3.17l3.07,2.93a10.26,10.26,0,0,1-4.07,3.53A12.7,12.7,0,0,1,1701.67,749.93Zm-.68-21.72a4.8,4.8,0,0,0-3.78,1.64,8.46,8.46,0,0,0-1.84,4.57h10.85V734a7,7,0,0,0-1.52-4.33A4.81,4.81,0,0,0,1701,728.21Z" fill="#fff"/>
      <path d="M1721.55,724.11l.16,2.93a9.12,9.12,0,0,1,7.38-3.4c5.29,0,8,3,8.07,9.07v16.76h-5.7V733a5.28,5.28,0,0,0-1-3.58,4.4,4.4,0,0,0-3.41-1.16,5.48,5.48,0,0,0-5.13,3.12v18.05h-5.7V724.11Z" fill="#fff"/>
      <path d="M1750.09,717.94v6.17h4.48v4.22h-4.48v14.15a3.14,3.14,0,0,0,.58,2.1,2.65,2.65,0,0,0,2,.64,8.51,8.51,0,0,0,2-.23v4.41a14,14,0,0,1-3.75.53q-6.56,0-6.56-7.24V728.33h-4.17v-4.22h4.17v-6.17Z" fill="#fff"/>
      <path d="M1290.34,807.07a9.06,9.06,0,0,1-.65-2.37,9.59,9.59,0,0,1-12.89.65,7,7,0,0,1-2.42-5.39,7.22,7.22,0,0,1,3-6.22c2-1.44,4.88-2.17,8.62-2.17h3.49v-1.66a4.46,4.46,0,0,0-1.1-3.15,4.37,4.37,0,0,0-3.35-1.19,5,5,0,0,0-3.19,1,3,3,0,0,0-1.24,2.47h-5.7a6.32,6.32,0,0,1,1.38-3.9,9.3,9.3,0,0,1,3.77-2.85,13.13,13.13,0,0,1,5.31-1,10.62,10.62,0,0,1,7.1,2.24,8,8,0,0,1,2.72,6.29v11.44a13,13,0,0,0,1,5.46v.4Zm-6.25-4.11a6.43,6.43,0,0,0,3.17-.82,5.46,5.46,0,0,0,2.24-2.2v-4.78h-3.07a8.43,8.43,0,0,0-4.76,1.1,3.58,3.58,0,0,0-1.59,3.12,3.32,3.32,0,0,0,1.09,2.61A4.2,4.2,0,0,0,1284.09,803Z" fill="#fff"/>
      <path d="M1303.16,807.07V785.93h-3.86v-4.22h3.86v-2.32a8.72,8.72,0,0,1,2.35-6.52,9,9,0,0,1,6.56-2.3,12.82,12.82,0,0,1,3.19.43l-.14,4.45a10.85,10.85,0,0,0-2.18-.19q-4.08,0-4.08,4.2v2.25H1314v4.22h-5.16v21.14Z" fill="#fff"/>
      <path d="M1325.31,775.54v6.17h4.48v4.22h-4.48v14.15a3.08,3.08,0,0,0,.58,2.1,2.65,2.65,0,0,0,2,.64,8.57,8.57,0,0,0,2-.23V807a14.43,14.43,0,0,1-3.75.53q-6.57,0-6.56-7.24V785.93h-4.17v-4.22h4.17v-6.17Z" fill="#fff"/>
      <path d="M1345.3,807.53a11.75,11.75,0,0,1-8.77-3.41,12.38,12.38,0,0,1-3.37-9.08v-.7a15.22,15.22,0,0,1,1.47-6.79,11.21,11.21,0,0,1,4.11-4.65,10.89,10.89,0,0,1,5.91-1.66q5.17,0,8,3.3t2.83,9.35v2.3h-16.57a7.65,7.65,0,0,0,2.09,5,6.3,6.3,0,0,0,4.63,1.83,7.72,7.72,0,0,0,6.38-3.17l3.07,2.93a10.27,10.27,0,0,1-4.07,3.53A12.67,12.67,0,0,1,1345.3,807.53Zm-.68-21.72a4.77,4.77,0,0,0-3.78,1.64A8.54,8.54,0,0,0,1339,792h10.85v-.42a6.91,6.91,0,0,0-1.52-4.33A4.79,4.79,0,0,0,1344.62,785.81Z" fill="#fff"/>
      <path d="M1373.17,786.91a13.54,13.54,0,0,0-2.32-.19q-3.91,0-5.27,3v17.35h-5.7V781.71h5.44l.14,2.83a6.42,6.42,0,0,1,5.72-3.3,5.37,5.37,0,0,1,2,.33Z" fill="#fff"/>
      <path d="M1399.89,807.53a11.77,11.77,0,0,1-8.78-3.41,12.37,12.37,0,0,1-3.36-9.08v-.7a15.35,15.35,0,0,1,1.46-6.79,11.17,11.17,0,0,1,4.12-4.65,10.84,10.84,0,0,1,5.9-1.66q5.19,0,8,3.3t2.82,9.35v2.3h-16.57a7.61,7.61,0,0,0,2.1,5,6.3,6.3,0,0,0,4.63,1.83,7.7,7.7,0,0,0,6.37-3.17l3.07,2.93a10.24,10.24,0,0,1-4.06,3.53A12.7,12.7,0,0,1,1399.89,807.53Zm-.68-21.72a4.77,4.77,0,0,0-3.78,1.64,8.39,8.39,0,0,0-1.84,4.57h10.85v-.42a7,7,0,0,0-1.53-4.33A4.77,4.77,0,0,0,1399.21,785.81Z" fill="#fff"/>
      <path d="M1423.59,790.05l4.82-8.34h6.33L1427,794.2l8,12.87h-6.28l-5.06-8.68-5,8.68h-6.33l8-12.87-7.73-12.49h6.28Z" fill="#fff"/>
      <path d="M1460.83,794.64c0,3.93-.89,7.05-2.67,9.39a9.3,9.3,0,0,1-13.86.76v12h-5.69V781.71h5.25l.23,2.57a8.38,8.38,0,0,1,6.82-3,8.65,8.65,0,0,1,7.28,3.45q2.64,3.46,2.64,9.6Zm-5.67-.49a10.54,10.54,0,0,0-1.52-6,4.88,4.88,0,0,0-4.32-2.23,5.25,5.25,0,0,0-5,2.88V800a5.31,5.31,0,0,0,5.07,3,4.9,4.9,0,0,0,4.25-2.19C1454.64,799.34,1455.16,797.12,1455.16,794.15Z" fill="#fff"/>
      <path d="M1465.66,775.12a3,3,0,0,1,.83-2.18,3.13,3.13,0,0,1,2.38-.87,3.17,3.17,0,0,1,2.39.87,3,3,0,0,1,.84,2.18,2.93,2.93,0,0,1-.84,2.14,3.17,3.17,0,0,1-2.39.86,3.13,3.13,0,0,1-2.38-.86A2.92,2.92,0,0,1,1465.66,775.12Zm6,32H1466V781.71h5.69Z" fill="#fff"/>
      <path d="M1491.18,786.91a13.54,13.54,0,0,0-2.32-.19q-3.91,0-5.27,3v17.35h-5.7V781.71h5.44l.14,2.83a6.41,6.41,0,0,1,5.72-3.3,5.28,5.28,0,0,1,2,.33Z" fill="#fff"/>
      <path d="M1505.5,807.53a11.76,11.76,0,0,1-8.78-3.41,12.37,12.37,0,0,1-3.36-9.08v-.7a15.35,15.35,0,0,1,1.46-6.79,11.17,11.17,0,0,1,4.12-4.65,10.84,10.84,0,0,1,5.9-1.66c3.46,0,6.12,1.1,8,3.3s2.82,5.32,2.82,9.35v2.3H1499.1a7.61,7.61,0,0,0,2.1,5,6.3,6.3,0,0,0,4.63,1.83,7.7,7.7,0,0,0,6.37-3.17l3.07,2.93a10.24,10.24,0,0,1-4.06,3.53A12.7,12.7,0,0,1,1505.5,807.53Zm-.68-21.72a4.77,4.77,0,0,0-3.78,1.64,8.39,8.39,0,0,0-1.84,4.57h10.85v-.42a7,7,0,0,0-1.53-4.33A4.77,4.77,0,0,0,1504.82,785.81Z" fill="#fff"/>
      <path d="M1528.66,798.91l5.15-17.2h6.07l-10.08,29.2q-2.31,6.4-7.87,6.4a9.87,9.87,0,0,1-2.74-.43v-4.42l1.08.07a5.55,5.55,0,0,0,3.24-.79,5.15,5.15,0,0,0,1.72-2.63l.82-2.18-8.9-25.22h6.14Z" fill="#fff"/>
      <path d="M1540.05,814.75l-3.07-1.82a17.29,17.29,0,0,0,1.86-3.72,11.08,11.08,0,0,0,.53-3.22v-4.43h5.13l0,4.1a11.48,11.48,0,0,1-1.26,5A12.39,12.39,0,0,1,1540.05,814.75Z" fill="#fff"/>
      <path d="M1576,800.18a2.59,2.59,0,0,0-1.25-2.33,13.24,13.24,0,0,0-4.16-1.4,21.15,21.15,0,0,1-4.85-1.55c-2.85-1.37-4.27-3.37-4.27-6a6.75,6.75,0,0,1,2.77-5.49,10.92,10.92,0,0,1,7-2.2,11.39,11.39,0,0,1,7.35,2.25,7.15,7.15,0,0,1,2.8,5.83h-5.7a3.5,3.5,0,0,0-1.22-2.73,4.69,4.69,0,0,0-3.23-1.09,5,5,0,0,0-3.06.87,2.73,2.73,0,0,0-1.18,2.32,2.29,2.29,0,0,0,1.1,2,15.22,15.22,0,0,0,4.45,1.46,21.23,21.23,0,0,1,5.26,1.76,7.47,7.47,0,0,1,2.84,2.45,6.22,6.22,0,0,1,.92,3.47,6.59,6.59,0,0,1-2.83,5.54,12.06,12.06,0,0,1-7.43,2.12,13.15,13.15,0,0,1-5.56-1.12,9.12,9.12,0,0,1-3.79-3.09,7.33,7.33,0,0,1-1.36-4.25h5.53a4,4,0,0,0,1.52,3.11,5.91,5.91,0,0,0,3.73,1.09,5.75,5.75,0,0,0,3.42-.86A2.64,2.64,0,0,0,1576,800.18Z" fill="#fff"/>
      <path d="M1601.88,804.58a8.85,8.85,0,0,1-7.13,2.95q-4.12,0-6.25-2.41t-2.12-7V781.71h5.7v16.36c0,3.21,1.33,4.82,4,4.82s4.63-1,5.6-3V781.71h5.69v25.36H1602Z" fill="#fff"/>
      <path d="M1627.4,800.18a2.6,2.6,0,0,0-1.26-2.33,13.15,13.15,0,0,0-4.16-1.4,21.48,21.48,0,0,1-4.85-1.55c-2.84-1.37-4.26-3.37-4.26-6a6.76,6.76,0,0,1,2.76-5.49,10.94,10.94,0,0,1,7-2.2,11.37,11.37,0,0,1,7.35,2.25,7.12,7.12,0,0,1,2.8,5.83h-5.69a3.53,3.53,0,0,0-1.22-2.73,4.7,4.7,0,0,0-3.24-1.09,5,5,0,0,0-3.05.87,2.74,2.74,0,0,0-1.19,2.32,2.31,2.31,0,0,0,1.1,2,15.32,15.32,0,0,0,4.46,1.46,21.53,21.53,0,0,1,5.26,1.76,7.43,7.43,0,0,1,2.83,2.45,6.22,6.22,0,0,1,.93,3.47,6.6,6.6,0,0,1-2.84,5.54,12,12,0,0,1-7.43,2.12,13.1,13.1,0,0,1-5.55-1.12,9.16,9.16,0,0,1-3.8-3.09,7.4,7.4,0,0,1-1.36-4.25h5.53a4,4,0,0,0,1.53,3.11,5.9,5.9,0,0,0,3.72,1.09,5.79,5.79,0,0,0,3.43-.86A2.64,2.64,0,0,0,1627.4,800.18Z" fill="#fff"/>
      <path d="M1660.16,794.64c0,3.93-.89,7.05-2.67,9.39a9.29,9.29,0,0,1-13.85.76v12H1638V781.71h5.25l.23,2.57a8.37,8.37,0,0,1,6.82-3,8.66,8.66,0,0,1,7.28,3.45q2.64,3.46,2.63,9.6Zm-5.67-.49a10.54,10.54,0,0,0-1.51-6,4.91,4.91,0,0,0-4.32-2.23,5.25,5.25,0,0,0-5,2.88V800a5.29,5.29,0,0,0,5.06,3,4.92,4.92,0,0,0,4.26-2.19Q1654.49,798.61,1654.49,794.15Z" fill="#fff"/>
      <path d="M1676.15,807.53a11.76,11.76,0,0,1-8.78-3.41A12.37,12.37,0,0,1,1664,795v-.7a15.35,15.35,0,0,1,1.46-6.79,11.17,11.17,0,0,1,4.12-4.65,10.84,10.84,0,0,1,5.9-1.66c3.46,0,6.12,1.1,8,3.3s2.82,5.32,2.82,9.35v2.3h-16.57a7.61,7.61,0,0,0,2.1,5,6.29,6.29,0,0,0,4.63,1.83,7.7,7.7,0,0,0,6.37-3.17l3.07,2.93a10.24,10.24,0,0,1-4.06,3.53A12.7,12.7,0,0,1,1676.15,807.53Zm-.68-21.72a4.79,4.79,0,0,0-3.79,1.64,8.54,8.54,0,0,0-1.84,4.57h10.86v-.42a7,7,0,0,0-1.53-4.33A4.77,4.77,0,0,0,1675.47,785.81Z" fill="#fff"/>
      <path d="M1696,781.71l.17,2.93a9.09,9.09,0,0,1,7.38-3.4q7.92,0,8.06,9.07v16.76h-5.69V790.64a5.23,5.23,0,0,0-1-3.58,4.39,4.39,0,0,0-3.41-1.16,5.5,5.5,0,0,0-5.13,3.12v18.05h-5.69V781.71Z" fill="#fff"/>
      <path d="M1731.65,800.18a2.6,2.6,0,0,0-1.26-2.33,13.15,13.15,0,0,0-4.16-1.4,21.48,21.48,0,0,1-4.85-1.55c-2.84-1.37-4.26-3.37-4.26-6a6.76,6.76,0,0,1,2.76-5.49,10.94,10.94,0,0,1,7-2.2,11.37,11.37,0,0,1,7.35,2.25,7.12,7.12,0,0,1,2.8,5.83h-5.69a3.53,3.53,0,0,0-1.22-2.73,4.7,4.7,0,0,0-3.24-1.09,5,5,0,0,0-3.05.87,2.74,2.74,0,0,0-1.19,2.32,2.31,2.31,0,0,0,1.1,2,15.32,15.32,0,0,0,4.46,1.46,21.53,21.53,0,0,1,5.26,1.76,7.43,7.43,0,0,1,2.83,2.45,6.22,6.22,0,0,1,.93,3.47,6.6,6.6,0,0,1-2.84,5.54,12,12,0,0,1-7.43,2.12,13.1,13.1,0,0,1-5.55-1.12,9.16,9.16,0,0,1-3.8-3.09,7.4,7.4,0,0,1-1.36-4.25h5.53a4,4,0,0,0,1.53,3.11,5.9,5.9,0,0,0,3.72,1.09,5.79,5.79,0,0,0,3.43-.86A2.64,2.64,0,0,0,1731.65,800.18Z" fill="#fff"/>
      <path d="M1742.22,775.12a3.05,3.05,0,0,1,.83-2.18,3.7,3.7,0,0,1,4.77,0,3,3,0,0,1,.84,2.18,2.93,2.93,0,0,1-.84,2.14,3.74,3.74,0,0,1-4.77,0A3,3,0,0,1,1742.22,775.12Zm6,32h-5.7V781.71h5.7Z" fill="#fff"/>
      <path d="M1753.4,794.15a14.87,14.87,0,0,1,1.48-6.71,10.72,10.72,0,0,1,4.14-4.6,11.69,11.69,0,0,1,6.14-1.6,11.1,11.1,0,0,1,8.34,3.3,13,13,0,0,1,3.45,8.77l0,1.33a15.13,15.13,0,0,1-1.44,6.71,10.72,10.72,0,0,1-4.13,4.57,11.77,11.77,0,0,1-6.2,1.61,11,11,0,0,1-8.59-3.57q-3.22-3.57-3.22-9.53Zm5.69.49a10.19,10.19,0,0,0,1.62,6.13,5.26,5.26,0,0,0,4.5,2.22,5.2,5.2,0,0,0,4.49-2.25q1.6-2.25,1.6-6.59a10.09,10.09,0,0,0-1.65-6.09,5.58,5.58,0,0,0-8.92,0Q1759.1,790.24,1759.09,794.64Z" fill="#fff"/>
      <path d="M1787.08,781.71l.16,2.93a9.12,9.12,0,0,1,7.38-3.4c5.29,0,8,3,8.07,9.07v16.76H1797V790.64a5.28,5.28,0,0,0-1-3.58,4.4,4.4,0,0,0-3.41-1.16,5.48,5.48,0,0,0-5.13,3.12v18.05h-5.7V781.71Z" fill="#fff"/>
      <path d="M1819.38,794.15a15,15,0,0,1,1.47-6.71,10.8,10.8,0,0,1,4.15-4.6,11.69,11.69,0,0,1,6.14-1.6,11.08,11.08,0,0,1,8.33,3.3,13,13,0,0,1,3.46,8.77l0,1.33a15.13,15.13,0,0,1-1.44,6.71,10.63,10.63,0,0,1-4.12,4.57,11.77,11.77,0,0,1-6.2,1.61,11,11,0,0,1-8.59-3.57q-3.22-3.57-3.22-9.53Zm5.69.49a10.19,10.19,0,0,0,1.62,6.13,5.26,5.26,0,0,0,4.5,2.22,5.2,5.2,0,0,0,4.49-2.25q1.6-2.25,1.6-6.59a10.09,10.09,0,0,0-1.65-6.09,5.58,5.58,0,0,0-8.92,0Q1825.07,790.24,1825.07,794.64Z" fill="#fff"/>
      <path d="M1861.05,786.91a13.62,13.62,0,0,0-2.32-.19q-3.92,0-5.28,3v17.35h-5.69V781.71h5.44l.14,2.83a6.41,6.41,0,0,1,5.71-3.3,5.3,5.3,0,0,1,2,.33Z" fill="#fff"/>
      <path d="M1451.29,856.81l4-17.5h5.56L1454,864.67h-4.69l-5.43-17.42-5.35,17.42h-4.69l-6.93-25.36h5.55l4.1,17.32,5.21-17.32H1446Z" fill="#fff"/>
      <path d="M1479.84,864.67a9,9,0,0,1-.66-2.37,8.87,8.87,0,0,1-6.66,2.84,9,9,0,0,1-6.23-2.18,7,7,0,0,1-2.41-5.4,7.2,7.2,0,0,1,3-6.22c2-1.44,4.88-2.17,8.61-2.17H1479v-1.66a4.46,4.46,0,0,0-1.1-3.15,4.36,4.36,0,0,0-3.35-1.19,5,5,0,0,0-3.19,1,3,3,0,0,0-1.24,2.47h-5.7a6.33,6.33,0,0,1,1.39-3.9,9.2,9.2,0,0,1,3.76-2.85,13.13,13.13,0,0,1,5.31-1,10.6,10.6,0,0,1,7.1,2.24,8,8,0,0,1,2.72,6.29v11.44a13,13,0,0,0,1,5.46v.4Zm-6.26-4.11a6.43,6.43,0,0,0,3.17-.82,5.4,5.4,0,0,0,2.24-2.2v-4.78h-3.07a8.46,8.46,0,0,0-4.76,1.1,3.59,3.59,0,0,0-1.59,3.12,3.32,3.32,0,0,0,1.09,2.61A4.22,4.22,0,0,0,1473.58,860.56Z" fill="#fff"/>
      <path d="M1504.87,857.78a2.57,2.57,0,0,0-1.26-2.32,13.11,13.11,0,0,0-4.16-1.41,21.48,21.48,0,0,1-4.85-1.55q-4.26-2.06-4.26-6a6.76,6.76,0,0,1,2.76-5.49,10.94,10.94,0,0,1,7-2.2,11.39,11.39,0,0,1,7.35,2.25,7.12,7.12,0,0,1,2.8,5.83h-5.69a3.53,3.53,0,0,0-1.22-2.73,4.72,4.72,0,0,0-3.24-1.09,5,5,0,0,0-3.06.87,2.75,2.75,0,0,0-1.18,2.32,2.31,2.31,0,0,0,1.1,2,15.56,15.56,0,0,0,4.46,1.47,21.15,21.15,0,0,1,5.26,1.75,7.43,7.43,0,0,1,2.83,2.45,6.24,6.24,0,0,1,.93,3.47,6.6,6.6,0,0,1-2.84,5.54,12,12,0,0,1-7.43,2.13,13.07,13.07,0,0,1-5.55-1.13,9.16,9.16,0,0,1-3.8-3.09,7.4,7.4,0,0,1-1.36-4.25H1495a4,4,0,0,0,1.53,3.11,5.88,5.88,0,0,0,3.72,1.09,5.81,5.81,0,0,0,3.43-.86A2.64,2.64,0,0,0,1504.87,857.78Z" fill="#fff"/>
      <path d="M1540.66,844.51a14.72,14.72,0,0,0-2.32-.19q-3.91,0-5.28,3v17.35h-5.69V839.31h5.43l.15,2.83a6.41,6.41,0,0,1,5.71-3.3,5.3,5.3,0,0,1,2,.33Z" fill="#fff"/>
      <path d="M1555,865.14a11.77,11.77,0,0,1-8.78-3.42,12.37,12.37,0,0,1-3.36-9.08v-.7a15.22,15.22,0,0,1,1.46-6.79,11.21,11.21,0,0,1,4.11-4.65,10.89,10.89,0,0,1,5.91-1.66q5.17,0,8,3.3t2.83,9.35v2.3h-16.57a7.58,7.58,0,0,0,2.1,5,6.28,6.28,0,0,0,4.62,1.83,7.72,7.72,0,0,0,6.38-3.17l3.07,2.93a10.19,10.19,0,0,1-4.07,3.53A12.63,12.63,0,0,1,1555,865.14Zm-.68-21.73a4.81,4.81,0,0,0-3.79,1.64,8.54,8.54,0,0,0-1.84,4.57h10.85v-.42a6.91,6.91,0,0,0-1.52-4.33A4.77,4.77,0,0,0,1554.3,843.41Z" fill="#fff"/>
      <path d="M1578.2,857.45l5.37-18.14h5.88l-8.79,25.36h-4.94l-8.86-25.36h5.91Z" fill="#fff"/>
      <path d="M1591.59,851.75a15,15,0,0,1,1.47-6.71,10.86,10.86,0,0,1,4.15-4.6,11.69,11.69,0,0,1,6.14-1.6,11.08,11.08,0,0,1,8.33,3.3,13,13,0,0,1,3.46,8.77l0,1.33a15.13,15.13,0,0,1-1.44,6.71,10.63,10.63,0,0,1-4.12,4.57,11.77,11.77,0,0,1-6.2,1.62,11,11,0,0,1-8.59-3.58q-3.22-3.57-3.22-9.53Zm5.69.49a10.19,10.19,0,0,0,1.62,6.13,5.26,5.26,0,0,0,4.5,2.22,5.2,5.2,0,0,0,4.49-2.25q1.6-2.25,1.6-6.59a10.09,10.09,0,0,0-1.65-6.09,5.58,5.58,0,0,0-8.92,0Q1597.29,847.84,1597.28,852.24Z" fill="#fff"/>
      <path d="M1628.22,853.79l-2.53,2.6v8.28H1620v-36h5.7v20.76l1.78-2.22,7-7.9h6.84l-9.42,10.57,10.43,14.79h-6.59Z" fill="#fff"/>
      <path d="M1655.73,865.14a11.74,11.74,0,0,1-8.77-3.42,12.33,12.33,0,0,1-3.37-9.08v-.7a15.22,15.22,0,0,1,1.47-6.79,11.21,11.21,0,0,1,4.11-4.65,10.89,10.89,0,0,1,5.91-1.66q5.18,0,8,3.3t2.83,9.35v2.3h-16.57a7.63,7.63,0,0,0,2.09,5,6.3,6.3,0,0,0,4.63,1.83,7.72,7.72,0,0,0,6.38-3.17l3.07,2.93a10.19,10.19,0,0,1-4.07,3.53A12.67,12.67,0,0,1,1655.73,865.14Zm-.68-21.73a4.8,4.8,0,0,0-3.78,1.64,8.54,8.54,0,0,0-1.84,4.57h10.85v-.42a6.91,6.91,0,0,0-1.52-4.33A4.79,4.79,0,0,0,1655.05,843.41Z" fill="#fff"/>
      <path d="M1669.26,851.8q0-5.87,2.72-9.41a8.7,8.7,0,0,1,7.29-3.55,8.3,8.3,0,0,1,6.51,2.81v-13h5.7v36h-5.16L1686,862a8.41,8.41,0,0,1-6.82,3.1,8.68,8.68,0,0,1-7.21-3.59Q1669.27,858,1669.26,851.8Zm5.69.49a10.6,10.6,0,0,0,1.49,6,4.83,4.83,0,0,0,4.23,2.16,5.37,5.37,0,0,0,5.11-3.11V846.55a5.3,5.3,0,0,0-5.06-3,4.88,4.88,0,0,0-4.27,2.19Q1675,847.88,1675,852.29Z" fill="#fff"/>
      <path d="M1701,858.67a3.26,3.26,0,0,1,2.46.9,3.12,3.12,0,0,1,.87,2.26,3,3,0,0,1-.87,2.22,3.87,3.87,0,0,1-4.88,0,3,3,0,0,1-.89-2.23,3.12,3.12,0,0,1,.87-2.26A3.23,3.23,0,0,1,1701,858.67Z" fill="#fff"/>
    </g>
  </g>
  <g id="icon">
    <path d="M791,221l6,7.83,12-15.67" fill="none" stroke="#f5cb11" stroke-linecap="round" stroke-linejoin="round" stroke-width="2.49"/>
    <path d="M800,194.11a35,35,0,0,0,24.79,8.75,35,35,0,0,1-23.71,43.45l-1.08.3A35,35,0,0,1,774.91,204c.09-.37.19-.73.3-1.09A35,35,0,0,0,800,194.11" fill="none" stroke="#f5cb11" stroke-linecap="round" stroke-linejoin="round" stroke-width="3"/>
  </g>
</svg>
