<?xml version="1.0" encoding="utf-8"?>
<!-- Generator: Adobe Illustrator 25.4.4, SVG Export Plug-In . SVG Version: 6.00 Build 0)  -->
<svg version="1.1" id="Layer_1" xmlns="http://www.w3.org/2000/svg" xmlns:xlink="http://www.w3.org/1999/xlink" x="0px" y="0px"
	 viewBox="0 0 1110.7 1080" style="enable-background:new 0 0 1110.7 1080;" xml:space="preserve">
<style type="text/css">
	.st0{fill:#2990EA;}
	.st1{fill:#0B3465;}
	.st2{fill:#F5CB11;}
	.st3{fill:none;stroke:#000000;stroke-width:6;stroke-linecap:round;stroke-linejoin:round;}
	.st4{fill:#FFFFFF;}
</style>
<path class="st0" d="M369.4,401.3l48.7,3.6c1.5,0.1,2.7-1.1,2.6-2.6l-3.6-48.7c-0.2-2.1-2.6-3-4.1-1.5l-11.6,11.6
	c-0.9,0.9-2.5,0.9-3.4,0l-19-19c-0.9-0.9-2.5-0.9-3.4,0l-15.2,15.2c-0.9,0.9-0.9,2.5,0,3.4l19,19c0.9,0.9,0.9,2.5,0,3.4l-11.6,11.6
	C366.4,398.6,367.3,401.1,369.4,401.3z"/>
<path class="st1" d="M682.2,714l48.7,3.6c1.5,0.1,2.7-1.1,2.6-2.6l-3.6-48.7c-0.2-2.1-2.6-3-4.1-1.5l-11.6,11.6
	c-0.9,0.9-2.5,0.9-3.4,0l-19-19c-0.9-0.9-2.5-0.9-3.4,0l-15.2,15.2c-0.9,0.9-0.9,2.5,0,3.4l19,19c0.9,0.9,0.9,2.5,0,3.4l-11.6,11.6
	C679.2,711.4,680.1,713.9,682.2,714z"/>
<path class="st0" d="M726.9,422.3l3.6-48.7c0.1-1.5-1.1-2.7-2.6-2.6l-48.7,3.6c-2.1,0.2-3,2.6-1.5,4.1l11.6,11.6
	c0.9,0.9,0.9,2.5,0,3.4l-19,19c-0.9,0.9-0.9,2.5,0,3.4l15.2,15.2c0.9,0.9,2.5,0.9,3.4,0l19-19c0.9-0.9,2.5-0.9,3.4,0l11.6,11.6
	C724.3,425.3,726.8,424.4,726.9,422.3z"/>
<path class="st1" d="M420,729.2l3.6-48.7c0.1-1.5-1.1-2.7-2.6-2.6l-48.7,3.6c-2.1,0.2-3,2.6-1.5,4.1l11.6,11.6
	c0.9,0.9,0.9,2.5,0,3.4l-19,19c-0.9,0.9-0.9,2.5,0,3.4l15.2,15.2c0.9,0.9,2.5,0.9,3.4,0l19-19c0.9-0.9,2.5-0.9,3.4,0l11.6,11.6
	C417.4,732.2,419.9,731.3,420,729.2z"/>
<circle class="st0" cx="227.5" cy="228" r="209.2"/>
<circle class="st1" cx="227.5" cy="861.3" r="209.2"/>
<circle class="st0" cx="889.1" cy="228" r="209.2"/>
<g>
	<path class="st2" d="M555.4,791c-7.2,0-13.9-2.8-19-7.9L312.2,559c-10.5-10.5-10.5-27.5,0-37.9l224.2-224.2
		c5.1-5.1,11.8-7.9,19-7.9c7.2,0,13.9,2.8,19,7.9L798.5,521c5.1,5.1,7.9,11.8,7.9,19c0,7.2-2.8,13.9-7.9,19L574.3,783.1
		C569.3,788.2,562.5,791,555.4,791z"/>
	<path d="M555.4,292c6.4,0,12.3,2.5,16.8,7l224.2,224.2c4.5,4.5,7,10.5,7,16.8c0,6.4-2.5,12.3-7,16.8L572.2,781
		c-4.5,4.5-10.5,7-16.8,7s-12.3-2.5-16.8-7L314.4,556.8c-4.5-4.5-7-10.5-7-16.8s2.5-12.3,7-16.8L538.5,299
		C543,294.5,549,292,555.4,292 M555.4,286c-7.6,0-15.3,2.9-21.1,8.7L310.1,518.9c-11.6,11.6-11.6,30.5,0,42.2l224.2,224.2
		c5.8,5.8,13.5,8.7,21.1,8.7s15.3-2.9,21.1-8.7l224.2-224.2c11.6-11.6,11.6-30.5,0-42.2L576.5,294.7C570.6,288.9,563,286,555.4,286
		L555.4,286z"/>
</g>
<g id="icon">
	<path class="st3" d="M538.4,479.5l11.3,14.7l22.6-29.4"/>
	<path class="st3" d="M555.4,429c12.8,11.3,29.5,17.2,46.6,16.4c10.2,34.9-9.7,71.4-44.6,81.7c0,0,0,0,0,0l-2,0.6
		c-35.1-9.1-56.2-45-47.2-80.1c0.2-0.7,0.4-1.4,0.6-2C525.9,446.3,542.6,440.4,555.4,429"/>
</g>
<g>
	<path d="M383.4,553.2v14.3c0,2.3-0.7,4.1-2.2,5.4s-3.4,2-5.8,2c-2.4,0-4.4-0.7-5.8-2c-1.4-1.3-2.2-3.1-2.2-5.4v-14.2h3.7v14.3
		c0,1.4,0.4,2.5,1.1,3.3s1.8,1.1,3.2,1.1c2.9,0,4.3-1.5,4.3-4.5v-14.2H383.4z"/>
	<path d="M390.3,558.7l0.1,1.8c1.2-1.4,2.7-2.1,4.6-2.1c3.3,0,5,1.9,5,5.7v10.5h-3.6v-10.3c0-1-0.2-1.8-0.7-2.2
		c-0.4-0.5-1.1-0.7-2.1-0.7c-1.4,0-2.5,0.6-3.2,1.9v11.3H387v-15.8H390.3z"/>
	<path d="M403.7,554.5c0-0.5,0.2-1,0.5-1.4s0.8-0.5,1.5-0.5s1.1,0.2,1.5,0.5s0.5,0.8,0.5,1.4c0,0.5-0.2,1-0.5,1.3s-0.8,0.5-1.5,0.5
		s-1.1-0.2-1.5-0.5S403.7,555.1,403.7,554.5z M407.5,574.5h-3.6v-15.8h3.6V574.5z"/>
	<path d="M415.8,554.8v3.9h2.8v2.6h-2.8v8.8c0,0.6,0.1,1,0.4,1.3c0.2,0.3,0.7,0.4,1.3,0.4c0.4,0,0.8,0,1.2-0.1v2.8
		c-0.8,0.2-1.6,0.3-2.3,0.3c-2.7,0-4.1-1.5-4.1-4.5v-9h-2.6v-2.6h2.6v-3.9H415.8z"/>
	<path d="M441.6,565h-8.8v6.6h10.2v3h-13.9v-21.3H443v3h-10.1v5.9h8.8V565z"/>
	<path d="M449.1,558.7l0.1,1.8c1.2-1.4,2.7-2.1,4.6-2.1c3.3,0,5,1.9,5,5.7v10.5h-3.6v-10.3c0-1-0.2-1.8-0.7-2.2
		c-0.4-0.5-1.1-0.7-2.1-0.7c-1.4,0-2.5,0.6-3.2,1.9v11.3h-3.6v-15.8H449.1z"/>
	<path d="M461.8,566.5c0-2.4,0.6-4.4,1.7-5.9c1.1-1.5,2.7-2.2,4.6-2.2c1.7,0,3,0.6,4.1,1.8V552h3.6v22.5h-3.2l-0.2-1.6
		c-1.1,1.3-2.5,1.9-4.3,1.9c-1.9,0-3.4-0.7-4.5-2.2S461.8,569,461.8,566.5z M465.4,566.8c0,1.6,0.3,2.9,0.9,3.8
		c0.6,0.9,1.5,1.4,2.6,1.4c1.5,0,2.5-0.6,3.2-1.9v-6.8c-0.7-1.3-1.7-1.9-3.2-1.9c-1.2,0-2,0.5-2.7,1.4S465.4,564.9,465.4,566.8z"/>
	<path d="M478.7,566.4c0-1.6,0.3-3,0.9-4.2c0.6-1.2,1.5-2.2,2.6-2.9s2.4-1,3.8-1c2.1,0,3.9,0.7,5.2,2.1s2.1,3.2,2.2,5.5l0,0.8
		c0,1.6-0.3,3-0.9,4.2s-1.5,2.2-2.6,2.9s-2.4,1-3.9,1c-2.2,0-4-0.7-5.4-2.2c-1.3-1.5-2-3.5-2-6V566.4z M482.3,566.7
		c0,1.6,0.3,2.9,1,3.8c0.7,0.9,1.6,1.4,2.8,1.4s2.1-0.5,2.8-1.4s1-2.3,1-4.1c0-1.6-0.3-2.9-1-3.8s-1.6-1.4-2.8-1.4
		c-1.2,0-2.1,0.5-2.8,1.4C482.6,563.5,482.3,564.9,482.3,566.7z"/>
	<path d="M504.8,561.9c-0.5-0.1-1-0.1-1.5-0.1c-1.6,0-2.7,0.6-3.3,1.9v10.8h-3.6v-15.8h3.4l0.1,1.8c0.9-1.4,2.1-2.1,3.6-2.1
		c0.5,0,0.9,0.1,1.3,0.2L504.8,561.9z"/>
	<path d="M515.9,570.2c0-0.6-0.3-1.1-0.8-1.5s-1.4-0.6-2.6-0.9c-1.2-0.3-2.2-0.6-3-1c-1.8-0.9-2.7-2.1-2.7-3.7
		c0-1.4,0.6-2.5,1.7-3.4s2.6-1.4,4.4-1.4c1.9,0,3.4,0.5,4.6,1.4s1.8,2.2,1.8,3.6h-3.6c0-0.7-0.3-1.3-0.8-1.7c-0.5-0.5-1.2-0.7-2-0.7
		c-0.8,0-1.4,0.2-1.9,0.5s-0.7,0.8-0.7,1.5c0,0.5,0.2,1,0.7,1.3s1.4,0.6,2.8,0.9c1.4,0.3,2.5,0.7,3.3,1.1c0.8,0.4,1.4,0.9,1.8,1.5
		s0.6,1.3,0.6,2.2c0,1.4-0.6,2.6-1.8,3.5c-1.2,0.9-2.7,1.3-4.6,1.3c-1.3,0-2.5-0.2-3.5-0.7s-1.8-1.1-2.4-1.9s-0.8-1.7-0.8-2.7h3.5
		c0,0.8,0.4,1.5,1,1.9c0.6,0.5,1.4,0.7,2.3,0.7c0.9,0,1.7-0.2,2.1-0.5C515.7,571.2,515.9,570.8,515.9,570.2z"/>
	<path d="M529.5,574.8c-2.3,0-4.1-0.7-5.5-2.1c-1.4-1.4-2.1-3.3-2.1-5.7v-0.4c0-1.6,0.3-3,0.9-4.2c0.6-1.2,1.5-2.2,2.6-2.9
		s2.3-1,3.7-1c2.2,0,3.8,0.7,5,2.1s1.8,3.3,1.8,5.8v1.4h-10.4c0.1,1.3,0.5,2.3,1.3,3.1s1.7,1.1,2.9,1.1c1.6,0,3-0.7,4-2l1.9,1.8
		c-0.6,0.9-1.5,1.7-2.5,2.2C532,574.5,530.8,574.8,529.5,574.8z M529.1,561.2c-1,0-1.8,0.3-2.4,1s-1,1.6-1.1,2.9h6.8v-0.3
		c-0.1-1.2-0.4-2.1-1-2.7C530.8,561.5,530,561.2,529.1,561.2z"/>
	<path d="M541.9,558.7l0.1,1.7c1.1-1.3,2.6-1.9,4.6-1.9c2.1,0,3.6,0.8,4.4,2.4c1.2-1.6,2.8-2.4,4.9-2.4c1.7,0,3,0.5,3.9,1.5
		s1.3,2.4,1.3,4.3v10.4h-3.6v-10.3c0-1-0.2-1.7-0.7-2.2s-1.2-0.7-2.2-0.7c-0.8,0-1.5,0.2-2,0.7c-0.5,0.4-0.9,1-1.1,1.7l0,10.9H548
		v-10.4c0-1.9-1-2.8-2.9-2.8c-1.4,0-2.4,0.6-3,1.7v11.5h-3.6v-15.8H541.9z"/>
	<path d="M571.7,574.8c-2.3,0-4.1-0.7-5.5-2.1c-1.4-1.4-2.1-3.3-2.1-5.7v-0.4c0-1.6,0.3-3,0.9-4.2c0.6-1.2,1.5-2.2,2.6-2.9
		s2.3-1,3.7-1c2.2,0,3.8,0.7,5,2.1c1.2,1.4,1.8,3.3,1.8,5.8v1.4h-10.4c0.1,1.3,0.5,2.3,1.3,3.1s1.7,1.1,2.9,1.1c1.6,0,3-0.7,4-2
		l1.9,1.8c-0.6,0.9-1.5,1.7-2.5,2.2C574.2,574.5,573,574.8,571.7,574.8z M571.3,561.2c-1,0-1.8,0.3-2.4,1c-0.6,0.7-1,1.6-1.2,2.9
		h6.8v-0.3c-0.1-1.2-0.4-2.1-1-2.7C573,561.5,572.2,561.2,571.3,561.2z"/>
	<path d="M584.1,558.7l0.1,1.8c1.2-1.4,2.7-2.1,4.6-2.1c3.3,0,5,1.9,5,5.7v10.5h-3.6v-10.3c0-1-0.2-1.8-0.7-2.2
		c-0.4-0.5-1.1-0.7-2.1-0.7c-1.4,0-2.5,0.6-3.2,1.9v11.3h-3.6v-15.8H584.1z"/>
	<path d="M601.9,554.8v3.9h2.8v2.6h-2.8v8.8c0,0.6,0.1,1,0.4,1.3c0.2,0.3,0.7,0.4,1.3,0.4c0.4,0,0.8,0,1.2-0.1v2.8
		c-0.8,0.2-1.6,0.3-2.3,0.3c-2.7,0-4.1-1.5-4.1-4.5v-9h-2.6v-2.6h2.6v-3.9H601.9z"/>
	<path d="M631.6,567.6c-0.2,2.3-1.1,4.1-2.5,5.3c-1.5,1.3-3.4,1.9-5.8,1.9c-1.7,0-3.2-0.4-4.5-1.2c-1.3-0.8-2.3-2-3-3.4
		s-1.1-3.2-1.1-5.2v-2c0-2,0.4-3.8,1.1-5.3s1.7-2.7,3.1-3.5c1.3-0.8,2.9-1.2,4.6-1.2c2.4,0,4.2,0.6,5.7,1.9c1.4,1.3,2.3,3.1,2.5,5.4
		h-3.7c-0.2-1.5-0.6-2.6-1.3-3.3c-0.7-0.7-1.8-1-3.2-1c-1.6,0-2.8,0.6-3.7,1.8c-0.9,1.2-1.3,2.9-1.3,5.2v1.9c0,2.3,0.4,4.1,1.2,5.3
		c0.8,1.2,2,1.8,3.6,1.8c1.5,0,2.5-0.3,3.3-1s1.2-1.7,1.4-3.3H631.6z"/>
	<path d="M633.9,566.4c0-1.6,0.3-3,0.9-4.2c0.6-1.2,1.5-2.2,2.6-2.9s2.4-1,3.8-1c2.1,0,3.9,0.7,5.2,2.1c1.3,1.4,2.1,3.2,2.2,5.5
		l0,0.8c0,1.6-0.3,3-0.9,4.2c-0.6,1.2-1.5,2.2-2.6,2.9s-2.4,1-3.9,1c-2.2,0-4-0.7-5.4-2.2c-1.3-1.5-2-3.5-2-6V566.4z M637.4,566.7
		c0,1.6,0.3,2.9,1,3.8c0.7,0.9,1.6,1.4,2.8,1.4s2.1-0.5,2.8-1.4c0.7-0.9,1-2.3,1-4.1c0-1.6-0.3-2.9-1-3.8c-0.7-0.9-1.6-1.4-2.8-1.4
		c-1.2,0-2.1,0.5-2.8,1.4C637.8,563.5,637.4,564.9,637.4,566.7z"/>
	<path d="M661.2,572.9c-1,1.2-2.5,1.8-4.5,1.8c-1.7,0-3-0.5-3.9-1.5s-1.3-2.5-1.3-4.4v-10.3h3.6v10.2c0,2,0.8,3,2.5,3
		c1.7,0,2.9-0.6,3.5-1.9v-11.4h3.6v15.8h-3.4L661.2,572.9z"/>
	<path d="M676.6,561.9c-0.5-0.1-1-0.1-1.5-0.1c-1.6,0-2.7,0.6-3.3,1.9v10.8h-3.6v-15.8h3.4l0.1,1.8c0.9-1.4,2.1-2.1,3.6-2.1
		c0.5,0,0.9,0.1,1.3,0.2L676.6,561.9z"/>
	<path d="M687.7,570.2c0-0.6-0.3-1.1-0.8-1.5s-1.4-0.6-2.6-0.9s-2.2-0.6-3-1c-1.8-0.9-2.7-2.1-2.7-3.7c0-1.4,0.6-2.5,1.7-3.4
		s2.6-1.4,4.4-1.4c1.9,0,3.4,0.5,4.6,1.4c1.2,0.9,1.8,2.2,1.8,3.6h-3.6c0-0.7-0.3-1.3-0.8-1.7c-0.5-0.5-1.2-0.7-2-0.7
		c-0.8,0-1.4,0.2-1.9,0.5c-0.5,0.4-0.7,0.8-0.7,1.5c0,0.5,0.2,1,0.7,1.3s1.4,0.6,2.8,0.9c1.4,0.3,2.5,0.7,3.3,1.1
		c0.8,0.4,1.4,0.9,1.8,1.5c0.4,0.6,0.6,1.3,0.6,2.2c0,1.4-0.6,2.6-1.8,3.5c-1.2,0.9-2.7,1.3-4.6,1.3c-1.3,0-2.5-0.2-3.5-0.7
		s-1.8-1.1-2.4-1.9s-0.8-1.7-0.8-2.7h3.5c0,0.8,0.4,1.5,1,1.9c0.6,0.5,1.4,0.7,2.3,0.7c0.9,0,1.7-0.2,2.1-0.5
		C687.5,571.2,687.7,570.8,687.7,570.2z"/>
	<path d="M701.3,574.8c-2.3,0-4.1-0.7-5.5-2.1c-1.4-1.4-2.1-3.3-2.1-5.7v-0.4c0-1.6,0.3-3,0.9-4.2c0.6-1.2,1.5-2.2,2.6-2.9
		s2.3-1,3.7-1c2.2,0,3.8,0.7,5,2.1c1.2,1.4,1.8,3.3,1.8,5.8v1.4h-10.4c0.1,1.3,0.5,2.3,1.3,3.1s1.7,1.1,2.9,1.1c1.6,0,3-0.7,4-2
		l1.9,1.8c-0.6,0.9-1.5,1.7-2.5,2.2C703.8,574.5,702.6,574.8,701.3,574.8z M700.9,561.2c-1,0-1.8,0.3-2.4,1c-0.6,0.7-1,1.6-1.2,2.9
		h6.8v-0.3c-0.1-1.2-0.4-2.1-1-2.7C702.6,561.5,701.8,561.2,700.9,561.2z"/>
	<path d="M710.5,565.8c0-2.3,0.3-4.4,0.9-6.4c0.6-2,1.5-3.8,2.7-5.4c1.2-1.6,2.4-2.7,3.7-3.4l0.7,2.1c-1.4,1-2.5,2.6-3.3,4.8
		c-0.9,2.1-1.3,4.6-1.4,7.4l0,1.3c0,3,0.4,5.6,1.3,7.9c0.8,2.3,2,4.1,3.5,5.3l-0.7,2c-1.3-0.6-2.6-1.8-3.7-3.4
		c-1.2-1.6-2.1-3.4-2.7-5.4C710.8,570.5,710.5,568.2,710.5,565.8z"/>
	<path d="M729.7,570.2c0-0.6-0.3-1.1-0.8-1.5s-1.4-0.6-2.6-0.9s-2.2-0.6-3-1c-1.8-0.9-2.7-2.1-2.7-3.7c0-1.4,0.6-2.5,1.7-3.4
		s2.6-1.4,4.4-1.4c1.9,0,3.4,0.5,4.6,1.4c1.2,0.9,1.8,2.2,1.8,3.6h-3.6c0-0.7-0.3-1.3-0.8-1.7c-0.5-0.5-1.2-0.7-2-0.7
		c-0.8,0-1.4,0.2-1.9,0.5c-0.5,0.4-0.7,0.8-0.7,1.5c0,0.5,0.2,1,0.7,1.3s1.4,0.6,2.8,0.9c1.4,0.3,2.5,0.7,3.3,1.1
		c0.8,0.4,1.4,0.9,1.8,1.5c0.4,0.6,0.6,1.3,0.6,2.2c0,1.4-0.6,2.6-1.8,3.5c-1.2,0.9-2.7,1.3-4.6,1.3c-1.3,0-2.5-0.2-3.5-0.7
		s-1.8-1.1-2.4-1.9s-0.8-1.7-0.8-2.7h3.5c0,0.8,0.4,1.5,1,1.9c0.6,0.5,1.4,0.7,2.3,0.7c0.9,0,1.7-0.2,2.1-0.5
		C729.5,571.2,729.7,570.8,729.7,570.2z"/>
	<path d="M743.2,566.1c0,2.2-0.3,4.3-0.9,6.3s-1.5,3.9-2.7,5.5c-1.2,1.7-2.5,2.8-3.8,3.4l-0.7-2c1.5-1.1,2.6-2.9,3.5-5.2
		c0.9-2.3,1.3-5,1.3-8v-0.3c0-2.7-0.4-5.2-1.1-7.4c-0.7-2.2-1.8-4-3.2-5.4l-0.5-0.4l0.7-2c1.2,0.6,2.5,1.7,3.6,3.2s2.1,3.3,2.7,5.2
		s1,3.9,1.1,5.9L743.2,566.1z"/>
</g>
<g>
	<path class="st4" d="M192.3,200.6c0-0.8-0.3-1.5-0.9-1.9c-0.6-0.4-1.6-0.9-3.2-1.4c-1.5-0.5-2.7-1-3.6-1.5
		c-2.4-1.3-3.6-3.1-3.6-5.3c0-1.2,0.3-2.2,1-3.1s1.6-1.6,2.8-2.1s2.6-0.8,4.1-0.8c1.5,0,2.9,0.3,4.1,0.8s2.1,1.3,2.8,2.3
		s1,2.1,1,3.4h-4.4c0-1-0.3-1.7-0.9-2.3c-0.6-0.5-1.5-0.8-2.6-0.8c-1.1,0-1.9,0.2-2.5,0.7c-0.6,0.5-0.9,1.1-0.9,1.8
		c0,0.7,0.3,1.3,1,1.7s1.7,0.9,3.1,1.3c2.5,0.8,4.3,1.7,5.5,2.8s1.7,2.5,1.7,4.2c0,1.8-0.7,3.3-2.1,4.3s-3.3,1.6-5.6,1.6
		c-1.6,0-3.1-0.3-4.5-0.9c-1.3-0.6-2.4-1.4-3.1-2.5s-1.1-2.3-1.1-3.6h4.4c0,2.4,1.4,3.5,4.2,3.5c1,0,1.9-0.2,2.4-0.6
		C192,201.9,192.3,201.3,192.3,200.6z"/>
	<path class="st4" d="M204.5,186.4v3.9h2.7v3.1h-2.7v7.9c0,0.6,0.1,1,0.3,1.3s0.7,0.4,1.3,0.4c0.5,0,0.9,0,1.2-0.1v3.2
		c-0.8,0.3-1.7,0.4-2.6,0.4c-3,0-4.5-1.5-4.5-4.5v-8.5h-2.3v-3.1h2.3v-3.9H204.5z"/>
	<path class="st4" d="M219,204.6c-1,1.3-2.5,1.9-4.3,1.9c-1.7,0-3-0.5-3.9-1.5s-1.4-2.4-1.4-4.3v-10.4h4.2v10.3
		c0,1.7,0.8,2.5,2.3,2.5c1.4,0,2.4-0.5,3-1.5v-11.2h4.2v15.8h-4L219,204.6z"/>
	<path class="st4" d="M225.7,198.1c0-2.5,0.6-4.4,1.7-5.9c1.1-1.5,2.6-2.2,4.5-2.2c1.5,0,2.8,0.6,3.8,1.7v-8.1h4.2v22.5h-3.8
		l-0.2-1.7c-1.1,1.3-2.4,2-4.1,2c-1.9,0-3.4-0.7-4.5-2.2C226.2,202.8,225.7,200.7,225.7,198.1z M229.9,198.4c0,1.5,0.3,2.6,0.8,3.4
		c0.5,0.8,1.3,1.2,2.3,1.2c1.3,0,2.2-0.6,2.8-1.7v-6.3c-0.5-1.1-1.4-1.7-2.7-1.7C230.9,193.5,229.9,195.1,229.9,198.4z"/>
	<path class="st4" d="M250.5,206.5c-2.3,0-4.2-0.7-5.7-2.1s-2.2-3.3-2.2-5.7v-0.4c0-1.6,0.3-3,0.9-4.3c0.6-1.3,1.5-2.2,2.6-2.9
		c1.1-0.7,2.4-1,3.9-1c2.2,0,3.9,0.7,5.1,2.1c1.2,1.4,1.9,3.3,1.9,5.8v1.7h-10.1c0.1,1,0.5,1.9,1.2,2.5c0.7,0.6,1.6,0.9,2.6,0.9
		c1.6,0,2.9-0.6,3.8-1.8l2.1,2.3c-0.6,0.9-1.5,1.6-2.6,2.1C253,206.2,251.8,206.5,250.5,206.5z M250,193.4c-0.8,0-1.5,0.3-2,0.9
		c-0.5,0.6-0.9,1.4-1,2.4h5.9v-0.3c0-0.9-0.3-1.7-0.8-2.2S250.9,193.4,250,193.4z"/>
	<path class="st4" d="M263.3,190.3l0.1,1.8c1.1-1.4,2.7-2.1,4.6-2.1c1.7,0,2.9,0.5,3.8,1.5s1.2,2.5,1.3,4.4v10.2h-4.2V196
		c0-0.9-0.2-1.5-0.6-2s-1-0.6-1.9-0.6c-1.2,0-2.1,0.5-2.7,1.5v11.2h-4.2v-15.8H263.3z"/>
	<path class="st4" d="M281.3,186.4v3.9h2.7v3.1h-2.7v7.9c0,0.6,0.1,1,0.3,1.3s0.7,0.4,1.3,0.4c0.5,0,0.9,0,1.2-0.1v3.2
		c-0.8,0.3-1.7,0.4-2.6,0.4c-3,0-4.5-1.5-4.5-4.5v-8.5h-2.3v-3.1h2.3v-3.9H281.3z"/>
	<path class="st4" d="M156.4,237.2h-8.3l-1.7,5h-3.9l8.1-21.3h3.3l8.1,21.3h-3.9L156.4,237.2z M149.2,234.2h6.2l-3.1-8.8
		L149.2,234.2z"/>
	<path class="st4" d="M178.1,223.8h-6.7v18.3h-3.7v-18.3h-6.6v-3h16.9V223.8z"/>
	<path class="st4" d="M196.8,235.2c-0.2,2.3-1.1,4.1-2.5,5.3c-1.5,1.3-3.4,1.9-5.8,1.9c-1.7,0-3.2-0.4-4.5-1.2c-1.3-0.8-2.3-2-3-3.4
		s-1.1-3.2-1.1-5.2v-2c0-2,0.4-3.8,1.1-5.3s1.7-2.7,3.1-3.5s2.9-1.2,4.6-1.2c2.4,0,4.2,0.6,5.7,1.9c1.4,1.3,2.3,3.1,2.5,5.4h-3.7
		c-0.2-1.5-0.6-2.6-1.3-3.3c-0.7-0.7-1.8-1-3.2-1c-1.6,0-2.8,0.6-3.7,1.8s-1.3,2.9-1.3,5.2v1.9c0,2.3,0.4,4.1,1.2,5.3
		c0.8,1.2,2,1.8,3.6,1.8c1.5,0,2.5-0.3,3.3-1s1.2-1.7,1.4-3.3H196.8z"/>
	<path class="st4" d="M217.1,232.1c0,2.1-0.4,3.9-1.1,5.5c-0.7,1.6-1.8,2.8-3.1,3.6c-1.3,0.8-2.9,1.3-4.6,1.3
		c-1.7,0-3.3-0.4-4.6-1.3c-1.4-0.8-2.4-2-3.1-3.6s-1.1-3.4-1.1-5.4V231c0-2.1,0.4-3.9,1.1-5.5s1.8-2.8,3.1-3.7s2.9-1.3,4.6-1.3
		s3.3,0.4,4.6,1.3c1.3,0.8,2.4,2,3.1,3.6c0.7,1.6,1.1,3.4,1.1,5.5V232.1z M213.4,230.9c0-2.4-0.4-4.2-1.3-5.4s-2.2-1.9-3.8-1.9
		c-1.6,0-2.9,0.6-3.8,1.9s-1.4,3-1.4,5.3v1.2c0,2.3,0.5,4.2,1.4,5.4s2.2,1.9,3.8,1.9c1.6,0,2.9-0.6,3.8-1.9s1.3-3.1,1.3-5.5V230.9z"
		/>
	<path class="st4" d="M231.7,242.2h-3.6v-22.5h3.6V242.2z"/>
	<path class="st4" d="M235.6,222.2c0-0.5,0.2-1,0.5-1.4c0.3-0.4,0.8-0.5,1.5-0.5s1.1,0.2,1.5,0.5s0.5,0.8,0.5,1.4
		c0,0.5-0.2,1-0.5,1.3s-0.8,0.5-1.5,0.5s-1.1-0.2-1.5-0.5C235.8,223.2,235.6,222.7,235.6,222.2z M239.4,242.2h-3.6v-15.8h3.6V242.2z
		"/>
	<path class="st4" d="M249.8,239.6c0.9,0,1.6-0.3,2.2-0.8s0.9-1.2,0.9-1.9h3.4c0,1-0.3,1.9-0.9,2.8s-1.4,1.5-2.3,2s-2.1,0.7-3.2,0.7
		c-2.2,0-4-0.7-5.3-2.2s-1.9-3.4-1.9-5.9V234c0-2.4,0.6-4.3,1.9-5.8c1.3-1.5,3-2.2,5.3-2.2c1.9,0,3.4,0.5,4.6,1.6
		c1.2,1.1,1.8,2.5,1.9,4.3h-3.4c0-0.9-0.3-1.7-0.9-2.2c-0.6-0.6-1.3-0.9-2.2-0.9c-1.2,0-2,0.4-2.7,1.3c-0.6,0.8-0.9,2.1-1,3.8v0.6
		c0,1.7,0.3,3,0.9,3.8C247.7,239.2,248.6,239.6,249.8,239.6z"/>
	<path class="st4" d="M265.9,242.5c-2.3,0-4.1-0.7-5.5-2.1c-1.4-1.4-2.1-3.3-2.1-5.7v-0.4c0-1.6,0.3-3,0.9-4.2
		c0.6-1.2,1.5-2.2,2.6-2.9s2.3-1,3.7-1c2.2,0,3.8,0.7,5,2.1c1.2,1.4,1.8,3.3,1.8,5.8v1.4h-10.4c0.1,1.3,0.5,2.3,1.3,3.1
		s1.7,1.1,2.9,1.1c1.6,0,3-0.7,4-2l1.9,1.8c-0.6,0.9-1.5,1.7-2.5,2.2C268.5,242.2,267.3,242.5,265.9,242.5z M265.5,228.9
		c-1,0-1.8,0.3-2.4,1c-0.6,0.7-1,1.6-1.2,2.9h6.8v-0.3c-0.1-1.2-0.4-2.1-1-2.7C267.3,229.2,266.5,228.9,265.5,228.9z"/>
	<path class="st4" d="M278.4,226.3l0.1,1.8c1.2-1.4,2.7-2.1,4.6-2.1c3.3,0,5,1.9,5,5.7v10.5h-3.6v-10.3c0-1-0.2-1.8-0.7-2.2
		c-0.4-0.5-1.1-0.7-2.1-0.7c-1.4,0-2.5,0.6-3.2,1.9v11.3H275v-15.8H278.4z"/>
	<path class="st4" d="M298.3,239.6c0.9,0,1.6-0.3,2.2-0.8s0.9-1.2,0.9-1.9h3.4c0,1-0.3,1.9-0.9,2.8s-1.4,1.5-2.3,2s-2.1,0.7-3.2,0.7
		c-2.2,0-4-0.7-5.3-2.2s-1.9-3.4-1.9-5.9V234c0-2.4,0.6-4.3,1.9-5.8c1.3-1.5,3-2.2,5.3-2.2c1.9,0,3.4,0.5,4.6,1.6
		c1.2,1.1,1.8,2.5,1.9,4.3h-3.4c0-0.9-0.3-1.7-0.9-2.2c-0.6-0.6-1.3-0.9-2.2-0.9c-1.2,0-2,0.4-2.7,1.3c-0.6,0.8-0.9,2.1-1,3.8v0.6
		c0,1.7,0.3,3,0.9,3.8C296.2,239.2,297.1,239.6,298.3,239.6z"/>
	<path class="st4" d="M314.4,242.5c-2.3,0-4.1-0.7-5.5-2.1c-1.4-1.4-2.1-3.3-2.1-5.7v-0.4c0-1.6,0.3-3,0.9-4.2
		c0.6-1.2,1.5-2.2,2.6-2.9s2.3-1,3.7-1c2.2,0,3.8,0.7,5,2.1c1.2,1.4,1.8,3.3,1.8,5.8v1.4h-10.4c0.1,1.3,0.5,2.3,1.3,3.1
		s1.7,1.1,2.9,1.1c1.6,0,3-0.7,4-2l1.9,1.8c-0.6,0.9-1.5,1.7-2.5,2.2C316.9,242.2,315.7,242.5,314.4,242.5z M314,228.9
		c-1,0-1.8,0.3-2.4,1c-0.6,0.7-1,1.6-1.2,2.9h6.8v-0.3c-0.1-1.2-0.4-2.1-1-2.7C315.8,229.2,315,228.9,314,228.9z"/>
</g>
<g>
	<path class="st4" d="M864.7,154.5h-8.3l-1.7,5h-3.9l8.1-21.3h3.3l8.1,21.3h-3.9L864.7,154.5z M857.4,151.5h6.2l-3.1-8.8
		L857.4,151.5z"/>
	<path class="st4" d="M886.3,141.2h-6.7v18.3H876v-18.3h-6.6v-3h16.9V141.2z"/>
	<path class="st4" d="M905,152.6c-0.2,2.3-1.1,4.1-2.5,5.3c-1.5,1.3-3.4,1.9-5.8,1.9c-1.7,0-3.2-0.4-4.5-1.2c-1.3-0.8-2.3-2-3-3.4
		s-1.1-3.2-1.1-5.2v-2c0-2,0.4-3.8,1.1-5.3s1.7-2.7,3.1-3.5c1.3-0.8,2.9-1.2,4.6-1.2c2.4,0,4.2,0.6,5.7,1.9c1.4,1.3,2.3,3.1,2.5,5.4
		h-3.7c-0.2-1.5-0.6-2.6-1.3-3.3c-0.7-0.7-1.8-1-3.2-1c-1.6,0-2.8,0.6-3.7,1.8c-0.9,1.2-1.3,2.9-1.3,5.2v1.9c0,2.3,0.4,4.1,1.2,5.3
		c0.8,1.2,2,1.8,3.6,1.8c1.5,0,2.5-0.3,3.3-1s1.2-1.7,1.4-3.3H905z"/>
	<path class="st4" d="M925.3,149.4c0,2.1-0.4,3.9-1.1,5.5c-0.7,1.6-1.8,2.8-3.1,3.6c-1.3,0.8-2.9,1.3-4.6,1.3
		c-1.7,0-3.3-0.4-4.6-1.3c-1.4-0.8-2.4-2-3.1-3.6c-0.7-1.6-1.1-3.4-1.1-5.4v-1.2c0-2.1,0.4-3.9,1.1-5.5s1.8-2.8,3.1-3.7
		c1.3-0.8,2.9-1.3,4.6-1.3s3.3,0.4,4.6,1.3c1.3,0.8,2.4,2,3.1,3.6c0.7,1.6,1.1,3.4,1.1,5.5V149.4z M921.6,148.3
		c0-2.4-0.4-4.2-1.3-5.4c-0.9-1.3-2.2-1.9-3.8-1.9c-1.6,0-2.9,0.6-3.8,1.9s-1.4,3-1.4,5.3v1.2c0,2.3,0.5,4.2,1.4,5.4
		c0.9,1.3,2.2,1.9,3.8,1.9c1.6,0,2.9-0.6,3.8-1.9c0.9-1.2,1.3-3.1,1.3-5.5V148.3z"/>
	<path class="st4" d="M785.9,189.5h9.7v3h-13.4v-21.3h3.7V189.5z"/>
	<path class="st4" d="M798.1,172.5c0-0.5,0.2-1,0.5-1.4s0.8-0.5,1.5-0.5s1.1,0.2,1.5,0.5s0.5,0.8,0.5,1.4c0,0.5-0.2,1-0.5,1.3
		s-0.8,0.5-1.5,0.5s-1.1-0.2-1.5-0.5S798.1,173.1,798.1,172.5z M801.9,192.5h-3.6v-15.8h3.6V192.5z"/>
	<path class="st4" d="M812.3,190c0.9,0,1.6-0.3,2.2-0.8s0.9-1.2,0.9-1.9h3.4c0,1-0.3,1.9-0.9,2.8s-1.4,1.5-2.3,2s-2.1,0.7-3.2,0.7
		c-2.2,0-4-0.7-5.3-2.2s-1.9-3.4-1.9-5.9v-0.4c0-2.4,0.6-4.3,1.9-5.8c1.3-1.5,3-2.2,5.3-2.2c1.9,0,3.4,0.5,4.6,1.6
		c1.2,1.1,1.8,2.5,1.9,4.3h-3.4c0-0.9-0.3-1.7-0.9-2.2s-1.3-0.9-2.2-0.9c-1.2,0-2,0.4-2.7,1.3c-0.6,0.8-0.9,2.1-1,3.8v0.6
		c0,1.7,0.3,3,0.9,3.8C810.2,189.5,811.1,190,812.3,190z"/>
	<path class="st4" d="M828.5,192.8c-2.3,0-4.1-0.7-5.5-2.1c-1.4-1.4-2.1-3.3-2.1-5.7v-0.4c0-1.6,0.3-3,0.9-4.2
		c0.6-1.2,1.5-2.2,2.6-2.9s2.3-1,3.7-1c2.2,0,3.8,0.7,5,2.1s1.8,3.3,1.8,5.8v1.4h-10.4c0.1,1.3,0.5,2.3,1.3,3.1s1.7,1.1,2.9,1.1
		c1.6,0,3-0.7,4-2l1.9,1.8c-0.6,0.9-1.5,1.7-2.5,2.2C831,192.5,829.8,192.8,828.5,192.8z M828,179.2c-1,0-1.8,0.3-2.4,1
		s-1,1.6-1.2,2.9h6.8v-0.3c-0.1-1.2-0.4-2.1-1-2.7C829.8,179.5,829,179.2,828,179.2z"/>
	<path class="st4" d="M840.9,176.7l0.1,1.8c1.2-1.4,2.7-2.1,4.6-2.1c3.3,0,5,1.9,5,5.7v10.5h-3.6v-10.3c0-1-0.2-1.8-0.7-2.2
		c-0.4-0.5-1.1-0.7-2.1-0.7c-1.4,0-2.5,0.6-3.2,1.9v11.3h-3.6v-15.8H840.9z"/>
	<path class="st4" d="M860.8,190c0.9,0,1.6-0.3,2.2-0.8s0.9-1.2,0.9-1.9h3.4c0,1-0.3,1.9-0.9,2.8s-1.4,1.5-2.3,2s-2.1,0.7-3.2,0.7
		c-2.2,0-4-0.7-5.3-2.2s-1.9-3.4-1.9-5.9v-0.4c0-2.4,0.6-4.3,1.9-5.8c1.3-1.5,3-2.2,5.3-2.2c1.9,0,3.4,0.5,4.6,1.6
		c1.2,1.1,1.8,2.5,1.9,4.3h-3.4c0-0.9-0.3-1.7-0.9-2.2s-1.3-0.9-2.2-0.9c-1.2,0-2,0.4-2.7,1.3c-0.6,0.8-0.9,2.1-1,3.8v0.6
		c0,1.7,0.3,3,0.9,3.8C858.7,189.5,859.6,190,860.8,190z"/>
	<path class="st4" d="M877,192.8c-2.3,0-4.1-0.7-5.5-2.1c-1.4-1.4-2.1-3.3-2.1-5.7v-0.4c0-1.6,0.3-3,0.9-4.2
		c0.6-1.2,1.5-2.2,2.6-2.9s2.3-1,3.7-1c2.2,0,3.8,0.7,5,2.1s1.8,3.3,1.8,5.8v1.4H873c0.1,1.3,0.5,2.3,1.3,3.1s1.7,1.1,2.9,1.1
		c1.6,0,3-0.7,4-2l1.9,1.8c-0.6,0.9-1.5,1.7-2.5,2.2C879.5,192.5,878.3,192.8,877,192.8z M876.5,179.2c-1,0-1.8,0.3-2.4,1
		s-1,1.6-1.2,2.9h6.8v-0.3c-0.1-1.2-0.4-2.1-1-2.7C878.3,179.5,877.5,179.2,876.5,179.2z"/>
	<path class="st4" d="M894.5,194.3h-2.8l8.4-23.2h2.8L894.5,194.3z"/>
	<path class="st4" d="M921.1,184.3h-4.1v8.2h-3.7v-21.3h7.5c2.5,0,4.4,0.6,5.7,1.7c1.3,1.1,2,2.7,2,4.8c0,1.4-0.3,2.6-1,3.6
		c-0.7,1-1.6,1.7-2.9,2.2l4.8,8.9v0.2h-4L921.1,184.3z M916.9,181.3h3.8c1.2,0,2.2-0.3,2.9-0.9c0.7-0.6,1.1-1.5,1.1-2.6
		c0-1.1-0.3-2-1-2.7c-0.7-0.6-1.6-0.9-2.9-1h-3.9V181.3z"/>
	<path class="st4" d="M941.1,192.5c-0.2-0.3-0.3-0.8-0.4-1.5c-1.1,1.2-2.5,1.8-4.2,1.8c-1.6,0-2.9-0.5-3.9-1.4s-1.5-2-1.5-3.4
		c0-1.7,0.6-3,1.9-3.9c1.3-0.9,3-1.4,5.4-1.4h2.2v-1c0-0.8-0.2-1.5-0.7-2c-0.5-0.5-1.2-0.7-2.1-0.7c-0.8,0-1.5,0.2-2,0.6
		s-0.8,0.9-0.8,1.5h-3.6c0-0.9,0.3-1.7,0.9-2.4c0.6-0.8,1.4-1.3,2.4-1.8c1-0.4,2.1-0.6,3.3-0.6c1.9,0,3.3,0.5,4.4,1.4
		c1.1,0.9,1.7,2.2,1.7,3.9v7.1c0,1.4,0.2,2.6,0.6,3.4v0.2H941.1z M937.2,189.9c0.7,0,1.4-0.2,2-0.5s1.1-0.8,1.4-1.4v-3h-1.9
		c-1.3,0-2.3,0.2-3,0.7s-1,1.1-1,1.9c0,0.7,0.2,1.2,0.7,1.6C935.8,189.7,936.4,189.9,937.2,189.9z"/>
	<path class="st4" d="M952.3,172.8v3.9h2.8v2.6h-2.8v8.8c0,0.6,0.1,1,0.4,1.3c0.2,0.3,0.7,0.4,1.3,0.4c0.4,0,0.8,0,1.2-0.1v2.8
		c-0.8,0.2-1.6,0.3-2.3,0.3c-2.7,0-4.1-1.5-4.1-4.5v-9h-2.6v-2.6h2.6v-3.9H952.3z"/>
	<path class="st4" d="M957.8,172.5c0-0.5,0.2-1,0.5-1.4c0.3-0.4,0.8-0.5,1.5-0.5s1.1,0.2,1.5,0.5s0.5,0.8,0.5,1.4
		c0,0.5-0.2,1-0.5,1.3s-0.8,0.5-1.5,0.5s-1.1-0.2-1.5-0.5C958,173.5,957.8,173.1,957.8,172.5z M961.6,192.5H958v-15.8h3.6V192.5z"/>
	<path class="st4" d="M968.8,176.7l0.1,1.8c1.2-1.4,2.7-2.1,4.6-2.1c3.3,0,5,1.9,5,5.7v10.5H975v-10.3c0-1-0.2-1.8-0.7-2.2
		c-0.4-0.5-1.1-0.7-2.1-0.7c-1.4,0-2.5,0.6-3.2,1.9v11.3h-3.6v-15.8H968.8z"/>
	<path class="st4" d="M981.5,184.5c0-2.5,0.6-4.4,1.7-5.9c1.2-1.5,2.7-2.2,4.6-2.2c1.8,0,3.2,0.6,4.3,1.9l0.2-1.6h3.2V192
		c0,2.1-0.6,3.7-1.9,4.9s-3,1.8-5.2,1.8c-1.2,0-2.3-0.2-3.4-0.7c-1.1-0.5-2-1.1-2.5-1.9l1.7-2.1c1.1,1.3,2.4,1.9,4,1.9
		c1.2,0,2.1-0.3,2.8-1c0.7-0.6,1-1.6,1-2.8v-1.1c-1,1.1-2.4,1.7-4.1,1.7c-1.9,0-3.4-0.7-4.5-2.2
		C982.1,189.1,981.5,187.1,981.5,184.5z M985.1,184.8c0,1.6,0.3,2.8,1,3.8c0.6,0.9,1.5,1.4,2.7,1.4c1.4,0,2.5-0.6,3.2-1.8v-7
		c-0.7-1.2-1.7-1.8-3.2-1.8c-1.2,0-2.1,0.5-2.7,1.4C985.4,181.6,985.1,183,985.1,184.8z"/>
	<path class="st4" d="M890.4,213.8h5.6v3.3h-5.6v6.3h-3.5V217h-5.6v-3.3h5.6v-5.9h3.5V213.8z"/>
	<path class="st4" d="M848.7,258.5H845l-9.5-15.1v15.1h-3.7v-21.3h3.7l9.5,15.2v-15.2h3.7V258.5z"/>
	<path class="st4" d="M859.7,258.8c-2.3,0-4.1-0.7-5.5-2.1c-1.4-1.4-2.1-3.3-2.1-5.7v-0.4c0-1.6,0.3-3,0.9-4.2
		c0.6-1.2,1.5-2.2,2.6-2.9s2.3-1,3.7-1c2.2,0,3.8,0.7,5,2.1s1.8,3.3,1.8,5.8v1.4h-10.4c0.1,1.3,0.5,2.3,1.3,3.1s1.7,1.1,2.9,1.1
		c1.6,0,3-0.7,4-2l1.9,1.8c-0.6,0.9-1.5,1.7-2.5,2.2C862.2,258.5,861,258.8,859.7,258.8z M859.3,245.2c-1,0-1.8,0.3-2.4,1
		s-1,1.6-1.2,2.9h6.8v-0.3c-0.1-1.2-0.4-2.1-1-2.7C861.1,245.5,860.3,245.2,859.3,245.2z"/>
	<path class="st4" d="M882.8,253.6l2.5-10.9h3.5l-4.3,15.8h-2.9l-3.4-10.9l-3.3,10.9h-2.9l-4.3-15.8h3.5l2.6,10.8l3.3-10.8h2.7
		L882.8,253.6z"/>
	<path class="st4" d="M908.2,256.9c-1,1.2-2.5,1.8-4.5,1.8c-1.7,0-3-0.5-3.9-1.5s-1.3-2.5-1.3-4.4v-10.3h3.6v10.2c0,2,0.8,3,2.5,3
		c1.7,0,2.9-0.6,3.5-1.9v-11.4h3.6v15.8h-3.4L908.2,256.9z"/>
	<path class="st4" d="M918.6,242.7l0.1,1.8c1.2-1.4,2.7-2.1,4.6-2.1c3.3,0,5,1.9,5,5.7v10.5h-3.6v-10.3c0-1-0.2-1.8-0.7-2.2
		c-0.4-0.5-1.1-0.7-2.1-0.7c-1.4,0-2.5,0.6-3.2,1.9v11.3h-3.6v-15.8H918.6z"/>
	<path class="st4" d="M932,238.5c0-0.5,0.2-1,0.5-1.4c0.3-0.4,0.8-0.5,1.5-0.5s1.1,0.2,1.5,0.5s0.5,0.8,0.5,1.4c0,0.5-0.2,1-0.5,1.3
		s-0.8,0.5-1.5,0.5s-1.1-0.2-1.5-0.5C932.1,239.5,932,239.1,932,238.5z M935.8,258.5h-3.6v-15.8h3.6V258.5z"/>
	<path class="st4" d="M944.1,238.8v3.9h2.8v2.6h-2.8v8.8c0,0.6,0.1,1,0.4,1.3c0.2,0.3,0.7,0.4,1.3,0.4c0.4,0,0.8,0,1.2-0.1v2.8
		c-0.8,0.2-1.6,0.3-2.3,0.3c-2.7,0-4.1-1.5-4.1-4.5v-9h-2.6v-2.6h2.6v-3.9H944.1z"/>
	<path class="st4" d="M808.6,291.8c-2.3,0-4.1-0.7-5.5-2.1c-1.4-1.4-2.1-3.3-2.1-5.7v-0.4c0-1.6,0.3-3,0.9-4.2
		c0.6-1.2,1.5-2.2,2.6-2.9s2.3-1,3.7-1c2.2,0,3.8,0.7,5,2.1s1.8,3.3,1.8,5.8v1.4h-10.4c0.1,1.3,0.5,2.3,1.3,3.1s1.7,1.1,2.9,1.1
		c1.6,0,3-0.7,4-2l1.9,1.8c-0.6,0.9-1.5,1.7-2.5,2.2C811.1,291.5,809.9,291.8,808.6,291.8z M808.2,278.2c-1,0-1.8,0.3-2.4,1
		s-1,1.6-1.2,2.9h6.8v-0.3c-0.1-1.2-0.4-2.1-1-2.7C809.9,278.5,809.2,278.2,808.2,278.2z"/>
	<path class="st4" d="M821,275.7l0.1,1.8c1.2-1.4,2.7-2.1,4.6-2.1c3.3,0,5,1.9,5,5.7v10.5h-3.6v-10.3c0-1-0.2-1.8-0.7-2.2
		c-0.4-0.5-1.1-0.7-2.1-0.7c-1.4,0-2.5,0.6-3.2,1.9v11.3h-3.6v-15.8H821z"/>
	<path class="st4" d="M833.7,283.5c0-2.4,0.6-4.4,1.7-5.9c1.1-1.5,2.7-2.2,4.6-2.2c1.7,0,3,0.6,4.1,1.8V269h3.6v22.5h-3.2l-0.2-1.6
		c-1.1,1.3-2.5,1.9-4.3,1.9c-1.9,0-3.4-0.7-4.5-2.2S833.7,286,833.7,283.5z M837.3,283.8c0,1.6,0.3,2.9,0.9,3.8
		c0.6,0.9,1.5,1.4,2.6,1.4c1.5,0,2.5-0.6,3.2-1.9v-6.8c-0.7-1.3-1.7-1.9-3.2-1.9c-1.2,0-2,0.5-2.7,1.4S837.3,281.9,837.3,283.8z"/>
	<path class="st4" d="M850.7,283.4c0-1.6,0.3-3,0.9-4.2c0.6-1.2,1.5-2.2,2.6-2.9s2.4-1,3.8-1c2.1,0,3.9,0.7,5.2,2.1s2.1,3.2,2.2,5.5
		l0,0.8c0,1.6-0.3,3-0.9,4.2s-1.5,2.2-2.6,2.9s-2.4,1-3.9,1c-2.2,0-4-0.7-5.4-2.2c-1.3-1.5-2-3.5-2-6V283.4z M854.2,283.7
		c0,1.6,0.3,2.9,1,3.8c0.7,0.9,1.6,1.4,2.8,1.4s2.1-0.5,2.8-1.4s1-2.3,1-4.1c0-1.6-0.3-2.9-1-3.8s-1.6-1.4-2.8-1.4
		c-1.2,0-2.1,0.5-2.8,1.4C854.6,280.5,854.2,281.9,854.2,283.7z"/>
	<path class="st4" d="M876.7,278.9c-0.5-0.1-1-0.1-1.5-0.1c-1.6,0-2.7,0.6-3.3,1.9v10.8h-3.6v-15.8h3.4l0.1,1.8
		c0.9-1.4,2.1-2.1,3.6-2.1c0.5,0,0.9,0.1,1.3,0.2L876.7,278.9z"/>
	<path class="st4" d="M887.9,287.2c0-0.6-0.3-1.1-0.8-1.5s-1.4-0.6-2.6-0.9s-2.2-0.6-3-1c-1.8-0.9-2.7-2.1-2.7-3.7
		c0-1.4,0.6-2.5,1.7-3.4s2.6-1.4,4.4-1.4c1.9,0,3.4,0.5,4.6,1.4c1.2,0.9,1.8,2.2,1.8,3.6h-3.6c0-0.7-0.3-1.3-0.8-1.7
		c-0.5-0.5-1.2-0.7-2-0.7c-0.8,0-1.4,0.2-1.9,0.5s-0.7,0.8-0.7,1.5c0,0.5,0.2,1,0.7,1.3s1.4,0.6,2.8,0.9c1.4,0.3,2.5,0.7,3.3,1.1
		c0.8,0.4,1.4,0.9,1.8,1.5c0.4,0.6,0.6,1.3,0.6,2.2c0,1.4-0.6,2.6-1.8,3.5c-1.2,0.9-2.7,1.3-4.6,1.3c-1.3,0-2.5-0.2-3.5-0.7
		s-1.8-1.1-2.4-1.9s-0.8-1.7-0.8-2.7h3.5c0,0.8,0.4,1.5,1,1.9c0.6,0.5,1.4,0.7,2.3,0.7c0.9,0,1.7-0.2,2.1-0.5
		C887.6,288.2,887.9,287.8,887.9,287.2z"/>
	<path class="st4" d="M901.4,291.8c-2.3,0-4.1-0.7-5.5-2.1c-1.4-1.4-2.1-3.3-2.1-5.7v-0.4c0-1.6,0.3-3,0.9-4.2
		c0.6-1.2,1.5-2.2,2.6-2.9s2.3-1,3.7-1c2.2,0,3.8,0.7,5,2.1c1.2,1.4,1.8,3.3,1.8,5.8v1.4h-10.4c0.1,1.3,0.5,2.3,1.3,3.1
		s1.7,1.1,2.9,1.1c1.6,0,3-0.7,4-2l1.9,1.8c-0.6,0.9-1.5,1.7-2.5,2.2C903.9,291.5,902.8,291.8,901.4,291.8z M901,278.2
		c-1,0-1.8,0.3-2.4,1c-0.6,0.7-1,1.6-1.2,2.9h6.8v-0.3c-0.1-1.2-0.4-2.1-1-2.7C902.8,278.5,902,278.2,901,278.2z"/>
	<path class="st4" d="M913.9,275.7l0.1,1.7c1.1-1.3,2.6-1.9,4.6-1.9c2.1,0,3.6,0.8,4.4,2.4c1.2-1.6,2.8-2.4,4.9-2.4
		c1.7,0,3,0.5,3.9,1.5s1.3,2.4,1.3,4.3v10.4h-3.6v-10.3c0-1-0.2-1.7-0.7-2.2s-1.2-0.7-2.2-0.7c-0.8,0-1.5,0.2-2,0.7
		c-0.5,0.4-0.9,1-1.1,1.7l0,10.9H920v-10.4c0-1.9-1-2.8-2.9-2.8c-1.4,0-2.4,0.6-3,1.7v11.5h-3.6v-15.8H913.9z"/>
	<path class="st4" d="M943.6,291.8c-2.3,0-4.1-0.7-5.5-2.1c-1.4-1.4-2.1-3.3-2.1-5.7v-0.4c0-1.6,0.3-3,0.9-4.2
		c0.6-1.2,1.5-2.2,2.6-2.9s2.3-1,3.7-1c2.2,0,3.8,0.7,5,2.1c1.2,1.4,1.8,3.3,1.8,5.8v1.4h-10.4c0.1,1.3,0.5,2.3,1.3,3.1
		s1.7,1.1,2.9,1.1c1.6,0,3-0.7,4-2l1.9,1.8c-0.6,0.9-1.5,1.7-2.5,2.2C946.1,291.5,945,291.8,943.6,291.8z M943.2,278.2
		c-1,0-1.8,0.3-2.4,1c-0.6,0.7-1,1.6-1.2,2.9h6.8v-0.3c-0.1-1.2-0.4-2.1-1-2.7C945,278.5,944.2,278.2,943.2,278.2z"/>
	<path class="st4" d="M956.1,275.7l0.1,1.8c1.2-1.4,2.7-2.1,4.6-2.1c3.3,0,5,1.9,5,5.7v10.5h-3.6v-10.3c0-1-0.2-1.8-0.7-2.2
		c-0.4-0.5-1.1-0.7-2.1-0.7c-1.4,0-2.5,0.6-3.2,1.9v11.3h-3.6v-15.8H956.1z"/>
	<path class="st4" d="M973.9,271.8v3.9h2.8v2.6h-2.8v8.8c0,0.6,0.1,1,0.4,1.3c0.2,0.3,0.7,0.4,1.3,0.4c0.4,0,0.8,0,1.2-0.1v2.8
		c-0.8,0.2-1.6,0.3-2.3,0.3c-2.7,0-4.1-1.5-4.1-4.5v-9h-2.6v-2.6h2.6v-3.9H973.9z"/>
</g>
<circle class="st1" cx="889.1" cy="861.3" r="209.2"/>
<g>
	<path class="st4" d="M865.1,731.5h-8.3l-1.7,5h-3.9l8.1-21.3h3.3l8.1,21.3h-3.9L865.1,731.5z M857.8,728.5h6.2l-3.1-8.8
		L857.8,728.5z"/>
	<path class="st4" d="M886.8,718.2h-6.7v18.3h-3.7v-18.3h-6.6v-3h16.9V718.2z"/>
	<path class="st4" d="M905.4,729.6c-0.2,2.3-1.1,4.1-2.5,5.3c-1.5,1.3-3.4,1.9-5.8,1.9c-1.7,0-3.2-0.4-4.5-1.2c-1.3-0.8-2.3-2-3-3.4
		s-1.1-3.2-1.1-5.2v-2c0-2,0.4-3.8,1.1-5.3s1.7-2.7,3.1-3.5c1.3-0.8,2.9-1.2,4.6-1.2c2.4,0,4.2,0.6,5.7,1.9c1.4,1.3,2.3,3.1,2.5,5.4
		h-3.7c-0.2-1.5-0.6-2.6-1.3-3.3c-0.7-0.7-1.8-1-3.2-1c-1.6,0-2.8,0.6-3.7,1.8c-0.9,1.2-1.3,2.9-1.3,5.2v1.9c0,2.3,0.4,4.1,1.2,5.3
		c0.8,1.2,2,1.8,3.6,1.8c1.5,0,2.5-0.3,3.3-1s1.2-1.7,1.4-3.3H905.4z"/>
	<path class="st4" d="M925.7,726.4c0,2.1-0.4,3.9-1.1,5.5c-0.7,1.6-1.8,2.8-3.1,3.6c-1.3,0.8-2.9,1.3-4.6,1.3
		c-1.7,0-3.3-0.4-4.6-1.3c-1.4-0.8-2.4-2-3.1-3.6c-0.7-1.6-1.1-3.4-1.1-5.4v-1.2c0-2.1,0.4-3.9,1.1-5.5s1.8-2.8,3.1-3.7
		c1.3-0.8,2.9-1.3,4.6-1.3s3.3,0.4,4.6,1.3c1.3,0.8,2.4,2,3.1,3.6c0.7,1.6,1.1,3.4,1.1,5.5V726.4z M922,725.3c0-2.4-0.4-4.2-1.3-5.4
		c-0.9-1.3-2.2-1.9-3.8-1.9c-1.6,0-2.9,0.6-3.8,1.9s-1.4,3-1.4,5.3v1.2c0,2.3,0.5,4.2,1.4,5.4c0.9,1.3,2.2,1.9,3.8,1.9
		c1.6,0,2.9-0.6,3.8-1.9c0.9-1.2,1.3-3.1,1.3-5.5V725.3z"/>
	<path class="st4" d="M786.4,766.5h9.7v3h-13.4v-21.3h3.7V766.5z"/>
	<path class="st4" d="M798.5,749.5c0-0.5,0.2-1,0.5-1.4s0.8-0.5,1.5-0.5s1.1,0.2,1.5,0.5s0.5,0.8,0.5,1.4c0,0.5-0.2,1-0.5,1.3
		s-0.8,0.5-1.5,0.5s-1.1-0.2-1.5-0.5S798.5,750.1,798.5,749.5z M802.3,769.5h-3.6v-15.8h3.6V769.5z"/>
	<path class="st4" d="M812.7,767c0.9,0,1.6-0.3,2.2-0.8s0.9-1.2,0.9-1.9h3.4c0,1-0.3,1.9-0.9,2.8s-1.4,1.5-2.3,2s-2.1,0.7-3.2,0.7
		c-2.2,0-4-0.7-5.3-2.2s-1.9-3.4-1.9-5.9v-0.4c0-2.4,0.6-4.3,1.9-5.8c1.3-1.5,3-2.2,5.3-2.2c1.9,0,3.4,0.5,4.6,1.6
		c1.2,1.1,1.8,2.5,1.9,4.3h-3.4c0-0.9-0.3-1.7-0.9-2.2c-0.6-0.6-1.3-0.9-2.2-0.9c-1.2,0-2,0.4-2.7,1.3c-0.6,0.8-0.9,2.1-1,3.8v0.6
		c0,1.7,0.3,3,0.9,3.8C810.6,766.5,811.5,767,812.7,767z"/>
	<path class="st4" d="M828.9,769.8c-2.3,0-4.1-0.7-5.5-2.1c-1.4-1.4-2.1-3.3-2.1-5.7v-0.4c0-1.6,0.3-3,0.9-4.2
		c0.6-1.2,1.5-2.2,2.6-2.9s2.3-1,3.7-1c2.2,0,3.8,0.7,5,2.1c1.2,1.4,1.8,3.3,1.8,5.8v1.4h-10.4c0.1,1.3,0.5,2.3,1.3,3.1
		s1.7,1.1,2.9,1.1c1.6,0,3-0.7,4-2l1.9,1.8c-0.6,0.9-1.5,1.7-2.5,2.2C831.4,769.5,830.2,769.8,828.9,769.8z M828.5,756.2
		c-1,0-1.8,0.3-2.4,1c-0.6,0.7-1,1.6-1.2,2.9h6.8v-0.3c-0.1-1.2-0.4-2.1-1-2.7C830.2,756.5,829.4,756.2,828.5,756.2z"/>
	<path class="st4" d="M841.3,753.7l0.1,1.8c1.2-1.4,2.7-2.1,4.6-2.1c3.3,0,5,1.9,5,5.7v10.5h-3.6v-10.3c0-1-0.2-1.8-0.7-2.2
		c-0.4-0.5-1.1-0.7-2.1-0.7c-1.4,0-2.5,0.6-3.2,1.9v11.3h-3.6v-15.8H841.3z"/>
	<path class="st4" d="M861.2,767c0.9,0,1.6-0.3,2.2-0.8s0.9-1.2,0.9-1.9h3.4c0,1-0.3,1.9-0.9,2.8s-1.4,1.5-2.3,2s-2.1,0.7-3.2,0.7
		c-2.2,0-4-0.7-5.3-2.2s-1.9-3.4-1.9-5.9v-0.4c0-2.4,0.6-4.3,1.9-5.8c1.3-1.5,3-2.2,5.3-2.2c1.9,0,3.4,0.5,4.6,1.6
		c1.2,1.1,1.8,2.5,1.9,4.3h-3.4c0-0.9-0.3-1.7-0.9-2.2c-0.6-0.6-1.3-0.9-2.2-0.9c-1.2,0-2,0.4-2.7,1.3c-0.6,0.8-0.9,2.1-1,3.8v0.6
		c0,1.7,0.3,3,0.9,3.8C859.1,766.5,860,767,861.2,767z"/>
	<path class="st4" d="M877.4,769.8c-2.3,0-4.1-0.7-5.5-2.1c-1.4-1.4-2.1-3.3-2.1-5.7v-0.4c0-1.6,0.3-3,0.9-4.2
		c0.6-1.2,1.5-2.2,2.6-2.9s2.3-1,3.7-1c2.2,0,3.8,0.7,5,2.1c1.2,1.4,1.8,3.3,1.8,5.8v1.4h-10.4c0.1,1.3,0.5,2.3,1.3,3.1
		s1.7,1.1,2.9,1.1c1.6,0,3-0.7,4-2l1.9,1.8c-0.6,0.9-1.5,1.7-2.5,2.2C879.9,769.5,878.7,769.8,877.4,769.8z M876.9,756.2
		c-1,0-1.8,0.3-2.4,1c-0.6,0.7-1,1.6-1.2,2.9h6.8v-0.3c-0.1-1.2-0.4-2.1-1-2.7C878.7,756.5,877.9,756.2,876.9,756.2z"/>
	<path class="st4" d="M895,771.3h-2.8l8.4-23.2h2.8L895,771.3z"/>
	<path class="st4" d="M921.5,761.3h-4.1v8.2h-3.7v-21.3h7.5c2.5,0,4.4,0.6,5.7,1.7c1.3,1.1,2,2.7,2,4.8c0,1.4-0.3,2.6-1,3.6
		c-0.7,1-1.6,1.7-2.9,2.2l4.8,8.9v0.2h-4L921.5,761.3z M917.3,758.3h3.8c1.2,0,2.2-0.3,2.9-0.9c0.7-0.6,1.1-1.5,1.1-2.6
		c0-1.1-0.3-2-1-2.7c-0.7-0.6-1.6-0.9-2.9-1h-3.9V758.3z"/>
	<path class="st4" d="M941.5,769.5c-0.2-0.3-0.3-0.8-0.4-1.5c-1.1,1.2-2.5,1.8-4.2,1.8c-1.6,0-2.9-0.5-3.9-1.4s-1.5-2-1.5-3.4
		c0-1.7,0.6-3,1.9-3.9c1.3-0.9,3-1.4,5.4-1.4h2.2v-1c0-0.8-0.2-1.5-0.7-2c-0.5-0.5-1.2-0.7-2.1-0.7c-0.8,0-1.5,0.2-2,0.6
		s-0.8,0.9-0.8,1.5h-3.6c0-0.9,0.3-1.7,0.9-2.4c0.6-0.8,1.4-1.3,2.4-1.8c1-0.4,2.1-0.6,3.3-0.6c1.9,0,3.3,0.5,4.4,1.4
		c1.1,0.9,1.7,2.2,1.7,3.9v7.1c0,1.4,0.2,2.6,0.6,3.4v0.2H941.5z M937.6,766.9c0.7,0,1.4-0.2,2-0.5s1.1-0.8,1.4-1.4v-3H939
		c-1.3,0-2.3,0.2-3,0.7s-1,1.1-1,1.9c0,0.7,0.2,1.2,0.7,1.6C936.2,766.7,936.8,766.9,937.6,766.9z"/>
	<path class="st4" d="M952.7,749.8v3.9h2.8v2.6h-2.8v8.8c0,0.6,0.1,1,0.4,1.3c0.2,0.3,0.7,0.4,1.3,0.4c0.4,0,0.8,0,1.2-0.1v2.8
		c-0.8,0.2-1.6,0.3-2.3,0.3c-2.7,0-4.1-1.5-4.1-4.5v-9h-2.6v-2.6h2.6v-3.9H952.7z"/>
	<path class="st4" d="M958.2,749.5c0-0.5,0.2-1,0.5-1.4c0.3-0.4,0.8-0.5,1.5-0.5s1.1,0.2,1.5,0.5s0.5,0.8,0.5,1.4
		c0,0.5-0.2,1-0.5,1.3s-0.8,0.5-1.5,0.5s-1.1-0.2-1.5-0.5C958.4,750.5,958.2,750.1,958.2,749.5z M962,769.5h-3.6v-15.8h3.6V769.5z"
		/>
	<path class="st4" d="M969.2,753.7l0.1,1.8c1.2-1.4,2.7-2.1,4.6-2.1c3.3,0,5,1.9,5,5.7v10.5h-3.6v-10.3c0-1-0.2-1.8-0.7-2.2
		c-0.4-0.5-1.1-0.7-2.1-0.7c-1.4,0-2.5,0.6-3.2,1.9v11.3h-3.6v-15.8H969.2z"/>
	<path class="st4" d="M981.9,761.5c0-2.5,0.6-4.4,1.7-5.9c1.2-1.5,2.7-2.2,4.6-2.2c1.8,0,3.2,0.6,4.3,1.9l0.2-1.6h3.2V769
		c0,2.1-0.6,3.7-1.9,4.9s-3,1.8-5.2,1.8c-1.2,0-2.3-0.2-3.4-0.7c-1.1-0.5-2-1.1-2.5-1.9l1.7-2.1c1.1,1.3,2.4,1.9,4,1.9
		c1.2,0,2.1-0.3,2.8-1c0.7-0.6,1-1.6,1-2.8v-1.1c-1,1.1-2.4,1.7-4.1,1.7c-1.9,0-3.4-0.7-4.5-2.2
		C982.5,766.1,981.9,764.1,981.9,761.5z M985.5,761.8c0,1.6,0.3,2.8,1,3.8c0.6,0.9,1.5,1.4,2.7,1.4c1.4,0,2.5-0.6,3.2-1.8v-7
		c-0.7-1.2-1.7-1.8-3.2-1.8c-1.2,0-2.1,0.5-2.7,1.4C985.8,758.6,985.5,760,985.5,761.8z"/>
	<path class="st4" d="M890.8,790.8h5.6v3.3h-5.6v6.3h-3.5V794h-5.6v-3.3h5.6v-5.9h3.5V790.8z"/>
	<path class="st4" d="M713,830.5h-8.3l-1.7,5h-3.9l8.1-21.3h3.3l8.1,21.3h-3.9L713,830.5z M705.7,827.5h6.2l-3.1-8.8L705.7,827.5z"
		/>
	<path class="st4" d="M720,827.5c0-2.4,0.6-4.4,1.7-5.9c1.1-1.5,2.7-2.2,4.6-2.2c1.7,0,3,0.6,4.1,1.8V813h3.6v22.5h-3.2l-0.2-1.6
		c-1.1,1.3-2.5,1.9-4.3,1.9c-1.9,0-3.4-0.7-4.5-2.2S720,830,720,827.5z M723.5,827.8c0,1.6,0.3,2.9,0.9,3.8c0.6,0.9,1.5,1.4,2.6,1.4
		c1.5,0,2.5-0.6,3.2-1.9v-6.8c-0.7-1.3-1.7-1.9-3.2-1.9c-1.2,0-2,0.5-2.7,1.4S723.5,825.9,723.5,827.8z"/>
	<path class="st4" d="M736.9,827.5c0-2.4,0.6-4.4,1.7-5.9c1.1-1.5,2.7-2.2,4.6-2.2c1.7,0,3,0.6,4.1,1.8V813h3.6v22.5h-3.2l-0.2-1.6
		c-1.1,1.3-2.5,1.9-4.3,1.9c-1.9,0-3.4-0.7-4.5-2.2S736.9,830,736.9,827.5z M740.5,827.8c0,1.6,0.3,2.9,0.9,3.8
		c0.6,0.9,1.5,1.4,2.6,1.4c1.5,0,2.5-0.6,3.2-1.9v-6.8c-0.7-1.3-1.7-1.9-3.2-1.9c-1.2,0-2,0.5-2.7,1.4S740.5,825.9,740.5,827.8z"/>
	<path class="st4" d="M754.5,815.5c0-0.5,0.2-1,0.5-1.4s0.8-0.5,1.5-0.5s1.1,0.2,1.5,0.5s0.5,0.8,0.5,1.4c0,0.5-0.2,1-0.5,1.3
		s-0.8,0.5-1.5,0.5s-1.1-0.2-1.5-0.5S754.5,816.1,754.5,815.5z M758.3,835.5h-3.6v-15.8h3.6V835.5z"/>
	<path class="st4" d="M766.6,815.8v3.9h2.8v2.6h-2.8v8.8c0,0.6,0.1,1,0.4,1.3c0.2,0.3,0.7,0.4,1.3,0.4c0.4,0,0.8,0,1.2-0.1v2.8
		c-0.8,0.2-1.6,0.3-2.3,0.3c-2.7,0-4.1-1.5-4.1-4.5v-9h-2.6v-2.6h2.6v-3.9H766.6z"/>
	<path class="st4" d="M772.2,815.5c0-0.5,0.2-1,0.5-1.4s0.8-0.5,1.5-0.5s1.1,0.2,1.5,0.5s0.5,0.8,0.5,1.4c0,0.5-0.2,1-0.5,1.3
		s-0.8,0.5-1.5,0.5s-1.1-0.2-1.5-0.5S772.2,816.1,772.2,815.5z M775.9,835.5h-3.6v-15.8h3.6V835.5z"/>
	<path class="st4" d="M779.2,827.4c0-1.6,0.3-3,0.9-4.2c0.6-1.2,1.5-2.2,2.6-2.9s2.4-1,3.8-1c2.1,0,3.9,0.7,5.2,2.1s2.1,3.2,2.2,5.5
		l0,0.8c0,1.6-0.3,3-0.9,4.2s-1.5,2.2-2.6,2.9s-2.4,1-3.9,1c-2.2,0-4-0.7-5.4-2.2c-1.3-1.5-2-3.5-2-6V827.4z M782.7,827.7
		c0,1.6,0.3,2.9,1,3.8c0.7,0.9,1.6,1.4,2.8,1.4s2.1-0.5,2.8-1.4s1-2.3,1-4.1c0-1.6-0.3-2.9-1-3.8s-1.6-1.4-2.8-1.4
		c-1.2,0-2.1,0.5-2.8,1.4C783.1,824.5,782.7,825.9,782.7,827.7z"/>
	<path class="st4" d="M800.2,819.7l0.1,1.8c1.2-1.4,2.7-2.1,4.6-2.1c3.3,0,5,1.9,5,5.7v10.5h-3.6v-10.3c0-1-0.2-1.8-0.7-2.2
		c-0.4-0.5-1.1-0.7-2.1-0.7c-1.4,0-2.5,0.6-3.2,1.9v11.3h-3.6v-15.8H800.2z"/>
	<path class="st4" d="M823.1,835.5c-0.2-0.3-0.3-0.8-0.4-1.5c-1.1,1.2-2.5,1.8-4.2,1.8c-1.6,0-2.9-0.5-3.9-1.4s-1.5-2-1.5-3.4
		c0-1.7,0.6-3,1.9-3.9c1.3-0.9,3-1.4,5.4-1.4h2.2v-1c0-0.8-0.2-1.5-0.7-2c-0.5-0.5-1.2-0.7-2.1-0.7c-0.8,0-1.5,0.2-2,0.6
		s-0.8,0.9-0.8,1.5h-3.6c0-0.9,0.3-1.7,0.9-2.4c0.6-0.8,1.4-1.3,2.4-1.8c1-0.4,2.1-0.6,3.3-0.6c1.9,0,3.3,0.5,4.4,1.4
		c1.1,0.9,1.7,2.2,1.7,3.9v7.1c0,1.4,0.2,2.6,0.6,3.4v0.2H823.1z M819.1,832.9c0.7,0,1.4-0.2,2-0.5s1.1-0.8,1.4-1.4v-3h-1.9
		c-1.3,0-2.3,0.2-3,0.7s-1,1.1-1,1.9c0,0.7,0.2,1.2,0.7,1.6C817.8,832.7,818.4,832.9,819.1,832.9z"/>
	<path class="st4" d="M833.6,835.5H830V813h3.6V835.5z"/>
	<path class="st4" d="M854.5,833.9c-1,1.2-2.5,1.8-4.5,1.8c-1.7,0-3-0.5-3.9-1.5s-1.3-2.5-1.3-4.4v-10.3h3.6v10.2c0,2,0.8,3,2.5,3
		c1.7,0,2.9-0.6,3.5-1.9v-11.4h3.6v15.8h-3.4L854.5,833.9z"/>
	<path class="st4" d="M864.9,819.7l0.1,1.8c1.2-1.4,2.7-2.1,4.6-2.1c3.3,0,5,1.9,5,5.7v10.5h-3.6v-10.3c0-1-0.2-1.8-0.7-2.2
		c-0.4-0.5-1.1-0.7-2.1-0.7c-1.4,0-2.5,0.6-3.2,1.9v11.3h-3.6v-15.8H864.9z"/>
	<path class="st4" d="M878.3,815.5c0-0.5,0.2-1,0.5-1.4c0.3-0.4,0.8-0.5,1.5-0.5s1.1,0.2,1.5,0.5s0.5,0.8,0.5,1.4
		c0,0.5-0.2,1-0.5,1.3s-0.8,0.5-1.5,0.5s-1.1-0.2-1.5-0.5C878.5,816.5,878.3,816.1,878.3,815.5z M882.1,835.5h-3.6v-15.8h3.6V835.5z
		"/>
	<path class="st4" d="M890.4,815.8v3.9h2.8v2.6h-2.8v8.8c0,0.6,0.1,1,0.4,1.3c0.2,0.3,0.7,0.4,1.3,0.4c0.4,0,0.8,0,1.2-0.1v2.8
		c-0.8,0.2-1.6,0.3-2.3,0.3c-2.7,0-4.1-1.5-4.1-4.5v-9h-2.6v-2.6h2.6v-3.9H890.4z"/>
	<path class="st4" d="M910.4,835.8c-2.3,0-4.1-0.7-5.5-2.1c-1.4-1.4-2.1-3.3-2.1-5.7v-0.4c0-1.6,0.3-3,0.9-4.2
		c0.6-1.2,1.5-2.2,2.6-2.9s2.3-1,3.7-1c2.2,0,3.8,0.7,5,2.1c1.2,1.4,1.8,3.3,1.8,5.8v1.4h-10.4c0.1,1.3,0.5,2.3,1.3,3.1
		s1.7,1.1,2.9,1.1c1.6,0,3-0.7,4-2l1.9,1.8c-0.6,0.9-1.5,1.7-2.5,2.2C912.9,835.5,911.7,835.8,910.4,835.8z M910,822.2
		c-1,0-1.8,0.3-2.4,1c-0.6,0.7-1,1.6-1.2,2.9h6.8v-0.3c-0.1-1.2-0.4-2.1-1-2.7C911.7,822.5,910.9,822.2,910,822.2z"/>
	<path class="st4" d="M922.8,819.7l0.1,1.8c1.2-1.4,2.7-2.1,4.6-2.1c3.3,0,5,1.9,5,5.7v10.5H929v-10.3c0-1-0.2-1.8-0.7-2.2
		c-0.4-0.5-1.1-0.7-2.1-0.7c-1.4,0-2.5,0.6-3.2,1.9v11.3h-3.6v-15.8H922.8z"/>
	<path class="st4" d="M935.5,827.5c0-2.4,0.6-4.4,1.7-5.9c1.1-1.5,2.7-2.2,4.6-2.2c1.7,0,3,0.6,4.1,1.8V813h3.6v22.5h-3.2l-0.2-1.6
		c-1.1,1.3-2.5,1.9-4.3,1.9c-1.9,0-3.4-0.7-4.5-2.2C936.1,832.1,935.5,830,935.5,827.5z M939.1,827.8c0,1.6,0.3,2.9,0.9,3.8
		c0.6,0.9,1.5,1.4,2.6,1.4c1.5,0,2.5-0.6,3.2-1.9v-6.8c-0.7-1.3-1.7-1.9-3.2-1.9c-1.2,0-2,0.5-2.7,1.4S939.1,825.9,939.1,827.8z"/>
	<path class="st4" d="M952.5,827.4c0-1.6,0.3-3,0.9-4.2c0.6-1.2,1.5-2.2,2.6-2.9s2.4-1,3.8-1c2.1,0,3.9,0.7,5.2,2.1
		c1.3,1.4,2.1,3.2,2.2,5.5l0,0.8c0,1.6-0.3,3-0.9,4.2c-0.6,1.2-1.5,2.2-2.6,2.9s-2.4,1-3.9,1c-2.2,0-4-0.7-5.4-2.2
		c-1.3-1.5-2-3.5-2-6V827.4z M956,827.7c0,1.6,0.3,2.9,1,3.8c0.7,0.9,1.6,1.4,2.8,1.4s2.1-0.5,2.8-1.4c0.7-0.9,1-2.3,1-4.1
		c0-1.6-0.3-2.9-1-3.8c-0.7-0.9-1.6-1.4-2.8-1.4c-1.2,0-2.1,0.5-2.8,1.4C956.4,824.5,956,825.9,956,827.7z"/>
	<path class="st4" d="M978.5,822.9c-0.5-0.1-1-0.1-1.5-0.1c-1.6,0-2.7,0.6-3.3,1.9v10.8h-3.6v-15.8h3.4l0.1,1.8
		c0.9-1.4,2.1-2.1,3.6-2.1c0.5,0,0.9,0.1,1.3,0.2L978.5,822.9z"/>
	<path class="st4" d="M989.6,831.2c0-0.6-0.3-1.1-0.8-1.5s-1.4-0.6-2.6-0.9s-2.2-0.6-3-1c-1.8-0.9-2.7-2.1-2.7-3.7
		c0-1.4,0.6-2.5,1.7-3.4s2.6-1.4,4.4-1.4c1.9,0,3.4,0.5,4.6,1.4c1.2,0.9,1.8,2.2,1.8,3.6h-3.6c0-0.7-0.3-1.3-0.8-1.7
		c-0.5-0.5-1.2-0.7-2-0.7c-0.8,0-1.4,0.2-1.9,0.5c-0.5,0.4-0.7,0.8-0.7,1.5c0,0.5,0.2,1,0.7,1.3s1.4,0.6,2.8,0.9
		c1.4,0.3,2.5,0.7,3.3,1.1c0.8,0.4,1.4,0.9,1.8,1.5c0.4,0.6,0.6,1.3,0.6,2.2c0,1.4-0.6,2.6-1.8,3.5c-1.2,0.9-2.7,1.3-4.6,1.3
		c-1.3,0-2.5-0.2-3.5-0.7s-1.8-1.1-2.4-1.9s-0.8-1.7-0.8-2.7h3.5c0,0.8,0.4,1.5,1,1.9c0.6,0.5,1.4,0.7,2.3,0.7
		c0.9,0,1.7-0.2,2.1-0.5C989.4,832.2,989.6,831.8,989.6,831.2z"/>
	<path class="st4" d="M1003.2,835.8c-2.3,0-4.1-0.7-5.5-2.1c-1.4-1.4-2.1-3.3-2.1-5.7v-0.4c0-1.6,0.3-3,0.9-4.2
		c0.6-1.2,1.5-2.2,2.6-2.9s2.3-1,3.7-1c2.2,0,3.8,0.7,5,2.1c1.2,1.4,1.8,3.3,1.8,5.8v1.4h-10.4c0.1,1.3,0.5,2.3,1.3,3.1
		s1.7,1.1,2.9,1.1c1.6,0,3-0.7,4-2l1.9,1.8c-0.6,0.9-1.5,1.7-2.5,2.2C1005.7,835.5,1004.5,835.8,1003.2,835.8z M1002.8,822.2
		c-1,0-1.8,0.3-2.4,1c-0.6,0.7-1,1.6-1.2,2.9h6.8v-0.3c-0.1-1.2-0.4-2.1-1-2.7C1004.5,822.5,1003.8,822.2,1002.8,822.2z"/>
	<path class="st4" d="M1015.7,819.7l0.1,1.7c1.1-1.3,2.6-1.9,4.6-1.9c2.1,0,3.6,0.8,4.4,2.4c1.2-1.6,2.8-2.4,4.9-2.4
		c1.7,0,3,0.5,3.9,1.5s1.3,2.4,1.3,4.3v10.4h-3.6v-10.3c0-1-0.2-1.7-0.7-2.2s-1.2-0.7-2.2-0.7c-0.8,0-1.5,0.2-2,0.7
		c-0.5,0.4-0.9,1-1.1,1.7l0,10.9h-3.6v-10.4c0-1.9-1-2.8-2.9-2.8c-1.4,0-2.4,0.6-3,1.7v11.5h-3.6v-15.8H1015.7z"/>
	<path class="st4" d="M1045.4,835.8c-2.3,0-4.1-0.7-5.5-2.1c-1.4-1.4-2.1-3.3-2.1-5.7v-0.4c0-1.6,0.3-3,0.9-4.2
		c0.6-1.2,1.5-2.2,2.6-2.9s2.3-1,3.7-1c2.2,0,3.8,0.7,5,2.1c1.2,1.4,1.8,3.3,1.8,5.8v1.4h-10.4c0.1,1.3,0.5,2.3,1.3,3.1
		s1.7,1.1,2.9,1.1c1.6,0,3-0.7,4-2l1.9,1.8c-0.6,0.9-1.5,1.7-2.5,2.2C1047.9,835.5,1046.7,835.8,1045.4,835.8z M1045,822.2
		c-1,0-1.8,0.3-2.4,1c-0.6,0.7-1,1.6-1.2,2.9h6.8v-0.3c-0.1-1.2-0.4-2.1-1-2.7C1046.7,822.5,1046,822.2,1045,822.2z"/>
	<path class="st4" d="M1057.8,819.7l0.1,1.8c1.2-1.4,2.7-2.1,4.6-2.1c3.3,0,5,1.9,5,5.7v10.5h-3.6v-10.3c0-1-0.2-1.8-0.7-2.2
		c-0.4-0.5-1.1-0.7-2.1-0.7c-1.4,0-2.5,0.6-3.2,1.9v11.3h-3.6v-15.8H1057.8z"/>
	<path class="st4" d="M1075.7,815.8v3.9h2.8v2.6h-2.8v8.8c0,0.6,0.1,1,0.4,1.3c0.2,0.3,0.7,0.4,1.3,0.4c0.4,0,0.8,0,1.2-0.1v2.8
		c-0.8,0.2-1.6,0.3-2.3,0.3c-2.7,0-4.1-1.5-4.1-4.5v-9h-2.6v-2.6h2.6v-3.9H1075.7z"/>
	<path class="st4" d="M876.5,860.4c0-1.6,0.3-3,0.9-4.2c0.6-1.2,1.5-2.2,2.6-2.9s2.4-1,3.8-1c2.1,0,3.9,0.7,5.2,2.1
		c1.3,1.4,2.1,3.2,2.2,5.5l0,0.8c0,1.6-0.3,3-0.9,4.2c-0.6,1.2-1.5,2.2-2.6,2.9s-2.4,1-3.9,1c-2.2,0-4-0.7-5.4-2.2
		c-1.3-1.5-2-3.5-2-6V860.4z M880,860.7c0,1.6,0.3,2.9,1,3.8c0.7,0.9,1.6,1.4,2.8,1.4s2.1-0.5,2.8-1.4c0.7-0.9,1-2.3,1-4.1
		c0-1.6-0.3-2.9-1-3.8c-0.7-0.9-1.6-1.4-2.8-1.4c-1.2,0-2.1,0.5-2.8,1.4C880.4,857.5,880,858.9,880,860.7z"/>
	<path class="st4" d="M902.5,855.9c-0.5-0.1-1-0.1-1.5-0.1c-1.6,0-2.7,0.6-3.3,1.9v10.8h-3.6v-15.8h3.4l0.1,1.8
		c0.9-1.4,2.1-2.1,3.6-2.1c0.5,0,0.9,0.1,1.3,0.2L902.5,855.9z"/>
	<path class="st4" d="M738.8,893.3h-4.1v8.2H731v-21.3h7.5c2.5,0,4.4,0.6,5.7,1.7c1.3,1.1,2,2.7,2,4.8c0,1.4-0.3,2.6-1,3.6
		s-1.6,1.7-2.9,2.2l4.8,8.9v0.2h-4L738.8,893.3z M734.7,890.3h3.8c1.2,0,2.2-0.3,2.9-0.9c0.7-0.6,1.1-1.5,1.1-2.6c0-1.1-0.3-2-1-2.7
		s-1.6-0.9-2.9-1h-3.9V890.3z"/>
	<path class="st4" d="M756.4,901.8c-2.3,0-4.1-0.7-5.5-2.1c-1.4-1.4-2.1-3.3-2.1-5.7v-0.4c0-1.6,0.3-3,0.9-4.2
		c0.6-1.2,1.5-2.2,2.6-2.9s2.3-1,3.7-1c2.2,0,3.8,0.7,5,2.1s1.8,3.3,1.8,5.8v1.4h-10.4c0.1,1.3,0.5,2.3,1.3,3.1s1.7,1.1,2.9,1.1
		c1.6,0,3-0.7,4-2l1.9,1.8c-0.6,0.9-1.5,1.7-2.5,2.2C758.9,901.5,757.7,901.8,756.4,901.8z M755.9,888.2c-1,0-1.8,0.3-2.4,1
		s-1,1.6-1.2,2.9h6.8v-0.3c-0.1-1.2-0.4-2.1-1-2.7C757.7,888.5,756.9,888.2,755.9,888.2z"/>
	<path class="st4" d="M768.8,885.7l0.1,1.8c1.2-1.4,2.7-2.1,4.6-2.1c3.3,0,5,1.9,5,5.7v10.5H775v-10.3c0-1-0.2-1.8-0.7-2.2
		c-0.4-0.5-1.1-0.7-2.1-0.7c-1.4,0-2.5,0.6-3.2,1.9v11.3h-3.6v-15.8H768.8z"/>
	<path class="st4" d="M789.1,901.8c-2.3,0-4.1-0.7-5.5-2.1c-1.4-1.4-2.1-3.3-2.1-5.7v-0.4c0-1.6,0.3-3,0.9-4.2
		c0.6-1.2,1.5-2.2,2.6-2.9s2.3-1,3.7-1c2.2,0,3.8,0.7,5,2.1s1.8,3.3,1.8,5.8v1.4h-10.4c0.1,1.3,0.5,2.3,1.3,3.1s1.7,1.1,2.9,1.1
		c1.6,0,3-0.7,4-2l1.9,1.8c-0.6,0.9-1.5,1.7-2.5,2.2C791.6,901.5,790.5,901.8,789.1,901.8z M788.7,888.2c-1,0-1.8,0.3-2.4,1
		s-1,1.6-1.2,2.9h6.8v-0.3c-0.1-1.2-0.4-2.1-1-2.7C790.5,888.5,789.7,888.2,788.7,888.2z"/>
	<path class="st4" d="M812.2,896.6l2.5-10.9h3.5l-4.3,15.8h-2.9l-3.4-10.9l-3.3,10.9h-2.9l-4.3-15.8h3.5l2.6,10.8l3.3-10.8h2.7
		L812.2,896.6z"/>
	<path class="st4" d="M830,901.5c-0.2-0.3-0.3-0.8-0.4-1.5c-1.1,1.2-2.5,1.8-4.2,1.8c-1.6,0-2.9-0.5-3.9-1.4s-1.5-2-1.5-3.4
		c0-1.7,0.6-3,1.9-3.9c1.3-0.9,3-1.4,5.4-1.4h2.2v-1c0-0.8-0.2-1.5-0.7-2c-0.5-0.5-1.2-0.7-2.1-0.7c-0.8,0-1.5,0.2-2,0.6
		s-0.8,0.9-0.8,1.5h-3.6c0-0.9,0.3-1.7,0.9-2.4c0.6-0.8,1.4-1.3,2.4-1.8c1-0.4,2.1-0.6,3.3-0.6c1.9,0,3.3,0.5,4.4,1.4
		c1.1,0.9,1.7,2.2,1.7,3.9v7.1c0,1.4,0.2,2.6,0.6,3.4v0.2H830z M826.1,898.9c0.7,0,1.4-0.2,2-0.5s1.1-0.8,1.4-1.4v-3h-1.9
		c-1.3,0-2.3,0.2-3,0.7s-1,1.1-1,1.9c0,0.7,0.2,1.2,0.7,1.6C824.7,898.7,825.4,898.9,826.1,898.9z"/>
	<path class="st4" d="M840.6,901.5H837V879h3.6V901.5z"/>
	<path class="st4" d="M851.3,893.4c0-1.6,0.3-3,0.9-4.2c0.6-1.2,1.5-2.2,2.6-2.9s2.4-1,3.8-1c2.1,0,3.9,0.7,5.2,2.1
		c1.3,1.4,2.1,3.2,2.2,5.5l0,0.8c0,1.6-0.3,3-0.9,4.2c-0.6,1.2-1.5,2.2-2.6,2.9s-2.4,1-3.9,1c-2.2,0-4-0.7-5.4-2.2
		c-1.3-1.5-2-3.5-2-6V893.4z M854.8,893.7c0,1.6,0.3,2.9,1,3.8c0.7,0.9,1.6,1.4,2.8,1.4s2.1-0.5,2.8-1.4c0.7-0.9,1-2.3,1-4.1
		c0-1.6-0.3-2.9-1-3.8c-0.7-0.9-1.6-1.4-2.8-1.4c-1.2,0-2.1,0.5-2.8,1.4C855.2,890.5,854.8,891.9,854.8,893.7z"/>
	<path class="st4" d="M870.2,901.5v-13.2h-2.4v-2.6h2.4v-1.5c0-1.8,0.5-3.1,1.5-4.1s2.3-1.4,4.1-1.4c0.6,0,1.3,0.1,2,0.3l-0.1,2.8
		c-0.4-0.1-0.8-0.1-1.4-0.1c-1.7,0-2.5,0.9-2.5,2.6v1.4h3.2v2.6h-3.2v13.2H870.2z"/>
	<path class="st4" d="M894.1,901.8c-2.3,0-4.1-0.7-5.5-2.1c-1.4-1.4-2.1-3.3-2.1-5.7v-0.4c0-1.6,0.3-3,0.9-4.2
		c0.6-1.2,1.5-2.2,2.6-2.9s2.3-1,3.7-1c2.2,0,3.8,0.7,5,2.1c1.2,1.4,1.8,3.3,1.8,5.8v1.4h-10.4c0.1,1.3,0.5,2.3,1.3,3.1
		s1.7,1.1,2.9,1.1c1.6,0,3-0.7,4-2l1.9,1.8c-0.6,0.9-1.5,1.7-2.5,2.2C896.6,901.5,895.4,901.8,894.1,901.8z M893.7,888.2
		c-1,0-1.8,0.3-2.4,1c-0.6,0.7-1,1.6-1.2,2.9h6.8v-0.3c-0.1-1.2-0.4-2.1-1-2.7C895.4,888.5,894.6,888.2,893.7,888.2z"/>
	<path class="st4" d="M908.9,890.9l3-5.2h4l-4.8,7.8l5,8h-3.9l-3.2-5.4l-3.1,5.4h-4l5-8l-4.8-7.8h3.9L908.9,890.9z"/>
	<path class="st4" d="M918.3,881.5c0-0.5,0.2-1,0.5-1.4c0.3-0.4,0.8-0.5,1.5-0.5s1.1,0.2,1.5,0.5s0.5,0.8,0.5,1.4
		c0,0.5-0.2,1-0.5,1.3s-0.8,0.5-1.5,0.5s-1.1-0.2-1.5-0.5C918.5,882.5,918.3,882.1,918.3,881.5z M922.1,901.5h-3.6v-15.8h3.6V901.5z
		"/>
	<path class="st4" d="M934.8,897.2c0-0.6-0.3-1.1-0.8-1.5s-1.4-0.6-2.6-0.9s-2.2-0.6-3-1c-1.8-0.9-2.7-2.1-2.7-3.7
		c0-1.4,0.6-2.5,1.7-3.4s2.6-1.4,4.4-1.4c1.9,0,3.4,0.5,4.6,1.4c1.2,0.9,1.8,2.2,1.8,3.6h-3.6c0-0.7-0.3-1.3-0.8-1.7
		c-0.5-0.5-1.2-0.7-2-0.7c-0.8,0-1.4,0.2-1.9,0.5c-0.5,0.4-0.7,0.8-0.7,1.5c0,0.5,0.2,1,0.7,1.3s1.4,0.6,2.8,0.9
		c1.4,0.3,2.5,0.7,3.3,1.1c0.8,0.4,1.4,0.9,1.8,1.5c0.4,0.6,0.6,1.3,0.6,2.2c0,1.4-0.6,2.6-1.8,3.5c-1.2,0.9-2.7,1.3-4.6,1.3
		c-1.3,0-2.5-0.2-3.5-0.7s-1.8-1.1-2.4-1.9s-0.8-1.7-0.8-2.7h3.5c0,0.8,0.4,1.5,1,1.9c0.6,0.5,1.4,0.7,2.3,0.7
		c0.9,0,1.7-0.2,2.1-0.5C934.6,898.2,934.8,897.8,934.8,897.2z"/>
	<path class="st4" d="M945.9,881.8v3.9h2.8v2.6h-2.8v8.8c0,0.6,0.1,1,0.4,1.3c0.2,0.3,0.7,0.4,1.3,0.4c0.4,0,0.8,0,1.2-0.1v2.8
		c-0.8,0.2-1.6,0.3-2.3,0.3c-2.7,0-4.1-1.5-4.1-4.5v-9h-2.6v-2.6h2.6v-3.9H945.9z"/>
	<path class="st4" d="M951.4,881.5c0-0.5,0.2-1,0.5-1.4c0.3-0.4,0.8-0.5,1.5-0.5s1.1,0.2,1.5,0.5s0.5,0.8,0.5,1.4
		c0,0.5-0.2,1-0.5,1.3s-0.8,0.5-1.5,0.5s-1.1-0.2-1.5-0.5C951.6,882.5,951.4,882.1,951.4,881.5z M955.2,901.5h-3.6v-15.8h3.6V901.5z
		"/>
	<path class="st4" d="M962.4,885.7l0.1,1.8c1.2-1.4,2.7-2.1,4.6-2.1c3.3,0,5,1.9,5,5.7v10.5h-3.6v-10.3c0-1-0.2-1.8-0.7-2.2
		c-0.4-0.5-1.1-0.7-2.1-0.7c-1.4,0-2.5,0.6-3.2,1.9v11.3H959v-15.8H962.4z"/>
	<path class="st4" d="M975.1,893.5c0-2.5,0.6-4.4,1.7-5.9c1.2-1.5,2.7-2.2,4.6-2.2c1.8,0,3.2,0.6,4.3,1.9l0.2-1.6h3.2V901
		c0,2.1-0.6,3.7-1.9,4.9s-3,1.8-5.2,1.8c-1.2,0-2.3-0.2-3.4-0.7c-1.1-0.5-2-1.1-2.5-1.9l1.7-2.1c1.1,1.3,2.4,1.9,4,1.9
		c1.2,0,2.1-0.3,2.8-1c0.7-0.6,1-1.6,1-2.8v-1.1c-1,1.1-2.4,1.7-4.1,1.7c-1.9,0-3.4-0.7-4.5-2.2
		C975.7,898.1,975.1,896.1,975.1,893.5z M978.7,893.8c0,1.6,0.3,2.8,1,3.8c0.6,0.9,1.5,1.4,2.7,1.4c1.4,0,2.5-0.6,3.2-1.8v-7
		c-0.7-1.2-1.7-1.8-3.2-1.8c-1.2,0-2.1,0.5-2.7,1.4C979,890.6,978.7,892,978.7,893.8z"/>
	<path class="st4" d="M1009.8,899.9c-1,1.2-2.5,1.8-4.5,1.8c-1.7,0-3-0.5-3.9-1.5s-1.3-2.5-1.3-4.4v-10.3h3.6v10.2c0,2,0.8,3,2.5,3
		c1.7,0,2.9-0.6,3.5-1.9v-11.4h3.6v15.8h-3.4L1009.8,899.9z"/>
	<path class="st4" d="M1020.2,885.7l0.1,1.8c1.2-1.4,2.7-2.1,4.6-2.1c3.3,0,5,1.9,5,5.7v10.5h-3.6v-10.3c0-1-0.2-1.8-0.7-2.2
		c-0.4-0.5-1.1-0.7-2.1-0.7c-1.4,0-2.5,0.6-3.2,1.9v11.3h-3.6v-15.8H1020.2z"/>
	<path class="st4" d="M1033.6,881.5c0-0.5,0.2-1,0.5-1.4c0.3-0.4,0.8-0.5,1.5-0.5s1.1,0.2,1.5,0.5s0.5,0.8,0.5,1.4
		c0,0.5-0.2,1-0.5,1.3s-0.8,0.5-1.5,0.5s-1.1-0.2-1.5-0.5C1033.8,882.5,1033.6,882.1,1033.6,881.5z M1037.4,901.5h-3.6v-15.8h3.6
		V901.5z"/>
	<path class="st4" d="M1045.7,881.8v3.9h2.8v2.6h-2.8v8.8c0,0.6,0.1,1,0.4,1.3c0.2,0.3,0.7,0.4,1.3,0.4c0.4,0,0.8,0,1.2-0.1v2.8
		c-0.8,0.2-1.6,0.3-2.3,0.3c-2.7,0-4.1-1.5-4.1-4.5v-9h-2.6v-2.6h2.6v-3.9H1045.7z"/>
	<path class="st4" d="M773.5,934.8c-2.3,0-4.1-0.7-5.5-2.1c-1.4-1.4-2.1-3.3-2.1-5.7v-0.4c0-1.6,0.3-3,0.9-4.2
		c0.6-1.2,1.5-2.2,2.6-2.9s2.3-1,3.7-1c2.2,0,3.8,0.7,5,2.1s1.8,3.3,1.8,5.8v1.4h-10.4c0.1,1.3,0.5,2.3,1.3,3.1s1.7,1.1,2.9,1.1
		c1.6,0,3-0.7,4-2l1.9,1.8c-0.6,0.9-1.5,1.7-2.5,2.2C776.1,934.5,774.9,934.8,773.5,934.8z M773.1,921.2c-1,0-1.8,0.3-2.4,1
		s-1,1.6-1.2,2.9h6.8v-0.3c-0.1-1.2-0.4-2.1-1-2.7C774.9,921.5,774.1,921.2,773.1,921.2z"/>
	<path class="st4" d="M786,918.7l0.1,1.8c1.2-1.4,2.7-2.1,4.6-2.1c3.3,0,5,1.9,5,5.7v10.5h-3.6v-10.3c0-1-0.2-1.8-0.7-2.2
		c-0.4-0.5-1.1-0.7-2.1-0.7c-1.4,0-2.5,0.6-3.2,1.9v11.3h-3.6v-15.8H786z"/>
	<path class="st4" d="M798.7,926.5c0-2.4,0.6-4.4,1.7-5.9c1.1-1.5,2.7-2.2,4.6-2.2c1.7,0,3,0.6,4.1,1.8V912h3.6v22.5h-3.2l-0.2-1.6
		c-1.1,1.3-2.5,1.9-4.3,1.9c-1.9,0-3.4-0.7-4.5-2.2S798.7,929,798.7,926.5z M802.2,926.8c0,1.6,0.3,2.9,0.9,3.8
		c0.6,0.9,1.5,1.4,2.6,1.4c1.5,0,2.5-0.6,3.2-1.9v-6.8c-0.7-1.3-1.7-1.9-3.2-1.9c-1.2,0-2,0.5-2.7,1.4S802.2,924.9,802.2,926.8z"/>
	<path class="st4" d="M815.6,926.4c0-1.6,0.3-3,0.9-4.2c0.6-1.2,1.5-2.2,2.6-2.9s2.4-1,3.8-1c2.1,0,3.9,0.7,5.2,2.1
		c1.3,1.4,2.1,3.2,2.2,5.5l0,0.8c0,1.6-0.3,3-0.9,4.2c-0.6,1.2-1.5,2.2-2.6,2.9s-2.4,1-3.9,1c-2.2,0-4-0.7-5.4-2.2
		c-1.3-1.5-2-3.5-2-6V926.4z M819.2,926.7c0,1.6,0.3,2.9,1,3.8c0.7,0.9,1.6,1.4,2.8,1.4s2.1-0.5,2.8-1.4c0.7-0.9,1-2.3,1-4.1
		c0-1.6-0.3-2.9-1-3.8c-0.7-0.9-1.6-1.4-2.8-1.4c-1.2,0-2.1,0.5-2.8,1.4C819.5,923.5,819.2,924.9,819.2,926.7z"/>
	<path class="st4" d="M841.7,921.9c-0.5-0.1-1-0.1-1.5-0.1c-1.6,0-2.7,0.6-3.3,1.9v10.8h-3.6v-15.8h3.4l0.1,1.8
		c0.9-1.4,2.1-2.1,3.6-2.1c0.5,0,0.9,0.1,1.3,0.2L841.7,921.9z"/>
	<path class="st4" d="M852.8,930.2c0-0.6-0.3-1.1-0.8-1.5s-1.4-0.6-2.6-0.9s-2.2-0.6-3-1c-1.8-0.9-2.7-2.1-2.7-3.7
		c0-1.4,0.6-2.5,1.7-3.4s2.6-1.4,4.4-1.4c1.9,0,3.4,0.5,4.6,1.4c1.2,0.9,1.8,2.2,1.8,3.6h-3.6c0-0.7-0.3-1.3-0.8-1.7
		c-0.5-0.5-1.2-0.7-2-0.7c-0.8,0-1.4,0.2-1.9,0.5c-0.5,0.4-0.7,0.8-0.7,1.5c0,0.5,0.2,1,0.7,1.3s1.4,0.6,2.8,0.9
		c1.4,0.3,2.5,0.7,3.3,1.1c0.8,0.4,1.4,0.9,1.8,1.5c0.4,0.6,0.6,1.3,0.6,2.2c0,1.4-0.6,2.6-1.8,3.5c-1.2,0.9-2.7,1.3-4.6,1.3
		c-1.3,0-2.5-0.2-3.5-0.7s-1.8-1.1-2.4-1.9s-0.8-1.7-0.8-2.7h3.5c0,0.8,0.4,1.5,1,1.9c0.6,0.5,1.4,0.7,2.3,0.7
		c0.9,0,1.7-0.2,2.1-0.5C852.6,931.2,852.8,930.8,852.8,930.2z"/>
	<path class="st4" d="M866.4,934.8c-2.3,0-4.1-0.7-5.5-2.1c-1.4-1.4-2.1-3.3-2.1-5.7v-0.4c0-1.6,0.3-3,0.9-4.2
		c0.6-1.2,1.5-2.2,2.6-2.9s2.3-1,3.7-1c2.2,0,3.8,0.7,5,2.1c1.2,1.4,1.8,3.3,1.8,5.8v1.4h-10.4c0.1,1.3,0.5,2.3,1.3,3.1
		s1.7,1.1,2.9,1.1c1.6,0,3-0.7,4-2l1.9,1.8c-0.6,0.9-1.5,1.7-2.5,2.2C868.9,934.5,867.7,934.8,866.4,934.8z M866,921.2
		c-1,0-1.8,0.3-2.4,1c-0.6,0.7-1,1.6-1.2,2.9h6.8v-0.3c-0.1-1.2-0.4-2.1-1-2.7C867.7,921.5,866.9,921.2,866,921.2z"/>
	<path class="st4" d="M878.8,918.7l0.1,1.7c1.1-1.3,2.6-1.9,4.6-1.9c2.1,0,3.6,0.8,4.4,2.4c1.2-1.6,2.8-2.4,4.9-2.4
		c1.7,0,3,0.5,3.9,1.5s1.3,2.4,1.3,4.3v10.4h-3.6v-10.3c0-1-0.2-1.7-0.7-2.2s-1.2-0.7-2.2-0.7c-0.8,0-1.5,0.2-2,0.7
		c-0.5,0.4-0.9,1-1.1,1.7l0,10.9h-3.6v-10.4c0-1.9-1-2.8-2.9-2.8c-1.4,0-2.4,0.6-3,1.7v11.5h-3.6v-15.8H878.8z"/>
	<path class="st4" d="M908.6,934.8c-2.3,0-4.1-0.7-5.5-2.1c-1.4-1.4-2.1-3.3-2.1-5.7v-0.4c0-1.6,0.3-3,0.9-4.2
		c0.6-1.2,1.5-2.2,2.6-2.9s2.3-1,3.7-1c2.2,0,3.8,0.7,5,2.1c1.2,1.4,1.8,3.3,1.8,5.8v1.4h-10.4c0.1,1.3,0.5,2.3,1.3,3.1
		s1.7,1.1,2.9,1.1c1.6,0,3-0.7,4-2l1.9,1.8c-0.6,0.9-1.5,1.7-2.5,2.2C911.1,934.5,909.9,934.8,908.6,934.8z M908.2,921.2
		c-1,0-1.8,0.3-2.4,1c-0.6,0.7-1,1.6-1.2,2.9h6.8v-0.3c-0.1-1.2-0.4-2.1-1-2.7C909.9,921.5,909.1,921.2,908.2,921.2z"/>
	<path class="st4" d="M921,918.7l0.1,1.8c1.2-1.4,2.7-2.1,4.6-2.1c3.3,0,5,1.9,5,5.7v10.5h-3.6v-10.3c0-1-0.2-1.8-0.7-2.2
		c-0.4-0.5-1.1-0.7-2.1-0.7c-1.4,0-2.5,0.6-3.2,1.9v11.3h-3.6v-15.8H921z"/>
	<path class="st4" d="M938.8,914.8v3.9h2.8v2.6h-2.8v8.8c0,0.6,0.1,1,0.4,1.3c0.2,0.3,0.7,0.4,1.3,0.4c0.4,0,0.8,0,1.2-0.1v2.8
		c-0.8,0.2-1.6,0.3-2.3,0.3c-2.7,0-4.1-1.5-4.1-4.5v-9h-2.6v-2.6h2.6v-3.9H938.8z"/>
	<path class="st4" d="M961.3,934.5c-0.2-0.3-0.3-0.8-0.4-1.5c-1.1,1.2-2.5,1.8-4.2,1.8c-1.6,0-2.9-0.5-3.9-1.4s-1.5-2-1.5-3.4
		c0-1.7,0.6-3,1.9-3.9c1.3-0.9,3-1.4,5.4-1.4h2.2v-1c0-0.8-0.2-1.5-0.7-2c-0.5-0.5-1.2-0.7-2.1-0.7c-0.8,0-1.5,0.2-2,0.6
		s-0.8,0.9-0.8,1.5h-3.6c0-0.9,0.3-1.7,0.9-2.4c0.6-0.8,1.4-1.3,2.4-1.8c1-0.4,2.1-0.6,3.3-0.6c1.9,0,3.3,0.5,4.4,1.4
		c1.1,0.9,1.7,2.2,1.7,3.9v7.1c0,1.4,0.2,2.6,0.6,3.4v0.2H961.3z M957.4,931.9c0.7,0,1.4-0.2,2-0.5s1.1-0.8,1.4-1.4v-3h-1.9
		c-1.3,0-2.3,0.2-3,0.7s-1,1.1-1,1.9c0,0.7,0.2,1.2,0.7,1.6C956,931.7,956.6,931.9,957.4,931.9z"/>
	<path class="st4" d="M969.3,934.5v-13.2h-2.4v-2.6h2.4v-1.5c0-1.8,0.5-3.1,1.5-4.1s2.3-1.4,4.1-1.4c0.6,0,1.3,0.1,2,0.3l-0.1,2.8
		c-0.4-0.1-0.8-0.1-1.4-0.1c-1.7,0-2.5,0.9-2.5,2.6v1.4h3.2v2.6h-3.2v13.2H969.3z"/>
	<path class="st4" d="M983.2,914.8v3.9h2.8v2.6h-2.8v8.8c0,0.6,0.1,1,0.4,1.3c0.2,0.3,0.7,0.4,1.3,0.4c0.4,0,0.8,0,1.2-0.1v2.8
		c-0.8,0.2-1.6,0.3-2.3,0.3c-2.7,0-4.1-1.5-4.1-4.5v-9H977v-2.6h2.6v-3.9H983.2z"/>
	<path class="st4" d="M995.6,934.8c-2.3,0-4.1-0.7-5.5-2.1c-1.4-1.4-2.1-3.3-2.1-5.7v-0.4c0-1.6,0.3-3,0.9-4.2
		c0.6-1.2,1.5-2.2,2.6-2.9s2.3-1,3.7-1c2.2,0,3.8,0.7,5,2.1c1.2,1.4,1.8,3.3,1.8,5.8v1.4h-10.4c0.1,1.3,0.5,2.3,1.3,3.1
		s1.7,1.1,2.9,1.1c1.6,0,3-0.7,4-2l1.9,1.8c-0.6,0.9-1.5,1.7-2.5,2.2C998.2,934.5,997,934.8,995.6,934.8z M995.2,921.2
		c-1,0-1.8,0.3-2.4,1c-0.6,0.7-1,1.6-1.2,2.9h6.8v-0.3c-0.1-1.2-0.4-2.1-1-2.7C997,921.5,996.2,921.2,995.2,921.2z"/>
	<path class="st4" d="M1013.1,921.9c-0.5-0.1-1-0.1-1.5-0.1c-1.6,0-2.7,0.6-3.3,1.9v10.8h-3.6v-15.8h3.4l0.1,1.8
		c0.9-1.4,2.1-2.1,3.6-2.1c0.5,0,0.9,0.1,1.3,0.2L1013.1,921.9z"/>
	<path class="st4" d="M766.7,967.8c-2.3,0-4.1-0.7-5.5-2.1c-1.4-1.4-2.1-3.3-2.1-5.7v-0.4c0-1.6,0.3-3,0.9-4.2
		c0.6-1.2,1.5-2.2,2.6-2.9s2.3-1,3.7-1c2.2,0,3.8,0.7,5,2.1s1.8,3.3,1.8,5.8v1.4h-10.4c0.1,1.3,0.5,2.3,1.3,3.1s1.7,1.1,2.9,1.1
		c1.6,0,3-0.7,4-2l1.9,1.8c-0.6,0.9-1.5,1.7-2.5,2.2C769.3,967.5,768.1,967.8,766.7,967.8z M766.3,954.2c-1,0-1.8,0.3-2.4,1
		s-1,1.6-1.2,2.9h6.8v-0.3c-0.1-1.2-0.4-2.1-1-2.7C768.1,954.5,767.3,954.2,766.3,954.2z"/>
	<path class="st4" d="M781.6,956.9l3-5.2h4l-4.8,7.8l5,8h-3.9l-3.2-5.4l-3.1,5.4h-4l5-8l-4.8-7.8h3.9L781.6,956.9z"/>
	<path class="st4" d="M804.8,959.7c0,2.5-0.6,4.4-1.7,5.9s-2.6,2.2-4.5,2.2c-1.7,0-3.1-0.6-4.2-1.7v7.5h-3.6v-21.9h3.3l0.1,1.6
		c1-1.3,2.5-1.9,4.3-1.9c1.9,0,3.5,0.7,4.5,2.2c1.1,1.4,1.6,3.4,1.6,6V959.7z M801.3,959.4c0-1.6-0.3-2.8-0.9-3.8s-1.5-1.4-2.7-1.4
		c-1.5,0-2.5,0.6-3.1,1.8v7c0.6,1.2,1.7,1.8,3.2,1.8c1.1,0,2-0.5,2.7-1.4S801.3,961.3,801.3,959.4z"/>
	<path class="st4" d="M807.8,947.5c0-0.5,0.2-1,0.5-1.4s0.8-0.5,1.5-0.5s1.1,0.2,1.5,0.5s0.5,0.8,0.5,1.4c0,0.5-0.2,1-0.5,1.3
		s-0.8,0.5-1.5,0.5s-1.1-0.2-1.5-0.5S807.8,948.1,807.8,947.5z M811.6,967.5h-3.6v-15.8h3.6V967.5z"/>
	<path class="st4" d="M823.8,954.9c-0.5-0.1-1-0.1-1.5-0.1c-1.6,0-2.7,0.6-3.3,1.9v10.8h-3.6v-15.8h3.4l0.1,1.8
		c0.9-1.4,2.1-2.1,3.6-2.1c0.5,0,0.9,0.1,1.3,0.2L823.8,954.9z"/>
	<path class="st4" d="M832.7,967.8c-2.3,0-4.1-0.7-5.5-2.1c-1.4-1.4-2.1-3.3-2.1-5.7v-0.4c0-1.6,0.3-3,0.9-4.2
		c0.6-1.2,1.5-2.2,2.6-2.9s2.3-1,3.7-1c2.2,0,3.8,0.7,5,2.1c1.2,1.4,1.8,3.3,1.8,5.8v1.4h-10.4c0.1,1.3,0.5,2.3,1.3,3.1
		s1.7,1.1,2.9,1.1c1.6,0,3-0.7,4-2l1.9,1.8c-0.6,0.9-1.5,1.7-2.5,2.2C835.3,967.5,834.1,967.8,832.7,967.8z M832.3,954.2
		c-1,0-1.8,0.3-2.4,1c-0.6,0.7-1,1.6-1.2,2.9h6.8v-0.3c-0.1-1.2-0.4-2.1-1-2.7C834.1,954.5,833.3,954.2,832.3,954.2z"/>
	<path class="st4" d="M847.2,962.4l3.2-10.8h3.8l-6.3,18.3c-1,2.7-2.6,4-4.9,4c-0.5,0-1.1-0.1-1.7-0.3v-2.8l0.7,0
		c0.9,0,1.6-0.2,2-0.5c0.5-0.3,0.8-0.9,1.1-1.6l0.5-1.4l-5.6-15.8h3.8L847.2,962.4z"/>
	<path class="st4" d="M854.3,972.3l-1.9-1.1c0.6-0.9,1-1.7,1.2-2.3c0.2-0.7,0.3-1.3,0.3-2v-2.8h3.2l0,2.6c0,1-0.3,2.1-0.8,3.1
		C855.8,970.8,855.2,971.6,854.3,972.3z"/>
	<path class="st4" d="M876.8,963.2c0-0.6-0.3-1.1-0.8-1.5s-1.4-0.6-2.6-0.9s-2.2-0.6-3-1c-1.8-0.9-2.7-2.1-2.7-3.7
		c0-1.4,0.6-2.5,1.7-3.4s2.6-1.4,4.4-1.4c1.9,0,3.4,0.5,4.6,1.4c1.2,0.9,1.8,2.2,1.8,3.6h-3.6c0-0.7-0.3-1.3-0.8-1.7
		c-0.5-0.5-1.2-0.7-2-0.7c-0.8,0-1.4,0.2-1.9,0.5c-0.5,0.4-0.7,0.8-0.7,1.5c0,0.5,0.2,1,0.7,1.3s1.4,0.6,2.8,0.9
		c1.4,0.3,2.5,0.7,3.3,1.1c0.8,0.4,1.4,0.9,1.8,1.5c0.4,0.6,0.6,1.3,0.6,2.2c0,1.4-0.6,2.6-1.8,3.5c-1.2,0.9-2.7,1.3-4.6,1.3
		c-1.3,0-2.5-0.2-3.5-0.7s-1.8-1.1-2.4-1.9s-0.8-1.7-0.8-2.7h3.5c0,0.8,0.4,1.5,1,1.9c0.6,0.5,1.4,0.7,2.3,0.7
		c0.9,0,1.7-0.2,2.1-0.5C876.5,964.2,876.8,963.8,876.8,963.2z"/>
	<path class="st4" d="M893,965.9c-1,1.2-2.5,1.8-4.5,1.8c-1.7,0-3-0.5-3.9-1.5s-1.3-2.5-1.3-4.4v-10.3h3.6v10.2c0,2,0.8,3,2.5,3
		c1.7,0,2.9-0.6,3.5-1.9v-11.4h3.6v15.8h-3.4L893,965.9z"/>
	<path class="st4" d="M908.9,963.2c0-0.6-0.3-1.1-0.8-1.5s-1.4-0.6-2.6-0.9s-2.2-0.6-3-1c-1.8-0.9-2.7-2.1-2.7-3.7
		c0-1.4,0.6-2.5,1.7-3.4s2.6-1.4,4.4-1.4c1.9,0,3.4,0.5,4.6,1.4c1.2,0.9,1.8,2.2,1.8,3.6h-3.6c0-0.7-0.3-1.3-0.8-1.7
		c-0.5-0.5-1.2-0.7-2-0.7c-0.8,0-1.4,0.2-1.9,0.5c-0.5,0.4-0.7,0.8-0.7,1.5c0,0.5,0.2,1,0.7,1.3s1.4,0.6,2.8,0.9
		c1.4,0.3,2.5,0.7,3.3,1.1c0.8,0.4,1.4,0.9,1.8,1.5c0.4,0.6,0.6,1.3,0.6,2.2c0,1.4-0.6,2.6-1.8,3.5c-1.2,0.9-2.7,1.3-4.6,1.3
		c-1.3,0-2.5-0.2-3.5-0.7s-1.8-1.1-2.4-1.9s-0.8-1.7-0.8-2.7h3.5c0,0.8,0.4,1.5,1,1.9c0.6,0.5,1.4,0.7,2.3,0.7
		c0.9,0,1.7-0.2,2.1-0.5C908.7,964.2,908.9,963.8,908.9,963.2z"/>
	<path class="st4" d="M929.4,959.7c0,2.5-0.6,4.4-1.7,5.9s-2.6,2.2-4.5,2.2c-1.7,0-3.1-0.6-4.2-1.7v7.5h-3.6v-21.9h3.3l0.1,1.6
		c1-1.3,2.5-1.9,4.3-1.9c1.9,0,3.5,0.7,4.5,2.2c1.1,1.4,1.6,3.4,1.6,6V959.7z M925.9,959.4c0-1.6-0.3-2.8-0.9-3.8
		c-0.6-0.9-1.5-1.4-2.7-1.4c-1.5,0-2.5,0.6-3.1,1.8v7c0.6,1.2,1.7,1.8,3.2,1.8c1.1,0,2-0.5,2.7-1.4
		C925.5,962.7,925.9,961.3,925.9,959.4z"/>
	<path class="st4" d="M939.4,967.8c-2.3,0-4.1-0.7-5.5-2.1c-1.4-1.4-2.1-3.3-2.1-5.7v-0.4c0-1.6,0.3-3,0.9-4.2
		c0.6-1.2,1.5-2.2,2.6-2.9s2.3-1,3.7-1c2.2,0,3.8,0.7,5,2.1c1.2,1.4,1.8,3.3,1.8,5.8v1.4h-10.4c0.1,1.3,0.5,2.3,1.3,3.1
		s1.7,1.1,2.9,1.1c1.6,0,3-0.7,4-2l1.9,1.8c-0.6,0.9-1.5,1.7-2.5,2.2C941.9,967.5,940.7,967.8,939.4,967.8z M939,954.2
		c-1,0-1.8,0.3-2.4,1c-0.6,0.7-1,1.6-1.2,2.9h6.8v-0.3c-0.1-1.2-0.4-2.1-1-2.7C940.7,954.5,940,954.2,939,954.2z"/>
	<path class="st4" d="M951.8,951.7l0.1,1.8c1.2-1.4,2.7-2.1,4.6-2.1c3.3,0,5,1.9,5,5.7v10.5H958v-10.3c0-1-0.2-1.8-0.7-2.2
		c-0.4-0.5-1.1-0.7-2.1-0.7c-1.4,0-2.5,0.6-3.2,1.9v11.3h-3.6v-15.8H951.8z"/>
	<path class="st4" d="M974.1,963.2c0-0.6-0.3-1.1-0.8-1.5s-1.4-0.6-2.6-0.9s-2.2-0.6-3-1c-1.8-0.9-2.7-2.1-2.7-3.7
		c0-1.4,0.6-2.5,1.7-3.4s2.6-1.4,4.4-1.4c1.9,0,3.4,0.5,4.6,1.4c1.2,0.9,1.8,2.2,1.8,3.6h-3.6c0-0.7-0.3-1.3-0.8-1.7
		c-0.5-0.5-1.2-0.7-2-0.7c-0.8,0-1.4,0.2-1.9,0.5c-0.5,0.4-0.7,0.8-0.7,1.5c0,0.5,0.2,1,0.7,1.3s1.4,0.6,2.8,0.9
		c1.4,0.3,2.5,0.7,3.3,1.1c0.8,0.4,1.4,0.9,1.8,1.5c0.4,0.6,0.6,1.3,0.6,2.2c0,1.4-0.6,2.6-1.8,3.5c-1.2,0.9-2.7,1.3-4.6,1.3
		c-1.3,0-2.5-0.2-3.5-0.7s-1.8-1.1-2.4-1.9s-0.8-1.7-0.8-2.7h3.5c0,0.8,0.4,1.5,1,1.9c0.6,0.5,1.4,0.7,2.3,0.7
		c0.9,0,1.7-0.2,2.1-0.5C973.8,964.2,974.1,963.8,974.1,963.2z"/>
	<path class="st4" d="M980.7,947.5c0-0.5,0.2-1,0.5-1.4c0.3-0.4,0.8-0.5,1.5-0.5s1.1,0.2,1.5,0.5s0.5,0.8,0.5,1.4
		c0,0.5-0.2,1-0.5,1.3s-0.8,0.5-1.5,0.5s-1.1-0.2-1.5-0.5C980.9,948.5,980.7,948.1,980.7,947.5z M984.5,967.5h-3.6v-15.8h3.6V967.5z
		"/>
	<path class="st4" d="M987.7,959.4c0-1.6,0.3-3,0.9-4.2c0.6-1.2,1.5-2.2,2.6-2.9s2.4-1,3.8-1c2.1,0,3.9,0.7,5.2,2.1
		c1.3,1.4,2.1,3.2,2.2,5.5l0,0.8c0,1.6-0.3,3-0.9,4.2c-0.6,1.2-1.5,2.2-2.6,2.9s-2.4,1-3.9,1c-2.2,0-4-0.7-5.4-2.2
		c-1.3-1.5-2-3.5-2-6V959.4z M991.2,959.7c0,1.6,0.3,2.9,1,3.8c0.7,0.9,1.6,1.4,2.8,1.4s2.1-0.5,2.8-1.4c0.7-0.9,1-2.3,1-4.1
		c0-1.6-0.3-2.9-1-3.8c-0.7-0.9-1.6-1.4-2.8-1.4c-1.2,0-2.1,0.5-2.8,1.4C991.6,956.5,991.2,957.9,991.2,959.7z"/>
	<path class="st4" d="M1008.7,951.7l0.1,1.8c1.2-1.4,2.7-2.1,4.6-2.1c3.3,0,5,1.9,5,5.7v10.5h-3.6v-10.3c0-1-0.2-1.8-0.7-2.2
		c-0.4-0.5-1.1-0.7-2.1-0.7c-1.4,0-2.5,0.6-3.2,1.9v11.3h-3.6v-15.8H1008.7z"/>
	<path class="st4" d="M788.8,992.4c0-1.6,0.3-3,0.9-4.2c0.6-1.2,1.5-2.2,2.6-2.9s2.4-1,3.8-1c2.1,0,3.9,0.7,5.2,2.1s2.1,3.2,2.2,5.5
		l0,0.8c0,1.6-0.3,3-0.9,4.2s-1.5,2.2-2.6,2.9s-2.4,1-3.9,1c-2.2,0-4-0.7-5.4-2.2c-1.3-1.5-2-3.5-2-6V992.4z M792.4,992.7
		c0,1.6,0.3,2.9,1,3.8c0.7,0.9,1.6,1.4,2.8,1.4s2.1-0.5,2.8-1.4s1-2.3,1-4.1c0-1.6-0.3-2.9-1-3.8s-1.6-1.4-2.8-1.4
		c-1.2,0-2.1,0.5-2.8,1.4C792.7,989.5,792.4,990.9,792.4,992.7z"/>
	<path class="st4" d="M814.9,987.9c-0.5-0.1-1-0.1-1.5-0.1c-1.6,0-2.7,0.6-3.3,1.9v10.8h-3.6v-15.8h3.4l0.1,1.8
		c0.9-1.4,2.1-2.1,3.6-2.1c0.5,0,0.9,0.1,1.3,0.2L814.9,987.9z"/>
	<path class="st4" d="M838.5,995.6l2.5-10.9h3.5l-4.3,15.8h-2.9l-3.4-10.9l-3.3,10.9h-2.9l-4.3-15.8h3.5l2.6,10.8l3.3-10.8h2.7
		L838.5,995.6z"/>
	<path class="st4" d="M856.4,1000.5c-0.2-0.3-0.3-0.8-0.4-1.5c-1.1,1.2-2.5,1.8-4.2,1.8c-1.6,0-2.9-0.5-3.9-1.4s-1.5-2-1.5-3.4
		c0-1.7,0.6-3,1.9-3.9c1.3-0.9,3-1.4,5.4-1.4h2.2v-1c0-0.8-0.2-1.5-0.7-2c-0.5-0.5-1.2-0.7-2.1-0.7c-0.8,0-1.5,0.2-2,0.6
		s-0.8,0.9-0.8,1.5h-3.6c0-0.9,0.3-1.7,0.9-2.4c0.6-0.8,1.4-1.3,2.4-1.8c1-0.4,2.1-0.6,3.3-0.6c1.9,0,3.3,0.5,4.4,1.4
		c1.1,0.9,1.7,2.2,1.7,3.9v7.1c0,1.4,0.2,2.6,0.6,3.4v0.2H856.4z M852.5,997.9c0.7,0,1.4-0.2,2-0.5s1.1-0.8,1.4-1.4v-3h-1.9
		c-1.3,0-2.3,0.2-3,0.7s-1,1.1-1,1.9c0,0.7,0.2,1.2,0.7,1.6C851.1,997.7,851.7,997.9,852.5,997.9z"/>
	<path class="st4" d="M872,996.2c0-0.6-0.3-1.1-0.8-1.5s-1.4-0.6-2.6-0.9s-2.2-0.6-3-1c-1.8-0.9-2.7-2.1-2.7-3.7
		c0-1.4,0.6-2.5,1.7-3.4s2.6-1.4,4.4-1.4c1.9,0,3.4,0.5,4.6,1.4c1.2,0.9,1.8,2.2,1.8,3.6h-3.6c0-0.7-0.3-1.3-0.8-1.7
		c-0.5-0.5-1.2-0.7-2-0.7c-0.8,0-1.4,0.2-1.9,0.5c-0.5,0.4-0.7,0.8-0.7,1.5c0,0.5,0.2,1,0.7,1.3s1.4,0.6,2.8,0.9
		c1.4,0.3,2.5,0.7,3.3,1.1c0.8,0.4,1.4,0.9,1.8,1.5c0.4,0.6,0.6,1.3,0.6,2.2c0,1.4-0.6,2.6-1.8,3.5c-1.2,0.9-2.7,1.3-4.6,1.3
		c-1.3,0-2.5-0.2-3.5-0.7s-1.8-1.1-2.4-1.9s-0.8-1.7-0.8-2.7h3.5c0,0.8,0.4,1.5,1,1.9c0.6,0.5,1.4,0.7,2.3,0.7
		c0.9,0,1.7-0.2,2.1-0.5C871.8,997.2,872,996.8,872,996.2z"/>
	<path class="st4" d="M894.4,987.9c-0.5-0.1-1-0.1-1.5-0.1c-1.6,0-2.7,0.6-3.3,1.9v10.8h-3.6v-15.8h3.4l0.1,1.8
		c0.9-1.4,2.1-2.1,3.6-2.1c0.5,0,0.9,0.1,1.3,0.2L894.4,987.9z"/>
	<path class="st4" d="M903.3,1000.8c-2.3,0-4.1-0.7-5.5-2.1c-1.4-1.4-2.1-3.3-2.1-5.7v-0.4c0-1.6,0.3-3,0.9-4.2
		c0.6-1.2,1.5-2.2,2.6-2.9s2.3-1,3.7-1c2.2,0,3.8,0.7,5,2.1c1.2,1.4,1.8,3.3,1.8,5.8v1.4h-10.4c0.1,1.3,0.5,2.3,1.3,3.1
		s1.7,1.1,2.9,1.1c1.6,0,3-0.7,4-2l1.9,1.8c-0.6,0.9-1.5,1.7-2.5,2.2C905.8,1000.5,904.7,1000.8,903.3,1000.8z M902.9,987.2
		c-1,0-1.8,0.3-2.4,1c-0.6,0.7-1,1.6-1.2,2.9h6.8v-0.3c-0.1-1.2-0.4-2.1-1-2.7C904.7,987.5,903.9,987.2,902.9,987.2z"/>
	<path class="st4" d="M917.9,996l3.4-11.3h3.7l-5.5,15.8h-3.1l-5.5-15.8h3.7L917.9,996z"/>
	<path class="st4" d="M926.2,992.4c0-1.6,0.3-3,0.9-4.2c0.6-1.2,1.5-2.2,2.6-2.9s2.4-1,3.8-1c2.1,0,3.9,0.7,5.2,2.1
		c1.3,1.4,2.1,3.2,2.2,5.5l0,0.8c0,1.6-0.3,3-0.9,4.2c-0.6,1.2-1.5,2.2-2.6,2.9s-2.4,1-3.9,1c-2.2,0-4-0.7-5.4-2.2
		c-1.3-1.5-2-3.5-2-6V992.4z M929.8,992.7c0,1.6,0.3,2.9,1,3.8c0.7,0.9,1.6,1.4,2.8,1.4s2.1-0.5,2.8-1.4c0.7-0.9,1-2.3,1-4.1
		c0-1.6-0.3-2.9-1-3.8c-0.7-0.9-1.6-1.4-2.8-1.4c-1.2,0-2.1,0.5-2.8,1.4C930.1,989.5,929.8,990.9,929.8,992.7z"/>
	<path class="st4" d="M949.1,993.7l-1.6,1.6v5.2H944V978h3.6v13l1.1-1.4l4.4-4.9h4.3l-5.9,6.6l6.5,9.2h-4.1L949.1,993.7z"/>
	<path class="st4" d="M966.3,1000.8c-2.3,0-4.1-0.7-5.5-2.1c-1.4-1.4-2.1-3.3-2.1-5.7v-0.4c0-1.6,0.3-3,0.9-4.2
		c0.6-1.2,1.5-2.2,2.6-2.9s2.3-1,3.7-1c2.2,0,3.8,0.7,5,2.1c1.2,1.4,1.8,3.3,1.8,5.8v1.4h-10.4c0.1,1.3,0.5,2.3,1.3,3.1
		s1.7,1.1,2.9,1.1c1.6,0,3-0.7,4-2l1.9,1.8c-0.6,0.9-1.5,1.7-2.5,2.2C968.8,1000.5,967.6,1000.8,966.3,1000.8z M965.9,987.2
		c-1,0-1.8,0.3-2.4,1c-0.6,0.7-1,1.6-1.2,2.9h6.8v-0.3c-0.1-1.2-0.4-2.1-1-2.7C967.6,987.5,966.9,987.2,965.9,987.2z"/>
	<path class="st4" d="M974.8,992.5c0-2.4,0.6-4.4,1.7-5.9c1.1-1.5,2.7-2.2,4.6-2.2c1.7,0,3,0.6,4.1,1.8V978h3.6v22.5h-3.2l-0.2-1.6
		c-1.1,1.3-2.5,1.9-4.3,1.9c-1.9,0-3.4-0.7-4.5-2.2C975.3,997.1,974.8,995,974.8,992.5z M978.3,992.8c0,1.6,0.3,2.9,0.9,3.8
		c0.6,0.9,1.5,1.4,2.6,1.4c1.5,0,2.5-0.6,3.2-1.9v-6.8c-0.7-1.3-1.7-1.9-3.2-1.9c-1.2,0-2,0.5-2.7,1.4S978.3,990.9,978.3,992.8z"/>
</g>
<g>
	<path class="st4" d="M202.8,856.4h-8.3l-1.7,5H189l8.1-21.3h3.3l8.1,21.3h-3.9L202.8,856.4z M195.6,853.5h6.2l-3.1-8.8L195.6,853.5
		z"/>
	<path class="st4" d="M224.5,843.1h-6.7v18.3h-3.7v-18.3h-6.6v-3h16.9V843.1z"/>
	<path class="st4" d="M243.2,854.5c-0.2,2.3-1.1,4.1-2.5,5.3c-1.5,1.3-3.4,1.9-5.8,1.9c-1.7,0-3.2-0.4-4.5-1.2c-1.3-0.8-2.3-2-3-3.4
		s-1.1-3.2-1.1-5.2v-2c0-2,0.4-3.8,1.1-5.3s1.7-2.7,3.1-3.5c1.3-0.8,2.9-1.2,4.6-1.2c2.4,0,4.2,0.6,5.7,1.9c1.4,1.3,2.3,3.1,2.5,5.4
		h-3.7c-0.2-1.5-0.6-2.6-1.3-3.3c-0.7-0.7-1.8-1-3.2-1c-1.6,0-2.8,0.6-3.7,1.8c-0.9,1.2-1.3,2.9-1.3,5.2v1.9c0,2.3,0.4,4.1,1.2,5.3
		c0.8,1.2,2,1.8,3.6,1.8c1.5,0,2.5-0.3,3.3-1s1.2-1.7,1.4-3.3H243.2z"/>
	<path class="st4" d="M263.5,851.3c0,2.1-0.4,3.9-1.1,5.5c-0.7,1.6-1.8,2.8-3.1,3.6c-1.3,0.8-2.9,1.3-4.6,1.3
		c-1.7,0-3.3-0.4-4.6-1.3c-1.4-0.8-2.4-2-3.1-3.6c-0.7-1.6-1.1-3.4-1.1-5.4v-1.2c0-2.1,0.4-3.9,1.1-5.5s1.8-2.8,3.1-3.7
		c1.3-0.8,2.9-1.3,4.6-1.3c1.7,0,3.3,0.4,4.6,1.3c1.3,0.8,2.4,2,3.1,3.6c0.7,1.6,1.1,3.4,1.1,5.5V851.3z M259.8,850.2
		c0-2.4-0.4-4.2-1.3-5.4c-0.9-1.3-2.2-1.9-3.8-1.9c-1.6,0-2.9,0.6-3.8,1.9s-1.4,3-1.4,5.3v1.2c0,2.3,0.5,4.2,1.4,5.4
		c0.9,1.3,2.2,1.9,3.8,1.9c1.6,0,2.9-0.6,3.8-1.9c0.9-1.2,1.3-3.1,1.3-5.5V850.2z"/>
	<path class="st4" d="M184.7,897.4h-3.6v-22.5h3.6V897.4z"/>
	<path class="st4" d="M188.6,877.4c0-0.5,0.2-1,0.5-1.4s0.8-0.5,1.5-0.5s1.1,0.2,1.5,0.5s0.5,0.8,0.5,1.4c0,0.5-0.2,1-0.5,1.3
		s-0.8,0.5-1.5,0.5s-1.1-0.2-1.5-0.5S188.6,878,188.6,877.4z M192.3,897.4h-3.6v-15.8h3.6V897.4z"/>
	<path class="st4" d="M202.7,894.9c0.9,0,1.6-0.3,2.2-0.8s0.9-1.2,0.9-1.9h3.4c0,1-0.3,1.9-0.9,2.8s-1.4,1.5-2.3,2s-2.1,0.7-3.2,0.7
		c-2.2,0-4-0.7-5.3-2.2s-1.9-3.4-1.9-5.9v-0.4c0-2.4,0.6-4.3,1.9-5.8c1.3-1.5,3-2.2,5.3-2.2c1.9,0,3.4,0.5,4.6,1.6
		c1.2,1.1,1.8,2.5,1.9,4.3h-3.4c0-0.9-0.3-1.7-0.9-2.2s-1.3-0.9-2.2-0.9c-1.2,0-2,0.4-2.7,1.3c-0.6,0.8-0.9,2.1-1,3.8v0.6
		c0,1.7,0.3,3,0.9,3.8C200.7,894.4,201.6,894.9,202.7,894.9z"/>
	<path class="st4" d="M218.9,897.7c-2.3,0-4.1-0.7-5.5-2.1c-1.4-1.4-2.1-3.3-2.1-5.7v-0.4c0-1.6,0.3-3,0.9-4.2
		c0.6-1.2,1.5-2.2,2.6-2.9s2.3-1,3.7-1c2.2,0,3.8,0.7,5,2.1c1.2,1.4,1.8,3.3,1.8,5.8v1.4h-10.4c0.1,1.3,0.5,2.3,1.3,3.1
		s1.7,1.1,2.9,1.1c1.6,0,3-0.7,4-2l1.9,1.8c-0.6,0.9-1.5,1.7-2.5,2.2C221.4,897.4,220.2,897.7,218.9,897.7z M218.5,884.1
		c-1,0-1.8,0.3-2.4,1s-1,1.6-1.1,2.9h6.8v-0.3c-0.1-1.2-0.4-2.1-1-2.7C220.2,884.4,219.5,884.1,218.5,884.1z"/>
	<path class="st4" d="M231.3,881.6l0.1,1.8c1.2-1.4,2.7-2.1,4.6-2.1c3.3,0,5,1.9,5,5.7v10.5h-3.6v-10.3c0-1-0.2-1.8-0.7-2.2
		c-0.4-0.5-1.1-0.7-2.1-0.7c-1.4,0-2.5,0.6-3.2,1.9v11.3H228v-15.8H231.3z"/>
	<path class="st4" d="M251.2,894.9c0.9,0,1.6-0.3,2.2-0.8s0.9-1.2,0.9-1.9h3.4c0,1-0.3,1.9-0.9,2.8s-1.4,1.5-2.3,2s-2.1,0.7-3.2,0.7
		c-2.2,0-4-0.7-5.3-2.2s-1.9-3.4-1.9-5.9v-0.4c0-2.4,0.6-4.3,1.9-5.8c1.3-1.5,3-2.2,5.3-2.2c1.9,0,3.4,0.5,4.6,1.6
		c1.2,1.1,1.8,2.5,1.9,4.3h-3.4c0-0.9-0.3-1.7-0.9-2.2c-0.6-0.6-1.3-0.9-2.2-0.9c-1.2,0-2,0.4-2.7,1.3c-0.6,0.8-0.9,2.1-1,3.8v0.6
		c0,1.7,0.3,3,0.9,3.8C249.2,894.4,250,894.9,251.2,894.9z"/>
	<path class="st4" d="M267.4,897.7c-2.3,0-4.1-0.7-5.5-2.1c-1.4-1.4-2.1-3.3-2.1-5.7v-0.4c0-1.6,0.3-3,0.9-4.2
		c0.6-1.2,1.5-2.2,2.6-2.9s2.3-1,3.7-1c2.2,0,3.8,0.7,5,2.1c1.2,1.4,1.8,3.3,1.8,5.8v1.4h-10.4c0.1,1.3,0.5,2.3,1.3,3.1
		s1.7,1.1,2.9,1.1c1.6,0,3-0.7,4-2l1.9,1.8c-0.6,0.9-1.5,1.7-2.5,2.2C269.9,897.4,268.7,897.7,267.4,897.7z M267,884.1
		c-1,0-1.8,0.3-2.4,1c-0.6,0.7-1,1.6-1.2,2.9h6.8v-0.3c-0.1-1.2-0.4-2.1-1-2.7C268.7,884.4,268,884.1,267,884.1z"/>
</g>
<g>
	<path d="M407.6,602.6c0-2.1,0.3-4.2,0.8-6.2c0.5-2,1.3-3.8,2.4-5.5s2.2-2.9,3.4-3.6l0.4,1.2c-0.6,0.5-1.3,1.1-1.9,2
		s-1.2,1.9-1.7,3.1s-0.9,2.6-1.2,4.1c-0.3,1.5-0.5,3.2-0.5,5.1c0,2,0.2,4,0.7,5.9s1.1,3.5,1.9,5s1.7,2.5,2.7,3.2l-0.4,1.1
		c-1.2-0.7-2.4-1.9-3.4-3.6c-1.1-1.7-1.8-3.5-2.4-5.5C407.9,607,407.6,604.9,407.6,602.6z"/>
	<path d="M420.2,589.8l7.9,18.8l7.9-18.8h2.4v21.3h-1.8v-9.3l0.1-9.5l-7.9,18.8h-1.4l-7.9-18.7l0.1,9.4v9.3h-1.8v-21.3H420.2z"/>
	<path d="M443.3,590.7c0-0.3,0.1-0.6,0.3-0.8c0.2-0.2,0.5-0.3,0.9-0.3s0.7,0.1,0.9,0.3c0.2,0.2,0.3,0.5,0.3,0.8
		c0,0.3-0.1,0.6-0.3,0.8c-0.2,0.2-0.5,0.3-0.9,0.3s-0.7-0.1-0.9-0.3C443.4,591.3,443.3,591.1,443.3,590.7z M445.3,611.2h-1.8v-15.8
		h1.8V611.2z"/>
	<path d="M451.8,595.3l0.1,2.7c0.6-1,1.3-1.7,2.2-2.2c0.9-0.5,1.9-0.8,2.9-0.8c1.7,0,3,0.5,3.8,1.4s1.2,2.4,1.3,4.3v10.4h-1.7v-10.4
		c0-1.4-0.3-2.5-0.9-3.2s-1.5-1-2.8-1c-1.1,0-2,0.3-2.9,1c-0.8,0.7-1.5,1.6-1.9,2.7v10.9h-1.7v-15.8H451.8z"/>
	<path d="M466.5,590.7c0-0.3,0.1-0.6,0.3-0.8c0.2-0.2,0.5-0.3,0.9-0.3s0.7,0.1,0.9,0.3c0.2,0.2,0.3,0.5,0.3,0.8
		c0,0.3-0.1,0.6-0.3,0.8c-0.2,0.2-0.5,0.3-0.9,0.3s-0.7-0.1-0.9-0.3C466.6,591.3,466.5,591.1,466.5,590.7z M468.5,611.2h-1.8v-15.8
		h1.8V611.2z"/>
	<path d="M474.9,595.3l0.1,2.6c0.6-1,1.3-1.7,2.2-2.2s1.9-0.7,2.9-0.7c2.5,0,4.1,1,4.8,3.1c0.6-1,1.3-1.7,2.3-2.3s2-0.8,3.1-0.8
		c3.4,0,5.1,1.9,5.2,5.6v10.6h-1.8v-10.4c0-1.4-0.3-2.5-0.9-3.1s-1.6-1-2.9-1c-1.3,0-2.3,0.4-3.2,1.2c-0.9,0.8-1.4,1.8-1.5,2.9v10.5
		h-1.8v-10.6c0-1.4-0.3-2.4-1-3s-1.6-1-2.9-1c-1.1,0-2.1,0.3-2.8,0.9c-0.8,0.6-1.4,1.6-1.8,2.8v10.9h-1.8v-15.8H474.9z"/>
	<path d="M510.1,609.2c-1.1,1.5-2.7,2.3-5.1,2.3c-1.7,0-3-0.5-3.9-1.5c-0.9-1-1.3-2.4-1.3-4.4v-10.3h1.7v10.1c0,3,1.2,4.5,3.7,4.5
		c2.5,0,4.1-1,4.8-3.1v-11.5h1.8v15.8h-1.7L510.1,609.2z"/>
	<path d="M517.9,595.3l0.1,2.6c0.6-1,1.3-1.7,2.2-2.2s1.9-0.7,2.9-0.7c2.5,0,4.1,1,4.8,3.1c0.6-1,1.3-1.7,2.3-2.3s2-0.8,3.1-0.8
		c3.4,0,5.1,1.9,5.2,5.6v10.6h-1.8v-10.4c0-1.4-0.3-2.5-0.9-3.1s-1.6-1-2.9-1c-1.3,0-2.3,0.4-3.2,1.2c-0.9,0.8-1.4,1.8-1.5,2.9v10.5
		h-1.8v-10.6c0-1.4-0.3-2.4-1-3s-1.6-1-2.9-1c-1.1,0-2.1,0.3-2.8,0.9c-0.8,0.6-1.4,1.6-1.8,2.8v10.9h-1.8v-15.8H517.9z"/>
	<path d="M549.3,603c0-1.5,0.3-2.9,0.9-4.1s1.4-2.2,2.5-2.8c1.1-0.7,2.3-1,3.7-1c2.1,0,3.8,0.7,5.1,2.2c1.3,1.5,2,3.4,2,5.9v0.4
		c0,1.5-0.3,2.9-0.9,4.1c-0.6,1.2-1.4,2.2-2.5,2.8s-2.3,1-3.7,1c-2.1,0-3.8-0.7-5.1-2.2c-1.3-1.5-2-3.4-2-5.9V603z M551,603.5
		c0,1.9,0.5,3.4,1.5,4.7c1,1.2,2.3,1.8,3.9,1.8c1.6,0,2.9-0.6,3.8-1.8c1-1.2,1.5-2.8,1.5-4.8V603c0-1.2-0.2-2.3-0.7-3.3
		s-1.1-1.8-1.9-2.3s-1.7-0.8-2.8-0.8c-1.6,0-2.8,0.6-3.8,1.8c-1,1.2-1.5,2.8-1.5,4.8V603.5z"/>
	<path d="M568.3,611.2v-14.4h-2.6v-1.4h2.6v-1.9c0-1.6,0.4-2.9,1.2-3.7c0.8-0.9,2-1.3,3.4-1.3c0.7,0,1.3,0.1,1.9,0.2l-0.1,1.5
		c-0.5-0.1-1-0.2-1.6-0.2c-1,0-1.7,0.3-2.3,0.9s-0.8,1.5-0.8,2.6v2h3.8v1.4h-3.8v14.4H568.3z"/>
	<path d="M592.1,611.2h-1.8v-19.2l-5.8,2.2v-1.6l7.3-2.7h0.3V611.2z"/>
	<path d="M614,610c1.2,0,2.2-0.3,3.1-1c0.8-0.7,1.3-1.6,1.3-2.7h1.7c0,1-0.4,1.8-0.9,2.6s-1.3,1.4-2.2,1.9c-0.9,0.4-1.9,0.7-3,0.7
		c-2.1,0-3.7-0.7-4.9-2.2c-1.2-1.4-1.8-3.4-1.8-5.8v-0.5c0-1.6,0.3-2.9,0.8-4.1s1.3-2.1,2.4-2.8c1-0.7,2.2-1,3.6-1
		c1.7,0,3.2,0.5,4.3,1.6c1.1,1,1.7,2.4,1.8,4.1h-1.7c-0.1-1.2-0.5-2.2-1.3-3s-1.8-1.1-3.1-1.1c-1.6,0-2.8,0.6-3.7,1.7
		S609,601,609,603v0.5c0,2,0.4,3.6,1.3,4.7S612.5,610,614,610z"/>
	<path d="M622.7,603c0-1.5,0.3-2.9,0.9-4.1c0.6-1.2,1.4-2.2,2.5-2.8c1.1-0.7,2.3-1,3.7-1c2.1,0,3.8,0.7,5.1,2.2c1.3,1.5,2,3.4,2,5.9
		v0.4c0,1.5-0.3,2.9-0.9,4.1s-1.4,2.2-2.5,2.8s-2.3,1-3.7,1c-2.1,0-3.8-0.7-5.1-2.2c-1.3-1.5-2-3.4-2-5.9V603z M624.4,603.5
		c0,1.9,0.5,3.4,1.5,4.7c1,1.2,2.3,1.8,3.9,1.8c1.6,0,2.9-0.6,3.8-1.8c1-1.2,1.5-2.8,1.5-4.8V603c0-1.2-0.2-2.3-0.7-3.3
		s-1.1-1.8-1.9-2.3s-1.7-0.8-2.8-0.8c-1.6,0-2.8,0.6-3.8,1.8c-1,1.2-1.5,2.8-1.5,4.8V603.5z"/>
	<path d="M650.6,609.2c-1.1,1.5-2.7,2.3-5.1,2.3c-1.7,0-3-0.5-3.9-1.5c-0.9-1-1.3-2.4-1.3-4.4v-10.3h1.7v10.1c0,3,1.2,4.5,3.7,4.5
		c2.5,0,4.1-1,4.8-3.1v-11.5h1.8v15.8h-1.7L650.6,609.2z"/>
	<path d="M664.2,596.8c-0.4-0.1-0.8-0.1-1.2-0.1c-1.1,0-2,0.3-2.8,0.9c-0.8,0.6-1.3,1.5-1.6,2.7v10.9h-1.7v-15.8h1.7l0,2.5
		c0.9-1.9,2.4-2.8,4.5-2.8c0.5,0,0.9,0.1,1.2,0.2L664.2,596.8z"/>
	<path d="M676.5,607.1c0-0.9-0.3-1.6-1-2.1c-0.7-0.5-1.8-0.9-3.2-1.2c-1.4-0.3-2.5-0.6-3.3-1c-0.8-0.4-1.4-0.9-1.7-1.4
		s-0.6-1.2-0.6-2c0-1.2,0.5-2.3,1.6-3.1c1-0.8,2.4-1.2,4-1.2c1.8,0,3.2,0.4,4.3,1.3c1.1,0.9,1.6,2,1.6,3.4h-1.8
		c0-0.9-0.4-1.7-1.2-2.3c-0.8-0.6-1.8-0.9-2.9-0.9c-1.2,0-2.1,0.3-2.8,0.8c-0.7,0.5-1,1.2-1,2c0,0.8,0.3,1.4,0.9,1.8
		c0.6,0.4,1.6,0.8,3.2,1.2c1.5,0.4,2.7,0.7,3.5,1.2s1.3,0.9,1.7,1.5s0.6,1.3,0.6,2.1c0,1.3-0.5,2.4-1.6,3.2s-2.5,1.2-4.2,1.2
		c-1.8,0-3.3-0.4-4.5-1.3c-1.1-0.9-1.7-2-1.7-3.4h1.8c0.1,1,0.5,1.8,1.3,2.4c0.8,0.6,1.8,0.9,3.2,0.9c1.2,0,2.2-0.3,3-0.8
		S676.5,608,676.5,607.1z"/>
	<path d="M688.3,611.5c-1.3,0-2.6-0.3-3.7-1s-1.9-1.6-2.5-2.8c-0.6-1.2-0.9-2.5-0.9-4v-0.6c0-1.5,0.3-2.9,0.9-4.1
		c0.6-1.2,1.4-2.2,2.5-2.9c1.1-0.7,2.2-1,3.4-1c1.9,0,3.5,0.7,4.6,2c1.1,1.3,1.7,3.1,1.7,5.4v1H683v0.3c0,1.8,0.5,3.3,1.5,4.5
		c1,1.2,2.3,1.8,3.9,1.8c0.9,0,1.8-0.2,2.5-0.5c0.7-0.3,1.4-0.9,2-1.6l1.1,0.8C692.7,610.5,690.8,611.5,688.3,611.5z M688,596.5
		c-1.3,0-2.4,0.5-3.3,1.5s-1.5,2.3-1.6,3.9h9.5v-0.2c0-1.5-0.5-2.8-1.3-3.7S689.3,596.5,688,596.5z"/>
	<path d="M702.9,602.8c0,2.1-0.3,4.2-0.8,6.2s-1.3,3.8-2.4,5.5s-2.2,2.9-3.5,3.6l-0.4-1.1c1-0.7,1.8-1.7,2.7-3.2
		c0.8-1.4,1.5-3.1,1.9-5c0.5-1.9,0.7-4,0.7-6.2c0-2-0.2-4-0.7-5.9c-0.5-1.9-1.1-3.6-1.9-5c-0.8-1.5-1.7-2.6-2.6-3.2l0.4-1.1
		c1.2,0.8,2.4,2,3.4,3.6s1.8,3.5,2.4,5.5S702.9,600.5,702.9,602.8z"/>
</g>
</svg>
