<svg id="Layer_1" data-name="Layer 1" xmlns="http://www.w3.org/2000/svg" viewBox="0 0 37.03 19.51"><g id="eye-closed"><path d="M20.72,7.09a8.21,8.21,0,0,0,15,0" fill="none" stroke="#ef76c7" stroke-linecap="round" stroke-linejoin="round" stroke-width="1.5"/><path d="M33,10.4l2.68,3.69" fill="none" stroke="#ef76c7" stroke-linecap="round" stroke-linejoin="round" stroke-width="1.5"/><path d="M28.22,12v3.63" fill="none" stroke="#ef76c7" stroke-linecap="round" stroke-linejoin="round" stroke-width="1.5"/><path d="M23.41,10.4l-2.69,3.69" fill="none" stroke="#ef76c7" stroke-linecap="round" stroke-linejoin="round" stroke-width="1.5"/></g><path d="M11.8,11.16a.35.35,0,0,1,.21.38,2.66,2.66,0,0,1-.39.91,2.43,2.43,0,0,1-.61.79.36.36,0,0,1-.42,0l-3.43-2.5L7.61,15a.33.33,0,0,1-.21.37,2.49,2.49,0,0,1-1,.13,2.46,2.46,0,0,1-1-.13A.33.33,0,0,1,5.19,15l.45-4.22-3.42,2.5a.37.37,0,0,1-.43,0,2.3,2.3,0,0,1-.61-.79,2.24,2.24,0,0,1-.38-.91A.35.35,0,0,1,1,11.16L4.9,9.43,1,7.72A.37.37,0,0,1,.8,7.33a2.19,2.19,0,0,1,.38-.91,2.17,2.17,0,0,1,.61-.77.34.34,0,0,1,.43,0L5.64,8.13,5.19,3.92a.33.33,0,0,1,.21-.38,2.46,2.46,0,0,1,1-.13,2.49,2.49,0,0,1,1,.13.33.33,0,0,1,.21.38L7.16,8.13l3.43-2.48a.33.33,0,0,1,.42,0,2.32,2.32,0,0,1,.61.79,2.4,2.4,0,0,1,.39.89.37.37,0,0,1-.21.39L7.91,9.43Z" fill="#ef76c7"/></svg>