<svg id="Layer_1" data-name="Layer 1" xmlns="http://www.w3.org/2000/svg" viewBox="0 0 37.32 19.51"><path d="M12.09,11.16a.35.35,0,0,1,.21.38,2.47,2.47,0,0,1-.39.91,2.31,2.31,0,0,1-.6.79.38.38,0,0,1-.43,0l-3.43-2.5L7.9,15a.33.33,0,0,1-.21.37,2.46,2.46,0,0,1-1,.13,2.52,2.52,0,0,1-1-.13.31.31,0,0,1-.2-.37l.45-4.22-3.42,2.5a.38.38,0,0,1-.43,0,2.29,2.29,0,0,1-.62-.79,2.58,2.58,0,0,1-.38-.91.37.37,0,0,1,.22-.38L5.2,9.43,1.31,7.72a.39.39,0,0,1-.22-.39,2.51,2.51,0,0,1,.38-.91,2.16,2.16,0,0,1,.62-.77.35.35,0,0,1,.43,0L5.94,8.13,5.49,3.92a.31.31,0,0,1,.2-.38,2.52,2.52,0,0,1,1-.13,2.46,2.46,0,0,1,1,.13.33.33,0,0,1,.21.38L7.45,8.13l3.43-2.48a.35.35,0,0,1,.43,0,2.21,2.21,0,0,1,.6.79,2.23,2.23,0,0,1,.39.89.37.37,0,0,1-.21.39L8.21,9.43Z" fill="#ef76c7"/><g id="eye"><g id="eye-closed"><path d="M23,8,21.36,6.33" fill="none" stroke="#ef76c7" stroke-linecap="round" stroke-linejoin="round" stroke-width="1.5"/><path d="M28.86,5.46V3.83" fill="none" stroke="#ef76c7" stroke-linecap="round" stroke-linejoin="round" stroke-width="1.5"/><path d="M33.67,8l1.69-1.68" fill="none" stroke="#ef76c7" stroke-linecap="round" stroke-linejoin="round" stroke-width="1.5"/></g><path d="M28.44,12.43a1.69,1.69,0,1,0-1.69-1.69A1.69,1.69,0,0,0,28.44,12.43Z" fill="none" stroke="#ef76c7" stroke-linecap="round" stroke-linejoin="round" stroke-width="1.26"/><path d="M36,10.74c-1.59,2.52-4.45,5.06-7.58,5.06s-6-2.54-7.58-5.06c1.93-2.39,4.2-5,7.58-5S34.08,8.35,36,10.74Z" fill="none" stroke="#ef76c7" stroke-linecap="round" stroke-linejoin="round" stroke-width="1.26"/></g></svg>