<svg id="Layer_1" data-name="Layer 1" xmlns="http://www.w3.org/2000/svg" viewBox="0 0 24 35.7"><g id="eye-closed"><path d="M4.5,22.89a8.21,8.21,0,0,0,15,0" fill="none" stroke="#ef76c7" stroke-linecap="round" stroke-linejoin="round" stroke-width="1.5"/><path d="M16.82,26.21l2.68,3.68" fill="none" stroke="#ef76c7" stroke-linecap="round" stroke-linejoin="round" stroke-width="1.5"/><path d="M12,27.76v3.63" fill="none" stroke="#ef76c7" stroke-linecap="round" stroke-linejoin="round" stroke-width="1.5"/><path d="M7.18,26.21,4.5,29.89" fill="none" stroke="#ef76c7" stroke-linecap="round" stroke-linejoin="round" stroke-width="1.5"/></g><path d="M17.44,8.16a.34.34,0,0,1,.21.38,2.58,2.58,0,0,1-.38.91,2.43,2.43,0,0,1-.61.79.36.36,0,0,1-.42,0L12.8,7.74,13.26,12a.33.33,0,0,1-.21.37,2.52,2.52,0,0,1-1,.13,2.46,2.46,0,0,1-1-.13.33.33,0,0,1-.21-.37l.45-4.22-3.42,2.5a.38.38,0,0,1-.43,0,2.3,2.3,0,0,1-.61-.79,2.24,2.24,0,0,1-.38-.91.34.34,0,0,1,.22-.38l3.88-1.73L6.67,4.72a.36.36,0,0,1-.22-.39,2.19,2.19,0,0,1,.38-.91,2.17,2.17,0,0,1,.61-.77.35.35,0,0,1,.43,0l3.42,2.48L10.84.92a.33.33,0,0,1,.21-.38,2.46,2.46,0,0,1,1-.13,2.52,2.52,0,0,1,1,.13.33.33,0,0,1,.21.38L12.8,5.13l3.44-2.48a.33.33,0,0,1,.42,0,2.32,2.32,0,0,1,.61.79,2.33,2.33,0,0,1,.38.89.35.35,0,0,1-.21.39L13.56,6.43Z" fill="#ef76c7"/></svg>