<svg id="Layer_1" data-name="Layer 1" xmlns="http://www.w3.org/2000/svg" viewBox="0 0 41.32 19.51"><g id="eye-closed"><path d="M25,7.09a8.21,8.21,0,0,0,15,0" fill="none" stroke="#ef76c7" stroke-linecap="round" stroke-linejoin="round" stroke-width="1.5"/><path d="M37.32,10.4,40,14.09" fill="none" stroke="#ef76c7" stroke-linecap="round" stroke-linejoin="round" stroke-width="1.5"/><path d="M32.51,12v3.63" fill="none" stroke="#ef76c7" stroke-linecap="round" stroke-linejoin="round" stroke-width="1.5"/><path d="M27.69,10.4,25,14.09" fill="none" stroke="#ef76c7" stroke-linecap="round" stroke-linejoin="round" stroke-width="1.5"/></g><path d="M16.08,11.16a.35.35,0,0,1,.21.38,2.58,2.58,0,0,1-.38.91,2.43,2.43,0,0,1-.61.79.38.38,0,0,1-.43,0l-3.43-2.5L11.89,15c0,.16,0,.28-.21.37a2.43,2.43,0,0,1-1,.13,2.46,2.46,0,0,1-1-.13c-.18-.09-.25-.21-.21-.37l.45-4.22-3.42,2.5a.38.38,0,0,1-.43,0,2.42,2.42,0,0,1-.62-.79,2.33,2.33,0,0,1-.37-.91.35.35,0,0,1,.21-.38L9.19,9.43,5.3,7.72a.37.37,0,0,1-.21-.39,2.27,2.27,0,0,1,.37-.91,2.27,2.27,0,0,1,.62-.77.35.35,0,0,1,.43,0L9.93,8.13,9.48,3.92a.31.31,0,0,1,.21-.38,2.46,2.46,0,0,1,1-.13,2.43,2.43,0,0,1,1,.13.31.31,0,0,1,.21.38l-.45,4.21,3.43-2.48a.35.35,0,0,1,.43,0,2.32,2.32,0,0,1,.61.79,2.33,2.33,0,0,1,.38.89.37.37,0,0,1-.21.39L12.2,9.43Z" fill="#ef76c7"/><rect x="0.97" y="1.11" width="19.33" height="17.26" fill="none" stroke="#ef76c7" stroke-linecap="round" stroke-linejoin="round"/></svg>