<svg id="Layer_1" data-name="Layer 1" xmlns="http://www.w3.org/2000/svg" viewBox="0 0 41.32 19.51"><path d="M16.08,11.16a.35.35,0,0,1,.21.38,2.58,2.58,0,0,1-.38.91,2.43,2.43,0,0,1-.61.79.38.38,0,0,1-.43,0l-3.43-2.5L11.89,15c0,.16,0,.28-.21.37a2.43,2.43,0,0,1-1,.13,2.46,2.46,0,0,1-1-.13c-.18-.09-.25-.21-.21-.37l.45-4.22-3.42,2.5a.38.38,0,0,1-.43,0,2.42,2.42,0,0,1-.62-.79,2.33,2.33,0,0,1-.37-.91.35.35,0,0,1,.21-.38L9.19,9.43,5.3,7.72a.37.37,0,0,1-.21-.39,2.27,2.27,0,0,1,.37-.91,2.27,2.27,0,0,1,.62-.77.35.35,0,0,1,.43,0L9.93,8.13,9.48,3.92a.31.31,0,0,1,.21-.38,2.46,2.46,0,0,1,1-.13,2.43,2.43,0,0,1,1,.13.31.31,0,0,1,.21.38l-.45,4.21,3.43-2.48a.35.35,0,0,1,.43,0,2.32,2.32,0,0,1,.61.79,2.33,2.33,0,0,1,.38.89.37.37,0,0,1-.21.39L12.2,9.43Z" fill="#ef76c7"/><rect x="0.97" y="1.11" width="19.33" height="17.26" fill="none" stroke="#ef76c7" stroke-linecap="round" stroke-linejoin="round"/><g id="eye"><g id="eye-closed"><path d="M27,8,25.35,6.33" fill="none" stroke="#ef76c7" stroke-linecap="round" stroke-linejoin="round" stroke-width="1.5"/><path d="M32.85,5.46V3.83" fill="none" stroke="#ef76c7" stroke-linecap="round" stroke-linejoin="round" stroke-width="1.5"/><path d="M37.67,8l1.68-1.68" fill="none" stroke="#ef76c7" stroke-linecap="round" stroke-linejoin="round" stroke-width="1.5"/></g><path d="M32.43,12.43a1.69,1.69,0,1,0-1.69-1.69A1.69,1.69,0,0,0,32.43,12.43Z" fill="none" stroke="#ef76c7" stroke-linecap="round" stroke-linejoin="round" stroke-width="1.26"/><path d="M40,10.74c-1.59,2.52-4.45,5.06-7.58,5.06s-6-2.54-7.58-5.06c1.93-2.39,4.2-5,7.58-5S38.07,8.35,40,10.74Z" fill="none" stroke="#ef76c7" stroke-linecap="round" stroke-linejoin="round" stroke-width="1.26"/></g></svg>