<svg id="ojGraph" xmlns="http://www.w3.org/2000/svg" viewBox="0 0 1024 768"><defs><style>.cls-1{fill:#fff;}.cls-2,.cls-3,.cls-4,.cls-5{fill:none;stroke-miterlimit:10;}.cls-2{stroke:#f7ec13;stroke-width:1.08px;}.cls-3,.cls-4,.cls-5{stroke:#fff;}.cls-4{stroke-dasharray:6.44 6.44;}.cls-5{stroke-dasharray:6.48 6.48;}.cls-6{opacity:0;}.cls-7{fill:#ed2024;}</style></defs><g id="axis"><path class="cls-1" d="M72.44,526.33H69.5v-19.5L63.6,509v-2.65L72,503.19h.45Z"/><path class="cls-1" d="M95.46,516.51q0,5.13-1.76,7.64a6.25,6.25,0,0,1-5.49,2.49,6.28,6.28,0,0,1-5.45-2.44c-1.18-1.63-1.8-4.06-1.84-7.3V513c0-3.39.59-5.9,1.76-7.55a6.3,6.3,0,0,1,5.5-2.47,6.36,6.36,0,0,1,5.47,2.38q1.75,2.38,1.81,7.35Zm-2.93-4a10.77,10.77,0,0,0-1-5.41,3.61,3.61,0,0,0-3.31-1.7,3.53,3.53,0,0,0-3.27,1.69,10.4,10.4,0,0,0-1.06,5.2V517a11,11,0,0,0,1.08,5.52,3.6,3.6,0,0,0,3.28,1.78,3.53,3.53,0,0,0,3.22-1.68,10.5,10.5,0,0,0,1.1-5.28Z"/><path class="cls-1" d="M77.92,415.1H62.83V413l8-8.86a19.4,19.4,0,0,0,2.44-3.26,5.46,5.46,0,0,0,.68-2.61,4.11,4.11,0,0,0-1.1-2.95,3.8,3.8,0,0,0-2.91-1.16,4.56,4.56,0,0,0-3.39,1.24,4.74,4.74,0,0,0-1.21,3.46H62.39a6.81,6.81,0,0,1,2-5.14,7.6,7.6,0,0,1,5.48-2A7.31,7.31,0,0,1,75,393.44a5.78,5.78,0,0,1,1.87,4.49q0,3.39-4.34,8.09l-6.17,6.69H77.92Z"/><path class="cls-1" d="M95.46,405.28c0,3.43-.59,6-1.76,7.64a6.24,6.24,0,0,1-5.49,2.5A6.3,6.3,0,0,1,82.76,413c-1.18-1.63-1.8-4.07-1.84-7.3v-3.91q0-5.08,1.76-7.54a6.27,6.27,0,0,1,5.5-2.47,6.33,6.33,0,0,1,5.47,2.38c1.17,1.59,1.77,4,1.81,7.35Zm-2.93-4a10.82,10.82,0,0,0-1-5.42,3.61,3.61,0,0,0-3.31-1.7,3.54,3.54,0,0,0-3.27,1.69,10.44,10.44,0,0,0-1.06,5.21v4.68a10.89,10.89,0,0,0,1.08,5.51A3.58,3.58,0,0,0,88.21,413a3.53,3.53,0,0,0,3.22-1.68,10.45,10.45,0,0,0,1.1-5.28Z"/><path class="cls-1" d="M67.08,292h2.2a4.86,4.86,0,0,0,3.26-1.09A3.65,3.65,0,0,0,73.73,288q0-4-4-4.05a4.22,4.22,0,0,0-3,1.08,3.8,3.8,0,0,0-1.13,2.87H62.61a5.87,5.87,0,0,1,2-4.55,7.31,7.31,0,0,1,5.08-1.81,7.2,7.2,0,0,1,5.11,1.73,6.23,6.23,0,0,1,1.85,4.79,5,5,0,0,1-1,2.91,5.83,5.83,0,0,1-2.65,2.1,5.71,5.71,0,0,1,2.93,2,5.57,5.57,0,0,1,1,3.41,6.27,6.27,0,0,1-2,4.91,7.53,7.53,0,0,1-5.26,1.82,7.81,7.81,0,0,1-5.28-1.75,5.85,5.85,0,0,1-2-4.64h2.94a3.75,3.75,0,0,0,1.19,2.91,4.5,4.5,0,0,0,3.18,1.09,4.42,4.42,0,0,0,3.24-1.1,4.27,4.27,0,0,0,1.12-3.18,3.89,3.89,0,0,0-1.23-3.09,5.41,5.41,0,0,0-3.56-1.1h-2.2Z"/><path class="cls-1" d="M95.46,295.07q0,5.15-1.76,7.64a6.24,6.24,0,0,1-5.49,2.5,6.28,6.28,0,0,1-5.45-2.44c-1.18-1.63-1.8-4.06-1.84-7.3v-3.91c0-3.38.59-5.9,1.76-7.54a6.27,6.27,0,0,1,5.5-2.47,6.36,6.36,0,0,1,5.47,2.38q1.75,2.38,1.81,7.35Zm-2.93-4a10.77,10.77,0,0,0-1-5.41,3.59,3.59,0,0,0-3.31-1.7,3.53,3.53,0,0,0-3.27,1.69,10.4,10.4,0,0,0-1.06,5.2v4.68a11,11,0,0,0,1.08,5.52,3.59,3.59,0,0,0,3.28,1.77,3.52,3.52,0,0,0,3.22-1.67,10.5,10.5,0,0,0,1.1-5.28Z"/><path class="cls-1" d="M75.18,185.92h3.2v2.39h-3.2v5.35H72.24v-5.35H61.75v-1.72l10.31-16h3.12Zm-10.11,0h7.17V174.63l-.35.63Z"/><path class="cls-1" d="M95.46,183.84q0,5.13-1.76,7.64a6.26,6.26,0,0,1-5.49,2.5,6.29,6.29,0,0,1-5.45-2.45c-1.18-1.63-1.8-4.06-1.84-7.3v-3.9c0-3.39.59-5.9,1.76-7.55a6.3,6.3,0,0,1,5.5-2.47,6.36,6.36,0,0,1,5.47,2.38q1.75,2.38,1.81,7.35Zm-2.93-4a10.79,10.79,0,0,0-1-5.42,3.61,3.61,0,0,0-3.31-1.7,3.53,3.53,0,0,0-3.27,1.69,10.4,10.4,0,0,0-1.06,5.2v4.69a11,11,0,0,0,1.08,5.51,3.6,3.6,0,0,0,3.28,1.78,3.53,3.53,0,0,0,3.22-1.68,10.5,10.5,0,0,0,1.1-5.28Z"/><path class="cls-1" d="M64.17,71l1.17-11.48h11.8v2.71H67.83l-.7,6.28a7.38,7.38,0,0,1,3.84-1,6.34,6.34,0,0,1,5,2.08,8.11,8.11,0,0,1,1.85,5.62,7.89,7.89,0,0,1-1.92,5.61,7,7,0,0,1-5.37,2,7.27,7.27,0,0,1-5-1.7,6.71,6.71,0,0,1-2.2-4.68h2.77a4.64,4.64,0,0,0,1.41,3,4.36,4.36,0,0,0,3,1,4,4,0,0,0,3.2-1.39,5.81,5.81,0,0,0,1.17-3.85,5.35,5.35,0,0,0-1.26-3.71,4.29,4.29,0,0,0-3.35-1.4,4.82,4.82,0,0,0-3,.84l-.78.64Z"/><path class="cls-1" d="M95.46,72.72q0,5.13-1.76,7.64a6.26,6.26,0,0,1-5.49,2.5,6.29,6.29,0,0,1-5.45-2.45c-1.18-1.63-1.8-4.06-1.84-7.3v-3.9c0-3.39.59-5.9,1.76-7.55a6.29,6.29,0,0,1,5.5-2.46,6.33,6.33,0,0,1,5.47,2.38Q95.4,64,95.46,68.92Zm-2.93-4a10.79,10.79,0,0,0-1-5.42,3.61,3.61,0,0,0-3.31-1.7,3.53,3.53,0,0,0-3.27,1.69,10.41,10.41,0,0,0-1.06,5.21v4.68a10.92,10.92,0,0,0,1.08,5.51,3.6,3.6,0,0,0,3.28,1.78,3.53,3.53,0,0,0,3.22-1.68,10.5,10.5,0,0,0,1.1-5.28Z"/><path class="cls-1" d="M17.56,381.68a12.21,12.21,0,0,1-2.39,4.93,4.55,4.55,0,0,1-3.5,1.54,4.85,4.85,0,0,1-3.9-1.88,7.49,7.49,0,0,1-1.54-4.9A8.18,8.18,0,0,1,7,377.7a6.07,6.07,0,0,1,2.2-2.49,5.6,5.6,0,0,1,3-.89V377a3.63,3.63,0,0,0-2.85,1.15,4.7,4.7,0,0,0-1,3.25,4.77,4.77,0,0,0,.86,3,2.85,2.85,0,0,0,2.38,1.09,2.57,2.57,0,0,0,2.07-1,10.15,10.15,0,0,0,1.54-3.52,16.22,16.22,0,0,1,1.55-3.9,5.89,5.89,0,0,1,2-2.08,5.07,5.07,0,0,1,2.65-.68,4.68,4.68,0,0,1,3.89,1.89,8.09,8.09,0,0,1,1.45,5.06,9.48,9.48,0,0,1-.78,3.84,6.55,6.55,0,0,1-2.16,2.75,5.3,5.3,0,0,1-3.11,1v-2.64a3.42,3.42,0,0,0,2.85-1.34,5.62,5.62,0,0,0,1-3.57,5.14,5.14,0,0,0-.85-3.19,2.75,2.75,0,0,0-2.31-1.11,2.71,2.71,0,0,0-2.27,1A12,12,0,0,0,17.56,381.68Z"/><path class="cls-1" d="M20.13,356.23A7.29,7.29,0,0,1,25,358.57a7.62,7.62,0,0,1,1.72,5.22,7,7,0,0,1-2.53,5.67,10.21,10.21,0,0,1-6.79,2.13H15.5a11.43,11.43,0,0,1-4.9-1,7.34,7.34,0,0,1-3.24-2.82,7.86,7.86,0,0,1-1.13-4.22A7.23,7.23,0,0,1,8,358.46a7.46,7.46,0,0,1,4.92-2.23v2.64a5.78,5.78,0,0,0-3.47,1.49,4.52,4.52,0,0,0-1.07,3.2,4.71,4.71,0,0,0,1.87,4A8.58,8.58,0,0,0,15.56,369h1.93a8.75,8.75,0,0,0,5.17-1.36,4.38,4.38,0,0,0,1.92-3.8,5.06,5.06,0,0,0-1-3.36,5.55,5.55,0,0,0-3.46-1.56Z"/><path class="cls-1" d="M17.13,337.29a12.34,12.34,0,0,1,5.12,1,7.45,7.45,0,0,1,3.33,2.8,7.7,7.7,0,0,1-3.31,11.23,11.88,11.88,0,0,1-5,1H15.87a12.33,12.33,0,0,1-5.09-1,7.39,7.39,0,0,1-4.55-7,7.76,7.76,0,0,1,1.16-4.23,7.46,7.46,0,0,1,3.36-2.82,12.34,12.34,0,0,1,5.12-1Zm-1.29,2.61a9,9,0,0,0-5.45,1.43,5.08,5.08,0,0,0,0,7.92,8.82,8.82,0,0,0,5.27,1.47h1.47a8.9,8.9,0,0,0,5.4-1.45,5.06,5.06,0,0,0,.11-7.93,8.91,8.91,0,0,0-5.32-1.44Z"/><path class="cls-1" d="M18.39,326v4.69h8.07v2.64H6.5v-6.6A7.84,7.84,0,0,1,8,321.56a5.52,5.52,0,0,1,4.47-1.82,5.41,5.41,0,0,1,3.25,1,6,6,0,0,1,2.07,2.8l8.47-4.69h.16v2.83Zm-2.15,4.69v-4a4.58,4.58,0,0,0-1-3.12,3.44,3.44,0,0,0-2.72-1.15,3.59,3.59,0,0,0-2.84,1.1,4.64,4.64,0,0,0-1,3.19v4Z"/><path class="cls-1" d="M17.24,304.77v8.65h7.07V303.37h2.15v12.68H6.5V303.51H8.66v9.91h6.42v-8.65Z"/><path class="cls-1" d="M527.84,699.92h-6.42v17.81H518.8V699.92h-6.4v-2.15h15.44Z"/><path class="cls-1" d="M544.85,697.77v13.57a6.36,6.36,0,0,1-1.78,4.62,7.13,7.13,0,0,1-4.77,2l-.7,0a7.48,7.48,0,0,1-5.23-1.77,6.35,6.35,0,0,1-2-4.86v-13.6H533v13.51a4.17,4.17,0,0,0,4.6,4.57,4.63,4.63,0,0,0,3.42-1.19,4.57,4.57,0,0,0,1.18-3.36V697.77Z"/><path class="cls-1" d="M556.32,709.65h-4.69v8.08H549v-20h6.6a7.84,7.84,0,0,1,5.19,1.53,5.55,5.55,0,0,1,1.82,4.47,5.39,5.39,0,0,1-1,3.25,6.07,6.07,0,0,1-2.8,2.07l4.68,8.47v.17h-2.82Zm-4.69-2.15h4a4.54,4.54,0,0,0,3.11-1,3.4,3.4,0,0,0,1.16-2.72,3.64,3.64,0,0,0-1.1-2.84,4.69,4.69,0,0,0-3.19-1h-4Z"/><path class="cls-1" d="M581.62,717.73H579l-10.05-15.38v15.38h-2.64v-20h2.64L579,713.22V697.77h2.61Z"/><path class="cls-1" d="M592.18,708.83a12.48,12.48,0,0,1-4.93-2.39,4.56,4.56,0,0,1-1.54-3.5,4.82,4.82,0,0,1,1.88-3.9,7.49,7.49,0,0,1,4.9-1.55,8.21,8.21,0,0,1,3.67.8,6.05,6.05,0,0,1,2.49,2.19,5.6,5.6,0,0,1,.89,3.06h-2.65a3.66,3.66,0,0,0-1.15-2.86,4.7,4.7,0,0,0-3.25-1,4.79,4.79,0,0,0-3,.85,2.87,2.87,0,0,0-1.09,2.39,2.56,2.56,0,0,0,1,2.06,10.13,10.13,0,0,0,3.52,1.55,16.25,16.25,0,0,1,3.9,1.54,5.91,5.91,0,0,1,2.08,2,5,5,0,0,1,.68,2.64,4.66,4.66,0,0,1-1.89,3.89,8.09,8.09,0,0,1-5.06,1.46,9.33,9.33,0,0,1-3.84-.79,6.4,6.4,0,0,1-2.75-2.16,5.28,5.28,0,0,1-1-3.11h2.64a3.44,3.44,0,0,0,1.34,2.86,5.62,5.62,0,0,0,3.57,1.05,5.2,5.2,0,0,0,3.19-.85,2.77,2.77,0,0,0,1.11-2.32,2.73,2.73,0,0,0-1-2.27A12,12,0,0,0,592.18,708.83Z"/><path class="cls-1" d="M238.25,663.11h-2.94v-19.5l-5.9,2.17v-2.66l8.38-3.15h.46Z"/><path class="cls-1" d="M371.13,663.11H356V661l8-8.86a19.16,19.16,0,0,0,2.45-3.27,5.5,5.5,0,0,0,.67-2.6,4.13,4.13,0,0,0-1.09-2.95,3.83,3.83,0,0,0-2.91-1.16,4.52,4.52,0,0,0-3.4,1.24,4.78,4.78,0,0,0-1.21,3.46H355.6a6.78,6.78,0,0,1,2-5.14,7.57,7.57,0,0,1,5.48-2,7.28,7.28,0,0,1,5.07,1.68,5.73,5.73,0,0,1,1.87,4.48q0,3.41-4.33,8.1l-6.17,6.69h11.56Z"/><path class="cls-1" d="M487.7,650.17h2.2a4.83,4.83,0,0,0,3.26-1.09,3.63,3.63,0,0,0,1.18-2.86q0-4.05-4-4.05a4.19,4.19,0,0,0-3,1.08,3.82,3.82,0,0,0-1.13,2.87h-2.93a5.87,5.87,0,0,1,2-4.54,7.29,7.29,0,0,1,5.09-1.81,7.22,7.22,0,0,1,5.11,1.72,6.24,6.24,0,0,1,1.85,4.79,5.06,5.06,0,0,1-1,2.91,5.89,5.89,0,0,1-2.64,2.11,5.65,5.65,0,0,1,2.93,2,5.54,5.54,0,0,1,1,3.4,6.28,6.28,0,0,1-2,4.92,7.59,7.59,0,0,1-5.27,1.82,7.77,7.77,0,0,1-5.27-1.76,5.8,5.8,0,0,1-2-4.63H486a3.74,3.74,0,0,0,1.19,2.91,4.54,4.54,0,0,0,3.17,1.09,4.43,4.43,0,0,0,3.25-1.11,4.31,4.31,0,0,0,1.12-3.18,3.87,3.87,0,0,0-1.23-3.08,5.37,5.37,0,0,0-3.56-1.11h-2.2Z"/><path class="cls-1" d="M624.28,655.38h3.2v2.38h-3.2v5.35h-2.94v-5.35H610.85V656l10.32-16h3.11Zm-10.11,0h7.17v-11.3l-.35.64Z"/><path class="cls-1" d="M740.68,651.56l1.17-11.48h11.8v2.71h-9.32l-.7,6.28a7.39,7.39,0,0,1,3.85-1,6.35,6.35,0,0,1,5,2.08,8.17,8.17,0,0,1,1.85,5.62,7.85,7.85,0,0,1-1.93,5.61,7,7,0,0,1-5.36,2,7.29,7.29,0,0,1-5-1.7,6.75,6.75,0,0,1-2.2-4.68h2.77a4.64,4.64,0,0,0,1.41,3,4.38,4.38,0,0,0,3,1,4,4,0,0,0,3.2-1.39,5.86,5.86,0,0,0,1.16-3.85,5.35,5.35,0,0,0-1.26-3.71,4.27,4.27,0,0,0-3.34-1.39,4.83,4.83,0,0,0-3,.83l-.77.64Z"/><path class="cls-1" d="M878.22,640.07v2.48h-.54a7.72,7.72,0,0,0-5.44,2,8.43,8.43,0,0,0-2.34,5.52,6.25,6.25,0,0,1,5-2.08,6,6,0,0,1,4.8,2.12,9.28,9.28,0,0,1-.15,11.16,6.68,6.68,0,0,1-5.19,2.14,6.57,6.57,0,0,1-5.36-2.54,10.06,10.06,0,0,1-2.06-6.54v-1.12q0-6.36,2.71-9.72t8.08-3.44Zm-3.84,10.37a4.92,4.92,0,0,0-4.53,3.17v1.07a7.59,7.59,0,0,0,1.28,4.59,3.85,3.85,0,0,0,3.2,1.74,3.73,3.73,0,0,0,3.11-1.46,7,7,0,0,0,0-7.64A3.66,3.66,0,0,0,874.38,650.44Z"/><path class="cls-1" d="M1009,641.73l-9.54,21.38H996.4l9.51-20.62H993.44v-2.41H1009Z"/></g><g id="grid"><line class="cls-2" x1="108.21" y1="71.67" x2="108.21" y2="625.55"/><line class="cls-3" x1="235.82" y1="71.67" x2="235.82" y2="74.91"/><line class="cls-4" x1="235.82" y1="81.35" x2="235.82" y2="619.09"/><line class="cls-3" x1="235.82" y1="622.31" x2="235.82" y2="625.55"/><line class="cls-3" x1="363.43" y1="71.67" x2="363.43" y2="74.91"/><line class="cls-4" x1="363.43" y1="81.35" x2="363.43" y2="619.09"/><line class="cls-3" x1="363.43" y1="622.31" x2="363.43" y2="625.55"/><line class="cls-3" x1="491.04" y1="71.67" x2="491.04" y2="74.91"/><line class="cls-4" x1="491.04" y1="81.35" x2="491.04" y2="619.09"/><line class="cls-3" x1="491.04" y1="622.31" x2="491.04" y2="625.55"/><line class="cls-3" x1="618.65" y1="71.67" x2="618.65" y2="74.91"/><line class="cls-4" x1="618.65" y1="81.35" x2="618.65" y2="619.09"/><line class="cls-3" x1="618.65" y1="622.31" x2="618.65" y2="625.55"/><line class="cls-3" x1="746.26" y1="71.67" x2="746.26" y2="74.91"/><line class="cls-4" x1="746.26" y1="81.35" x2="746.26" y2="619.09"/><line class="cls-3" x1="746.26" y1="622.31" x2="746.26" y2="625.55"/><line class="cls-3" x1="873.86" y1="71.67" x2="873.86" y2="74.91"/><line class="cls-4" x1="873.86" y1="81.35" x2="873.86" y2="619.09"/><line class="cls-3" x1="873.86" y1="622.31" x2="873.86" y2="625.55"/><line class="cls-3" x1="1001.47" y1="71.67" x2="1001.47" y2="74.91"/><line class="cls-4" x1="1001.47" y1="81.35" x2="1001.47" y2="619.09"/><line class="cls-3" x1="1001.47" y1="622.31" x2="1001.47" y2="625.55"/><line class="cls-3" x1="108.21" y1="72.03" x2="111.45" y2="72.03"/><line class="cls-5" x1="117.93" y1="72.03" x2="995.72" y2="72.03"/><line class="cls-3" x1="998.96" y1="72.03" x2="1002.19" y2="72.03"/><line class="cls-3" x1="108.21" y1="182.59" x2="111.45" y2="182.59"/><line class="cls-5" x1="117.93" y1="182.59" x2="995.72" y2="182.59"/><line class="cls-3" x1="998.96" y1="182.59" x2="1002.19" y2="182.59"/><line class="cls-3" x1="108.21" y1="293.15" x2="111.45" y2="293.15"/><line class="cls-5" x1="117.93" y1="293.15" x2="995.72" y2="293.15"/><line class="cls-3" x1="998.96" y1="293.15" x2="1002.19" y2="293.15"/><line class="cls-3" x1="108.21" y1="403.71" x2="111.45" y2="403.71"/><line class="cls-5" x1="117.93" y1="403.71" x2="995.72" y2="403.71"/><line class="cls-3" x1="998.96" y1="403.71" x2="1002.19" y2="403.71"/><line class="cls-3" x1="108.21" y1="514.27" x2="111.45" y2="514.27"/><line class="cls-5" x1="117.93" y1="514.27" x2="995.72" y2="514.27"/><line class="cls-3" x1="998.96" y1="514.27" x2="1002.19" y2="514.27"/><line class="cls-2" x1="108.21" y1="624.83" x2="1002.19" y2="624.83"/></g><g id="coordPoints" class="cls-6"><circle id="coordPoint1" class="cls-7" cx="108.21" cy="624.83" r="11.19"/><circle id="coordPoint2" class="cls-7" cx="108.21" cy="183.03" r="11.19"/><circle id="coordPoint4" class="cls-7" cx="1002.19" cy="624.83" r="11.19"/><circle id="coordPoint3" class="cls-7" cx="1001.32" cy="183.03" r="11.19"/></g></svg>