<svg id="ojGraphLC" xmlns="http://www.w3.org/2000/svg" viewBox="0 0 1024 768"><g id="lcGraph"><g id="axis"><path d="M72.44,526.33H69.5v-19.5L63.6,509v-2.65l8.4-3.16h.45Z" fill="#fff"/><path d="M95.46,516.51q0,5.13-1.76,7.64a6.22,6.22,0,0,1-5.49,2.49,6.28,6.28,0,0,1-5.45-2.44c-1.18-1.63-1.8-4.06-1.84-7.3V513c0-3.39.59-5.9,1.76-7.55a6.32,6.32,0,0,1,5.5-2.47,6.38,6.38,0,0,1,5.47,2.38q1.75,2.38,1.81,7.35Zm-2.93-4a10.74,10.74,0,0,0-1-5.41,3.6,3.6,0,0,0-3.31-1.7A3.55,3.55,0,0,0,85,507.09a10.38,10.38,0,0,0-1.06,5.2V517A11.09,11.09,0,0,0,85,522.52a3.61,3.61,0,0,0,3.28,1.78,3.53,3.53,0,0,0,3.22-1.68,10.48,10.48,0,0,0,1.1-5.28Z" fill="#fff"/><path d="M77.92,415.1H62.83V413l8-8.86a19.38,19.38,0,0,0,2.44-3.26,5.43,5.43,0,0,0,.68-2.61,4.13,4.13,0,0,0-1.1-2.95,3.79,3.79,0,0,0-2.91-1.16,4.57,4.57,0,0,0-3.39,1.24,4.72,4.72,0,0,0-1.21,3.46h-3a6.8,6.8,0,0,1,2-5.14,7.59,7.59,0,0,1,5.48-2A7.32,7.32,0,0,1,75,393.44a5.78,5.78,0,0,1,1.87,4.49q0,3.39-4.34,8.09l-6.17,6.69H77.92Z" fill="#fff"/><path d="M95.46,405.28c0,3.43-.59,6-1.76,7.64a6.23,6.23,0,0,1-5.49,2.5A6.3,6.3,0,0,1,82.76,413c-1.18-1.63-1.8-4.07-1.84-7.3v-3.91q0-5.09,1.76-7.54a6.27,6.27,0,0,1,5.5-2.47,6.31,6.31,0,0,1,5.47,2.38c1.17,1.59,1.77,4,1.81,7.35Zm-2.93-4a10.78,10.78,0,0,0-1-5.42,3.6,3.6,0,0,0-3.31-1.7A3.55,3.55,0,0,0,85,395.85a10.44,10.44,0,0,0-1.06,5.21v4.68A10.82,10.82,0,0,0,85,411.25,3.57,3.57,0,0,0,88.21,413a3.53,3.53,0,0,0,3.22-1.68,10.48,10.48,0,0,0,1.1-5.28Z" fill="#fff"/><path d="M67.08,292h2.2a4.84,4.84,0,0,0,3.26-1.09A3.64,3.64,0,0,0,73.73,288q0-4-4-4.05a4.2,4.2,0,0,0-3,1.08,3.77,3.77,0,0,0-1.13,2.87h-3a5.87,5.87,0,0,1,2-4.55,7.29,7.29,0,0,1,5.08-1.81,7.17,7.17,0,0,1,5.11,1.73,6.22,6.22,0,0,1,1.85,4.79,5,5,0,0,1-1,2.91,5.81,5.81,0,0,1-2.65,2.1,5.74,5.74,0,0,1,2.93,2,5.53,5.53,0,0,1,1,3.41,6.28,6.28,0,0,1-2,4.91,7.51,7.51,0,0,1-5.26,1.82,7.84,7.84,0,0,1-5.28-1.75,5.86,5.86,0,0,1-2-4.64h2.94a3.76,3.76,0,0,0,1.19,2.91,4.51,4.51,0,0,0,3.18,1.09,4.43,4.43,0,0,0,3.24-1.1,4.28,4.28,0,0,0,1.12-3.18,3.9,3.9,0,0,0-1.23-3.09,5.37,5.37,0,0,0-3.56-1.1h-2.2Z" fill="#fff"/><path d="M95.46,295.07q0,5.15-1.76,7.64a6.23,6.23,0,0,1-5.49,2.5,6.28,6.28,0,0,1-5.45-2.44c-1.18-1.63-1.8-4.06-1.84-7.3v-3.91c0-3.38.59-5.9,1.76-7.54a6.27,6.27,0,0,1,5.5-2.47,6.38,6.38,0,0,1,5.47,2.38q1.75,2.38,1.81,7.35Zm-2.93-4a10.74,10.74,0,0,0-1-5.41,3.6,3.6,0,0,0-3.31-1.7A3.55,3.55,0,0,0,85,285.65a10.38,10.38,0,0,0-1.06,5.2v4.68A11.09,11.09,0,0,0,85,301.05a3.58,3.58,0,0,0,3.28,1.77,3.52,3.52,0,0,0,3.22-1.67,10.48,10.48,0,0,0,1.1-5.28Z" fill="#fff"/><path d="M75.18,185.92h3.2v2.39h-3.2v5.35H72.24v-5.35H61.75v-1.72l10.31-16h3.12Zm-10.11,0h7.17V174.63l-.35.63Z" fill="#fff"/><path d="M95.46,183.84q0,5.13-1.76,7.64a6.26,6.26,0,0,1-5.49,2.5,6.31,6.31,0,0,1-5.45-2.45c-1.18-1.63-1.8-4.06-1.84-7.3v-3.9c0-3.39.59-5.9,1.76-7.55a6.32,6.32,0,0,1,5.5-2.47,6.38,6.38,0,0,1,5.47,2.38q1.75,2.38,1.81,7.35Zm-2.93-4a10.78,10.78,0,0,0-1-5.42,3.6,3.6,0,0,0-3.31-1.7A3.55,3.55,0,0,0,85,174.41a10.38,10.38,0,0,0-1.06,5.2v4.69A11,11,0,0,0,85,189.81a3.61,3.61,0,0,0,3.28,1.78,3.53,3.53,0,0,0,3.22-1.68,10.48,10.48,0,0,0,1.1-5.28Z" fill="#fff"/><path d="M64.17,71l1.17-11.48h11.8v2.71H67.83l-.7,6.28a7.37,7.37,0,0,1,3.84-1,6.33,6.33,0,0,1,5,2.08,8.13,8.13,0,0,1,1.85,5.62,7.88,7.88,0,0,1-1.92,5.61,7,7,0,0,1-5.37,2,7.28,7.28,0,0,1-5-1.7,6.71,6.71,0,0,1-2.2-4.68H66.1a4.63,4.63,0,0,0,1.41,3,4.36,4.36,0,0,0,3,1,4,4,0,0,0,3.2-1.39,5.79,5.79,0,0,0,1.17-3.85,5.39,5.39,0,0,0-1.26-3.71,4.29,4.29,0,0,0-3.35-1.4,4.84,4.84,0,0,0-3,.84l-.78.64Z" fill="#fff"/><path d="M95.46,72.72q0,5.13-1.76,7.64a6.26,6.26,0,0,1-5.49,2.5,6.31,6.31,0,0,1-5.45-2.45c-1.18-1.63-1.8-4.06-1.84-7.3v-3.9c0-3.39.59-5.9,1.76-7.55a6.3,6.3,0,0,1,5.5-2.46,6.31,6.31,0,0,1,5.47,2.38Q95.4,64,95.46,68.92Zm-2.93-4a10.78,10.78,0,0,0-1-5.42,3.6,3.6,0,0,0-3.31-1.7A3.55,3.55,0,0,0,85,63.29a10.44,10.44,0,0,0-1.06,5.21v4.68A10.92,10.92,0,0,0,85,78.69a3.61,3.61,0,0,0,3.28,1.78,3.53,3.53,0,0,0,3.22-1.68,10.48,10.48,0,0,0,1.1-5.28Z" fill="#fff"/><path d="M17.56,381.68a12.18,12.18,0,0,1-2.39,4.93,4.53,4.53,0,0,1-3.5,1.54,4.86,4.86,0,0,1-3.9-1.88,7.52,7.52,0,0,1-1.54-4.9A8.16,8.16,0,0,1,7,377.7a6.09,6.09,0,0,1,2.2-2.49,5.62,5.62,0,0,1,3-.89V377a3.61,3.61,0,0,0-2.85,1.15,4.71,4.71,0,0,0-1,3.25,4.79,4.79,0,0,0,.86,3,2.86,2.86,0,0,0,2.38,1.09,2.57,2.57,0,0,0,2.07-1A10.08,10.08,0,0,0,15.2,381a16.62,16.62,0,0,1,1.55-3.9,5.86,5.86,0,0,1,2-2.08,5,5,0,0,1,2.65-.68,4.68,4.68,0,0,1,3.89,1.89,8.15,8.15,0,0,1,1.45,5.06A9.56,9.56,0,0,1,26,385.1a6.49,6.49,0,0,1-2.16,2.75,5.34,5.34,0,0,1-3.11,1v-2.64a3.45,3.45,0,0,0,2.85-1.34,5.6,5.6,0,0,0,1-3.57,5.08,5.08,0,0,0-.85-3.19A2.75,2.75,0,0,0,21.38,377a2.72,2.72,0,0,0-2.27,1A12.06,12.06,0,0,0,17.56,381.68Z" fill="#fff"/><path d="M20.13,356.23A7.32,7.32,0,0,1,25,358.57a7.63,7.63,0,0,1,1.72,5.22,7,7,0,0,1-2.53,5.67,10.19,10.19,0,0,1-6.79,2.13H15.5a11.47,11.47,0,0,1-4.9-1,7.34,7.34,0,0,1-3.24-2.82,7.82,7.82,0,0,1-1.13-4.22A7.25,7.25,0,0,1,8,358.46a7.45,7.45,0,0,1,4.92-2.23v2.64a5.77,5.77,0,0,0-3.47,1.49,4.51,4.51,0,0,0-1.07,3.2,4.7,4.7,0,0,0,1.87,4A8.55,8.55,0,0,0,15.56,369h1.93a8.75,8.75,0,0,0,5.17-1.36,4.39,4.39,0,0,0,1.92-3.8,5.08,5.08,0,0,0-1-3.36,5.56,5.56,0,0,0-3.46-1.56Z" fill="#fff"/><path d="M17.13,337.29a12.34,12.34,0,0,1,5.12,1,7.51,7.51,0,0,1,3.33,2.8,7.7,7.7,0,0,1-2.25,10.65,7.27,7.27,0,0,1-1.06.58,11.92,11.92,0,0,1-5,1h-1.4a12.37,12.37,0,0,1-5.09-1,7.39,7.39,0,0,1-4.55-7,7.71,7.71,0,0,1,1.16-4.23,7.4,7.4,0,0,1,3.36-2.82,12.34,12.34,0,0,1,5.12-1Zm-1.29,2.61a9,9,0,0,0-5.45,1.43,5.07,5.07,0,0,0-.78,7.14,4.8,4.8,0,0,0,.78.78,8.8,8.8,0,0,0,5.27,1.47h1.47a8.9,8.9,0,0,0,5.4-1.45,5.06,5.06,0,0,0,.92-7.1,5.77,5.77,0,0,0-.81-.83,9,9,0,0,0-5.32-1.44Z" fill="#fff"/><path d="M18.39,326v4.69h8.07v2.64H6.5v-6.6A7.83,7.83,0,0,1,8,321.56a5.52,5.52,0,0,1,4.47-1.82,5.48,5.48,0,0,1,3.25,1,6,6,0,0,1,2.07,2.8l8.47-4.69h.16v2.83Zm-2.15,4.69v-4a4.57,4.57,0,0,0-1-3.12,3.44,3.44,0,0,0-2.72-1.15,3.61,3.61,0,0,0-2.84,1.1,4.65,4.65,0,0,0-1,3.19v4Z" fill="#fff"/><path d="M17.24,304.77v8.65h7.07V303.37h2.15v12.68H6.5V303.51H8.66v9.91h6.42v-8.65Z" fill="#fff"/><path d="M140.84,704.92h-6.42v17.81H131.8V704.92h-6.4v-2.15h15.44Z" fill="#fff"/><path d="M157.85,702.77v13.57a6.35,6.35,0,0,1-1.78,4.62,7.15,7.15,0,0,1-4.77,2h-.7a7.44,7.44,0,0,1-5.23-1.77,6.34,6.34,0,0,1-2-4.86v-13.6H146v13.51a4.17,4.17,0,0,0,3.72,4.57,4.31,4.31,0,0,0,.88,0,4.67,4.67,0,0,0,3.42-1.19,4.56,4.56,0,0,0,1.18-3.36V702.77Z" fill="#fff"/><path d="M169.32,714.65h-4.69v8.08H162v-20h6.6a7.84,7.84,0,0,1,5.19,1.53,5.52,5.52,0,0,1,1.82,4.47,5.34,5.34,0,0,1-1,3.25,6,6,0,0,1-2.8,2.07l4.68,8.47v.17h-2.82Zm-4.69-2.15h4a4.56,4.56,0,0,0,3.11-1,3.39,3.39,0,0,0,1.16-2.72,3.64,3.64,0,0,0-1.1-2.84,4.7,4.7,0,0,0-3.19-1h-4Z" fill="#fff"/><path d="M194.62,722.73H192L182,707.35v15.38h-2.64v-20H182L192,718.22V702.77h2.61Z" fill="#fff"/><path d="M205.18,713.83a12.51,12.51,0,0,1-4.93-2.39,4.57,4.57,0,0,1-1.54-3.5,4.81,4.81,0,0,1,1.88-3.9,7.48,7.48,0,0,1,4.9-1.55,8.18,8.18,0,0,1,3.67.8,6,6,0,0,1,2.49,2.19,5.55,5.55,0,0,1,.89,3.06h-2.65a3.63,3.63,0,0,0-1.15-2.86,4.71,4.71,0,0,0-3.25-1,4.78,4.78,0,0,0-3,.85,2.87,2.87,0,0,0-1.09,2.39,2.55,2.55,0,0,0,1,2.06,10.11,10.11,0,0,0,3.52,1.55,16.17,16.17,0,0,1,3.9,1.54,5.86,5.86,0,0,1,2.08,2,5,5,0,0,1,.68,2.64,4.65,4.65,0,0,1-1.89,3.89,8.09,8.09,0,0,1-5.06,1.46,9.4,9.4,0,0,1-3.84-.79,6.41,6.41,0,0,1-2.75-2.16,5.31,5.31,0,0,1-1-3.11h2.64a3.46,3.46,0,0,0,1.34,2.86,5.58,5.58,0,0,0,3.57,1,5.21,5.21,0,0,0,3.19-.85,2.77,2.77,0,0,0,1.11-2.32,2.72,2.72,0,0,0-1-2.27A12,12,0,0,0,205.18,713.83Z" fill="#fff"/><path d="M238.25,663.11h-2.94v-19.5l-5.9,2.17v-2.66l8.38-3.15h.46Z" fill="#fff"/><path d="M371.13,663.11H356V661l8-8.86a19.51,19.51,0,0,0,2.45-3.27,5.62,5.62,0,0,0,.67-2.6,4.12,4.12,0,0,0-1.09-2.95,3.83,3.83,0,0,0-2.91-1.16,4.5,4.5,0,0,0-3.4,1.24,4.78,4.78,0,0,0-1.21,3.46H355.6a6.8,6.8,0,0,1,2-5.14,7.59,7.59,0,0,1,5.48-2,7.31,7.31,0,0,1,5.07,1.68,5.71,5.71,0,0,1,1.87,4.48q0,3.4-4.33,8.1l-6.17,6.69h11.56Z" fill="#fff"/><path d="M487.7,650.17h2.2a4.84,4.84,0,0,0,3.26-1.09,3.64,3.64,0,0,0,1.18-2.86q0-4.05-4-4.05a4.2,4.2,0,0,0-3,1.08,3.86,3.86,0,0,0-1.13,2.87h-2.93a5.88,5.88,0,0,1,2-4.54,8.25,8.25,0,0,1,10.2-.09,6.22,6.22,0,0,1,1.85,4.79,5,5,0,0,1-1,2.91,5.82,5.82,0,0,1-2.64,2.11,5.64,5.64,0,0,1,2.93,2,5.5,5.5,0,0,1,1,3.4,6.3,6.3,0,0,1-2,4.92,7.63,7.63,0,0,1-5.27,1.82,7.77,7.77,0,0,1-5.27-1.76,5.81,5.81,0,0,1-2-4.63H486a3.76,3.76,0,0,0,1.19,2.91,4.58,4.58,0,0,0,3.17,1.09,4.44,4.44,0,0,0,3.25-1.11,4.32,4.32,0,0,0,1.12-3.18,3.88,3.88,0,0,0-1.23-3.08,5.38,5.38,0,0,0-3.56-1.11h-2.2Z" fill="#fff"/><path d="M624.28,655.38h3.2v2.38h-3.2v5.35h-2.94v-5.35H610.85V656l10.32-16h3.11Zm-10.11,0h7.17v-11.3l-.35.64Z" fill="#fff"/><path d="M740.68,651.56l1.17-11.48h11.8v2.71h-9.32l-.7,6.28a7.43,7.43,0,0,1,3.85-1,6.36,6.36,0,0,1,5,2.08,8.15,8.15,0,0,1,1.85,5.62,7.85,7.85,0,0,1-1.93,5.61,7,7,0,0,1-5.36,2,7.3,7.3,0,0,1-5-1.7,6.73,6.73,0,0,1-2.2-4.68h2.77a4.63,4.63,0,0,0,1.41,3,4.36,4.36,0,0,0,3,1,4,4,0,0,0,3.2-1.39,5.86,5.86,0,0,0,1.16-3.85,5.39,5.39,0,0,0-1.26-3.71,4.27,4.27,0,0,0-3.34-1.39,4.85,4.85,0,0,0-3,.83l-.77.64Z" fill="#fff"/><path d="M878.22,640.07v2.48h-.54a7.69,7.69,0,0,0-5.44,2,8.45,8.45,0,0,0-2.34,5.52,6.24,6.24,0,0,1,5-2.08,6,6,0,0,1,4.8,2.12,9.29,9.29,0,0,1-.15,11.16,6.69,6.69,0,0,1-5.19,2.14,6.58,6.58,0,0,1-5.36-2.54,10.07,10.07,0,0,1-2.06-6.54v-1.12q0-6.36,2.71-9.72t8.08-3.44Zm-3.84,10.37a4.92,4.92,0,0,0-4.53,3.17v1.07a7.55,7.55,0,0,0,1.28,4.59,3.86,3.86,0,0,0,3.2,1.74,3.74,3.74,0,0,0,3.11-1.46,7,7,0,0,0,0-7.64,3.67,3.67,0,0,0-3.06-1.47Z" fill="#fff"/><path d="M1009,641.73l-9.54,21.38H996.4l9.51-20.62H993.44v-2.41H1009Z" fill="#fff"/></g><g id="grid"><line x1="108.21" y1="71.67" x2="108.21" y2="625.55" fill="none" stroke="#f7ec13" stroke-miterlimit="10" stroke-width="1.08"/><line x1="235.82" y1="71.67" x2="235.82" y2="74.91" fill="none" stroke="#fff" stroke-miterlimit="10"/><line x1="235.82" y1="81.35" x2="235.82" y2="619.09" fill="none" stroke="#fff" stroke-miterlimit="10" stroke-dasharray="6.44 6.44"/><line x1="235.82" y1="622.31" x2="235.82" y2="625.55" fill="none" stroke="#fff" stroke-miterlimit="10"/><line x1="363.43" y1="71.67" x2="363.43" y2="74.91" fill="none" stroke="#fff" stroke-miterlimit="10"/><line x1="363.43" y1="81.35" x2="363.43" y2="619.09" fill="none" stroke="#fff" stroke-miterlimit="10" stroke-dasharray="6.44 6.44"/><line x1="363.43" y1="622.31" x2="363.43" y2="625.55" fill="none" stroke="#fff" stroke-miterlimit="10"/><line x1="491.04" y1="71.67" x2="491.04" y2="74.91" fill="none" stroke="#fff" stroke-miterlimit="10"/><line x1="491.04" y1="81.35" x2="491.04" y2="619.09" fill="none" stroke="#fff" stroke-miterlimit="10" stroke-dasharray="6.44 6.44"/><line x1="491.04" y1="622.31" x2="491.04" y2="625.55" fill="none" stroke="#fff" stroke-miterlimit="10"/><line x1="618.65" y1="71.67" x2="618.65" y2="74.91" fill="none" stroke="#fff" stroke-miterlimit="10"/><line x1="618.65" y1="81.35" x2="618.65" y2="619.09" fill="none" stroke="#fff" stroke-miterlimit="10" stroke-dasharray="6.44 6.44"/><line x1="618.65" y1="622.31" x2="618.65" y2="625.55" fill="none" stroke="#fff" stroke-miterlimit="10"/><line x1="746.26" y1="71.67" x2="746.26" y2="74.91" fill="none" stroke="#fff" stroke-miterlimit="10"/><line x1="746.26" y1="81.35" x2="746.26" y2="619.09" fill="none" stroke="#fff" stroke-miterlimit="10" stroke-dasharray="6.44 6.44"/><line x1="746.26" y1="622.31" x2="746.26" y2="625.55" fill="none" stroke="#fff" stroke-miterlimit="10"/><line x1="873.86" y1="71.67" x2="873.86" y2="74.91" fill="none" stroke="#fff" stroke-miterlimit="10"/><line x1="873.86" y1="81.35" x2="873.86" y2="619.09" fill="none" stroke="#fff" stroke-miterlimit="10" stroke-dasharray="6.44 6.44"/><line x1="873.86" y1="622.31" x2="873.86" y2="625.55" fill="none" stroke="#fff" stroke-miterlimit="10"/><line x1="1001.47" y1="71.67" x2="1001.47" y2="74.91" fill="none" stroke="#fff" stroke-miterlimit="10"/><line x1="1001.47" y1="81.35" x2="1001.47" y2="619.09" fill="none" stroke="#fff" stroke-miterlimit="10" stroke-dasharray="6.44 6.44"/><line x1="1001.47" y1="622.31" x2="1001.47" y2="625.55" fill="none" stroke="#fff" stroke-miterlimit="10"/><line x1="108.21" y1="72.03" x2="111.45" y2="72.03" fill="none" stroke="#fff" stroke-miterlimit="10"/><line x1="117.93" y1="72.03" x2="995.72" y2="72.03" fill="none" stroke="#fff" stroke-miterlimit="10" stroke-dasharray="6.48 6.48"/><line x1="998.96" y1="72.03" x2="1002.19" y2="72.03" fill="none" stroke="#fff" stroke-miterlimit="10"/><line x1="108.21" y1="182.59" x2="111.45" y2="182.59" fill="none" stroke="#fff" stroke-miterlimit="10"/><line x1="117.93" y1="182.59" x2="995.72" y2="182.59" fill="none" stroke="#fff" stroke-miterlimit="10" stroke-dasharray="6.48 6.48"/><line x1="998.96" y1="182.59" x2="1002.19" y2="182.59" fill="none" stroke="#fff" stroke-miterlimit="10"/><line x1="108.21" y1="293.15" x2="111.45" y2="293.15" fill="none" stroke="#fff" stroke-miterlimit="10"/><line x1="117.93" y1="293.15" x2="995.72" y2="293.15" fill="none" stroke="#fff" stroke-miterlimit="10" stroke-dasharray="6.48 6.48"/><line x1="998.96" y1="293.15" x2="1002.19" y2="293.15" fill="none" stroke="#fff" stroke-miterlimit="10"/><line x1="108.21" y1="403.71" x2="111.45" y2="403.71" fill="none" stroke="#fff" stroke-miterlimit="10"/><line x1="117.93" y1="403.71" x2="995.72" y2="403.71" fill="none" stroke="#fff" stroke-miterlimit="10" stroke-dasharray="6.48 6.48"/><line x1="998.96" y1="403.71" x2="1002.19" y2="403.71" fill="none" stroke="#fff" stroke-miterlimit="10"/><line x1="108.21" y1="514.27" x2="111.45" y2="514.27" fill="none" stroke="#fff" stroke-miterlimit="10"/><line x1="117.93" y1="514.27" x2="995.72" y2="514.27" fill="none" stroke="#fff" stroke-miterlimit="10" stroke-dasharray="6.48 6.48"/><line x1="998.96" y1="514.27" x2="1002.19" y2="514.27" fill="none" stroke="#fff" stroke-miterlimit="10"/><line x1="108.21" y1="624.83" x2="1002.19" y2="624.83" fill="none" stroke="#f7ec13" stroke-miterlimit="10" stroke-width="1.08"/></g><polyline id="linePink" points="108.21 622.31 235.82 381.58 363.36 374.31 490.35 333.33 619.16 308.38 744.35 272.73 872.78 256.06 1001.22 309.71" fill="none" stroke="#f079c7" stroke-miterlimit="10" stroke-width="4"/><polyline id="lineBlue" points="107.1 624.83 236.51 430.57 363.36 471.75 490.35 420.76 616.9 371.75 746.26 339.88 873.86 309.71 1001.22 268.8" fill="none" stroke="#a6d0dd" stroke-miterlimit="10" stroke-width="4"/><polyline id="lineGreen" points="107.1 622.31 236.51 482.53 363.36 425.67 491.04 384 617.75 371.6 746.26 403.4 874.21 384 1000.58 309.71" fill="none" stroke="#8fbc2e" stroke-miterlimit="10" stroke-width="4"/></g><rect id="keyPink" x="261.76" y="683.39" width="166.59" height="63.73" fill="#f079c7"/><rect id="keyGreen" x="471.76" y="683.39" width="166.59" height="63.73" fill="#8fbc2e"/><rect id="keyBlue" x="681.76" y="683.39" width="166.59" height="63.73" fill="#a6d0dd"/></svg>